<?xml version="1.0" encoding="UTF-8" standalone="no"?><svg xmlns="http://www.w3.org/2000/svg" xmlns:xlink="http://www.w3.org/1999/xlink" contentScriptType="application/ecmascript" contentStyleType="text/css" height="318.4px" preserveAspectRatio="none" style="width:636px;height:318px;background:#FFFFFF;" version="1.1" viewBox="0 0 636 318" width="636.8px" zoomAndPan="magnify"><defs><filter height="300%" id="f59k121vcgvdj" width="300%" x="-1" y="-1"><feGaussianBlur result="blurOut" stdDeviation="0.8000000000000002"/><feColorMatrix in="blurOut" result="blurOut2" type="matrix" values="0 0 0 0 0 0 0 0 0 0 0 0 0 0 0 0 0 0 .4 0"/><feOffset dx="1.6000000000000003" dy="1.6000000000000003" in="blurOut2" result="blurOut3"/><feBlend in="SourceGraphic" in2="blurOut3" mode="normal"/></filter></defs><g><rect fill="#FFFFFF" filter="url(#f59k121vcgvdj)" height="235.7531" style="stroke:#A80036;stroke-width:0.4000000000000001;" width="4" x="20.2" y="39.8438"/><rect fill="#FFFFFF" filter="url(#f59k121vcgvdj)" height="182.9094" style="stroke:#A80036;stroke-width:0.4000000000000001;" width="4" x="137.4" y="55.325"/><rect fill="#FFFFFF" filter="url(#f59k121vcgvdj)" height="18.6813" style="stroke:#A80036;stroke-width:0.4000000000000001;" width="4" x="137.4" y="256.9156"/><rect fill="#FFFFFF" filter="url(#f59k121vcgvdj)" height="158.6281" style="stroke:#A80036;stroke-width:0.4000000000000001;" width="4" x="226.2" y="67.4656"/><rect fill="#FFFFFF" filter="url(#f59k121vcgvdj)" height="134.3469" style="stroke:#A80036;stroke-width:0.4000000000000001;" width="4" x="318.8" y="79.6063"/><rect fill="#FFFFFF" filter="url(#f59k121vcgvdj)" height="6" style="stroke:#A80036;stroke-width:0.4000000000000001;" width="4" x="385.4" y="199.0125"/><rect fill="#FFFFFF" filter="url(#f59k121vcgvdj)" height="24.2813" style="stroke:#A80036;stroke-width:0.4000000000000001;" width="4" x="497.6" y="91.7469"/><rect fill="#FFFFFF" filter="url(#f59k121vcgvdj)" height="24.2813" style="stroke:#A80036;stroke-width:0.4000000000000001;" width="4" x="556.4" y="128.1688"/><rect fill="#FFFFFF" filter="url(#f59k121vcgvdj)" height="12.1406" style="stroke:#A80036;stroke-width:0.4000000000000001;" width="4" x="610.8" y="164.5906"/><rect fill="#FFFFFF" filter="url(#f59k121vcgvdj)" height="19.4813" style="stroke:#000000;stroke-width:0.8000000000000002;" width="137.2" x="275.6" y="182.7313"/><line style="stroke:#A80036;stroke-width:0.4000000000000001;stroke-dasharray:5.0,5.0;" x1="22" x2="22" y1="35.8438" y2="282.7969"/><line style="stroke:#A80036;stroke-width:0.4000000000000001;stroke-dasharray:5.0,5.0;" x1="139.2" x2="139.2" y1="35.8438" y2="282.7969"/><line style="stroke:#A80036;stroke-width:0.4000000000000001;stroke-dasharray:5.0,5.0;" x1="228" x2="228" y1="35.8438" y2="282.7969"/><line style="stroke:#A80036;stroke-width:0.4000000000000001;stroke-dasharray:5.0,5.0;" x1="320.8" x2="320.8" y1="35.8438" y2="282.7969"/><line style="stroke:#A80036;stroke-width:0.4000000000000001;stroke-dasharray:5.0,5.0;" x1="387.2" x2="387.2" y1="35.8438" y2="282.7969"/><line style="stroke:#A80036;stroke-width:0.4000000000000001;stroke-dasharray:5.0,5.0;" x1="440" x2="440" y1="35.8438" y2="282.7969"/><line style="stroke:#A80036;stroke-width:0.4000000000000001;stroke-dasharray:5.0,5.0;" x1="499.6" x2="499.6" y1="35.8438" y2="282.7969"/><line style="stroke:#A80036;stroke-width:0.4000000000000001;stroke-dasharray:5.0,5.0;" x1="558.4" x2="558.4" y1="35.8438" y2="282.7969"/><line style="stroke:#A80036;stroke-width:0.4000000000000001;stroke-dasharray:5.0,5.0;" x1="612.8" x2="612.8" y1="35.8438" y2="282.7969"/><text fill="#000000" font-family="sans-serif" font-size="5.6" lengthAdjust="spacing" textLength="38" x="2" y="34.6133">Sales Manager</text><ellipse cx="22.2" cy="6" fill="#FEFECE" filter="url(#f59k121vcgvdj)" rx="3.2" ry="3.2" style="stroke:#A80036;stroke-width:0.8000000000000002;"/><path d="M22.2,9.2 L22.2,20 M17,12.4 L27.4,12.4 M22.2,20 L17,26 M22.2,20 L27.4,26 " fill="none" filter="url(#f59k121vcgvdj)" style="stroke:#A80036;stroke-width:0.8000000000000002;"/><text fill="#000000" font-family="sans-serif" font-size="5.6" lengthAdjust="spacing" textLength="38" x="2" y="288.2102">Sales Manager</text><ellipse cx="22.2" cy="293.4406" fill="#FEFECE" filter="url(#f59k121vcgvdj)" rx="3.2" ry="3.2" style="stroke:#A80036;stroke-width:0.8000000000000002;"/><path d="M22.2,296.6406 L22.2,307.4406 M17,299.8406 L27.4,299.8406 M22.2,307.4406 L17,313.4406 M22.2,307.4406 L27.4,313.4406 " fill="none" filter="url(#f59k121vcgvdj)" style="stroke:#A80036;stroke-width:0.8000000000000002;"/><rect fill="#FEFECE" filter="url(#f59k121vcgvdj)" height="19.6875" style="stroke:#A80036;stroke-width:0.6000000000000001;" width="73.2" x="102" y="14.1563"/><text fill="#000000" font-family="sans-serif" font-size="5.6" font-style="italic" lengthAdjust="spacing" textLength="38" x="119.6" y="22.7695">«presentation»</text><text fill="#000000" font-family="sans-serif" font-size="5.6" lengthAdjust="spacing" textLength="67.6" x="104.8" y="29.8133">ObterRelatorioEstatisticoUI</text><rect fill="#FEFECE" filter="url(#f59k121vcgvdj)" height="19.6875" style="stroke:#A80036;stroke-width:0.6000000000000001;" width="73.2" x="102" y="282.3969"/><text fill="#000000" font-family="sans-serif" font-size="5.6" font-style="italic" lengthAdjust="spacing" textLength="38" x="119.6" y="291.0102">«presentation»</text><text fill="#000000" font-family="sans-serif" font-size="5.6" lengthAdjust="spacing" textLength="67.6" x="104.8" y="298.0539">ObterRelatorioEstatisticoUI</text><rect fill="#FEFECE" filter="url(#f59k121vcgvdj)" height="19.6875" style="stroke:#A80036;stroke-width:0.6000000000000001;" width="93.2" x="180.8" y="14.1563"/><text fill="#000000" font-family="sans-serif" font-size="5.6" font-style="italic" lengthAdjust="spacing" textLength="33.6" x="210.6" y="22.7695">«application»</text><text fill="#000000" font-family="sans-serif" font-size="5.6" lengthAdjust="spacing" textLength="87.6" x="183.6" y="29.8133">ObterRelatorioEstatisticoController</text><rect fill="#FEFECE" filter="url(#f59k121vcgvdj)" height="19.6875" style="stroke:#A80036;stroke-width:0.6000000000000001;" width="93.2" x="180.8" y="282.3969"/><text fill="#000000" font-family="sans-serif" font-size="5.6" font-style="italic" lengthAdjust="spacing" textLength="33.6" x="210.6" y="291.0102">«application»</text><text fill="#000000" font-family="sans-serif" font-size="5.6" lengthAdjust="spacing" textLength="87.6" x="183.6" y="298.0539">ObterRelatorioEstatisticoController</text><rect fill="#FEFECE" filter="url(#f59k121vcgvdj)" height="19.6875" style="stroke:#A80036;stroke-width:0.6000000000000001;" width="80.8" x="279.6" y="14.1563"/><text fill="#000000" font-family="sans-serif" font-size="5.6" font-style="italic" lengthAdjust="spacing" textLength="33.6" x="303.2" y="22.7695">«application»</text><text fill="#000000" font-family="sans-serif" font-size="5.6" lengthAdjust="spacing" textLength="75.2" x="282.4" y="29.8133">ListQuestionnaireDTOService</text><rect fill="#FEFECE" filter="url(#f59k121vcgvdj)" height="19.6875" style="stroke:#A80036;stroke-width:0.6000000000000001;" width="80.8" x="279.6" y="282.3969"/><text fill="#000000" font-family="sans-serif" font-size="5.6" font-style="italic" lengthAdjust="spacing" textLength="33.6" x="303.2" y="291.0102">«application»</text><text fill="#000000" font-family="sans-serif" font-size="5.6" lengthAdjust="spacing" textLength="75.2" x="282.4" y="298.0539">ListQuestionnaireDTOService</text><rect fill="#FEFECE" filter="url(#f59k121vcgvdj)" height="19.6875" style="stroke:#A80036;stroke-width:0.6000000000000001;" width="41.2" x="366" y="14.1563"/><text fill="#000000" font-family="sans-serif" font-size="5.6" font-style="italic" lengthAdjust="spacing" textLength="24.8" x="374.2" y="22.7695">«domain»</text><text fill="#000000" font-family="sans-serif" font-size="5.6" lengthAdjust="spacing" textLength="35.6" x="368.8" y="29.8133">Questionnaire</text><rect fill="#FEFECE" filter="url(#f59k121vcgvdj)" height="19.6875" style="stroke:#A80036;stroke-width:0.6000000000000001;" width="41.2" x="366" y="282.3969"/><text fill="#000000" font-family="sans-serif" font-size="5.6" font-style="italic" lengthAdjust="spacing" textLength="24.8" x="374.2" y="291.0102">«domain»</text><text fill="#000000" font-family="sans-serif" font-size="5.6" lengthAdjust="spacing" textLength="35.6" x="368.8" y="298.0539">Questionnaire</text><rect fill="#FEFECE" filter="url(#f59k121vcgvdj)" height="19.6875" style="stroke:#A80036;stroke-width:0.6000000000000001;" width="53.2" x="412.8" y="14.1563"/><text fill="#000000" font-family="sans-serif" font-size="5.6" font-style="italic" lengthAdjust="spacing" textLength="14.4" x="432.2" y="22.7695">«dto»</text><text fill="#000000" font-family="sans-serif" font-size="5.6" lengthAdjust="spacing" textLength="47.6" x="415.6" y="29.8133">QuestionnaireDTO</text><rect fill="#FEFECE" filter="url(#f59k121vcgvdj)" height="19.6875" style="stroke:#A80036;stroke-width:0.6000000000000001;" width="53.2" x="412.8" y="282.3969"/><text fill="#000000" font-family="sans-serif" font-size="5.6" font-style="italic" lengthAdjust="spacing" textLength="14.4" x="432.2" y="291.0102">«dto»</text><text fill="#000000" font-family="sans-serif" font-size="5.6" lengthAdjust="spacing" textLength="47.6" x="415.6" y="298.0539">QuestionnaireDTO</text><rect fill="#FEFECE" filter="url(#f59k121vcgvdj)" height="19.6875" style="stroke:#A80036;stroke-width:0.6000000000000001;" width="54.4" x="471.6" y="14.1563"/><text fill="#000000" font-family="sans-serif" font-size="5.6" font-style="italic" lengthAdjust="spacing" textLength="35.6" x="481" y="22.7695">«persistence»</text><text fill="#000000" font-family="sans-serif" font-size="5.6" lengthAdjust="spacing" textLength="48.8" x="474.4" y="29.8133">PersistenceContext</text><rect fill="#FEFECE" filter="url(#f59k121vcgvdj)" height="19.6875" style="stroke:#A80036;stroke-width:0.6000000000000001;" width="54.4" x="471.6" y="282.3969"/><text fill="#000000" font-family="sans-serif" font-size="5.6" font-style="italic" lengthAdjust="spacing" textLength="35.6" x="481" y="291.0102">«persistence»</text><text fill="#000000" font-family="sans-serif" font-size="5.6" lengthAdjust="spacing" textLength="48.8" x="474.4" y="298.0539">PersistenceContext</text><rect fill="#FEFECE" filter="url(#f59k121vcgvdj)" height="19.6875" style="stroke:#A80036;stroke-width:0.6000000000000001;" width="52" x="531.6" y="14.1563"/><text fill="#000000" font-family="sans-serif" font-size="5.6" font-style="italic" lengthAdjust="spacing" textLength="23.6" x="545.8" y="22.7695">«factory»</text><text fill="#000000" font-family="sans-serif" font-size="5.6" lengthAdjust="spacing" textLength="46.4" x="534.4" y="29.8133">RepositoryFactory</text><rect fill="#FEFECE" filter="url(#f59k121vcgvdj)" height="19.6875" style="stroke:#A80036;stroke-width:0.6000000000000001;" width="52" x="531.6" y="282.3969"/><text fill="#000000" font-family="sans-serif" font-size="5.6" font-style="italic" lengthAdjust="spacing" textLength="23.6" x="545.8" y="291.0102">«factory»</text><text fill="#000000" font-family="sans-serif" font-size="5.6" lengthAdjust="spacing" textLength="46.4" x="534.4" y="298.0539">RepositoryFactory</text><text fill="#000000" font-family="sans-serif" font-size="5.6" font-style="italic" lengthAdjust="spacing" textLength="31.6" x="595.8" y="27.5695">«repository»</text><text fill="#000000" font-family="sans-serif" font-size="5.6" lengthAdjust="spacing" textLength="44.8" x="589.2" y="34.6133">SurveyRepository</text><path d="M605.6,7.3563 C605.6,3.3563 612.8,3.3563 612.8,3.3563 C612.8,3.3563 620,3.3563 620,7.3563 L620,17.7563 C620,21.7563 612.8,21.7563 612.8,21.7563 C612.8,21.7563 605.6,21.7563 605.6,17.7563 L605.6,7.3563 " fill="#FEFECE" filter="url(#f59k121vcgvdj)" style="stroke:#000000;stroke-width:0.6000000000000001;"/><path d="M605.6,7.3563 C605.6,11.3563 612.8,11.3563 612.8,11.3563 C612.8,11.3563 620,11.3563 620,7.3563 " fill="none" style="stroke:#000000;stroke-width:0.6000000000000001;"/><text fill="#000000" font-family="sans-serif" font-size="5.6" font-style="italic" lengthAdjust="spacing" textLength="31.6" x="595.8" y="288.2102">«repository»</text><text fill="#000000" font-family="sans-serif" font-size="5.6" lengthAdjust="spacing" textLength="44.8" x="589.2" y="295.2539">SurveyRepository</text><path d="M605.6,300.4844 C605.6,296.4844 612.8,296.4844 612.8,296.4844 C612.8,296.4844 620,296.4844 620,300.4844 L620,310.8844 C620,314.8844 612.8,314.8844 612.8,314.8844 C612.8,314.8844 605.6,314.8844 605.6,310.8844 L605.6,300.4844 " fill="#FEFECE" filter="url(#f59k121vcgvdj)" style="stroke:#000000;stroke-width:0.6000000000000001;"/><path d="M605.6,300.4844 C605.6,304.4844 612.8,304.4844 612.8,304.4844 C612.8,304.4844 620,304.4844 620,300.4844 " fill="none" style="stroke:#000000;stroke-width:0.6000000000000001;"/><rect fill="#FFFFFF" filter="url(#f59k121vcgvdj)" height="235.7531" style="stroke:#A80036;stroke-width:0.4000000000000001;" width="4" x="20.2" y="39.8438"/><rect fill="#FFFFFF" filter="url(#f59k121vcgvdj)" height="182.9094" style="stroke:#A80036;stroke-width:0.4000000000000001;" width="4" x="137.4" y="55.325"/><rect fill="#FFFFFF" filter="url(#f59k121vcgvdj)" height="18.6813" style="stroke:#A80036;stroke-width:0.4000000000000001;" width="4" x="137.4" y="256.9156"/><rect fill="#FFFFFF" filter="url(#f59k121vcgvdj)" height="158.6281" style="stroke:#A80036;stroke-width:0.4000000000000001;" width="4" x="226.2" y="67.4656"/><rect fill="#FFFFFF" filter="url(#f59k121vcgvdj)" height="134.3469" style="stroke:#A80036;stroke-width:0.4000000000000001;" width="4" x="318.8" y="79.6063"/><rect fill="#FFFFFF" filter="url(#f59k121vcgvdj)" height="6" style="stroke:#A80036;stroke-width:0.4000000000000001;" width="4" x="385.4" y="199.0125"/><rect fill="#FFFFFF" filter="url(#f59k121vcgvdj)" height="24.2813" style="stroke:#A80036;stroke-width:0.4000000000000001;" width="4" x="497.6" y="91.7469"/><rect fill="#FFFFFF" filter="url(#f59k121vcgvdj)" height="24.2813" style="stroke:#A80036;stroke-width:0.4000000000000001;" width="4" x="556.4" y="128.1688"/><rect fill="#FFFFFF" filter="url(#f59k121vcgvdj)" height="12.1406" style="stroke:#A80036;stroke-width:0.4000000000000001;" width="4" x="610.8" y="164.5906"/><polygon fill="#A80036" points="132.6,53.725,136.6,55.325,132.6,56.925,134.2,55.325" style="stroke:#A80036;stroke-width:0.4000000000000001;"/><line style="stroke:#A80036;stroke-width:0.4000000000000001;" x1="24.2" x2="135" y1="55.325" y2="55.325"/><text fill="#000000" font-family="sans-serif" font-size="5.2" font-weight="bold" lengthAdjust="spacing" textLength="2.8" x="27" y="50.1121">1</text><text fill="#000000" font-family="sans-serif" font-size="5.2" lengthAdjust="spacing" textLength="84" x="31.4" y="46.8418">Inicia o processo de obter o relatório</text><text fill="#000000" font-family="sans-serif" font-size="5.2" lengthAdjust="spacing" textLength="99.6" x="33" y="53.3824">estatístico de um determinado questionário</text><polygon fill="#A80036" points="221.4,65.8656,225.4,67.4656,221.4,69.0656,223,67.4656" style="stroke:#A80036;stroke-width:0.4000000000000001;"/><line style="stroke:#A80036;stroke-width:0.4000000000000001;" x1="141.4" x2="223.8" y1="67.4656" y2="67.4656"/><text fill="#000000" font-family="sans-serif" font-size="5.2" font-weight="bold" lengthAdjust="spacing" textLength="2.8" x="144.2" y="65.523">2</text><text fill="#000000" font-family="sans-serif" font-size="5.2" lengthAdjust="spacing" textLength="52" x="148.6" y="65.523">findAllQuestionnaires()</text><polygon fill="#A80036" points="314,78.0063,318,79.6063,314,81.2063,315.6,79.6063" style="stroke:#A80036;stroke-width:0.4000000000000001;"/><line style="stroke:#A80036;stroke-width:0.4000000000000001;" x1="230.2" x2="316.4" y1="79.6063" y2="79.6063"/><text fill="#000000" font-family="sans-serif" font-size="5.2" font-weight="bold" lengthAdjust="spacing" textLength="2.8" x="233" y="77.6637">3</text><text fill="#000000" font-family="sans-serif" font-size="5.2" lengthAdjust="spacing" textLength="28.8" x="237.4" y="77.6637">getSurveys()</text><polygon fill="#A80036" points="492.8,90.1469,496.8,91.7469,492.8,93.3469,494.4,91.7469" style="stroke:#A80036;stroke-width:0.4000000000000001;"/><line style="stroke:#A80036;stroke-width:0.4000000000000001;" x1="322.8" x2="495.2" y1="91.7469" y2="91.7469"/><text fill="#000000" font-family="sans-serif" font-size="5.2" font-weight="bold" lengthAdjust="spacing" textLength="2.8" x="325.6" y="89.8043">4</text><text fill="#000000" font-family="sans-serif" font-size="5.2" lengthAdjust="spacing" textLength="30" x="330" y="89.8043">repositories()</text><polygon fill="#A80036" points="553.6,102.2875,557.6,103.8875,553.6,105.4875,555.2,103.8875" style="stroke:#A80036;stroke-width:0.4000000000000001;"/><line style="stroke:#A80036;stroke-width:0.4000000000000001;" x1="501.6" x2="556" y1="103.8875" y2="103.8875"/><text fill="#000000" font-family="sans-serif" font-size="5.2" font-weight="bold" lengthAdjust="spacing" textLength="2.8" x="504.4" y="101.9449">5</text><text fill="#000000" font-family="sans-serif" font-size="5.2" lengthAdjust="spacing" textLength="14.4" x="508.8" y="101.9449">create</text><polygon fill="#A80036" points="327.2,114.4281,323.2,116.0281,327.2,117.6281,325.6,116.0281" style="stroke:#A80036;stroke-width:0.4000000000000001;"/><line style="stroke:#A80036;stroke-width:0.4000000000000001;" x1="324.8" x2="499.2" y1="116.0281" y2="116.0281"/><text fill="#000000" font-family="sans-serif" font-size="5.2" font-weight="bold" lengthAdjust="spacing" textLength="2.8" x="329.6" y="114.0855">6</text><text fill="#000000" font-family="sans-serif" font-size="5.2" lengthAdjust="spacing" textLength="15.6" x="334" y="114.0855">factory</text><polygon fill="#A80036" points="551.6,126.5688,555.6,128.1688,551.6,129.7688,553.2,128.1688" style="stroke:#A80036;stroke-width:0.4000000000000001;"/><line style="stroke:#A80036;stroke-width:0.4000000000000001;" x1="322.8" x2="554" y1="128.1688" y2="128.1688"/><text fill="#000000" font-family="sans-serif" font-size="5.2" font-weight="bold" lengthAdjust="spacing" textLength="2.8" x="325.6" y="126.2262">7</text><text fill="#000000" font-family="sans-serif" font-size="5.2" lengthAdjust="spacing" textLength="20.8" x="330" y="126.2262">surveys()</text><polygon fill="#A80036" points="608,138.7094,612,140.3094,608,141.9094,609.6,140.3094" style="stroke:#A80036;stroke-width:0.4000000000000001;"/><line style="stroke:#A80036;stroke-width:0.4000000000000001;" x1="560.4" x2="610.4" y1="140.3094" y2="140.3094"/><text fill="#000000" font-family="sans-serif" font-size="5.2" font-weight="bold" lengthAdjust="spacing" textLength="2.8" x="563.2" y="138.3668">8</text><text fill="#000000" font-family="sans-serif" font-size="5.2" lengthAdjust="spacing" textLength="14.4" x="567.6" y="138.3668">create</text><polygon fill="#A80036" points="327.2,150.85,323.2,152.45,327.2,154.05,325.6,152.45" style="stroke:#A80036;stroke-width:0.4000000000000001;"/><line style="stroke:#A80036;stroke-width:0.4000000000000001;" x1="324.8" x2="558" y1="152.45" y2="152.45"/><text fill="#000000" font-family="sans-serif" font-size="5.2" font-weight="bold" lengthAdjust="spacing" textLength="2.8" x="329.6" y="150.5074">9</text><text fill="#000000" font-family="sans-serif" font-size="5.2" lengthAdjust="spacing" textLength="39.6" x="334" y="150.5074">surveyRepository</text><polygon fill="#A80036" points="606,162.9906,610,164.5906,606,166.1906,607.6,164.5906" style="stroke:#A80036;stroke-width:0.4000000000000001;"/><line style="stroke:#A80036;stroke-width:0.4000000000000001;" x1="322.8" x2="608.4" y1="164.5906" y2="164.5906"/><text fill="#000000" font-family="sans-serif" font-size="5.2" font-weight="bold" lengthAdjust="spacing" textLength="5.6" x="325.6" y="162.648">10</text><text fill="#000000" font-family="sans-serif" font-size="5.2" lengthAdjust="spacing" textLength="17.2" x="332.8" y="162.648">findAll()</text><polygon fill="#A80036" points="327.2,175.1313,323.2,176.7313,327.2,178.3313,325.6,176.7313" style="stroke:#A80036;stroke-width:0.4000000000000001;"/><line style="stroke:#A80036;stroke-width:0.4000000000000001;stroke-dasharray:2.0,2.0;" x1="324.8" x2="612.4" y1="176.7313" y2="176.7313"/><text fill="#000000" font-family="sans-serif" font-size="5.2" font-weight="bold" lengthAdjust="spacing" textLength="5.6" x="329.6" y="174.7887">11</text><text fill="#000000" font-family="sans-serif" font-size="5.2" lengthAdjust="spacing" textLength="17.6" x="336.8" y="174.7887">surveys</text><path d="M275.6,182.7313 L304.8,182.7313 L304.8,185.9313 L300.8,189.9313 L275.6,189.9313 L275.6,182.7313 " fill="#EEEEEE" style="stroke:#000000;stroke-width:0.4000000000000001;"/><rect fill="none" height="19.4813" style="stroke:#000000;stroke-width:0.8000000000000002;" width="137.2" x="275.6" y="182.7313"/><text fill="#000000" font-family="sans-serif" font-size="5.2" font-weight="bold" lengthAdjust="spacing" textLength="11.2" x="281.6" y="188.5293">loop</text><polygon fill="#A80036" points="380.6,197.4125,384.6,199.0125,380.6,200.6125,382.2,199.0125" style="stroke:#A80036;stroke-width:0.4000000000000001;"/><line style="stroke:#A80036;stroke-width:0.4000000000000001;" x1="322.8" x2="383" y1="199.0125" y2="199.0125"/><text fill="#000000" font-family="sans-serif" font-size="5.2" font-weight="bold" lengthAdjust="spacing" textLength="5.6" x="325.6" y="197.0699">12</text><text fill="#000000" font-family="sans-serif" font-size="5.2" lengthAdjust="spacing" textLength="18" x="332.8" y="197.0699">toDTO()</text><polygon fill="#A80036" points="234.6,212.3531,230.6,213.9531,234.6,215.5531,233,213.9531" style="stroke:#A80036;stroke-width:0.4000000000000001;"/><line style="stroke:#A80036;stroke-width:0.4000000000000001;stroke-dasharray:2.0,2.0;" x1="232.2" x2="320.4" y1="213.9531" y2="213.9531"/><text fill="#000000" font-family="sans-serif" font-size="5.2" font-weight="bold" lengthAdjust="spacing" textLength="5.6" x="237" y="212.0105">13</text><text fill="#000000" font-family="sans-serif" font-size="5.2" lengthAdjust="spacing" textLength="36.4" x="244.2" y="212.0105">surveysDTOList</text><polygon fill="#A80036" points="145.8,224.4938,141.8,226.0938,145.8,227.6938,144.2,226.0938" style="stroke:#A80036;stroke-width:0.4000000000000001;"/><line style="stroke:#A80036;stroke-width:0.4000000000000001;stroke-dasharray:2.0,2.0;" x1="143.4" x2="227.8" y1="226.0938" y2="226.0938"/><text fill="#000000" font-family="sans-serif" font-size="5.2" font-weight="bold" lengthAdjust="spacing" textLength="5.6" x="148.2" y="224.1512">14</text><text fill="#000000" font-family="sans-serif" font-size="5.2" lengthAdjust="spacing" textLength="36.4" x="155.4" y="224.1512">surveysDTOList</text><polygon fill="#A80036" points="28.6,236.6344,24.6,238.2344,28.6,239.8344,27,238.2344" style="stroke:#A80036;stroke-width:0.4000000000000001;"/><line style="stroke:#A80036;stroke-width:0.4000000000000001;stroke-dasharray:2.0,2.0;" x1="26.2" x2="139" y1="238.2344" y2="238.2344"/><text fill="#000000" font-family="sans-serif" font-size="5.2" font-weight="bold" lengthAdjust="spacing" textLength="5.6" x="31" y="236.2918">15</text><text fill="#000000" font-family="sans-serif" font-size="5.2" lengthAdjust="spacing" textLength="85.6" x="38.2" y="236.2918">Mostra os questionários que existem</text><polygon fill="#A80036" points="132.6,255.3156,136.6,256.9156,132.6,258.5156,134.2,256.9156" style="stroke:#A80036;stroke-width:0.4000000000000001;"/><line style="stroke:#A80036;stroke-width:0.4000000000000001;" x1="24.2" x2="135" y1="256.9156" y2="256.9156"/><text fill="#000000" font-family="sans-serif" font-size="5.2" font-weight="bold" lengthAdjust="spacing" textLength="5.6" x="27" y="251.7027">16</text><text fill="#000000" font-family="sans-serif" font-size="5.2" lengthAdjust="spacing" textLength="66.8" x="34.2" y="248.4324">Seleciona o questionário que</text><text fill="#000000" font-family="sans-serif" font-size="5.2" lengthAdjust="spacing" textLength="57.6" x="35.8" y="254.973">pretende obter o relatório</text><polygon fill="#A80036" points="26.6,273.9969,22.6,275.5969,26.6,277.1969,25,275.5969" style="stroke:#A80036;stroke-width:0.4000000000000001;"/><line style="stroke:#A80036;stroke-width:0.4000000000000001;stroke-dasharray:2.0,2.0;" x1="24.2" x2="139" y1="275.5969" y2="275.5969"/><text fill="#000000" font-family="sans-serif" font-size="5.2" font-weight="bold" lengthAdjust="spacing" textLength="5.6" x="29" y="270.384">17</text><text fill="#000000" font-family="sans-serif" font-size="5.2" lengthAdjust="spacing" textLength="64" x="36.2" y="267.1137">Mostra a informação pedida</text><text fill="#000000" font-family="sans-serif" font-size="5.2" lengthAdjust="spacing" textLength="80.8" x="37.8" y="273.6543">informando o sucesso da operação</text><!--MD5=[bb4ada0e5f264e78b1329867c08c2a76]
@startuml

autonumber
actor "Sales Manager" as SM
participant ObterRelatorioEstatisticoUI as UI <<presentation>>
participant ObterRelatorioEstatisticoController as Controller <<application>>
participant ListQuestionnaireDTOService as serv <<application>>
participant "Questionnaire" as Domain <<domain>>
participant "QuestionnaireDTO" as DTO <<dto>>
participant PersistenceContext as Persistence <<persistence>>
participant RepositoryFactory as Factory <<factory>>
database SurveyRepository as repository <<repository>>

activate SM
SM -> UI : Inicia o processo de obter o relatório\n estatístico de um determinado questionário
activate UI
UI->Controller: findAllQuestionnaires()
activate Controller

Controller -> serv: getSurveys()
activate serv
serv-> Persistence: repositories()
activate Persistence
Persistence -> Factory: create
Persistence -> serv: factory
deactivate Persistence
serv -> Factory: surveys()
activate Factory
Factory -> repository: create
Factory -> serv: surveyRepository
deactivate Factory
serv->repository:findAll()
activate repository
repository - ->serv: surveys
deactivate repository
loop
serv -> Domain: toDTO()
activate Domain
end
deactivate Domain
serv - -> Controller : surveysDTOList
deactivate serv
Controller - -> UI : surveysDTOList
deactivate Controller
UI - -> SM : Mostra os questionários que existem
deactivate UI
SM -> UI : Seleciona o questionário que\n pretende obter o relatório
activate UI
UI - -> SM : Mostra a informação pedida\n informando o sucesso da operação
deactivate UI

deactivate SM

@enduml

PlantUML version 1.2022.1(Tue Feb 01 18:19:58 GMT 2022)
(GPL source distribution)
Java Runtime: OpenJDK Runtime Environment
JVM: Dynamic Code Evolution 64-Bit Server VM
Default Encoding: Cp1252
Language: pt
Country: PT
--></g></svg>