<?xml version="1.0" encoding="UTF-8" standalone="no"?><svg xmlns="http://www.w3.org/2000/svg" xmlns:xlink="http://www.w3.org/1999/xlink" contentStyleType="text/css" height="595px" preserveAspectRatio="none" style="width:1141px;height:595px;background:#FFFFFF;" version="1.1" viewBox="0 0 1141 595" width="1141px" zoomAndPan="magnify"><defs/><g><rect fill="#FFFFFF" height="380.8984" style="stroke:#181818;stroke-width:1.0;" width="10" x="21" y="114.9609"/><rect fill="#FFFFFF" height="380.8984" style="stroke:#181818;stroke-width:1.0;" width="10" x="252" y="114.9609"/><rect fill="#FFFFFF" height="311.8438" style="stroke:#181818;stroke-width:1.0;" width="10" x="444" y="145.3125"/><rect fill="#FFFFFF" height="266.4922" style="stroke:#181818;stroke-width:1.0;" width="10" x="677" y="175.6641"/><rect fill="#FFFFFF" height="30" style="stroke:#181818;stroke-width:1.0;" width="10" x="864" y="412.1563"/><rect fill="#FFFFFF" height="30" style="stroke:#181818;stroke-width:1.0;" width="10" x="994.5" y="291.5859"/><rect height="199.2734" style="stroke:#000000;stroke-width:1.5;fill:none;" width="445.5" x="613.5" y="250.8828"/><line style="stroke:#181818;stroke-width:0.5;fill:none;stroke-dasharray:5.0,5.0;" x1="26" x2="26" y1="82.6094" y2="513.8594"/><line style="stroke:#181818;stroke-width:0.5;fill:none;stroke-dasharray:5.0,5.0;" x1="256.5" x2="256.5" y1="82.6094" y2="513.8594"/><line style="stroke:#181818;stroke-width:0.5;fill:none;stroke-dasharray:5.0,5.0;" x1="448.5" x2="448.5" y1="82.6094" y2="513.8594"/><line style="stroke:#181818;stroke-width:0.5;fill:none;stroke-dasharray:5.0,5.0;" x1="681.5" x2="681.5" y1="82.6094" y2="513.8594"/><line style="stroke:#181818;stroke-width:0.5;fill:none;stroke-dasharray:5.0,5.0;" x1="869" x2="869" y1="369.6953" y2="513.8594"/><line style="stroke:#181818;stroke-width:0.5;fill:none;stroke-dasharray:5.0,5.0;" x1="999" x2="999" y1="223.7734" y2="513.8594"/><line style="stroke:#181818;stroke-width:0.5;fill:none;stroke-dasharray:5.0,5.0;" x1="1097" x2="1097" y1="82.6094" y2="513.8594"/><text fill="#000000" font-family="sans-serif" font-size="14" lengthAdjust="spacing" textLength="36" x="5" y="79.5332">Client</text><ellipse cx="26" cy="13.5" fill="#E2E2F0" rx="8" ry="8" style="stroke:#181818;stroke-width:0.5;"/><path d="M26,21.5 L26,48.5 M13,29.5 L39,29.5 M26,48.5 L13,63.5 M26,48.5 L39,63.5 " fill="none" style="stroke:#181818;stroke-width:0.5;"/><text fill="#000000" font-family="sans-serif" font-size="14" lengthAdjust="spacing" textLength="36" x="5" y="527.3926">Client</text><ellipse cx="26" cy="538.9688" fill="#E2E2F0" rx="8" ry="8" style="stroke:#181818;stroke-width:0.5;"/><path d="M26,546.9688 L26,573.9688 M13,554.9688 L39,554.9688 M26,573.9688 L13,588.9688 M26,573.9688 L39,588.9688 " fill="none" style="stroke:#181818;stroke-width:0.5;"/><rect fill="#E2E2F0" height="31.6094" rx="2.5" ry="2.5" style="stroke:#181818;stroke-width:0.5;" width="127" x="193.5" y="50"/><text fill="#000000" font-family="sans-serif" font-size="14" lengthAdjust="spacing" textLength="113" x="200.5" y="71.5332">ListOpenOrdersUI</text><rect fill="#E2E2F0" height="31.6094" rx="2.5" ry="2.5" style="stroke:#181818;stroke-width:0.5;" width="127" x="193.5" y="512.8594"/><text fill="#000000" font-family="sans-serif" font-size="14" lengthAdjust="spacing" textLength="113" x="200.5" y="534.3926">ListOpenOrdersUI</text><rect fill="#E2E2F0" height="49.2188" rx="2.5" ry="2.5" style="stroke:#181818;stroke-width:0.5;" width="177" x="360.5" y="32.3906"/><text fill="#000000" font-family="sans-serif" font-size="14" font-style="italic" lengthAdjust="spacing" textLength="76" x="411" y="53.9238">«aplication»</text><text fill="#000000" font-family="sans-serif" font-size="14" lengthAdjust="spacing" textLength="163" x="367.5" y="71.5332">ListOpenOrdersController</text><rect fill="#E2E2F0" height="49.2188" rx="2.5" ry="2.5" style="stroke:#181818;stroke-width:0.5;" width="177" x="360.5" y="512.8594"/><text fill="#000000" font-family="sans-serif" font-size="14" font-style="italic" lengthAdjust="spacing" textLength="76" x="411" y="534.3926">«aplication»</text><text fill="#000000" font-family="sans-serif" font-size="14" lengthAdjust="spacing" textLength="163" x="367.5" y="552.002">ListOpenOrdersController</text><rect fill="#E2E2F0" height="49.2188" rx="2.5" ry="2.5" style="stroke:#181818;stroke-width:0.5;" width="117" x="623.5" y="32.3906"/><text fill="#000000" font-family="sans-serif" font-size="14" font-style="italic" lengthAdjust="spacing" textLength="55" x="654.5" y="53.9238">«server»</text><text fill="#000000" font-family="sans-serif" font-size="14" lengthAdjust="spacing" textLength="103" x="630.5" y="71.5332">TcpOrderServer</text><rect fill="#E2E2F0" height="49.2188" rx="2.5" ry="2.5" style="stroke:#181818;stroke-width:0.5;" width="117" x="623.5" y="512.8594"/><text fill="#000000" font-family="sans-serif" font-size="14" font-style="italic" lengthAdjust="spacing" textLength="55" x="654.5" y="534.3926">«server»</text><text fill="#000000" font-family="sans-serif" font-size="14" lengthAdjust="spacing" textLength="103" x="630.5" y="552.002">TcpOrderServer</text><rect fill="#E2E2F0" height="49.2188" rx="2.5" ry="2.5" style="stroke:#181818;stroke-width:0.5;" width="142" x="798" y="512.8594"/><text fill="#000000" font-family="sans-serif" font-size="14" font-style="italic" lengthAdjust="spacing" textLength="57" x="840.5" y="534.3926">«thread»</text><text fill="#000000" font-family="sans-serif" font-size="14" lengthAdjust="spacing" textLength="128" x="805" y="552.002">TcpSrvOrderThread</text><rect fill="#E2E2F0" height="49.2188" rx="2.5" ry="2.5" style="stroke:#181818;stroke-width:0.5;" width="99" x="950" y="512.8594"/><text fill="#000000" font-family="sans-serif" font-size="14" font-style="italic" lengthAdjust="spacing" textLength="62" x="968.5" y="534.3926">«domain»</text><text fill="#000000" font-family="sans-serif" font-size="14" lengthAdjust="spacing" textLength="85" x="957" y="552.002">ServerSocket</text><rect fill="#E2E2F0" height="66.8281" rx="2.5" ry="2.5" style="stroke:#181818;stroke-width:0.5;" width="76" x="1059" y="14.7813"/><text fill="#000000" font-family="sans-serif" font-size="14" font-style="italic" lengthAdjust="spacing" textLength="62" x="1066" y="36.3145">«domain»</text><text fill="#000000" font-family="sans-serif" font-size="14" lengthAdjust="spacing" textLength="56" x="1069" y="53.9238">ncliSock:</text><text fill="#000000" font-family="sans-serif" font-size="14" lengthAdjust="spacing" textLength="43" x="1075.5" y="71.5332">Socket</text><rect fill="#E2E2F0" height="66.8281" rx="2.5" ry="2.5" style="stroke:#181818;stroke-width:0.5;" width="76" x="1059" y="512.8594"/><text fill="#000000" font-family="sans-serif" font-size="14" font-style="italic" lengthAdjust="spacing" textLength="62" x="1066" y="534.3926">«domain»</text><text fill="#000000" font-family="sans-serif" font-size="14" lengthAdjust="spacing" textLength="56" x="1069" y="552.002">ncliSock:</text><text fill="#000000" font-family="sans-serif" font-size="14" lengthAdjust="spacing" textLength="43" x="1075.5" y="569.6113">Socket</text><rect fill="#FFFFFF" height="380.8984" style="stroke:#181818;stroke-width:1.0;" width="10" x="21" y="114.9609"/><rect fill="#FFFFFF" height="380.8984" style="stroke:#181818;stroke-width:1.0;" width="10" x="252" y="114.9609"/><rect fill="#FFFFFF" height="311.8438" style="stroke:#181818;stroke-width:1.0;" width="10" x="444" y="145.3125"/><rect fill="#FFFFFF" height="266.4922" style="stroke:#181818;stroke-width:1.0;" width="10" x="677" y="175.6641"/><rect fill="#FFFFFF" height="30" style="stroke:#181818;stroke-width:1.0;" width="10" x="864" y="412.1563"/><rect fill="#FFFFFF" height="30" style="stroke:#181818;stroke-width:1.0;" width="10" x="994.5" y="291.5859"/><polygon fill="#181818" points="240,110.9609,250,114.9609,240,118.9609,244,114.9609" style="stroke:#181818;stroke-width:1.0;"/><line style="stroke:#181818;stroke-width:1.0;" x1="31" x2="246" y1="114.9609" y2="114.9609"/><text fill="#000000" font-family="sans-serif" font-size="13" lengthAdjust="spacing" textLength="181" x="38" y="110.1045">Request to see his open orders</text><polygon fill="#181818" points="432,141.3125,442,145.3125,432,149.3125,436,145.3125" style="stroke:#181818;stroke-width:1.0;"/><line style="stroke:#181818;stroke-width:1.0;" x1="262" x2="438" y1="145.3125" y2="145.3125"/><text fill="#000000" font-family="sans-serif" font-size="13" lengthAdjust="spacing" textLength="163" x="269" y="140.4561">getOpenOrdersOfTheClient()</text><polygon fill="#181818" points="665,171.6641,675,175.6641,665,179.6641,669,175.6641" style="stroke:#181818;stroke-width:1.0;"/><line style="stroke:#181818;stroke-width:1.0;" x1="454" x2="671" y1="175.6641" y2="175.6641"/><text fill="#000000" font-family="sans-serif" font-size="13" lengthAdjust="spacing" textLength="204" x="461" y="170.8076">getOpenOrdersOfTheClient(clientId)</text><polygon fill="#181818" points="938,202.0156,948,206.0156,938,210.0156,942,206.0156" style="stroke:#181818;stroke-width:1.0;"/><line style="stroke:#181818;stroke-width:1.0;" x1="454" x2="944" y1="206.0156" y2="206.0156"/><text fill="#000000" font-family="sans-serif" font-size="13" lengthAdjust="spacing" textLength="66" x="461" y="201.1592">create(port)</text><rect fill="#E2E2F0" height="49.2188" rx="2.5" ry="2.5" style="stroke:#181818;stroke-width:0.5;" width="99" x="950" y="183.6641"/><text fill="#000000" font-family="sans-serif" font-size="14" font-style="italic" lengthAdjust="spacing" textLength="62" x="968.5" y="205.1973">«domain»</text><text fill="#000000" font-family="sans-serif" font-size="14" lengthAdjust="spacing" textLength="85" x="957" y="222.8066">ServerSocket</text><path d="M613.5,250.8828 L686.5,250.8828 L686.5,259.2344 L676.5,269.2344 L613.5,269.2344 L613.5,250.8828 " fill="#EEEEEE" style="stroke:#000000;stroke-width:1.5;"/><rect fill="none" height="199.2734" style="stroke:#000000;stroke-width:1.5;" width="445.5" x="613.5" y="250.8828"/><text fill="#000000" font-family="sans-serif" font-size="13" font-weight="bold" lengthAdjust="spacing" textLength="28" x="628.5" y="265.3779">loop</text><text fill="#000000" font-family="sans-serif" font-size="11" font-weight="bold" lengthAdjust="spacing" textLength="235" x="701.5" y="264.3018">[every time the server receives a request]</text><polygon fill="#181818" points="982.5,287.5859,992.5,291.5859,982.5,295.5859,986.5,291.5859" style="stroke:#181818;stroke-width:1.0;"/><line style="stroke:#181818;stroke-width:1.0;" x1="687" x2="988.5" y1="291.5859" y2="291.5859"/><text fill="#000000" font-family="sans-serif" font-size="13" lengthAdjust="spacing" textLength="106" x="694" y="286.7295">cliSock = accept()</text><polygon fill="#181818" points="786,347.9375,796,351.9375,786,355.9375,790,351.9375" style="stroke:#181818;stroke-width:1.0;"/><line style="stroke:#181818;stroke-width:1.0;" x1="687" x2="792" y1="351.9375" y2="351.9375"/><text fill="#000000" font-family="sans-serif" font-size="13" lengthAdjust="spacing" textLength="87" x="694" y="347.0811">create(cliSock)</text><rect fill="#E2E2F0" height="49.2188" rx="2.5" ry="2.5" style="stroke:#181818;stroke-width:0.5;" width="142" x="798" y="329.5859"/><text fill="#000000" font-family="sans-serif" font-size="14" font-style="italic" lengthAdjust="spacing" textLength="57" x="840.5" y="351.1191">«thread»</text><text fill="#000000" font-family="sans-serif" font-size="14" lengthAdjust="spacing" textLength="128" x="805" y="368.7285">TcpSrvOrderThread</text><polygon fill="#181818" points="852,408.1563,862,412.1563,852,416.1563,856,412.1563" style="stroke:#181818;stroke-width:1.0;"/><line style="stroke:#181818;stroke-width:1.0;" x1="687" x2="858" y1="412.1563" y2="412.1563"/><text fill="#000000" font-family="sans-serif" font-size="13" lengthAdjust="spacing" textLength="34" x="694" y="407.2998">start()</text><polygon fill="#181818" points="37,491.8594,27,495.8594,37,499.8594,33,495.8594" style="stroke:#181818;stroke-width:1.0;"/><line style="stroke:#181818;stroke-width:1.0;stroke-dasharray:2.0,2.0;" x1="31" x2="256" y1="495.8594" y2="495.8594"/><text fill="#000000" font-family="sans-serif" font-size="13" lengthAdjust="spacing" textLength="197" x="43" y="474.6514">Show the open orders and informs</text><text fill="#000000" font-family="sans-serif" font-size="13" lengthAdjust="spacing" textLength="128" x="43" y="491.0029">the operation success</text><!--MD5=[6f1f3628aec15252996de6ddc719884c]
@startuml
'https://plantuml.com/sequence-diagram

actor "Client" as EMPLOYEE
participant ListOpenOrdersUI as UI
participant ListOpenOrdersController as CT <<aplication>>
participant TcpOrderServer as SRV <<server>>
participant TcpSrvOrderThread as RQ <<thread>>
participant ServerSocket as SS <<domain>>
participant "ncliSock:\nSocket" as S <<domain>>

EMPLOYEE -> UI : Request to see his open orders
activate EMPLOYEE

activate UI
UI -> CT : getOpenOrdersOfTheClient()
activate CT



CT -> SRV : getOpenOrdersOfTheClient(clientId)
activate SRV


CT -> SS** : create(port)

loop every time the server receives a request

SRV -> SS : cliSock = accept()

activate SS
deactivate SS

SRV -> RQ** : create(cliSock)

SRV -> RQ : start()
activate RQ
deactivate SRV


deactivate RQ

end
deactivate CT

UI - -> EMPLOYEE : Show the open orders and informs\nthe operation success
deactivate UI
deactivate EMPLOYEE





deactivate SRV
@enduml

@startuml

actor "Client" as EMPLOYEE
participant ListOpenOrdersUI as UI
participant ListOpenOrdersController as CT <<aplication>>
participant TcpOrderServer as SRV <<server>>
participant TcpSrvOrderThread as RQ <<thread>>
participant ServerSocket as SS <<domain>>
participant "ncliSock:\nSocket" as S <<domain>>

EMPLOYEE -> UI : Request to see his open orders
activate EMPLOYEE

activate UI
UI -> CT : getOpenOrdersOfTheClient()
activate CT



CT -> SRV : getOpenOrdersOfTheClient(clientId)
activate SRV


CT -> SS** : create(port)

loop every time the server receives a request

SRV -> SS : cliSock = accept()

activate SS
deactivate SS

SRV -> RQ** : create(cliSock)

SRV -> RQ : start()
activate RQ
deactivate SRV


deactivate RQ

end
deactivate CT

UI - -> EMPLOYEE : Show the open orders and informs\nthe operation success
deactivate UI
deactivate EMPLOYEE





deactivate SRV
@enduml

PlantUML version 1.2022.5(Sat Apr 30 11:55:52 BST 2022)
(GPL source distribution)
Java Runtime: OpenJDK Runtime Environment
JVM: OpenJDK 64-Bit Server VM
Default Encoding: Cp1252
Language: pt
Country: BR
--></g></svg>