<?xml version="1.0" encoding="UTF-8" standalone="no"?><svg xmlns="http://www.w3.org/2000/svg" xmlns:xlink="http://www.w3.org/1999/xlink" contentScriptType="application/ecmascript" contentStyleType="text/css" height="586px" preserveAspectRatio="none" style="width:1092px;height:586px;background:#FFFFFF;" version="1.1" viewBox="0 0 1092 586" width="1092px" zoomAndPan="magnify"><defs><filter height="300%" id="f5w6h9et4faxa" width="300%" x="-1" y="-1"><feGaussianBlur result="blurOut" stdDeviation="2.0"/><feColorMatrix in="blurOut" result="blurOut2" type="matrix" values="0 0 0 0 0 0 0 0 0 0 0 0 0 0 0 0 0 0 .4 0"/><feOffset dx="4.0" dy="4.0" in="blurOut2" result="blurOut3"/><feBlend in="SourceGraphic" in2="blurOut3" mode="normal"/></filter></defs><g><!--MD5=[20e996825fabf2618e164db4892593a3]
cluster <<aggregate>> Client--><polygon fill="#FFFFFF" filter="url(#f5w6h9et4faxa)" points="16,193,171,193,178,216.6094,894,216.6094,894,579,16,579,16,193" style="stroke:#000000;stroke-width:1.5;"/><line style="stroke:#000000;stroke-width:1.5;" x1="16" x2="178" y1="216.6094" y2="216.6094"/><text fill="#000000" font-family="sans-serif" font-size="14" font-weight="bold" lengthAdjust="spacing" textLength="149" x="20" y="209.5332">&lt;&lt;aggregate&gt;&gt; Client</text><!--MD5=[597c9b6a35d8038d4b40fd8870ba90aa]
cluster <<aggregate>> User--><polygon fill="#FFFFFF" filter="url(#f5w6h9et4faxa)" points="918,200,1065,200,1072,223.6094,1075,223.6094,1075,579,918,579,918,200" style="stroke:#000000;stroke-width:1.5;"/><line style="stroke:#000000;stroke-width:1.5;" x1="918" x2="1072" y1="223.6094" y2="223.6094"/><text fill="#000000" font-family="sans-serif" font-size="14" font-weight="bold" lengthAdjust="spacing" textLength="141" x="922" y="216.5332">&lt;&lt;aggregate&gt;&gt; User</text><!--MD5=[db53c58abe70499843a85815d88add8b]
cluster <<aggregate>> Employee--><polygon fill="#FFFFFF" filter="url(#f5w6h9et4faxa)" points="653,6,835,6,842,29.6094,845,29.6094,845,143,653,143,653,6" style="stroke:#000000;stroke-width:1.5;"/><line style="stroke:#000000;stroke-width:1.5;" x1="653" x2="842" y1="29.6094" y2="29.6094"/><text fill="#000000" font-family="sans-serif" font-size="14" font-weight="bold" lengthAdjust="spacing" textLength="176" x="657" y="22.5332">&lt;&lt;aggregate&gt;&gt; Employee</text><!--MD5=[ed6624c6556d5e7b1bd23032162d20b7]
class Client--><rect codeLine="18" fill="#F5F5DC" filter="url(#f5w6h9et4faxa)" height="98.9531" id="Client" style="stroke:#A80036;stroke-width:1.5;" width="71" x="484.5" y="229"/><ellipse cx="499.5" cy="256.6406" fill="#ADD1B2" rx="11" ry="11" style="stroke:#A80036;stroke-width:1.0;"/><path d="M498,257.6406 L498,259.6406 L502,259.6406 L502,258.6406 L502,258.1563 L502.625,257.6406 L503,257.6406 L503.375,257.6406 L504,258.1563 L504,258.6406 L504,261.6406 L496,261.6406 L495.5156,261.6406 L495,261.0156 L495,260.6406 L495,260.2656 L495.5156,259.6406 L496,259.6406 L496,259.6406 L496,253.6406 L496,253.6406 L495.5156,253.6406 L495,253.0156 L495,252.6406 L495,252.2656 L495.5156,251.6406 L496,251.6406 L504,251.6406 L504,254.6406 L504,255.125 L503.375,255.6406 L503,255.6406 L502.625,255.6406 L502,255.125 L502,254.6406 L502,253.6406 L498,253.6406 L498,255.6406 L499,255.6406 L499,255.1563 L499,255.1563 L499.625,254.6406 L500,254.6406 L500.375,254.6406 L501,255.1563 L501,255.6406 L501,257.6406 L501,258.125 L500.375,258.6406 L500.375,258.6406 L500,258.6406 L499.625,258.6406 L499,258.125 L499,258.125 L499,257.6406 L498,257.6406 Z " fill="#000000"/><text fill="#000000" font-family="sans-serif" font-size="12" font-style="italic" lengthAdjust="spacing" textLength="43" x="511.5" y="246.457">«entity»</text><text fill="#000000" font-family="sans-serif" font-size="12" font-style="italic" lengthAdjust="spacing" textLength="35" x="515.5" y="261.5508">«root»</text><text fill="#000000" font-family="sans-serif" font-size="12" lengthAdjust="spacing" textLength="32" x="517" y="276.6445">Client</text><line style="stroke:#A80036;stroke-width:1.5;" x1="485.5" x2="554.5" y1="284.2813" y2="284.2813"/><text fill="#000000" font-family="sans-serif" font-size="11" lengthAdjust="spacing" textLength="12" x="490.5" y="299.7002">-id</text><text fill="#000000" font-family="sans-serif" font-size="11" lengthAdjust="spacing" textLength="38" x="490.5" y="313.5361">-gender</text><line style="stroke:#A80036;stroke-width:1.5;" x1="485.5" x2="554.5" y1="319.9531" y2="319.9531"/><!--MD5=[78bec0fde86ad92ec1dc3fb343b83709]
class Email--><rect codeLine="24" fill="#F5F5DC" filter="url(#f5w6h9et4faxa)" height="48.1875" id="Email" style="stroke:#A80036;stroke-width:1.5;" width="109" x="32.5" y="515"/><ellipse cx="47.5" cy="535.0938" fill="#FF8B40" rx="11" ry="11" style="stroke:#A80036;stroke-width:1.0;"/><path d="M47.5,538.375 L49.0313,532.8438 L49.0313,532.8438 L48.5156,532.8438 L48,532.2188 L48,531.8438 L48,531.4688 L48.5156,530.8438 L49.0313,530.8438 L50.9063,530.8438 L51.4844,530.8438 L52,531.4688 L52,531.8438 L52,532.2188 L51.4844,532.8438 L51.4844,532.8438 L51.0313,532.8438 L48.6875,540.8438 L46.3125,540.8438 L43.8438,532.8438 L43.5156,532.8438 L43.5156,532.8438 L43,532.2188 L43,531.8438 L43,531.4688 L43.5156,530.8438 L44.0938,530.8438 L45.9688,530.8438 L46.4844,530.8438 L47,531.4688 L47,531.8438 L47,532.2188 L46.4844,532.8438 L45.9688,532.8438 L45.9688,532.8438 L47.5,538.375 Z " fill="#000000"/><text fill="#000000" font-family="sans-serif" font-size="12" font-style="italic" lengthAdjust="spacing" textLength="81" x="59.5" y="532.457">«value object»</text><text fill="#000000" font-family="sans-serif" font-size="12" lengthAdjust="spacing" textLength="32" x="84" y="547.5508">Email</text><line style="stroke:#A80036;stroke-width:1.5;" x1="33.5" x2="140.5" y1="555.1875" y2="555.1875"/><!--MD5=[53f6a92bd21ca2f2960392a061f3a1c6]
class Name--><rect codeLine="23" fill="#F5F5DC" filter="url(#f5w6h9et4faxa)" height="48.1875" id="Name" style="stroke:#A80036;stroke-width:1.5;" width="109" x="173.5" y="406"/><ellipse cx="188.5" cy="426.0938" fill="#FF8B40" rx="11" ry="11" style="stroke:#A80036;stroke-width:1.0;"/><path d="M188.5,429.375 L190.0313,423.8438 L190.0313,423.8438 L189.5156,423.8438 L189,423.2188 L189,422.8438 L189,422.4688 L189.5156,421.8438 L190.0313,421.8438 L191.9063,421.8438 L192.4844,421.8438 L193,422.4688 L193,422.8438 L193,423.2188 L192.4844,423.8438 L192.4844,423.8438 L192.0313,423.8438 L189.6875,431.8438 L187.3125,431.8438 L184.8438,423.8438 L184.5156,423.8438 L184.5156,423.8438 L184,423.2188 L184,422.8438 L184,422.4688 L184.5156,421.8438 L185.0938,421.8438 L186.9688,421.8438 L187.4844,421.8438 L188,422.4688 L188,422.8438 L188,423.2188 L187.4844,423.8438 L186.9688,423.8438 L186.9688,423.8438 L188.5,429.375 Z " fill="#000000"/><text fill="#000000" font-family="sans-serif" font-size="12" font-style="italic" lengthAdjust="spacing" textLength="81" x="200.5" y="423.457">«value object»</text><text fill="#000000" font-family="sans-serif" font-size="12" lengthAdjust="spacing" textLength="34" x="224" y="438.5508">Name</text><line style="stroke:#A80036;stroke-width:1.5;" x1="174.5" x2="281.5" y1="446.1875" y2="446.1875"/><!--MD5=[b5e265065262f4f9caf90311e5706eef]
class PhoneNumber--><rect codeLine="25" fill="#F5F5DC" filter="url(#f5w6h9et4faxa)" height="48.1875" id="PhoneNumber" style="stroke:#A80036;stroke-width:1.5;" width="113" x="317.5" y="406"/><ellipse cx="332.5" cy="426.0938" fill="#FF8B40" rx="11" ry="11" style="stroke:#A80036;stroke-width:1.0;"/><path d="M332.5,429.375 L334.0313,423.8438 L334.0313,423.8438 L333.5156,423.8438 L333,423.2188 L333,422.8438 L333,422.4688 L333.5156,421.8438 L334.0313,421.8438 L335.9063,421.8438 L336.4844,421.8438 L337,422.4688 L337,422.8438 L337,423.2188 L336.4844,423.8438 L336.4844,423.8438 L336.0313,423.8438 L333.6875,431.8438 L331.3125,431.8438 L328.8438,423.8438 L328.5156,423.8438 L328.5156,423.8438 L328,423.2188 L328,422.8438 L328,422.4688 L328.5156,421.8438 L329.0938,421.8438 L330.9688,421.8438 L331.4844,421.8438 L332,422.4688 L332,422.8438 L332,423.2188 L331.4844,423.8438 L330.9688,423.8438 L330.9688,423.8438 L332.5,429.375 Z " fill="#000000"/><text fill="#000000" font-family="sans-serif" font-size="12" font-style="italic" lengthAdjust="spacing" textLength="81" x="346.5" y="423.457">«value object»</text><text fill="#000000" font-family="sans-serif" font-size="12" lengthAdjust="spacing" textLength="81" x="346.5" y="438.5508">PhoneNumber</text><line style="stroke:#A80036;stroke-width:1.5;" x1="318.5" x2="429.5" y1="446.1875" y2="446.1875"/><!--MD5=[ec957f90f125634d426aef890efece94]
class BirthDate--><rect codeLine="26" fill="#F5F5DC" filter="url(#f5w6h9et4faxa)" height="48.1875" id="BirthDate" style="stroke:#A80036;stroke-width:1.5;" width="109" x="465.5" y="406"/><ellipse cx="480.5" cy="426.0938" fill="#FF8B40" rx="11" ry="11" style="stroke:#A80036;stroke-width:1.0;"/><path d="M480.5,429.375 L482.0313,423.8438 L482.0313,423.8438 L481.5156,423.8438 L481,423.2188 L481,422.8438 L481,422.4688 L481.5156,421.8438 L482.0313,421.8438 L483.9063,421.8438 L484.4844,421.8438 L485,422.4688 L485,422.8438 L485,423.2188 L484.4844,423.8438 L484.4844,423.8438 L484.0313,423.8438 L481.6875,431.8438 L479.3125,431.8438 L476.8438,423.8438 L476.5156,423.8438 L476.5156,423.8438 L476,423.2188 L476,422.8438 L476,422.4688 L476.5156,421.8438 L477.0938,421.8438 L478.9688,421.8438 L479.4844,421.8438 L480,422.4688 L480,422.8438 L480,423.2188 L479.4844,423.8438 L478.9688,423.8438 L478.9688,423.8438 L480.5,429.375 Z " fill="#000000"/><text fill="#000000" font-family="sans-serif" font-size="12" font-style="italic" lengthAdjust="spacing" textLength="81" x="492.5" y="423.457">«value object»</text><text fill="#000000" font-family="sans-serif" font-size="12" lengthAdjust="spacing" textLength="51" x="507.5" y="438.5508">BirthDate</text><line style="stroke:#A80036;stroke-width:1.5;" x1="466.5" x2="573.5" y1="446.1875" y2="446.1875"/><!--MD5=[90d765aaab2aa87205300a90d31c45a9]
class PostalAddresses--><rect codeLine="27" fill="#F5F5DC" filter="url(#f5w6h9et4faxa)" height="48.1875" id="PostalAddresses" style="stroke:#A80036;stroke-width:1.5;" width="127" x="609.5" y="406"/><ellipse cx="624.5" cy="426.0938" fill="#FF8B40" rx="11" ry="11" style="stroke:#A80036;stroke-width:1.0;"/><path d="M624.5,429.375 L626.0313,423.8438 L626.0313,423.8438 L625.5156,423.8438 L625,423.2188 L625,422.8438 L625,422.4688 L625.5156,421.8438 L626.0313,421.8438 L627.9063,421.8438 L628.4844,421.8438 L629,422.4688 L629,422.8438 L629,423.2188 L628.4844,423.8438 L628.4844,423.8438 L628.0313,423.8438 L625.6875,431.8438 L623.3125,431.8438 L620.8438,423.8438 L620.5156,423.8438 L620.5156,423.8438 L620,423.2188 L620,422.8438 L620,422.4688 L620.5156,421.8438 L621.0938,421.8438 L622.9688,421.8438 L623.4844,421.8438 L624,422.4688 L624,422.8438 L624,423.2188 L623.4844,423.8438 L622.9688,423.8438 L622.9688,423.8438 L624.5,429.375 Z " fill="#000000"/><text fill="#000000" font-family="sans-serif" font-size="12" font-style="italic" lengthAdjust="spacing" textLength="81" x="645.5" y="423.457">«value object»</text><text fill="#000000" font-family="sans-serif" font-size="12" lengthAdjust="spacing" textLength="95" x="638.5" y="438.5508">PostalAddresses</text><line style="stroke:#A80036;stroke-width:1.5;" x1="610.5" x2="735.5" y1="446.1875" y2="446.1875"/><!--MD5=[a626601f1c08886c41476594c2573af3]
class VAT--><rect codeLine="28" fill="#F5F5DC" filter="url(#f5w6h9et4faxa)" height="48.1875" id="VAT" style="stroke:#A80036;stroke-width:1.5;" width="109" x="752.5" y="515"/><ellipse cx="767.5" cy="535.0938" fill="#FF8B40" rx="11" ry="11" style="stroke:#A80036;stroke-width:1.0;"/><path d="M767.5,538.375 L769.0313,532.8438 L769.0313,532.8438 L768.5156,532.8438 L768,532.2188 L768,531.8438 L768,531.4688 L768.5156,530.8438 L769.0313,530.8438 L770.9063,530.8438 L771.4844,530.8438 L772,531.4688 L772,531.8438 L772,532.2188 L771.4844,532.8438 L771.4844,532.8438 L771.0313,532.8438 L768.6875,540.8438 L766.3125,540.8438 L763.8438,532.8438 L763.5156,532.8438 L763.5156,532.8438 L763,532.2188 L763,531.8438 L763,531.4688 L763.5156,530.8438 L764.0938,530.8438 L765.9688,530.8438 L766.4844,530.8438 L767,531.4688 L767,531.8438 L767,532.2188 L766.4844,532.8438 L765.9688,532.8438 L765.9688,532.8438 L767.5,538.375 Z " fill="#000000"/><text fill="#000000" font-family="sans-serif" font-size="12" font-style="italic" lengthAdjust="spacing" textLength="81" x="779.5" y="532.457">«value object»</text><text fill="#000000" font-family="sans-serif" font-size="12" lengthAdjust="spacing" textLength="21" x="809.5" y="547.5508">VAT</text><line style="stroke:#A80036;stroke-width:1.5;" x1="753.5" x2="860.5" y1="555.1875" y2="555.1875"/><!--MD5=[3fd616f346a44cd59a91eb10b19e157c]
class User--><rect codeLine="42" fill="#F5F5DC" filter="url(#f5w6h9et4faxa)" height="85.1172" id="User" style="stroke:#A80036;stroke-width:1.5;" width="71" x="943.5" y="236"/><ellipse cx="958.5" cy="263.6406" fill="#ADD1B2" rx="11" ry="11" style="stroke:#A80036;stroke-width:1.0;"/><path d="M957,264.6406 L957,266.6406 L961,266.6406 L961,265.6406 L961,265.1563 L961.625,264.6406 L962,264.6406 L962.375,264.6406 L963,265.1563 L963,265.6406 L963,268.6406 L955,268.6406 L954.5156,268.6406 L954,268.0156 L954,267.6406 L954,267.2656 L954.5156,266.6406 L955,266.6406 L955,266.6406 L955,260.6406 L955,260.6406 L954.5156,260.6406 L954,260.0156 L954,259.6406 L954,259.2656 L954.5156,258.6406 L955,258.6406 L963,258.6406 L963,261.6406 L963,262.125 L962.375,262.6406 L962,262.6406 L961.625,262.6406 L961,262.125 L961,261.6406 L961,260.6406 L957,260.6406 L957,262.6406 L958,262.6406 L958,262.1563 L958,262.1563 L958.625,261.6406 L959,261.6406 L959.375,261.6406 L960,262.1563 L960,262.6406 L960,264.6406 L960,265.125 L959.375,265.6406 L959.375,265.6406 L959,265.6406 L958.625,265.6406 L958,265.125 L958,265.125 L958,264.6406 L957,264.6406 Z " fill="#000000"/><text fill="#000000" font-family="sans-serif" font-size="12" font-style="italic" lengthAdjust="spacing" textLength="43" x="970.5" y="253.457">«entity»</text><text fill="#000000" font-family="sans-serif" font-size="12" font-style="italic" lengthAdjust="spacing" textLength="35" x="974.5" y="268.5508">«root»</text><text fill="#000000" font-family="sans-serif" font-size="12" lengthAdjust="spacing" textLength="27" x="978.5" y="283.6445">User</text><line style="stroke:#A80036;stroke-width:1.5;" x1="944.5" x2="1013.5" y1="291.2813" y2="291.2813"/><text fill="#000000" font-family="sans-serif" font-size="11" lengthAdjust="spacing" textLength="43" x="949.5" y="306.7002">-isActive</text><line style="stroke:#A80036;stroke-width:1.5;" x1="944.5" x2="1013.5" y1="313.1172" y2="313.1172"/><!--MD5=[a3638c1e5b65d287ecad7f06f5c0f212]
class Role--><rect codeLine="47" fill="#F5F5DC" filter="url(#f5w6h9et4faxa)" height="48.1875" id="Role" style="stroke:#A80036;stroke-width:1.5;" width="109" x="934.5" y="515"/><ellipse cx="949.5" cy="535.0938" fill="#FF8B40" rx="11" ry="11" style="stroke:#A80036;stroke-width:1.0;"/><path d="M949.5,538.375 L951.0313,532.8438 L951.0313,532.8438 L950.5156,532.8438 L950,532.2188 L950,531.8438 L950,531.4688 L950.5156,530.8438 L951.0313,530.8438 L952.9063,530.8438 L953.4844,530.8438 L954,531.4688 L954,531.8438 L954,532.2188 L953.4844,532.8438 L953.4844,532.8438 L953.0313,532.8438 L950.6875,540.8438 L948.3125,540.8438 L945.8438,532.8438 L945.5156,532.8438 L945.5156,532.8438 L945,532.2188 L945,531.8438 L945,531.4688 L945.5156,530.8438 L946.0938,530.8438 L947.9688,530.8438 L948.4844,530.8438 L949,531.4688 L949,531.8438 L949,532.2188 L948.4844,532.8438 L947.9688,532.8438 L947.9688,532.8438 L949.5,538.375 Z " fill="#000000"/><text fill="#000000" font-family="sans-serif" font-size="12" font-style="italic" lengthAdjust="spacing" textLength="81" x="961.5" y="532.457">«value object»</text><text fill="#000000" font-family="sans-serif" font-size="12" lengthAdjust="spacing" textLength="26" x="989" y="547.5508">Role</text><line style="stroke:#A80036;stroke-width:1.5;" x1="935.5" x2="1042.5" y1="555.1875" y2="555.1875"/><!--MD5=[7421f545a0d8420c5bec41e74b387d9c]
class Employee--><rect codeLine="55" fill="#F5F5DC" filter="url(#f5w6h9et4faxa)" height="85.1172" id="Employee" style="stroke:#A80036;stroke-width:1.5;" width="87" x="705.5" y="42"/><ellipse cx="720.5" cy="69.6406" fill="#ADD1B2" rx="11" ry="11" style="stroke:#A80036;stroke-width:1.0;"/><path d="M719,70.6406 L719,72.6406 L723,72.6406 L723,71.6406 L723,71.1563 L723.625,70.6406 L724,70.6406 L724.375,70.6406 L725,71.1563 L725,71.6406 L725,74.6406 L717,74.6406 L716.5156,74.6406 L716,74.0156 L716,73.6406 L716,73.2656 L716.5156,72.6406 L717,72.6406 L717,72.6406 L717,66.6406 L717,66.6406 L716.5156,66.6406 L716,66.0156 L716,65.6406 L716,65.2656 L716.5156,64.6406 L717,64.6406 L725,64.6406 L725,67.6406 L725,68.125 L724.375,68.6406 L724,68.6406 L723.625,68.6406 L723,68.125 L723,67.6406 L723,66.6406 L719,66.6406 L719,68.6406 L720,68.6406 L720,68.1563 L720,68.1563 L720.625,67.6406 L721,67.6406 L721.375,67.6406 L722,68.1563 L722,68.6406 L722,70.6406 L722,71.125 L721.375,71.6406 L721.375,71.6406 L721,71.6406 L720.625,71.6406 L720,71.125 L720,71.125 L720,70.6406 L719,70.6406 Z " fill="#000000"/><text fill="#000000" font-family="sans-serif" font-size="12" font-style="italic" lengthAdjust="spacing" textLength="43" x="740.5" y="59.457">«entity»</text><text fill="#000000" font-family="sans-serif" font-size="12" font-style="italic" lengthAdjust="spacing" textLength="35" x="744.5" y="74.5508">«root»</text><text fill="#000000" font-family="sans-serif" font-size="12" lengthAdjust="spacing" textLength="55" x="734.5" y="89.6445">Employee</text><line style="stroke:#A80036;stroke-width:1.5;" x1="706.5" x2="791.5" y1="97.2813" y2="97.2813"/><text fill="#000000" font-family="sans-serif" font-size="11" lengthAdjust="spacing" textLength="45" x="711.5" y="112.7002">-identifier</text><line style="stroke:#A80036;stroke-width:1.5;" x1="706.5" x2="791.5" y1="119.1172" y2="119.1172"/><!--MD5=[56e417e995f938959c376e4926a13260]
link Client to Name--><path codeLine="30" d="M484.32,285.67 C436.77,295.16 351.49,316.75 290,358 C272.86,369.5 257.56,386.91 246.44,401.6 " fill="none" id="Client-to-Name" style="stroke:#222222;stroke-width:1.0;"/><polygon fill="#222222" points="243.42,405.67,252.0007,400.8357,246.404,401.658,245.5816,396.0613,243.42,405.67" style="stroke:#222222;stroke-width:1.0;"/><text fill="#000000" font-family="sans-serif" font-size="13" lengthAdjust="spacing" textLength="96" x="291" y="372.4951">characterized by</text><text fill="#000000" font-family="sans-serif" font-size="13" lengthAdjust="spacing" textLength="7" x="239.3255" y="395.3047">1</text><!--MD5=[3d4318aa56b2322dc15876394339f951]
link Client to Email--><path codeLine="31" d="M484.35,284.37 C389.35,298.16 133.99,340.74 85,406 C62.63,435.8 69.48,481 77.46,510.01 " fill="none" id="Client-to-Email" style="stroke:#222222;stroke-width:1.0;"/><polygon fill="#222222" points="78.85,514.87,80.2313,505.1185,77.4802,510.0613,72.5373,507.3102,78.85,514.87" style="stroke:#222222;stroke-width:1.0;"/><text fill="#000000" font-family="sans-serif" font-size="13" lengthAdjust="spacing" textLength="69" x="86" y="435.4951">identified by</text><text fill="#000000" font-family="sans-serif" font-size="13" lengthAdjust="spacing" textLength="7" x="68.8647" y="504.1528">1</text><!--MD5=[bc14f09f78b87d0ee159e1a86c0c208c]
link Client to VAT--><path codeLine="32" d="M555.9,281.5 C607.06,286.3 700.64,302.61 754,358 C794.23,399.76 804.14,470.48 806.44,509.69 " fill="none" id="Client-to-VAT" style="stroke:#222222;stroke-width:1.0;"/><polygon fill="#222222" points="806.71,514.77,810.2411,505.5759,806.4525,509.7766,802.2517,505.988,806.71,514.77" style="stroke:#222222;stroke-width:1.0;"/><text fill="#000000" font-family="sans-serif" font-size="13" lengthAdjust="spacing" textLength="69" x="800" y="435.4951">identified by</text><text fill="#000000" font-family="sans-serif" font-size="13" lengthAdjust="spacing" textLength="7" x="798.7388" y="504.0272">1</text><!--MD5=[0645dd546981a39608e896b5e1f6ebfa]
link Client to PhoneNumber--><path codeLine="33" d="M484.47,298.37 C460.75,312.35 430.15,333.23 409,358 C398.27,370.57 389.9,386.99 384.04,400.88 " fill="none" id="Client-to-PhoneNumber" style="stroke:#222222;stroke-width:1.0;"/><polygon fill="#222222" points="381.99,405.87,389.09,399.0444,383.8765,401.2395,381.6813,396.026,381.99,405.87" style="stroke:#222222;stroke-width:1.0;"/><text fill="#000000" font-family="sans-serif" font-size="13" lengthAdjust="spacing" textLength="101" x="410" y="372.4951">associated with a</text><text fill="#000000" font-family="sans-serif" font-size="13" lengthAdjust="spacing" textLength="7" x="376.1406" y="395.1528">1</text><!--MD5=[99b7f2e33ea89fd20c87f9c330650e94]
link Client to BirthDate--><path codeLine="34" d="M520,328.04 C520,352.09 520,380.29 520,400.76 " fill="none" id="Client-to-BirthDate" style="stroke:#222222;stroke-width:1.0;"/><polygon fill="#222222" points="520,405.79,524,396.79,520,400.79,516,396.79,520,405.79" style="stroke:#222222;stroke-width:1.0;"/><text fill="#000000" font-family="sans-serif" font-size="13" lengthAdjust="spacing" textLength="101" x="521" y="372.4951">associated with a</text><text fill="#000000" font-family="sans-serif" font-size="13" lengthAdjust="spacing" textLength="22" x="495.1813" y="395.0523">0..1</text><!--MD5=[7a12871925691dc2dd050054673c3a49]
link Client to PostalAddresses--><path codeLine="35" d="M555.64,300.11 C578.39,314.41 607.52,334.98 629,358 C640.91,370.77 651.35,387.23 659.07,401.08 " fill="none" id="Client-to-PostalAddresses" style="stroke:#222222;stroke-width:1.0;"/><polygon fill="#222222" points="661.58,405.68,660.7685,395.8646,659.1797,401.2938,653.7506,399.7051,661.58,405.68" style="stroke:#222222;stroke-width:1.0;"/><text fill="#000000" font-family="sans-serif" font-size="13" lengthAdjust="spacing" textLength="101" x="644" y="372.4951">associated with a</text><text fill="#000000" font-family="sans-serif" font-size="13" lengthAdjust="spacing" textLength="20" x="636.3589" y="395.3171">1..*</text><!--MD5=[70c37dc9bfbc8656942103c36f1181e4]
link User to Role--><path codeLine="49" d="M980.61,321.03 C982.65,373.94 986.14,463.98 987.9,509.64 " fill="none" id="User-to-Role" style="stroke:#222222;stroke-width:1.0;"/><polygon fill="#222222" points="988.1,514.72,991.736,505.5669,987.8996,509.724,983.7425,505.8876,988.1,514.72" style="stroke:#222222;stroke-width:1.0;"/><text fill="#000000" font-family="sans-serif" font-size="13" lengthAdjust="spacing" textLength="42" x="986" y="435.4951">plays a</text><text fill="#000000" font-family="sans-serif" font-size="13" lengthAdjust="spacing" textLength="20" x="965.3069" y="503.9644">1..*</text><!--MD5=[22fb9506fac029fc1d2ae00f0eb8d606]
link Employee to User--><path codeLine="59" d="M792.73,111.84 C822.52,130.64 862.17,157.39 894,185 C910.4,199.23 926.9,216.38 940.95,232.03 " fill="none" id="Employee-to-User" style="stroke:#222222;stroke-width:1.0;"/><polygon fill="#222222" points="944.46,235.97,941.4503,226.5923,941.1302,232.2401,935.4824,231.9199,944.46,235.97" style="stroke:#222222;stroke-width:1.0;"/><text fill="#000000" font-family="sans-serif" font-size="13" lengthAdjust="spacing" textLength="21" x="884" y="173.4951">is a</text><text fill="#000000" font-family="sans-serif" font-size="13" lengthAdjust="spacing" textLength="7" x="931.1596" y="225.1155">1</text><!--MD5=[07204f8b6ff0f6086f256a5d0ac9ff83]
link Employee to Client--><path codeLine="60" d="M705.39,122.07 C663.27,157.38 600.06,210.37 559.42,244.45 " fill="none" id="Employee-to-Client" style="stroke:#222222;stroke-width:1.0;"/><polygon fill="#222222" points="555.56,247.68,565.0248,244.9566,559.3894,244.465,559.8809,238.8296,555.56,247.68" style="stroke:#222222;stroke-width:1.0;"/><text fill="#000000" font-family="sans-serif" font-size="13" lengthAdjust="spacing" textLength="61" x="656" y="173.4951">registers a</text><text fill="#000000" font-family="sans-serif" font-size="13" lengthAdjust="spacing" textLength="20" x="563.3906" y="238.5372">0..*</text><!--MD5=[46c1e057f0c4ad209c5be4691368649a]
@startuml
'https://plantuml.com/class-diagram

skinparam classAttributeIconSize 0
hide empty attributes
skinparam classBackgroundColor beige
skinparam ArrowColor #222222

package "<<aggregate>> Client" {
    entity Client
    class Email
    class Name
    class PhoneNumber
    class BirthDate
    class PostalAddresses
    class VAT
}

entity Client <<entity>> <<root>> {
    - id
    - gender
}

class Name <<(V,#FF8B40) value object>> {}
class Email <<(V,#FF8B40) value object>> {}
class PhoneNumber <<(V,#FF8B40) value object>> {}
class BirthDate <<(V,#FF8B40) value object>> {}
class PostalAddresses <<(V,#FF8B40) value object>> {}
class VAT <<(V,#FF8B40) value object>> {}

Client - -> "1" Name : characterized by
Client - - -> "1" Email : identified by
Client - - -> "1" VAT : identified by
Client - -> "1" PhoneNumber: associated with a
Client - -> "0..1" BirthDate: associated with a
Client - -> "1..*" PostalAddresses: associated with a

package "<<aggregate>> User" {
    entity User
    class Role
}

entity User <<entity>> <<root>> {
    - isActive
}


class Role <<(V,#FF8B40) value object>> {}

User - - -> "1..*" Role : plays a

package "<<aggregate>> Employee" {
    entity Employee
}

entity Employee <<entity>> <<root>> {
    -identifier
}

Employee - -> "1" User : is a
Employee - -> "0..*" Client : registers a
@enduml

@startuml

skinparam classAttributeIconSize 0
hide empty attributes
skinparam classBackgroundColor beige
skinparam ArrowColor #222222

package "<<aggregate>> Client" {
    entity Client
    class Email
    class Name
    class PhoneNumber
    class BirthDate
    class PostalAddresses
    class VAT
}

entity Client <<entity>> <<root>> {
    - id
    - gender
}

class Name <<(V,#FF8B40) value object>> {}
class Email <<(V,#FF8B40) value object>> {}
class PhoneNumber <<(V,#FF8B40) value object>> {}
class BirthDate <<(V,#FF8B40) value object>> {}
class PostalAddresses <<(V,#FF8B40) value object>> {}
class VAT <<(V,#FF8B40) value object>> {}

Client - -> "1" Name : characterized by
Client - - -> "1" Email : identified by
Client - - -> "1" VAT : identified by
Client - -> "1" PhoneNumber: associated with a
Client - -> "0..1" BirthDate: associated with a
Client - -> "1..*" PostalAddresses: associated with a

package "<<aggregate>> User" {
    entity User
    class Role
}

entity User <<entity>> <<root>> {
    - isActive
}


class Role <<(V,#FF8B40) value object>> {}

User - - -> "1..*" Role : plays a

package "<<aggregate>> Employee" {
    entity Employee
}

entity Employee <<entity>> <<root>> {
    -identifier
}

Employee - -> "1" User : is a
Employee - -> "0..*" Client : registers a
@enduml

PlantUML version 1.2022.1(Tue Feb 01 18:19:58 GMT 2022)
(GPL source distribution)
Java Runtime: OpenJDK Runtime Environment
JVM: Dynamic Code Evolution 64-Bit Server VM
Default Encoding: Cp1252
Language: pt
Country: PT
--></g></svg>