<?xml version="1.0" encoding="UTF-8" standalone="no"?><svg xmlns="http://www.w3.org/2000/svg" xmlns:xlink="http://www.w3.org/1999/xlink" contentScriptType="application/ecmascript" contentStyleType="text/css" height="427.2px" preserveAspectRatio="none" style="width:1250px;height:427px;background:#FFFFFF;" version="1.1" viewBox="0 0 1250 427" width="1250.4px" zoomAndPan="magnify"><defs><filter height="300%" id="fbw28arkfawnm" width="300%" x="-1" y="-1"><feGaussianBlur result="blurOut" stdDeviation="1.2"/><feColorMatrix in="blurOut" result="blurOut2" type="matrix" values="0 0 0 0 0 0 0 0 0 0 0 0 0 0 0 0 0 0 .4 0"/><feOffset dx="2.4" dy="2.4" in="blurOut2" result="blurOut3"/><feBlend in="SourceGraphic" in2="blurOut3" mode="normal"/></filter></defs><g><!--MD5=[cd1e467dd42714edd782c72995bbc617]
cluster <<aggregate>> Product--><polygon fill="#FFFFFF" filter="url(#fbw28arkfawnm)" points="9.6,3.6,111,3.6,115.2,17.7656,1086,17.7656,1086,258.6,9.6,258.6,9.6,3.6" style="stroke:#000000;stroke-width:0.8999999999999999;"/><line style="stroke:#000000;stroke-width:0.8999999999999999;" x1="9.6" x2="115.2" y1="17.7656" y2="17.7656"/><text fill="#000000" font-family="sans-serif" font-size="8.4" font-weight="bold" lengthAdjust="spacing" textLength="97.8" x="12" y="13.5199">&lt;&lt;aggregate&gt;&gt; Product</text><!--MD5=[379fcb94853c7c195c0368ceebdeaf4d]
cluster <<aggregate>> Category--><polygon fill="#FFFFFF" filter="url(#fbw28arkfawnm)" points="961.8,278.4,1068,278.4,1072.2,292.5656,1240.2,292.5656,1240.2,423,961.8,423,961.8,278.4" style="stroke:#000000;stroke-width:0.8999999999999999;"/><line style="stroke:#000000;stroke-width:0.8999999999999999;" x1="961.8" x2="1072.2" y1="292.5656" y2="292.5656"/><text fill="#000000" font-family="sans-serif" font-size="8.4" font-weight="bold" lengthAdjust="spacing" textLength="102.6" x="964.2" y="288.3199">&lt;&lt;aggregate&gt;&gt; Category</text><!--MD5=[72136138052d025cffdce3c22fbd185f]
class Product--><rect codeLine="24" fill="#F5F5DC" filter="url(#fbw28arkfawnm)" height="51.0703" id="Product" style="stroke:#A80036;stroke-width:0.8999999999999999;" width="64.8" x="592.2" y="25.2"/><ellipse cx="610.38" cy="41.7844" fill="#ADD1B2" rx="6.6" ry="6.6" style="stroke:#A80036;stroke-width:0.6;"/><path d="M609.48,42.3844 L609.48,43.5844 L611.88,43.5844 L611.88,42.9844 L611.88,42.6938 L612.255,42.3844 L612.48,42.3844 L612.705,42.3844 L613.08,42.6938 L613.08,42.9844 L613.08,44.7844 L608.28,44.7844 L607.9894,44.7844 L607.68,44.4094 L607.68,44.1844 L607.68,43.9594 L607.9894,43.5844 L608.28,43.5844 L608.28,43.5844 L608.28,39.9844 L608.28,39.9844 L607.9894,39.9844 L607.68,39.6094 L607.68,39.3844 L607.68,39.1594 L607.9894,38.7844 L608.28,38.7844 L613.08,38.7844 L613.08,40.5844 L613.08,40.875 L612.705,41.1844 L612.48,41.1844 L612.255,41.1844 L611.88,40.875 L611.88,40.5844 L611.88,39.9844 L609.48,39.9844 L609.48,41.1844 L610.08,41.1844 L610.08,40.8938 L610.08,40.8938 L610.455,40.5844 L610.68,40.5844 L610.905,40.5844 L611.28,40.8938 L611.28,41.1844 L611.28,42.3844 L611.28,42.675 L610.905,42.9844 L610.905,42.9844 L610.68,42.9844 L610.455,42.9844 L610.08,42.675 L610.08,42.675 L610.08,42.3844 L609.48,42.3844 Z " fill="#000000"/><text fill="#000000" font-family="sans-serif" font-size="7.2" font-style="italic" lengthAdjust="spacing" textLength="25.8" x="620.52" y="35.6742">«entity»</text><text fill="#000000" font-family="sans-serif" font-size="7.2" font-style="italic" lengthAdjust="spacing" textLength="21" x="622.92" y="44.7305">«root»</text><text fill="#000000" font-family="sans-serif" font-size="7.2" lengthAdjust="spacing" textLength="25.2" x="620.82" y="53.7867">Product</text><line style="stroke:#A80036;stroke-width:0.8999999999999999;" x1="592.8" x2="656.4" y1="58.3688" y2="58.3688"/><text fill="#000000" font-family="sans-serif" font-size="6.6" lengthAdjust="spacing" textLength="57.6" x="595.8" y="67.6201">-uniqueInternalCode</text><line style="stroke:#A80036;stroke-width:0.8999999999999999;" x1="592.8" x2="656.4" y1="71.4703" y2="71.4703"/><!--MD5=[79d3acb8d8b4a000645cdf546551f625]
class ShortDescription--><rect codeLine="28" fill="#F5F5DC" filter="url(#fbw28arkfawnm)" height="28.9125" id="ShortDescription" style="stroke:#A80036;stroke-width:0.8999999999999999;" width="74.4" x="19.2" y="220.2"/><ellipse cx="28.2" cy="232.2563" fill="#FF8B40" rx="6.6" ry="6.6" style="stroke:#A80036;stroke-width:0.6;"/><path d="M28.2,234.225 L29.1188,230.9063 L29.1188,230.9063 L28.8094,230.9063 L28.5,230.5313 L28.5,230.3063 L28.5,230.0812 L28.8094,229.7062 L29.1188,229.7062 L30.2438,229.7062 L30.5906,229.7062 L30.9,230.0812 L30.9,230.3063 L30.9,230.5313 L30.5906,230.9063 L30.5906,230.9063 L30.3187,230.9063 L28.9125,235.7062 L27.4875,235.7062 L26.0062,230.9063 L25.8094,230.9063 L25.8094,230.9063 L25.5,230.5313 L25.5,230.3063 L25.5,230.0812 L25.8094,229.7062 L26.1563,229.7062 L27.2813,229.7062 L27.5906,229.7062 L27.9,230.0812 L27.9,230.3063 L27.9,230.5313 L27.5906,230.9063 L27.2813,230.9063 L27.2813,230.9063 L28.2,234.225 Z " fill="#000000"/><text fill="#000000" font-family="sans-serif" font-size="7.2" font-style="italic" lengthAdjust="spacing" textLength="48.6" x="39.9" y="230.6742">«value object»</text><text fill="#000000" font-family="sans-serif" font-size="7.2" lengthAdjust="spacing" textLength="55.2" x="36.6" y="239.7305">ShortDescription</text><line style="stroke:#A80036;stroke-width:0.8999999999999999;" x1="19.8" x2="93" y1="244.3125" y2="244.3125"/><!--MD5=[0b7d0e576c2aec4b9edea3c9e75f66a5]
class LongDescription--><rect codeLine="29" fill="#F5F5DC" filter="url(#fbw28arkfawnm)" height="28.9125" id="LongDescription" style="stroke:#A80036;stroke-width:0.8999999999999999;" width="73.8" x="120.3" y="133.8"/><ellipse cx="129.3" cy="145.8563" fill="#FF8B40" rx="6.6" ry="6.6" style="stroke:#A80036;stroke-width:0.6;"/><path d="M129.3,147.825 L130.2188,144.5063 L130.2188,144.5063 L129.9094,144.5063 L129.6,144.1313 L129.6,143.9063 L129.6,143.6813 L129.9094,143.3063 L130.2188,143.3063 L131.3438,143.3063 L131.6906,143.3063 L132,143.6813 L132,143.9063 L132,144.1313 L131.6906,144.5063 L131.6906,144.5063 L131.4188,144.5063 L130.0125,149.3063 L128.5875,149.3063 L127.1062,144.5063 L126.9094,144.5063 L126.9094,144.5063 L126.6,144.1313 L126.6,143.9063 L126.6,143.6813 L126.9094,143.3063 L127.2563,143.3063 L128.3813,143.3063 L128.6906,143.3063 L129,143.6813 L129,143.9063 L129,144.1313 L128.6906,144.5063 L128.3813,144.5063 L128.3813,144.5063 L129.3,147.825 Z " fill="#000000"/><text fill="#000000" font-family="sans-serif" font-size="7.2" font-style="italic" lengthAdjust="spacing" textLength="48.6" x="140.7" y="144.2742">«value object»</text><text fill="#000000" font-family="sans-serif" font-size="7.2" lengthAdjust="spacing" textLength="54.6" x="137.7" y="153.3305">LongDescription</text><line style="stroke:#A80036;stroke-width:0.8999999999999999;" x1="120.9" x2="193.5" y1="157.9125" y2="157.9125"/><!--MD5=[216845e66863fbf0f228ebacc80c455b]
class TechnicalDescription--><rect codeLine="30" fill="#F5F5DC" filter="url(#fbw28arkfawnm)" height="28.9125" id="TechnicalDescription" style="stroke:#A80036;stroke-width:0.8999999999999999;" width="88.8" x="215.4" y="133.8"/><ellipse cx="224.4" cy="145.8563" fill="#FF8B40" rx="6.6" ry="6.6" style="stroke:#A80036;stroke-width:0.6;"/><path d="M224.4,147.825 L225.3188,144.5063 L225.3188,144.5063 L225.0094,144.5063 L224.7,144.1313 L224.7,143.9063 L224.7,143.6813 L225.0094,143.3063 L225.3188,143.3063 L226.4438,143.3063 L226.7906,143.3063 L227.1,143.6813 L227.1,143.9063 L227.1,144.1313 L226.7906,144.5063 L226.7906,144.5063 L226.5187,144.5063 L225.1125,149.3063 L223.6875,149.3063 L222.2062,144.5063 L222.0094,144.5063 L222.0094,144.5063 L221.7,144.1313 L221.7,143.9063 L221.7,143.6813 L222.0094,143.3063 L222.3563,143.3063 L223.4813,143.3063 L223.7906,143.3063 L224.1,143.6813 L224.1,143.9063 L224.1,144.1313 L223.7906,144.5063 L223.4813,144.5063 L223.4813,144.5063 L224.4,147.825 Z " fill="#000000"/><text fill="#000000" font-family="sans-serif" font-size="7.2" font-style="italic" lengthAdjust="spacing" textLength="48.6" x="243.3" y="144.2742">«value object»</text><text fill="#000000" font-family="sans-serif" font-size="7.2" lengthAdjust="spacing" textLength="69.6" x="232.8" y="153.3305">TechnicalDescription</text><line style="stroke:#A80036;stroke-width:0.8999999999999999;" x1="216" x2="303.6" y1="157.9125" y2="157.9125"/><!--MD5=[e59bda2572a266093cda22ac34510ea0]
class Barcode--><rect codeLine="31" fill="#F5F5DC" filter="url(#fbw28arkfawnm)" height="28.9125" id="Barcode" style="stroke:#A80036;stroke-width:0.8999999999999999;" width="65.4" x="325.5" y="133.8"/><ellipse cx="334.5" cy="145.8563" fill="#FF8B40" rx="6.6" ry="6.6" style="stroke:#A80036;stroke-width:0.6;"/><path d="M334.5,147.825 L335.4188,144.5063 L335.4188,144.5063 L335.1094,144.5063 L334.8,144.1313 L334.8,143.9063 L334.8,143.6813 L335.1094,143.3063 L335.4188,143.3063 L336.5438,143.3063 L336.8906,143.3063 L337.2,143.6813 L337.2,143.9063 L337.2,144.1313 L336.8906,144.5063 L336.8906,144.5063 L336.6188,144.5063 L335.2125,149.3063 L333.7875,149.3063 L332.3063,144.5063 L332.1094,144.5063 L332.1094,144.5063 L331.8,144.1313 L331.8,143.9063 L331.8,143.6813 L332.1094,143.3063 L332.4563,143.3063 L333.5813,143.3063 L333.8906,143.3063 L334.2,143.6813 L334.2,143.9063 L334.2,144.1313 L333.8906,144.5063 L333.5813,144.5063 L333.5813,144.5063 L334.5,147.825 Z " fill="#000000"/><text fill="#000000" font-family="sans-serif" font-size="7.2" font-style="italic" lengthAdjust="spacing" textLength="48.6" x="341.7" y="144.2742">«value object»</text><text fill="#000000" font-family="sans-serif" font-size="7.2" lengthAdjust="spacing" textLength="27.6" x="352.2" y="153.3305">Barcode</text><line style="stroke:#A80036;stroke-width:0.8999999999999999;" x1="326.1" x2="390.3" y1="157.9125" y2="157.9125"/><!--MD5=[f08eadd80edf125a26d903aaabdc00ef]
class ProductionCode--><rect codeLine="32" fill="#F5F5DC" filter="url(#fbw28arkfawnm)" height="28.9125" id="ProductionCode" style="stroke:#A80036;stroke-width:0.8999999999999999;" width="72.6" x="411.9" y="133.8"/><ellipse cx="420.9" cy="145.8563" fill="#FF8B40" rx="6.6" ry="6.6" style="stroke:#A80036;stroke-width:0.6;"/><path d="M420.9,147.825 L421.8187,144.5063 L421.8187,144.5063 L421.5094,144.5063 L421.2,144.1313 L421.2,143.9063 L421.2,143.6813 L421.5094,143.3063 L421.8187,143.3063 L422.9437,143.3063 L423.2906,143.3063 L423.6,143.6813 L423.6,143.9063 L423.6,144.1313 L423.2906,144.5063 L423.2906,144.5063 L423.0188,144.5063 L421.6125,149.3063 L420.1875,149.3063 L418.7063,144.5063 L418.5094,144.5063 L418.5094,144.5063 L418.2,144.1313 L418.2,143.9063 L418.2,143.6813 L418.5094,143.3063 L418.8563,143.3063 L419.9813,143.3063 L420.2906,143.3063 L420.6,143.6813 L420.6,143.9063 L420.6,144.1313 L420.2906,144.5063 L419.9813,144.5063 L419.9813,144.5063 L420.9,147.825 Z " fill="#000000"/><text fill="#000000" font-family="sans-serif" font-size="7.2" font-style="italic" lengthAdjust="spacing" textLength="48.6" x="431.7" y="144.2742">«value object»</text><text fill="#000000" font-family="sans-serif" font-size="7.2" lengthAdjust="spacing" textLength="53.4" x="429.3" y="153.3305">ProductionCode</text><line style="stroke:#A80036;stroke-width:0.8999999999999999;" x1="412.5" x2="483.9" y1="157.9125" y2="157.9125"/><!--MD5=[a40a7ac4b423335b0d34bf16cf36e547]
class Price--><rect codeLine="33" fill="#F5F5DC" filter="url(#fbw28arkfawnm)" height="50.3156" id="Price" style="stroke:#A80036;stroke-width:0.8999999999999999;" width="65.4" x="505.5" y="123"/><ellipse cx="514.5" cy="135.0563" fill="#FF8B40" rx="6.6" ry="6.6" style="stroke:#A80036;stroke-width:0.6;"/><path d="M514.5,137.025 L515.4187,133.7062 L515.4187,133.7062 L515.1094,133.7062 L514.8,133.3312 L514.8,133.1063 L514.8,132.8813 L515.1094,132.5063 L515.4187,132.5063 L516.5437,132.5063 L516.8906,132.5063 L517.2,132.8813 L517.2,133.1063 L517.2,133.3312 L516.8906,133.7062 L516.8906,133.7062 L516.6188,133.7062 L515.2125,138.5063 L513.7875,138.5063 L512.3063,133.7062 L512.1094,133.7062 L512.1094,133.7062 L511.8,133.3312 L511.8,133.1063 L511.8,132.8813 L512.1094,132.5063 L512.4563,132.5063 L513.5813,132.5063 L513.8906,132.5063 L514.2,132.8813 L514.2,133.1063 L514.2,133.3312 L513.8906,133.7062 L513.5813,133.7062 L513.5813,133.7062 L514.5,137.025 Z " fill="#000000"/><text fill="#000000" font-family="sans-serif" font-size="7.2" font-style="italic" lengthAdjust="spacing" textLength="48.6" x="521.7" y="133.4742">«value object»</text><text fill="#000000" font-family="sans-serif" font-size="7.2" lengthAdjust="spacing" textLength="16.8" x="537.6" y="142.5305">Price</text><line style="stroke:#A80036;stroke-width:0.8999999999999999;" x1="506.1" x2="570.3" y1="147.1125" y2="147.1125"/><text fill="#000000" font-family="sans-serif" font-size="6.6" lengthAdjust="spacing" textLength="37.2" x="509.1" y="156.3639">-withoutVAT</text><text fill="#000000" font-family="sans-serif" font-size="6.6" lengthAdjust="spacing" textLength="28.2" x="509.1" y="164.6654">-withVAT</text><line style="stroke:#A80036;stroke-width:0.8999999999999999;" x1="506.1" x2="570.3" y1="168.5156" y2="168.5156"/><!--MD5=[e09c41c2f9238e7adb85a94dde2227e7]
class Size--><rect codeLine="37" fill="#F5F5DC" filter="url(#fbw28arkfawnm)" height="28.9125" id="Size" style="stroke:#A80036;stroke-width:0.8999999999999999;" width="65.4" x="591.9" y="133.8"/><ellipse cx="600.9" cy="145.8563" fill="#FF8B40" rx="6.6" ry="6.6" style="stroke:#A80036;stroke-width:0.6;"/><path d="M600.9,147.825 L601.8188,144.5063 L601.8188,144.5063 L601.5094,144.5063 L601.2,144.1313 L601.2,143.9063 L601.2,143.6813 L601.5094,143.3063 L601.8188,143.3063 L602.9438,143.3063 L603.2906,143.3063 L603.6,143.6813 L603.6,143.9063 L603.6,144.1313 L603.2906,144.5063 L603.2906,144.5063 L603.0188,144.5063 L601.6125,149.3063 L600.1875,149.3063 L598.7063,144.5063 L598.5094,144.5063 L598.5094,144.5063 L598.2,144.1313 L598.2,143.9063 L598.2,143.6813 L598.5094,143.3063 L598.8562,143.3063 L599.9812,143.3063 L600.2906,143.3063 L600.6,143.6813 L600.6,143.9063 L600.6,144.1313 L600.2906,144.5063 L599.9812,144.5063 L599.9812,144.5063 L600.9,147.825 Z " fill="#000000"/><text fill="#000000" font-family="sans-serif" font-size="7.2" font-style="italic" lengthAdjust="spacing" textLength="48.6" x="608.1" y="144.2742">«value object»</text><text fill="#000000" font-family="sans-serif" font-size="7.2" lengthAdjust="spacing" textLength="13.8" x="625.5" y="153.3305">Size</text><line style="stroke:#A80036;stroke-width:0.8999999999999999;" x1="592.5" x2="656.7" y1="157.9125" y2="157.9125"/><!--MD5=[3a7cf800944e5f3d9e9c59d889c61f3b]
class Reference--><rect codeLine="38" fill="#F5F5DC" filter="url(#fbw28arkfawnm)" height="28.9125" id="Reference" style="stroke:#A80036;stroke-width:0.8999999999999999;" width="65.4" x="678.3" y="133.8"/><ellipse cx="687.3" cy="145.8563" fill="#FF8B40" rx="6.6" ry="6.6" style="stroke:#A80036;stroke-width:0.6;"/><path d="M687.3,147.825 L688.2188,144.5063 L688.2188,144.5063 L687.9094,144.5063 L687.6,144.1313 L687.6,143.9063 L687.6,143.6813 L687.9094,143.3063 L688.2188,143.3063 L689.3438,143.3063 L689.6906,143.3063 L690,143.6813 L690,143.9063 L690,144.1313 L689.6906,144.5063 L689.6906,144.5063 L689.4187,144.5063 L688.0125,149.3063 L686.5875,149.3063 L685.1062,144.5063 L684.9094,144.5063 L684.9094,144.5063 L684.6,144.1313 L684.6,143.9063 L684.6,143.6813 L684.9094,143.3063 L685.2563,143.3063 L686.3813,143.3063 L686.6906,143.3063 L687,143.6813 L687,143.9063 L687,144.1313 L686.6906,144.5063 L686.3813,144.5063 L686.3813,144.5063 L687.3,147.825 Z " fill="#000000"/><text fill="#000000" font-family="sans-serif" font-size="7.2" font-style="italic" lengthAdjust="spacing" textLength="48.6" x="694.5" y="144.2742">«value object»</text><text fill="#000000" font-family="sans-serif" font-size="7.2" lengthAdjust="spacing" textLength="34.2" x="701.7" y="153.3305">Reference</text><line style="stroke:#A80036;stroke-width:0.8999999999999999;" x1="678.9" x2="743.1" y1="157.9125" y2="157.9125"/><!--MD5=[b8ca79fd367f79be7dbbd127290f5300]
class Weight--><rect codeLine="39" fill="#F5F5DC" filter="url(#fbw28arkfawnm)" height="28.9125" id="Weight" style="stroke:#A80036;stroke-width:0.8999999999999999;" width="65.4" x="764.7" y="133.8"/><ellipse cx="773.7" cy="145.8563" fill="#FF8B40" rx="6.6" ry="6.6" style="stroke:#A80036;stroke-width:0.6;"/><path d="M773.7,147.825 L774.6188,144.5063 L774.6188,144.5063 L774.3094,144.5063 L774,144.1313 L774,143.9063 L774,143.6813 L774.3094,143.3063 L774.6188,143.3063 L775.7438,143.3063 L776.0906,143.3063 L776.4,143.6813 L776.4,143.9063 L776.4,144.1313 L776.0906,144.5063 L776.0906,144.5063 L775.8188,144.5063 L774.4125,149.3063 L772.9875,149.3063 L771.5063,144.5063 L771.3094,144.5063 L771.3094,144.5063 L771,144.1313 L771,143.9063 L771,143.6813 L771.3094,143.3063 L771.6563,143.3063 L772.7813,143.3063 L773.0906,143.3063 L773.4,143.6813 L773.4,143.9063 L773.4,144.1313 L773.0906,144.5063 L772.7813,144.5063 L772.7813,144.5063 L773.7,147.825 Z " fill="#000000"/><text fill="#000000" font-family="sans-serif" font-size="7.2" font-style="italic" lengthAdjust="spacing" textLength="48.6" x="780.9" y="144.2742">«value object»</text><text fill="#000000" font-family="sans-serif" font-size="7.2" lengthAdjust="spacing" textLength="22.8" x="793.8" y="153.3305">Weight</text><line style="stroke:#A80036;stroke-width:0.8999999999999999;" x1="765.3" x2="829.5" y1="157.9125" y2="157.9125"/><!--MD5=[0ce2229b8b99a0b06f3a67484dc45f78]
class Volume--><rect codeLine="40" fill="#F5F5DC" filter="url(#fbw28arkfawnm)" height="28.9125" id="Volume" style="stroke:#A80036;stroke-width:0.8999999999999999;" width="65.4" x="851.1" y="133.8"/><ellipse cx="860.1" cy="145.8563" fill="#FF8B40" rx="6.6" ry="6.6" style="stroke:#A80036;stroke-width:0.6;"/><path d="M860.1,147.825 L861.0188,144.5063 L861.0188,144.5063 L860.7094,144.5063 L860.4,144.1313 L860.4,143.9063 L860.4,143.6813 L860.7094,143.3063 L861.0188,143.3063 L862.1438,143.3063 L862.4906,143.3063 L862.8,143.6813 L862.8,143.9063 L862.8,144.1313 L862.4906,144.5063 L862.4906,144.5063 L862.2188,144.5063 L860.8125,149.3063 L859.3875,149.3063 L857.9063,144.5063 L857.7094,144.5063 L857.7094,144.5063 L857.4,144.1313 L857.4,143.9063 L857.4,143.6813 L857.7094,143.3063 L858.0563,143.3063 L859.1813,143.3063 L859.4906,143.3063 L859.8,143.6813 L859.8,143.9063 L859.8,144.1313 L859.4906,144.5063 L859.1813,144.5063 L859.1813,144.5063 L860.1,147.825 Z " fill="#000000"/><text fill="#000000" font-family="sans-serif" font-size="7.2" font-style="italic" lengthAdjust="spacing" textLength="48.6" x="867.3" y="144.2742">«value object»</text><text fill="#000000" font-family="sans-serif" font-size="7.2" lengthAdjust="spacing" textLength="25.2" x="879" y="153.3305">Volume</text><line style="stroke:#A80036;stroke-width:0.8999999999999999;" x1="851.7" x2="915.9" y1="157.9125" y2="157.9125"/><!--MD5=[a805b40f8193e3b705560a3818c5c109]
class Photo--><rect codeLine="41" fill="#F5F5DC" filter="url(#fbw28arkfawnm)" height="28.9125" id="Photo" style="stroke:#A80036;stroke-width:0.8999999999999999;" width="65.4" x="937.5" y="133.8"/><ellipse cx="946.5" cy="145.8563" fill="#FF8B40" rx="6.6" ry="6.6" style="stroke:#A80036;stroke-width:0.6;"/><path d="M946.5,147.825 L947.4187,144.5063 L947.4187,144.5063 L947.1094,144.5063 L946.8,144.1313 L946.8,143.9063 L946.8,143.6813 L947.1094,143.3063 L947.4187,143.3063 L948.5437,143.3063 L948.8906,143.3063 L949.2,143.6813 L949.2,143.9063 L949.2,144.1313 L948.8906,144.5063 L948.8906,144.5063 L948.6188,144.5063 L947.2125,149.3063 L945.7875,149.3063 L944.3063,144.5063 L944.1094,144.5063 L944.1094,144.5063 L943.8,144.1313 L943.8,143.9063 L943.8,143.6813 L944.1094,143.3063 L944.4563,143.3063 L945.5813,143.3063 L945.8906,143.3063 L946.2,143.6813 L946.2,143.9063 L946.2,144.1313 L945.8906,144.5063 L945.5813,144.5063 L945.5813,144.5063 L946.5,147.825 Z " fill="#000000"/><text fill="#000000" font-family="sans-serif" font-size="7.2" font-style="italic" lengthAdjust="spacing" textLength="48.6" x="953.7" y="144.2742">«value object»</text><text fill="#000000" font-family="sans-serif" font-size="7.2" lengthAdjust="spacing" textLength="19.2" x="968.4" y="153.3305">Photo</text><line style="stroke:#A80036;stroke-width:0.8999999999999999;" x1="938.1" x2="1002.3" y1="157.9125" y2="157.9125"/><!--MD5=[912b7ac3592565191238c2b3c3b935ce]
class BrandName--><rect codeLine="42" fill="#F5F5DC" filter="url(#fbw28arkfawnm)" height="28.9125" id="BrandName" style="stroke:#A80036;stroke-width:0.8999999999999999;" width="65.4" x="1010.7" y="220.2"/><ellipse cx="1019.7" cy="232.2563" fill="#FF8B40" rx="6.6" ry="6.6" style="stroke:#A80036;stroke-width:0.6;"/><path d="M1019.7,234.225 L1020.6188,230.9063 L1020.6188,230.9063 L1020.3094,230.9063 L1020,230.5313 L1020,230.3063 L1020,230.0812 L1020.3094,229.7062 L1020.6188,229.7062 L1021.7438,229.7062 L1022.0906,229.7062 L1022.4,230.0812 L1022.4,230.3063 L1022.4,230.5313 L1022.0906,230.9063 L1022.0906,230.9063 L1021.8187,230.9063 L1020.4125,235.7062 L1018.9875,235.7062 L1017.5062,230.9063 L1017.3094,230.9063 L1017.3094,230.9063 L1017,230.5313 L1017,230.3063 L1017,230.0812 L1017.3094,229.7062 L1017.6563,229.7062 L1018.7813,229.7062 L1019.0906,229.7062 L1019.4,230.0812 L1019.4,230.3063 L1019.4,230.5313 L1019.0906,230.9063 L1018.7813,230.9063 L1018.7813,230.9063 L1019.7,234.225 Z " fill="#000000"/><text fill="#000000" font-family="sans-serif" font-size="7.2" font-style="italic" lengthAdjust="spacing" textLength="48.6" x="1026.9" y="230.6742">«value object»</text><text fill="#000000" font-family="sans-serif" font-size="7.2" lengthAdjust="spacing" textLength="40.2" x="1031.1" y="239.7305">BrandName</text><line style="stroke:#A80036;stroke-width:0.8999999999999999;" x1="1011.3" x2="1075.5" y1="244.3125" y2="244.3125"/><!--MD5=[a96594a83e2ecdc78cbf17c2ddf01934]
class Category--><rect codeLine="51" fill="#F5F5DC" filter="url(#fbw28arkfawnm)" height="37.9688" id="Category" style="stroke:#A80036;stroke-width:0.8999999999999999;" width="48.6" x="1083.9" y="300"/><ellipse cx="1092.9" cy="316.5844" fill="#ADD1B2" rx="6.6" ry="6.6" style="stroke:#A80036;stroke-width:0.6;"/><path d="M1092,317.1844 L1092,318.3844 L1094.4,318.3844 L1094.4,317.7844 L1094.4,317.4938 L1094.775,317.1844 L1095,317.1844 L1095.225,317.1844 L1095.6,317.4938 L1095.6,317.7844 L1095.6,319.5844 L1090.8,319.5844 L1090.5094,319.5844 L1090.2,319.2094 L1090.2,318.9844 L1090.2,318.7594 L1090.5094,318.3844 L1090.8,318.3844 L1090.8,318.3844 L1090.8,314.7844 L1090.8,314.7844 L1090.5094,314.7844 L1090.2,314.4094 L1090.2,314.1844 L1090.2,313.9594 L1090.5094,313.5844 L1090.8,313.5844 L1095.6,313.5844 L1095.6,315.3844 L1095.6,315.675 L1095.225,315.9844 L1095,315.9844 L1094.775,315.9844 L1094.4,315.675 L1094.4,315.3844 L1094.4,314.7844 L1092,314.7844 L1092,315.9844 L1092.6,315.9844 L1092.6,315.6937 L1092.6,315.6937 L1092.975,315.3844 L1093.2,315.3844 L1093.425,315.3844 L1093.8,315.6937 L1093.8,315.9844 L1093.8,317.1844 L1093.8,317.475 L1093.425,317.7844 L1093.425,317.7844 L1093.2,317.7844 L1092.975,317.7844 L1092.6,317.475 L1092.6,317.475 L1092.6,317.1844 L1092,317.1844 Z " fill="#000000"/><text fill="#000000" font-family="sans-serif" font-size="7.2" font-style="italic" lengthAdjust="spacing" textLength="25.8" x="1103.1" y="310.4742">«entity»</text><text fill="#000000" font-family="sans-serif" font-size="7.2" font-style="italic" lengthAdjust="spacing" textLength="21" x="1105.5" y="319.5305">«root»</text><text fill="#000000" font-family="sans-serif" font-size="7.2" lengthAdjust="spacing" textLength="29.4" x="1101.3" y="328.5867">Category</text><line style="stroke:#A80036;stroke-width:0.8999999999999999;" x1="1084.5" x2="1131.9" y1="333.1688" y2="333.1688"/><!--MD5=[494e0bdb5c8bb794bcdf99253cad2029]
class AlphanumericCode--><rect codeLine="55" fill="#F5F5DC" filter="url(#fbw28arkfawnm)" height="28.9125" id="AlphanumericCode" style="stroke:#A80036;stroke-width:0.8999999999999999;" width="82.8" x="971.4" y="384.6"/><ellipse cx="980.4" cy="396.6563" fill="#FF8B40" rx="6.6" ry="6.6" style="stroke:#A80036;stroke-width:0.6;"/><path d="M980.4,398.625 L981.3187,395.3063 L981.3187,395.3063 L981.0094,395.3063 L980.7,394.9313 L980.7,394.7063 L980.7,394.4813 L981.0094,394.1063 L981.3187,394.1063 L982.4437,394.1063 L982.7906,394.1063 L983.1,394.4813 L983.1,394.7063 L983.1,394.9313 L982.7906,395.3063 L982.7906,395.3063 L982.5188,395.3063 L981.1125,400.1063 L979.6875,400.1063 L978.2063,395.3063 L978.0094,395.3063 L978.0094,395.3063 L977.7,394.9313 L977.7,394.7063 L977.7,394.4813 L978.0094,394.1063 L978.3562,394.1063 L979.4812,394.1063 L979.7906,394.1063 L980.1,394.4813 L980.1,394.7063 L980.1,394.9313 L979.7906,395.3063 L979.4812,395.3063 L979.4812,395.3063 L980.4,398.625 Z " fill="#000000"/><text fill="#000000" font-family="sans-serif" font-size="7.2" font-style="italic" lengthAdjust="spacing" textLength="48.6" x="996.3" y="395.0742">«value object»</text><text fill="#000000" font-family="sans-serif" font-size="7.2" lengthAdjust="spacing" textLength="63.6" x="988.8" y="404.1305">AlphanumericCode</text><line style="stroke:#A80036;stroke-width:0.8999999999999999;" x1="972" x2="1053.6" y1="408.7125" y2="408.7125"/><!--MD5=[009695af4e54f3bba8a9c60dca3e1c94]
class Description--><rect codeLine="56" fill="#F5F5DC" filter="url(#fbw28arkfawnm)" height="28.9125" id="Description" style="stroke:#A80036;stroke-width:0.8999999999999999;" width="65.4" x="1075.5" y="384.6"/><ellipse cx="1084.5" cy="396.6563" fill="#FF8B40" rx="6.6" ry="6.6" style="stroke:#A80036;stroke-width:0.6;"/><path d="M1084.5,398.625 L1085.4188,395.3063 L1085.4188,395.3063 L1085.1094,395.3063 L1084.8,394.9313 L1084.8,394.7063 L1084.8,394.4813 L1085.1094,394.1063 L1085.4188,394.1063 L1086.5438,394.1063 L1086.8906,394.1063 L1087.2,394.4813 L1087.2,394.7063 L1087.2,394.9313 L1086.8906,395.3063 L1086.8906,395.3063 L1086.6187,395.3063 L1085.2125,400.1063 L1083.7875,400.1063 L1082.3062,395.3063 L1082.1094,395.3063 L1082.1094,395.3063 L1081.8,394.9313 L1081.8,394.7063 L1081.8,394.4813 L1082.1094,394.1063 L1082.4563,394.1063 L1083.5813,394.1063 L1083.8906,394.1063 L1084.2,394.4813 L1084.2,394.7063 L1084.2,394.9313 L1083.8906,395.3063 L1083.5813,395.3063 L1083.5813,395.3063 L1084.5,398.625 Z " fill="#000000"/><text fill="#000000" font-family="sans-serif" font-size="7.2" font-style="italic" lengthAdjust="spacing" textLength="48.6" x="1091.7" y="395.0742">«value object»</text><text fill="#000000" font-family="sans-serif" font-size="7.2" lengthAdjust="spacing" textLength="37.8" x="1097.1" y="404.1305">Description</text><line style="stroke:#A80036;stroke-width:0.8999999999999999;" x1="1076.1" x2="1140.3" y1="408.7125" y2="408.7125"/><!--MD5=[c3af4a672b55c04d06297fe69cbb7590]
class SuperCategory--><rect codeLine="57" fill="#F5F5DC" filter="url(#fbw28arkfawnm)" height="28.9125" id="SuperCategory" style="stroke:#A80036;stroke-width:0.8999999999999999;" width="68.4" x="1162.2" y="384.6"/><ellipse cx="1171.2" cy="396.6563" fill="#FF8B40" rx="6.6" ry="6.6" style="stroke:#A80036;stroke-width:0.6;"/><path d="M1171.2,398.625 L1172.1187,395.3063 L1172.1187,395.3063 L1171.8094,395.3063 L1171.5,394.9313 L1171.5,394.7063 L1171.5,394.4813 L1171.8094,394.1063 L1172.1187,394.1063 L1173.2437,394.1063 L1173.5906,394.1063 L1173.9,394.4813 L1173.9,394.7063 L1173.9,394.9313 L1173.5906,395.3063 L1173.5906,395.3063 L1173.3188,395.3063 L1171.9125,400.1063 L1170.4875,400.1063 L1169.0063,395.3063 L1168.8094,395.3063 L1168.8094,395.3063 L1168.5,394.9313 L1168.5,394.7063 L1168.5,394.4813 L1168.8094,394.1063 L1169.1563,394.1063 L1170.2813,394.1063 L1170.5906,394.1063 L1170.9,394.4813 L1170.9,394.7063 L1170.9,394.9313 L1170.5906,395.3063 L1170.2813,395.3063 L1170.2813,395.3063 L1171.2,398.625 Z " fill="#000000"/><text fill="#000000" font-family="sans-serif" font-size="7.2" font-style="italic" lengthAdjust="spacing" textLength="48.6" x="1179.9" y="395.0742">«value object»</text><text fill="#000000" font-family="sans-serif" font-size="7.2" lengthAdjust="spacing" textLength="49.2" x="1179.6" y="404.1305">SuperCategory</text><line style="stroke:#A80036;stroke-width:0.8999999999999999;" x1="1162.8" x2="1230" y1="408.7125" y2="408.7125"/><!--MD5=[41043388d0f8d1cf0966079386e80353]
link Product to Category--><path codeLine="60" d="M657.078,51.456 C750.51,52.65 1016.874,61.488 1072.2,123 C1116.354,172.092 1114.596,257.028 1110.906,296.712 " fill="none" id="Product-to-Category" style="stroke:#222222;stroke-width:0.6;"/><polygon fill="#222222" points="1110.612,299.718,1113.5257,294.577,1110.9037,296.7322,1108.7485,294.1102,1110.612,299.718" style="stroke:#222222;stroke-width:0.6;"/><text fill="#000000" font-family="sans-serif" font-size="7.8" lengthAdjust="spacing" textLength="44.4" x="1108.2" y="200.0971">organized by</text><text fill="#000000" font-family="sans-serif" font-size="7.8" lengthAdjust="spacing" textLength="4.2" x="1106.4734" y="293.4978">1</text><!--MD5=[ff6f7e6c179b97a3a11d359eab0adb49]
link Product to ShortDescription--><path codeLine="61" d="M592.2,52.86 C476.202,58.776 86.622,81.618 51,123 C28.38,149.274 40.176,193.356 49.218,217.296 " fill="none" id="Product-to-ShortDescription" style="stroke:#222222;stroke-width:0.6;"/><polygon fill="#222222" points="50.304,220.116,50.6019,214.2142,49.2253,217.3166,46.1229,215.9401,50.304,220.116" style="stroke:#222222;stroke-width:0.6;"/><text fill="#000000" font-family="sans-serif" font-size="7.8" lengthAdjust="spacing" textLength="57.6" x="51.6" y="151.4971">characterized by</text><text fill="#000000" font-family="sans-serif" font-size="7.8" lengthAdjust="spacing" textLength="4.2" x="44.0038" y="213.6842">1</text><!--MD5=[4de9e0c153cc8910a4dd63bf2609ac94]
link Product to LongDescription--><path codeLine="62" d="M592.122,52.602 C530.208,55.686 391.386,65.46 278.4,94.2 C244.89,102.726 208.926,119.664 184.95,132.186 " fill="none" id="Product-to-LongDescription" style="stroke:#222222;stroke-width:0.6;"/><polygon fill="#222222" points="182.088,133.692,187.9855,133.318,184.7468,132.3025,185.7623,129.0639,182.088,133.692" style="stroke:#222222;stroke-width:0.6;"/><text fill="#000000" font-family="sans-serif" font-size="7.8" lengthAdjust="spacing" textLength="57.6" x="279" y="102.8971">characterized by</text><text fill="#000000" font-family="sans-serif" font-size="7.8" lengthAdjust="spacing" textLength="4.2" x="183.7274" y="127.254">1</text><!--MD5=[308bef9f33132c2b243ec8e9138be5c6]
link Product to TechnicalDescription--><path codeLine="63" d="M592.062,53.856 C543.102,58.362 447.984,69.654 370.8,94.2 C340.542,103.824 308.046,120.246 286.086,132.342 " fill="none" id="Product-to-TechnicalDescription" style="stroke:#222222;stroke-width:0.6;"/><polygon fill="#222222" points="283.464,133.794,289.35,133.2695,286.0865,132.3371,287.0189,129.0736,283.464,133.794" style="stroke:#222222;stroke-width:0.6;"/><text fill="#000000" font-family="sans-serif" font-size="7.8" lengthAdjust="spacing" textLength="57.6" x="371.4" y="102.8971">characterized by</text><text fill="#000000" font-family="sans-serif" font-size="7.8" lengthAdjust="spacing" textLength="4.2" x="284.7898" y="127.3821">1</text><!--MD5=[d52d4675e9eec1727cacff8adb24bf93]
link Product to Barcode--><path codeLine="64" d="M592.08,57.606 C558.234,64.662 503.982,77.34 459,94.2 C432.198,104.244 426.648,109.512 401.4,123 C395.97,125.898 390.21,129.096 384.732,132.192 " fill="none" id="Product-to-Barcode" style="stroke:#222222;stroke-width:0.6;"/><polygon fill="#222222" points="382.062,133.704,387.9431,133.1274,384.6715,132.2239,385.5749,128.9522,382.062,133.704" style="stroke:#222222;stroke-width:0.6;"/><text fill="#000000" font-family="sans-serif" font-size="7.8" lengthAdjust="spacing" textLength="41.4" x="459.6" y="102.8971">identified by</text><text fill="#000000" font-family="sans-serif" font-size="7.8" lengthAdjust="spacing" textLength="4.2" x="383.4385" y="127.2691">1</text><!--MD5=[7119557809726774d3ef77edfe01616b]
link Product to ProductionCode--><path codeLine="65" d="M591.984,63.282 C571.986,71.112 546.144,82.098 524.4,94.2 C504.384,105.342 483.162,120.522 468.216,131.85 " fill="none" id="Product-to-ProductionCode" style="stroke:#222222;stroke-width:0.6;"/><polygon fill="#222222" points="465.684,133.776,471.4356,132.4199,468.0727,131.961,468.5315,128.598,465.684,133.776" style="stroke:#222222;stroke-width:0.6;"/><text fill="#000000" font-family="sans-serif" font-size="7.8" lengthAdjust="spacing" textLength="41.4" x="525" y="102.8971">identified by</text><text fill="#000000" font-family="sans-serif" font-size="7.8" lengthAdjust="spacing" textLength="13.2" x="455.273" y="127.3595">0..1</text><!--MD5=[5fa2e163e1a5922a0d0ebcb119c05bb7]
link Product to Price--><path codeLine="66" d="M597.9,76.428 C592.128,82.14 586.152,88.278 580.8,94.2 C573.318,102.486 565.578,111.9 558.78,120.492 " fill="none" id="Product-to-Price" style="stroke:#222222;stroke-width:0.6;"/><polygon fill="#222222" points="556.89,122.892,562.1178,120.1371,558.7473,120.536,558.3483,117.1654,556.89,122.892" style="stroke:#222222;stroke-width:0.6;"/><text fill="#000000" font-family="sans-serif" font-size="7.8" lengthAdjust="spacing" textLength="37.8" x="581.4" y="102.8971">associated</text><text fill="#000000" font-family="sans-serif" font-size="7.8" lengthAdjust="spacing" textLength="4.2" x="555.4377" y="116.4269">1</text><!--MD5=[257a992859c5a0c09beed12c3d44838f]
link Product to Size--><path codeLine="67" d="M624.6,76.35 C624.6,93.414 624.6,115.554 624.6,130.596 " fill="none" id="Product-to-Size" style="stroke:#222222;stroke-width:0.6;"/><polygon fill="#222222" points="624.6,133.692,627,128.292,624.6,130.692,622.2,128.292,624.6,133.692" style="stroke:#222222;stroke-width:0.6;"/><text fill="#000000" font-family="sans-serif" font-size="7.8" lengthAdjust="spacing" textLength="37.8" x="625.2" y="102.8971">associated</text><text fill="#000000" font-family="sans-serif" font-size="7.8" lengthAdjust="spacing" textLength="4.2" x="619.8619" y="127.254">1</text><!--MD5=[21c45546ac8489a13fec8a125b2763ab]
link Product to Weight--><path codeLine="68" d="M657.102,63.162 C677.004,70.944 702.696,81.93 724.2,94.2 C743.574,105.252 763.944,120.444 778.26,131.802 " fill="none" id="Product-to-Weight" style="stroke:#222222;stroke-width:0.6;"/><polygon fill="#222222" points="780.684,133.728,777.9525,128.4879,778.3364,131.8602,774.964,132.244,780.684,133.728" style="stroke:#222222;stroke-width:0.6;"/><text fill="#000000" font-family="sans-serif" font-size="7.8" lengthAdjust="spacing" textLength="57.6" x="741.6" y="102.8971">characterized by</text><text fill="#000000" font-family="sans-serif" font-size="7.8" lengthAdjust="spacing" textLength="4.2" x="771.6624" y="127.2992">1</text><!--MD5=[dbba7c99e765cab38348dc0774bd3da3]
link Product to Volume--><path codeLine="69" d="M657.096,55.458 C694.026,60.984 755.55,72.672 804.6,94.2 C826.656,103.878 849.174,119.76 864.534,131.694 " fill="none" id="Product-to-Volume" style="stroke:#222222;stroke-width:0.6;"/><polygon fill="#222222" points="866.94,133.578,864.1758,128.355,864.5807,131.7249,861.2109,132.1298,866.94,133.578" style="stroke:#222222;stroke-width:0.6;"/><text fill="#000000" font-family="sans-serif" font-size="7.8" lengthAdjust="spacing" textLength="57.6" x="825.6" y="102.8971">characterized by</text><text fill="#000000" font-family="sans-serif" font-size="7.8" lengthAdjust="spacing" textLength="4.2" x="858.1185" y="127.353">1</text><!--MD5=[a08fded9ab29299d2f06160dc61bc428]
link Product to Reference--><path codeLine="70" d="M651.3,76.428 C657.072,82.14 663.048,88.278 668.4,94.2 C679.188,106.146 690.516,120.438 698.772,131.226 " fill="none" id="Product-to-Reference" style="stroke:#222222;stroke-width:0.6;"/><polygon fill="#222222" points="700.59,133.614,699.2239,127.8648,698.7708,131.2285,695.4071,130.7754,700.59,133.614" style="stroke:#222222;stroke-width:0.6;"/><text fill="#000000" font-family="sans-serif" font-size="7.8" lengthAdjust="spacing" textLength="41.4" x="677.4" y="102.8971">identified by</text><text fill="#000000" font-family="sans-serif" font-size="7.8" lengthAdjust="spacing" textLength="4.2" x="693.3407" y="127.3977">1</text><!--MD5=[d712a9affdb0a2e6fd883f05aa145395]
link Product to Photo--><path codeLine="71" d="M657.018,52.254 C707.964,54.696 809.166,63.366 888.6,94.2 C911.898,103.242 935.454,119.61 951.228,131.85 " fill="none" id="Product-to-Photo" style="stroke:#222222;stroke-width:0.6;"/><polygon fill="#222222" points="953.694,133.776,950.9206,128.5579,951.3315,131.9271,947.9623,132.3379,953.694,133.776" style="stroke:#222222;stroke-width:0.6;"/><text fill="#000000" font-family="sans-serif" font-size="7.8" lengthAdjust="spacing" textLength="33.6" x="910.8" y="102.8971">described</text><text fill="#000000" font-family="sans-serif" font-size="7.8" lengthAdjust="spacing" textLength="12" x="935.9268" y="127.3595">1..*</text><!--MD5=[3cb408ea3cff5a6a2040d64500281f76]
link Product to BrandName--><path codeLine="72" d="M657.084,52.44 C716.34,55.2 845.484,64.41 949.8,94.2 C979.638,102.72 993.294,99.36 1013.4,123 C1036.482,150.144 1041.96,193.392 1043.166,217.098 " fill="none" id="Product-to-BrandName" style="stroke:#222222;stroke-width:0.6;"/><polygon fill="#222222" points="1043.298,220.17,1045.4646,214.6722,1043.1695,217.1728,1040.669,214.8777,1043.298,220.17" style="stroke:#222222;stroke-width:0.6;"/><text fill="#000000" font-family="sans-serif" font-size="7.8" lengthAdjust="spacing" textLength="30" x="1036.8" y="151.4971">made by</text><text fill="#000000" font-family="sans-serif" font-size="7.8" lengthAdjust="spacing" textLength="4.2" x="1038.5337" y="213.752">1</text><!--MD5=[dd62927d278b59ce5c0835a45bf7cdf2]
link Category to AlphanumericCode--><path codeLine="75" d="M1083.864,336.96 C1075.998,342.792 1067.316,349.434 1059.6,355.8 C1049.376,364.236 1038.396,374.184 1029.636,382.344 " fill="none" id="Category-to-AlphanumericCode" style="stroke:#222222;stroke-width:0.6;"/><polygon fill="#222222" points="1027.23,384.594,1032.815,382.6632,1029.4229,382.5467,1029.5394,379.1546,1027.23,384.594" style="stroke:#222222;stroke-width:0.6;"/><text fill="#000000" font-family="sans-serif" font-size="7.8" lengthAdjust="spacing" textLength="41.4" x="1060.2" y="364.4971">identified by</text><text fill="#000000" font-family="sans-serif" font-size="7.8" lengthAdjust="spacing" textLength="4.2" x="1026.1896" y="378.1821">1</text><!--MD5=[ea0a2a058c4fe78704979bc0affba79e]
link Category to Description--><path codeLine="76" d="M1107.78,337.842 C1107.624,346.554 1107.51,357.114 1107.6,366.6 C1107.642,371.358 1107.726,376.512 1107.816,381.258 " fill="none" id="Category-to-Description" style="stroke:#222222;stroke-width:0.6;"/><polygon fill="#222222" points="1107.882,384.468,1110.1735,379.0211,1107.822,381.4686,1105.3745,379.1171,1107.882,384.468" style="stroke:#222222;stroke-width:0.6;"/><text fill="#000000" font-family="sans-serif" font-size="7.8" lengthAdjust="spacing" textLength="57.6" x="1108.2" y="364.4971">characterized by</text><text fill="#000000" font-family="sans-serif" font-size="7.8" lengthAdjust="spacing" textLength="4.2" x="1103.0624" y="378.0239">1</text><!--MD5=[1bcd48e016ecdb5871d991f24ac09829]
link Category to SuperCategory--><path codeLine="77" d="M1132.668,330.852 C1144.47,337.11 1158.3,345.666 1168.8,355.8 C1176.546,363.276 1183.188,373.326 1188.012,381.78 " fill="none" id="Category-to-SuperCategory" style="stroke:#222222;stroke-width:0.6;"/><polygon fill="#222222" points="1189.578,384.582,1189.0306,378.6981,1188.1109,381.9652,1184.8438,381.0455,1189.578,384.582" style="stroke:#222222;stroke-width:0.6;"/><text fill="#000000" font-family="sans-serif" font-size="7.8" lengthAdjust="spacing" textLength="36" x="1178.4" y="364.4971">belongs to</text><text fill="#000000" font-family="sans-serif" font-size="7.8" lengthAdjust="spacing" textLength="13.2" x="1172.9386" y="378.1671">0..1</text><!--MD5=[fdd36bd80c30f684e8f4f557ed2ca409]
@startuml
'https://plantuml.com/class-diagram

skinparam classAttributeIconSize 0
hide empty attributes
skinparam classBackgroundColor beige
skinparam ArrowColor #222222

package "<<aggregate>> Product" {
    entity Product
    class ShortDescription
    class LongDescription
    class TechnicalDescription
    class Barcode
    class ProductionCode
    class Price
    class Size
    class Reference
    class Weight
    class Volume
    class Photo
    class BrandName
}

entity Product <<entity>> <<root>> {
    - uniqueInternalCode
}

class ShortDescription <<(V,#FF8B40) value object>>
class LongDescription <<(V,#FF8B40) value object>>
class TechnicalDescription <<(V,#FF8B40) value object>>
class Barcode <<(V,#FF8B40) value object>>
class ProductionCode <<(V,#FF8B40) value object>>
class Price <<(V,#FF8B40) value object>> {
    - withoutVAT
    - withVAT
}
class Size <<(V,#FF8B40) value object>>
class Reference <<(V,#FF8B40) value object>> {}
class Weight <<(V,#FF8B40) value object>> {}
class Volume <<(V,#FF8B40) value object>> {}
class Photo <<(V,#FF8B40) value object>>{}
class BrandName <<(V,#FF8B40) value object>>{}

package "<<aggregate>> Category" {
    entity Category
    class AlphanumericCode
    class Description
    class SuperCategory
    }

entity Category <<entity>> <<root>> {

}

class AlphanumericCode <<(V,#FF8B40) value object>>
class Description <<(V,#FF8B40) value object>>
class SuperCategory <<(V,#FF8B40) value object>>


Product - - - -> "1" Category : organized by
Product - - -> "1" ShortDescription: characterized by
Product - -> "1" LongDescription: characterized by
Product - -> "1" TechnicalDescription: characterized by
Product - -> "1" Barcode: identified by
Product - -> "0..1" ProductionCode: identified by
Product - -> "1" Price: associated
Product - -> "1" Size: associated
Product - -> "1" Weight: characterized by
Product - -> "1" Volume: characterized by
Product - -> "1" Reference : identified by
Product - -> "1..*" Photo : described
Product - - -> "1" BrandName : made by


Category - -> "1" AlphanumericCode : identified by
Category - -> "1" Description : characterized by
Category - -> "0..1" SuperCategory : belongs to

@enduml

@startuml

skinparam classAttributeIconSize 0
hide empty attributes
skinparam classBackgroundColor beige
skinparam ArrowColor #222222

package "<<aggregate>> Product" {
    entity Product
    class ShortDescription
    class LongDescription
    class TechnicalDescription
    class Barcode
    class ProductionCode
    class Price
    class Size
    class Reference
    class Weight
    class Volume
    class Photo
    class BrandName
}

entity Product <<entity>> <<root>> {
    - uniqueInternalCode
}

class ShortDescription <<(V,#FF8B40) value object>>
class LongDescription <<(V,#FF8B40) value object>>
class TechnicalDescription <<(V,#FF8B40) value object>>
class Barcode <<(V,#FF8B40) value object>>
class ProductionCode <<(V,#FF8B40) value object>>
class Price <<(V,#FF8B40) value object>> {
    - withoutVAT
    - withVAT
}
class Size <<(V,#FF8B40) value object>>
class Reference <<(V,#FF8B40) value object>> {}
class Weight <<(V,#FF8B40) value object>> {}
class Volume <<(V,#FF8B40) value object>> {}
class Photo <<(V,#FF8B40) value object>>{}
class BrandName <<(V,#FF8B40) value object>>{}

package "<<aggregate>> Category" {
    entity Category
    class AlphanumericCode
    class Description
    class SuperCategory
    }

entity Category <<entity>> <<root>> {

}

class AlphanumericCode <<(V,#FF8B40) value object>>
class Description <<(V,#FF8B40) value object>>
class SuperCategory <<(V,#FF8B40) value object>>


Product - - - -> "1" Category : organized by
Product - - -> "1" ShortDescription: characterized by
Product - -> "1" LongDescription: characterized by
Product - -> "1" TechnicalDescription: characterized by
Product - -> "1" Barcode: identified by
Product - -> "0..1" ProductionCode: identified by
Product - -> "1" Price: associated
Product - -> "1" Size: associated
Product - -> "1" Weight: characterized by
Product - -> "1" Volume: characterized by
Product - -> "1" Reference : identified by
Product - -> "1..*" Photo : described
Product - - -> "1" BrandName : made by


Category - -> "1" AlphanumericCode : identified by
Category - -> "1" Description : characterized by
Category - -> "0..1" SuperCategory : belongs to

@enduml

PlantUML version 1.2022.1(Tue Feb 01 18:19:58 GMT 2022)
(GPL source distribution)
Java Runtime: OpenJDK Runtime Environment
JVM: Dynamic Code Evolution 64-Bit Server VM
Default Encoding: Cp1252
Language: pt
Country: PT
--></g></svg>