<?xml version="1.0" encoding="UTF-8" standalone="no"?><svg xmlns="http://www.w3.org/2000/svg" xmlns:xlink="http://www.w3.org/1999/xlink" contentScriptType="application/ecmascript" contentStyleType="text/css" height="413.6px" preserveAspectRatio="none" style="width:335px;height:413px;background:#FFFFFF;" version="1.1" viewBox="0 0 335 413" width="335.2px" zoomAndPan="magnify"><defs><filter height="300%" id="f1teodxzdyq6i9" width="300%" x="-1" y="-1"><feGaussianBlur result="blurOut" stdDeviation="0.8000000000000002"/><feColorMatrix in="blurOut" result="blurOut2" type="matrix" values="0 0 0 0 0 0 0 0 0 0 0 0 0 0 0 0 0 0 .4 0"/><feOffset dx="1.6000000000000003" dy="1.6000000000000003" in="blurOut2" result="blurOut3"/><feBlend in="SourceGraphic" in2="blurOut3" mode="normal"/></filter></defs><g><!--MD5=[20e996825fabf2618e164db4892593a3]
cluster <<aggregate>> Client--><polygon fill="#FFFFFF" filter="url(#f1teodxzdyq6i9)" points="83.6,2.4,145.6,2.4,148.4,11.8438,149.6,11.8438,149.6,48.4,83.6,48.4,83.6,2.4" style="stroke:#000000;stroke-width:0.6000000000000001;"/><line style="stroke:#000000;stroke-width:0.6000000000000001;" x1="83.6" x2="148.4" y1="11.8438" y2="11.8438"/><text fill="#000000" font-family="sans-serif" font-size="5.6" font-weight="bold" lengthAdjust="spacing" textLength="59.6" x="85.2" y="9.0133">&lt;&lt;aggregate&gt;&gt; Client</text><!--MD5=[e6413e74525275476b562053817865dc]
cluster <<aggregate>> ShopCar--><polygon fill="#FFFFFF" filter="url(#f1teodxzdyq6i9)" points="6.4,202,76,202,78.8,211.4438,135.2,211.4438,135.2,250.8,6.4,250.8,6.4,202" style="stroke:#000000;stroke-width:0.6000000000000001;"/><line style="stroke:#000000;stroke-width:0.6000000000000001;" x1="6.4" x2="78.8" y1="211.4438" y2="211.4438"/><text fill="#000000" font-family="sans-serif" font-size="5.6" font-weight="bold" lengthAdjust="spacing" textLength="67.2" x="8" y="208.6133">&lt;&lt;aggregate&gt;&gt; ShopCar</text><!--MD5=[cd1e467dd42714edd782c72995bbc617]
cluster <<aggregate>> Product--><polygon fill="#FFFFFF" filter="url(#f1teodxzdyq6i9)" points="22.4,270.8,90,270.8,92.8,280.2438,218.4,280.2438,218.4,410.8,22.4,410.8,22.4,270.8" style="stroke:#000000;stroke-width:0.6000000000000001;"/><line style="stroke:#000000;stroke-width:0.6000000000000001;" x1="22.4" x2="92.8" y1="280.2438" y2="280.2438"/><text fill="#000000" font-family="sans-serif" font-size="5.6" font-weight="bold" lengthAdjust="spacing" textLength="65.2" x="24" y="277.4133">&lt;&lt;aggregate&gt;&gt; Product</text><!--MD5=[597c9b6a35d8038d4b40fd8870ba90aa]
cluster <<aggregate>> User--><polygon fill="#FFFFFF" filter="url(#f1teodxzdyq6i9)" points="144.8,93.2,203.6,93.2,206.4,102.6438,328.4,102.6438,328.4,246.4,144.8,246.4,144.8,93.2" style="stroke:#000000;stroke-width:0.6000000000000001;"/><line style="stroke:#000000;stroke-width:0.6000000000000001;" x1="144.8" x2="206.4" y1="102.6438" y2="102.6438"/><text fill="#000000" font-family="sans-serif" font-size="5.6" font-weight="bold" lengthAdjust="spacing" textLength="56.4" x="146.4" y="99.8133">&lt;&lt;aggregate&gt;&gt; User</text><!--MD5=[ed6624c6556d5e7b1bd23032162d20b7]
class Client--><rect codeLine="19" fill="#F5F5DC" filter="url(#f1teodxzdyq6i9)" height="25.3125" id="Client" style="stroke:#A80036;stroke-width:0.6000000000000001;" width="28.4" x="91" y="16.8"/><ellipse cx="97" cy="27.8563" fill="#ADD1B2" rx="4.4" ry="4.4" style="stroke:#A80036;stroke-width:0.4000000000000001;"/><path d="M96.4,28.2563 L96.4,29.0563 L98,29.0563 L98,28.6563 L98,28.4625 L98.25,28.2563 L98.4,28.2563 L98.55,28.2563 L98.8,28.4625 L98.8,28.6563 L98.8,29.8563 L95.6,29.8563 L95.4063,29.8563 L95.2,29.6063 L95.2,29.4563 L95.2,29.3063 L95.4063,29.0563 L95.6,29.0563 L95.6,29.0563 L95.6,26.6563 L95.6,26.6563 L95.4063,26.6563 L95.2,26.4063 L95.2,26.2563 L95.2,26.1063 L95.4063,25.8563 L95.6,25.8563 L98.8,25.8563 L98.8,27.0563 L98.8,27.25 L98.55,27.4563 L98.4,27.4563 L98.25,27.4563 L98,27.25 L98,27.0563 L98,26.6563 L96.4,26.6563 L96.4,27.4563 L96.8,27.4563 L96.8,27.2625 L96.8,27.2625 L97.05,27.0563 L97.2,27.0563 L97.35,27.0563 L97.6,27.2625 L97.6,27.4563 L97.6,28.2563 L97.6,28.45 L97.35,28.6563 L97.35,28.6563 L97.2,28.6563 L97.05,28.6563 L96.8,28.45 L96.8,28.45 L96.8,28.2563 L96.4,28.2563 Z " fill="#000000"/><text fill="#000000" font-family="sans-serif" font-size="4.8" font-style="italic" lengthAdjust="spacing" textLength="17.2" x="101.8" y="23.7828">«entity»</text><text fill="#000000" font-family="sans-serif" font-size="4.8" font-style="italic" lengthAdjust="spacing" textLength="14" x="103.4" y="29.8203">«root»</text><text fill="#000000" font-family="sans-serif" font-size="4.8" lengthAdjust="spacing" textLength="12.8" x="104" y="35.8578">Client</text><line style="stroke:#A80036;stroke-width:0.6000000000000001;" x1="91.4" x2="119" y1="38.9125" y2="38.9125"/><!--MD5=[e59460fd296ba65972a119da719922bf]
class ShopCar--><rect codeLine="27" fill="#F5F5DC" filter="url(#f1teodxzdyq6i9)" height="25.3125" id="ShopCar" style="stroke:#A80036;stroke-width:0.6000000000000001;" width="32.4" x="13" y="217.8"/><ellipse cx="19" cy="228.8563" fill="#ADD1B2" rx="4.4" ry="4.4" style="stroke:#A80036;stroke-width:0.4000000000000001;"/><path d="M18.4,229.2563 L18.4,230.0563 L20,230.0563 L20,229.6563 L20,229.4625 L20.25,229.2563 L20.4,229.2563 L20.55,229.2563 L20.8,229.4625 L20.8,229.6563 L20.8,230.8563 L17.6,230.8563 L17.4063,230.8563 L17.2,230.6063 L17.2,230.4563 L17.2,230.3063 L17.4063,230.0563 L17.6,230.0563 L17.6,230.0563 L17.6,227.6563 L17.6,227.6563 L17.4063,227.6563 L17.2,227.4063 L17.2,227.2563 L17.2,227.1063 L17.4063,226.8563 L17.6,226.8563 L20.8,226.8563 L20.8,228.0563 L20.8,228.25 L20.55,228.4563 L20.4,228.4563 L20.25,228.4563 L20,228.25 L20,228.0563 L20,227.6563 L18.4,227.6563 L18.4,228.4563 L18.8,228.4563 L18.8,228.2625 L18.8,228.2625 L19.05,228.0563 L19.2,228.0563 L19.35,228.0563 L19.6,228.2625 L19.6,228.4563 L19.6,229.2563 L19.6,229.45 L19.35,229.6563 L19.35,229.6563 L19.2,229.6563 L19.05,229.6563 L18.8,229.45 L18.8,229.45 L18.8,229.2563 L18.4,229.2563 Z " fill="#000000"/><text fill="#000000" font-family="sans-serif" font-size="4.8" font-style="italic" lengthAdjust="spacing" textLength="17.2" x="25.8" y="224.7828">«entity»</text><text fill="#000000" font-family="sans-serif" font-size="4.8" font-style="italic" lengthAdjust="spacing" textLength="14" x="27.4" y="230.8203">«root»</text><text fill="#000000" font-family="sans-serif" font-size="4.8" lengthAdjust="spacing" textLength="19.6" x="24.6" y="236.8578">ShopCar</text><line style="stroke:#A80036;stroke-width:0.6000000000000001;" x1="13.4" x2="45" y1="239.9125" y2="239.9125"/><!--MD5=[44a1b4afaef76c16e6c9ec4990ad0c8d]
class Item--><rect codeLine="30" fill="#F5F5DC" filter="url(#f1teodxzdyq6i9)" height="28.0094" id="Item" style="stroke:#A80036;stroke-width:0.6000000000000001;" width="37.2" x="91.4" y="216.4"/><ellipse cx="101.36" cy="224.4375" fill="#ADD1B2" rx="4.4" ry="4.4" style="stroke:#A80036;stroke-width:0.4000000000000001;"/><path d="M100.76,224.8375 L100.76,225.6375 L102.36,225.6375 L102.36,225.2375 L102.36,225.0438 L102.61,224.8375 L102.76,224.8375 L102.91,224.8375 L103.16,225.0438 L103.16,225.2375 L103.16,226.4375 L99.96,226.4375 L99.7663,226.4375 L99.56,226.1875 L99.56,226.0375 L99.56,225.8875 L99.7663,225.6375 L99.96,225.6375 L99.96,225.6375 L99.96,223.2375 L99.96,223.2375 L99.7663,223.2375 L99.56,222.9875 L99.56,222.8375 L99.56,222.6875 L99.7663,222.4375 L99.96,222.4375 L103.16,222.4375 L103.16,223.6375 L103.16,223.8313 L102.91,224.0375 L102.76,224.0375 L102.61,224.0375 L102.36,223.8313 L102.36,223.6375 L102.36,223.2375 L100.76,223.2375 L100.76,224.0375 L101.16,224.0375 L101.16,223.8438 L101.16,223.8438 L101.41,223.6375 L101.56,223.6375 L101.71,223.6375 L101.96,223.8438 L101.96,224.0375 L101.96,224.8375 L101.96,225.0313 L101.71,225.2375 L101.71,225.2375 L101.56,225.2375 L101.41,225.2375 L101.16,225.0313 L101.16,225.0313 L101.16,224.8375 L100.76,224.8375 Z " fill="#000000"/><text fill="#000000" font-family="sans-serif" font-size="4.8" font-style="italic" lengthAdjust="spacing" textLength="17.2" x="107.04" y="223.3828">«entity»</text><text fill="#000000" font-family="sans-serif" font-size="4.8" lengthAdjust="spacing" textLength="9.6" x="110.84" y="229.4203">Item</text><line style="stroke:#A80036;stroke-width:0.6000000000000001;" x1="91.8" x2="128.2" y1="232.475" y2="232.475"/><text fill="#000000" font-family="sans-serif" font-size="4.4" lengthAdjust="spacing" textLength="32.4" x="93.8" y="238.6426">-productQuantity</text><line style="stroke:#A80036;stroke-width:0.6000000000000001;" x1="91.8" x2="128.2" y1="241.2094" y2="241.2094"/><!--MD5=[72136138052d025cffdce3c22fbd185f]
class Product--><rect codeLine="41" fill="#F5F5DC" filter="url(#f1teodxzdyq6i9)" height="25.3125" id="Product" style="stroke:#A80036;stroke-width:0.6000000000000001;" width="29.6" x="95.2" y="285.2"/><ellipse cx="101.2" cy="296.2563" fill="#ADD1B2" rx="4.4" ry="4.4" style="stroke:#A80036;stroke-width:0.4000000000000001;"/><path d="M100.6,296.6563 L100.6,297.4563 L102.2,297.4563 L102.2,297.0563 L102.2,296.8625 L102.45,296.6563 L102.6,296.6563 L102.75,296.6563 L103,296.8625 L103,297.0563 L103,298.2563 L99.8,298.2563 L99.6063,298.2563 L99.4,298.0063 L99.4,297.8563 L99.4,297.7063 L99.6063,297.4563 L99.8,297.4563 L99.8,297.4563 L99.8,295.0563 L99.8,295.0563 L99.6063,295.0563 L99.4,294.8063 L99.4,294.6563 L99.4,294.5063 L99.6063,294.2563 L99.8,294.2563 L103,294.2563 L103,295.4563 L103,295.65 L102.75,295.8563 L102.6,295.8563 L102.45,295.8563 L102.2,295.65 L102.2,295.4563 L102.2,295.0563 L100.6,295.0563 L100.6,295.8563 L101,295.8563 L101,295.6625 L101,295.6625 L101.25,295.4563 L101.4,295.4563 L101.55,295.4563 L101.8,295.6625 L101.8,295.8563 L101.8,296.6563 L101.8,296.85 L101.55,297.0563 L101.55,297.0563 L101.4,297.0563 L101.25,297.0563 L101,296.85 L101,296.85 L101,296.6563 L100.6,296.6563 Z " fill="#000000"/><text fill="#000000" font-family="sans-serif" font-size="4.8" font-style="italic" lengthAdjust="spacing" textLength="17.2" x="106.6" y="292.1828">«entity»</text><text fill="#000000" font-family="sans-serif" font-size="4.8" font-style="italic" lengthAdjust="spacing" textLength="14" x="108.2" y="298.2203">«root»</text><text fill="#000000" font-family="sans-serif" font-size="4.8" lengthAdjust="spacing" textLength="16.8" x="106.8" y="304.2578">Product</text><line style="stroke:#A80036;stroke-width:0.6000000000000001;" x1="95.6" x2="124.4" y1="307.3125" y2="307.3125"/><!--MD5=[bcd52e17685b8c6ef90ac5de173a2d81]
class UniqueInternalCode--><rect codeLine="52" fill="#F5F5DC" filter="url(#f1teodxzdyq6i9)" height="19.275" id="UniqueInternalCode" style="stroke:#A80036;stroke-width:0.6000000000000001;" width="57.2" x="29" y="385.2"/><ellipse cx="35" cy="393.2375" fill="#FF8B40" rx="4.4" ry="4.4" style="stroke:#A80036;stroke-width:0.4000000000000001;"/><path d="M35,394.55 L35.6125,392.3375 L35.6125,392.3375 L35.4063,392.3375 L35.2,392.0875 L35.2,391.9375 L35.2,391.7875 L35.4063,391.5375 L35.6125,391.5375 L36.3625,391.5375 L36.5938,391.5375 L36.8,391.7875 L36.8,391.9375 L36.8,392.0875 L36.5938,392.3375 L36.5938,392.3375 L36.4125,392.3375 L35.475,395.5375 L34.525,395.5375 L33.5375,392.3375 L33.4063,392.3375 L33.4063,392.3375 L33.2,392.0875 L33.2,391.9375 L33.2,391.7875 L33.4063,391.5375 L33.6375,391.5375 L34.3875,391.5375 L34.5938,391.5375 L34.8,391.7875 L34.8,391.9375 L34.8,392.0875 L34.5938,392.3375 L34.3875,392.3375 L34.3875,392.3375 L35,394.55 Z " fill="#000000"/><text fill="#000000" font-family="sans-serif" font-size="4.8" font-style="italic" lengthAdjust="spacing" textLength="32.4" x="46.6" y="392.1828">«value object»</text><text fill="#000000" font-family="sans-serif" font-size="4.8" lengthAdjust="spacing" textLength="44.4" x="40.6" y="398.2203">UniqueInternalCode</text><line style="stroke:#A80036;stroke-width:0.6000000000000001;" x1="29.4" x2="85.8" y1="401.275" y2="401.275"/><!--MD5=[79d3acb8d8b4a000645cdf546551f625]
class ShortDescription--><rect codeLine="53" fill="#F5F5DC" filter="url(#f1teodxzdyq6i9)" height="19.275" id="ShortDescription" style="stroke:#A80036;stroke-width:0.6000000000000001;" width="49.6" x="100.4" y="385.2"/><ellipse cx="106.4" cy="393.2375" fill="#FF8B40" rx="4.4" ry="4.4" style="stroke:#A80036;stroke-width:0.4000000000000001;"/><path d="M106.4,394.55 L107.0125,392.3375 L107.0125,392.3375 L106.8063,392.3375 L106.6,392.0875 L106.6,391.9375 L106.6,391.7875 L106.8063,391.5375 L107.0125,391.5375 L107.7625,391.5375 L107.9938,391.5375 L108.2,391.7875 L108.2,391.9375 L108.2,392.0875 L107.9938,392.3375 L107.9938,392.3375 L107.8125,392.3375 L106.875,395.5375 L105.925,395.5375 L104.9375,392.3375 L104.8063,392.3375 L104.8063,392.3375 L104.6,392.0875 L104.6,391.9375 L104.6,391.7875 L104.8063,391.5375 L105.0375,391.5375 L105.7875,391.5375 L105.9938,391.5375 L106.2,391.7875 L106.2,391.9375 L106.2,392.0875 L105.9938,392.3375 L105.7875,392.3375 L105.7875,392.3375 L106.4,394.55 Z " fill="#000000"/><text fill="#000000" font-family="sans-serif" font-size="4.8" font-style="italic" lengthAdjust="spacing" textLength="32.4" x="114.2" y="392.1828">«value object»</text><text fill="#000000" font-family="sans-serif" font-size="4.8" lengthAdjust="spacing" textLength="36.8" x="112" y="398.2203">ShortDescription</text><line style="stroke:#A80036;stroke-width:0.6000000000000001;" x1="100.8" x2="149.6" y1="401.275" y2="401.275"/><!--MD5=[1ec76a0a72b04a65c95a0899f0ab5f6d]
class PriceWithoutVAT--><rect codeLine="54" fill="#F5F5DC" filter="url(#f1teodxzdyq6i9)" height="19.275" id="PriceWithoutVAT" style="stroke:#A80036;stroke-width:0.6000000000000001;" width="48.8" x="163.2" y="341.6"/><ellipse cx="169.2" cy="349.6375" fill="#FF8B40" rx="4.4" ry="4.4" style="stroke:#A80036;stroke-width:0.4000000000000001;"/><path d="M169.2,350.95 L169.8125,348.7375 L169.8125,348.7375 L169.6063,348.7375 L169.4,348.4875 L169.4,348.3375 L169.4,348.1875 L169.6063,347.9375 L169.8125,347.9375 L170.5625,347.9375 L170.7938,347.9375 L171,348.1875 L171,348.3375 L171,348.4875 L170.7938,348.7375 L170.7938,348.7375 L170.6125,348.7375 L169.675,351.9375 L168.725,351.9375 L167.7375,348.7375 L167.6063,348.7375 L167.6063,348.7375 L167.4,348.4875 L167.4,348.3375 L167.4,348.1875 L167.6063,347.9375 L167.8375,347.9375 L168.5875,347.9375 L168.7938,347.9375 L169,348.1875 L169,348.3375 L169,348.4875 L168.7938,348.7375 L168.5875,348.7375 L168.5875,348.7375 L169.2,350.95 Z " fill="#000000"/><text fill="#000000" font-family="sans-serif" font-size="4.8" font-style="italic" lengthAdjust="spacing" textLength="32.4" x="176.6" y="348.5828">«value object»</text><text fill="#000000" font-family="sans-serif" font-size="4.8" lengthAdjust="spacing" textLength="36" x="174.8" y="354.6203">PriceWithoutVAT</text><line style="stroke:#A80036;stroke-width:0.6000000000000001;" x1="163.6" x2="211.6" y1="357.675" y2="357.675"/><!--MD5=[3fd616f346a44cd59a91eb10b19e157c]
class User--><rect codeLine="57" fill="#F5F5DC" filter="url(#f1teodxzdyq6i9)" height="25.3125" id="User" style="stroke:#A80036;stroke-width:0.6000000000000001;" width="28.4" x="159.4" y="107.6"/><ellipse cx="165.4" cy="118.6563" fill="#ADD1B2" rx="4.4" ry="4.4" style="stroke:#A80036;stroke-width:0.4000000000000001;"/><path d="M164.8,119.0563 L164.8,119.8563 L166.4,119.8563 L166.4,119.4563 L166.4,119.2625 L166.65,119.0563 L166.8,119.0563 L166.95,119.0563 L167.2,119.2625 L167.2,119.4563 L167.2,120.6563 L164,120.6563 L163.8063,120.6563 L163.6,120.4063 L163.6,120.2563 L163.6,120.1063 L163.8063,119.8563 L164,119.8563 L164,119.8563 L164,117.4563 L164,117.4563 L163.8063,117.4563 L163.6,117.2063 L163.6,117.0563 L163.6,116.9063 L163.8063,116.6563 L164,116.6563 L167.2,116.6563 L167.2,117.8563 L167.2,118.05 L166.95,118.2563 L166.8,118.2563 L166.65,118.2563 L166.4,118.05 L166.4,117.8563 L166.4,117.4563 L164.8,117.4563 L164.8,118.2563 L165.2,118.2563 L165.2,118.0625 L165.2,118.0625 L165.45,117.8563 L165.6,117.8563 L165.75,117.8563 L166,118.0625 L166,118.2563 L166,119.0563 L166,119.25 L165.75,119.4563 L165.75,119.4563 L165.6,119.4563 L165.45,119.4563 L165.2,119.25 L165.2,119.25 L165.2,119.0563 L164.8,119.0563 Z " fill="#000000"/><text fill="#000000" font-family="sans-serif" font-size="4.8" font-style="italic" lengthAdjust="spacing" textLength="17.2" x="170.2" y="114.5828">«entity»</text><text fill="#000000" font-family="sans-serif" font-size="4.8" font-style="italic" lengthAdjust="spacing" textLength="14" x="171.8" y="120.6203">«root»</text><text fill="#000000" font-family="sans-serif" font-size="4.8" lengthAdjust="spacing" textLength="10.8" x="173.4" y="126.6578">User</text><line style="stroke:#A80036;stroke-width:0.6000000000000001;" x1="159.8" x2="187.4" y1="129.7125" y2="129.7125"/><!--MD5=[2f01b1126ff33a0669651ec2488a5ef9]
class Password--><rect codeLine="61" fill="#F5F5DC" filter="url(#f1teodxzdyq6i9)" height="19.275" id="Password" style="stroke:#A80036;stroke-width:0.6000000000000001;" width="43.6" x="151.4" y="220.8"/><ellipse cx="157.4" cy="228.8375" fill="#FF8B40" rx="4.4" ry="4.4" style="stroke:#A80036;stroke-width:0.4000000000000001;"/><path d="M157.4,230.15 L158.0125,227.9375 L158.0125,227.9375 L157.8063,227.9375 L157.6,227.6875 L157.6,227.5375 L157.6,227.3875 L157.8063,227.1375 L158.0125,227.1375 L158.7625,227.1375 L158.9938,227.1375 L159.2,227.3875 L159.2,227.5375 L159.2,227.6875 L158.9938,227.9375 L158.9938,227.9375 L158.8125,227.9375 L157.875,231.1375 L156.925,231.1375 L155.9375,227.9375 L155.8063,227.9375 L155.8063,227.9375 L155.6,227.6875 L155.6,227.5375 L155.6,227.3875 L155.8063,227.1375 L156.0375,227.1375 L156.7875,227.1375 L156.9938,227.1375 L157.2,227.3875 L157.2,227.5375 L157.2,227.6875 L156.9938,227.9375 L156.7875,227.9375 L156.7875,227.9375 L157.4,230.15 Z " fill="#000000"/><text fill="#000000" font-family="sans-serif" font-size="4.8" font-style="italic" lengthAdjust="spacing" textLength="32.4" x="162.2" y="227.7828">«value object»</text><text fill="#000000" font-family="sans-serif" font-size="4.8" lengthAdjust="spacing" textLength="22.4" x="167.2" y="233.8203">Password</text><line style="stroke:#A80036;stroke-width:0.6000000000000001;" x1="151.8" x2="194.6" y1="236.875" y2="236.875"/><!--MD5=[f694847fc702e0723b49e5500a5c29a4]
class Username--><rect codeLine="63" fill="#F5F5DC" filter="url(#f1teodxzdyq6i9)" height="19.275" id="Username" style="stroke:#A80036;stroke-width:0.6000000000000001;" width="43.6" x="220.6" y="164"/><ellipse cx="226.6" cy="172.0375" fill="#FF8B40" rx="4.4" ry="4.4" style="stroke:#A80036;stroke-width:0.4000000000000001;"/><path d="M226.6,173.35 L227.2125,171.1375 L227.2125,171.1375 L227.0063,171.1375 L226.8,170.8875 L226.8,170.7375 L226.8,170.5875 L227.0063,170.3375 L227.2125,170.3375 L227.9625,170.3375 L228.1938,170.3375 L228.4,170.5875 L228.4,170.7375 L228.4,170.8875 L228.1938,171.1375 L228.1938,171.1375 L228.0125,171.1375 L227.075,174.3375 L226.125,174.3375 L225.1375,171.1375 L225.0063,171.1375 L225.0063,171.1375 L224.8,170.8875 L224.8,170.7375 L224.8,170.5875 L225.0063,170.3375 L225.2375,170.3375 L225.9875,170.3375 L226.1938,170.3375 L226.4,170.5875 L226.4,170.7375 L226.4,170.8875 L226.1938,171.1375 L225.9875,171.1375 L225.9875,171.1375 L226.6,173.35 Z " fill="#000000"/><text fill="#000000" font-family="sans-serif" font-size="4.8" font-style="italic" lengthAdjust="spacing" textLength="32.4" x="231.4" y="170.9828">«value object»</text><text fill="#000000" font-family="sans-serif" font-size="4.8" lengthAdjust="spacing" textLength="23.6" x="235.8" y="177.0203">Username</text><line style="stroke:#A80036;stroke-width:0.6000000000000001;" x1="221" x2="263.8" y1="180.075" y2="180.075"/><!--MD5=[a3638c1e5b65d287ecad7f06f5c0f212]
class Role--><rect codeLine="62" fill="#F5F5DC" filter="url(#f1teodxzdyq6i9)" height="19.275" id="Role" style="stroke:#A80036;stroke-width:0.6000000000000001;" width="43.6" x="278.2" y="164"/><ellipse cx="284.2" cy="172.0375" fill="#FF8B40" rx="4.4" ry="4.4" style="stroke:#A80036;stroke-width:0.4000000000000001;"/><path d="M284.2,173.35 L284.8125,171.1375 L284.8125,171.1375 L284.6063,171.1375 L284.4,170.8875 L284.4,170.7375 L284.4,170.5875 L284.6063,170.3375 L284.8125,170.3375 L285.5625,170.3375 L285.7938,170.3375 L286,170.5875 L286,170.7375 L286,170.8875 L285.7938,171.1375 L285.7938,171.1375 L285.6125,171.1375 L284.675,174.3375 L283.725,174.3375 L282.7375,171.1375 L282.6063,171.1375 L282.6063,171.1375 L282.4,170.8875 L282.4,170.7375 L282.4,170.5875 L282.6063,170.3375 L282.8375,170.3375 L283.5875,170.3375 L283.7938,170.3375 L284,170.5875 L284,170.7375 L284,170.8875 L283.7938,171.1375 L283.5875,171.1375 L283.5875,171.1375 L284.2,173.35 Z " fill="#000000"/><text fill="#000000" font-family="sans-serif" font-size="4.8" font-style="italic" lengthAdjust="spacing" textLength="32.4" x="289" y="170.9828">«value object»</text><text fill="#000000" font-family="sans-serif" font-size="4.8" lengthAdjust="spacing" textLength="10.4" x="300" y="177.0203">Role</text><line style="stroke:#A80036;stroke-width:0.6000000000000001;" x1="278.6" x2="321.4" y1="180.075" y2="180.075"/><!--MD5=[5ab1f46e477a8163e64d30b24bef4255]
link User to Password--><path codeLine="66" d="M173.168,132.944 C172.888,141.628 172.544,153.524 172.4,164 C172.136,183.196 172.56,205.536 172.884,218.68 " fill="none" id="User-to-Password" style="stroke:#222222;stroke-width:0.4000000000000001;"/><polygon fill="#222222" points="172.936,220.708,174.4429,217.0681,172.8846,218.7087,171.244,217.1503,172.936,220.708" style="stroke:#222222;stroke-width:0.4000000000000001;"/><text fill="#000000" font-family="sans-serif" font-size="5.2" lengthAdjust="spacing" textLength="40.4" x="172.8" y="175.798">associated with a</text><text fill="#000000" font-family="sans-serif" font-size="5.2" lengthAdjust="spacing" textLength="2.8" x="169.7096" y="216.4109">1</text><!--MD5=[9f2010a726ff0d425086a1b968f0297b]
link User to Username--><path codeLine="67" d="M187.856,131.5 C199.824,140.648 216.812,153.636 228.636,162.68 " fill="none" id="User-to-Username" style="stroke:#222222;stroke-width:0.4000000000000001;"/><polygon fill="#222222" points="230.344,163.984,228.4595,160.5244,228.7564,162.7676,226.5132,163.0646,230.344,163.984" style="stroke:#222222;stroke-width:0.4000000000000001;"/><text fill="#000000" font-family="sans-serif" font-size="5.2" lengthAdjust="spacing" textLength="38.4" x="214.4" y="150.598">characterized by</text><text fill="#000000" font-family="sans-serif" font-size="5.2" lengthAdjust="spacing" textLength="2.8" x="224.0959" y="159.7064">1</text><!--MD5=[70c37dc9bfbc8656942103c36f1181e4]
link User to Role--><path codeLine="68" d="M187.82,123.424 C204.684,127.068 233.404,134.228 256.4,144.8 C267.02,149.68 278.04,156.884 286.344,162.812 " fill="none" id="User-to-Role" style="stroke:#222222;stroke-width:0.4000000000000001;"/><polygon fill="#222222" points="287.968,163.98,285.9855,160.5757,286.3463,162.8094,284.1126,163.1703,287.968,163.98" style="stroke:#222222;stroke-width:0.4000000000000001;"/><text fill="#000000" font-family="sans-serif" font-size="5.2" lengthAdjust="spacing" textLength="27.6" x="269.2" y="150.598">identified by</text><text fill="#000000" font-family="sans-serif" font-size="5.2" lengthAdjust="spacing" textLength="2.8" x="281.7261" y="159.7013">1</text><!--MD5=[3c1783733a7fb4bf7e92ef048b25a931]
link Client to ShopCar--><path codeLine="71" d="M90.812,38.98 C81.384,46.224 70.8,57.28 70.8,70.4 C70.8,70.4 70.8,70.4 70.8,174 C70.8,191.04 58.236,206.264 46.92,216.52 " fill="none" id="Client-to-ShopCar" style="stroke:#222222;stroke-width:0.4000000000000001;"/><polygon fill="#222222" points="45.404,217.872,49.1574,216.6753,46.8985,216.5429,47.0308,214.284,45.404,217.872" style="stroke:#222222;stroke-width:0.4000000000000001;"/><text fill="#000000" font-family="sans-serif" font-size="5.2" lengthAdjust="spacing" textLength="25.2" x="71.2" y="122.398">associated</text><text fill="#000000" font-family="sans-serif" font-size="5.2" lengthAdjust="spacing" textLength="2.8" x="45.8424" y="213.4326">1</text><!--MD5=[9a8dc34b38f85b9f3fcdb440f4bffc6a]
link Client to User--><path codeLine="72" d="M114.568,42.124 C127.22,58.776 149.716,88.372 162.98,105.828 " fill="none" id="Client-to-User" style="stroke:#222222;stroke-width:0.4000000000000001;"/><polygon fill="#222222" points="164.236,107.48,163.3319,103.6456,163.026,105.8876,160.784,105.5816,164.236,107.48" style="stroke:#222222;stroke-width:0.4000000000000001;"/><text fill="#000000" font-family="sans-serif" font-size="5.2" lengthAdjust="spacing" textLength="8.4" x="139.2" y="72.998">is a</text><text fill="#000000" font-family="sans-serif" font-size="5.2" lengthAdjust="spacing" textLength="2.8" x="159.2159" y="103.1974">1</text><!--MD5=[2b28faa0e4d1dfe94072149b4f8c56e2]
link Item to Product--><path codeLine="73" d="M110,244.44 C110,255.688 110,271.6 110,283.044 " fill="none" id="Item-to-Product" style="stroke:#222222;stroke-width:0.4000000000000001;"/><polygon fill="#222222" points="110,285.124,111.6,281.524,110,283.124,108.4,281.524,110,285.124" style="stroke:#222222;stroke-width:0.4000000000000001;"/><text fill="#000000" font-family="sans-serif" font-size="5.2" lengthAdjust="spacing" textLength="31.2" x="110.4" y="262.998">composed by</text><text fill="#000000" font-family="sans-serif" font-size="5.2" lengthAdjust="spacing" textLength="2.8" x="106.9113" y="280.8505">1</text><!--MD5=[2455d5c78657b48f8ef22148561c38af]
link ShopCar to Item--><path codeLine="74" d="M45.552,230.4 C58.112,230.4 75.552,230.4 89.124,230.4 " fill="none" id="ShopCar-to-Item" style="stroke:#222222;stroke-width:0.4000000000000001;"/><polygon fill="#222222" points="91.268,230.4,87.668,228.8,89.268,230.4,87.668,232,91.268,230.4" style="stroke:#222222;stroke-width:0.4000000000000001;"/><text fill="#000000" font-family="sans-serif" font-size="5.2" lengthAdjust="spacing" textLength="31.2" x="52.8" y="227.798">composed by</text><text fill="#000000" font-family="sans-serif" font-size="5.2" lengthAdjust="spacing" textLength="8" x="80.2134" y="236.2369">1..*</text><!--MD5=[ff6f7e6c179b97a3a11d359eab0adb49]
link Product to ShortDescription--><path codeLine="76" d="M110.98,310.496 C112.088,323.164 114.148,343.452 117.2,360.8 C118.528,368.348 120.524,376.732 122.188,383.236 " fill="none" id="Product-to-ShortDescription" style="stroke:#222222;stroke-width:0.4000000000000001;"/><polygon fill="#222222" points="122.696,385.192,123.3401,381.3055,122.1935,383.2562,120.2428,382.1095,122.696,385.192" style="stroke:#222222;stroke-width:0.4000000000000001;"/><text fill="#000000" font-family="sans-serif" font-size="5.2" lengthAdjust="spacing" textLength="38.4" x="117.6" y="353.398">characterized by</text><text fill="#000000" font-family="sans-serif" font-size="5.2" lengthAdjust="spacing" textLength="2.8" x="118.8956" y="380.9164">1</text><!--MD5=[d5e50d5e9f373aebb7ed82ef75d5b71c]
link Product to UniqueInternalCode--><path codeLine="77" d="M96.3,310.46 C88.036,318.552 77.92,329.804 71.6,341.6 C64.476,354.9 60.8,372.06 59.036,383.148 " fill="none" id="Product-to-UniqueInternalCode" style="stroke:#222222;stroke-width:0.4000000000000001;"/><polygon fill="#222222" points="58.728,385.144,60.8546,381.8278,59.0308,383.1671,57.6915,381.3432,58.728,385.144" style="stroke:#222222;stroke-width:0.4000000000000001;"/><text fill="#000000" font-family="sans-serif" font-size="5.2" lengthAdjust="spacing" textLength="38.4" x="72" y="353.398">characterized by</text><text fill="#000000" font-family="sans-serif" font-size="5.2" lengthAdjust="spacing" textLength="2.8" x="55.8583" y="380.8561">1</text><!--MD5=[7460415386b109d24f9c7a92799907f2]
link Product to PriceWithoutVAT--><path codeLine="78" d="M124.964,308.34 C138.536,317.54 158.46,331.048 172.176,340.344 " fill="none" id="Product-to-PriceWithoutVAT" style="stroke:#222222;stroke-width:0.4000000000000001;"/><polygon fill="#222222" points="173.984,341.572,171.8973,338.2305,172.327,340.4521,170.1054,340.8818,173.984,341.572" style="stroke:#222222;stroke-width:0.4000000000000001;"/><text fill="#000000" font-family="sans-serif" font-size="5.2" lengthAdjust="spacing" textLength="25.2" x="156" y="328.198">associated</text><text fill="#000000" font-family="sans-serif" font-size="5.2" lengthAdjust="spacing" textLength="2.8" x="167.3362" y="337.2913">1</text><!--MD5=[7154c83e206860b960a0126537107a29]
@startuml
'https://plantuml.com/class-diagram

skinparam classAttributeIconSize 0
hide empty attributes
skinparam classBackgroundColor beige
skinparam ArrowColor #222222



package "<<aggregate>> Client" {
    entity Client
}

entity Client <<entity>> <<root>> {

}


entity Client <<entity>> <<root>> {

}
package "<<aggregate>> ShopCar"{
    entity ShopCar
    entity Item
}

entity ShopCar <<entity>> <<root>>{

}
entity Item <<entity>> {
    -productQuantity

}
package "<<aggregate>> Product"{
     entity Product
     class UniqueInternalCode
     class ShortDescription
     class PriceWithoutVAT
}

entity Product <<entity>> <<root>> {

}

package "<<aggregate>> User" {
    entity User
    class Password
    class Username
    class Role
}

class UniqueInternalCode <<(V,#FF8B40) value object>> {}
class ShortDescription <<(V,#FF8B40) value object>> {}
class PriceWithoutVAT <<(V,#FF8B40) value object>> {}


entity User <<entity>> <<root>> {

}

class Password <<(V,#FF8B40) value object>> {}
class Role <<(V,#FF8B40) value object>> {}
class Username <<(V,#FF8B40) value object>> {}


User - - -> "1" Password : associated with a
User - -> "1" Username : characterized by
User - -> "1" Role : identified by


Client - - - - -> "1" ShopCar : associated
Client - - -> "1" User : is a
Item - -> "1" Product : composed by
ShopCar -> "1..*" Item : composed by

Product - - -> "1" ShortDescription: characterized by
Product - - -> "1" UniqueInternalCode: characterized by
Product - -> "1" PriceWithoutVAT: associated


@enduml

@startuml

skinparam classAttributeIconSize 0
hide empty attributes
skinparam classBackgroundColor beige
skinparam ArrowColor #222222



package "<<aggregate>> Client" {
    entity Client
}

entity Client <<entity>> <<root>> {

}


entity Client <<entity>> <<root>> {

}
package "<<aggregate>> ShopCar"{
    entity ShopCar
    entity Item
}

entity ShopCar <<entity>> <<root>>{

}
entity Item <<entity>> {
    -productQuantity

}
package "<<aggregate>> Product"{
     entity Product
     class UniqueInternalCode
     class ShortDescription
     class PriceWithoutVAT
}

entity Product <<entity>> <<root>> {

}

package "<<aggregate>> User" {
    entity User
    class Password
    class Username
    class Role
}

class UniqueInternalCode <<(V,#FF8B40) value object>> {}
class ShortDescription <<(V,#FF8B40) value object>> {}
class PriceWithoutVAT <<(V,#FF8B40) value object>> {}


entity User <<entity>> <<root>> {

}

class Password <<(V,#FF8B40) value object>> {}
class Role <<(V,#FF8B40) value object>> {}
class Username <<(V,#FF8B40) value object>> {}


User - - -> "1" Password : associated with a
User - -> "1" Username : characterized by
User - -> "1" Role : identified by


Client - - - - -> "1" ShopCar : associated
Client - - -> "1" User : is a
Item - -> "1" Product : composed by
ShopCar -> "1..*" Item : composed by

Product - - -> "1" ShortDescription: characterized by
Product - - -> "1" UniqueInternalCode: characterized by
Product - -> "1" PriceWithoutVAT: associated


@enduml

PlantUML version 1.2022.1(Tue Feb 01 18:19:58 GMT 2022)
(GPL source distribution)
Java Runtime: OpenJDK Runtime Environment
JVM: Dynamic Code Evolution 64-Bit Server VM
Default Encoding: Cp1252
Language: pt
Country: PT
--></g></svg>