<?xml version="1.0" encoding="UTF-8" standalone="no"?><svg xmlns="http://www.w3.org/2000/svg" xmlns:xlink="http://www.w3.org/1999/xlink" contentScriptType="application/ecmascript" contentStyleType="text/css" height="799px" preserveAspectRatio="none" style="width:838px;height:799px;background:#FFFFFF;" version="1.1" viewBox="0 0 838 799" width="838px" zoomAndPan="magnify"><defs><filter height="300%" id="fj4xfyylmfs42" width="300%" x="-1" y="-1"><feGaussianBlur result="blurOut" stdDeviation="2.0"/><feColorMatrix in="blurOut" result="blurOut2" type="matrix" values="0 0 0 0 0 0 0 0 0 0 0 0 0 0 0 0 0 0 .4 0"/><feOffset dx="4.0" dy="4.0" in="blurOut2" result="blurOut3"/><feBlend in="SourceGraphic" in2="blurOut3" mode="normal"/></filter></defs><g><!--MD5=[20e996825fabf2618e164db4892593a3]
cluster <<aggregate>> Client--><polygon fill="#FFFFFF" filter="url(#fj4xfyylmfs42)" points="209,6,364,6,371,29.6094,374,29.6094,374,121,209,121,209,6" style="stroke:#000000;stroke-width:1.5;"/><line style="stroke:#000000;stroke-width:1.5;" x1="209" x2="371" y1="29.6094" y2="29.6094"/><text fill="#000000" font-family="sans-serif" font-size="14" font-weight="bold" lengthAdjust="spacing" textLength="149" x="213" y="22.5332">&lt;&lt;aggregate&gt;&gt; Client</text><!--MD5=[e6413e74525275476b562053817865dc]
cluster <<aggregate>> ShopCar--><polygon fill="#FFFFFF" filter="url(#fj4xfyylmfs42)" points="16,505,190,505,197,528.6094,338,528.6094,338,627,16,627,16,505" style="stroke:#000000;stroke-width:1.5;"/><line style="stroke:#000000;stroke-width:1.5;" x1="16" x2="197" y1="528.6094" y2="528.6094"/><text fill="#000000" font-family="sans-serif" font-size="14" font-weight="bold" lengthAdjust="spacing" textLength="168" x="20" y="521.5332">&lt;&lt;aggregate&gt;&gt; ShopCar</text><!--MD5=[cd1e467dd42714edd782c72995bbc617]
cluster <<aggregate>> Product--><polygon fill="#FFFFFF" filter="url(#fj4xfyylmfs42)" points="186,677,355,677,362,700.6094,365,700.6094,365,792,186,792,186,677" style="stroke:#000000;stroke-width:1.5;"/><line style="stroke:#000000;stroke-width:1.5;" x1="186" x2="362" y1="700.6094" y2="700.6094"/><text fill="#000000" font-family="sans-serif" font-size="14" font-weight="bold" lengthAdjust="spacing" textLength="163" x="190" y="693.5332">&lt;&lt;aggregate&gt;&gt; Product</text><!--MD5=[597c9b6a35d8038d4b40fd8870ba90aa]
cluster <<aggregate>> User--><polygon fill="#FFFFFF" filter="url(#fj4xfyylmfs42)" points="362,233,509,233,516,256.6094,821,256.6094,821,616,362,616,362,233" style="stroke:#000000;stroke-width:1.5;"/><line style="stroke:#000000;stroke-width:1.5;" x1="362" x2="516" y1="256.6094" y2="256.6094"/><text fill="#000000" font-family="sans-serif" font-size="14" font-weight="bold" lengthAdjust="spacing" textLength="141" x="366" y="249.5332">&lt;&lt;aggregate&gt;&gt; User</text><!--MD5=[ed6624c6556d5e7b1bd23032162d20b7]
class Client--><rect codeLine="19" fill="#F5F5DC" filter="url(#fj4xfyylmfs42)" height="63.2813" id="Client" style="stroke:#A80036;stroke-width:1.5;" width="71" x="227.5" y="42"/><ellipse cx="242.5" cy="69.6406" fill="#ADD1B2" rx="11" ry="11" style="stroke:#A80036;stroke-width:1.0;"/><path d="M241,70.6406 L241,72.6406 L245,72.6406 L245,71.6406 L245,71.1563 L245.625,70.6406 L246,70.6406 L246.375,70.6406 L247,71.1563 L247,71.6406 L247,74.6406 L239,74.6406 L238.5156,74.6406 L238,74.0156 L238,73.6406 L238,73.2656 L238.5156,72.6406 L239,72.6406 L239,72.6406 L239,66.6406 L239,66.6406 L238.5156,66.6406 L238,66.0156 L238,65.6406 L238,65.2656 L238.5156,64.6406 L239,64.6406 L247,64.6406 L247,67.6406 L247,68.125 L246.375,68.6406 L246,68.6406 L245.625,68.6406 L245,68.125 L245,67.6406 L245,66.6406 L241,66.6406 L241,68.6406 L242,68.6406 L242,68.1563 L242,68.1563 L242.625,67.6406 L243,67.6406 L243.375,67.6406 L244,68.1563 L244,68.6406 L244,70.6406 L244,71.125 L243.375,71.6406 L243.375,71.6406 L243,71.6406 L242.625,71.6406 L242,71.125 L242,71.125 L242,70.6406 L241,70.6406 Z " fill="#000000"/><text fill="#000000" font-family="sans-serif" font-size="12" font-style="italic" lengthAdjust="spacing" textLength="43" x="254.5" y="59.457">«entity»</text><text fill="#000000" font-family="sans-serif" font-size="12" font-style="italic" lengthAdjust="spacing" textLength="35" x="258.5" y="74.5508">«root»</text><text fill="#000000" font-family="sans-serif" font-size="12" lengthAdjust="spacing" textLength="32" x="260" y="89.6445">Client</text><line style="stroke:#A80036;stroke-width:1.5;" x1="228.5" x2="297.5" y1="97.2813" y2="97.2813"/><!--MD5=[e59460fd296ba65972a119da719922bf]
class ShopCar--><rect codeLine="27" fill="#F5F5DC" filter="url(#fj4xfyylmfs42)" height="63.2813" id="ShopCar" style="stroke:#A80036;stroke-width:1.5;" width="81" x="32.5" y="544.5"/><ellipse cx="47.5" cy="572.1406" fill="#ADD1B2" rx="11" ry="11" style="stroke:#A80036;stroke-width:1.0;"/><path d="M46,573.1406 L46,575.1406 L50,575.1406 L50,574.1406 L50,573.6563 L50.625,573.1406 L51,573.1406 L51.375,573.1406 L52,573.6563 L52,574.1406 L52,577.1406 L44,577.1406 L43.5156,577.1406 L43,576.5156 L43,576.1406 L43,575.7656 L43.5156,575.1406 L44,575.1406 L44,575.1406 L44,569.1406 L44,569.1406 L43.5156,569.1406 L43,568.5156 L43,568.1406 L43,567.7656 L43.5156,567.1406 L44,567.1406 L52,567.1406 L52,570.1406 L52,570.625 L51.375,571.1406 L51,571.1406 L50.625,571.1406 L50,570.625 L50,570.1406 L50,569.1406 L46,569.1406 L46,571.1406 L47,571.1406 L47,570.6563 L47,570.6563 L47.625,570.1406 L48,570.1406 L48.375,570.1406 L49,570.6563 L49,571.1406 L49,573.1406 L49,573.625 L48.375,574.1406 L48.375,574.1406 L48,574.1406 L47.625,574.1406 L47,573.625 L47,573.625 L47,573.1406 L46,573.1406 Z " fill="#000000"/><text fill="#000000" font-family="sans-serif" font-size="12" font-style="italic" lengthAdjust="spacing" textLength="43" x="64.5" y="561.957">«entity»</text><text fill="#000000" font-family="sans-serif" font-size="12" font-style="italic" lengthAdjust="spacing" textLength="35" x="68.5" y="577.0508">«root»</text><text fill="#000000" font-family="sans-serif" font-size="12" lengthAdjust="spacing" textLength="49" x="61.5" y="592.1445">ShopCar</text><line style="stroke:#A80036;stroke-width:1.5;" x1="33.5" x2="112.5" y1="599.7813" y2="599.7813"/><!--MD5=[44a1b4afaef76c16e6c9ec4990ad0c8d]
class Item--><rect codeLine="30" fill="#F5F5DC" filter="url(#fj4xfyylmfs42)" height="70.0234" id="Item" style="stroke:#A80036;stroke-width:1.5;" width="93" x="228.5" y="541"/><ellipse cx="253.4" cy="561.0938" fill="#ADD1B2" rx="11" ry="11" style="stroke:#A80036;stroke-width:1.0;"/><path d="M251.9,562.0938 L251.9,564.0938 L255.9,564.0938 L255.9,563.0938 L255.9,562.6094 L256.525,562.0938 L256.9,562.0938 L257.275,562.0938 L257.9,562.6094 L257.9,563.0938 L257.9,566.0938 L249.9,566.0938 L249.4156,566.0938 L248.9,565.4688 L248.9,565.0938 L248.9,564.7188 L249.4156,564.0938 L249.9,564.0938 L249.9,564.0938 L249.9,558.0938 L249.9,558.0938 L249.4156,558.0938 L248.9,557.4688 L248.9,557.0938 L248.9,556.7188 L249.4156,556.0938 L249.9,556.0938 L257.9,556.0938 L257.9,559.0938 L257.9,559.5781 L257.275,560.0938 L256.9,560.0938 L256.525,560.0938 L255.9,559.5781 L255.9,559.0938 L255.9,558.0938 L251.9,558.0938 L251.9,560.0938 L252.9,560.0938 L252.9,559.6094 L252.9,559.6094 L253.525,559.0938 L253.9,559.0938 L254.275,559.0938 L254.9,559.6094 L254.9,560.0938 L254.9,562.0938 L254.9,562.5781 L254.275,563.0938 L254.275,563.0938 L253.9,563.0938 L253.525,563.0938 L252.9,562.5781 L252.9,562.5781 L252.9,562.0938 L251.9,562.0938 Z " fill="#000000"/><text fill="#000000" font-family="sans-serif" font-size="12" font-style="italic" lengthAdjust="spacing" textLength="43" x="267.6" y="558.457">«entity»</text><text fill="#000000" font-family="sans-serif" font-size="12" lengthAdjust="spacing" textLength="24" x="277.1" y="573.5508">Item</text><line style="stroke:#A80036;stroke-width:1.5;" x1="229.5" x2="320.5" y1="581.1875" y2="581.1875"/><text fill="#000000" font-family="sans-serif" font-size="11" lengthAdjust="spacing" textLength="81" x="234.5" y="596.6064">-productQuantity</text><line style="stroke:#A80036;stroke-width:1.5;" x1="229.5" x2="320.5" y1="603.0234" y2="603.0234"/><!--MD5=[72136138052d025cffdce3c22fbd185f]
class Product--><rect codeLine="38" fill="#F5F5DC" filter="url(#fj4xfyylmfs42)" height="63.2813" id="Product" style="stroke:#A80036;stroke-width:1.5;" width="74" x="238" y="713"/><ellipse cx="253" cy="740.6406" fill="#ADD1B2" rx="11" ry="11" style="stroke:#A80036;stroke-width:1.0;"/><path d="M251.5,741.6406 L251.5,743.6406 L255.5,743.6406 L255.5,742.6406 L255.5,742.1563 L256.125,741.6406 L256.5,741.6406 L256.875,741.6406 L257.5,742.1563 L257.5,742.6406 L257.5,745.6406 L249.5,745.6406 L249.0156,745.6406 L248.5,745.0156 L248.5,744.6406 L248.5,744.2656 L249.0156,743.6406 L249.5,743.6406 L249.5,743.6406 L249.5,737.6406 L249.5,737.6406 L249.0156,737.6406 L248.5,737.0156 L248.5,736.6406 L248.5,736.2656 L249.0156,735.6406 L249.5,735.6406 L257.5,735.6406 L257.5,738.6406 L257.5,739.125 L256.875,739.6406 L256.5,739.6406 L256.125,739.6406 L255.5,739.125 L255.5,738.6406 L255.5,737.6406 L251.5,737.6406 L251.5,739.6406 L252.5,739.6406 L252.5,739.1563 L252.5,739.1563 L253.125,738.6406 L253.5,738.6406 L253.875,738.6406 L254.5,739.1563 L254.5,739.6406 L254.5,741.6406 L254.5,742.125 L253.875,742.6406 L253.875,742.6406 L253.5,742.6406 L253.125,742.6406 L252.5,742.125 L252.5,742.125 L252.5,741.6406 L251.5,741.6406 Z " fill="#000000"/><text fill="#000000" font-family="sans-serif" font-size="12" font-style="italic" lengthAdjust="spacing" textLength="43" x="266.5" y="730.457">«entity»</text><text fill="#000000" font-family="sans-serif" font-size="12" font-style="italic" lengthAdjust="spacing" textLength="35" x="270.5" y="745.5508">«root»</text><text fill="#000000" font-family="sans-serif" font-size="12" lengthAdjust="spacing" textLength="42" x="267" y="760.6445">Product</text><line style="stroke:#A80036;stroke-width:1.5;" x1="239" x2="311" y1="768.2813" y2="768.2813"/><!--MD5=[3fd616f346a44cd59a91eb10b19e157c]
class User--><rect codeLine="49" fill="#F5F5DC" filter="url(#fj4xfyylmfs42)" height="63.2813" id="User" style="stroke:#A80036;stroke-width:1.5;" width="71" x="398.5" y="269"/><ellipse cx="413.5" cy="296.6406" fill="#ADD1B2" rx="11" ry="11" style="stroke:#A80036;stroke-width:1.0;"/><path d="M412,297.6406 L412,299.6406 L416,299.6406 L416,298.6406 L416,298.1563 L416.625,297.6406 L417,297.6406 L417.375,297.6406 L418,298.1563 L418,298.6406 L418,301.6406 L410,301.6406 L409.5156,301.6406 L409,301.0156 L409,300.6406 L409,300.2656 L409.5156,299.6406 L410,299.6406 L410,299.6406 L410,293.6406 L410,293.6406 L409.5156,293.6406 L409,293.0156 L409,292.6406 L409,292.2656 L409.5156,291.6406 L410,291.6406 L418,291.6406 L418,294.6406 L418,295.125 L417.375,295.6406 L417,295.6406 L416.625,295.6406 L416,295.125 L416,294.6406 L416,293.6406 L412,293.6406 L412,295.6406 L413,295.6406 L413,295.1563 L413,295.1563 L413.625,294.6406 L414,294.6406 L414.375,294.6406 L415,295.1563 L415,295.6406 L415,297.6406 L415,298.125 L414.375,298.6406 L414.375,298.6406 L414,298.6406 L413.625,298.6406 L413,298.125 L413,298.125 L413,297.6406 L412,297.6406 Z " fill="#000000"/><text fill="#000000" font-family="sans-serif" font-size="12" font-style="italic" lengthAdjust="spacing" textLength="43" x="425.5" y="286.457">«entity»</text><text fill="#000000" font-family="sans-serif" font-size="12" font-style="italic" lengthAdjust="spacing" textLength="35" x="429.5" y="301.5508">«root»</text><text fill="#000000" font-family="sans-serif" font-size="12" lengthAdjust="spacing" textLength="27" x="433.5" y="316.6445">User</text><line style="stroke:#A80036;stroke-width:1.5;" x1="399.5" x2="468.5" y1="324.2813" y2="324.2813"/><!--MD5=[2f01b1126ff33a0669651ec2488a5ef9]
class Password--><rect codeLine="53" fill="#F5F5DC" filter="url(#fj4xfyylmfs42)" height="48.1875" id="Password" style="stroke:#A80036;stroke-width:1.5;" width="109" x="378.5" y="552"/><ellipse cx="393.5" cy="572.0938" fill="#FF8B40" rx="11" ry="11" style="stroke:#A80036;stroke-width:1.0;"/><path d="M393.5,575.375 L395.0313,569.8438 L395.0313,569.8438 L394.5156,569.8438 L394,569.2188 L394,568.8438 L394,568.4688 L394.5156,567.8438 L395.0313,567.8438 L396.9063,567.8438 L397.4844,567.8438 L398,568.4688 L398,568.8438 L398,569.2188 L397.4844,569.8438 L397.4844,569.8438 L397.0313,569.8438 L394.6875,577.8438 L392.3125,577.8438 L389.8438,569.8438 L389.5156,569.8438 L389.5156,569.8438 L389,569.2188 L389,568.8438 L389,568.4688 L389.5156,567.8438 L390.0938,567.8438 L391.9688,567.8438 L392.4844,567.8438 L393,568.4688 L393,568.8438 L393,569.2188 L392.4844,569.8438 L391.9688,569.8438 L391.9688,569.8438 L393.5,575.375 Z " fill="#000000"/><text fill="#000000" font-family="sans-serif" font-size="12" font-style="italic" lengthAdjust="spacing" textLength="81" x="405.5" y="569.457">«value object»</text><text fill="#000000" font-family="sans-serif" font-size="12" lengthAdjust="spacing" textLength="56" x="418" y="584.5508">Password</text><line style="stroke:#A80036;stroke-width:1.5;" x1="379.5" x2="486.5" y1="592.1875" y2="592.1875"/><!--MD5=[f694847fc702e0723b49e5500a5c29a4]
class Username--><rect codeLine="55" fill="#F5F5DC" filter="url(#fj4xfyylmfs42)" height="48.1875" id="Username" style="stroke:#A80036;stroke-width:1.5;" width="109" x="551.5" y="410"/><ellipse cx="566.5" cy="430.0938" fill="#FF8B40" rx="11" ry="11" style="stroke:#A80036;stroke-width:1.0;"/><path d="M566.5,433.375 L568.0313,427.8438 L568.0313,427.8438 L567.5156,427.8438 L567,427.2188 L567,426.8438 L567,426.4688 L567.5156,425.8438 L568.0313,425.8438 L569.9063,425.8438 L570.4844,425.8438 L571,426.4688 L571,426.8438 L571,427.2188 L570.4844,427.8438 L570.4844,427.8438 L570.0313,427.8438 L567.6875,435.8438 L565.3125,435.8438 L562.8438,427.8438 L562.5156,427.8438 L562.5156,427.8438 L562,427.2188 L562,426.8438 L562,426.4688 L562.5156,425.8438 L563.0938,425.8438 L564.9688,425.8438 L565.4844,425.8438 L566,426.4688 L566,426.8438 L566,427.2188 L565.4844,427.8438 L564.9688,427.8438 L564.9688,427.8438 L566.5,433.375 Z " fill="#000000"/><text fill="#000000" font-family="sans-serif" font-size="12" font-style="italic" lengthAdjust="spacing" textLength="81" x="578.5" y="427.457">«value object»</text><text fill="#000000" font-family="sans-serif" font-size="12" lengthAdjust="spacing" textLength="59" x="589.5" y="442.5508">Username</text><line style="stroke:#A80036;stroke-width:1.5;" x1="552.5" x2="659.5" y1="450.1875" y2="450.1875"/><!--MD5=[a3638c1e5b65d287ecad7f06f5c0f212]
class Role--><rect codeLine="54" fill="#F5F5DC" filter="url(#fj4xfyylmfs42)" height="48.1875" id="Role" style="stroke:#A80036;stroke-width:1.5;" width="109" x="695.5" y="410"/><ellipse cx="710.5" cy="430.0938" fill="#FF8B40" rx="11" ry="11" style="stroke:#A80036;stroke-width:1.0;"/><path d="M710.5,433.375 L712.0313,427.8438 L712.0313,427.8438 L711.5156,427.8438 L711,427.2188 L711,426.8438 L711,426.4688 L711.5156,425.8438 L712.0313,425.8438 L713.9063,425.8438 L714.4844,425.8438 L715,426.4688 L715,426.8438 L715,427.2188 L714.4844,427.8438 L714.4844,427.8438 L714.0313,427.8438 L711.6875,435.8438 L709.3125,435.8438 L706.8438,427.8438 L706.5156,427.8438 L706.5156,427.8438 L706,427.2188 L706,426.8438 L706,426.4688 L706.5156,425.8438 L707.0938,425.8438 L708.9688,425.8438 L709.4844,425.8438 L710,426.4688 L710,426.8438 L710,427.2188 L709.4844,427.8438 L708.9688,427.8438 L708.9688,427.8438 L710.5,433.375 Z " fill="#000000"/><text fill="#000000" font-family="sans-serif" font-size="12" font-style="italic" lengthAdjust="spacing" textLength="81" x="722.5" y="427.457">«value object»</text><text fill="#000000" font-family="sans-serif" font-size="12" lengthAdjust="spacing" textLength="26" x="750" y="442.5508">Role</text><line style="stroke:#A80036;stroke-width:1.5;" x1="696.5" x2="803.5" y1="450.1875" y2="450.1875"/><!--MD5=[5ab1f46e477a8163e64d30b24bef4255]
link User to Password--><path codeLine="58" d="M432.92,332.36 C432.22,354.07 431.36,383.81 431,410 C430.34,457.99 431.4,513.84 432.21,546.7 " fill="none" id="User-to-Password" style="stroke:#222222;stroke-width:1.0;"/><polygon fill="#222222" points="432.34,551.77,436.1073,542.6702,432.2115,546.7717,428.11,542.8758,432.34,551.77" style="stroke:#222222;stroke-width:1.0;"/><text fill="#000000" font-family="sans-serif" font-size="13" lengthAdjust="spacing" textLength="101" x="432" y="439.4951">associated with a</text><text fill="#000000" font-family="sans-serif" font-size="13" lengthAdjust="spacing" textLength="7" x="424.274" y="541.0272">1</text><!--MD5=[9f2010a726ff0d425086a1b968f0297b]
link User to Username--><path codeLine="59" d="M469.64,328.75 C499.56,351.62 542.03,384.09 571.59,406.7 " fill="none" id="User-to-Username" style="stroke:#222222;stroke-width:1.0;"/><polygon fill="#222222" points="575.86,409.96,571.1487,401.3111,571.891,406.919,566.2831,407.6614,575.86,409.96" style="stroke:#222222;stroke-width:1.0;"/><text fill="#000000" font-family="sans-serif" font-size="13" lengthAdjust="spacing" textLength="96" x="536" y="376.4951">characterized by</text><text fill="#000000" font-family="sans-serif" font-size="13" lengthAdjust="spacing" textLength="7" x="560.2398" y="399.2659">1</text><!--MD5=[70c37dc9bfbc8656942103c36f1181e4]
link User to Role--><path codeLine="60" d="M469.55,308.56 C511.71,317.67 583.51,335.57 641,362 C667.55,374.2 695.1,392.21 715.86,407.03 " fill="none" id="User-to-Role" style="stroke:#222222;stroke-width:1.0;"/><polygon fill="#222222" points="719.92,409.95,714.9637,401.4391,715.8659,407.0236,710.2814,407.9258,719.92,409.95" style="stroke:#222222;stroke-width:1.0;"/><text fill="#000000" font-family="sans-serif" font-size="13" lengthAdjust="spacing" textLength="69" x="673" y="376.4951">identified by</text><text fill="#000000" font-family="sans-serif" font-size="13" lengthAdjust="spacing" textLength="7" x="704.3151" y="399.2533">1</text><!--MD5=[3c1783733a7fb4bf7e92ef048b25a931]
link Client to ShopCar--><path codeLine="63" d="M227.03,97.45 C203.46,115.56 177,143.2 177,176 C177,176 177,176 177,435 C177,477.6 145.59,515.66 117.3,541.3 " fill="none" id="Client-to-ShopCar" style="stroke:#222222;stroke-width:1.0;"/><polygon fill="#222222" points="113.51,544.68,122.8934,541.6881,117.2463,541.3573,117.5771,535.7101,113.51,544.68" style="stroke:#222222;stroke-width:1.0;"/><text fill="#000000" font-family="sans-serif" font-size="13" lengthAdjust="spacing" textLength="63" x="178" y="305.9951">associated</text><text fill="#000000" font-family="sans-serif" font-size="13" lengthAdjust="spacing" textLength="7" x="114.6059" y="533.5816">1</text><!--MD5=[9a8dc34b38f85b9f3fcdb440f4bffc6a]
link Client to User--><path codeLine="64" d="M286.42,105.31 C318.05,146.94 374.29,220.93 407.45,264.57 " fill="none" id="Client-to-User" style="stroke:#222222;stroke-width:1.0;"/><polygon fill="#222222" points="410.59,268.7,408.3298,259.114,407.5649,264.7189,401.96,263.9541,410.59,268.7" style="stroke:#222222;stroke-width:1.0;"/><text fill="#000000" font-family="sans-serif" font-size="13" lengthAdjust="spacing" textLength="21" x="348" y="182.4951">is a</text><text fill="#000000" font-family="sans-serif" font-size="13" lengthAdjust="spacing" textLength="7" x="398.0398" y="257.9936">1</text><!--MD5=[2b28faa0e4d1dfe94072149b4f8c56e2]
link Item to Product--><path codeLine="65" d="M275,611.1 C275,639.22 275,679 275,707.61 " fill="none" id="Item-to-Product" style="stroke:#222222;stroke-width:1.0;"/><polygon fill="#222222" points="275,712.81,279,703.81,275,707.81,271,703.81,275,712.81" style="stroke:#222222;stroke-width:1.0;"/><text fill="#000000" font-family="sans-serif" font-size="13" lengthAdjust="spacing" textLength="78" x="276" y="657.4951">composed by</text><text fill="#000000" font-family="sans-serif" font-size="13" lengthAdjust="spacing" textLength="7" x="267.2781" y="702.1263">1</text><!--MD5=[2455d5c78657b48f8ef22148561c38af]
link ShopCar to Item--><path codeLine="66" d="M113.88,576 C145.28,576 188.88,576 222.81,576 " fill="none" id="ShopCar-to-Item" style="stroke:#222222;stroke-width:1.0;"/><polygon fill="#222222" points="228.17,576,219.17,572,223.17,576,219.17,580,228.17,576" style="stroke:#222222;stroke-width:1.0;"/><text fill="#000000" font-family="sans-serif" font-size="13" lengthAdjust="spacing" textLength="78" x="132" y="569.4951">composed by</text><text fill="#000000" font-family="sans-serif" font-size="13" lengthAdjust="spacing" textLength="20" x="200.5335" y="590.5922">1..*</text><!--MD5=[b19963db39a6269ef81c6a2b1ee82572]
@startuml
'https://plantuml.com/class-diagram

skinparam classAttributeIconSize 0
hide empty attributes
skinparam classBackgroundColor beige
skinparam ArrowColor #222222



package "<<aggregate>> Client" {
    entity Client
}

entity Client <<entity>> <<root>> {

}


entity Client <<entity>> <<root>> {

}
package "<<aggregate>> ShopCar"{
    entity ShopCar
    entity Item
}

entity ShopCar <<entity>> <<root>>{

}
entity Item <<entity>> {
    -productQuantity

}
package "<<aggregate>> Product"{
     entity Product
}

entity Product <<entity>> <<root>> {

}

package "<<aggregate>> User" {
    entity User
    class Password
    class Username
    class Role
}

entity User <<entity>> <<root>> {

}

class Password <<(V,#FF8B40) value object>> {}
class Role <<(V,#FF8B40) value object>> {}
class Username <<(V,#FF8B40) value object>> {}


User - - -> "1" Password : associated with a
User - -> "1" Username : characterized by
User - -> "1" Role : identified by


Client - - - - -> "1" ShopCar : associated
Client - - -> "1" User : is a
Item - -> "1" Product : composed by
ShopCar -> "1..*" Item : composed by


@enduml

@startuml

skinparam classAttributeIconSize 0
hide empty attributes
skinparam classBackgroundColor beige
skinparam ArrowColor #222222



package "<<aggregate>> Client" {
    entity Client
}

entity Client <<entity>> <<root>> {

}


entity Client <<entity>> <<root>> {

}
package "<<aggregate>> ShopCar"{
    entity ShopCar
    entity Item
}

entity ShopCar <<entity>> <<root>>{

}
entity Item <<entity>> {
    -productQuantity

}
package "<<aggregate>> Product"{
     entity Product
}

entity Product <<entity>> <<root>> {

}

package "<<aggregate>> User" {
    entity User
    class Password
    class Username
    class Role
}

entity User <<entity>> <<root>> {

}

class Password <<(V,#FF8B40) value object>> {}
class Role <<(V,#FF8B40) value object>> {}
class Username <<(V,#FF8B40) value object>> {}


User - - -> "1" Password : associated with a
User - -> "1" Username : characterized by
User - -> "1" Role : identified by


Client - - - - -> "1" ShopCar : associated
Client - - -> "1" User : is a
Item - -> "1" Product : composed by
ShopCar -> "1..*" Item : composed by


@enduml

PlantUML version 1.2022.1(Tue Feb 01 18:19:58 GMT 2022)
(GPL source distribution)
Java Runtime: OpenJDK Runtime Environment
JVM: Dynamic Code Evolution 64-Bit Server VM
Default Encoding: Cp1252
Language: pt
Country: PT
--></g></svg>