<?xml version="1.0" encoding="UTF-8" standalone="no"?><svg xmlns="http://www.w3.org/2000/svg" xmlns:xlink="http://www.w3.org/1999/xlink" contentScriptType="application/ecmascript" contentStyleType="text/css" height="740px" preserveAspectRatio="none" style="width:1520px;height:740px;background:#FFFFFF;" version="1.1" viewBox="0 0 1520 740" width="1520px" zoomAndPan="magnify"><defs><filter height="300%" id="fieqyrxx9t6d1" width="300%" x="-1" y="-1"><feGaussianBlur result="blurOut" stdDeviation="1.6000000000000003"/><feColorMatrix in="blurOut" result="blurOut2" type="matrix" values="0 0 0 0 0 0 0 0 0 0 0 0 0 0 0 0 0 0 .4 0"/><feOffset dx="3.2000000000000006" dy="3.2000000000000006" in="blurOut2" result="blurOut3"/><feBlend in="SourceGraphic" in2="blurOut3" mode="normal"/></filter></defs><g><rect fill="#FFFFFF" filter="url(#fieqyrxx9t6d1)" height="574.75" style="stroke:#A80036;stroke-width:0.8000000000000002;" width="8" x="16.8" y="79.6875"/><rect fill="#FFFFFF" filter="url(#fieqyrxx9t6d1)" height="398.1" style="stroke:#A80036;stroke-width:0.8000000000000002;" width="8" x="264" y="110.65"/><rect fill="#FFFFFF" filter="url(#fieqyrxx9t6d1)" height="24.2813" style="stroke:#A80036;stroke-width:0.8000000000000002;" width="8" x="264" y="533.0313"/><rect fill="#FFFFFF" filter="url(#fieqyrxx9t6d1)" height="24.2813" style="stroke:#A80036;stroke-width:0.8000000000000002;" width="8" x="264" y="581.5938"/><rect fill="#FFFFFF" filter="url(#fieqyrxx9t6d1)" height="24.2813" style="stroke:#A80036;stroke-width:0.8000000000000002;" width="8" x="264" y="630.1563"/><rect fill="#FFFFFF" filter="url(#fieqyrxx9t6d1)" height="349.5375" style="stroke:#A80036;stroke-width:0.8000000000000002;" width="8" x="455.2" y="134.9313"/><rect fill="#FFFFFF" filter="url(#fieqyrxx9t6d1)" height="300.975" style="stroke:#A80036;stroke-width:0.8000000000000002;" width="8" x="631.2" y="159.2125"/><rect fill="#FFFFFF" filter="url(#fieqyrxx9t6d1)" height="12" style="stroke:#A80036;stroke-width:0.8000000000000002;" width="8" x="737.6" y="430.3063"/><rect fill="#FFFFFF" filter="url(#fieqyrxx9t6d1)" height="80.8438" style="stroke:#A80036;stroke-width:0.8000000000000002;" width="8" x="1008" y="183.4938"/><rect fill="#FFFFFF" filter="url(#fieqyrxx9t6d1)" height="48.5625" style="stroke:#A80036;stroke-width:0.8000000000000002;" width="8" x="1125.6" y="288.6188"/><rect fill="#FFFFFF" filter="url(#fieqyrxx9t6d1)" height="24.2813" style="stroke:#A80036;stroke-width:0.8000000000000002;" width="8" x="1236.4" y="361.4625"/><rect fill="#FFFFFF" filter="url(#fieqyrxx9t6d1)" height="38.9625" style="stroke:#000000;stroke-width:1.6000000000000003;" width="220.8" x="560.8" y="397.7438"/><line style="stroke:#A80036;stroke-width:0.8000000000000002;stroke-dasharray:5.0,5.0;" x1="20.8" x2="20.8" y1="71.6875" y2="668.8375"/><line style="stroke:#A80036;stroke-width:0.8000000000000002;stroke-dasharray:5.0,5.0;" x1="268" x2="268" y1="71.6875" y2="668.8375"/><line style="stroke:#A80036;stroke-width:0.8000000000000002;stroke-dasharray:5.0,5.0;" x1="459.2" x2="459.2" y1="71.6875" y2="668.8375"/><line style="stroke:#A80036;stroke-width:0.8000000000000002;stroke-dasharray:5.0,5.0;" x1="635.2" x2="635.2" y1="71.6875" y2="668.8375"/><line style="stroke:#A80036;stroke-width:0.8000000000000002;stroke-dasharray:5.0,5.0;" x1="741.6" x2="741.6" y1="71.6875" y2="668.8375"/><line style="stroke:#A80036;stroke-width:0.8000000000000002;stroke-dasharray:5.0,5.0;" x1="820" x2="820" y1="71.6875" y2="668.8375"/><line style="stroke:#A80036;stroke-width:0.8000000000000002;stroke-dasharray:5.0,5.0;" x1="907.2" x2="907.2" y1="71.6875" y2="668.8375"/><line style="stroke:#A80036;stroke-width:0.8000000000000002;stroke-dasharray:5.0,5.0;" x1="1012" x2="1012" y1="71.6875" y2="668.8375"/><line style="stroke:#A80036;stroke-width:0.8000000000000002;stroke-dasharray:5.0,5.0;" x1="1129.6" x2="1129.6" y1="71.6875" y2="668.8375"/><line style="stroke:#A80036;stroke-width:0.8000000000000002;stroke-dasharray:5.0,5.0;" x1="1240" x2="1240" y1="71.6875" y2="668.8375"/><line style="stroke:#A80036;stroke-width:0.8000000000000002;stroke-dasharray:5.0,5.0;" x1="1341.6" x2="1341.6" y1="71.6875" y2="668.8375"/><line style="stroke:#A80036;stroke-width:0.8000000000000002;stroke-dasharray:5.0,5.0;" x1="1456" x2="1456" y1="71.6875" y2="668.8375"/><text fill="#000000" font-family="sans-serif" font-size="11.2" lengthAdjust="spacing" textLength="28.8" x="4" y="69.2266">Client</text><ellipse cx="20.8" cy="12" fill="#FEFECE" filter="url(#fieqyrxx9t6d1)" rx="6.4" ry="6.4" style="stroke:#A80036;stroke-width:1.6000000000000003;"/><path d="M20.8,18.4 L20.8,40 M10.4,24.8 L31.2,24.8 M20.8,40 L10.4,52 M20.8,40 L31.2,52 " fill="none" filter="url(#fieqyrxx9t6d1)" style="stroke:#A80036;stroke-width:1.6000000000000003;"/><text fill="#000000" font-family="sans-serif" font-size="11.2" lengthAdjust="spacing" textLength="28.8" x="4" y="679.6641">Client</text><ellipse cx="20.8" cy="690.125" fill="#FEFECE" filter="url(#fieqyrxx9t6d1)" rx="6.4" ry="6.4" style="stroke:#A80036;stroke-width:1.6000000000000003;"/><path d="M20.8,696.525 L20.8,718.125 M10.4,702.925 L31.2,702.925 M20.8,718.125 L10.4,730.125 M20.8,718.125 L31.2,730.125 " fill="none" filter="url(#fieqyrxx9t6d1)" style="stroke:#A80036;stroke-width:1.6000000000000003;"/><rect fill="#FEFECE" filter="url(#fieqyrxx9t6d1)" height="39.375" style="stroke:#A80036;stroke-width:1.2000000000000002;" width="160" x="186.4" y="28.3125"/><text fill="#000000" font-family="sans-serif" font-size="11.2" font-style="italic" lengthAdjust="spacing" textLength="76" x="228.4" y="45.5391">«presentation»</text><text fill="#000000" font-family="sans-serif" font-size="11.2" lengthAdjust="spacing" textLength="148.8" x="192" y="59.6266">AddProductToShoppingCarUI</text><rect fill="#FEFECE" filter="url(#fieqyrxx9t6d1)" height="39.375" style="stroke:#A80036;stroke-width:1.2000000000000002;" width="160" x="186.4" y="668.0375"/><text fill="#000000" font-family="sans-serif" font-size="11.2" font-style="italic" lengthAdjust="spacing" textLength="76" x="228.4" y="685.2641">«presentation»</text><text fill="#000000" font-family="sans-serif" font-size="11.2" lengthAdjust="spacing" textLength="148.8" x="192" y="699.3516">AddProductToShoppingCarUI</text><rect fill="#FEFECE" filter="url(#fieqyrxx9t6d1)" height="39.375" style="stroke:#A80036;stroke-width:1.2000000000000002;" width="200" x="357.6" y="28.3125"/><text fill="#000000" font-family="sans-serif" font-size="11.2" font-style="italic" lengthAdjust="spacing" textLength="67.2" x="424" y="45.5391">«application»</text><text fill="#000000" font-family="sans-serif" font-size="11.2" lengthAdjust="spacing" textLength="188.8" x="363.2" y="59.6266">AddProductToShoppingCarController</text><rect fill="#FEFECE" filter="url(#fieqyrxx9t6d1)" height="39.375" style="stroke:#A80036;stroke-width:1.2000000000000002;" width="200" x="357.6" y="668.0375"/><text fill="#000000" font-family="sans-serif" font-size="11.2" font-style="italic" lengthAdjust="spacing" textLength="67.2" x="424" y="685.2641">«application»</text><text fill="#000000" font-family="sans-serif" font-size="11.2" lengthAdjust="spacing" textLength="188.8" x="363.2" y="699.3516">AddProductToShoppingCarController</text><rect fill="#FEFECE" filter="url(#fieqyrxx9t6d1)" height="39.375" style="stroke:#A80036;stroke-width:1.2000000000000002;" width="129.6" x="568.8" y="28.3125"/><text fill="#000000" font-family="sans-serif" font-size="11.2" font-style="italic" lengthAdjust="spacing" textLength="67.2" x="600" y="45.5391">«application»</text><text fill="#000000" font-family="sans-serif" font-size="11.2" lengthAdjust="spacing" textLength="118.4" x="574.4" y="59.6266">ListProductDTOService</text><rect fill="#FEFECE" filter="url(#fieqyrxx9t6d1)" height="39.375" style="stroke:#A80036;stroke-width:1.2000000000000002;" width="129.6" x="568.8" y="668.0375"/><text fill="#000000" font-family="sans-serif" font-size="11.2" font-style="italic" lengthAdjust="spacing" textLength="67.2" x="600" y="685.2641">«application»</text><text fill="#000000" font-family="sans-serif" font-size="11.2" lengthAdjust="spacing" textLength="118.4" x="574.4" y="699.3516">ListProductDTOService</text><rect fill="#FEFECE" filter="url(#fieqyrxx9t6d1)" height="39.375" style="stroke:#A80036;stroke-width:1.2000000000000002;" width="60.8" x="709.6" y="28.3125"/><text fill="#000000" font-family="sans-serif" font-size="11.2" font-style="italic" lengthAdjust="spacing" textLength="49.6" x="715.2" y="45.5391">«domain»</text><text fill="#000000" font-family="sans-serif" font-size="11.2" lengthAdjust="spacing" textLength="39.2" x="720.4" y="59.6266">Product</text><rect fill="#FEFECE" filter="url(#fieqyrxx9t6d1)" height="39.375" style="stroke:#A80036;stroke-width:1.2000000000000002;" width="60.8" x="709.6" y="668.0375"/><text fill="#000000" font-family="sans-serif" font-size="11.2" font-style="italic" lengthAdjust="spacing" textLength="49.6" x="715.2" y="685.2641">«domain»</text><text fill="#000000" font-family="sans-serif" font-size="11.2" lengthAdjust="spacing" textLength="39.2" x="720.4" y="699.3516">Product</text><rect fill="#FEFECE" filter="url(#fieqyrxx9t6d1)" height="39.375" style="stroke:#A80036;stroke-width:1.2000000000000002;" width="74.4" x="781.6" y="28.3125"/><text fill="#000000" font-family="sans-serif" font-size="11.2" font-style="italic" lengthAdjust="spacing" textLength="28.8" x="804.4" y="45.5391">«dto»</text><text fill="#000000" font-family="sans-serif" font-size="11.2" lengthAdjust="spacing" textLength="63.2" x="787.2" y="59.6266">ProductDTO</text><rect fill="#FEFECE" filter="url(#fieqyrxx9t6d1)" height="39.375" style="stroke:#A80036;stroke-width:1.2000000000000002;" width="74.4" x="781.6" y="668.0375"/><text fill="#000000" font-family="sans-serif" font-size="11.2" font-style="italic" lengthAdjust="spacing" textLength="28.8" x="804.4" y="685.2641">«dto»</text><text fill="#000000" font-family="sans-serif" font-size="11.2" lengthAdjust="spacing" textLength="63.2" x="787.2" y="699.3516">ProductDTO</text><rect fill="#FEFECE" filter="url(#fieqyrxx9t6d1)" height="39.375" style="stroke:#A80036;stroke-width:1.2000000000000002;" width="77.6" x="867.2" y="28.3125"/><text fill="#000000" font-family="sans-serif" font-size="11.2" font-style="italic" lengthAdjust="spacing" textLength="49.6" x="881.2" y="45.5391">«domain»</text><text fill="#000000" font-family="sans-serif" font-size="11.2" lengthAdjust="spacing" textLength="66.4" x="872.8" y="59.6266">ShoppingCar</text><rect fill="#FEFECE" filter="url(#fieqyrxx9t6d1)" height="39.375" style="stroke:#A80036;stroke-width:1.2000000000000002;" width="77.6" x="867.2" y="668.0375"/><text fill="#000000" font-family="sans-serif" font-size="11.2" font-style="italic" lengthAdjust="spacing" textLength="49.6" x="881.2" y="685.2641">«domain»</text><text fill="#000000" font-family="sans-serif" font-size="11.2" lengthAdjust="spacing" textLength="66.4" x="872.8" y="699.3516">ShoppingCar</text><rect fill="#FEFECE" filter="url(#fieqyrxx9t6d1)" height="39.375" style="stroke:#A80036;stroke-width:1.2000000000000002;" width="108.8" x="956" y="28.3125"/><text fill="#000000" font-family="sans-serif" font-size="11.2" font-style="italic" lengthAdjust="spacing" textLength="71.2" x="974.8" y="45.5391">«persistence»</text><text fill="#000000" font-family="sans-serif" font-size="11.2" lengthAdjust="spacing" textLength="97.6" x="961.6" y="59.6266">PersistenceContext</text><rect fill="#FEFECE" filter="url(#fieqyrxx9t6d1)" height="39.375" style="stroke:#A80036;stroke-width:1.2000000000000002;" width="108.8" x="956" y="668.0375"/><text fill="#000000" font-family="sans-serif" font-size="11.2" font-style="italic" lengthAdjust="spacing" textLength="71.2" x="974.8" y="685.2641">«persistence»</text><text fill="#000000" font-family="sans-serif" font-size="11.2" lengthAdjust="spacing" textLength="97.6" x="961.6" y="699.3516">PersistenceContext</text><rect fill="#FEFECE" filter="url(#fieqyrxx9t6d1)" height="39.375" style="stroke:#A80036;stroke-width:1.2000000000000002;" width="104" x="1076" y="28.3125"/><text fill="#000000" font-family="sans-serif" font-size="11.2" font-style="italic" lengthAdjust="spacing" textLength="47.2" x="1104.4" y="45.5391">«factory»</text><text fill="#000000" font-family="sans-serif" font-size="11.2" lengthAdjust="spacing" textLength="92.8" x="1081.6" y="59.6266">RepositoryFactory</text><rect fill="#FEFECE" filter="url(#fieqyrxx9t6d1)" height="39.375" style="stroke:#A80036;stroke-width:1.2000000000000002;" width="104" x="1076" y="668.0375"/><text fill="#000000" font-family="sans-serif" font-size="11.2" font-style="italic" lengthAdjust="spacing" textLength="47.2" x="1104.4" y="685.2641">«factory»</text><text fill="#000000" font-family="sans-serif" font-size="11.2" lengthAdjust="spacing" textLength="92.8" x="1081.6" y="699.3516">RepositoryFactory</text><text fill="#000000" font-family="sans-serif" font-size="11.2" font-style="italic" lengthAdjust="spacing" textLength="63.2" x="1206.4" y="55.1391">«repository»</text><text fill="#000000" font-family="sans-serif" font-size="11.2" lengthAdjust="spacing" textLength="93.6" x="1191.2" y="69.2266">ProductRepository</text><path d="M1226,14.7125 C1226,6.7125 1240.4,6.7125 1240.4,6.7125 C1240.4,6.7125 1254.8,6.7125 1254.8,14.7125 L1254.8,35.5125 C1254.8,43.5125 1240.4,43.5125 1240.4,43.5125 C1240.4,43.5125 1226,43.5125 1226,35.5125 L1226,14.7125 " fill="#FEFECE" filter="url(#fieqyrxx9t6d1)" style="stroke:#000000;stroke-width:1.2000000000000002;"/><path d="M1226,14.7125 C1226,22.7125 1240.4,22.7125 1240.4,22.7125 C1240.4,22.7125 1254.8,22.7125 1254.8,14.7125 " fill="none" style="stroke:#000000;stroke-width:1.2000000000000002;"/><text fill="#000000" font-family="sans-serif" font-size="11.2" font-style="italic" lengthAdjust="spacing" textLength="63.2" x="1206.4" y="679.6641">«repository»</text><text fill="#000000" font-family="sans-serif" font-size="11.2" lengthAdjust="spacing" textLength="93.6" x="1191.2" y="693.7516">ProductRepository</text><path d="M1226,704.2125 C1226,696.2125 1240.4,696.2125 1240.4,696.2125 C1240.4,696.2125 1254.8,696.2125 1254.8,704.2125 L1254.8,725.0125 C1254.8,733.0125 1240.4,733.0125 1240.4,733.0125 C1240.4,733.0125 1226,733.0125 1226,725.0125 L1226,704.2125 " fill="#FEFECE" filter="url(#fieqyrxx9t6d1)" style="stroke:#000000;stroke-width:1.2000000000000002;"/><path d="M1226,704.2125 C1226,712.2125 1240.4,712.2125 1240.4,712.2125 C1240.4,712.2125 1254.8,712.2125 1254.8,704.2125 " fill="none" style="stroke:#000000;stroke-width:1.2000000000000002;"/><text fill="#000000" font-family="sans-serif" font-size="11.2" font-style="italic" lengthAdjust="spacing" textLength="63.2" x="1307.6" y="55.1391">«repository»</text><text fill="#000000" font-family="sans-serif" font-size="11.2" lengthAdjust="spacing" textLength="83.2" x="1297.6" y="69.2266">ClientRepository</text><path d="M1327.2,14.7125 C1327.2,6.7125 1341.6,6.7125 1341.6,6.7125 C1341.6,6.7125 1356,6.7125 1356,14.7125 L1356,35.5125 C1356,43.5125 1341.6,43.5125 1341.6,43.5125 C1341.6,43.5125 1327.2,43.5125 1327.2,35.5125 L1327.2,14.7125 " fill="#FEFECE" filter="url(#fieqyrxx9t6d1)" style="stroke:#000000;stroke-width:1.2000000000000002;"/><path d="M1327.2,14.7125 C1327.2,22.7125 1341.6,22.7125 1341.6,22.7125 C1341.6,22.7125 1356,22.7125 1356,14.7125 " fill="none" style="stroke:#000000;stroke-width:1.2000000000000002;"/><text fill="#000000" font-family="sans-serif" font-size="11.2" font-style="italic" lengthAdjust="spacing" textLength="63.2" x="1307.6" y="679.6641">«repository»</text><text fill="#000000" font-family="sans-serif" font-size="11.2" lengthAdjust="spacing" textLength="83.2" x="1297.6" y="693.7516">ClientRepository</text><path d="M1327.2,704.2125 C1327.2,696.2125 1341.6,696.2125 1341.6,696.2125 C1341.6,696.2125 1356,696.2125 1356,704.2125 L1356,725.0125 C1356,733.0125 1341.6,733.0125 1341.6,733.0125 C1341.6,733.0125 1327.2,733.0125 1327.2,725.0125 L1327.2,704.2125 " fill="#FEFECE" filter="url(#fieqyrxx9t6d1)" style="stroke:#000000;stroke-width:1.2000000000000002;"/><path d="M1327.2,704.2125 C1327.2,712.2125 1341.6,712.2125 1341.6,712.2125 C1341.6,712.2125 1356,712.2125 1356,704.2125 " fill="none" style="stroke:#000000;stroke-width:1.2000000000000002;"/><text fill="#000000" font-family="sans-serif" font-size="11.2" font-style="italic" lengthAdjust="spacing" textLength="63.2" x="1422.4" y="55.1391">«repository»</text><text fill="#000000" font-family="sans-serif" font-size="11.2" lengthAdjust="spacing" textLength="120.8" x="1393.6" y="69.2266">ShoppingCarRepository</text><path d="M1442,14.7125 C1442,6.7125 1456.4,6.7125 1456.4,6.7125 C1456.4,6.7125 1470.8,6.7125 1470.8,14.7125 L1470.8,35.5125 C1470.8,43.5125 1456.4,43.5125 1456.4,43.5125 C1456.4,43.5125 1442,43.5125 1442,35.5125 L1442,14.7125 " fill="#FEFECE" filter="url(#fieqyrxx9t6d1)" style="stroke:#000000;stroke-width:1.2000000000000002;"/><path d="M1442,14.7125 C1442,22.7125 1456.4,22.7125 1456.4,22.7125 C1456.4,22.7125 1470.8,22.7125 1470.8,14.7125 " fill="none" style="stroke:#000000;stroke-width:1.2000000000000002;"/><text fill="#000000" font-family="sans-serif" font-size="11.2" font-style="italic" lengthAdjust="spacing" textLength="63.2" x="1422.4" y="679.6641">«repository»</text><text fill="#000000" font-family="sans-serif" font-size="11.2" lengthAdjust="spacing" textLength="120.8" x="1393.6" y="693.7516">ShoppingCarRepository</text><path d="M1442,704.2125 C1442,696.2125 1456.4,696.2125 1456.4,696.2125 C1456.4,696.2125 1470.8,696.2125 1470.8,704.2125 L1470.8,725.0125 C1470.8,733.0125 1456.4,733.0125 1456.4,733.0125 C1456.4,733.0125 1442,733.0125 1442,725.0125 L1442,704.2125 " fill="#FEFECE" filter="url(#fieqyrxx9t6d1)" style="stroke:#000000;stroke-width:1.2000000000000002;"/><path d="M1442,704.2125 C1442,712.2125 1456.4,712.2125 1456.4,712.2125 C1456.4,712.2125 1470.8,712.2125 1470.8,704.2125 " fill="none" style="stroke:#000000;stroke-width:1.2000000000000002;"/><rect fill="#FFFFFF" filter="url(#fieqyrxx9t6d1)" height="574.75" style="stroke:#A80036;stroke-width:0.8000000000000002;" width="8" x="16.8" y="79.6875"/><rect fill="#FFFFFF" filter="url(#fieqyrxx9t6d1)" height="398.1" style="stroke:#A80036;stroke-width:0.8000000000000002;" width="8" x="264" y="110.65"/><rect fill="#FFFFFF" filter="url(#fieqyrxx9t6d1)" height="24.2813" style="stroke:#A80036;stroke-width:0.8000000000000002;" width="8" x="264" y="533.0313"/><rect fill="#FFFFFF" filter="url(#fieqyrxx9t6d1)" height="24.2813" style="stroke:#A80036;stroke-width:0.8000000000000002;" width="8" x="264" y="581.5938"/><rect fill="#FFFFFF" filter="url(#fieqyrxx9t6d1)" height="24.2813" style="stroke:#A80036;stroke-width:0.8000000000000002;" width="8" x="264" y="630.1563"/><rect fill="#FFFFFF" filter="url(#fieqyrxx9t6d1)" height="349.5375" style="stroke:#A80036;stroke-width:0.8000000000000002;" width="8" x="455.2" y="134.9313"/><rect fill="#FFFFFF" filter="url(#fieqyrxx9t6d1)" height="300.975" style="stroke:#A80036;stroke-width:0.8000000000000002;" width="8" x="631.2" y="159.2125"/><rect fill="#FFFFFF" filter="url(#fieqyrxx9t6d1)" height="12" style="stroke:#A80036;stroke-width:0.8000000000000002;" width="8" x="737.6" y="430.3063"/><rect fill="#FFFFFF" filter="url(#fieqyrxx9t6d1)" height="80.8438" style="stroke:#A80036;stroke-width:0.8000000000000002;" width="8" x="1008" y="183.4938"/><rect fill="#FFFFFF" filter="url(#fieqyrxx9t6d1)" height="48.5625" style="stroke:#A80036;stroke-width:0.8000000000000002;" width="8" x="1125.6" y="288.6188"/><rect fill="#FFFFFF" filter="url(#fieqyrxx9t6d1)" height="24.2813" style="stroke:#A80036;stroke-width:0.8000000000000002;" width="8" x="1236.4" y="361.4625"/><polygon fill="#A80036" points="254.4,107.45,262.4,110.65,254.4,113.85,257.6,110.65" style="stroke:#A80036;stroke-width:0.8000000000000002;"/><line style="stroke:#A80036;stroke-width:0.8000000000000002;" x1="24.8" x2="259.2" y1="110.65" y2="110.65"/><text fill="#000000" font-family="sans-serif" font-size="10.4" font-weight="bold" lengthAdjust="spacing" textLength="5.6" x="30.4" y="100.2242">1</text><text fill="#000000" font-family="sans-serif" font-size="10.4" lengthAdjust="spacing" textLength="192.8" x="39.2" y="93.6836">Inicia o processo de adicionar um produto</text><text fill="#000000" font-family="sans-serif" font-size="10.4" lengthAdjust="spacing" textLength="128.8" x="42.4" y="106.7648">ao seu carrinho de compras</text><polygon fill="#A80036" points="445.6,131.7313,453.6,134.9313,445.6,138.1313,448.8,134.9313" style="stroke:#A80036;stroke-width:0.8000000000000002;"/><line style="stroke:#A80036;stroke-width:0.8000000000000002;" x1="272" x2="450.4" y1="134.9313" y2="134.9313"/><text fill="#000000" font-family="sans-serif" font-size="10.4" font-weight="bold" lengthAdjust="spacing" textLength="5.6" x="277.6" y="131.0461">2</text><text fill="#000000" font-family="sans-serif" font-size="10.4" lengthAdjust="spacing" textLength="58.4" x="286.4" y="131.0461">allProducts()</text><polygon fill="#A80036" points="621.6,156.0125,629.6,159.2125,621.6,162.4125,624.8,159.2125" style="stroke:#A80036;stroke-width:0.8000000000000002;"/><line style="stroke:#A80036;stroke-width:0.8000000000000002;" x1="463.2" x2="626.4" y1="159.2125" y2="159.2125"/><text fill="#000000" font-family="sans-serif" font-size="10.4" font-weight="bold" lengthAdjust="spacing" textLength="5.6" x="468.8" y="155.3273">3</text><text fill="#000000" font-family="sans-serif" font-size="10.4" lengthAdjust="spacing" textLength="58.4" x="477.6" y="155.3273">allProducts()</text><polygon fill="#A80036" points="998.4,180.2938,1006.4,183.4938,998.4,186.6938,1001.6,183.4938" style="stroke:#A80036;stroke-width:0.8000000000000002;"/><line style="stroke:#A80036;stroke-width:0.8000000000000002;" x1="639.2" x2="1003.2" y1="183.4938" y2="183.4938"/><text fill="#000000" font-family="sans-serif" font-size="10.4" font-weight="bold" lengthAdjust="spacing" textLength="5.6" x="644.8" y="179.6086">4</text><text fill="#000000" font-family="sans-serif" font-size="10.4" lengthAdjust="spacing" textLength="60" x="653.6" y="179.6086">repositories()</text><path d="M1020,193.8938 L1020,214.6938 L1231.2,214.6938 L1231.2,201.8938 L1223.2,193.8938 L1020,193.8938 " fill="#FBFB77" filter="url(#fieqyrxx9t6d1)" style="stroke:#A80036;stroke-width:0.8000000000000002;"/><path d="M1223.2,193.8938 L1223.2,201.8938 L1231.2,201.8938 L1223.2,193.8938 " fill="#FBFB77" style="stroke:#A80036;stroke-width:0.8000000000000002;"/><text fill="#000000" font-family="sans-serif" font-size="10.4" lengthAdjust="spacing" textLength="194.4" x="1024.8" y="208.6898">pode criar repositório em memória ou JPA</text><polygon fill="#A80036" points="1120,236.8563,1128,240.0563,1120,243.2563,1123.2,240.0563" style="stroke:#A80036;stroke-width:0.8000000000000002;"/><line style="stroke:#A80036;stroke-width:0.8000000000000002;" x1="1016" x2="1124.8" y1="240.0563" y2="240.0563"/><text fill="#000000" font-family="sans-serif" font-size="10.4" font-weight="bold" lengthAdjust="spacing" textLength="5.6" x="1021.6" y="236.1711">5</text><text fill="#000000" font-family="sans-serif" font-size="10.4" lengthAdjust="spacing" textLength="28.8" x="1030.4" y="236.1711">create</text><polygon fill="#A80036" points="648,261.1375,640,264.3375,648,267.5375,644.8,264.3375" style="stroke:#A80036;stroke-width:0.8000000000000002;"/><line style="stroke:#A80036;stroke-width:0.8000000000000002;" x1="643.2" x2="1011.2" y1="264.3375" y2="264.3375"/><text fill="#000000" font-family="sans-serif" font-size="10.4" font-weight="bold" lengthAdjust="spacing" textLength="5.6" x="652.8" y="260.4523">6</text><text fill="#000000" font-family="sans-serif" font-size="10.4" lengthAdjust="spacing" textLength="31.2" x="661.6" y="260.4523">factory</text><polygon fill="#A80036" points="1116,285.4188,1124,288.6188,1116,291.8188,1119.2,288.6188" style="stroke:#A80036;stroke-width:0.8000000000000002;"/><line style="stroke:#A80036;stroke-width:0.8000000000000002;" x1="639.2" x2="1120.8" y1="288.6188" y2="288.6188"/><text fill="#000000" font-family="sans-serif" font-size="10.4" font-weight="bold" lengthAdjust="spacing" textLength="5.6" x="644.8" y="284.7336">7</text><text fill="#000000" font-family="sans-serif" font-size="10.4" lengthAdjust="spacing" textLength="46.4" x="653.6" y="284.7336">products()</text><polygon fill="#A80036" points="1230.8,309.7,1238.8,312.9,1230.8,316.1,1234,312.9" style="stroke:#A80036;stroke-width:0.8000000000000002;"/><line style="stroke:#A80036;stroke-width:0.8000000000000002;" x1="1133.6" x2="1235.6" y1="312.9" y2="312.9"/><text fill="#000000" font-family="sans-serif" font-size="10.4" font-weight="bold" lengthAdjust="spacing" textLength="5.6" x="1139.2" y="309.0148">8</text><text fill="#000000" font-family="sans-serif" font-size="10.4" lengthAdjust="spacing" textLength="28.8" x="1148" y="309.0148">create</text><polygon fill="#A80036" points="648,333.9813,640,337.1813,648,340.3813,644.8,337.1813" style="stroke:#A80036;stroke-width:0.8000000000000002;"/><line style="stroke:#A80036;stroke-width:0.8000000000000002;" x1="643.2" x2="1128.8" y1="337.1813" y2="337.1813"/><text fill="#000000" font-family="sans-serif" font-size="10.4" font-weight="bold" lengthAdjust="spacing" textLength="5.6" x="652.8" y="333.2961">9</text><text fill="#000000" font-family="sans-serif" font-size="10.4" lengthAdjust="spacing" textLength="84" x="661.6" y="333.2961">productRepository</text><polygon fill="#A80036" points="1226.8,358.2625,1234.8,361.4625,1226.8,364.6625,1230,361.4625" style="stroke:#A80036;stroke-width:0.8000000000000002;"/><line style="stroke:#A80036;stroke-width:0.8000000000000002;" x1="639.2" x2="1231.6" y1="361.4625" y2="361.4625"/><text fill="#000000" font-family="sans-serif" font-size="10.4" font-weight="bold" lengthAdjust="spacing" textLength="11.2" x="644.8" y="357.5773">10</text><text fill="#000000" font-family="sans-serif" font-size="10.4" lengthAdjust="spacing" textLength="34.4" x="659.2" y="357.5773">findAll()</text><polygon fill="#A80036" points="648,382.5438,640,385.7438,648,388.9438,644.8,385.7438" style="stroke:#A80036;stroke-width:0.8000000000000002;"/><line style="stroke:#A80036;stroke-width:0.8000000000000002;stroke-dasharray:2.0,2.0;" x1="643.2" x2="1239.6" y1="385.7438" y2="385.7438"/><text fill="#000000" font-family="sans-serif" font-size="10.4" font-weight="bold" lengthAdjust="spacing" textLength="11.2" x="652.8" y="381.8586">11</text><text fill="#000000" font-family="sans-serif" font-size="10.4" lengthAdjust="spacing" textLength="56.8" x="667.2" y="381.8586">productsList</text><path d="M560.8,397.7438 L619.2,397.7438 L619.2,404.1438 L611.2,412.1438 L560.8,412.1438 L560.8,397.7438 " fill="#EEEEEE" style="stroke:#000000;stroke-width:0.8000000000000002;"/><rect fill="none" height="38.9625" style="stroke:#000000;stroke-width:1.6000000000000003;" width="220.8" x="560.8" y="397.7438"/><text fill="#000000" font-family="sans-serif" font-size="10.4" font-weight="bold" lengthAdjust="spacing" textLength="22.4" x="572.8" y="409.3398">loop</text><polygon fill="#A80036" points="728,427.1063,736,430.3063,728,433.5063,731.2,430.3063" style="stroke:#A80036;stroke-width:0.8000000000000002;"/><line style="stroke:#A80036;stroke-width:0.8000000000000002;" x1="639.2" x2="732.8" y1="430.3063" y2="430.3063"/><text fill="#000000" font-family="sans-serif" font-size="10.4" font-weight="bold" lengthAdjust="spacing" textLength="11.2" x="644.8" y="426.4211">12</text><text fill="#000000" font-family="sans-serif" font-size="10.4" lengthAdjust="spacing" textLength="36" x="659.2" y="426.4211">toDTO()</text><polygon fill="#A80036" points="472,456.9875,464,460.1875,472,463.3875,468.8,460.1875" style="stroke:#A80036;stroke-width:0.8000000000000002;"/><line style="stroke:#A80036;stroke-width:0.8000000000000002;stroke-dasharray:2.0,2.0;" x1="467.2" x2="634.4" y1="460.1875" y2="460.1875"/><text fill="#000000" font-family="sans-serif" font-size="10.4" font-weight="bold" lengthAdjust="spacing" textLength="11.2" x="476.8" y="456.3023">13</text><text fill="#000000" font-family="sans-serif" font-size="10.4" lengthAdjust="spacing" textLength="77.6" x="491.2" y="456.3023">productsListDTO</text><polygon fill="#A80036" points="280.8,481.2688,272.8,484.4688,280.8,487.6688,277.6,484.4688" style="stroke:#A80036;stroke-width:0.8000000000000002;"/><line style="stroke:#A80036;stroke-width:0.8000000000000002;stroke-dasharray:2.0,2.0;" x1="276" x2="458.4" y1="484.4688" y2="484.4688"/><text fill="#000000" font-family="sans-serif" font-size="10.4" font-weight="bold" lengthAdjust="spacing" textLength="11.2" x="285.6" y="480.5836">14</text><text fill="#000000" font-family="sans-serif" font-size="10.4" lengthAdjust="spacing" textLength="77.6" x="300" y="480.5836">productsListDTO</text><polygon fill="#A80036" points="33.6,505.55,25.6,508.75,33.6,511.95,30.4,508.75" style="stroke:#A80036;stroke-width:0.8000000000000002;"/><line style="stroke:#A80036;stroke-width:0.8000000000000002;stroke-dasharray:2.0,2.0;" x1="28.8" x2="267.2" y1="508.75" y2="508.75"/><text fill="#000000" font-family="sans-serif" font-size="10.4" font-weight="bold" lengthAdjust="spacing" textLength="11.2" x="38.4" y="504.8648">15</text><text fill="#000000" font-family="sans-serif" font-size="10.4" lengthAdjust="spacing" textLength="140.8" x="52.8" y="504.8648">Mostra o catálogo de produtos</text><polygon fill="#A80036" points="254.4,529.8313,262.4,533.0313,254.4,536.2313,257.6,533.0313" style="stroke:#A80036;stroke-width:0.8000000000000002;"/><line style="stroke:#A80036;stroke-width:0.8000000000000002;" x1="24.8" x2="259.2" y1="533.0313" y2="533.0313"/><text fill="#000000" font-family="sans-serif" font-size="10.4" font-weight="bold" lengthAdjust="spacing" textLength="11.2" x="30.4" y="529.1461">16</text><text fill="#000000" font-family="sans-serif" font-size="10.4" lengthAdjust="spacing" textLength="135.2" x="44.8" y="529.1461">Escolhe o produto pretendido</text><polygon fill="#A80036" points="33.6,554.1125,25.6,557.3125,33.6,560.5125,30.4,557.3125" style="stroke:#A80036;stroke-width:0.8000000000000002;"/><line style="stroke:#A80036;stroke-width:0.8000000000000002;stroke-dasharray:2.0,2.0;" x1="28.8" x2="267.2" y1="557.3125" y2="557.3125"/><text fill="#000000" font-family="sans-serif" font-size="10.4" font-weight="bold" lengthAdjust="spacing" textLength="11.2" x="38.4" y="553.4273">17</text><text fill="#000000" font-family="sans-serif" font-size="10.4" lengthAdjust="spacing" textLength="184" x="52.8" y="553.4273">Solicita a quantidade relativa ao produto</text><polygon fill="#A80036" points="254.4,578.3938,262.4,581.5938,254.4,584.7938,257.6,581.5938" style="stroke:#A80036;stroke-width:0.8000000000000002;"/><line style="stroke:#A80036;stroke-width:0.8000000000000002;" x1="24.8" x2="259.2" y1="581.5938" y2="581.5938"/><text fill="#000000" font-family="sans-serif" font-size="10.4" font-weight="bold" lengthAdjust="spacing" textLength="11.2" x="30.4" y="577.7086">18</text><text fill="#000000" font-family="sans-serif" font-size="10.4" lengthAdjust="spacing" textLength="96" x="44.8" y="577.7086">Informa a quantidade</text><polygon fill="#A80036" points="33.6,602.675,25.6,605.875,33.6,609.075,30.4,605.875" style="stroke:#A80036;stroke-width:0.8000000000000002;"/><line style="stroke:#A80036;stroke-width:0.8000000000000002;stroke-dasharray:2.0,2.0;" x1="28.8" x2="267.2" y1="605.875" y2="605.875"/><text fill="#000000" font-family="sans-serif" font-size="10.4" font-weight="bold" lengthAdjust="spacing" textLength="11.2" x="38.4" y="601.9898">19</text><text fill="#000000" font-family="sans-serif" font-size="10.4" lengthAdjust="spacing" textLength="205.6" x="52.8" y="601.9898">Apresenta os dados e solicita a confirmação</text><polygon fill="#A80036" points="254.4,626.9563,262.4,630.1563,254.4,633.3563,257.6,630.1563" style="stroke:#A80036;stroke-width:0.8000000000000002;"/><line style="stroke:#A80036;stroke-width:0.8000000000000002;" x1="24.8" x2="259.2" y1="630.1563" y2="630.1563"/><text fill="#000000" font-family="sans-serif" font-size="10.4" font-weight="bold" lengthAdjust="spacing" textLength="11.2" x="30.4" y="626.2711">20</text><text fill="#000000" font-family="sans-serif" font-size="10.4" lengthAdjust="spacing" textLength="86.4" x="44.8" y="626.2711">Confirma os dados</text><polygon fill="#A80036" points="29.6,651.2375,21.6,654.4375,29.6,657.6375,26.4,654.4375" style="stroke:#A80036;stroke-width:0.8000000000000002;"/><line style="stroke:#A80036;stroke-width:0.8000000000000002;stroke-dasharray:2.0,2.0;" x1="24.8" x2="267.2" y1="654.4375" y2="654.4375"/><text fill="#000000" font-family="sans-serif" font-size="10.4" font-weight="bold" lengthAdjust="spacing" textLength="11.2" x="34.4" y="650.5523">21</text><text fill="#000000" font-family="sans-serif" font-size="10.4" lengthAdjust="spacing" textLength="144.8" x="48.8" y="650.5523">Informa o sucesso da operação</text><!--MD5=[5e71f834a9dd1fa3c05ebb0a1d7bc7a8]
@startuml

autonumber
actor "Client" as C
participant AddProductToShoppingCarUI as UI <<presentation>>
participant AddProductToShoppingCarController as Controller <<application>>
participant ListProductDTOService as Service <<application>>
participant "Product" as Domain <<domain>>
participant "ProductDTO" as DTO <<dto>>
participant "ShoppingCar" as domain <<domain>>
participant PersistenceContext as Persistence <<persistence>>
participant RepositoryFactory as Factory <<factory>>
database ProductRepository as repository <<repository>>
database ClientRepository as rep <<repository>>
database ShoppingCarRepository as r <<repository>>

activate C
C -> UI : Inicia o processo de adicionar um produto \n ao seu carrinho de compras
activate UI
UI -> Controller: allProducts()
activate Controller
Controller -> Service: allProducts()
activate Service
Service -> Persistence: repositories()
activate Persistence
note right of Persistence: pode criar repositório em memória ou JPA
Persistence -> Factory: create
Persistence -> Service: factory
deactivate Persistence
Service -> Factory: products()
activate Factory
Factory -> repository: create
Factory -> Service: productRepository
deactivate Factory
Service->repository:findAll()
activate repository
repository - -> Service: productsList
deactivate repository
loop
Service -> Domain: toDTO()
activate Domain
end
deactivate Domain
Service - -> Controller: productsListDTO
deactivate Service
Controller - -> UI: productsListDTO
deactivate Controller
UI - -> C : Mostra o catálogo de produtos
deactivate UI
C -> UI : Escolhe o produto pretendido
activate UI
UI - -> C : Solicita a quantidade relativa ao produto
deactivate UI
C -> UI : Informa a quantidade
activate UI
UI - -> C : Apresenta os dados e solicita a confirmação
deactivate UI
C -> UI : Confirma os dados
activate UI

UI - -> C : Informa o sucesso da operação
deactivate UI
deactivate C



@enduml

PlantUML version 1.2022.1(Tue Feb 01 18:19:58 GMT 2022)
(GPL source distribution)
Java Runtime: OpenJDK Runtime Environment
JVM: Dynamic Code Evolution 64-Bit Server VM
Default Encoding: Cp1252
Language: pt
Country: PT
--></g></svg>