<?xml version="1.0" encoding="UTF-8" standalone="no"?><svg xmlns="http://www.w3.org/2000/svg" xmlns:xlink="http://www.w3.org/1999/xlink" contentScriptType="application/ecmascript" contentStyleType="text/css" height="579.6px" preserveAspectRatio="none" style="width:618px;height:579px;background:#FFFFFF;" version="1.1" viewBox="0 0 618 579" width="618px" zoomAndPan="magnify"><defs><filter height="300%" id="fjfbmuuadpfb6" width="300%" x="-1" y="-1"><feGaussianBlur result="blurOut" stdDeviation="1.2"/><feColorMatrix in="blurOut" result="blurOut2" type="matrix" values="0 0 0 0 0 0 0 0 0 0 0 0 0 0 0 0 0 0 .4 0"/><feOffset dx="2.4" dy="2.4" in="blurOut2" result="blurOut3"/><feBlend in="SourceGraphic" in2="blurOut3" mode="normal"/></filter></defs><g><!--MD5=[8c363a80613b0a6d6c7ca1152598557e]
cluster <<aggregate>> Questionnaire--><polygon fill="#FFFFFF" filter="url(#fjfbmuuadpfb6)" points="9.6,102.6,138,102.6,142.2,116.7656,471,116.7656,471,575.7,9.6,575.7,9.6,102.6" style="stroke:#000000;stroke-width:0.8999999999999999;"/><line style="stroke:#000000;stroke-width:0.8999999999999999;" x1="9.6" x2="142.2" y1="116.7656" y2="116.7656"/><text fill="#000000" font-family="sans-serif" font-size="8.4" font-weight="bold" lengthAdjust="spacing" textLength="124.8" x="12" y="112.5199">&lt;&lt;aggregate&gt;&gt; Questionnaire</text><!--MD5=[19ece2f5f0b6cda009165ddd9ef17413]
cluster <<aggregate>> Notification--><polygon fill="#FFFFFF" filter="url(#fjfbmuuadpfb6)" points="485.4,200.4,601.8,200.4,606,214.5656,607.8,214.5656,607.8,269.4,485.4,269.4,485.4,200.4" style="stroke:#000000;stroke-width:0.8999999999999999;"/><line style="stroke:#000000;stroke-width:0.8999999999999999;" x1="485.4" x2="606" y1="214.5656" y2="214.5656"/><text fill="#000000" font-family="sans-serif" font-size="8.4" font-weight="bold" lengthAdjust="spacing" textLength="112.8" x="487.8" y="210.3199">&lt;&lt;aggregate&gt;&gt; Notification</text><!--MD5=[20e996825fabf2618e164db4892593a3]
cluster <<aggregate>> Client--><polygon fill="#FFFFFF" filter="url(#fjfbmuuadpfb6)" points="394.8,3.6,487.8,3.6,492,17.7656,493.8,17.7656,493.8,72.6,394.8,72.6,394.8,3.6" style="stroke:#000000;stroke-width:0.8999999999999999;"/><line style="stroke:#000000;stroke-width:0.8999999999999999;" x1="394.8" x2="492" y1="17.7656" y2="17.7656"/><text fill="#000000" font-family="sans-serif" font-size="8.4" font-weight="bold" lengthAdjust="spacing" textLength="89.4" x="397.2" y="13.5199">&lt;&lt;aggregate&gt;&gt; Client</text><!--MD5=[5a3b85c54cc1c79904e0b827443986bf]
class Questionnaire--><rect codeLine="22" fill="#F5F5DC" filter="url(#fjfbmuuadpfb6)" height="37.9688" id="Questionnaire" style="stroke:#A80036;stroke-width:0.8999999999999999;" width="66" x="275.4" y="124.2"/><ellipse cx="284.4" cy="140.7844" fill="#ADD1B2" rx="6.6" ry="6.6" style="stroke:#A80036;stroke-width:0.6;"/><path d="M283.5,141.3844 L283.5,142.5844 L285.9,142.5844 L285.9,141.9844 L285.9,141.6938 L286.275,141.3844 L286.5,141.3844 L286.725,141.3844 L287.1,141.6938 L287.1,141.9844 L287.1,143.7844 L282.3,143.7844 L282.0094,143.7844 L281.7,143.4094 L281.7,143.1844 L281.7,142.9594 L282.0094,142.5844 L282.3,142.5844 L282.3,142.5844 L282.3,138.9844 L282.3,138.9844 L282.0094,138.9844 L281.7,138.6094 L281.7,138.3844 L281.7,138.1594 L282.0094,137.7844 L282.3,137.7844 L287.1,137.7844 L287.1,139.5844 L287.1,139.875 L286.725,140.1844 L286.5,140.1844 L286.275,140.1844 L285.9,139.875 L285.9,139.5844 L285.9,138.9844 L283.5,138.9844 L283.5,140.1844 L284.1,140.1844 L284.1,139.8937 L284.1,139.8937 L284.475,139.5844 L284.7,139.5844 L284.925,139.5844 L285.3,139.8937 L285.3,140.1844 L285.3,141.3844 L285.3,141.675 L284.925,141.9844 L284.925,141.9844 L284.7,141.9844 L284.475,141.9844 L284.1,141.675 L284.1,141.675 L284.1,141.3844 L283.5,141.3844 Z " fill="#000000"/><text fill="#000000" font-family="sans-serif" font-size="7.2" font-style="italic" lengthAdjust="spacing" textLength="25.8" x="303.3" y="134.6742">«entity»</text><text fill="#000000" font-family="sans-serif" font-size="7.2" font-style="italic" lengthAdjust="spacing" textLength="21" x="305.7" y="143.7305">«root»</text><text fill="#000000" font-family="sans-serif" font-size="7.2" lengthAdjust="spacing" textLength="46.8" x="292.8" y="152.7867">Questionnaire</text><line style="stroke:#A80036;stroke-width:0.8999999999999999;" x1="276" x2="340.8" y1="157.3688" y2="157.3688"/><!--MD5=[75430099834887034d36f3efdb02bb45]
class Identifier--><rect codeLine="26" fill="#F5F5DC" filter="url(#fjfbmuuadpfb6)" height="28.9125" id="Identifier" style="stroke:#A80036;stroke-width:0.8999999999999999;" width="65.4" x="19.5" y="226.5"/><ellipse cx="28.5" cy="238.5562" fill="#FF8B40" rx="6.6" ry="6.6" style="stroke:#A80036;stroke-width:0.6;"/><path d="M28.5,240.525 L29.4188,237.2062 L29.4188,237.2062 L29.1094,237.2062 L28.8,236.8312 L28.8,236.6063 L28.8,236.3813 L29.1094,236.0063 L29.4188,236.0063 L30.5438,236.0063 L30.8906,236.0063 L31.2,236.3813 L31.2,236.6063 L31.2,236.8312 L30.8906,237.2062 L30.8906,237.2062 L30.6188,237.2062 L29.2125,242.0063 L27.7875,242.0063 L26.3063,237.2062 L26.1094,237.2062 L26.1094,237.2062 L25.8,236.8312 L25.8,236.6063 L25.8,236.3813 L26.1094,236.0063 L26.4563,236.0063 L27.5813,236.0063 L27.8906,236.0063 L28.2,236.3813 L28.2,236.6063 L28.2,236.8312 L27.8906,237.2062 L27.5813,237.2062 L27.5813,237.2062 L28.5,240.525 Z " fill="#000000"/><text fill="#000000" font-family="sans-serif" font-size="7.2" font-style="italic" lengthAdjust="spacing" textLength="48.6" x="35.7" y="236.9742">«value object»</text><text fill="#000000" font-family="sans-serif" font-size="7.2" lengthAdjust="spacing" textLength="28.2" x="45.9" y="246.0305">Identifier</text><line style="stroke:#A80036;stroke-width:0.8999999999999999;" x1="20.1" x2="84.3" y1="250.6125" y2="250.6125"/><!--MD5=[14300a2df3a0fe987d976a0ca5dcea70]
class Titulo--><rect codeLine="27" fill="#F5F5DC" filter="url(#fjfbmuuadpfb6)" height="28.9125" id="Titulo" style="stroke:#A80036;stroke-width:0.8999999999999999;" width="65.4" x="395.7" y="385.5"/><ellipse cx="404.7" cy="397.5563" fill="#FF8B40" rx="6.6" ry="6.6" style="stroke:#A80036;stroke-width:0.6;"/><path d="M404.7,399.525 L405.6188,396.2063 L405.6188,396.2063 L405.3094,396.2063 L405,395.8313 L405,395.6063 L405,395.3812 L405.3094,395.0062 L405.6188,395.0062 L406.7438,395.0062 L407.0906,395.0062 L407.4,395.3812 L407.4,395.6063 L407.4,395.8313 L407.0906,396.2063 L407.0906,396.2063 L406.8187,396.2063 L405.4125,401.0062 L403.9875,401.0062 L402.5062,396.2063 L402.3094,396.2063 L402.3094,396.2063 L402,395.8313 L402,395.6063 L402,395.3812 L402.3094,395.0062 L402.6563,395.0062 L403.7813,395.0062 L404.0906,395.0062 L404.4,395.3812 L404.4,395.6063 L404.4,395.8313 L404.0906,396.2063 L403.7813,396.2063 L403.7813,396.2063 L404.7,399.525 Z " fill="#000000"/><text fill="#000000" font-family="sans-serif" font-size="7.2" font-style="italic" lengthAdjust="spacing" textLength="48.6" x="411.9" y="395.9742">«value object»</text><text fill="#000000" font-family="sans-serif" font-size="7.2" lengthAdjust="spacing" textLength="18" x="427.2" y="405.0305">Titulo</text><line style="stroke:#A80036;stroke-width:0.8999999999999999;" x1="396.3" x2="460.5" y1="409.6125" y2="409.6125"/><!--MD5=[bea5b0d46523efab5ea1c1d339f396f0]
class Message--><rect codeLine="28" fill="#F5F5DC" filter="url(#fjfbmuuadpfb6)" height="28.9125" id="Message" style="stroke:#A80036;stroke-width:0.8999999999999999;" width="65.4" x="41.7" y="471.9"/><ellipse cx="50.7" cy="483.9562" fill="#FF8B40" rx="6.6" ry="6.6" style="stroke:#A80036;stroke-width:0.6;"/><path d="M50.7,485.925 L51.6188,482.6063 L51.6188,482.6063 L51.3094,482.6063 L51,482.2313 L51,482.0062 L51,481.7813 L51.3094,481.4063 L51.6188,481.4063 L52.7438,481.4063 L53.0906,481.4063 L53.4,481.7813 L53.4,482.0062 L53.4,482.2313 L53.0906,482.6063 L53.0906,482.6063 L52.8188,482.6063 L51.4125,487.4063 L49.9875,487.4063 L48.5063,482.6063 L48.3094,482.6063 L48.3094,482.6063 L48,482.2313 L48,482.0062 L48,481.7813 L48.3094,481.4063 L48.6563,481.4063 L49.7813,481.4063 L50.0906,481.4063 L50.4,481.7813 L50.4,482.0062 L50.4,482.2313 L50.0906,482.6063 L49.7813,482.6063 L49.7813,482.6063 L50.7,485.925 Z " fill="#000000"/><text fill="#000000" font-family="sans-serif" font-size="7.2" font-style="italic" lengthAdjust="spacing" textLength="48.6" x="57.9" y="482.3742">«value object»</text><text fill="#000000" font-family="sans-serif" font-size="7.2" lengthAdjust="spacing" textLength="30.6" x="66.9" y="491.4305">Message</text><line style="stroke:#A80036;stroke-width:0.8999999999999999;" x1="42.3" x2="106.5" y1="496.0125" y2="496.0125"/><!--MD5=[2555a5a46195b40631e16698a2ba5d47]
class Period--><rect codeLine="30" fill="#F5F5DC" filter="url(#fjfbmuuadpfb6)" height="58.6172" id="Period" style="stroke:#A80036;stroke-width:0.8999999999999999;" width="65.4" x="228.9" y="211.5"/><ellipse cx="237.9" cy="223.5563" fill="#FF8B40" rx="6.6" ry="6.6" style="stroke:#A80036;stroke-width:0.6;"/><path d="M237.9,225.525 L238.8188,222.2062 L238.8188,222.2062 L238.5094,222.2062 L238.2,221.8312 L238.2,221.6063 L238.2,221.3813 L238.5094,221.0063 L238.8188,221.0063 L239.9438,221.0063 L240.2906,221.0063 L240.6,221.3813 L240.6,221.6063 L240.6,221.8312 L240.2906,222.2062 L240.2906,222.2062 L240.0187,222.2062 L238.6125,227.0063 L237.1875,227.0063 L235.7062,222.2062 L235.5094,222.2062 L235.5094,222.2062 L235.2,221.8312 L235.2,221.6063 L235.2,221.3813 L235.5094,221.0063 L235.8563,221.0063 L236.9813,221.0063 L237.2906,221.0063 L237.6,221.3813 L237.6,221.6063 L237.6,221.8312 L237.2906,222.2062 L236.9813,222.2062 L236.9813,222.2062 L237.9,225.525 Z " fill="#000000"/><text fill="#000000" font-family="sans-serif" font-size="7.2" font-style="italic" lengthAdjust="spacing" textLength="48.6" x="245.1" y="221.9742">«value object»</text><text fill="#000000" font-family="sans-serif" font-size="7.2" lengthAdjust="spacing" textLength="21.6" x="258.6" y="231.0305">Period</text><line style="stroke:#A80036;stroke-width:0.8999999999999999;" x1="229.5" x2="293.7" y1="235.6125" y2="235.6125"/><text fill="#000000" font-family="sans-serif" font-size="6.6" lengthAdjust="spacing" textLength="29.4" x="232.5" y="244.8639">-initialDate</text><text fill="#000000" font-family="sans-serif" font-size="6.6" lengthAdjust="spacing" textLength="27.6" x="232.5" y="253.1654">-finalDate</text><text fill="#000000" font-family="sans-serif" font-size="6.6" lengthAdjust="spacing" textLength="34.8" x="232.5" y="261.467">-activeDays</text><line style="stroke:#A80036;stroke-width:0.8999999999999999;" x1="229.5" x2="293.7" y1="265.3172" y2="265.3172"/><!--MD5=[4cf87534c235239d37db4adfd136fff4]
class Rule--><rect codeLine="35" fill="#F5F5DC" filter="url(#fjfbmuuadpfb6)" height="28.9125" id="Rule" style="stroke:#A80036;stroke-width:0.8999999999999999;" width="65.4" x="315.3" y="226.5"/><ellipse cx="324.3" cy="238.5562" fill="#FF8B40" rx="6.6" ry="6.6" style="stroke:#A80036;stroke-width:0.6;"/><path d="M324.3,240.525 L325.2188,237.2062 L325.2188,237.2062 L324.9094,237.2062 L324.6,236.8312 L324.6,236.6063 L324.6,236.3813 L324.9094,236.0063 L325.2188,236.0063 L326.3438,236.0063 L326.6906,236.0063 L327,236.3813 L327,236.6063 L327,236.8312 L326.6906,237.2062 L326.6906,237.2062 L326.4188,237.2062 L325.0125,242.0063 L323.5875,242.0063 L322.1063,237.2062 L321.9094,237.2062 L321.9094,237.2062 L321.6,236.8312 L321.6,236.6063 L321.6,236.3813 L321.9094,236.0063 L322.2562,236.0063 L323.3812,236.0063 L323.6906,236.0063 L324,236.3813 L324,236.6063 L324,236.8312 L323.6906,237.2062 L323.3812,237.2062 L323.3812,237.2062 L324.3,240.525 Z " fill="#000000"/><text fill="#000000" font-family="sans-serif" font-size="7.2" font-style="italic" lengthAdjust="spacing" textLength="48.6" x="331.5" y="236.9742">«value object»</text><text fill="#000000" font-family="sans-serif" font-size="7.2" lengthAdjust="spacing" textLength="15.6" x="348" y="246.0305">Rule</text><line style="stroke:#A80036;stroke-width:0.8999999999999999;" x1="315.9" x2="380.1" y1="250.6125" y2="250.6125"/><!--MD5=[09a53695e98d4f26e7a054522080af08]
class Section--><rect codeLine="36" fill="#F5F5DC" filter="url(#fjfbmuuadpfb6)" height="50.3156" id="Section" style="stroke:#A80036;stroke-width:0.8999999999999999;" width="44.4" x="163.2" y="215.7"/><ellipse cx="172.47" cy="227.7563" fill="#ADD1B2" rx="6.6" ry="6.6" style="stroke:#A80036;stroke-width:0.6;"/><path d="M171.57,228.3563 L171.57,229.5563 L173.97,229.5563 L173.97,228.9562 L173.97,228.6656 L174.345,228.3563 L174.57,228.3563 L174.795,228.3563 L175.17,228.6656 L175.17,228.9562 L175.17,230.7563 L170.37,230.7563 L170.0794,230.7563 L169.77,230.3813 L169.77,230.1563 L169.77,229.9313 L170.0794,229.5563 L170.37,229.5563 L170.37,229.5563 L170.37,225.9562 L170.37,225.9562 L170.0794,225.9562 L169.77,225.5812 L169.77,225.3563 L169.77,225.1313 L170.0794,224.7563 L170.37,224.7563 L175.17,224.7563 L175.17,226.5563 L175.17,226.8469 L174.795,227.1563 L174.57,227.1563 L174.345,227.1563 L173.97,226.8469 L173.97,226.5563 L173.97,225.9562 L171.57,225.9562 L171.57,227.1563 L172.17,227.1563 L172.17,226.8656 L172.17,226.8656 L172.545,226.5563 L172.77,226.5563 L172.995,226.5563 L173.37,226.8656 L173.37,227.1563 L173.37,228.3563 L173.37,228.6469 L172.995,228.9562 L172.995,228.9562 L172.77,228.9562 L172.545,228.9562 L172.17,228.6469 L172.17,228.6469 L172.17,228.3563 L171.57,228.3563 Z " fill="#000000"/><text fill="#000000" font-family="sans-serif" font-size="7.2" font-style="italic" lengthAdjust="spacing" textLength="25.8" x="180.33" y="226.1742">«entity»</text><text fill="#000000" font-family="sans-serif" font-size="7.2" lengthAdjust="spacing" textLength="24.6" x="180.93" y="235.2305">Section</text><line style="stroke:#A80036;stroke-width:0.8999999999999999;" x1="163.8" x2="207" y1="239.8125" y2="239.8125"/><text fill="#000000" font-family="sans-serif" font-size="6.6" lengthAdjust="spacing" textLength="7.2" x="166.8" y="249.0639">-id</text><text fill="#000000" font-family="sans-serif" font-size="6.6" lengthAdjust="spacing" textLength="37.2" x="166.8" y="257.3654">-repeatability</text><line style="stroke:#A80036;stroke-width:0.8999999999999999;" x1="163.8" x2="207" y1="261.2156" y2="261.2156"/><!--MD5=[fc7123defb831ecdd44b2d9bcef6cceb]
class Question--><rect codeLine="42" fill="#F5F5DC" filter="url(#fjfbmuuadpfb6)" height="50.3156" id="Question" style="stroke:#A80036;stroke-width:0.8999999999999999;" width="49.2" x="186.6" y="374.7"/><ellipse cx="195.6" cy="386.7562" fill="#ADD1B2" rx="6.6" ry="6.6" style="stroke:#A80036;stroke-width:0.6;"/><path d="M194.7,387.3563 L194.7,388.5563 L197.1,388.5563 L197.1,387.9563 L197.1,387.6656 L197.475,387.3563 L197.7,387.3563 L197.925,387.3563 L198.3,387.6656 L198.3,387.9563 L198.3,389.7562 L193.5,389.7562 L193.2094,389.7562 L192.9,389.3812 L192.9,389.1563 L192.9,388.9313 L193.2094,388.5563 L193.5,388.5563 L193.5,388.5563 L193.5,384.9563 L193.5,384.9563 L193.2094,384.9563 L192.9,384.5813 L192.9,384.3563 L192.9,384.1312 L193.2094,383.7562 L193.5,383.7562 L198.3,383.7562 L198.3,385.5563 L198.3,385.8469 L197.925,386.1563 L197.7,386.1563 L197.475,386.1563 L197.1,385.8469 L197.1,385.5563 L197.1,384.9563 L194.7,384.9563 L194.7,386.1563 L195.3,386.1563 L195.3,385.8656 L195.3,385.8656 L195.675,385.5563 L195.9,385.5563 L196.125,385.5563 L196.5,385.8656 L196.5,386.1563 L196.5,387.3563 L196.5,387.6469 L196.125,387.9563 L196.125,387.9563 L195.9,387.9563 L195.675,387.9563 L195.3,387.6469 L195.3,387.6469 L195.3,387.3563 L194.7,387.3563 Z " fill="#000000"/><text fill="#000000" font-family="sans-serif" font-size="7.2" font-style="italic" lengthAdjust="spacing" textLength="25.8" x="206.1" y="385.1742">«entity»</text><text fill="#000000" font-family="sans-serif" font-size="7.2" lengthAdjust="spacing" textLength="30" x="204" y="394.2305">Question</text><line style="stroke:#A80036;stroke-width:0.8999999999999999;" x1="187.2" x2="235.2" y1="398.8125" y2="398.8125"/><text fill="#000000" font-family="sans-serif" font-size="6.6" lengthAdjust="spacing" textLength="7.2" x="190.2" y="408.0639">-id</text><text fill="#000000" font-family="sans-serif" font-size="6.6" lengthAdjust="spacing" textLength="23.4" x="190.2" y="416.3654">-options</text><line style="stroke:#A80036;stroke-width:0.8999999999999999;" x1="187.2" x2="235.2" y1="420.2156" y2="420.2156"/><!--MD5=[612a8bdae8d52d1733a2d00cd54fc954]
class Obligatoriness--><rect codeLine="29" fill="#F5F5DC" filter="url(#fjfbmuuadpfb6)" height="28.9125" id="Obligatoriness" style="stroke:#A80036;stroke-width:0.8999999999999999;" width="67.8" x="67.5" y="537.3"/><ellipse cx="76.5" cy="549.3562" fill="#FF8B40" rx="6.6" ry="6.6" style="stroke:#A80036;stroke-width:0.6;"/><path d="M76.5,551.325 L77.4188,548.0063 L77.4188,548.0063 L77.1094,548.0063 L76.8,547.6313 L76.8,547.4063 L76.8,547.1813 L77.1094,546.8063 L77.4188,546.8063 L78.5438,546.8063 L78.8906,546.8063 L79.2,547.1813 L79.2,547.4063 L79.2,547.6313 L78.8906,548.0063 L78.8906,548.0063 L78.6187,548.0063 L77.2125,552.8063 L75.7875,552.8063 L74.3062,548.0063 L74.1094,548.0063 L74.1094,548.0063 L73.8,547.6313 L73.8,547.4063 L73.8,547.1813 L74.1094,546.8063 L74.4563,546.8063 L75.5813,546.8063 L75.8906,546.8063 L76.2,547.1813 L76.2,547.4063 L76.2,547.6313 L75.8906,548.0063 L75.5813,548.0063 L75.5813,548.0063 L76.5,551.325 Z " fill="#000000"/><text fill="#000000" font-family="sans-serif" font-size="7.2" font-style="italic" lengthAdjust="spacing" textLength="48.6" x="84.9" y="547.7742">«value object»</text><text fill="#000000" font-family="sans-serif" font-size="7.2" lengthAdjust="spacing" textLength="48.6" x="84.9" y="556.8305">Obligatoriness</text><line style="stroke:#A80036;stroke-width:0.8999999999999999;" x1="68.1" x2="134.7" y1="561.4125" y2="561.4125"/><!--MD5=[85ca87766313dadedb5918e4f4f973e4]
class MandatoryCondition--><rect codeLine="41" fill="#F5F5DC" filter="url(#fjfbmuuadpfb6)" height="28.9125" id="MandatoryCondition" style="stroke:#A80036;stroke-width:0.8999999999999999;" width="84.6" x="368.1" y="537.3"/><ellipse cx="377.1" cy="549.3562" fill="#FF8B40" rx="6.6" ry="6.6" style="stroke:#A80036;stroke-width:0.6;"/><path d="M377.1,551.325 L378.0188,548.0063 L378.0188,548.0063 L377.7094,548.0063 L377.4,547.6313 L377.4,547.4063 L377.4,547.1813 L377.7094,546.8063 L378.0188,546.8063 L379.1438,546.8063 L379.4906,546.8063 L379.8,547.1813 L379.8,547.4063 L379.8,547.6313 L379.4906,548.0063 L379.4906,548.0063 L379.2188,548.0063 L377.8125,552.8063 L376.3875,552.8063 L374.9063,548.0063 L374.7094,548.0063 L374.7094,548.0063 L374.4,547.6313 L374.4,547.4063 L374.4,547.1813 L374.7094,546.8063 L375.0563,546.8063 L376.1813,546.8063 L376.4906,546.8063 L376.8,547.1813 L376.8,547.4063 L376.8,547.6313 L376.4906,548.0063 L376.1813,548.0063 L376.1813,548.0063 L377.1,551.325 Z " fill="#000000"/><text fill="#000000" font-family="sans-serif" font-size="7.2" font-style="italic" lengthAdjust="spacing" textLength="48.6" x="393.9" y="547.7742">«value object»</text><text fill="#000000" font-family="sans-serif" font-size="7.2" lengthAdjust="spacing" textLength="65.4" x="385.5" y="556.8305">MandatoryCondition</text><line style="stroke:#A80036;stroke-width:0.8999999999999999;" x1="368.7" x2="452.1" y1="561.4125" y2="561.4125"/><!--MD5=[4296a1ab0576a383a1a509d52c22ebf0]
class Type--><rect codeLine="48" fill="#F5F5DC" filter="url(#fjfbmuuadpfb6)" height="28.9125" id="Type" style="stroke:#A80036;stroke-width:0.8999999999999999;" width="65.4" x="229.5" y="471.9"/><ellipse cx="238.5" cy="483.9562" fill="#FF8B40" rx="6.6" ry="6.6" style="stroke:#A80036;stroke-width:0.6;"/><path d="M238.5,485.925 L239.4188,482.6063 L239.4188,482.6063 L239.1094,482.6063 L238.8,482.2313 L238.8,482.0062 L238.8,481.7813 L239.1094,481.4063 L239.4188,481.4063 L240.5438,481.4063 L240.8906,481.4063 L241.2,481.7813 L241.2,482.0062 L241.2,482.2313 L240.8906,482.6063 L240.8906,482.6063 L240.6187,482.6063 L239.2125,487.4063 L237.7875,487.4063 L236.3062,482.6063 L236.1094,482.6063 L236.1094,482.6063 L235.8,482.2313 L235.8,482.0062 L235.8,481.7813 L236.1094,481.4063 L236.4562,481.4063 L237.5812,481.4063 L237.8906,481.4063 L238.2,481.7813 L238.2,482.0062 L238.2,482.2313 L237.8906,482.6063 L237.5812,482.6063 L237.5812,482.6063 L238.5,485.925 Z " fill="#000000"/><text fill="#000000" font-family="sans-serif" font-size="7.2" font-style="italic" lengthAdjust="spacing" textLength="48.6" x="245.7" y="482.3742">«value object»</text><text fill="#000000" font-family="sans-serif" font-size="7.2" lengthAdjust="spacing" textLength="15.6" x="262.2" y="491.4305">Type</text><line style="stroke:#A80036;stroke-width:0.8999999999999999;" x1="230.1" x2="294.3" y1="496.0125" y2="496.0125"/><!--MD5=[f9fadfa5a66b7e5a67b370cd443ffe52]
class Answer--><rect codeLine="46" fill="#F5F5DC" filter="url(#fjfbmuuadpfb6)" height="28.9125" id="Answer" style="stroke:#A80036;stroke-width:0.8999999999999999;" width="43.8" x="315.9" y="471.9"/><ellipse cx="324.9" cy="483.9562" fill="#ADD1B2" rx="6.6" ry="6.6" style="stroke:#A80036;stroke-width:0.6;"/><path d="M324,484.5563 L324,485.7562 L326.4,485.7562 L326.4,485.1563 L326.4,484.8656 L326.775,484.5563 L327,484.5563 L327.225,484.5563 L327.6,484.8656 L327.6,485.1563 L327.6,486.9562 L322.8,486.9562 L322.5094,486.9562 L322.2,486.5812 L322.2,486.3563 L322.2,486.1312 L322.5094,485.7562 L322.8,485.7562 L322.8,485.7562 L322.8,482.1563 L322.8,482.1563 L322.5094,482.1563 L322.2,481.7813 L322.2,481.5563 L322.2,481.3312 L322.5094,480.9562 L322.8,480.9562 L327.6,480.9562 L327.6,482.7562 L327.6,483.0469 L327.225,483.3563 L327,483.3563 L326.775,483.3563 L326.4,483.0469 L326.4,482.7562 L326.4,482.1563 L324,482.1563 L324,483.3563 L324.6,483.3563 L324.6,483.0656 L324.6,483.0656 L324.975,482.7562 L325.2,482.7562 L325.425,482.7562 L325.8,483.0656 L325.8,483.3563 L325.8,484.5563 L325.8,484.8469 L325.425,485.1563 L325.425,485.1563 L325.2,485.1563 L324.975,485.1563 L324.6,484.8469 L324.6,484.8469 L324.6,484.5563 L324,484.5563 Z " fill="#000000"/><text fill="#000000" font-family="sans-serif" font-size="7.2" font-style="italic" lengthAdjust="spacing" textLength="25.8" x="332.7" y="482.3742">«entity»</text><text fill="#000000" font-family="sans-serif" font-size="7.2" lengthAdjust="spacing" textLength="24.6" x="333.3" y="491.4305">Answer</text><line style="stroke:#A80036;stroke-width:0.8999999999999999;" x1="316.5" x2="359.1" y1="496.0125" y2="496.0125"/><!--MD5=[76b5e19c9337179d2d7ae334371d68c8]
class Notification--><rect codeLine="71" fill="#F5F5DC" filter="url(#fjfbmuuadpfb6)" height="37.9688" id="Notification" style="stroke:#A80036;stroke-width:0.8999999999999999;" width="55.8" x="495.3" y="222"/><ellipse cx="504.3" cy="238.5844" fill="#ADD1B2" rx="6.6" ry="6.6" style="stroke:#A80036;stroke-width:0.6;"/><path d="M503.4,239.1844 L503.4,240.3844 L505.8,240.3844 L505.8,239.7844 L505.8,239.4937 L506.175,239.1844 L506.4,239.1844 L506.625,239.1844 L507,239.4937 L507,239.7844 L507,241.5844 L502.2,241.5844 L501.9094,241.5844 L501.6,241.2094 L501.6,240.9844 L501.6,240.7594 L501.9094,240.3844 L502.2,240.3844 L502.2,240.3844 L502.2,236.7844 L502.2,236.7844 L501.9094,236.7844 L501.6,236.4094 L501.6,236.1844 L501.6,235.9594 L501.9094,235.5844 L502.2,235.5844 L507,235.5844 L507,237.3844 L507,237.675 L506.625,237.9844 L506.4,237.9844 L506.175,237.9844 L505.8,237.675 L505.8,237.3844 L505.8,236.7844 L503.4,236.7844 L503.4,237.9844 L504,237.9844 L504,237.6938 L504,237.6938 L504.375,237.3844 L504.6,237.3844 L504.825,237.3844 L505.2,237.6938 L505.2,237.9844 L505.2,239.1844 L505.2,239.475 L504.825,239.7844 L504.825,239.7844 L504.6,239.7844 L504.375,239.7844 L504,239.475 L504,239.475 L504,239.1844 L503.4,239.1844 Z " fill="#000000"/><text fill="#000000" font-family="sans-serif" font-size="7.2" font-style="italic" lengthAdjust="spacing" textLength="25.8" x="518.1" y="232.4742">«entity»</text><text fill="#000000" font-family="sans-serif" font-size="7.2" font-style="italic" lengthAdjust="spacing" textLength="21" x="520.5" y="241.5305">«root»</text><text fill="#000000" font-family="sans-serif" font-size="7.2" lengthAdjust="spacing" textLength="36.6" x="512.7" y="250.5867">Notification</text><line style="stroke:#A80036;stroke-width:0.8999999999999999;" x1="495.9" x2="550.5" y1="255.1688" y2="255.1688"/><!--MD5=[ed6624c6556d5e7b1bd23032162d20b7]
class Client--><rect codeLine="82" fill="#F5F5DC" filter="url(#fjfbmuuadpfb6)" height="37.9688" id="Client" style="stroke:#A80036;stroke-width:0.8999999999999999;" width="42.6" x="422.7" y="25.2"/><ellipse cx="431.7" cy="41.7844" fill="#ADD1B2" rx="6.6" ry="6.6" style="stroke:#A80036;stroke-width:0.6;"/><path d="M430.8,42.3844 L430.8,43.5844 L433.2,43.5844 L433.2,42.9844 L433.2,42.6938 L433.575,42.3844 L433.8,42.3844 L434.025,42.3844 L434.4,42.6938 L434.4,42.9844 L434.4,44.7844 L429.6,44.7844 L429.3094,44.7844 L429,44.4094 L429,44.1844 L429,43.9594 L429.3094,43.5844 L429.6,43.5844 L429.6,43.5844 L429.6,39.9844 L429.6,39.9844 L429.3094,39.9844 L429,39.6094 L429,39.3844 L429,39.1594 L429.3094,38.7844 L429.6,38.7844 L434.4,38.7844 L434.4,40.5844 L434.4,40.875 L434.025,41.1844 L433.8,41.1844 L433.575,41.1844 L433.2,40.875 L433.2,40.5844 L433.2,39.9844 L430.8,39.9844 L430.8,41.1844 L431.4,41.1844 L431.4,40.8938 L431.4,40.8938 L431.775,40.5844 L432,40.5844 L432.225,40.5844 L432.6,40.8938 L432.6,41.1844 L432.6,42.3844 L432.6,42.675 L432.225,42.9844 L432.225,42.9844 L432,42.9844 L431.775,42.9844 L431.4,42.675 L431.4,42.675 L431.4,42.3844 L430.8,42.3844 Z " fill="#000000"/><text fill="#000000" font-family="sans-serif" font-size="7.2" font-style="italic" lengthAdjust="spacing" textLength="25.8" x="438.9" y="35.6742">«entity»</text><text fill="#000000" font-family="sans-serif" font-size="7.2" font-style="italic" lengthAdjust="spacing" textLength="21" x="441.3" y="44.7305">«root»</text><text fill="#000000" font-family="sans-serif" font-size="7.2" lengthAdjust="spacing" textLength="19.2" x="442.2" y="53.7867">Client</text><line style="stroke:#A80036;stroke-width:0.8999999999999999;" x1="423.3" x2="464.7" y1="58.3688" y2="58.3688"/><!--MD5=[123fb3cb4a82b6dd392a85b871d8cde7]
link Questionnaire to Identifier--><path codeLine="50" d="M275.352,143.694 C214.452,144.432 88.068,149.676 58.8,180 C47.922,191.274 47.454,209.802 48.978,223.35 " fill="none" id="Questionnaire-to-Identifier" style="stroke:#222222;stroke-width:0.6;"/><polygon fill="#222222" points="49.35,226.338,51.0677,220.6838,48.9811,223.3608,46.3041,221.2741,49.35,226.338" style="stroke:#222222;stroke-width:0.6;"/><text fill="#000000" font-family="sans-serif" font-size="7.8" lengthAdjust="spacing" textLength="41.4" x="59.4" y="188.6971">identified by</text><text fill="#000000" font-family="sans-serif" font-size="7.8" lengthAdjust="spacing" textLength="4.2" x="43.8816" y="219.8862">1</text><!--MD5=[4ad0e557b164353030f07b8b003ed94b]
link Questionnaire to Titulo--><path codeLine="51" d="M341.61,155.796 C359.46,164.124 380.04,177.072 391.2,195.6 C427.926,256.584 430.092,345.108 429.192,382.074 " fill="none" id="Questionnaire-to-Titulo" style="stroke:#222222;stroke-width:0.6;"/><polygon fill="#222222" points="429.102,385.278,431.6552,379.9487,429.1877,382.2792,426.8572,379.8117,429.102,385.278" style="stroke:#222222;stroke-width:0.6;"/><text fill="#000000" font-family="sans-serif" font-size="7.8" lengthAdjust="spacing" textLength="57.6" x="424.8" y="296.9971">characterized by</text><text fill="#000000" font-family="sans-serif" font-size="7.8" lengthAdjust="spacing" textLength="4.2" x="424.5612" y="379.053">1</text><!--MD5=[b696308ae9de28b13e6d8d10162b8cf8]
link Questionnaire to Period--><path codeLine="52" d="M297.558,162.162 C294.36,167.826 290.934,174.114 288,180 C283.452,189.132 278.862,199.224 274.818,208.5 " fill="none" id="Questionnaire-to-Period" style="stroke:#222222;stroke-width:0.6;"/><polygon fill="#222222" points="273.582,211.35,277.9302,207.3483,274.7741,208.597,273.5254,205.441,273.582,211.35" style="stroke:#222222;stroke-width:0.6;"/><text fill="#000000" font-family="sans-serif" font-size="7.8" lengthAdjust="spacing" textLength="29.4" x="288.6" y="188.6971">available</text><text fill="#000000" font-family="sans-serif" font-size="7.8" lengthAdjust="spacing" textLength="4.2" x="270.7717" y="205.0443">1</text><!--MD5=[889beea7a927af861aca0f4eadf63e0a]
link Questionnaire to Rule--><path codeLine="53" d="M315.942,162.096 C323.196,179.796 334.074,206.322 341.1,223.476 " fill="none" id="Questionnaire-to-Rule" style="stroke:#222222;stroke-width:0.6;"/><polygon fill="#222222" points="342.282,226.35,342.4516,220.4431,341.1428,223.5747,338.0112,222.2659,342.282,226.35" style="stroke:#222222;stroke-width:0.6;"/><text fill="#000000" font-family="sans-serif" font-size="7.8" lengthAdjust="spacing" textLength="38.4" x="327.6" y="188.6971">determined</text><text fill="#000000" font-family="sans-serif" font-size="7.8" lengthAdjust="spacing" textLength="4.2" x="336.0786" y="219.9012">1</text><!--MD5=[3da50156e7717b39021783dfd0973443]
link Questionnaire to Section--><path codeLine="54" d="M275.274,158.346 C257.178,167.388 235.11,180.198 218.4,195.6 C212.826,200.736 207.564,206.928 202.95,213.048 " fill="none" id="Questionnaire-to-Section" style="stroke:#222222;stroke-width:0.6;"/><polygon fill="#222222" points="201.15,215.478,206.2984,212.5774,202.9404,213.0708,202.447,209.7128,201.15,215.478" style="stroke:#222222;stroke-width:0.6;"/><text fill="#000000" font-family="sans-serif" font-size="7.8" lengthAdjust="spacing" textLength="33.6" x="236.4" y="188.6971">organized</text><text fill="#000000" font-family="sans-serif" font-size="7.8" lengthAdjust="spacing" textLength="12" x="190.7039" y="209.182">1..*</text><!--MD5=[fcb611578ef5890b8b4f350926b49dd5]
link Questionnaire to Message--><path codeLine="55" d="M275.364,148.686 C241.92,155.04 189.996,168.606 153,195.6 C118.014,221.13 123.654,241.374 95.4,274.2 C77.748,294.708 66.138,293.91 52.2,317.1 C27.156,358.77 20.928,378.504 34.8,425.1 C39.702,441.564 50.658,457.716 59.802,469.206 " fill="none" id="Questionnaire-to-Message" style="stroke:#222222;stroke-width:0.6;"/><polygon fill="#222222" points="61.842,471.726,60.3121,466.0182,59.9554,469.3935,56.5801,469.0367,61.842,471.726" style="stroke:#222222;stroke-width:0.6;"/><text fill="#000000" font-family="sans-serif" font-size="7.8" lengthAdjust="spacing" textLength="37.8" x="52.8" y="325.7971">associated</text><text fill="#000000" font-family="sans-serif" font-size="7.8" lengthAdjust="spacing" textLength="13.2" x="43.7328" y="465.2711">1..2</text><!--MD5=[87fa8ff7d398728728a611d860795352]
link Section to Question--><path codeLine="56" d="M189.432,266.154 C194.106,294.732 201.786,341.712 206.664,371.544 " fill="none" id="Section-to-Question" style="stroke:#222222;stroke-width:0.6;"/><polygon fill="#222222" points="207.156,374.556,208.6463,368.8377,206.6684,371.5959,203.9102,369.6179,207.156,374.556" style="stroke:#222222;stroke-width:0.6;"/><text fill="#000000" font-family="sans-serif" font-size="7.8" lengthAdjust="spacing" textLength="46.8" x="199.2" y="325.7971">composed by</text><text fill="#000000" font-family="sans-serif" font-size="7.8" lengthAdjust="spacing" textLength="12" x="193.5552" y="368.2724">1..*</text><!--MD5=[f42145c61e51350e93da5533bd325aac]
link Section to Titulo--><path codeLine="57" d="M207.63,264.954 C211.116,268.2 214.764,271.386 218.4,274.2 C277.818,320.226 355.536,362.442 397.794,384.096 " fill="none" id="Section-to-Titulo" style="stroke:#222222;stroke-width:0.6;"/><polygon fill="#222222" points="400.524,385.488,396.8025,380.8978,397.8511,384.1258,394.623,385.1744,400.524,385.488" style="stroke:#222222;stroke-width:0.6;"/><text fill="#000000" font-family="sans-serif" font-size="7.8" lengthAdjust="spacing" textLength="57.6" x="295.8" y="325.7971">characterized by</text><text fill="#000000" font-family="sans-serif" font-size="7.8" lengthAdjust="spacing" textLength="4.2" x="388.6427" y="379.0746">1</text><!--MD5=[d1bcfee18c22c660a2c5765cdd459525]
link Section to MandatoryCondition--><path codeLine="58" d="M207.66,266.232 C211.056,269.184 214.674,271.944 218.4,274.2 C272.022,306.702 315.81,266.466 352.8,317.1 C355.632,320.976 353.046,323.106 352.8,327.9 C350.592,371.094 326.088,387.81 348,425.1 C369.648,461.946 410.352,435.054 432,471.9 C443.58,491.61 432.168,517.722 422.028,534.468 " fill="none" id="Section-to-MandatoryCondition" style="stroke:#222222;stroke-width:0.6;"/><polygon fill="#222222" points="420.414,537.072,425.2981,533.7455,421.994,534.5218,421.2177,531.2176,420.414,537.072" style="stroke:#222222;stroke-width:0.6;"/><text fill="#000000" font-family="sans-serif" font-size="7.8" lengthAdjust="spacing" textLength="36" x="348.6" y="403.1971">dependent</text><text fill="#000000" font-family="sans-serif" font-size="7.8" lengthAdjust="spacing" textLength="4.2" x="418.143" y="530.8455">1</text><!--MD5=[9ebeb7444a702c89b50ba435810fc50c]
link Section to Message--><path codeLine="59" d="M178.734,266.106 C166.788,309.408 141.534,397.272 126,425.1 C116.718,441.726 102.474,458.016 91.302,469.512 " fill="none" id="Section-to-Message" style="stroke:#222222;stroke-width:0.6;"/><polygon fill="#222222" points="89.112,471.744,94.6057,469.5671,91.2118,469.6014,91.1775,466.2074,89.112,471.744" style="stroke:#222222;stroke-width:0.6;"/><text fill="#000000" font-family="sans-serif" font-size="7.8" lengthAdjust="spacing" textLength="37.8" x="155.4" y="354.5971">associated</text><text fill="#000000" font-family="sans-serif" font-size="7.8" lengthAdjust="spacing" textLength="13.2" x="77.9907" y="465.2937">0..1</text><!--MD5=[5cdb98ab5092f89550e36d3e1e1f4842]
link Section to Obligatoriness--><path codeLine="60" d="M163.176,260.01 C135.828,283.884 89.682,327.936 62.4,374.7 C39.54,413.892 38.22,427.074 31.2,471.9 C29.22,484.548 25.356,489.312 31.2,500.7 C38.94,515.778 53.514,527.364 67.392,535.602 " fill="none" id="Section-to-Obligatoriness" style="stroke:#222222;stroke-width:0.6;"/><polygon fill="#222222" points="70.158,537.204,66.694,532.4164,67.5639,535.6972,64.2831,536.567,70.158,537.204" style="stroke:#222222;stroke-width:0.6;"/><text fill="#000000" font-family="sans-serif" font-size="7.8" lengthAdjust="spacing" textLength="57.6" x="63" y="403.1971">characterized by</text><text fill="#000000" font-family="sans-serif" font-size="7.8" lengthAdjust="spacing" textLength="4.2" x="58.6644" y="531.4908">1</text><!--MD5=[4765df7eb0ad81544909bcf2bc6aa8a7]
link Question to MandatoryCondition--><path codeLine="61" d="M236.064,405.558 C270.522,413.778 332.778,433.164 370.2,471.9 C387.618,489.93 399.126,517.008 405.21,534.366 " fill="none" id="Question-to-MandatoryCondition" style="stroke:#222222;stroke-width:0.6;"/><polygon fill="#222222" points="406.206,537.276,406.7167,531.3888,405.2291,534.4395,402.1784,532.9519,406.206,537.276" style="stroke:#222222;stroke-width:0.6;"/><text fill="#000000" font-family="sans-serif" font-size="7.8" lengthAdjust="spacing" textLength="36" x="390.6" y="489.5971">dependent</text><text fill="#000000" font-family="sans-serif" font-size="7.8" lengthAdjust="spacing" textLength="4.2" x="400.3932" y="530.8595">1</text><!--MD5=[e0fffaa13fbd595c085593598a8eda75]
link Question to Type--><path codeLine="62" d="M225.954,425.142 C234.408,439.278 244.8,456.636 252.288,469.14 " fill="none" id="Question-to-Type" style="stroke:#222222;stroke-width:0.6;"/><polygon fill="#222222" points="253.836,471.732,253.1387,465.864,252.3026,469.1535,249.0131,468.3174,253.836,471.732" style="stroke:#222222;stroke-width:0.6;"/><text fill="#000000" font-family="sans-serif" font-size="7.8" lengthAdjust="spacing" textLength="37.8" x="243" y="451.7971">associated</text><text fill="#000000" font-family="sans-serif" font-size="7.8" lengthAdjust="spacing" textLength="4.2" x="246.9546" y="465.2786">1</text><!--MD5=[65eba20e67aed00d6bc058cc024ab046]
link Question to Message--><path codeLine="63" d="M186.462,413.49 C171.366,421.626 151.806,432.534 135,443.1 C121.638,451.5 107.16,461.634 95.712,469.914 " fill="none" id="Question-to-Message" style="stroke:#222222;stroke-width:0.6;"/><polygon fill="#222222" points="93.162,471.756,98.9431,470.5318,95.5915,469.9961,96.1272,466.6445,93.162,471.756" style="stroke:#222222;stroke-width:0.6;"/><text fill="#000000" font-family="sans-serif" font-size="7.8" lengthAdjust="spacing" textLength="37.8" x="135.6" y="451.7971">associated</text><text fill="#000000" font-family="sans-serif" font-size="7.8" lengthAdjust="spacing" textLength="13.2" x="99.661" y="465.3088">2..3</text><!--MD5=[c854ca08d1f19f359862882e694a98e5]
link Question to Obligatoriness--><path codeLine="64" d="M196.206,425.238 C190.332,434.454 183.342,444.864 176.4,453.9 C169.842,462.432 167.016,463.572 160.2,471.9 C143.01,492.912 124.56,518.268 113.004,534.534 " fill="none" id="Question-to-Obligatoriness" style="stroke:#222222;stroke-width:0.6;"/><polygon fill="#222222" points="111.21,537.066,116.2906,534.0482,112.9448,534.6184,112.3745,531.2726,111.21,537.066" style="stroke:#222222;stroke-width:0.6;"/><text fill="#000000" font-family="sans-serif" font-size="7.8" lengthAdjust="spacing" textLength="57.6" x="160.8" y="489.5971">characterized by</text><text fill="#000000" font-family="sans-serif" font-size="7.8" lengthAdjust="spacing" textLength="4.2" x="108.8893" y="530.838">1</text><!--MD5=[6926d5174a3032b1dcc6c5d6f900c16b]
link Question to Answer--><path codeLine="66" d="M235.83,413.088 C250.788,421.074 270.048,431.97 286.2,443.1 C297.93,451.182 310.26,461.292 319.926,469.638 " fill="none" id="Question-to-Answer" style="stroke:#222222;stroke-width:0.6;"/><polygon fill="#222222" points="322.32,471.72,319.8134,466.3686,320.0538,469.7542,316.6682,469.9946,322.32,471.72" style="stroke:#222222;stroke-width:0.6;"/><text fill="#000000" font-family="sans-serif" font-size="7.8" lengthAdjust="spacing" textLength="12.6" x="300" y="451.7971">has</text><text fill="#000000" font-family="sans-serif" font-size="7.8" lengthAdjust="spacing" textLength="4.2" x="313.8349" y="465.5052">1</text><!--MD5=[de16eca91a7bf5f86af5328d73316339]
link Questionnaire to Notification--><path codeLine="76" d="M341.424,150.168 C375.426,157.74 429.198,172.296 471,195.6 C482.622,202.08 494.028,211.398 503.202,219.852 " fill="none" id="Questionnaire-to-Notification" style="stroke:#222222;stroke-width:0.6;"/><polygon fill="#222222" points="505.482,221.982,503.1726,216.5426,503.2891,219.9347,499.897,220.0512,505.482,221.982" style="stroke:#222222;stroke-width:0.6;"/><text fill="#000000" font-family="sans-serif" font-size="7.8" lengthAdjust="spacing" textLength="19.2" x="459" y="188.6971">emits</text><text fill="#000000" font-family="sans-serif" font-size="7.8" lengthAdjust="spacing" textLength="12" x="488.5902" y="215.5916">1..*</text><!--MD5=[3d2d5cdd8aa6df365188843f8b3f5700]
link Client to Notification--><path codeLine="86" d="M454.05,63.114 C459.384,73.218 465.882,86.04 471,97.8 C489.324,139.866 506.874,190.65 516.222,218.814 " fill="none" id="Client-to-Notification" style="stroke:#222222;stroke-width:0.6;"/><polygon fill="#222222" points="517.212,221.802,517.7918,215.9212,516.2685,218.9542,513.2354,217.4309,517.212,221.802" style="stroke:#222222;stroke-width:0.6;"/><text fill="#000000" font-family="sans-serif" font-size="7.8" lengthAdjust="spacing" textLength="24" x="496.2" y="146.3971">receive</text><text fill="#000000" font-family="sans-serif" font-size="7.8" lengthAdjust="spacing" textLength="12" x="502.7395" y="215.3745">1..*</text><!--MD5=[f24668853f4baed8c3652f719507667c]
link Client to Questionnaire--><path codeLine="87" d="M422.664,60.09 C399.396,76.866 362.07,103.794 336.45,122.274 " fill="none" id="Client-to-Questionnaire" style="stroke:#222222;stroke-width:0.6;"/><polygon fill="#222222" points="334.008,124.032,339.7919,122.8212,336.4416,122.2777,336.9851,118.9274,334.008,124.032" style="stroke:#222222;stroke-width:0.6;"/><text fill="#000000" font-family="sans-serif" font-size="7.8" lengthAdjust="spacing" textLength="28.8" x="388.8" y="90.8971">answers</text><text fill="#000000" font-family="sans-serif" font-size="7.8" lengthAdjust="spacing" textLength="12" x="326.0521" y="117.6106">1..*</text><!--MD5=[3201683a892361de63be2284c06463e4]
@startuml

skinparam classAttributeIconSize 0
hide empty attributes
skinparam classBackgroundColor beige
skinparam ArrowColor #222222

package "<<aggregate>> Questionnaire" {
    entity Questionnaire
    class Identifier
    class Titulo
    class Message
    class Period
    class Rule
    entity Section
    entity Question
    class Obligatoriness
    class MandatoryCondition
    class Type
    entity Answer
}

entity Questionnaire <<entity>> <<root>> {

}

class Identifier <<(V,#FF8B40) value object>>
class Titulo <<(V,#FF8B40) value object>>
class Message <<(V,#FF8B40) value object>>
class Obligatoriness <<(V,#FF8B40) value object>>
class Period <<(V,#FF8B40) value object>> {
- initialDate
- finalDate
- activeDays
}
class Rule <<(V,#FF8B40) value object>>
entity Section <<entity>> {
- id
- repeatability
}

class MandatoryCondition <<(V,#FF8B40) value object>>
entity Question <<entity>> {
- id
- options
}
entity Answer <<entity>> {
}
class Type <<(V,#FF8B40) value object>>

Questionnaire - -> "1" Identifier : identified by
Questionnaire - - -> "1" Titulo: characterized by
Questionnaire - -> "1" Period : available
Questionnaire - -> "1" Rule : determined
Questionnaire - -> "1..*" Section : organized
Questionnaire - -> "1..2" Message : associated
Section - - -> "1..*" Question: composed by
Section - - -> "1" Titulo: characterized by
Section - -> "1"  MandatoryCondition: dependent
Section - -> "0..1" Message : associated
Section - - -> "1" Obligatoriness: characterized by
Question - - -> "1" MandatoryCondition: dependent
Question - -> "1" Type: associated
Question - -> "2..3" Message: associated
Question - - -> "1" Obligatoriness: characterized by

Question - -> "1" Answer : has
package "<<aggregate>> Notification" {
    entity Notification
}

entity Notification <<entity>> <<root>> {


}

Questionnaire - -> "1..*" Notification : emits

package "<<aggregate>> Client" {
    entity Client
}

entity Client <<entity>> <<root>> {

}

Client - -> "1..*" Notification : receive
Client - -> "1..*" Questionnaire : answers


@enduml

PlantUML version 1.2022.1(Tue Feb 01 18:19:58 GMT 2022)
(GPL source distribution)
Java Runtime: OpenJDK Runtime Environment
JVM: Dynamic Code Evolution 64-Bit Server VM
Default Encoding: Cp1252
Language: pt
Country: PT
--></g></svg>