<?xml version="1.0" encoding="UTF-8" standalone="no"?><svg xmlns="http://www.w3.org/2000/svg" xmlns:xlink="http://www.w3.org/1999/xlink" contentStyleType="text/css" height="1419px" preserveAspectRatio="none" style="width:1338px;height:1419px;background:#FFFFFF;" version="1.1" viewBox="0 0 1338 1419" width="1338px" zoomAndPan="magnify"><defs/><g><rect fill="#FFFFFF" height="1207.6016" style="stroke:#181818;stroke-width:1.0;" width="10" x="72.5" y="96.2188"/><rect fill="#FFFFFF" height="440.2188" style="stroke:#181818;stroke-width:1.0;" width="10" x="336.5" y="134.9219"/><rect fill="#FFFFFF" height="349.5156" style="stroke:#181818;stroke-width:1.0;" width="10" x="336.5" y="605.4922"/><rect fill="#FFFFFF" height="318.4609" style="stroke:#181818;stroke-width:1.0;" width="10" x="336.5" y="985.3594"/><rect fill="#FFFFFF" height="30" style="stroke:#181818;stroke-width:1.0;" width="10" x="722.5" y="165.2734"/><rect fill="#FFFFFF" height="302.8125" style="stroke:#181818;stroke-width:1.0;" width="10" x="722.5" y="225.625"/><rect fill="#FFFFFF" height="60.3516" style="stroke:#181818;stroke-width:1.0;" width="10" x="722.5" y="635.8438"/><rect fill="#FFFFFF" height="181.7578" style="stroke:#181818;stroke-width:1.0;" width="10" x="722.5" y="726.5469"/><rect fill="#FFFFFF" height="30" style="stroke:#181818;stroke-width:1.0;" width="10" x="722.5" y="1015.7109"/><rect fill="#FFFFFF" height="236.7578" style="stroke:#181818;stroke-width:1.0;" width="10" x="722.5" y="1076.0625"/><rect fill="#FFFFFF" height="90.7031" style="stroke:#181818;stroke-width:1.0;" width="10" x="890.5" y="255.9766"/><rect fill="#FFFFFF" height="30" style="stroke:#181818;stroke-width:1.0;" width="10" x="1033.5" y="286.3281"/><rect fill="#FFFFFF" height="90.7031" style="stroke:#181818;stroke-width:1.0;" width="10" x="1033.5" y="377.0313"/><rect fill="#FFFFFF" height="90.7031" style="stroke:#181818;stroke-width:1.0;" width="10" x="1033.5" y="756.8984"/><rect fill="#FFFFFF" height="30" style="stroke:#181818;stroke-width:1.0;" width="10" x="1164" y="407.3828"/><rect fill="#FFFFFF" height="30.3516" style="stroke:#181818;stroke-width:1.0;" width="10" x="1164" y="498.0859"/><rect fill="#FFFFFF" height="30" style="stroke:#181818;stroke-width:1.0;" width="10" x="1164" y="666.1953"/><rect fill="#FFFFFF" height="30" style="stroke:#181818;stroke-width:1.0;" width="10" x="1164" y="1106.4141"/><rect fill="#FFFFFF" height="30" style="stroke:#181818;stroke-width:1.0;" width="10" x="1164" y="1166.7656"/><rect fill="#FFFFFF" height="30" style="stroke:#181818;stroke-width:1.0;" width="10" x="1281" y="787.25"/><rect fill="#FFFFFF" height="30.3516" style="stroke:#181818;stroke-width:1.0;" width="10" x="1281" y="877.9531"/><rect fill="#FFFFFF" height="30" style="stroke:#181818;stroke-width:1.0;" width="10" x="1281" y="1227.1172"/><line style="stroke:#181818;stroke-width:0.5;stroke-dasharray:5.0,5.0;" x1="77" x2="77" y1="86.2188" y2="1321.8203"/><line style="stroke:#181818;stroke-width:0.5;stroke-dasharray:5.0,5.0;" x1="341.5" x2="341.5" y1="86.2188" y2="1321.8203"/><line style="stroke:#181818;stroke-width:0.5;stroke-dasharray:5.0,5.0;" x1="727.5" x2="727.5" y1="86.2188" y2="1321.8203"/><line style="stroke:#181818;stroke-width:0.5;stroke-dasharray:5.0,5.0;" x1="895.5" x2="895.5" y1="86.2188" y2="1321.8203"/><line style="stroke:#181818;stroke-width:0.5;stroke-dasharray:5.0,5.0;" x1="1038.5" x2="1038.5" y1="86.2188" y2="1321.8203"/><line style="stroke:#181818;stroke-width:0.5;stroke-dasharray:5.0,5.0;" x1="1168.5" x2="1168.5" y1="86.2188" y2="1321.8203"/><line style="stroke:#181818;stroke-width:0.5;stroke-dasharray:5.0,5.0;" x1="1285.5" x2="1285.5" y1="86.2188" y2="1321.8203"/><text fill="#000000" font-family="sans-serif" font-size="14" lengthAdjust="spacing" textLength="139" x="5" y="83.1426">Warehouse Employee</text><ellipse cx="77.5" cy="17.1094" fill="#E2E2F0" rx="8" ry="8" style="stroke:#181818;stroke-width:0.5;"/><path d="M77.5,25.1094 L77.5,52.1094 M64.5,33.1094 L90.5,33.1094 M77.5,52.1094 L64.5,67.1094 M77.5,52.1094 L90.5,67.1094 " fill="none" style="stroke:#181818;stroke-width:0.5;"/><text fill="#000000" font-family="sans-serif" font-size="14" lengthAdjust="spacing" textLength="139" x="5" y="1335.3535">Warehouse Employee</text><ellipse cx="77.5" cy="1346.9297" fill="#E2E2F0" rx="8" ry="8" style="stroke:#181818;stroke-width:0.5;"/><path d="M77.5,1354.9297 L77.5,1381.9297 M64.5,1362.9297 L90.5,1362.9297 M77.5,1381.9297 L64.5,1396.9297 M77.5,1381.9297 L90.5,1396.9297 " fill="none" style="stroke:#181818;stroke-width:0.5;"/><rect fill="#E2E2F0" height="31.6094" rx="2.5" ry="2.5" style="stroke:#181818;stroke-width:0.5;" width="130" x="276.5" y="53.6094"/><text fill="#000000" font-family="sans-serif" font-size="14" lengthAdjust="spacing" textLength="116" x="283.5" y="75.1426">ForceOrderPrepUI</text><rect fill="#E2E2F0" height="31.6094" rx="2.5" ry="2.5" style="stroke:#181818;stroke-width:0.5;" width="130" x="276.5" y="1320.8203"/><text fill="#000000" font-family="sans-serif" font-size="14" lengthAdjust="spacing" textLength="116" x="283.5" y="1342.3535">ForceOrderPrepUI</text><rect fill="#E2E2F0" height="31.6094" rx="2.5" ry="2.5" style="stroke:#181818;stroke-width:0.5;" width="180" x="637.5" y="53.6094"/><text fill="#000000" font-family="sans-serif" font-size="14" lengthAdjust="spacing" textLength="166" x="644.5" y="75.1426">ForceOrderPrepController</text><rect fill="#E2E2F0" height="31.6094" rx="2.5" ry="2.5" style="stroke:#181818;stroke-width:0.5;" width="180" x="637.5" y="1320.8203"/><text fill="#000000" font-family="sans-serif" font-size="14" lengthAdjust="spacing" textLength="166" x="644.5" y="1342.3535">ForceOrderPrepController</text><rect fill="#E2E2F0" height="49.2188" rx="2.5" ry="2.5" style="stroke:#181818;stroke-width:0.5;" width="136" x="827.5" y="36"/><text fill="#000000" font-family="sans-serif" font-size="14" font-style="italic" lengthAdjust="spacing" textLength="89" x="851" y="57.5332">«persistence»</text><text fill="#000000" font-family="sans-serif" font-size="14" lengthAdjust="spacing" textLength="122" x="834.5" y="75.1426">PersistenceContext</text><rect fill="#E2E2F0" height="49.2188" rx="2.5" ry="2.5" style="stroke:#181818;stroke-width:0.5;" width="136" x="827.5" y="1320.8203"/><text fill="#000000" font-family="sans-serif" font-size="14" font-style="italic" lengthAdjust="spacing" textLength="89" x="851" y="1342.3535">«persistence»</text><text fill="#000000" font-family="sans-serif" font-size="14" lengthAdjust="spacing" textLength="122" x="834.5" y="1359.9629">PersistenceContext</text><rect fill="#E2E2F0" height="49.2188" rx="2.5" ry="2.5" style="stroke:#181818;stroke-width:0.5;" width="130" x="973.5" y="36"/><text fill="#000000" font-family="sans-serif" font-size="14" font-style="italic" lengthAdjust="spacing" textLength="59" x="1009" y="57.5332">«factory»</text><text fill="#000000" font-family="sans-serif" font-size="14" lengthAdjust="spacing" textLength="116" x="980.5" y="75.1426">RepositoryFactory</text><rect fill="#E2E2F0" height="49.2188" rx="2.5" ry="2.5" style="stroke:#181818;stroke-width:0.5;" width="130" x="973.5" y="1320.8203"/><text fill="#000000" font-family="sans-serif" font-size="14" font-style="italic" lengthAdjust="spacing" textLength="59" x="1009" y="1342.3535">«factory»</text><text fill="#000000" font-family="sans-serif" font-size="14" lengthAdjust="spacing" textLength="116" x="980.5" y="1359.9629">RepositoryFactory</text><text fill="#000000" font-family="sans-serif" font-size="14" font-style="italic" lengthAdjust="spacing" textLength="79" x="1126.5" y="65.5332">«repository»</text><text fill="#000000" font-family="sans-serif" font-size="14" lengthAdjust="spacing" textLength="105" x="1113.5" y="83.1426">OrderRepository</text><path d="M1151,15 C1151,5 1169,5 1169,5 C1169,5 1187,5 1187,15 L1187,41 C1187,51 1169,51 1169,51 C1169,51 1151,51 1151,41 L1151,15 " fill="#E2E2F0" style="stroke:#181818;stroke-width:1.5;"/><path d="M1151,15 C1151,25 1169,25 1169,25 C1169,25 1187,25 1187,15 " fill="none" style="stroke:#181818;stroke-width:1.5;"/><text fill="#000000" font-family="sans-serif" font-size="14" font-style="italic" lengthAdjust="spacing" textLength="79" x="1126.5" y="1335.3535">«repository»</text><text fill="#000000" font-family="sans-serif" font-size="14" lengthAdjust="spacing" textLength="105" x="1113.5" y="1352.9629">OrderRepository</text><path d="M1151,1366.0391 C1151,1356.0391 1169,1356.0391 1169,1356.0391 C1169,1356.0391 1187,1356.0391 1187,1366.0391 L1187,1392.0391 C1187,1402.0391 1169,1402.0391 1169,1402.0391 C1169,1402.0391 1151,1402.0391 1151,1392.0391 L1151,1366.0391 " fill="#E2E2F0" style="stroke:#181818;stroke-width:1.5;"/><path d="M1151,1366.0391 C1151,1376.0391 1169,1376.0391 1169,1376.0391 C1169,1376.0391 1187,1376.0391 1187,1366.0391 " fill="none" style="stroke:#181818;stroke-width:1.5;"/><text fill="#000000" font-family="sans-serif" font-size="14" font-style="italic" lengthAdjust="spacing" textLength="79" x="1243.5" y="65.5332">«repository»</text><text fill="#000000" font-family="sans-serif" font-size="14" lengthAdjust="spacing" textLength="97" x="1234.5" y="83.1426">AGVRepository</text><path d="M1268,15 C1268,5 1286,5 1286,5 C1286,5 1304,5 1304,15 L1304,41 C1304,51 1286,51 1286,51 C1286,51 1268,51 1268,41 L1268,15 " fill="#E2E2F0" style="stroke:#181818;stroke-width:1.5;"/><path d="M1268,15 C1268,25 1286,25 1286,25 C1286,25 1304,25 1304,15 " fill="none" style="stroke:#181818;stroke-width:1.5;"/><text fill="#000000" font-family="sans-serif" font-size="14" font-style="italic" lengthAdjust="spacing" textLength="79" x="1243.5" y="1335.3535">«repository»</text><text fill="#000000" font-family="sans-serif" font-size="14" lengthAdjust="spacing" textLength="97" x="1234.5" y="1352.9629">AGVRepository</text><path d="M1268,1366.0391 C1268,1356.0391 1286,1356.0391 1286,1356.0391 C1286,1356.0391 1304,1356.0391 1304,1366.0391 L1304,1392.0391 C1304,1402.0391 1286,1402.0391 1286,1402.0391 C1286,1402.0391 1268,1402.0391 1268,1392.0391 L1268,1366.0391 " fill="#E2E2F0" style="stroke:#181818;stroke-width:1.5;"/><path d="M1268,1366.0391 C1268,1376.0391 1286,1376.0391 1286,1376.0391 C1286,1376.0391 1304,1376.0391 1304,1366.0391 " fill="none" style="stroke:#181818;stroke-width:1.5;"/><rect fill="#FFFFFF" height="1207.6016" style="stroke:#181818;stroke-width:1.0;" width="10" x="72.5" y="96.2188"/><rect fill="#FFFFFF" height="440.2188" style="stroke:#181818;stroke-width:1.0;" width="10" x="336.5" y="134.9219"/><rect fill="#FFFFFF" height="349.5156" style="stroke:#181818;stroke-width:1.0;" width="10" x="336.5" y="605.4922"/><rect fill="#FFFFFF" height="318.4609" style="stroke:#181818;stroke-width:1.0;" width="10" x="336.5" y="985.3594"/><rect fill="#FFFFFF" height="30" style="stroke:#181818;stroke-width:1.0;" width="10" x="722.5" y="165.2734"/><rect fill="#FFFFFF" height="302.8125" style="stroke:#181818;stroke-width:1.0;" width="10" x="722.5" y="225.625"/><rect fill="#FFFFFF" height="60.3516" style="stroke:#181818;stroke-width:1.0;" width="10" x="722.5" y="635.8438"/><rect fill="#FFFFFF" height="181.7578" style="stroke:#181818;stroke-width:1.0;" width="10" x="722.5" y="726.5469"/><rect fill="#FFFFFF" height="30" style="stroke:#181818;stroke-width:1.0;" width="10" x="722.5" y="1015.7109"/><rect fill="#FFFFFF" height="236.7578" style="stroke:#181818;stroke-width:1.0;" width="10" x="722.5" y="1076.0625"/><rect fill="#FFFFFF" height="90.7031" style="stroke:#181818;stroke-width:1.0;" width="10" x="890.5" y="255.9766"/><rect fill="#FFFFFF" height="30" style="stroke:#181818;stroke-width:1.0;" width="10" x="1033.5" y="286.3281"/><rect fill="#FFFFFF" height="90.7031" style="stroke:#181818;stroke-width:1.0;" width="10" x="1033.5" y="377.0313"/><rect fill="#FFFFFF" height="90.7031" style="stroke:#181818;stroke-width:1.0;" width="10" x="1033.5" y="756.8984"/><rect fill="#FFFFFF" height="30" style="stroke:#181818;stroke-width:1.0;" width="10" x="1164" y="407.3828"/><rect fill="#FFFFFF" height="30.3516" style="stroke:#181818;stroke-width:1.0;" width="10" x="1164" y="498.0859"/><rect fill="#FFFFFF" height="30" style="stroke:#181818;stroke-width:1.0;" width="10" x="1164" y="666.1953"/><rect fill="#FFFFFF" height="30" style="stroke:#181818;stroke-width:1.0;" width="10" x="1164" y="1106.4141"/><rect fill="#FFFFFF" height="30" style="stroke:#181818;stroke-width:1.0;" width="10" x="1164" y="1166.7656"/><rect fill="#FFFFFF" height="30" style="stroke:#181818;stroke-width:1.0;" width="10" x="1281" y="787.25"/><rect fill="#FFFFFF" height="30.3516" style="stroke:#181818;stroke-width:1.0;" width="10" x="1281" y="877.9531"/><rect fill="#FFFFFF" height="30" style="stroke:#181818;stroke-width:1.0;" width="10" x="1281" y="1227.1172"/><polygon fill="#181818" points="324.5,130.9219,334.5,134.9219,324.5,138.9219,328.5,134.9219" style="stroke:#181818;stroke-width:1.0;"/><line style="stroke:#181818;stroke-width:1.0;" x1="82.5" x2="330.5" y1="134.9219" y2="134.9219"/><text fill="#000000" font-family="sans-serif" font-size="13" font-weight="bold" lengthAdjust="spacing" textLength="7" x="89.5" y="121.8896">1</text><text fill="#000000" font-family="sans-serif" font-size="13" lengthAdjust="spacing" textLength="185" x="100.5" y="113.7139">Request to see the list of orders</text><text fill="#000000" font-family="sans-serif" font-size="13" lengthAdjust="spacing" textLength="127" x="100.5" y="130.0654">waiting to be prepared</text><polygon fill="#181818" points="710.5,161.2734,720.5,165.2734,710.5,169.2734,714.5,165.2734" style="stroke:#181818;stroke-width:1.0;"/><line style="stroke:#181818;stroke-width:1.0;" x1="346.5" x2="716.5" y1="165.2734" y2="165.2734"/><text fill="#000000" font-family="sans-serif" font-size="13" font-weight="bold" lengthAdjust="spacing" textLength="7" x="353.5" y="160.417">2</text><text fill="#000000" font-family="sans-serif" font-size="13" lengthAdjust="spacing" textLength="36" x="364.5" y="160.417">create</text><polygon fill="#181818" points="710.5,221.625,720.5,225.625,710.5,229.625,714.5,225.625" style="stroke:#181818;stroke-width:1.0;"/><line style="stroke:#181818;stroke-width:1.0;" x1="346.5" x2="716.5" y1="225.625" y2="225.625"/><text fill="#000000" font-family="sans-serif" font-size="13" font-weight="bold" lengthAdjust="spacing" textLength="7" x="353.5" y="220.7686">3</text><text fill="#000000" font-family="sans-serif" font-size="13" lengthAdjust="spacing" textLength="346" x="364.5" y="220.7686">ordersWaitingToBePreparedList = getOrdersToBePrepared()</text><polygon fill="#181818" points="878.5,251.9766,888.5,255.9766,878.5,259.9766,882.5,255.9766" style="stroke:#181818;stroke-width:1.0;"/><line style="stroke:#181818;stroke-width:1.0;" x1="732.5" x2="884.5" y1="255.9766" y2="255.9766"/><text fill="#000000" font-family="sans-serif" font-size="13" font-weight="bold" lengthAdjust="spacing" textLength="7" x="739.5" y="251.1201">4</text><text fill="#000000" font-family="sans-serif" font-size="13" lengthAdjust="spacing" textLength="75" x="750.5" y="251.1201">repositories()</text><polygon fill="#181818" points="1021.5,282.3281,1031.5,286.3281,1021.5,290.3281,1025.5,286.3281" style="stroke:#181818;stroke-width:1.0;"/><line style="stroke:#181818;stroke-width:1.0;" x1="900.5" x2="1027.5" y1="286.3281" y2="286.3281"/><text fill="#000000" font-family="sans-serif" font-size="13" font-weight="bold" lengthAdjust="spacing" textLength="7" x="907.5" y="281.4717">5</text><text fill="#000000" font-family="sans-serif" font-size="13" lengthAdjust="spacing" textLength="44" x="918.5" y="281.4717">create()</text><polygon fill="#181818" points="743.5,342.6797,733.5,346.6797,743.5,350.6797,739.5,346.6797" style="stroke:#181818;stroke-width:1.0;"/><line style="stroke:#181818;stroke-width:1.0;stroke-dasharray:2.0,2.0;" x1="737.5" x2="894.5" y1="346.6797" y2="346.6797"/><text fill="#000000" font-family="sans-serif" font-size="13" font-weight="bold" lengthAdjust="spacing" textLength="7" x="749.5" y="341.8232">6</text><text fill="#000000" font-family="sans-serif" font-size="13" lengthAdjust="spacing" textLength="101" x="760.5" y="341.8232">repositoryFactory</text><polygon fill="#181818" points="1021.5,373.0313,1031.5,377.0313,1021.5,381.0313,1025.5,377.0313" style="stroke:#181818;stroke-width:1.0;"/><line style="stroke:#181818;stroke-width:1.0;" x1="732.5" x2="1027.5" y1="377.0313" y2="377.0313"/><text fill="#000000" font-family="sans-serif" font-size="13" font-weight="bold" lengthAdjust="spacing" textLength="7" x="739.5" y="372.1748">7</text><text fill="#000000" font-family="sans-serif" font-size="13" lengthAdjust="spacing" textLength="120" x="750.5" y="372.1748">getOrderRepository()</text><polygon fill="#181818" points="1152,403.3828,1162,407.3828,1152,411.3828,1156,407.3828" style="stroke:#181818;stroke-width:1.0;"/><line style="stroke:#181818;stroke-width:1.0;" x1="1043.5" x2="1158" y1="407.3828" y2="407.3828"/><text fill="#000000" font-family="sans-serif" font-size="13" font-weight="bold" lengthAdjust="spacing" textLength="7" x="1050.5" y="402.5264">8</text><text fill="#000000" font-family="sans-serif" font-size="13" lengthAdjust="spacing" textLength="44" x="1061.5" y="402.5264">create()</text><polygon fill="#181818" points="743.5,463.7344,733.5,467.7344,743.5,471.7344,739.5,467.7344" style="stroke:#181818;stroke-width:1.0;"/><line style="stroke:#181818;stroke-width:1.0;stroke-dasharray:2.0,2.0;" x1="737.5" x2="1037.5" y1="467.7344" y2="467.7344"/><text fill="#000000" font-family="sans-serif" font-size="13" font-weight="bold" lengthAdjust="spacing" textLength="7" x="749.5" y="462.8779">9</text><text fill="#000000" font-family="sans-serif" font-size="13" lengthAdjust="spacing" textLength="91" x="760.5" y="462.8779">orderRepository</text><polygon fill="#181818" points="1152,494.0859,1162,498.0859,1152,502.0859,1156,498.0859" style="stroke:#181818;stroke-width:1.0;"/><line style="stroke:#181818;stroke-width:1.0;" x1="732.5" x2="1158" y1="498.0859" y2="498.0859"/><text fill="#000000" font-family="sans-serif" font-size="13" font-weight="bold" lengthAdjust="spacing" textLength="14" x="739.5" y="493.2295">10</text><text fill="#000000" font-family="sans-serif" font-size="13" lengthAdjust="spacing" textLength="192" x="757.5" y="493.2295">getProductOrdersToBePrepared()</text><polygon fill="#181818" points="738.5,524.4375,728.5,528.4375,738.5,532.4375,734.5,528.4375" style="stroke:#181818;stroke-width:1.0;"/><line style="stroke:#181818;stroke-width:1.0;stroke-dasharray:2.0,2.0;" x1="732.5" x2="1168" y1="528.4375" y2="528.4375"/><text fill="#000000" font-family="sans-serif" font-size="13" font-weight="bold" lengthAdjust="spacing" textLength="14" x="744.5" y="523.5811">11</text><text fill="#000000" font-family="sans-serif" font-size="13" lengthAdjust="spacing" textLength="139" x="762.5" y="523.5811">ordersToBePreparedList</text><polygon fill="#181818" points="93.5,571.1406,83.5,575.1406,93.5,579.1406,89.5,575.1406" style="stroke:#181818;stroke-width:1.0;"/><line style="stroke:#181818;stroke-width:1.0;stroke-dasharray:2.0,2.0;" x1="87.5" x2="340.5" y1="575.1406" y2="575.1406"/><text fill="#000000" font-family="sans-serif" font-size="13" font-weight="bold" lengthAdjust="spacing" textLength="14" x="99.5" y="562.1084">12</text><text fill="#000000" font-family="sans-serif" font-size="13" lengthAdjust="spacing" textLength="173" x="117.5" y="553.9326">Shows orders and requests to</text><text fill="#000000" font-family="sans-serif" font-size="13" lengthAdjust="spacing" textLength="60" x="117.5" y="570.2842">select one</text><polygon fill="#181818" points="324.5,601.4922,334.5,605.4922,324.5,609.4922,328.5,605.4922" style="stroke:#181818;stroke-width:1.0;"/><line style="stroke:#181818;stroke-width:1.0;" x1="82.5" x2="330.5" y1="605.4922" y2="605.4922"/><text fill="#000000" font-family="sans-serif" font-size="13" font-weight="bold" lengthAdjust="spacing" textLength="14" x="89.5" y="600.6357">13</text><text fill="#000000" font-family="sans-serif" font-size="13" lengthAdjust="spacing" textLength="145" x="107.5" y="600.6357">Selects the desired order</text><polygon fill="#181818" points="710.5,631.8438,720.5,635.8438,710.5,639.8438,714.5,635.8438" style="stroke:#181818;stroke-width:1.0;"/><line style="stroke:#181818;stroke-width:1.0;" x1="346.5" x2="716.5" y1="635.8438" y2="635.8438"/><text fill="#000000" font-family="sans-serif" font-size="13" font-weight="bold" lengthAdjust="spacing" textLength="14" x="353.5" y="630.9873">14</text><text fill="#000000" font-family="sans-serif" font-size="13" lengthAdjust="spacing" textLength="105" x="371.5" y="630.9873">saveOrder(orderId)</text><polygon fill="#181818" points="1152,662.1953,1162,666.1953,1152,670.1953,1156,666.1953" style="stroke:#181818;stroke-width:1.0;"/><line style="stroke:#181818;stroke-width:1.0;" x1="732.5" x2="1158" y1="666.1953" y2="666.1953"/><text fill="#000000" font-family="sans-serif" font-size="13" font-weight="bold" lengthAdjust="spacing" textLength="14" x="739.5" y="661.3389">15</text><text fill="#000000" font-family="sans-serif" font-size="13" lengthAdjust="spacing" textLength="259" x="757.5" y="661.3389">productOrder = getProductOrderById(orderId)</text><polygon fill="#181818" points="710.5,722.5469,720.5,726.5469,710.5,730.5469,714.5,726.5469" style="stroke:#181818;stroke-width:1.0;"/><line style="stroke:#181818;stroke-width:1.0;" x1="346.5" x2="716.5" y1="726.5469" y2="726.5469"/><text fill="#000000" font-family="sans-serif" font-size="13" font-weight="bold" lengthAdjust="spacing" textLength="14" x="353.5" y="721.6904">16</text><text fill="#000000" font-family="sans-serif" font-size="13" lengthAdjust="spacing" textLength="234" x="371.5" y="721.6904">availableAGVlist = showAvailableAGVs()</text><polygon fill="#181818" points="1021.5,752.8984,1031.5,756.8984,1021.5,760.8984,1025.5,756.8984" style="stroke:#181818;stroke-width:1.0;"/><line style="stroke:#181818;stroke-width:1.0;" x1="732.5" x2="1027.5" y1="756.8984" y2="756.8984"/><text fill="#000000" font-family="sans-serif" font-size="13" font-weight="bold" lengthAdjust="spacing" textLength="14" x="739.5" y="752.042">17</text><text fill="#000000" font-family="sans-serif" font-size="13" lengthAdjust="spacing" textLength="116" x="757.5" y="752.042">getAGVRepository()</text><polygon fill="#181818" points="1269,783.25,1279,787.25,1269,791.25,1273,787.25" style="stroke:#181818;stroke-width:1.0;"/><line style="stroke:#181818;stroke-width:1.0;" x1="1043.5" x2="1275" y1="787.25" y2="787.25"/><text fill="#000000" font-family="sans-serif" font-size="13" font-weight="bold" lengthAdjust="spacing" textLength="14" x="1050.5" y="782.3936">18</text><text fill="#000000" font-family="sans-serif" font-size="13" lengthAdjust="spacing" textLength="44" x="1068.5" y="782.3936">create()</text><polygon fill="#181818" points="743.5,843.6016,733.5,847.6016,743.5,851.6016,739.5,847.6016" style="stroke:#181818;stroke-width:1.0;"/><line style="stroke:#181818;stroke-width:1.0;stroke-dasharray:2.0,2.0;" x1="737.5" x2="1037.5" y1="847.6016" y2="847.6016"/><text fill="#000000" font-family="sans-serif" font-size="13" font-weight="bold" lengthAdjust="spacing" textLength="14" x="749.5" y="842.7451">19</text><text fill="#000000" font-family="sans-serif" font-size="13" lengthAdjust="spacing" textLength="81" x="767.5" y="842.7451">agvRepository</text><polygon fill="#181818" points="1269,873.9531,1279,877.9531,1269,881.9531,1273,877.9531" style="stroke:#181818;stroke-width:1.0;"/><line style="stroke:#181818;stroke-width:1.0;" x1="732.5" x2="1275" y1="877.9531" y2="877.9531"/><text fill="#000000" font-family="sans-serif" font-size="13" font-weight="bold" lengthAdjust="spacing" textLength="14" x="739.5" y="873.0967">20</text><text fill="#000000" font-family="sans-serif" font-size="13" lengthAdjust="spacing" textLength="112" x="757.5" y="873.0967">getAGVsAvailable()</text><polygon fill="#181818" points="738.5,904.3047,728.5,908.3047,738.5,912.3047,734.5,908.3047" style="stroke:#181818;stroke-width:1.0;"/><line style="stroke:#181818;stroke-width:1.0;stroke-dasharray:2.0,2.0;" x1="732.5" x2="1285" y1="908.3047" y2="908.3047"/><text fill="#000000" font-family="sans-serif" font-size="13" font-weight="bold" lengthAdjust="spacing" textLength="14" x="744.5" y="903.4482">21</text><text fill="#000000" font-family="sans-serif" font-size="13" lengthAdjust="spacing" textLength="77" x="762.5" y="903.4482">agvsAvailable</text><polygon fill="#181818" points="93.5,951.0078,83.5,955.0078,93.5,959.0078,89.5,955.0078" style="stroke:#181818;stroke-width:1.0;"/><line style="stroke:#181818;stroke-width:1.0;stroke-dasharray:2.0,2.0;" x1="87.5" x2="340.5" y1="955.0078" y2="955.0078"/><text fill="#000000" font-family="sans-serif" font-size="13" font-weight="bold" lengthAdjust="spacing" textLength="14" x="99.5" y="941.9756">22</text><text fill="#000000" font-family="sans-serif" font-size="13" lengthAdjust="spacing" textLength="154" x="117.5" y="933.7998">shows available AGVs and</text><text fill="#000000" font-family="sans-serif" font-size="13" lengthAdjust="spacing" textLength="122" x="117.5" y="950.1514">request to select one</text><polygon fill="#181818" points="324.5,981.3594,334.5,985.3594,324.5,989.3594,328.5,985.3594" style="stroke:#181818;stroke-width:1.0;"/><line style="stroke:#181818;stroke-width:1.0;" x1="82.5" x2="330.5" y1="985.3594" y2="985.3594"/><text fill="#000000" font-family="sans-serif" font-size="13" font-weight="bold" lengthAdjust="spacing" textLength="14" x="89.5" y="980.5029">23</text><text fill="#000000" font-family="sans-serif" font-size="13" lengthAdjust="spacing" textLength="144" x="107.5" y="980.5029">Selects the desired AGV</text><polygon fill="#181818" points="710.5,1011.7109,720.5,1015.7109,710.5,1019.7109,714.5,1015.7109" style="stroke:#181818;stroke-width:1.0;"/><line style="stroke:#181818;stroke-width:1.0;" x1="346.5" x2="716.5" y1="1015.7109" y2="1015.7109"/><text fill="#000000" font-family="sans-serif" font-size="13" font-weight="bold" lengthAdjust="spacing" textLength="14" x="353.5" y="1010.8545">24</text><text fill="#000000" font-family="sans-serif" font-size="13" lengthAdjust="spacing" textLength="91" x="371.5" y="1010.8545">saveAGV(agvId)</text><polygon fill="#181818" points="710.5,1072.0625,720.5,1076.0625,710.5,1080.0625,714.5,1076.0625" style="stroke:#181818;stroke-width:1.0;"/><line style="stroke:#181818;stroke-width:1.0;" x1="346.5" x2="716.5" y1="1076.0625" y2="1076.0625"/><text fill="#000000" font-family="sans-serif" font-size="13" font-weight="bold" lengthAdjust="spacing" textLength="14" x="353.5" y="1071.2061">25</text><text fill="#000000" font-family="sans-serif" font-size="13" lengthAdjust="spacing" textLength="95" x="371.5" y="1071.2061">forceOrderPrep()</text><polygon fill="#181818" points="1152,1102.4141,1162,1106.4141,1152,1110.4141,1156,1106.4141" style="stroke:#181818;stroke-width:1.0;"/><line style="stroke:#181818;stroke-width:1.0;" x1="732.5" x2="1158" y1="1106.4141" y2="1106.4141"/><text fill="#000000" font-family="sans-serif" font-size="13" font-weight="bold" lengthAdjust="spacing" textLength="14" x="739.5" y="1101.5576">26</text><text fill="#000000" font-family="sans-serif" font-size="13" lengthAdjust="spacing" textLength="172" x="757.5" y="1101.5576">preparedByAGV(agvSelected)</text><polygon fill="#181818" points="1152,1162.7656,1162,1166.7656,1152,1170.7656,1156,1166.7656" style="stroke:#181818;stroke-width:1.0;"/><line style="stroke:#181818;stroke-width:1.0;" x1="732.5" x2="1158" y1="1166.7656" y2="1166.7656"/><text fill="#000000" font-family="sans-serif" font-size="13" font-weight="bold" lengthAdjust="spacing" textLength="14" x="739.5" y="1161.9092">27</text><text fill="#000000" font-family="sans-serif" font-size="13" lengthAdjust="spacing" textLength="232" x="757.5" y="1161.9092">changeProductOrderStatus(orderStatus)</text><polygon fill="#181818" points="1269,1223.1172,1279,1227.1172,1269,1231.1172,1273,1227.1172" style="stroke:#181818;stroke-width:1.0;"/><line style="stroke:#181818;stroke-width:1.0;" x1="732.5" x2="1275" y1="1227.1172" y2="1227.1172"/><text fill="#000000" font-family="sans-serif" font-size="13" font-weight="bold" lengthAdjust="spacing" textLength="14" x="739.5" y="1222.2607">28</text><text fill="#000000" font-family="sans-serif" font-size="13" lengthAdjust="spacing" textLength="177" x="757.5" y="1222.2607">changeAGVStatus(agvStatus))</text><polygon fill="#181818" points="88.5,1299.8203,78.5,1303.8203,88.5,1307.8203,84.5,1303.8203" style="stroke:#181818;stroke-width:1.0;"/><line style="stroke:#181818;stroke-width:1.0;stroke-dasharray:2.0,2.0;" x1="82.5" x2="340.5" y1="1303.8203" y2="1303.8203"/><text fill="#000000" font-family="sans-serif" font-size="13" font-weight="bold" lengthAdjust="spacing" textLength="14" x="94.5" y="1290.7881">29</text><text fill="#000000" font-family="sans-serif" font-size="13" lengthAdjust="spacing" textLength="164" x="112.5" y="1282.6123">sent's task to AGV, updates</text><text fill="#000000" font-family="sans-serif" font-size="13" lengthAdjust="spacing" textLength="212" x="112.5" y="1298.9639">status and shows operation success</text><!--MD5=[aaf9daddaa15787be6f5626f605f7827]
@startuml
autonumber
actor "Warehouse Employee" as WE
participant "ForceOrderPrepUI" as UI
participant "ForceOrderPrepController" as CTR
participant PersistenceContext as PERSISTENCE <<persistence>>
participant RepositoryFactory as FACTORY <<factory>>
database OrderRepository as REPOSITORY_ORDERS <<repository>>
database AGVRepository as REPOSITORY_AGV <<repository>>


activate WE
WE -> UI : Request to see the list of orders \nwaiting to be prepared
activate UI
UI -> CTR : create
activate CTR
deactivate CTR
UI -> CTR : ordersWaitingToBePreparedList = getOrdersToBePrepared()
activate CTR

CTR -> PERSISTENCE : repositories()

activate PERSISTENCE

PERSISTENCE -> FACTORY : create()

activate FACTORY
deactivate FACTORY

PERSISTENCE - -> CTR : repositoryFactory

deactivate PERSISTENCE

CTR -> FACTORY : getOrderRepository()

activate FACTORY

FACTORY -> REPOSITORY_ORDERS : create()

activate REPOSITORY_ORDERS
deactivate REPOSITORY_ORDERS

FACTORY - -> CTR : orderRepository
deactivate FACTORY

CTR -> REPOSITORY_ORDERS : getProductOrdersToBePrepared()

activate REPOSITORY_ORDERS

REPOSITORY_ORDERS - -> CTR : ordersToBePreparedList
deactivate REPOSITORY_ORDERS







deactivate CTR
UI - -> WE : Shows orders and requests to \nselect one
deactivate UI

WE -> UI : Selects the desired order
activate UI
UI -> CTR : saveOrder(orderId)
activate CTR
CTR -> REPOSITORY_ORDERS : productOrder = getProductOrderById(orderId)
activate REPOSITORY_ORDERS
deactivate REPOSITORY_ORDERS
deactivate CTR
UI -> CTR : availableAGVlist = showAvailableAGVs()
activate CTR



CTR -> FACTORY : getAGVRepository()

activate FACTORY

FACTORY -> REPOSITORY_AGV : create()

activate REPOSITORY_AGV
deactivate REPOSITORY_AGV

FACTORY - -> CTR : agvRepository
deactivate FACTORY

CTR -> REPOSITORY_AGV : getAGVsAvailable()

activate REPOSITORY_AGV

REPOSITORY_AGV - -> CTR : agvsAvailable
deactivate REPOSITORY_AGV
deactivate CTR
UI - -> WE : shows available AGVs and \nrequest to select one
deactivate UI

WE -> UI : Selects the desired AGV
activate UI
UI -> CTR : saveAGV(agvId)
activate CTR
deactivate CTR
UI -> CTR : forceOrderPrep()
activate CTR
CTR -> REPOSITORY_ORDERS : preparedByAGV(agvSelected)
activate REPOSITORY_ORDERS
deactivate REPOSITORY_ORDERS
CTR -> REPOSITORY_ORDERS : changeProductOrderStatus(orderStatus)
activate REPOSITORY_ORDERS
deactivate REPOSITORY_ORDERS
CTR -> REPOSITORY_AGV : changeAGVStatus(agvStatus))
activate REPOSITORY_AGV
deactivate REPOSITORY_AGV

UI - -> WE : sent's task to AGV, updates \nstatus and shows operation success
deactivate UI

deactivate WE

@enduml

PlantUML version 1.2022.4(Sat Apr 09 14:29:17 BST 2022)
(GPL source distribution)
Java Runtime: OpenJDK Runtime Environment
JVM: OpenJDK 64-Bit Server VM
Default Encoding: Cp1252
Language: pt
Country: PT
--></g></svg>