<?xml version="1.0" encoding="UTF-8" standalone="no"?><svg xmlns="http://www.w3.org/2000/svg" xmlns:xlink="http://www.w3.org/1999/xlink" contentScriptType="application/ecmascript" contentStyleType="text/css" height="489px" preserveAspectRatio="none" style="width:913px;height:489px;background:#FFFFFF;" version="1.1" viewBox="0 0 913 489" width="913px" zoomAndPan="magnify"><defs><filter height="300%" id="f1fsrcmhnwbvgc" width="300%" x="-1" y="-1"><feGaussianBlur result="blurOut" stdDeviation="2.0"/><feColorMatrix in="blurOut" result="blurOut2" type="matrix" values="0 0 0 0 0 0 0 0 0 0 0 0 0 0 0 0 0 0 .4 0"/><feOffset dx="4.0" dy="4.0" in="blurOut2" result="blurOut3"/><feBlend in="SourceGraphic" in2="blurOut3" mode="normal"/></filter></defs><g><!--MD5=[cd1e467dd42714edd782c72995bbc617]
cluster <<aggregate>> Product--><polygon fill="#FFFFFF" filter="url(#f1fsrcmhnwbvgc)" points="16,6,185,6,192,29.6094,896,29.6094,896,358,16,358,16,6" style="stroke:#000000;stroke-width:1.5;"/><line style="stroke:#000000;stroke-width:1.5;" x1="16" x2="192" y1="29.6094" y2="29.6094"/><text fill="#000000" font-family="sans-serif" font-size="14" font-weight="bold" lengthAdjust="spacing" textLength="163" x="20" y="22.5332">&lt;&lt;aggregate&gt;&gt; Product</text><!--MD5=[72136138052d025cffdce3c22fbd185f]
class Product--><rect codeLine="17" fill="#F5F5DC" filter="url(#f1fsrcmhnwbvgc)" height="132.4609" id="Product" style="stroke:#A80036;stroke-width:1.5;" width="147" x="378.5" y="42"/><ellipse cx="426.75" cy="69.6406" fill="#ADD1B2" rx="11" ry="11" style="stroke:#A80036;stroke-width:1.0;"/><path d="M425.25,70.6406 L425.25,72.6406 L429.25,72.6406 L429.25,71.6406 L429.25,71.1563 L429.875,70.6406 L430.25,70.6406 L430.625,70.6406 L431.25,71.1563 L431.25,71.6406 L431.25,74.6406 L423.25,74.6406 L422.7656,74.6406 L422.25,74.0156 L422.25,73.6406 L422.25,73.2656 L422.7656,72.6406 L423.25,72.6406 L423.25,72.6406 L423.25,66.6406 L423.25,66.6406 L422.7656,66.6406 L422.25,66.0156 L422.25,65.6406 L422.25,65.2656 L422.7656,64.6406 L423.25,64.6406 L431.25,64.6406 L431.25,67.6406 L431.25,68.125 L430.625,68.6406 L430.25,68.6406 L429.875,68.6406 L429.25,68.125 L429.25,67.6406 L429.25,66.6406 L425.25,66.6406 L425.25,68.6406 L426.25,68.6406 L426.25,68.1563 L426.25,68.1563 L426.875,67.6406 L427.25,67.6406 L427.625,67.6406 L428.25,68.1563 L428.25,68.6406 L428.25,70.6406 L428.25,71.125 L427.625,71.6406 L427.625,71.6406 L427.25,71.6406 L426.875,71.6406 L426.25,71.125 L426.25,71.125 L426.25,70.6406 L425.25,70.6406 Z " fill="#000000"/><text fill="#000000" font-family="sans-serif" font-size="12" font-style="italic" lengthAdjust="spacing" textLength="43" x="446.75" y="59.457">«entity»</text><text fill="#000000" font-family="sans-serif" font-size="12" font-style="italic" lengthAdjust="spacing" textLength="35" x="450.75" y="74.5508">«root»</text><text fill="#000000" font-family="sans-serif" font-size="12" lengthAdjust="spacing" textLength="42" x="447.25" y="89.6445">Product</text><line style="stroke:#A80036;stroke-width:1.5;" x1="379.5" x2="524.5" y1="97.2813" y2="97.2813"/><text fill="#000000" font-family="sans-serif" font-size="11" lengthAdjust="spacing" textLength="115" x="384.5" y="112.7002">-«VO» ShortDescription</text><text fill="#000000" font-family="sans-serif" font-size="11" lengthAdjust="spacing" textLength="134" x="384.5" y="126.5361">-«VO» ExtendedDescription</text><text fill="#000000" font-family="sans-serif" font-size="11" lengthAdjust="spacing" textLength="135" x="384.5" y="140.3721">-«VO» TechnicalDescription</text><text fill="#000000" font-family="sans-serif" font-size="11" lengthAdjust="spacing" textLength="115" x="384.5" y="154.208">-«VO» Price w/out VAT</text><text fill="#000000" font-family="sans-serif" font-size="11" lengthAdjust="spacing" textLength="72" x="384.5" y="168.0439">-«VO» Qt/unity</text><!--MD5=[5a65c26834dafa8966a522eb2bf9c438]
class Photos--><rect codeLine="37" fill="#F5F5DC" filter="url(#f1fsrcmhnwbvgc)" height="75.8594" id="Photos" style="stroke:#A80036;stroke-width:1.5;" width="109" x="32.5" y="259"/><ellipse cx="47.5" cy="279.0938" fill="#ADD1B2" rx="11" ry="11" style="stroke:#A80036;stroke-width:1.0;"/><path d="M49.5,275.5938 Q49.7031,275.0938 49.9375,274.8438 Q50.1719,274.5938 50.4375,274.5938 Q50.9063,274.5938 51.2031,274.875 Q51.5,275.1563 51.5,275.8125 L51.5,277.375 Q51.5,278.0313 51.2188,278.3125 Q50.9375,278.5938 50.5,278.5938 Q50.1094,278.5938 49.8594,278.4219 Q49.6094,278.25 49.5,277.7969 Q49.4531,277.4844 49.2813,277.3125 Q48.9688,276.9844 48.4063,276.7969 Q47.8438,276.5938 47.2813,276.5938 Q46.5781,276.5938 45.9844,276.875 Q45.4063,277.1563 44.9531,277.7813 Q44.5,278.4063 44.5,279.2656 L44.5,280.1875 Q44.5,281.2188 45.3438,281.9063 Q46.1875,282.5938 47.6875,282.5938 Q48.5781,282.5938 49.2031,282.3906 Q49.5625,282.2813 49.9688,281.9219 Q50.2344,281.7188 50.375,281.6563 Q50.5156,281.5938 50.6875,281.5938 Q51.0156,281.5938 51.25,281.8594 Q51.5,282.1094 51.5,282.4688 Q51.5,282.8125 51.1563,283.2188 Q50.6563,283.8125 49.8594,284.1406 Q48.8125,284.5938 47.5313,284.5938 Q46.0313,284.5938 44.8281,284 Q43.8594,283.5313 43.1719,282.5156 Q42.5,281.5 42.5,280.2969 L42.5,279.2031 Q42.5,277.9531 43.0938,276.8594 Q43.7031,275.7656 44.75,275.1875 Q45.8125,274.5938 47,274.5938 Q47.7188,274.5938 48.3438,274.8438 Q48.9688,275.0938 49.5,275.5938 Z " fill="#000000"/><text fill="#000000" font-family="sans-serif" font-size="12" font-style="italic" lengthAdjust="spacing" textLength="81" x="59.5" y="276.457">«value object»</text><text fill="#000000" font-family="sans-serif" font-size="12" lengthAdjust="spacing" textLength="39" x="80.5" y="291.5508">Photos</text><line style="stroke:#A80036;stroke-width:1.5;" x1="33.5" x2="140.5" y1="299.1875" y2="299.1875"/><text fill="#000000" font-family="sans-serif" font-size="11" lengthAdjust="spacing" textLength="54" x="38.5" y="314.6064">-PhotosList</text><text fill="#000000" font-family="sans-serif" font-size="11" lengthAdjust="spacing" textLength="58" x="38.5" y="328.4424">-Description</text><!--MD5=[a96594a83e2ecdc78cbf17c2ddf01934]
class Category--><rect codeLine="27" fill="#F5F5DC" filter="url(#f1fsrcmhnwbvgc)" height="89.6953" id="Category" style="stroke:#A80036;stroke-width:1.5;" width="115" x="176.5" y="252"/><ellipse cx="194.2" cy="272.0938" fill="#ADD1B2" rx="11" ry="11" style="stroke:#A80036;stroke-width:1.0;"/><path d="M196.2,268.5938 Q196.4031,268.0938 196.6375,267.8438 Q196.8719,267.5938 197.1375,267.5938 Q197.6063,267.5938 197.9031,267.875 Q198.2,268.1563 198.2,268.8125 L198.2,270.375 Q198.2,271.0313 197.9188,271.3125 Q197.6375,271.5938 197.2,271.5938 Q196.8094,271.5938 196.5594,271.4219 Q196.3094,271.25 196.2,270.7969 Q196.1531,270.4844 195.9813,270.3125 Q195.6688,269.9844 195.1063,269.7969 Q194.5438,269.5938 193.9813,269.5938 Q193.2781,269.5938 192.6844,269.875 Q192.1063,270.1563 191.6531,270.7813 Q191.2,271.4063 191.2,272.2656 L191.2,273.1875 Q191.2,274.2188 192.0438,274.9063 Q192.8875,275.5938 194.3875,275.5938 Q195.2781,275.5938 195.9031,275.3906 Q196.2625,275.2813 196.6688,274.9219 Q196.9344,274.7188 197.075,274.6563 Q197.2156,274.5938 197.3875,274.5938 Q197.7156,274.5938 197.95,274.8594 Q198.2,275.1094 198.2,275.4688 Q198.2,275.8125 197.8563,276.2188 Q197.3563,276.8125 196.5594,277.1406 Q195.5125,277.5938 194.2313,277.5938 Q192.7313,277.5938 191.5281,277 Q190.5594,276.5313 189.8719,275.5156 Q189.2,274.5 189.2,273.2969 L189.2,272.2031 Q189.2,270.9531 189.7938,269.8594 Q190.4031,268.7656 191.45,268.1875 Q192.5125,267.5938 193.7,267.5938 Q194.4188,267.5938 195.0438,267.8438 Q195.6688,268.0938 196.2,268.5938 Z " fill="#000000"/><text fill="#000000" font-family="sans-serif" font-size="12" font-style="italic" lengthAdjust="spacing" textLength="81" x="206.8" y="269.457">«value object»</text><text fill="#000000" font-family="sans-serif" font-size="12" lengthAdjust="spacing" textLength="49" x="222.8" y="284.5508">Category</text><line style="stroke:#A80036;stroke-width:1.5;" x1="177.5" x2="290.5" y1="292.1875" y2="292.1875"/><text fill="#000000" font-family="sans-serif" font-size="11" lengthAdjust="spacing" textLength="99" x="182.5" y="307.6064">-AlphaNumeric Code</text><text fill="#000000" font-family="sans-serif" font-size="11" lengthAdjust="spacing" textLength="103" x="182.5" y="321.4424">-ExtendedDescription</text><text fill="#000000" font-family="sans-serif" font-size="11" lengthAdjust="spacing" textLength="77" x="182.5" y="335.2783">-SuperCategory</text><!--MD5=[8a78b94ac034f628eee9959bc26304be]
class Brand--><rect codeLine="48" fill="#F5F5DC" filter="url(#f1fsrcmhnwbvgc)" height="48.1875" id="Brand" style="stroke:#A80036;stroke-width:1.5;" width="109" x="326.5" y="273"/><ellipse cx="341.5" cy="293.0938" fill="#ADD1B2" rx="11" ry="11" style="stroke:#A80036;stroke-width:1.0;"/><path d="M343.5,289.5938 Q343.7031,289.0938 343.9375,288.8438 Q344.1719,288.5938 344.4375,288.5938 Q344.9063,288.5938 345.2031,288.875 Q345.5,289.1563 345.5,289.8125 L345.5,291.375 Q345.5,292.0313 345.2188,292.3125 Q344.9375,292.5938 344.5,292.5938 Q344.1094,292.5938 343.8594,292.4219 Q343.6094,292.25 343.5,291.7969 Q343.4531,291.4844 343.2813,291.3125 Q342.9688,290.9844 342.4063,290.7969 Q341.8438,290.5938 341.2813,290.5938 Q340.5781,290.5938 339.9844,290.875 Q339.4063,291.1563 338.9531,291.7813 Q338.5,292.4063 338.5,293.2656 L338.5,294.1875 Q338.5,295.2188 339.3438,295.9063 Q340.1875,296.5938 341.6875,296.5938 Q342.5781,296.5938 343.2031,296.3906 Q343.5625,296.2813 343.9688,295.9219 Q344.2344,295.7188 344.375,295.6563 Q344.5156,295.5938 344.6875,295.5938 Q345.0156,295.5938 345.25,295.8594 Q345.5,296.1094 345.5,296.4688 Q345.5,296.8125 345.1563,297.2188 Q344.6563,297.8125 343.8594,298.1406 Q342.8125,298.5938 341.5313,298.5938 Q340.0313,298.5938 338.8281,298 Q337.8594,297.5313 337.1719,296.5156 Q336.5,295.5 336.5,294.2969 L336.5,293.2031 Q336.5,291.9531 337.0938,290.8594 Q337.7031,289.7656 338.75,289.1875 Q339.8125,288.5938 341,288.5938 Q341.7188,288.5938 342.3438,288.8438 Q342.9688,289.0938 343.5,289.5938 Z " fill="#000000"/><text fill="#000000" font-family="sans-serif" font-size="12" font-style="italic" lengthAdjust="spacing" textLength="81" x="353.5" y="290.457">«value object»</text><text fill="#000000" font-family="sans-serif" font-size="12" lengthAdjust="spacing" textLength="33" x="377.5" y="305.5508">Brand</text><line style="stroke:#A80036;stroke-width:1.5;" x1="327.5" x2="434.5" y1="313.1875" y2="313.1875"/><!--MD5=[e59bda2572a266093cda22ac34510ea0]
class Barcode--><rect codeLine="42" fill="#F5F5DC" filter="url(#f1fsrcmhnwbvgc)" height="75.8594" id="Barcode" style="stroke:#A80036;stroke-width:1.5;" width="109" x="470.5" y="259"/><ellipse cx="485.5" cy="279.0938" fill="#ADD1B2" rx="11" ry="11" style="stroke:#A80036;stroke-width:1.0;"/><path d="M487.5,275.5938 Q487.7031,275.0938 487.9375,274.8438 Q488.1719,274.5938 488.4375,274.5938 Q488.9063,274.5938 489.2031,274.875 Q489.5,275.1563 489.5,275.8125 L489.5,277.375 Q489.5,278.0313 489.2188,278.3125 Q488.9375,278.5938 488.5,278.5938 Q488.1094,278.5938 487.8594,278.4219 Q487.6094,278.25 487.5,277.7969 Q487.4531,277.4844 487.2813,277.3125 Q486.9688,276.9844 486.4063,276.7969 Q485.8438,276.5938 485.2813,276.5938 Q484.5781,276.5938 483.9844,276.875 Q483.4063,277.1563 482.9531,277.7813 Q482.5,278.4063 482.5,279.2656 L482.5,280.1875 Q482.5,281.2188 483.3438,281.9063 Q484.1875,282.5938 485.6875,282.5938 Q486.5781,282.5938 487.2031,282.3906 Q487.5625,282.2813 487.9688,281.9219 Q488.2344,281.7188 488.375,281.6563 Q488.5156,281.5938 488.6875,281.5938 Q489.0156,281.5938 489.25,281.8594 Q489.5,282.1094 489.5,282.4688 Q489.5,282.8125 489.1563,283.2188 Q488.6563,283.8125 487.8594,284.1406 Q486.8125,284.5938 485.5313,284.5938 Q484.0313,284.5938 482.8281,284 Q481.8594,283.5313 481.1719,282.5156 Q480.5,281.5 480.5,280.2969 L480.5,279.2031 Q480.5,277.9531 481.0938,276.8594 Q481.7031,275.7656 482.75,275.1875 Q483.8125,274.5938 485,274.5938 Q485.7188,274.5938 486.3438,274.8438 Q486.9688,275.0938 487.5,275.5938 Z " fill="#000000"/><text fill="#000000" font-family="sans-serif" font-size="12" font-style="italic" lengthAdjust="spacing" textLength="81" x="497.5" y="276.457">«value object»</text><text fill="#000000" font-family="sans-serif" font-size="12" lengthAdjust="spacing" textLength="46" x="515" y="291.5508">Barcode</text><line style="stroke:#A80036;stroke-width:1.5;" x1="471.5" x2="578.5" y1="299.1875" y2="299.1875"/><text fill="#000000" font-family="sans-serif" font-size="11" lengthAdjust="spacing" textLength="45" x="476.5" y="314.6064">-Barcode</text><text fill="#000000" font-family="sans-serif" font-size="11" lengthAdjust="spacing" textLength="29" x="476.5" y="328.4424">-Code</text><!--MD5=[3a7cf800944e5f3d9e9c59d889c61f3b]
class Reference--><rect codeLine="25" fill="#F5F5DC" filter="url(#f1fsrcmhnwbvgc)" height="48.1875" id="Reference" style="stroke:#A80036;stroke-width:1.5;" width="109" x="614.5" y="273"/><ellipse cx="629.5" cy="293.0938" fill="#ADD1B2" rx="11" ry="11" style="stroke:#A80036;stroke-width:1.0;"/><path d="M631.5,289.5938 Q631.7031,289.0938 631.9375,288.8438 Q632.1719,288.5938 632.4375,288.5938 Q632.9063,288.5938 633.2031,288.875 Q633.5,289.1563 633.5,289.8125 L633.5,291.375 Q633.5,292.0313 633.2188,292.3125 Q632.9375,292.5938 632.5,292.5938 Q632.1094,292.5938 631.8594,292.4219 Q631.6094,292.25 631.5,291.7969 Q631.4531,291.4844 631.2813,291.3125 Q630.9688,290.9844 630.4063,290.7969 Q629.8438,290.5938 629.2813,290.5938 Q628.5781,290.5938 627.9844,290.875 Q627.4063,291.1563 626.9531,291.7813 Q626.5,292.4063 626.5,293.2656 L626.5,294.1875 Q626.5,295.2188 627.3438,295.9063 Q628.1875,296.5938 629.6875,296.5938 Q630.5781,296.5938 631.2031,296.3906 Q631.5625,296.2813 631.9688,295.9219 Q632.2344,295.7188 632.375,295.6563 Q632.5156,295.5938 632.6875,295.5938 Q633.0156,295.5938 633.25,295.8594 Q633.5,296.1094 633.5,296.4688 Q633.5,296.8125 633.1563,297.2188 Q632.6563,297.8125 631.8594,298.1406 Q630.8125,298.5938 629.5313,298.5938 Q628.0313,298.5938 626.8281,298 Q625.8594,297.5313 625.1719,296.5156 Q624.5,295.5 624.5,294.2969 L624.5,293.2031 Q624.5,291.9531 625.0938,290.8594 Q625.7031,289.7656 626.75,289.1875 Q627.8125,288.5938 629,288.5938 Q629.7188,288.5938 630.3438,288.8438 Q630.9688,289.0938 631.5,289.5938 Z " fill="#000000"/><text fill="#000000" font-family="sans-serif" font-size="12" font-style="italic" lengthAdjust="spacing" textLength="81" x="641.5" y="290.457">«value object»</text><text fill="#000000" font-family="sans-serif" font-size="12" lengthAdjust="spacing" textLength="57" x="653.5" y="305.5508">Reference</text><line style="stroke:#A80036;stroke-width:1.5;" x1="615.5" x2="722.5" y1="313.1875" y2="313.1875"/><!--MD5=[f08eadd80edf125a26d903aaabdc00ef]
class ProductionCode--><rect codeLine="33" fill="#F5F5DC" filter="url(#f1fsrcmhnwbvgc)" height="48.1875" id="ProductionCode" style="stroke:#A80036;stroke-width:1.5;" width="121" x="758.5" y="273"/><ellipse cx="773.5" cy="293.0938" fill="#ADD1B2" rx="11" ry="11" style="stroke:#A80036;stroke-width:1.0;"/><path d="M775.5,289.5938 Q775.7031,289.0938 775.9375,288.8438 Q776.1719,288.5938 776.4375,288.5938 Q776.9063,288.5938 777.2031,288.875 Q777.5,289.1563 777.5,289.8125 L777.5,291.375 Q777.5,292.0313 777.2188,292.3125 Q776.9375,292.5938 776.5,292.5938 Q776.1094,292.5938 775.8594,292.4219 Q775.6094,292.25 775.5,291.7969 Q775.4531,291.4844 775.2813,291.3125 Q774.9688,290.9844 774.4063,290.7969 Q773.8438,290.5938 773.2813,290.5938 Q772.5781,290.5938 771.9844,290.875 Q771.4063,291.1563 770.9531,291.7813 Q770.5,292.4063 770.5,293.2656 L770.5,294.1875 Q770.5,295.2188 771.3438,295.9063 Q772.1875,296.5938 773.6875,296.5938 Q774.5781,296.5938 775.2031,296.3906 Q775.5625,296.2813 775.9688,295.9219 Q776.2344,295.7188 776.375,295.6563 Q776.5156,295.5938 776.6875,295.5938 Q777.0156,295.5938 777.25,295.8594 Q777.5,296.1094 777.5,296.4688 Q777.5,296.8125 777.1563,297.2188 Q776.6563,297.8125 775.8594,298.1406 Q774.8125,298.5938 773.5313,298.5938 Q772.0313,298.5938 770.8281,298 Q769.8594,297.5313 769.1719,296.5156 Q768.5,295.5 768.5,294.2969 L768.5,293.2031 Q768.5,291.9531 769.0938,290.8594 Q769.7031,289.7656 770.75,289.1875 Q771.8125,288.5938 773,288.5938 Q773.7188,288.5938 774.3438,288.8438 Q774.9688,289.0938 775.5,289.5938 Z " fill="#000000"/><text fill="#000000" font-family="sans-serif" font-size="12" font-style="italic" lengthAdjust="spacing" textLength="81" x="791.5" y="290.457">«value object»</text><text fill="#000000" font-family="sans-serif" font-size="12" lengthAdjust="spacing" textLength="89" x="787.5" y="305.5508">ProductionCode</text><line style="stroke:#A80036;stroke-width:1.5;" x1="759.5" x2="878.5" y1="313.1875" y2="313.1875"/><!--MD5=[b582e6ce3c86f1934c1c2f1f310142ca]
class Catalog--><rect codeLine="52" fill="#F5F5DC" filter="url(#f1fsrcmhnwbvgc)" height="53.8359" id="Catalog" style="stroke:#A80036;stroke-width:1.5;" width="77" x="195.5" y="422"/><ellipse cx="211.4" cy="438" fill="#ADD1B2" rx="11" ry="11" style="stroke:#A80036;stroke-width:1.0;"/><path d="M213.4,434.5 Q213.6031,434 213.8375,433.75 Q214.0719,433.5 214.3375,433.5 Q214.8063,433.5 215.1031,433.7813 Q215.4,434.0625 215.4,434.7188 L215.4,436.2813 Q215.4,436.9375 215.1188,437.2188 Q214.8375,437.5 214.4,437.5 Q214.0094,437.5 213.7594,437.3281 Q213.5094,437.1563 213.4,436.7031 Q213.3531,436.3906 213.1813,436.2188 Q212.8688,435.8906 212.3063,435.7031 Q211.7438,435.5 211.1813,435.5 Q210.4781,435.5 209.8844,435.7813 Q209.3063,436.0625 208.8531,436.6875 Q208.4,437.3125 208.4,438.1719 L208.4,439.0938 Q208.4,440.125 209.2438,440.8125 Q210.0875,441.5 211.5875,441.5 Q212.4781,441.5 213.1031,441.2969 Q213.4625,441.1875 213.8688,440.8281 Q214.1344,440.625 214.275,440.5625 Q214.4156,440.5 214.5875,440.5 Q214.9156,440.5 215.15,440.7656 Q215.4,441.0156 215.4,441.375 Q215.4,441.7188 215.0563,442.125 Q214.5563,442.7188 213.7594,443.0469 Q212.7125,443.5 211.4313,443.5 Q209.9313,443.5 208.7281,442.9063 Q207.7594,442.4375 207.0719,441.4219 Q206.4,440.4063 206.4,439.2031 L206.4,438.1094 Q206.4,436.8594 206.9938,435.7656 Q207.6031,434.6719 208.65,434.0938 Q209.7125,433.5 210.9,433.5 Q211.6188,433.5 212.2438,433.75 Q212.8688,434 213.4,434.5 Z " fill="#000000"/><text fill="#000000" font-family="sans-serif" font-size="12" lengthAdjust="spacing" textLength="43" x="225.6" y="442.9102">Catalog</text><line style="stroke:#A80036;stroke-width:1.5;" x1="196.5" x2="271.5" y1="454" y2="454"/><text fill="#000000" font-family="sans-serif" font-size="11" lengthAdjust="spacing" textLength="65" x="201.5" y="469.4189">-CategoryList</text><!--MD5=[115b80d0f445a1292391b7989c5377df]
link Category to Catalog--><path codeLine="56" d="M234,342.19 C234,368.12 234,399.99 234,421.94 " fill="none" id="Category-Catalog" style="stroke:#222222;stroke-width:1.0;"/><polygon fill="#000000" points="239,388.1758,241.9389,379.1307,236.0611,379.1307,239,388.1758" style="stroke:#000000;stroke-width:1.0;"/><text fill="#000000" font-family="sans-serif" font-size="13" lengthAdjust="spacing" textLength="49" x="248" y="388.4951">listed on</text><text fill="#000000" font-family="sans-serif" font-size="13" lengthAdjust="spacing" textLength="7" x="221.6594" y="410.9521">1</text><!--MD5=[a08fded9ab29299d2f06160dc61bc428]
link Product to Reference--><path codeLine="58" d="M525.61,164.26 C541.82,176.99 558.7,190.7 574,204 C598.21,225.04 624.28,250.51 642.98,269.31 " fill="none" id="Product-to-Reference" style="stroke:#222222;stroke-width:1.0;"/><polygon fill="#222222" points="646.62,272.98,643.1402,263.7664,643.106,269.4231,637.4492,269.3888,646.62,272.98" style="stroke:#222222;stroke-width:1.0;"/><text fill="#000000" font-family="sans-serif" font-size="13" lengthAdjust="spacing" textLength="69" x="593" y="218.4951">identified by</text><text fill="#000000" font-family="sans-serif" font-size="13" lengthAdjust="spacing" textLength="7" x="632.9883" y="262.291">1</text><!--MD5=[440591324ccab1d0e321923bacbcb9d8]
link Product to Photos--><path codeLine="59" d="M378.01,139.39 C336.56,157.06 284.25,180.44 239,204 C202.22,223.15 194.47,230.52 159,252 C154.77,254.56 150.41,257.21 146.01,259.88 " fill="none" id="Product-to-Photos" style="stroke:#222222;stroke-width:1.0;"/><polygon fill="#222222" points="141.62,262.56,151.3857,261.2827,145.8871,259.9539,147.2159,254.4553,141.62,262.56" style="stroke:#222222;stroke-width:1.0;"/><text fill="#000000" font-family="sans-serif" font-size="13" lengthAdjust="spacing" textLength="56" x="240" y="218.4951">described</text><text fill="#000000" font-family="sans-serif" font-size="13" lengthAdjust="spacing" textLength="20" x="148.4478" y="254.2482">1--*</text><!--MD5=[5aa13b7ab9f0c275d874c3b024766aa8]
link Product to Brand--><path codeLine="60" d="M426.47,174.1 C422.6,184.1 418.67,194.32 415,204 C406.88,225.39 397.92,249.67 391.23,267.92 " fill="none" id="Product-to-Brand" style="stroke:#222222;stroke-width:1.0;"/><polygon fill="#222222" points="389.41,272.9,396.2587,265.8222,391.1279,268.2044,388.7457,263.0736,389.41,272.9" style="stroke:#222222;stroke-width:1.0;"/><text fill="#000000" font-family="sans-serif" font-size="13" lengthAdjust="spacing" textLength="52" x="416" y="218.4951">designed</text><text fill="#000000" font-family="sans-serif" font-size="13" lengthAdjust="spacing" textLength="7" x="383.6682" y="262.1905">1</text><!--MD5=[41043388d0f8d1cf0966079386e80353]
link Product to Category--><path codeLine="61" d="M378.35,160.58 C360.14,174.16 340.99,189.17 324,204 C308.32,217.68 292.15,233.58 277.9,248.27 " fill="none" id="Product-to-Category" style="stroke:#222222;stroke-width:1.0;"/><polygon fill="#222222" points="274.33,251.98,283.4566,248.2779,277.8007,248.3808,277.6978,242.7249,274.33,251.98" style="stroke:#222222;stroke-width:1.0;"/><text fill="#000000" font-family="sans-serif" font-size="13" lengthAdjust="spacing" textLength="74" x="325" y="218.4951">organized by</text><text fill="#000000" font-family="sans-serif" font-size="13" lengthAdjust="spacing" textLength="7" x="273.1998" y="241.0773">1</text><!--MD5=[d52d4675e9eec1727cacff8adb24bf93]
link Product to Barcode--><path codeLine="62" d="M477.43,174.14 C487.76,200.61 499.4,230.43 508.58,253.95 " fill="none" id="Product-to-Barcode" style="stroke:#222222;stroke-width:1.0;"/><polygon fill="#222222" points="510.5,258.87,510.934,249.0307,508.6726,254.2159,503.4874,251.9545,510.5,258.87" style="stroke:#222222;stroke-width:1.0;"/><text fill="#000000" font-family="sans-serif" font-size="13" lengthAdjust="spacing" textLength="69" x="496" y="218.4951">identified by</text><text fill="#000000" font-family="sans-serif" font-size="13" lengthAdjust="spacing" textLength="7" x="500.2938" y="248.192">1</text><!--MD5=[7119557809726774d3ef77edfe01616b]
link Product to ProductionCode--><path codeLine="63" d="M525.51,137.72 C568.62,155.35 623.74,179.23 671,204 C709.57,224.21 751.55,250.78 780.91,270.16 " fill="none" id="Product-to-ProductionCode" style="stroke:#222222;stroke-width:1.0;"/><polygon fill="#222222" points="785.15,272.97,779.8474,264.6704,780.9788,270.213,775.4362,271.3444,785.15,272.97" style="stroke:#222222;stroke-width:1.0;"/><text fill="#000000" font-family="sans-serif" font-size="13" lengthAdjust="spacing" textLength="69" x="701" y="218.4951">identified by</text><text fill="#000000" font-family="sans-serif" font-size="13" lengthAdjust="spacing" textLength="7" x="768.5791" y="262.2785">1</text><!--MD5=[7e2ca4c1558b6306cf72e2885dd8b47d]
@startuml

hide methods
skinparam classAttributeIconSize 0
skinparam classBackgroundColor beige
skinparam ArrowColor #222222

package "<<aggregate>> Product" {
    entity Product
    class Photos
    class Category
    class Brand
    class Barcode
    class Reference
    class ProductionCode
}

entity Product <<entity>> <<root>> {
    -<<VO>> ShortDescription
    -<<VO>> ExtendedDescription
    -<<VO>> TechnicalDescription
    -<<VO>> Price w/out VAT
    -<<VO>> Qt/unity
}

class Reference <<value object>>{}

class Category <<value object>>{
- AlphaNumeric Code
- ExtendedDescription
- SuperCategory
}

class ProductionCode <<value object>>{

}

class Photos <<value object>>{
- PhotosList
- Description
}

class Barcode <<value object>>{
- Barcode
- Code
}


class Brand <<value object>>{

}

class Catalog{
- CategoryList
}

Category - - "1 " Catalog : listed on >

Product - -> "1"  Reference : identified by
Product - -> "1- -*" Photos : described
Product - -> "1" Brand : designed
Product - -> "1" Category : organized by
Product - -> "1" Barcode : identified by
Product - -> "1" ProductionCode : identified by

@enduml

PlantUML version 1.2021.11(Sat Oct 02 14:26:11 BST 2021)
(GPL source distribution)
Java Runtime: OpenJDK Runtime Environment
JVM: OpenJDK 64-Bit Server VM
Default Encoding: Cp1252
Language: pt
Country: PT
--></g></svg>