<?xml version="1.0" encoding="UTF-8" standalone="no"?><svg xmlns="http://www.w3.org/2000/svg" xmlns:xlink="http://www.w3.org/1999/xlink" contentScriptType="application/ecmascript" contentStyleType="text/css" height="457.6px" preserveAspectRatio="none" style="width:988px;height:457px;background:#FFFFFF;" version="1.1" viewBox="0 0 988 457" width="988.8px" zoomAndPan="magnify"><defs><filter height="300%" id="fzz42mn6tsr9c" width="300%" x="-1" y="-1"><feGaussianBlur result="blurOut" stdDeviation="1.6000000000000003"/><feColorMatrix in="blurOut" result="blurOut2" type="matrix" values="0 0 0 0 0 0 0 0 0 0 0 0 0 0 0 0 0 0 .4 0"/><feOffset dx="3.2000000000000006" dy="3.2000000000000006" in="blurOut2" result="blurOut3"/><feBlend in="SourceGraphic" in2="blurOut3" mode="normal"/></filter></defs><g><!--MD5=[20e996825fabf2618e164db4892593a3]
cluster <<aggregate>> Client--><polygon fill="#FFFFFF" filter="url(#fzz42mn6tsr9c)" points="12.8,154.4,136.8,154.4,142.4,173.2875,830.4,173.2875,830.4,452,12.8,452,12.8,154.4" style="stroke:#000000;stroke-width:1.2000000000000002;"/><line style="stroke:#000000;stroke-width:1.2000000000000002;" x1="12.8" x2="142.4" y1="173.2875" y2="173.2875"/><text fill="#000000" font-family="sans-serif" font-size="11.2" font-weight="bold" lengthAdjust="spacing" textLength="119.2" x="16" y="167.6266">&lt;&lt;aggregate&gt;&gt; Client</text><!--MD5=[597c9b6a35d8038d4b40fd8870ba90aa]
cluster <<aggregate>> User--><polygon fill="#FFFFFF" filter="url(#fzz42mn6tsr9c)" points="849.6,154.4,967.2,154.4,972.8,173.2875,975.2,173.2875,975.2,452,849.6,452,849.6,154.4" style="stroke:#000000;stroke-width:1.2000000000000002;"/><line style="stroke:#000000;stroke-width:1.2000000000000002;" x1="849.6" x2="972.8" y1="173.2875" y2="173.2875"/><text fill="#000000" font-family="sans-serif" font-size="11.2" font-weight="bold" lengthAdjust="spacing" textLength="112.8" x="852.8" y="167.6266">&lt;&lt;aggregate&gt;&gt; User</text><!--MD5=[db53c58abe70499843a85815d88add8b]
cluster <<aggregate>> Employee--><polygon fill="#FFFFFF" filter="url(#fzz42mn6tsr9c)" points="629.6,4.8,775.2,4.8,780.8,23.6875,783.2,23.6875,783.2,114.4,629.6,114.4,629.6,4.8" style="stroke:#000000;stroke-width:1.2000000000000002;"/><line style="stroke:#000000;stroke-width:1.2000000000000002;" x1="629.6" x2="780.8" y1="23.6875" y2="23.6875"/><text fill="#000000" font-family="sans-serif" font-size="11.2" font-weight="bold" lengthAdjust="spacing" textLength="140.8" x="632.8" y="18.0266">&lt;&lt;aggregate&gt;&gt; Employee</text><!--MD5=[ed6624c6556d5e7b1bd23032162d20b7]
class Client--><rect codeLine="19" fill="#F5F5DC" filter="url(#fzz42mn6tsr9c)" height="68.0938" id="Client" style="stroke:#A80036;stroke-width:1.2000000000000002;" width="56.8" x="437.2" y="183.2"/><ellipse cx="449.2" cy="205.3125" fill="#ADD1B2" rx="8.8" ry="8.8" style="stroke:#A80036;stroke-width:0.8000000000000002;"/><path d="M448,206.1125 L448,207.7125 L451.2,207.7125 L451.2,206.9125 L451.2,206.525 L451.7,206.1125 L452,206.1125 L452.3,206.1125 L452.8,206.525 L452.8,206.9125 L452.8,209.3125 L446.4,209.3125 L446.0125,209.3125 L445.6,208.8125 L445.6,208.5125 L445.6,208.2125 L446.0125,207.7125 L446.4,207.7125 L446.4,207.7125 L446.4,202.9125 L446.4,202.9125 L446.0125,202.9125 L445.6,202.4125 L445.6,202.1125 L445.6,201.8125 L446.0125,201.3125 L446.4,201.3125 L452.8,201.3125 L452.8,203.7125 L452.8,204.1 L452.3,204.5125 L452,204.5125 L451.7,204.5125 L451.2,204.1 L451.2,203.7125 L451.2,202.9125 L448,202.9125 L448,204.5125 L448.8,204.5125 L448.8,204.125 L448.8,204.125 L449.3,203.7125 L449.6,203.7125 L449.9,203.7125 L450.4,204.125 L450.4,204.5125 L450.4,206.1125 L450.4,206.5 L449.9,206.9125 L449.9,206.9125 L449.6,206.9125 L449.3,206.9125 L448.8,206.5 L448.8,206.5 L448.8,206.1125 L448,206.1125 Z " fill="#000000"/><text fill="#000000" font-family="sans-serif" font-size="9.6" font-style="italic" lengthAdjust="spacing" textLength="34.4" x="458.8" y="197.1656">«entity»</text><text fill="#000000" font-family="sans-serif" font-size="9.6" font-style="italic" lengthAdjust="spacing" textLength="28" x="462" y="209.2406">«root»</text><text fill="#000000" font-family="sans-serif" font-size="9.6" lengthAdjust="spacing" textLength="25.6" x="463.2" y="221.3156">Client</text><line style="stroke:#A80036;stroke-width:1.2000000000000002;" x1="438" x2="493.2" y1="227.425" y2="227.425"/><text fill="#000000" font-family="sans-serif" font-size="8.8" lengthAdjust="spacing" textLength="9.6" x="442" y="239.7602">-id</text><line style="stroke:#A80036;stroke-width:1.2000000000000002;" x1="438" x2="493.2" y1="244.8938" y2="244.8938"/><!--MD5=[78bec0fde86ad92ec1dc3fb343b83709]
class Email--><rect codeLine="24" fill="#F5F5DC" filter="url(#fzz42mn6tsr9c)" height="38.55" id="Email" style="stroke:#A80036;stroke-width:1.2000000000000002;" width="87.2" x="26" y="400.8"/><ellipse cx="38" cy="416.875" fill="#FF8B40" rx="8.8" ry="8.8" style="stroke:#A80036;stroke-width:0.8000000000000002;"/><path d="M38,419.5 L39.225,415.075 L39.225,415.075 L38.8125,415.075 L38.4,414.575 L38.4,414.275 L38.4,413.975 L38.8125,413.475 L39.225,413.475 L40.725,413.475 L41.1875,413.475 L41.6,413.975 L41.6,414.275 L41.6,414.575 L41.1875,415.075 L41.1875,415.075 L40.825,415.075 L38.95,421.475 L37.05,421.475 L35.075,415.075 L34.8125,415.075 L34.8125,415.075 L34.4,414.575 L34.4,414.275 L34.4,413.975 L34.8125,413.475 L35.275,413.475 L36.775,413.475 L37.1875,413.475 L37.6,413.975 L37.6,414.275 L37.6,414.575 L37.1875,415.075 L36.775,415.075 L36.775,415.075 L38,419.5 Z " fill="#000000"/><text fill="#000000" font-family="sans-serif" font-size="9.6" font-style="italic" lengthAdjust="spacing" textLength="64.8" x="47.6" y="414.7656">«value object»</text><text fill="#000000" font-family="sans-serif" font-size="9.6" lengthAdjust="spacing" textLength="25.6" x="67.2" y="426.8406">Email</text><line style="stroke:#A80036;stroke-width:1.2000000000000002;" x1="26.8" x2="112.4" y1="432.95" y2="432.95"/><!--MD5=[53f6a92bd21ca2f2960392a061f3a1c6]
class Name--><rect codeLine="23" fill="#F5F5DC" filter="url(#fzz42mn6tsr9c)" height="38.55" id="Name" style="stroke:#A80036;stroke-width:1.2000000000000002;" width="87.2" x="138.8" y="313.6"/><ellipse cx="150.8" cy="329.675" fill="#FF8B40" rx="8.8" ry="8.8" style="stroke:#A80036;stroke-width:0.8000000000000002;"/><path d="M150.8,332.3 L152.025,327.875 L152.025,327.875 L151.6125,327.875 L151.2,327.375 L151.2,327.075 L151.2,326.775 L151.6125,326.275 L152.025,326.275 L153.525,326.275 L153.9875,326.275 L154.4,326.775 L154.4,327.075 L154.4,327.375 L153.9875,327.875 L153.9875,327.875 L153.625,327.875 L151.75,334.275 L149.85,334.275 L147.875,327.875 L147.6125,327.875 L147.6125,327.875 L147.2,327.375 L147.2,327.075 L147.2,326.775 L147.6125,326.275 L148.075,326.275 L149.575,326.275 L149.9875,326.275 L150.4,326.775 L150.4,327.075 L150.4,327.375 L149.9875,327.875 L149.575,327.875 L149.575,327.875 L150.8,332.3 Z " fill="#000000"/><text fill="#000000" font-family="sans-serif" font-size="9.6" font-style="italic" lengthAdjust="spacing" textLength="64.8" x="160.4" y="327.5656">«value object»</text><text fill="#000000" font-family="sans-serif" font-size="9.6" lengthAdjust="spacing" textLength="27.2" x="179.2" y="339.6406">Name</text><line style="stroke:#A80036;stroke-width:1.2000000000000002;" x1="139.6" x2="225.2" y1="345.75" y2="345.75"/><!--MD5=[b5e265065262f4f9caf90311e5706eef]
class PhoneNumber--><rect codeLine="25" fill="#F5F5DC" filter="url(#fzz42mn6tsr9c)" height="38.55" id="PhoneNumber" style="stroke:#A80036;stroke-width:1.2000000000000002;" width="90.4" x="254" y="313.6"/><ellipse cx="266" cy="329.675" fill="#FF8B40" rx="8.8" ry="8.8" style="stroke:#A80036;stroke-width:0.8000000000000002;"/><path d="M266,332.3 L267.225,327.875 L267.225,327.875 L266.8125,327.875 L266.4,327.375 L266.4,327.075 L266.4,326.775 L266.8125,326.275 L267.225,326.275 L268.725,326.275 L269.1875,326.275 L269.6,326.775 L269.6,327.075 L269.6,327.375 L269.1875,327.875 L269.1875,327.875 L268.825,327.875 L266.95,334.275 L265.05,334.275 L263.075,327.875 L262.8125,327.875 L262.8125,327.875 L262.4,327.375 L262.4,327.075 L262.4,326.775 L262.8125,326.275 L263.275,326.275 L264.775,326.275 L265.1875,326.275 L265.6,326.775 L265.6,327.075 L265.6,327.375 L265.1875,327.875 L264.775,327.875 L264.775,327.875 L266,332.3 Z " fill="#000000"/><text fill="#000000" font-family="sans-serif" font-size="9.6" font-style="italic" lengthAdjust="spacing" textLength="64.8" x="277.2" y="327.5656">«value object»</text><text fill="#000000" font-family="sans-serif" font-size="9.6" lengthAdjust="spacing" textLength="64.8" x="277.2" y="339.6406">PhoneNumber</text><line style="stroke:#A80036;stroke-width:1.2000000000000002;" x1="254.8" x2="343.6" y1="345.75" y2="345.75"/><!--MD5=[ec957f90f125634d426aef890efece94]
class BirthDate--><rect codeLine="26" fill="#F5F5DC" filter="url(#fzz42mn6tsr9c)" height="38.55" id="BirthDate" style="stroke:#A80036;stroke-width:1.2000000000000002;" width="87.2" x="372.4" y="313.6"/><ellipse cx="384.4" cy="329.675" fill="#FF8B40" rx="8.8" ry="8.8" style="stroke:#A80036;stroke-width:0.8000000000000002;"/><path d="M384.4,332.3 L385.625,327.875 L385.625,327.875 L385.2125,327.875 L384.8,327.375 L384.8,327.075 L384.8,326.775 L385.2125,326.275 L385.625,326.275 L387.125,326.275 L387.5875,326.275 L388,326.775 L388,327.075 L388,327.375 L387.5875,327.875 L387.5875,327.875 L387.225,327.875 L385.35,334.275 L383.45,334.275 L381.475,327.875 L381.2125,327.875 L381.2125,327.875 L380.8,327.375 L380.8,327.075 L380.8,326.775 L381.2125,326.275 L381.675,326.275 L383.175,326.275 L383.5875,326.275 L384,326.775 L384,327.075 L384,327.375 L383.5875,327.875 L383.175,327.875 L383.175,327.875 L384.4,332.3 Z " fill="#000000"/><text fill="#000000" font-family="sans-serif" font-size="9.6" font-style="italic" lengthAdjust="spacing" textLength="64.8" x="394" y="327.5656">«value object»</text><text fill="#000000" font-family="sans-serif" font-size="9.6" lengthAdjust="spacing" textLength="40.8" x="406" y="339.6406">BirthDate</text><line style="stroke:#A80036;stroke-width:1.2000000000000002;" x1="373.2" x2="458.8" y1="345.75" y2="345.75"/><!--MD5=[a4ea2dcb44ebd57046df9af95d8b8c12]
class Gender--><rect codeLine="27" fill="#F5F5DC" filter="url(#fzz42mn6tsr9c)" height="38.55" id="Gender" style="stroke:#A80036;stroke-width:1.2000000000000002;" width="87.2" x="487.6" y="313.6"/><ellipse cx="499.6" cy="329.675" fill="#FF8B40" rx="8.8" ry="8.8" style="stroke:#A80036;stroke-width:0.8000000000000002;"/><path d="M499.6,332.3 L500.825,327.875 L500.825,327.875 L500.4125,327.875 L500,327.375 L500,327.075 L500,326.775 L500.4125,326.275 L500.825,326.275 L502.325,326.275 L502.7875,326.275 L503.2,326.775 L503.2,327.075 L503.2,327.375 L502.7875,327.875 L502.7875,327.875 L502.425,327.875 L500.55,334.275 L498.65,334.275 L496.675,327.875 L496.4125,327.875 L496.4125,327.875 L496,327.375 L496,327.075 L496,326.775 L496.4125,326.275 L496.875,326.275 L498.375,326.275 L498.7875,326.275 L499.2,326.775 L499.2,327.075 L499.2,327.375 L498.7875,327.875 L498.375,327.875 L498.375,327.875 L499.6,332.3 Z " fill="#000000"/><text fill="#000000" font-family="sans-serif" font-size="9.6" font-style="italic" lengthAdjust="spacing" textLength="64.8" x="509.2" y="327.5656">«value object»</text><text fill="#000000" font-family="sans-serif" font-size="9.6" lengthAdjust="spacing" textLength="32.8" x="525.2" y="339.6406">Gender</text><line style="stroke:#A80036;stroke-width:1.2000000000000002;" x1="488.4" x2="574" y1="345.75" y2="345.75"/><!--MD5=[90d765aaab2aa87205300a90d31c45a9]
class PostalAddresses--><rect codeLine="28" fill="#F5F5DC" filter="url(#fzz42mn6tsr9c)" height="38.55" id="PostalAddresses" style="stroke:#A80036;stroke-width:1.2000000000000002;" width="101.6" x="602.8" y="313.6"/><ellipse cx="614.8" cy="329.675" fill="#FF8B40" rx="8.8" ry="8.8" style="stroke:#A80036;stroke-width:0.8000000000000002;"/><path d="M614.8,332.3 L616.025,327.875 L616.025,327.875 L615.6125,327.875 L615.2,327.375 L615.2,327.075 L615.2,326.775 L615.6125,326.275 L616.025,326.275 L617.525,326.275 L617.9875,326.275 L618.4,326.775 L618.4,327.075 L618.4,327.375 L617.9875,327.875 L617.9875,327.875 L617.625,327.875 L615.75,334.275 L613.85,334.275 L611.875,327.875 L611.6125,327.875 L611.6125,327.875 L611.2,327.375 L611.2,327.075 L611.2,326.775 L611.6125,326.275 L612.075,326.275 L613.575,326.275 L613.9875,326.275 L614.4,326.775 L614.4,327.075 L614.4,327.375 L613.9875,327.875 L613.575,327.875 L613.575,327.875 L614.8,332.3 Z " fill="#000000"/><text fill="#000000" font-family="sans-serif" font-size="9.6" font-style="italic" lengthAdjust="spacing" textLength="64.8" x="631.6" y="327.5656">«value object»</text><text fill="#000000" font-family="sans-serif" font-size="9.6" lengthAdjust="spacing" textLength="76" x="626" y="339.6406">PostalAddresses</text><line style="stroke:#A80036;stroke-width:1.2000000000000002;" x1="603.6" x2="703.6" y1="345.75" y2="345.75"/><!--MD5=[a626601f1c08886c41476594c2573af3]
class VAT--><rect codeLine="29" fill="#F5F5DC" filter="url(#fzz42mn6tsr9c)" height="38.55" id="VAT" style="stroke:#A80036;stroke-width:1.2000000000000002;" width="87.2" x="717.2" y="400.8"/><ellipse cx="729.2" cy="416.875" fill="#FF8B40" rx="8.8" ry="8.8" style="stroke:#A80036;stroke-width:0.8000000000000002;"/><path d="M729.2,419.5 L730.425,415.075 L730.425,415.075 L730.0125,415.075 L729.6,414.575 L729.6,414.275 L729.6,413.975 L730.0125,413.475 L730.425,413.475 L731.925,413.475 L732.3875,413.475 L732.8,413.975 L732.8,414.275 L732.8,414.575 L732.3875,415.075 L732.3875,415.075 L732.025,415.075 L730.15,421.475 L728.25,421.475 L726.275,415.075 L726.0125,415.075 L726.0125,415.075 L725.6,414.575 L725.6,414.275 L725.6,413.975 L726.0125,413.475 L726.475,413.475 L727.975,413.475 L728.3875,413.475 L728.8,413.975 L728.8,414.275 L728.8,414.575 L728.3875,415.075 L727.975,415.075 L727.975,415.075 L729.2,419.5 Z " fill="#000000"/><text fill="#000000" font-family="sans-serif" font-size="9.6" font-style="italic" lengthAdjust="spacing" textLength="64.8" x="738.8" y="414.7656">«value object»</text><text fill="#000000" font-family="sans-serif" font-size="9.6" lengthAdjust="spacing" textLength="16.8" x="762.8" y="426.8406">VAT</text><line style="stroke:#A80036;stroke-width:1.2000000000000002;" x1="718" x2="803.6" y1="432.95" y2="432.95"/><!--MD5=[3fd616f346a44cd59a91eb10b19e157c]
class User--><rect codeLine="44" fill="#F5F5DC" filter="url(#fzz42mn6tsr9c)" height="68.0938" id="User" style="stroke:#A80036;stroke-width:1.2000000000000002;" width="56.8" x="870" y="183.2"/><ellipse cx="882" cy="205.3125" fill="#ADD1B2" rx="8.8" ry="8.8" style="stroke:#A80036;stroke-width:0.8000000000000002;"/><path d="M880.8,206.1125 L880.8,207.7125 L884,207.7125 L884,206.9125 L884,206.525 L884.5,206.1125 L884.8,206.1125 L885.1,206.1125 L885.6,206.525 L885.6,206.9125 L885.6,209.3125 L879.2,209.3125 L878.8125,209.3125 L878.4,208.8125 L878.4,208.5125 L878.4,208.2125 L878.8125,207.7125 L879.2,207.7125 L879.2,207.7125 L879.2,202.9125 L879.2,202.9125 L878.8125,202.9125 L878.4,202.4125 L878.4,202.1125 L878.4,201.8125 L878.8125,201.3125 L879.2,201.3125 L885.6,201.3125 L885.6,203.7125 L885.6,204.1 L885.1,204.5125 L884.8,204.5125 L884.5,204.5125 L884,204.1 L884,203.7125 L884,202.9125 L880.8,202.9125 L880.8,204.5125 L881.6,204.5125 L881.6,204.125 L881.6,204.125 L882.1,203.7125 L882.4,203.7125 L882.7,203.7125 L883.2,204.125 L883.2,204.5125 L883.2,206.1125 L883.2,206.5 L882.7,206.9125 L882.7,206.9125 L882.4,206.9125 L882.1,206.9125 L881.6,206.5 L881.6,206.5 L881.6,206.1125 L880.8,206.1125 Z " fill="#000000"/><text fill="#000000" font-family="sans-serif" font-size="9.6" font-style="italic" lengthAdjust="spacing" textLength="34.4" x="891.6" y="197.1656">«entity»</text><text fill="#000000" font-family="sans-serif" font-size="9.6" font-style="italic" lengthAdjust="spacing" textLength="28" x="894.8" y="209.2406">«root»</text><text fill="#000000" font-family="sans-serif" font-size="9.6" lengthAdjust="spacing" textLength="21.6" x="898" y="221.3156">User</text><line style="stroke:#A80036;stroke-width:1.2000000000000002;" x1="870.8" x2="926" y1="227.425" y2="227.425"/><text fill="#000000" font-family="sans-serif" font-size="8.8" lengthAdjust="spacing" textLength="34.4" x="874.8" y="239.7602">-isActive</text><line style="stroke:#A80036;stroke-width:1.2000000000000002;" x1="870.8" x2="926" y1="244.8938" y2="244.8938"/><!--MD5=[a3638c1e5b65d287ecad7f06f5c0f212]
class Role--><rect codeLine="49" fill="#F5F5DC" filter="url(#fzz42mn6tsr9c)" height="38.55" id="Role" style="stroke:#A80036;stroke-width:1.2000000000000002;" width="87.2" x="862.8" y="400.8"/><ellipse cx="874.8" cy="416.875" fill="#FF8B40" rx="8.8" ry="8.8" style="stroke:#A80036;stroke-width:0.8000000000000002;"/><path d="M874.8,419.5 L876.025,415.075 L876.025,415.075 L875.6125,415.075 L875.2,414.575 L875.2,414.275 L875.2,413.975 L875.6125,413.475 L876.025,413.475 L877.525,413.475 L877.9875,413.475 L878.4,413.975 L878.4,414.275 L878.4,414.575 L877.9875,415.075 L877.9875,415.075 L877.625,415.075 L875.75,421.475 L873.85,421.475 L871.875,415.075 L871.6125,415.075 L871.6125,415.075 L871.2,414.575 L871.2,414.275 L871.2,413.975 L871.6125,413.475 L872.075,413.475 L873.575,413.475 L873.9875,413.475 L874.4,413.975 L874.4,414.275 L874.4,414.575 L873.9875,415.075 L873.575,415.075 L873.575,415.075 L874.8,419.5 Z " fill="#000000"/><text fill="#000000" font-family="sans-serif" font-size="9.6" font-style="italic" lengthAdjust="spacing" textLength="64.8" x="884.4" y="414.7656">«value object»</text><text fill="#000000" font-family="sans-serif" font-size="9.6" lengthAdjust="spacing" textLength="20.8" x="906.4" y="426.8406">Role</text><line style="stroke:#A80036;stroke-width:1.2000000000000002;" x1="863.6" x2="949.2" y1="432.95" y2="432.95"/><!--MD5=[7421f545a0d8420c5bec41e74b387d9c]
class Employee--><rect codeLine="57" fill="#F5F5DC" filter="url(#fzz42mn6tsr9c)" height="68.0938" id="Employee" style="stroke:#A80036;stroke-width:1.2000000000000002;" width="69.6" x="671.6" y="33.6"/><ellipse cx="683.6" cy="55.7125" fill="#ADD1B2" rx="8.8" ry="8.8" style="stroke:#A80036;stroke-width:0.8000000000000002;"/><path d="M682.4,56.5125 L682.4,58.1125 L685.6,58.1125 L685.6,57.3125 L685.6,56.925 L686.1,56.5125 L686.4,56.5125 L686.7,56.5125 L687.2,56.925 L687.2,57.3125 L687.2,59.7125 L680.8,59.7125 L680.4125,59.7125 L680,59.2125 L680,58.9125 L680,58.6125 L680.4125,58.1125 L680.8,58.1125 L680.8,58.1125 L680.8,53.3125 L680.8,53.3125 L680.4125,53.3125 L680,52.8125 L680,52.5125 L680,52.2125 L680.4125,51.7125 L680.8,51.7125 L687.2,51.7125 L687.2,54.1125 L687.2,54.5 L686.7,54.9125 L686.4,54.9125 L686.1,54.9125 L685.6,54.5 L685.6,54.1125 L685.6,53.3125 L682.4,53.3125 L682.4,54.9125 L683.2,54.9125 L683.2,54.525 L683.2,54.525 L683.7,54.1125 L684,54.1125 L684.3,54.1125 L684.8,54.525 L684.8,54.9125 L684.8,56.5125 L684.8,56.9 L684.3,57.3125 L684.3,57.3125 L684,57.3125 L683.7,57.3125 L683.2,56.9 L683.2,56.9 L683.2,56.5125 L682.4,56.5125 Z " fill="#000000"/><text fill="#000000" font-family="sans-serif" font-size="9.6" font-style="italic" lengthAdjust="spacing" textLength="34.4" x="699.6" y="47.5656">«entity»</text><text fill="#000000" font-family="sans-serif" font-size="9.6" font-style="italic" lengthAdjust="spacing" textLength="28" x="702.8" y="59.6406">«root»</text><text fill="#000000" font-family="sans-serif" font-size="9.6" lengthAdjust="spacing" textLength="44" x="694.8" y="71.7156">Employee</text><line style="stroke:#A80036;stroke-width:1.2000000000000002;" x1="672.4" x2="740.4" y1="77.825" y2="77.825"/><text fill="#000000" font-family="sans-serif" font-size="8.8" lengthAdjust="spacing" textLength="36" x="676.4" y="90.1602">-identifier</text><line style="stroke:#A80036;stroke-width:1.2000000000000002;" x1="672.4" x2="740.4" y1="95.2938" y2="95.2938"/><!--MD5=[56e417e995f938959c376e4926a13260]
link Client to Name--><path codeLine="31" d="M436.832,218.92 C389.52,221.672 293.888,232.528 227.2,275.2 C213.776,283.792 202.656,297.816 194.848,309.784 " fill="none" id="Client-to-Name" style="stroke:#222222;stroke-width:0.8000000000000002;"/><polygon fill="#222222" points="192.536,313.416,199.0936,309.0481,194.6776,310.0376,193.6881,305.6216,192.536,313.416" style="stroke:#222222;stroke-width:0.8000000000000002;"/><text fill="#000000" font-family="sans-serif" font-size="10.4" lengthAdjust="spacing" textLength="76.8" x="228" y="286.7961">characterized by</text><text fill="#000000" font-family="sans-serif" font-size="10.4" lengthAdjust="spacing" textLength="5.6" x="188.8159" y="304.8218">1</text><!--MD5=[3d4318aa56b2322dc15876394339f951]
link Client to Email--><path codeLine="32" d="M436.952,220.312 C353.424,227.72 113.144,253.944 68,313.6 C50.008,337.376 55.52,373.544 61.928,396.776 " fill="none" id="Client-to-Email" style="stroke:#222222;stroke-width:0.8000000000000002;"/><polygon fill="#222222" points="63.048,400.672,64.153,392.8708,61.9521,396.825,57.9979,394.6242,63.048,400.672" style="stroke:#222222;stroke-width:0.8000000000000002;"/><text fill="#000000" font-family="sans-serif" font-size="10.4" lengthAdjust="spacing" textLength="55.2" x="68.8" y="337.1961">identified by</text><text fill="#000000" font-family="sans-serif" font-size="10.4" lengthAdjust="spacing" textLength="5.6" x="55.0516" y="392.0921">1</text><!--MD5=[bc14f09f78b87d0ee159e1a86c0c208c]
link Client to VAT--><path codeLine="33" d="M494.048,221.696 C549.664,229.424 670.112,248.776 701.6,275.2 C738.76,306.376 752.912,364.6 758.056,396.632 " fill="none" id="Client-to-VAT" style="stroke:#222222;stroke-width:0.8000000000000002;"/><polygon fill="#222222" points="758.696,400.784,760.7689,393.1825,758.0903,396.8301,754.4427,394.1515,758.696,400.784" style="stroke:#222222;stroke-width:0.8000000000000002;"/><text fill="#000000" font-family="sans-serif" font-size="10.4" lengthAdjust="spacing" textLength="55.2" x="748" y="337.1961">identified by</text><text fill="#000000" font-family="sans-serif" font-size="10.4" lengthAdjust="spacing" textLength="5.6" x="751.8394" y="392.2328">1</text><!--MD5=[0645dd546981a39608e896b5e1f6ebfa]
link Client to PhoneNumber--><path codeLine="34" d="M436.928,222.576 C405.096,229.048 354.04,243.8 322.4,275.2 C313.104,284.424 307.392,297.88 303.96,309.384 " fill="none" id="Client-to-PhoneNumber" style="stroke:#222222;stroke-width:0.8000000000000002;"/><polygon fill="#222222" points="302.792,313.52,307.8255,307.4583,303.8773,309.67,301.6656,305.7218,302.792,313.52" style="stroke:#222222;stroke-width:0.8000000000000002;"/><text fill="#000000" font-family="sans-serif" font-size="10.4" lengthAdjust="spacing" textLength="80.8" x="323.2" y="286.7961">associated with a</text><text fill="#000000" font-family="sans-serif" font-size="10.4" lengthAdjust="spacing" textLength="5.6" x="297.395" y="304.9524">1</text><!--MD5=[99b7f2e33ea89fd20c87f9c330650e94]
link Client to BirthDate--><path codeLine="35" d="M437.032,241.968 C428.008,251.296 419.16,262.752 414.4,275.2 C410.296,285.936 410.256,298.672 411.44,309.352 " fill="none" id="Client-to-BirthDate" style="stroke:#222222;stroke-width:0.8000000000000002;"/><polygon fill="#222222" points="411.968,313.496,414.2155,305.9443,411.4536,309.5292,407.8686,306.7673,411.968,313.496" style="stroke:#222222;stroke-width:0.8000000000000002;"/><text fill="#000000" font-family="sans-serif" font-size="10.4" lengthAdjust="spacing" textLength="80.8" x="415.2" y="286.7961">associated with a</text><text fill="#000000" font-family="sans-serif" font-size="10.4" lengthAdjust="spacing" textLength="17.6" x="391.0798" y="304.9223">0..1</text><!--MD5=[9af618af3725fb546e7826293b8a691d]
link Client to Gender--><path codeLine="36" d="M486.008,251.44 C490.664,259.208 495.552,267.464 500,275.2 C506.496,286.496 513.496,299.192 519.216,309.712 " fill="none" id="Client-to-Gender" style="stroke:#222222;stroke-width:0.8000000000000002;"/><polygon fill="#222222" points="521.264,313.48,520.6345,305.6261,519.3526,309.9662,515.0125,308.6843,521.264,313.48" style="stroke:#222222;stroke-width:0.8000000000000002;"/><text fill="#000000" font-family="sans-serif" font-size="10.4" lengthAdjust="spacing" textLength="80.8" x="508" y="286.7961">associated with a</text><text fill="#000000" font-family="sans-serif" font-size="10.4" lengthAdjust="spacing" textLength="17.6" x="498.8629" y="304.9022">0..1</text><!--MD5=[7a12871925691dc2dd050054673c3a49]
link Client to PostalAddresses--><path codeLine="37" d="M494.088,227.088 C521.576,236.624 563.672,253.28 596,275.2 C610.552,285.072 624.656,298.872 635.256,310.408 " fill="none" id="Client-to-PostalAddresses" style="stroke:#222222;stroke-width:0.8000000000000002;"/><polygon fill="#222222" points="638.152,313.592,635.6679,306.1147,635.4579,310.6353,630.9373,310.4253,638.152,313.592" style="stroke:#222222;stroke-width:0.8000000000000002;"/><text fill="#000000" font-family="sans-serif" font-size="10.4" lengthAdjust="spacing" textLength="80.8" x="613.6" y="286.7961">associated with a</text><text fill="#000000" font-family="sans-serif" font-size="10.4" lengthAdjust="spacing" textLength="16" x="616.1435" y="305.0429">1..*</text><!--MD5=[70c37dc9bfbc8656942103c36f1181e4]
link User to Role--><path codeLine="51" d="M899.72,251.224 C901.352,292.304 904.088,361.12 905.504,396.568 " fill="none" id="User-to-Role" style="stroke:#222222;stroke-width:0.8000000000000002;"/><polygon fill="#222222" points="905.664,400.728,908.5737,393.4059,905.5041,396.7312,902.1788,393.6617,905.664,400.728" style="stroke:#222222;stroke-width:0.8000000000000002;"/><text fill="#000000" font-family="sans-serif" font-size="10.4" lengthAdjust="spacing" textLength="33.6" x="904" y="337.1961">plays a</text><text fill="#000000" font-family="sans-serif" font-size="10.4" lengthAdjust="spacing" textLength="16" x="887.4254" y="392.1625">1..*</text><!--MD5=[22fb9506fac029fc1d2ae00f0eb8d606]
link Employee to User--><path codeLine="61" d="M741.456,88.112 C767.08,103.176 802.144,125.176 830.4,148 C843.128,158.28 856.048,170.68 867.16,182.08 " fill="none" id="Employee-to-User" style="stroke:#222222;stroke-width:0.8000000000000002;"/><polygon fill="#222222" points="869.944,184.96,867.2497,177.5559,867.1675,182.0806,862.6427,181.9984,869.944,184.96" style="stroke:#222222;stroke-width:0.8000000000000002;"/><text fill="#000000" font-family="sans-serif" font-size="10.4" lengthAdjust="spacing" textLength="16.8" x="821.6" y="138.7961">is a</text><text fill="#000000" font-family="sans-serif" font-size="10.4" lengthAdjust="spacing" textLength="5.6" x="857.8975" y="175.0059">1</text><!--MD5=[07204f8b6ff0f6086f256a5d0ac9ff83]
link Employee to Client--><path codeLine="62" d="M671.384,89.92 C624.728,118.6 542.832,168.936 497.696,196.672 " fill="none" id="Employee-to-Client" style="stroke:#222222;stroke-width:0.8000000000000002;"/><polygon fill="#222222" points="494.248,198.792,502.0555,197.7321,497.6515,196.6905,498.6931,192.2865,494.248,198.792" style="stroke:#222222;stroke-width:0.8000000000000002;"/><text fill="#000000" font-family="sans-serif" font-size="10.4" lengthAdjust="spacing" textLength="48.8" x="608" y="138.7961">registers a</text><text fill="#000000" font-family="sans-serif" font-size="10.4" lengthAdjust="spacing" textLength="16" x="500.3178" y="192.6948">0..*</text><!--MD5=[07b4ae77157fe2e962b706debd3f4733]
@startuml
'https://plantuml.com/class-diagram

skinparam classAttributeIconSize 0
hide empty attributes
skinparam classBackgroundColor beige
skinparam ArrowColor #222222

package "<<aggregate>> Client" {
    entity Client
    class Email
    class Name
    class PhoneNumber
    class BirthDate
    class Gender
    class PostalAddresses
    class VAT
}

entity Client <<entity>> <<root>> {
    - id
}

class Name <<(V,#FF8B40) value object>> {}
class Email <<(V,#FF8B40) value object>> {}
class PhoneNumber <<(V,#FF8B40) value object>> {}
class BirthDate <<(V,#FF8B40) value object>> {}
class Gender <<(V,#FF8B40) value object>> {}
class PostalAddresses <<(V,#FF8B40) value object>> {}
class VAT <<(V,#FF8B40) value object>> {}

Client - -> "1" Name : characterized by
Client - - -> "1" Email : identified by
Client - - -> "1" VAT : identified by
Client - -> "1" PhoneNumber: associated with a
Client - -> "0..1" BirthDate: associated with a
Client - -> "0..1" Gender: associated with a
Client - -> "1..*" PostalAddresses: associated with a

package "<<aggregate>> User" {
    entity User
    class Role
}

entity User <<entity>> <<root>> {
    - isActive
}


class Role <<(V,#FF8B40) value object>> {}

User - - -> "1..*" Role : plays a

package "<<aggregate>> Employee" {
    entity Employee
}

entity Employee <<entity>> <<root>> {
    -identifier
}

Employee - -> "1" User : is a
Employee - -> "0..*" Client : registers a
@enduml

@startuml

skinparam classAttributeIconSize 0
hide empty attributes
skinparam classBackgroundColor beige
skinparam ArrowColor #222222

package "<<aggregate>> Client" {
    entity Client
    class Email
    class Name
    class PhoneNumber
    class BirthDate
    class Gender
    class PostalAddresses
    class VAT
}

entity Client <<entity>> <<root>> {
    - id
}

class Name <<(V,#FF8B40) value object>> {}
class Email <<(V,#FF8B40) value object>> {}
class PhoneNumber <<(V,#FF8B40) value object>> {}
class BirthDate <<(V,#FF8B40) value object>> {}
class Gender <<(V,#FF8B40) value object>> {}
class PostalAddresses <<(V,#FF8B40) value object>> {}
class VAT <<(V,#FF8B40) value object>> {}

Client - -> "1" Name : characterized by
Client - - -> "1" Email : identified by
Client - - -> "1" VAT : identified by
Client - -> "1" PhoneNumber: associated with a
Client - -> "0..1" BirthDate: associated with a
Client - -> "0..1" Gender: associated with a
Client - -> "1..*" PostalAddresses: associated with a

package "<<aggregate>> User" {
    entity User
    class Role
}

entity User <<entity>> <<root>> {
    - isActive
}


class Role <<(V,#FF8B40) value object>> {}

User - - -> "1..*" Role : plays a

package "<<aggregate>> Employee" {
    entity Employee
}

entity Employee <<entity>> <<root>> {
    -identifier
}

Employee - -> "1" User : is a
Employee - -> "0..*" Client : registers a
@enduml

PlantUML version 1.2022.1(Tue Feb 01 18:19:58 GMT 2022)
(GPL source distribution)
Java Runtime: OpenJDK Runtime Environment
JVM: Dynamic Code Evolution 64-Bit Server VM
Default Encoding: Cp1252
Language: pt
Country: PT
--></g></svg>