<?xml version="1.0" encoding="UTF-8" standalone="no"?><svg xmlns="http://www.w3.org/2000/svg" xmlns:xlink="http://www.w3.org/1999/xlink" contentStyleType="text/css" height="696px" preserveAspectRatio="none" style="width:768px;height:696px;background:#FFFFFF;" version="1.1" viewBox="0 0 768 696" width="768px" zoomAndPan="magnify"><defs/><g><!--MD5=[64e2e010ba86d7988e5cd73bd64f61f9]
cluster ui--><g id="cluster_ui"><path d="M366.8,4.8 L378,4.8 A3,3 0 0 1 380,6.8 L385.6,23.6875 L516.4,23.6875 A2,2 0 0 1 518.4,25.6875 L518.4,82.8 A2,2 0 0 1 516.4,84.8 L366.8,84.8 A2,2 0 0 1 364.8,82.8 L364.8,6.8 A2,2 0 0 1 366.8,4.8 " style="stroke:#000000;stroke-width:1.2000000000000002;fill:none;"/><line style="stroke:#000000;stroke-width:1.2000000000000002;fill:none;" x1="364.8" x2="385.6" y1="23.6875" y2="23.6875"/><text fill="#000000" font-family="sans-serif" font-size="11.2" font-weight="bold" lengthAdjust="spacing" textLength="10.4" x="368" y="18.0266">ui</text></g><!--MD5=[d44cf5b4e38348dd536c7ae84bb3b9a6]
cluster surveymanagement--><g id="cluster_surveymanagement"><path d="M6.8,104 L118,104 A3,3 0 0 1 120,106 L125.6,122.8875 L722,122.8875 A2,2 0 0 1 724,124.8875 L724,688.4 A2,2 0 0 1 722,690.4 L6.8,690.4 A2,2 0 0 1 4.8,688.4 L4.8,106 A2,2 0 0 1 6.8,104 " style="stroke:#000000;stroke-width:1.2000000000000002;fill:none;"/><line style="stroke:#000000;stroke-width:1.2000000000000002;fill:none;" x1="4.8" x2="125.6" y1="122.8875" y2="122.8875"/><text fill="#000000" font-family="sans-serif" font-size="11.2" font-weight="bold" lengthAdjust="spacing" textLength="110.4" x="8" y="117.2266">surveymanagement</text></g><!--MD5=[3ff016c1aa5003d713567a073e2181a6]
cluster application--><g id="cluster_application"><path d="M330,139.2 L392.4,139.2 A3,3 0 0 1 394.4,141.2 L400,158.0875 L553.2,158.0875 A2,2 0 0 1 555.2,160.0875 L555.2,231.6 A2,2 0 0 1 553.2,233.6 L330,233.6 A2,2 0 0 1 328,231.6 L328,141.2 A2,2 0 0 1 330,139.2 " style="stroke:#000000;stroke-width:1.2000000000000002;fill:none;"/><line style="stroke:#000000;stroke-width:1.2000000000000002;fill:none;" x1="328" x2="400" y1="158.0875" y2="158.0875"/><text fill="#000000" font-family="sans-serif" font-size="11.2" font-weight="bold" lengthAdjust="spacing" textLength="61.6" x="331.2" y="152.4266">application</text></g><!--MD5=[c67341a0e34a6f6e14dde0026c7f77bb]
cluster antlr--><g id="cluster_antlr"><path d="M26,282.4 L52.4,282.4 A3,3 0 0 1 54.4,284.4 L60,301.2875 L694.8,301.2875 A2,2 0 0 1 696.8,303.2875 L696.8,570 A2,2 0 0 1 694.8,572 L26,572 A2,2 0 0 1 24,570 L24,284.4 A2,2 0 0 1 26,282.4 " style="stroke:#000000;stroke-width:1.2000000000000002;fill:none;"/><line style="stroke:#000000;stroke-width:1.2000000000000002;fill:none;" x1="24" x2="60" y1="301.2875" y2="301.2875"/><text fill="#000000" font-family="sans-serif" font-size="11.2" font-weight="bold" lengthAdjust="spacing" textLength="25.6" x="27.2" y="295.6266">antlr</text></g><!--MD5=[dd3c0fb9bb6cb17af8b1c791909e3e73]
cluster eapli.base.surveymanagement.antr--><g id="cluster_eapli.base.surveymanagement.antr"><path d="M45.2,317.6 L242.8,317.6 A3,3 0 0 1 244.8,319.6 L250.4,336.4875 L675.6,336.4875 A2,2 0 0 1 677.6,338.4875 L677.6,550.8 A2,2 0 0 1 675.6,552.8 L45.2,552.8 A2,2 0 0 1 43.2,550.8 L43.2,319.6 A2,2 0 0 1 45.2,317.6 " style="stroke:#000000;stroke-width:1.2000000000000002;fill:none;"/><line style="stroke:#000000;stroke-width:1.2000000000000002;fill:none;" x1="43.2" x2="250.4" y1="336.4875" y2="336.4875"/><text fill="#000000" font-family="sans-serif" font-size="11.2" font-weight="bold" lengthAdjust="spacing" textLength="196.8" x="46.4" y="330.8266">eapli.base.surveymanagement.antr</text></g><!--MD5=[27f772719433d509ddbc20ff768eba08]
cluster domain--><g id="cluster_domain"><path d="M322,591.2 L363.6,591.2 A3,3 0 0 1 365.6,593.2 L371.2,610.0875 L441.2,610.0875 A2,2 0 0 1 443.2,612.0875 L443.2,669.2 A2,2 0 0 1 441.2,671.2 L322,671.2 A2,2 0 0 1 320,669.2 L320,593.2 A2,2 0 0 1 322,591.2 " style="stroke:#000000;stroke-width:1.2000000000000002;fill:none;"/><line style="stroke:#000000;stroke-width:1.2000000000000002;fill:none;" x1="320" x2="371.2" y1="610.0875" y2="610.0875"/><text fill="#000000" font-family="sans-serif" font-size="11.2" font-weight="bold" lengthAdjust="spacing" textLength="40.8" x="323.2" y="604.4266">domain</text></g><!--MD5=[5b88fb42a04b4873c1b9602a9d5274e3]
class NewQuestionnaireUI--><g id="elem_NewQuestionnaireUI"><rect codeLine="6" fill="#F1F1F1" height="38.4" id="NewQuestionnaireUI" rx="2" ry="2" style="stroke:#181818;stroke-width:0.4000000000000001;" width="127.2" x="378" y="33.6"/><ellipse cx="390" cy="46.4" fill="#ADD1B2" rx="8.8" ry="8.8" style="stroke:#181818;stroke-width:0.8000000000000002;"/><path d="M391.6,43.6 Q391.7625,43.2 391.95,43 Q392.1375,42.8 392.35,42.8 Q392.725,42.8 392.9625,43.025 Q393.2,43.25 393.2,43.775 L393.2,45.025 Q393.2,45.55 392.975,45.775 Q392.75,46 392.4,46 Q392.0875,46 391.8875,45.8625 Q391.6875,45.725 391.6,45.3625 Q391.5625,45.1125 391.425,44.975 Q391.175,44.7125 390.725,44.5625 Q390.275,44.4 389.825,44.4 Q389.2625,44.4 388.7875,44.625 Q388.325,44.85 387.9625,45.35 Q387.6,45.85 387.6,46.5375 L387.6,47.275 Q387.6,48.1 388.275,48.65 Q388.95,49.2 390.15,49.2 Q390.8625,49.2 391.3625,49.0375 Q391.65,48.95 391.975,48.6625 Q392.1875,48.5 392.3,48.45 Q392.4125,48.4 392.55,48.4 Q392.8125,48.4 393,48.6125 Q393.2,48.8125 393.2,49.1 Q393.2,49.375 392.925,49.7 Q392.525,50.175 391.8875,50.4375 Q391.05,50.8 390.025,50.8 Q388.825,50.8 387.8625,50.325 Q387.0875,49.95 386.5375,49.1375 Q386,48.325 386,47.3625 L386,46.4875 Q386,45.4875 386.475,44.6125 Q386.9625,43.7375 387.8,43.275 Q388.65,42.8 389.6,42.8 Q390.175,42.8 390.675,43 Q391.175,43.2 391.6,43.6 Z " fill="#000000"/><text fill="#000000" font-family="sans-serif" font-size="11.2" lengthAdjust="spacing" textLength="101.6" x="401.2" y="50.9828">NewQuestionnaireUI</text><line style="stroke:#181818;stroke-width:0.4000000000000001;" x1="378.8" x2="504.4" y1="59.2" y2="59.2"/><line style="stroke:#181818;stroke-width:0.4000000000000001;" x1="378.8" x2="504.4" y1="65.6" y2="65.6"/></g><!--MD5=[504861bf9db31b8374cd44cb3c372d79]
class CreateNewQuestionnaireController--><g id="elem_CreateNewQuestionnaireController"><rect codeLine="12" fill="#F1F1F1" height="52.4875" id="CreateNewQuestionnaireController" rx="2" ry="2" style="stroke:#181818;stroke-width:0.4000000000000001;" width="201.6" x="340.8" y="168"/><ellipse cx="352.8" cy="180.8" fill="#ADD1B2" rx="8.8" ry="8.8" style="stroke:#181818;stroke-width:0.8000000000000002;"/><path d="M354.4,178 Q354.5625,177.6 354.75,177.4 Q354.9375,177.2 355.15,177.2 Q355.525,177.2 355.7625,177.425 Q356,177.65 356,178.175 L356,179.425 Q356,179.95 355.775,180.175 Q355.55,180.4 355.2,180.4 Q354.8875,180.4 354.6875,180.2625 Q354.4875,180.125 354.4,179.7625 Q354.3625,179.5125 354.225,179.375 Q353.975,179.1125 353.525,178.9625 Q353.075,178.8 352.625,178.8 Q352.0625,178.8 351.5875,179.025 Q351.125,179.25 350.7625,179.75 Q350.4,180.25 350.4,180.9375 L350.4,181.675 Q350.4,182.5 351.075,183.05 Q351.75,183.6 352.95,183.6 Q353.6625,183.6 354.1625,183.4375 Q354.45,183.35 354.775,183.0625 Q354.9875,182.9 355.1,182.85 Q355.2125,182.8 355.35,182.8 Q355.6125,182.8 355.8,183.0125 Q356,183.2125 356,183.5 Q356,183.775 355.725,184.1 Q355.325,184.575 354.6875,184.8375 Q353.85,185.2 352.825,185.2 Q351.625,185.2 350.6625,184.725 Q349.8875,184.35 349.3375,183.5375 Q348.8,182.725 348.8,181.7625 L348.8,180.8875 Q348.8,179.8875 349.275,179.0125 Q349.7625,178.1375 350.6,177.675 Q351.45,177.2 352.4,177.2 Q352.975,177.2 353.475,177.4 Q353.975,177.6 354.4,178 Z " fill="#000000"/><text fill="#000000" font-family="sans-serif" font-size="11.2" lengthAdjust="spacing" textLength="176" x="364" y="185.3828">CreateNewQuestionnaireController</text><line style="stroke:#181818;stroke-width:0.4000000000000001;" x1="341.6" x2="541.6" y1="193.6" y2="193.6"/><line style="stroke:#181818;stroke-width:0.4000000000000001;" x1="341.6" x2="541.6" y1="200" y2="200"/><text fill="#000000" font-family="sans-serif" font-size="11.2" lengthAdjust="spacing" textLength="132" x="345.6" y="214.8266">+createQuestionnaire(file)</text></g><!--MD5=[e91aa55a7c2578901ab74514bd0c436d]
class SurveyLexer--><g id="elem_SurveyLexer"><rect codeLine="19" fill="#F1F1F1" height="179.275" id="SurveyLexer" rx="2" ry="2" style="stroke:#181818;stroke-width:0.4000000000000001;" width="134.4" x="374.4" y="353.6"/><ellipse cx="406.92" cy="366.4" fill="#ADD1B2" rx="8.8" ry="8.8" style="stroke:#181818;stroke-width:0.8000000000000002;"/><path d="M408.52,363.6 Q408.6825,363.2 408.87,363 Q409.0575,362.8 409.27,362.8 Q409.645,362.8 409.8825,363.025 Q410.12,363.25 410.12,363.775 L410.12,365.025 Q410.12,365.55 409.895,365.775 Q409.67,366 409.32,366 Q409.0075,366 408.8075,365.8625 Q408.6075,365.725 408.52,365.3625 Q408.4825,365.1125 408.345,364.975 Q408.095,364.7125 407.645,364.5625 Q407.195,364.4 406.745,364.4 Q406.1825,364.4 405.7075,364.625 Q405.245,364.85 404.8825,365.35 Q404.52,365.85 404.52,366.5375 L404.52,367.275 Q404.52,368.1 405.195,368.65 Q405.87,369.2 407.07,369.2 Q407.7825,369.2 408.2825,369.0375 Q408.57,368.95 408.895,368.6625 Q409.1075,368.5 409.22,368.45 Q409.3325,368.4 409.47,368.4 Q409.7325,368.4 409.92,368.6125 Q410.12,368.8125 410.12,369.1 Q410.12,369.375 409.845,369.7 Q409.445,370.175 408.8075,370.4375 Q407.97,370.8 406.945,370.8 Q405.745,370.8 404.7825,370.325 Q404.0075,369.95 403.4575,369.1375 Q402.92,368.325 402.92,367.3625 L402.92,366.4875 Q402.92,365.4875 403.395,364.6125 Q403.8825,363.7375 404.72,363.275 Q405.57,362.8 406.52,362.8 Q407.095,362.8 407.595,363 Q408.095,363.2 408.52,363.6 Z " fill="#000000"/><text fill="#000000" font-family="sans-serif" font-size="11.2" lengthAdjust="spacing" textLength="63.2" x="422.68" y="370.9828">SurveyLexer</text><line style="stroke:#181818;stroke-width:0.4000000000000001;" x1="375.2" x2="508" y1="379.2" y2="379.2"/><line style="stroke:#181818;stroke-width:0.4000000000000001;" x1="375.2" x2="508" y1="385.6" y2="385.6"/><text fill="#000000" font-family="sans-serif" font-size="11.2" lengthAdjust="spacing" textLength="104.8" x="379.2" y="400.4266">-makeLiteralNames()</text><text fill="#000000" font-family="sans-serif" font-size="11.2" lengthAdjust="spacing" textLength="118.4" x="379.2" y="414.5141">-makeSymbolicNames()</text><text fill="#000000" font-family="sans-serif" font-size="11.2" lengthAdjust="spacing" textLength="96.8" x="379.2" y="428.6016">+getTokenNames()</text><text fill="#000000" font-family="sans-serif" font-size="11.2" lengthAdjust="spacing" textLength="87.2" x="379.2" y="442.6891">+getVocabulary()</text><text fill="#000000" font-family="sans-serif" font-size="11.2" lengthAdjust="spacing" textLength="124.8" x="379.2" y="456.7766">+getGrammarFileName()</text><text fill="#000000" font-family="sans-serif" font-size="11.2" lengthAdjust="spacing" textLength="88" x="379.2" y="470.8641">+getRuleNames()</text><text fill="#000000" font-family="sans-serif" font-size="11.2" lengthAdjust="spacing" textLength="100.8" x="379.2" y="484.9516">+getSerializedATN()</text><text fill="#000000" font-family="sans-serif" font-size="11.2" lengthAdjust="spacing" textLength="107.2" x="379.2" y="499.0391">+getChannelNames()</text><text fill="#000000" font-family="sans-serif" font-size="11.2" lengthAdjust="spacing" textLength="95.2" x="379.2" y="513.1266">+getModelNames()</text><text fill="#000000" font-family="sans-serif" font-size="11.2" lengthAdjust="spacing" textLength="52" x="379.2" y="527.2141">+getATN()</text></g><!--MD5=[81d1ae2beabfa3b321b4411d0f3b170d]
class SurveyParser--><g id="elem_SurveyParser"><rect codeLine="32" fill="#F1F1F1" height="193.3625" id="SurveyParser" rx="2" ry="2" style="stroke:#181818;stroke-width:0.4000000000000001;" width="134.4" x="212" y="346.4"/><ellipse cx="242" cy="359.2" fill="#ADD1B2" rx="8.8" ry="8.8" style="stroke:#181818;stroke-width:0.8000000000000002;"/><path d="M243.6,356.4 Q243.7625,356 243.95,355.8 Q244.1375,355.6 244.35,355.6 Q244.725,355.6 244.9625,355.825 Q245.2,356.05 245.2,356.575 L245.2,357.825 Q245.2,358.35 244.975,358.575 Q244.75,358.8 244.4,358.8 Q244.0875,358.8 243.8875,358.6625 Q243.6875,358.525 243.6,358.1625 Q243.5625,357.9125 243.425,357.775 Q243.175,357.5125 242.725,357.3625 Q242.275,357.2 241.825,357.2 Q241.2625,357.2 240.7875,357.425 Q240.325,357.65 239.9625,358.15 Q239.6,358.65 239.6,359.3375 L239.6,360.075 Q239.6,360.9 240.275,361.45 Q240.95,362 242.15,362 Q242.8625,362 243.3625,361.8375 Q243.65,361.75 243.975,361.4625 Q244.1875,361.3 244.3,361.25 Q244.4125,361.2 244.55,361.2 Q244.8125,361.2 245,361.4125 Q245.2,361.6125 245.2,361.9 Q245.2,362.175 244.925,362.5 Q244.525,362.975 243.8875,363.2375 Q243.05,363.6 242.025,363.6 Q240.825,363.6 239.8625,363.125 Q239.0875,362.75 238.5375,361.9375 Q238,361.125 238,360.1625 L238,359.2875 Q238,358.2875 238.475,357.4125 Q238.9625,356.5375 239.8,356.075 Q240.65,355.6 241.6,355.6 Q242.175,355.6 242.675,355.8 Q243.175,356 243.6,356.4 Z " fill="#000000"/><text fill="#000000" font-family="sans-serif" font-size="11.2" lengthAdjust="spacing" textLength="68.8" x="257.2" y="363.7828">SurveyParser</text><line style="stroke:#181818;stroke-width:0.4000000000000001;" x1="212.8" x2="345.6" y1="372" y2="372"/><line style="stroke:#181818;stroke-width:0.4000000000000001;" x1="212.8" x2="345.6" y1="378.4" y2="378.4"/><text fill="#000000" font-family="sans-serif" font-size="11.2" lengthAdjust="spacing" textLength="104.8" x="216.8" y="393.2266">-makeLiteralNames()</text><text fill="#000000" font-family="sans-serif" font-size="11.2" lengthAdjust="spacing" textLength="118.4" x="216.8" y="407.3141">-makeSymbolicNames()</text><text fill="#000000" font-family="sans-serif" font-size="11.2" lengthAdjust="spacing" textLength="96.8" x="216.8" y="421.4016">+getTokenNames()</text><text fill="#000000" font-family="sans-serif" font-size="11.2" lengthAdjust="spacing" textLength="87.2" x="216.8" y="435.4891">+getVocabulary()</text><text fill="#000000" font-family="sans-serif" font-size="11.2" lengthAdjust="spacing" textLength="124.8" x="216.8" y="449.5766">+getGrammarFileName()</text><text fill="#000000" font-family="sans-serif" font-size="11.2" lengthAdjust="spacing" textLength="88" x="216.8" y="463.6641">+getRuleNames()</text><text fill="#000000" font-family="sans-serif" font-size="11.2" lengthAdjust="spacing" textLength="100.8" x="216.8" y="477.7516">+getSerializedATN()</text><text fill="#000000" font-family="sans-serif" font-size="11.2" lengthAdjust="spacing" textLength="107.2" x="216.8" y="491.8391">+getChannelNames()</text><text fill="#000000" font-family="sans-serif" font-size="11.2" lengthAdjust="spacing" textLength="95.2" x="216.8" y="505.9266">+getModelNames()</text><text fill="#000000" font-family="sans-serif" font-size="11.2" lengthAdjust="spacing" textLength="52" x="216.8" y="520.0141">+getATN()</text><text fill="#000000" font-family="sans-serif" font-size="11.2" lengthAdjust="spacing" textLength="36.8" x="216.8" y="534.1016">+start()</text></g><!--MD5=[6a3b1d4fa084eed51f01863968411e0d]
class QuestionnaireVisitor--><g id="elem_QuestionnaireVisitor"><rect codeLine="46" fill="#F1F1F1" height="38.4" id="QuestionnaireVisitor" rx="2" ry="2" style="stroke:#181818;stroke-width:0.4000000000000001;" width="128" x="56" y="424"/><ellipse cx="68" cy="436.8" fill="#ADD1B2" rx="8.8" ry="8.8" style="stroke:#181818;stroke-width:0.8000000000000002;"/><path d="M69.6,434 Q69.7625,433.6 69.95,433.4 Q70.1375,433.2 70.35,433.2 Q70.725,433.2 70.9625,433.425 Q71.2,433.65 71.2,434.175 L71.2,435.425 Q71.2,435.95 70.975,436.175 Q70.75,436.4 70.4,436.4 Q70.0875,436.4 69.8875,436.2625 Q69.6875,436.125 69.6,435.7625 Q69.5625,435.5125 69.425,435.375 Q69.175,435.1125 68.725,434.9625 Q68.275,434.8 67.825,434.8 Q67.2625,434.8 66.7875,435.025 Q66.325,435.25 65.9625,435.75 Q65.6,436.25 65.6,436.9375 L65.6,437.675 Q65.6,438.5 66.275,439.05 Q66.95,439.6 68.15,439.6 Q68.8625,439.6 69.3625,439.4375 Q69.65,439.35 69.975,439.0625 Q70.1875,438.9 70.3,438.85 Q70.4125,438.8 70.55,438.8 Q70.8125,438.8 71,439.0125 Q71.2,439.2125 71.2,439.5 Q71.2,439.775 70.925,440.1 Q70.525,440.575 69.8875,440.8375 Q69.05,441.2 68.025,441.2 Q66.825,441.2 65.8625,440.725 Q65.0875,440.35 64.5375,439.5375 Q64,438.725 64,437.7625 L64,436.8875 Q64,435.8875 64.475,435.0125 Q64.9625,434.1375 65.8,433.675 Q66.65,433.2 67.6,433.2 Q68.175,433.2 68.675,433.4 Q69.175,433.6 69.6,434 Z " fill="#000000"/><text fill="#000000" font-family="sans-serif" font-size="11.2" lengthAdjust="spacing" textLength="102.4" x="79.2" y="441.3828">QuestionnaireVisitor</text><line style="stroke:#181818;stroke-width:0.4000000000000001;" x1="56.8" x2="183.2" y1="449.6" y2="449.6"/><line style="stroke:#181818;stroke-width:0.4000000000000001;" x1="56.8" x2="183.2" y1="456" y2="456"/></g><!--MD5=[feef62c5ce2ca647bb4c8ee1cc815604]
class SurveyBaseListener--><g id="elem_SurveyBaseListener"><rect codeLine="48" fill="#F1F1F1" height="38.4" id="SurveyBaseListener" rx="2" ry="2" style="stroke:#181818;stroke-width:0.4000000000000001;" width="127.2" x="537.2" y="424"/><ellipse cx="549.2" cy="436.8" fill="#ADD1B2" rx="8.8" ry="8.8" style="stroke:#181818;stroke-width:0.8000000000000002;"/><path d="M550.8,434 Q550.9625,433.6 551.15,433.4 Q551.3375,433.2 551.55,433.2 Q551.925,433.2 552.1625,433.425 Q552.4,433.65 552.4,434.175 L552.4,435.425 Q552.4,435.95 552.175,436.175 Q551.95,436.4 551.6,436.4 Q551.2875,436.4 551.0875,436.2625 Q550.8875,436.125 550.8,435.7625 Q550.7625,435.5125 550.625,435.375 Q550.375,435.1125 549.925,434.9625 Q549.475,434.8 549.025,434.8 Q548.4625,434.8 547.9875,435.025 Q547.525,435.25 547.1625,435.75 Q546.8,436.25 546.8,436.9375 L546.8,437.675 Q546.8,438.5 547.475,439.05 Q548.15,439.6 549.35,439.6 Q550.0625,439.6 550.5625,439.4375 Q550.85,439.35 551.175,439.0625 Q551.3875,438.9 551.5,438.85 Q551.6125,438.8 551.75,438.8 Q552.0125,438.8 552.2,439.0125 Q552.4,439.2125 552.4,439.5 Q552.4,439.775 552.125,440.1 Q551.725,440.575 551.0875,440.8375 Q550.25,441.2 549.225,441.2 Q548.025,441.2 547.0625,440.725 Q546.2875,440.35 545.7375,439.5375 Q545.2,438.725 545.2,437.7625 L545.2,436.8875 Q545.2,435.8875 545.675,435.0125 Q546.1625,434.1375 547,433.675 Q547.85,433.2 548.8,433.2 Q549.375,433.2 549.875,433.4 Q550.375,433.6 550.8,434 Z " fill="#000000"/><text fill="#000000" font-family="sans-serif" font-size="11.2" lengthAdjust="spacing" textLength="101.6" x="560.4" y="441.3828">SurveyBaseListener</text><line style="stroke:#181818;stroke-width:0.4000000000000001;" x1="538" x2="663.6" y1="449.6" y2="449.6"/><line style="stroke:#181818;stroke-width:0.4000000000000001;" x1="538" x2="663.6" y1="456" y2="456"/></g><!--MD5=[5a3b85c54cc1c79904e0b827443986bf]
class Questionnaire--><g id="elem_Questionnaire"><rect codeLine="56" fill="#F1F1F1" height="38.4" id="Questionnaire" rx="2" ry="2" style="stroke:#181818;stroke-width:0.4000000000000001;" width="96.8" x="333.2" y="620"/><ellipse cx="345.2" cy="632.8" fill="#ADD1B2" rx="8.8" ry="8.8" style="stroke:#181818;stroke-width:0.8000000000000002;"/><path d="M346.8,630 Q346.9625,629.6 347.15,629.4 Q347.3375,629.2 347.55,629.2 Q347.925,629.2 348.1625,629.425 Q348.4,629.65 348.4,630.175 L348.4,631.425 Q348.4,631.95 348.175,632.175 Q347.95,632.4 347.6,632.4 Q347.2875,632.4 347.0875,632.2625 Q346.8875,632.125 346.8,631.7625 Q346.7625,631.5125 346.625,631.375 Q346.375,631.1125 345.925,630.9625 Q345.475,630.8 345.025,630.8 Q344.4625,630.8 343.9875,631.025 Q343.525,631.25 343.1625,631.75 Q342.8,632.25 342.8,632.9375 L342.8,633.675 Q342.8,634.5 343.475,635.05 Q344.15,635.6 345.35,635.6 Q346.0625,635.6 346.5625,635.4375 Q346.85,635.35 347.175,635.0625 Q347.3875,634.9 347.5,634.85 Q347.6125,634.8 347.75,634.8 Q348.0125,634.8 348.2,635.0125 Q348.4,635.2125 348.4,635.5 Q348.4,635.775 348.125,636.1 Q347.725,636.575 347.0875,636.8375 Q346.25,637.2 345.225,637.2 Q344.025,637.2 343.0625,636.725 Q342.2875,636.35 341.7375,635.5375 Q341.2,634.725 341.2,633.7625 L341.2,632.8875 Q341.2,631.8875 341.675,631.0125 Q342.1625,630.1375 343,629.675 Q343.85,629.2 344.8,629.2 Q345.375,629.2 345.875,629.4 Q346.375,629.6 346.8,630 Z " fill="#000000"/><text fill="#000000" font-family="sans-serif" font-size="11.2" lengthAdjust="spacing" textLength="71.2" x="356.4" y="637.3828">Questionnaire</text><line style="stroke:#181818;stroke-width:0.4000000000000001;" x1="334" x2="429.2" y1="645.6" y2="645.6"/><line style="stroke:#181818;stroke-width:0.4000000000000001;" x1="334" x2="429.2" y1="652" y2="652"/></g><!--MD5=[c6b04dd915da2782c7f25f23de56bf64]
link NewQuestionnaireUI to CreateNewQuestionnaireController--><g id="link_NewQuestionnaireUI_CreateNewQuestionnaireController"><path codeLine="62" d="M441.6,72.192 C441.6,95.488 441.6,135.72 441.6,163.448 " fill="none" id="NewQuestionnaireUI-to-CreateNewQuestionnaireController" style="stroke:#181818;stroke-width:0.8000000000000002;stroke-dasharray:7.0,7.0;"/><polygon fill="#181818" points="441.6,167.792,444.8,160.592,441.6,163.792,438.4,160.592,441.6,167.792" style="stroke:#181818;stroke-width:0.8000000000000002;"/></g><!--MD5=[74e57734fa04af13d2ecef62869d1d40]
link CreateNewQuestionnaireController to Questionnaire--><g id="link_CreateNewQuestionnaireController_Questionnaire"><path codeLine="64" d="M542.64,203.104 C591.84,212.648 646.88,233.016 677.6,276 C755.744,385.352 762.672,474.352 677.6,578.4 C647.44,615.288 510.912,630.04 434.248,635.496 " fill="none" id="CreateNewQuestionnaireController-to-Questionnaire" style="stroke:#181818;stroke-width:0.8000000000000002;"/><polygon fill="#181818" points="430.192,635.776,437.6022,638.4534,434.1818,635.4902,437.145,632.0697,430.192,635.776" style="stroke:#181818;stroke-width:0.8000000000000002;"/></g><!--MD5=[d342c3a3133338ce954d5b35b2fd8818]
link CreateNewQuestionnaireController to QuestionnaireVisitor--><g id="link_CreateNewQuestionnaireController_QuestionnaireVisitor"><path codeLine="65" d="M340.624,209.808 C292.88,221.104 237.84,241.016 198.4,276 C154.352,315.08 133.08,384.192 124.632,419.8 " fill="none" id="CreateNewQuestionnaireController-to-QuestionnaireVisitor" style="stroke:#181818;stroke-width:0.8000000000000002;"/><polygon fill="#181818" points="123.712,423.76,128.4544,417.468,124.6148,419.8632,122.2196,416.0236,123.712,423.76" style="stroke:#181818;stroke-width:0.8000000000000002;"/></g><!--MD5=[0eaa52fd0212ed083ada73e1014bbf18]
link CreateNewQuestionnaireController to SurveyBaseListener--><g id="link_CreateNewQuestionnaireController_SurveyBaseListener"><path codeLine="66" d="M472.568,221.008 C489.064,235.88 508.856,255.624 523.2,276 C556.344,323.088 581.352,386.584 593.208,419.88 " fill="none" id="CreateNewQuestionnaireController-to-SurveyBaseListener" style="stroke:#181818;stroke-width:0.8000000000000002;"/><polygon fill="#181818" points="594.584,423.784,595.2152,415.9302,593.2575,420.0104,589.1774,418.0526,594.584,423.784" style="stroke:#181818;stroke-width:0.8000000000000002;"/></g><!--MD5=[8912d460044548dfb8f9d3421a0a225f]
link CreateNewQuestionnaireController to SurveyParser--><g id="link_CreateNewQuestionnaireController_SurveyParser"><path codeLine="67" d="M411.496,220.816 C395.136,235.776 375.336,255.664 360.8,276 C346.192,296.432 332.904,319.88 321.488,342.608 " fill="none" id="CreateNewQuestionnaireController-to-SurveyParser" style="stroke:#181818;stroke-width:0.8000000000000002;"/><polygon fill="#181818" points="319.672,346.248,325.7477,341.2314,321.4563,342.668,320.0197,338.3766,319.672,346.248" style="stroke:#181818;stroke-width:0.8000000000000002;"/></g><!--MD5=[0a45ba30d4bdb5a0572f8fbb40b4aa90]
link CreateNewQuestionnaireController to SurveyLexer--><g id="link_CreateNewQuestionnaireController_SurveyLexer"><path codeLine="68" d="M441.6,220.952 C441.6,251.264 441.6,303.304 441.6,349.32 " fill="none" id="CreateNewQuestionnaireController-to-SurveyLexer" style="stroke:#181818;stroke-width:0.8000000000000002;"/><polygon fill="#181818" points="441.6,353.472,444.8,346.272,441.6,349.472,438.4,346.272,441.6,353.472" style="stroke:#181818;stroke-width:0.8000000000000002;"/></g><!--MD5=[a264b65aac318ced2133c6a2327a3e9d]
link QuestionnaireVisitor to Questionnaire--><g id="link_QuestionnaireVisitor_Questionnaire"><path codeLine="70" d="M125.944,462.504 C136.152,491.4 159.736,547.16 198.4,578.4 C236.024,608.8 289.56,624 329.048,631.472 " fill="none" id="QuestionnaireVisitor-to-Questionnaire" style="stroke:#181818;stroke-width:0.8000000000000002;"/><polygon fill="#181818" points="333.072,632.216,326.5788,627.753,329.1395,631.4844,325.4082,634.0451,333.072,632.216" style="stroke:#181818;stroke-width:0.8000000000000002;"/></g><!--MD5=[9e7c8a91da70f5a878e9445b382e8945]
@startuml
'https://plantuml.com/sequence-diagram

skinparam classAttributeIconSize 0

package ui {
class NewQuestionnaireUI{}
}

package surveymanagement {

package application{
class CreateNewQuestionnaireController{
+createQuestionnaire(file)
}
}

package antlr{
package eapli.base.surveymanagement.antr {
class SurveyLexer {
-makeLiteralNames()
-makeSymbolicNames()
+getTokenNames()
+getVocabulary()
+getGrammarFileName()
+getRuleNames()
+getSerializedATN()
+getChannelNames()
+getModelNames()
+getATN()
}

class SurveyParser {
-makeLiteralNames()
-makeSymbolicNames()
+getTokenNames()
+getVocabulary()
+getGrammarFileName()
+getRuleNames()
+getSerializedATN()
+getChannelNames()
+getModelNames()
+getATN()
+start()
}

class QuestionnaireVisitor {}

class SurveyBaseListener {}

}
}



package domain{
class Questionnaire {}
}

}


NewQuestionnaireUI ..> CreateNewQuestionnaireController

CreateNewQuestionnaireController - - - -> Questionnaire
CreateNewQuestionnaireController -> QuestionnaireVisitor
CreateNewQuestionnaireController - - -> SurveyBaseListener
CreateNewQuestionnaireController -> SurveyParser
CreateNewQuestionnaireController -> SurveyLexer

QuestionnaireVisitor -> Questionnaire









@enduml

@startuml

skinparam classAttributeIconSize 0

package ui {
class NewQuestionnaireUI{}
}

package surveymanagement {

package application{
class CreateNewQuestionnaireController{
+createQuestionnaire(file)
}
}

package antlr{
package eapli.base.surveymanagement.antr {
class SurveyLexer {
-makeLiteralNames()
-makeSymbolicNames()
+getTokenNames()
+getVocabulary()
+getGrammarFileName()
+getRuleNames()
+getSerializedATN()
+getChannelNames()
+getModelNames()
+getATN()
}

class SurveyParser {
-makeLiteralNames()
-makeSymbolicNames()
+getTokenNames()
+getVocabulary()
+getGrammarFileName()
+getRuleNames()
+getSerializedATN()
+getChannelNames()
+getModelNames()
+getATN()
+start()
}

class QuestionnaireVisitor {}

class SurveyBaseListener {}

}
}



package domain{
class Questionnaire {}
}

}


NewQuestionnaireUI ..> CreateNewQuestionnaireController

CreateNewQuestionnaireController - - - -> Questionnaire
CreateNewQuestionnaireController -> QuestionnaireVisitor
CreateNewQuestionnaireController - - -> SurveyBaseListener
CreateNewQuestionnaireController -> SurveyParser
CreateNewQuestionnaireController -> SurveyLexer

QuestionnaireVisitor -> Questionnaire









@enduml

PlantUML version 1.2022.4(Sat Apr 09 14:29:17 BST 2022)
(GPL source distribution)
Java Runtime: OpenJDK Runtime Environment
JVM: OpenJDK 64-Bit Server VM
Default Encoding: Cp1252
Language: pt
Country: PT
--></g></svg>