<?xml version="1.0" encoding="UTF-8" standalone="no"?><svg xmlns="http://www.w3.org/2000/svg" xmlns:xlink="http://www.w3.org/1999/xlink" contentScriptType="application/ecmascript" contentStyleType="text/css" height="291px" preserveAspectRatio="none" style="width:902px;height:291px;background:#FFFFFF;" version="1.1" viewBox="0 0 902 291" width="902px" zoomAndPan="magnify"><defs><filter height="300%" id="f1ujymh0ssbutk" width="300%" x="-1" y="-1"><feGaussianBlur result="blurOut" stdDeviation="2.0"/><feColorMatrix in="blurOut" result="blurOut2" type="matrix" values="0 0 0 0 0 0 0 0 0 0 0 0 0 0 0 0 0 0 .4 0"/><feOffset dx="4.0" dy="4.0" in="blurOut2" result="blurOut3"/><feBlend in="SourceGraphic" in2="blurOut3" mode="normal"/></filter></defs><g><!--MD5=[ce5e91745b5c4e46f992402a2ac24ff2]
cluster <<aggregate>> ProductOrder--><polygon fill="#FFFFFF" filter="url(#f1ujymh0ssbutk)" points="549,146,759,146,766,169.6094,885,169.6094,885,284,549,284,549,146" style="stroke:#000000;stroke-width:1.5;"/><line style="stroke:#000000;stroke-width:1.5;" x1="549" x2="766" y1="169.6094" y2="169.6094"/><text fill="#000000" font-family="sans-serif" font-size="14" font-weight="bold" lengthAdjust="spacing" textLength="204" x="553" y="162.5332">&lt;&lt;aggregate&gt;&gt; ProductOrder</text><!--MD5=[db53c58abe70499843a85815d88add8b]
cluster <<aggregate>> Employee--><polygon fill="#FFFFFF" filter="url(#f1ujymh0ssbutk)" points="16,117,198,117,205,140.6094,208,140.6094,208,255,16,255,16,117" style="stroke:#000000;stroke-width:1.5;"/><line style="stroke:#000000;stroke-width:1.5;" x1="16" x2="205" y1="140.6094" y2="140.6094"/><text fill="#000000" font-family="sans-serif" font-size="14" font-weight="bold" lengthAdjust="spacing" textLength="176" x="20" y="133.5332">&lt;&lt;aggregate&gt;&gt; Employee</text><!--MD5=[597c9b6a35d8038d4b40fd8870ba90aa]
cluster <<aggregate>> User--><polygon fill="#FFFFFF" filter="url(#f1ujymh0ssbutk)" points="263,6,410,6,417,29.6094,688,29.6094,688,122,263,122,263,6" style="stroke:#000000;stroke-width:1.5;"/><line style="stroke:#000000;stroke-width:1.5;" x1="263" x2="417" y1="29.6094" y2="29.6094"/><text fill="#000000" font-family="sans-serif" font-size="14" font-weight="bold" lengthAdjust="spacing" textLength="141" x="267" y="22.5332">&lt;&lt;aggregate&gt;&gt; User</text><!--MD5=[9265192601ae3d68217fc2a2ce1ea439]
class ProductOrder--><rect codeLine="14" fill="#F5F5DC" filter="url(#f1ujymh0ssbutk)" height="85.1172" id="ProductOrder" style="stroke:#A80036;stroke-width:1.5;" width="105" x="565" y="182.5"/><ellipse cx="580" cy="210.1406" fill="#ADD1B2" rx="11" ry="11" style="stroke:#A80036;stroke-width:1.0;"/><path d="M578.5,211.1406 L578.5,213.1406 L582.5,213.1406 L582.5,212.1406 L582.5,211.6563 L583.125,211.1406 L583.5,211.1406 L583.875,211.1406 L584.5,211.6563 L584.5,212.1406 L584.5,215.1406 L576.5,215.1406 L576.0156,215.1406 L575.5,214.5156 L575.5,214.1406 L575.5,213.7656 L576.0156,213.1406 L576.5,213.1406 L576.5,213.1406 L576.5,207.1406 L576.5,207.1406 L576.0156,207.1406 L575.5,206.5156 L575.5,206.1406 L575.5,205.7656 L576.0156,205.1406 L576.5,205.1406 L584.5,205.1406 L584.5,208.1406 L584.5,208.625 L583.875,209.1406 L583.5,209.1406 L583.125,209.1406 L582.5,208.625 L582.5,208.1406 L582.5,207.1406 L578.5,207.1406 L578.5,209.1406 L579.5,209.1406 L579.5,208.6563 L579.5,208.6563 L580.125,208.1406 L580.5,208.1406 L580.875,208.1406 L581.5,208.6563 L581.5,209.1406 L581.5,211.1406 L581.5,211.625 L580.875,212.1406 L580.875,212.1406 L580.5,212.1406 L580.125,212.1406 L579.5,211.625 L579.5,211.625 L579.5,211.1406 L578.5,211.1406 Z " fill="#000000"/><text fill="#000000" font-family="sans-serif" font-size="12" font-style="italic" lengthAdjust="spacing" textLength="43" x="609" y="199.957">«entity»</text><text fill="#000000" font-family="sans-serif" font-size="12" font-style="italic" lengthAdjust="spacing" textLength="35" x="613" y="215.0508">«root»</text><text fill="#000000" font-family="sans-serif" font-size="12" lengthAdjust="spacing" textLength="73" x="594" y="230.1445">ProductOrder</text><line style="stroke:#A80036;stroke-width:1.5;" x1="566" x2="669" y1="237.7813" y2="237.7813"/><text fill="#000000" font-family="sans-serif" font-size="11" lengthAdjust="spacing" textLength="83" x="571" y="253.2002">-numericIdentifier</text><line style="stroke:#A80036;stroke-width:1.5;" x1="566" x2="669" y1="259.6172" y2="259.6172"/><!--MD5=[e3d83ec5fd90ea9f3f2bfe265cb53458]
class Status--><rect codeLine="18" fill="#F5F5DC" filter="url(#f1ujymh0ssbutk)" height="48.1875" id="Status" style="stroke:#A80036;stroke-width:1.5;" width="109" x="760" y="201"/><ellipse cx="775" cy="221.0938" fill="#FF8B40" rx="11" ry="11" style="stroke:#A80036;stroke-width:1.0;"/><path d="M775,224.375 L776.5313,218.8438 L776.5313,218.8438 L776.0156,218.8438 L775.5,218.2188 L775.5,217.8438 L775.5,217.4688 L776.0156,216.8438 L776.5313,216.8438 L778.4063,216.8438 L778.9844,216.8438 L779.5,217.4688 L779.5,217.8438 L779.5,218.2188 L778.9844,218.8438 L778.9844,218.8438 L778.5313,218.8438 L776.1875,226.8438 L773.8125,226.8438 L771.3438,218.8438 L771.0156,218.8438 L771.0156,218.8438 L770.5,218.2188 L770.5,217.8438 L770.5,217.4688 L771.0156,216.8438 L771.5938,216.8438 L773.4688,216.8438 L773.9844,216.8438 L774.5,217.4688 L774.5,217.8438 L774.5,218.2188 L773.9844,218.8438 L773.4688,218.8438 L773.4688,218.8438 L775,224.375 Z " fill="#000000"/><text fill="#000000" font-family="sans-serif" font-size="12" font-style="italic" lengthAdjust="spacing" textLength="81" x="787" y="218.457">«value object»</text><text fill="#000000" font-family="sans-serif" font-size="12" lengthAdjust="spacing" textLength="35" x="810" y="233.5508">Status</text><line style="stroke:#A80036;stroke-width:1.5;" x1="761" x2="868" y1="241.1875" y2="241.1875"/><!--MD5=[7421f545a0d8420c5bec41e74b387d9c]
class Employee--><rect codeLine="25" fill="#F5F5DC" filter="url(#f1ujymh0ssbutk)" height="85.1172" id="Employee" style="stroke:#A80036;stroke-width:1.5;" width="87" x="68" y="153.5"/><ellipse cx="83" cy="181.1406" fill="#ADD1B2" rx="11" ry="11" style="stroke:#A80036;stroke-width:1.0;"/><path d="M81.5,182.1406 L81.5,184.1406 L85.5,184.1406 L85.5,183.1406 L85.5,182.6563 L86.125,182.1406 L86.5,182.1406 L86.875,182.1406 L87.5,182.6563 L87.5,183.1406 L87.5,186.1406 L79.5,186.1406 L79.0156,186.1406 L78.5,185.5156 L78.5,185.1406 L78.5,184.7656 L79.0156,184.1406 L79.5,184.1406 L79.5,184.1406 L79.5,178.1406 L79.5,178.1406 L79.0156,178.1406 L78.5,177.5156 L78.5,177.1406 L78.5,176.7656 L79.0156,176.1406 L79.5,176.1406 L87.5,176.1406 L87.5,179.1406 L87.5,179.625 L86.875,180.1406 L86.5,180.1406 L86.125,180.1406 L85.5,179.625 L85.5,179.1406 L85.5,178.1406 L81.5,178.1406 L81.5,180.1406 L82.5,180.1406 L82.5,179.6563 L82.5,179.6563 L83.125,179.1406 L83.5,179.1406 L83.875,179.1406 L84.5,179.6563 L84.5,180.1406 L84.5,182.1406 L84.5,182.625 L83.875,183.1406 L83.875,183.1406 L83.5,183.1406 L83.125,183.1406 L82.5,182.625 L82.5,182.625 L82.5,182.1406 L81.5,182.1406 Z " fill="#000000"/><text fill="#000000" font-family="sans-serif" font-size="12" font-style="italic" lengthAdjust="spacing" textLength="43" x="103" y="170.957">«entity»</text><text fill="#000000" font-family="sans-serif" font-size="12" font-style="italic" lengthAdjust="spacing" textLength="35" x="107" y="186.0508">«root»</text><text fill="#000000" font-family="sans-serif" font-size="12" lengthAdjust="spacing" textLength="55" x="97" y="201.1445">Employee</text><line style="stroke:#A80036;stroke-width:1.5;" x1="69" x2="154" y1="208.7813" y2="208.7813"/><text fill="#000000" font-family="sans-serif" font-size="11" lengthAdjust="spacing" textLength="45" x="74" y="224.2002">-identifier</text><line style="stroke:#A80036;stroke-width:1.5;" x1="69" x2="154" y1="230.6172" y2="230.6172"/><!--MD5=[3fd616f346a44cd59a91eb10b19e157c]
class User--><rect codeLine="34" fill="#F5F5DC" filter="url(#f1ujymh0ssbutk)" height="63.2813" id="User" style="stroke:#A80036;stroke-width:1.5;" width="71" x="279" y="42.5"/><ellipse cx="294" cy="70.1406" fill="#ADD1B2" rx="11" ry="11" style="stroke:#A80036;stroke-width:1.0;"/><path d="M292.5,71.1406 L292.5,73.1406 L296.5,73.1406 L296.5,72.1406 L296.5,71.6563 L297.125,71.1406 L297.5,71.1406 L297.875,71.1406 L298.5,71.6563 L298.5,72.1406 L298.5,75.1406 L290.5,75.1406 L290.0156,75.1406 L289.5,74.5156 L289.5,74.1406 L289.5,73.7656 L290.0156,73.1406 L290.5,73.1406 L290.5,73.1406 L290.5,67.1406 L290.5,67.1406 L290.0156,67.1406 L289.5,66.5156 L289.5,66.1406 L289.5,65.7656 L290.0156,65.1406 L290.5,65.1406 L298.5,65.1406 L298.5,68.1406 L298.5,68.625 L297.875,69.1406 L297.5,69.1406 L297.125,69.1406 L296.5,68.625 L296.5,68.1406 L296.5,67.1406 L292.5,67.1406 L292.5,69.1406 L293.5,69.1406 L293.5,68.6563 L293.5,68.6563 L294.125,68.1406 L294.5,68.1406 L294.875,68.1406 L295.5,68.6563 L295.5,69.1406 L295.5,71.1406 L295.5,71.625 L294.875,72.1406 L294.875,72.1406 L294.5,72.1406 L294.125,72.1406 L293.5,71.625 L293.5,71.625 L293.5,71.1406 L292.5,71.1406 Z " fill="#000000"/><text fill="#000000" font-family="sans-serif" font-size="12" font-style="italic" lengthAdjust="spacing" textLength="43" x="306" y="59.957">«entity»</text><text fill="#000000" font-family="sans-serif" font-size="12" font-style="italic" lengthAdjust="spacing" textLength="35" x="310" y="75.0508">«root»</text><text fill="#000000" font-family="sans-serif" font-size="12" lengthAdjust="spacing" textLength="27" x="314" y="90.1445">User</text><line style="stroke:#A80036;stroke-width:1.5;" x1="280" x2="349" y1="97.7813" y2="97.7813"/><!--MD5=[a3638c1e5b65d287ecad7f06f5c0f212]
class Role--><rect codeLine="38" fill="#F5F5DC" filter="url(#f1ujymh0ssbutk)" height="48.1875" id="Role" style="stroke:#A80036;stroke-width:1.5;" width="109" x="563" y="47"/><ellipse cx="578" cy="67.0938" fill="#FF8B40" rx="11" ry="11" style="stroke:#A80036;stroke-width:1.0;"/><path d="M578,70.375 L579.5313,64.8438 L579.5313,64.8438 L579.0156,64.8438 L578.5,64.2188 L578.5,63.8438 L578.5,63.4688 L579.0156,62.8438 L579.5313,62.8438 L581.4063,62.8438 L581.9844,62.8438 L582.5,63.4688 L582.5,63.8438 L582.5,64.2188 L581.9844,64.8438 L581.9844,64.8438 L581.5313,64.8438 L579.1875,72.8438 L576.8125,72.8438 L574.3438,64.8438 L574.0156,64.8438 L574.0156,64.8438 L573.5,64.2188 L573.5,63.8438 L573.5,63.4688 L574.0156,62.8438 L574.5938,62.8438 L576.4688,62.8438 L576.9844,62.8438 L577.5,63.4688 L577.5,63.8438 L577.5,64.2188 L576.9844,64.8438 L576.4688,64.8438 L576.4688,64.8438 L578,70.375 Z " fill="#000000"/><text fill="#000000" font-family="sans-serif" font-size="12" font-style="italic" lengthAdjust="spacing" textLength="81" x="590" y="64.457">«value object»</text><text fill="#000000" font-family="sans-serif" font-size="12" lengthAdjust="spacing" textLength="26" x="617.5" y="79.5508">Role</text><line style="stroke:#A80036;stroke-width:1.5;" x1="564" x2="671" y1="87.1875" y2="87.1875"/><!--MD5=[70c37dc9bfbc8656942103c36f1181e4]
link User to Role--><path codeLine="40" d="M350.03,73.66 C400.72,73.15 495.95,72.2 557.77,71.59 " fill="none" id="User-to-Role" style="stroke:#222222;stroke-width:1.0;"/><polygon fill="#222222" points="562.9,71.53,553.8549,67.6331,557.9003,71.5871,553.9463,75.6326,562.9,71.53" style="stroke:#222222;stroke-width:1.0;"/><text fill="#000000" font-family="sans-serif" font-size="13" lengthAdjust="spacing" textLength="42" x="459" y="69.4951">plays a</text><text fill="#000000" font-family="sans-serif" font-size="13" lengthAdjust="spacing" textLength="20" x="535.0269" y="86.0747">1..*</text><!--MD5=[22fb9506fac029fc1d2ae00f0eb8d606]
link Employee to User--><path codeLine="42" d="M155.13,170.13 C190.42,148.71 240.15,118.52 274.43,97.72 " fill="none" id="Employee-to-User" style="stroke:#222222;stroke-width:1.0;"/><polygon fill="#222222" points="278.95,94.97,269.1824,96.2327,274.679,97.5697,273.342,103.0663,278.95,94.97" style="stroke:#222222;stroke-width:1.0;"/><text fill="#000000" font-family="sans-serif" font-size="13" lengthAdjust="spacing" textLength="21" x="225" y="113.4951">is a</text><text fill="#000000" font-family="sans-serif" font-size="13" lengthAdjust="spacing" textLength="7" x="263.8959" y="114.4474">1</text><!--MD5=[e53ba572a82d05a700e2b982cf1a8fc6]
link Employee to ProductOrder--><path codeLine="44" d="M155.04,198.45 C245.7,203.66 458.01,215.88 559.93,221.75 " fill="none" id="Employee-to-ProductOrder" style="stroke:#222222;stroke-width:1.0;"/><polygon fill="#222222" points="565,222.04,556.2429,217.5331,560.0081,221.7548,555.7865,225.52,565,222.04" style="stroke:#222222;stroke-width:1.0;"/><text fill="#000000" font-family="sans-serif" font-size="13" lengthAdjust="spacing" textLength="46" x="381" y="207.4951">manage</text><text fill="#000000" font-family="sans-serif" font-size="13" lengthAdjust="spacing" textLength="22" x="534.8641" y="236.1959">0..1</text><!--MD5=[ac4c49bc24431560733104ccf6b1c608]
link ProductOrder to Status--><path codeLine="45" d="M670.24,225 C696.16,225 727.65,225 754.51,225 " fill="none" id="ProductOrder-to-Status" style="stroke:#222222;stroke-width:1.0;"/><polygon fill="#222222" points="759.81,225,750.81,221,754.81,225,750.81,229,759.81,225" style="stroke:#222222;stroke-width:1.0;"/><text fill="#000000" font-family="sans-serif" font-size="13" lengthAdjust="spacing" textLength="24" x="705" y="221.4951">is in</text><text fill="#000000" font-family="sans-serif" font-size="13" lengthAdjust="spacing" textLength="7" x="744.9907" y="239.5811">1</text><!--MD5=[66a94ac5fad16faed633e9d9e59657f9]
@startuml
'https://plantuml.com/class-diagram

skinparam classAttributeIconSize 0
hide empty attributes
left to right direction
skinparam classBackgroundColor beige
skinparam ArrowColor #222222

package "<<aggregate>> ProductOrder"{
    entity ProductOrder
    class Status
}

entity ProductOrder <<entity>> <<root>> {
- numericIdentifier
}

class Status <<(V,#FF8B40) value object>> {}


package "<<aggregate>> Employee" {
    entity Employee
}

entity Employee <<entity>> <<root>> {
    -identifier
}

package "<<aggregate>> User" {
    entity User
    class Role
}

entity User <<entity>> <<root>> {

}

class Role <<(V,#FF8B40) value object>> {}

User - - -> "1..*" Role : plays a

Employee - -> "1" User : is a

Employee  - - - -> "0..1" ProductOrder : manage
ProductOrder - -> "1" Status : is in


@enduml

@startuml

skinparam classAttributeIconSize 0
hide empty attributes
left to right direction
skinparam classBackgroundColor beige
skinparam ArrowColor #222222

package "<<aggregate>> ProductOrder"{
    entity ProductOrder
    class Status
}

entity ProductOrder <<entity>> <<root>> {
- numericIdentifier
}

class Status <<(V,#FF8B40) value object>> {}


package "<<aggregate>> Employee" {
    entity Employee
}

entity Employee <<entity>> <<root>> {
    -identifier
}

package "<<aggregate>> User" {
    entity User
    class Role
}

entity User <<entity>> <<root>> {

}

class Role <<(V,#FF8B40) value object>> {}

User - - -> "1..*" Role : plays a

Employee - -> "1" User : is a

Employee  - - - -> "0..1" ProductOrder : manage
ProductOrder - -> "1" Status : is in


@enduml

PlantUML version 1.2022.1(Tue Feb 01 18:19:58 GMT 2022)
(GPL source distribution)
Java Runtime: OpenJDK Runtime Environment
JVM: Dynamic Code Evolution 64-Bit Server VM
Default Encoding: Cp1252
Language: pt
Country: PT
--></g></svg>