<?xml version="1.0" encoding="UTF-8" standalone="no"?><svg xmlns="http://www.w3.org/2000/svg" xmlns:xlink="http://www.w3.org/1999/xlink" contentScriptType="application/ecmascript" contentStyleType="text/css" height="154.8px" preserveAspectRatio="none" style="width:541px;height:154px;background:#FFFFFF;" version="1.1" viewBox="0 0 541 154" width="541.2px" zoomAndPan="magnify"><defs><filter height="300%" id="f44g87amecvbe" width="300%" x="-1" y="-1"><feGaussianBlur result="blurOut" stdDeviation="1.2"/><feColorMatrix in="blurOut" result="blurOut2" type="matrix" values="0 0 0 0 0 0 0 0 0 0 0 0 0 0 0 0 0 0 .4 0"/><feOffset dx="2.4" dy="2.4" in="blurOut2" result="blurOut3"/><feBlend in="SourceGraphic" in2="blurOut3" mode="normal"/></filter></defs><g><!--MD5=[ce5e91745b5c4e46f992402a2ac24ff2]
cluster <<aggregate>> ProductOrder--><polygon fill="#FFFFFF" filter="url(#f44g87amecvbe)" points="329.4,87.6,455.4,87.6,459.6,101.7656,531,101.7656,531,150.6,329.4,150.6,329.4,87.6" style="stroke:#000000;stroke-width:0.8999999999999999;"/><line style="stroke:#000000;stroke-width:0.8999999999999999;" x1="329.4" x2="459.6" y1="101.7656" y2="101.7656"/><text fill="#000000" font-family="sans-serif" font-size="8.4" font-weight="bold" lengthAdjust="spacing" textLength="122.4" x="331.8" y="97.5199">&lt;&lt;aggregate&gt;&gt; ProductOrder</text><!--MD5=[db53c58abe70499843a85815d88add8b]
cluster <<aggregate>> Employee--><polygon fill="#FFFFFF" filter="url(#f44g87amecvbe)" points="9.6,55.2,118.8,55.2,123,69.3656,124.8,69.3656,124.8,138,9.6,138,9.6,55.2" style="stroke:#000000;stroke-width:0.8999999999999999;"/><line style="stroke:#000000;stroke-width:0.8999999999999999;" x1="9.6" x2="123" y1="69.3656" y2="69.3656"/><text fill="#000000" font-family="sans-serif" font-size="8.4" font-weight="bold" lengthAdjust="spacing" textLength="105.6" x="12" y="65.1199">&lt;&lt;aggregate&gt;&gt; Employee</text><!--MD5=[597c9b6a35d8038d4b40fd8870ba90aa]
cluster <<aggregate>> User--><polygon fill="#FFFFFF" filter="url(#f44g87amecvbe)" points="157.8,3.6,246,3.6,250.2,17.7656,412.8,17.7656,412.8,73.2,157.8,73.2,157.8,3.6" style="stroke:#000000;stroke-width:0.8999999999999999;"/><line style="stroke:#000000;stroke-width:0.8999999999999999;" x1="157.8" x2="250.2" y1="17.7656" y2="17.7656"/><text fill="#000000" font-family="sans-serif" font-size="8.4" font-weight="bold" lengthAdjust="spacing" textLength="84.6" x="160.2" y="13.5199">&lt;&lt;aggregate&gt;&gt; User</text><!--MD5=[9265192601ae3d68217fc2a2ce1ea439]
class ProductOrder--><rect codeLine="10" fill="#F5F5DC" filter="url(#f44g87amecvbe)" height="24" id="ProductOrder" style="stroke:#A80036;stroke-width:0.8999999999999999;" width="63" x="339" y="109.2"/><ellipse cx="348" cy="118.8" fill="#ADD1B2" rx="6.6" ry="6.6" style="stroke:#A80036;stroke-width:0.6;"/><path d="M347.1,119.4 L347.1,120.6 L349.5,120.6 L349.5,120 L349.5,119.7094 L349.875,119.4 L350.1,119.4 L350.325,119.4 L350.7,119.7094 L350.7,120 L350.7,121.8 L345.9,121.8 L345.6094,121.8 L345.3,121.425 L345.3,121.2 L345.3,120.975 L345.6094,120.6 L345.9,120.6 L345.9,120.6 L345.9,117 L345.9,117 L345.6094,117 L345.3,116.625 L345.3,116.4 L345.3,116.175 L345.6094,115.8 L345.9,115.8 L350.7,115.8 L350.7,117.6 L350.7,117.8906 L350.325,118.2 L350.1,118.2 L349.875,118.2 L349.5,117.8906 L349.5,117.6 L349.5,117 L347.1,117 L347.1,118.2 L347.7,118.2 L347.7,117.9094 L347.7,117.9094 L348.075,117.6 L348.3,117.6 L348.525,117.6 L348.9,117.9094 L348.9,118.2 L348.9,119.4 L348.9,119.6906 L348.525,120 L348.525,120 L348.3,120 L348.075,120 L347.7,119.6906 L347.7,119.6906 L347.7,119.4 L347.1,119.4 Z " fill="#000000"/><text fill="#000000" font-family="sans-serif" font-size="7.2" lengthAdjust="spacing" textLength="43.8" x="356.4" y="121.7461">ProductOrder</text><line style="stroke:#A80036;stroke-width:0.8999999999999999;" x1="339.6" x2="401.4" y1="128.4" y2="128.4"/><!--MD5=[e3d83ec5fd90ea9f3f2bfe265cb53458]
class Status--><rect codeLine="16" fill="#F5F5DC" filter="url(#f44g87amecvbe)" height="28.9125" id="Status" style="stroke:#A80036;stroke-width:0.8999999999999999;" width="65.4" x="456" y="109.2"/><ellipse cx="465" cy="121.2563" fill="#FF8B40" rx="6.6" ry="6.6" style="stroke:#A80036;stroke-width:0.6;"/><path d="M465,123.225 L465.9188,119.9063 L465.9188,119.9063 L465.6094,119.9063 L465.3,119.5313 L465.3,119.3062 L465.3,119.0813 L465.6094,118.7063 L465.9188,118.7063 L467.0438,118.7063 L467.3906,118.7063 L467.7,119.0813 L467.7,119.3062 L467.7,119.5313 L467.3906,119.9063 L467.3906,119.9063 L467.1188,119.9063 L465.7125,124.7063 L464.2875,124.7063 L462.8063,119.9063 L462.6094,119.9063 L462.6094,119.9063 L462.3,119.5313 L462.3,119.3062 L462.3,119.0813 L462.6094,118.7063 L462.9562,118.7063 L464.0812,118.7063 L464.3906,118.7063 L464.7,119.0813 L464.7,119.3062 L464.7,119.5313 L464.3906,119.9063 L464.0812,119.9063 L464.0812,119.9063 L465,123.225 Z " fill="#000000"/><text fill="#000000" font-family="sans-serif" font-size="7.2" font-style="italic" lengthAdjust="spacing" textLength="48.6" x="472.2" y="119.6742">«value object»</text><text fill="#000000" font-family="sans-serif" font-size="7.2" lengthAdjust="spacing" textLength="21" x="486" y="128.7305">Status</text><line style="stroke:#A80036;stroke-width:0.8999999999999999;" x1="456.6" x2="520.8" y1="133.3125" y2="133.3125"/><!--MD5=[7421f545a0d8420c5bec41e74b387d9c]
class Employee--><rect codeLine="23" fill="#F5F5DC" filter="url(#f44g87amecvbe)" height="51.0703" id="Employee" style="stroke:#A80036;stroke-width:0.8999999999999999;" width="52.2" x="40.8" y="77.1"/><ellipse cx="49.8" cy="93.6844" fill="#ADD1B2" rx="6.6" ry="6.6" style="stroke:#A80036;stroke-width:0.6;"/><path d="M48.9,94.2844 L48.9,95.4844 L51.3,95.4844 L51.3,94.8844 L51.3,94.5938 L51.675,94.2844 L51.9,94.2844 L52.125,94.2844 L52.5,94.5938 L52.5,94.8844 L52.5,96.6844 L47.7,96.6844 L47.4094,96.6844 L47.1,96.3094 L47.1,96.0844 L47.1,95.8594 L47.4094,95.4844 L47.7,95.4844 L47.7,95.4844 L47.7,91.8844 L47.7,91.8844 L47.4094,91.8844 L47.1,91.5094 L47.1,91.2844 L47.1,91.0594 L47.4094,90.6844 L47.7,90.6844 L52.5,90.6844 L52.5,92.4844 L52.5,92.775 L52.125,93.0844 L51.9,93.0844 L51.675,93.0844 L51.3,92.775 L51.3,92.4844 L51.3,91.8844 L48.9,91.8844 L48.9,93.0844 L49.5,93.0844 L49.5,92.7938 L49.5,92.7938 L49.875,92.4844 L50.1,92.4844 L50.325,92.4844 L50.7,92.7938 L50.7,93.0844 L50.7,94.2844 L50.7,94.575 L50.325,94.8844 L50.325,94.8844 L50.1,94.8844 L49.875,94.8844 L49.5,94.575 L49.5,94.575 L49.5,94.2844 L48.9,94.2844 Z " fill="#000000"/><text fill="#000000" font-family="sans-serif" font-size="7.2" font-style="italic" lengthAdjust="spacing" textLength="25.8" x="61.8" y="87.5742">«entity»</text><text fill="#000000" font-family="sans-serif" font-size="7.2" font-style="italic" lengthAdjust="spacing" textLength="21" x="64.2" y="96.6305">«root»</text><text fill="#000000" font-family="sans-serif" font-size="7.2" lengthAdjust="spacing" textLength="33" x="58.2" y="105.6867">Employee</text><line style="stroke:#A80036;stroke-width:0.8999999999999999;" x1="41.4" x2="92.4" y1="110.2688" y2="110.2688"/><text fill="#000000" font-family="sans-serif" font-size="6.6" lengthAdjust="spacing" textLength="27" x="44.4" y="119.5201">-identifier</text><line style="stroke:#A80036;stroke-width:0.8999999999999999;" x1="41.4" x2="92.4" y1="123.3703" y2="123.3703"/><!--MD5=[3fd616f346a44cd59a91eb10b19e157c]
class User--><rect codeLine="32" fill="#F5F5DC" filter="url(#f44g87amecvbe)" height="37.9688" id="User" style="stroke:#A80036;stroke-width:0.8999999999999999;" width="42.6" x="167.4" y="25.5"/><ellipse cx="176.4" cy="42.0844" fill="#ADD1B2" rx="6.6" ry="6.6" style="stroke:#A80036;stroke-width:0.6;"/><path d="M175.5,42.6844 L175.5,43.8844 L177.9,43.8844 L177.9,43.2844 L177.9,42.9938 L178.275,42.6844 L178.5,42.6844 L178.725,42.6844 L179.1,42.9938 L179.1,43.2844 L179.1,45.0844 L174.3,45.0844 L174.0094,45.0844 L173.7,44.7094 L173.7,44.4844 L173.7,44.2594 L174.0094,43.8844 L174.3,43.8844 L174.3,43.8844 L174.3,40.2844 L174.3,40.2844 L174.0094,40.2844 L173.7,39.9094 L173.7,39.6844 L173.7,39.4594 L174.0094,39.0844 L174.3,39.0844 L179.1,39.0844 L179.1,40.8844 L179.1,41.175 L178.725,41.4844 L178.5,41.4844 L178.275,41.4844 L177.9,41.175 L177.9,40.8844 L177.9,40.2844 L175.5,40.2844 L175.5,41.4844 L176.1,41.4844 L176.1,41.1938 L176.1,41.1938 L176.475,40.8844 L176.7,40.8844 L176.925,40.8844 L177.3,41.1938 L177.3,41.4844 L177.3,42.6844 L177.3,42.975 L176.925,43.2844 L176.925,43.2844 L176.7,43.2844 L176.475,43.2844 L176.1,42.975 L176.1,42.975 L176.1,42.6844 L175.5,42.6844 Z " fill="#000000"/><text fill="#000000" font-family="sans-serif" font-size="7.2" font-style="italic" lengthAdjust="spacing" textLength="25.8" x="183.6" y="35.9742">«entity»</text><text fill="#000000" font-family="sans-serif" font-size="7.2" font-style="italic" lengthAdjust="spacing" textLength="21" x="186" y="45.0305">«root»</text><text fill="#000000" font-family="sans-serif" font-size="7.2" lengthAdjust="spacing" textLength="16.2" x="188.4" y="54.0867">User</text><line style="stroke:#A80036;stroke-width:0.8999999999999999;" x1="168" x2="209.4" y1="58.6687" y2="58.6687"/><!--MD5=[a3638c1e5b65d287ecad7f06f5c0f212]
class Role--><rect codeLine="36" fill="#F5F5DC" filter="url(#f44g87amecvbe)" height="28.9125" id="Role" style="stroke:#A80036;stroke-width:0.8999999999999999;" width="65.4" x="337.8" y="28.2"/><ellipse cx="346.8" cy="40.2563" fill="#FF8B40" rx="6.6" ry="6.6" style="stroke:#A80036;stroke-width:0.6;"/><path d="M346.8,42.225 L347.7188,38.9063 L347.7188,38.9063 L347.4094,38.9063 L347.1,38.5313 L347.1,38.3063 L347.1,38.0813 L347.4094,37.7063 L347.7188,37.7063 L348.8438,37.7063 L349.1906,37.7063 L349.5,38.0813 L349.5,38.3063 L349.5,38.5313 L349.1906,38.9063 L349.1906,38.9063 L348.9188,38.9063 L347.5125,43.7063 L346.0875,43.7063 L344.6063,38.9063 L344.4094,38.9063 L344.4094,38.9063 L344.1,38.5313 L344.1,38.3063 L344.1,38.0813 L344.4094,37.7063 L344.7562,37.7063 L345.8812,37.7063 L346.1906,37.7063 L346.5,38.0813 L346.5,38.3063 L346.5,38.5313 L346.1906,38.9063 L345.8812,38.9063 L345.8812,38.9063 L346.8,42.225 Z " fill="#000000"/><text fill="#000000" font-family="sans-serif" font-size="7.2" font-style="italic" lengthAdjust="spacing" textLength="48.6" x="354" y="38.6742">«value object»</text><text fill="#000000" font-family="sans-serif" font-size="7.2" lengthAdjust="spacing" textLength="15.6" x="370.5" y="47.7305">Role</text><line style="stroke:#A80036;stroke-width:0.8999999999999999;" x1="338.4" x2="402.6" y1="52.3125" y2="52.3125"/><!--MD5=[70c37dc9bfbc8656942103c36f1181e4]
link User to Role--><path codeLine="38" d="M210.018,44.196 C240.432,43.89 297.57,43.32 334.662,42.954 " fill="none" id="User-to-Role" style="stroke:#222222;stroke-width:0.6;"/><polygon fill="#222222" points="337.74,42.918,332.3129,40.5799,334.7402,42.9523,332.3678,45.3796,337.74,42.918" style="stroke:#222222;stroke-width:0.6;"/><text fill="#000000" font-family="sans-serif" font-size="7.8" lengthAdjust="spacing" textLength="25.2" x="275.4" y="41.6971">plays a</text><text fill="#000000" font-family="sans-serif" font-size="7.8" lengthAdjust="spacing" textLength="12" x="321.0161" y="51.6448">1..*</text><!--MD5=[22fb9506fac029fc1d2ae00f0eb8d606]
link Employee to User--><path codeLine="40" d="M93.078,90.258 C114.252,80.04 144.09,65.64 164.658,55.716 " fill="none" id="Employee-to-User" style="stroke:#222222;stroke-width:0.6;"/><polygon fill="#222222" points="167.37,54.402,161.4636,54.5873,164.6681,55.7058,163.5496,58.9103,167.37,54.402" style="stroke:#222222;stroke-width:0.6;"/><text fill="#000000" font-family="sans-serif" font-size="7.8" lengthAdjust="spacing" textLength="12.6" x="135" y="63.2971">is a</text><text fill="#000000" font-family="sans-serif" font-size="7.8" lengthAdjust="spacing" textLength="4.2" x="158.3376" y="65.5563">1</text><!--MD5=[e53ba572a82d05a700e2b982cf1a8fc6]
link Employee to ProductOrder--><path codeLine="42" d="M93.024,104.172 C147.42,107.514 274.806,115.35 335.958,119.112 " fill="none" id="Employee-to-ProductOrder" style="stroke:#222222;stroke-width:0.6;"/><polygon fill="#222222" points="339,119.298,333.7617,116.563,336.0059,119.1093,333.4597,121.3535,339,119.298" style="stroke:#222222;stroke-width:0.6;"/><text fill="#000000" font-family="sans-serif" font-size="7.8" lengthAdjust="spacing" textLength="27.6" x="228.6" y="110.0971">manage</text><text fill="#000000" font-family="sans-serif" font-size="7.8" lengthAdjust="spacing" textLength="13.2" x="320.9184" y="127.7799">0..1</text><!--MD5=[ac4c49bc24431560733104ccf6b1c608]
link ProductOrder to Status--><path codeLine="43" d="M402.144,121.836 C417.696,122.154 436.59,122.544 452.706,122.874 " fill="none" id="ProductOrder-to-Status" style="stroke:#222222;stroke-width:0.6;"/><polygon fill="#222222" points="455.886,122.94,450.5351,120.4325,452.8866,122.88,450.4391,125.2315,455.886,122.94" style="stroke:#222222;stroke-width:0.6;"/><text fill="#000000" font-family="sans-serif" font-size="7.8" lengthAdjust="spacing" textLength="14.4" x="423" y="119.6971">is in</text><text fill="#000000" font-family="sans-serif" font-size="7.8" lengthAdjust="spacing" textLength="4.2" x="446.9944" y="131.6">1</text><!--MD5=[aa29453b2067788be8382dc677a5b64c]
@startuml
'https://plantuml.com/class-diagram

skinparam classAttributeIconSize 0
hide empty attributes
left to right direction
skinparam classBackgroundColor beige
skinparam ArrowColor #222222

package "<<aggregate>> ProductOrder"{
    entity ProductOrder
    class Status
}



class Status <<(V,#FF8B40) value object>> {}


package "<<aggregate>> Employee" {
    entity Employee
}

entity Employee <<entity>> <<root>> {
    -identifier
}

package "<<aggregate>> User" {
    entity User
    class Role
}

entity User <<entity>> <<root>> {

}

class Role <<(V,#FF8B40) value object>> {}

User - - -> "1..*" Role : plays a

Employee - -> "1" User : is a

Employee  - - - -> "0..1" ProductOrder : manage
ProductOrder - -> "1" Status : is in


@enduml

@startuml

skinparam classAttributeIconSize 0
hide empty attributes
left to right direction
skinparam classBackgroundColor beige
skinparam ArrowColor #222222

package "<<aggregate>> ProductOrder"{
    entity ProductOrder
    class Status
}



class Status <<(V,#FF8B40) value object>> {}


package "<<aggregate>> Employee" {
    entity Employee
}

entity Employee <<entity>> <<root>> {
    -identifier
}

package "<<aggregate>> User" {
    entity User
    class Role
}

entity User <<entity>> <<root>> {

}

class Role <<(V,#FF8B40) value object>> {}

User - - -> "1..*" Role : plays a

Employee - -> "1" User : is a

Employee  - - - -> "0..1" ProductOrder : manage
ProductOrder - -> "1" Status : is in


@enduml

PlantUML version 1.2022.1(Tue Feb 01 18:19:58 GMT 2022)
(GPL source distribution)
Java Runtime: OpenJDK Runtime Environment
JVM: Dynamic Code Evolution 64-Bit Server VM
Default Encoding: Cp1252
Language: pt
Country: PT
--></g></svg>