<?xml version="1.0" encoding="UTF-8" standalone="no"?><svg xmlns="http://www.w3.org/2000/svg" xmlns:xlink="http://www.w3.org/1999/xlink" contentScriptType="application/ecmascript" contentStyleType="text/css" height="688.2px" preserveAspectRatio="none" style="width:1026px;height:688px;background:#FFFFFF;" version="1.1" viewBox="0 0 1026 688" width="1026px" zoomAndPan="magnify"><defs><filter height="300%" id="fjvz87felh3g3" width="300%" x="-1" y="-1"><feGaussianBlur result="blurOut" stdDeviation="1.2"/><feColorMatrix in="blurOut" result="blurOut2" type="matrix" values="0 0 0 0 0 0 0 0 0 0 0 0 0 0 0 0 0 0 .4 0"/><feOffset dx="2.4" dy="2.4" in="blurOut2" result="blurOut3"/><feBlend in="SourceGraphic" in2="blurOut3" mode="normal"/></filter></defs><g><rect fill="#FFFFFF" filter="url(#fjvz87felh3g3)" height="564.1172" style="stroke:#A80036;stroke-width:0.6;" width="6" x="38.4" y="59.7656"/><rect fill="#FFFFFF" filter="url(#fjvz87felh3g3)" height="292.575" style="stroke:#A80036;stroke-width:0.6;" width="6" x="234" y="82.9875"/><rect fill="#FFFFFF" filter="url(#fjvz87felh3g3)" height="33.4219" style="stroke:#A80036;stroke-width:0.6;" width="6" x="234" y="418.7953"/><rect fill="#FFFFFF" filter="url(#fjvz87felh3g3)" height="153.4547" style="stroke:#A80036;stroke-width:0.6;" width="6" x="234" y="470.4281"/><rect fill="#FFFFFF" filter="url(#fjvz87felh3g3)" height="237.9422" style="stroke:#A80036;stroke-width:0.6;" width="6" x="408" y="119.4094"/><rect fill="#FFFFFF" filter="url(#fjvz87felh3g3)" height="108.6328" style="stroke:#A80036;stroke-width:0.6;" width="6" x="408" y="488.6391"/><rect fill="#FFFFFF" filter="url(#fjvz87felh3g3)" height="201.5203" style="stroke:#A80036;stroke-width:0.6;" width="6" x="582" y="137.6203"/><rect fill="#FFFFFF" filter="url(#fjvz87felh3g3)" height="9" style="stroke:#A80036;stroke-width:0.6;" width="6" x="665.4" y="316.7297"/><rect fill="#FFFFFF" filter="url(#fjvz87felh3g3)" height="18" style="stroke:#A80036;stroke-width:0.6;" width="6" x="665.4" y="543.0609"/><rect fill="#FFFFFF" filter="url(#fjvz87felh3g3)" height="36.4219" style="stroke:#A80036;stroke-width:0.6;" width="6" x="801.6" y="155.8312"/><rect fill="#FFFFFF" filter="url(#fjvz87felh3g3)" height="36.4219" style="stroke:#A80036;stroke-width:0.6;" width="6" x="889.8" y="210.4641"/><rect fill="#FFFFFF" filter="url(#fjvz87felh3g3)" height="18.2109" style="stroke:#A80036;stroke-width:0.6;" width="6" x="969.3" y="265.0969"/><rect fill="#FFFFFF" filter="url(#fjvz87felh3g3)" height="18" style="stroke:#A80036;stroke-width:0.6;" width="6" x="969.3" y="506.85"/><rect fill="#FFFFFF" filter="url(#fjvz87felh3g3)" height="18" style="stroke:#A80036;stroke-width:0.6;" width="6" x="969.3" y="579.2719"/><rect fill="#FFFFFF" filter="url(#fjvz87felh3g3)" height="29.2219" style="stroke:#000000;stroke-width:1.2;" width="172.8" x="532.8" y="292.3078"/><rect fill="#FFFFFF" filter="url(#fjvz87felh3g3)" height="221.7094" style="stroke:#000000;stroke-width:1.2;" width="1011.6" x="6" y="384.5625"/><rect fill="#FFFFFF" filter="url(#fjvz87felh3g3)" height="174.2766" style="stroke:#000000;stroke-width:1.2;" width="999.6" x="12" y="427.7953"/><line style="stroke:#A80036;stroke-width:0.6;stroke-dasharray:5.0,5.0;" x1="41.4" x2="41.4" y1="53.7656" y2="634.6828"/><line style="stroke:#A80036;stroke-width:0.6;stroke-dasharray:5.0,5.0;" x1="237" x2="237" y1="53.7656" y2="634.6828"/><line style="stroke:#A80036;stroke-width:0.6;stroke-dasharray:5.0,5.0;" x1="411" x2="411" y1="53.7656" y2="634.6828"/><line style="stroke:#A80036;stroke-width:0.6;stroke-dasharray:5.0,5.0;" x1="585" x2="585" y1="53.7656" y2="634.6828"/><line style="stroke:#A80036;stroke-width:0.6;stroke-dasharray:5.0,5.0;" x1="668.4" x2="668.4" y1="53.7656" y2="634.6828"/><line style="stroke:#A80036;stroke-width:0.6;stroke-dasharray:5.0,5.0;" x1="730.8" x2="730.8" y1="53.7656" y2="634.6828"/><line style="stroke:#A80036;stroke-width:0.6;stroke-dasharray:5.0,5.0;" x1="804.6" x2="804.6" y1="53.7656" y2="634.6828"/><line style="stroke:#A80036;stroke-width:0.6;stroke-dasharray:5.0,5.0;" x1="892.8" x2="892.8" y1="53.7656" y2="634.6828"/><line style="stroke:#A80036;stroke-width:0.6;stroke-dasharray:5.0,5.0;" x1="972" x2="972" y1="53.7656" y2="634.6828"/><text fill="#000000" font-family="sans-serif" font-size="8.4" lengthAdjust="spacing" textLength="43.2" x="18" y="51.9199">Sales Clerk</text><ellipse cx="41.4" cy="9" fill="#FEFECE" filter="url(#fjvz87felh3g3)" rx="4.8" ry="4.8" style="stroke:#A80036;stroke-width:1.2;"/><path d="M41.4,13.8 L41.4,30 M33.6,18.6 L49.2,18.6 M41.4,30 L33.6,39 M41.4,30 L49.2,39 " fill="none" filter="url(#fjvz87felh3g3)" style="stroke:#A80036;stroke-width:1.2;"/><text fill="#000000" font-family="sans-serif" font-size="8.4" lengthAdjust="spacing" textLength="43.2" x="18" y="642.8027">Sales Clerk</text><ellipse cx="41.4" cy="650.6484" fill="#FEFECE" filter="url(#fjvz87felh3g3)" rx="4.8" ry="4.8" style="stroke:#A80036;stroke-width:1.2;"/><path d="M41.4,655.4484 L41.4,671.6484 M33.6,660.2484 L49.2,660.2484 M41.4,671.6484 L33.6,680.6484 M41.4,671.6484 L49.2,680.6484 " fill="none" filter="url(#fjvz87felh3g3)" style="stroke:#A80036;stroke-width:1.2;"/><rect fill="#FEFECE" filter="url(#fjvz87felh3g3)" height="29.5313" style="stroke:#A80036;stroke-width:0.8999999999999999;" width="123.6" x="174" y="21.2344"/><text fill="#000000" font-family="sans-serif" font-size="8.4" font-style="italic" lengthAdjust="spacing" textLength="57" x="207.3" y="34.1543">«presentation»</text><text fill="#000000" font-family="sans-serif" font-size="8.4" lengthAdjust="spacing" textLength="115.2" x="178.2" y="44.7199">ViewOrdersSentToCustomerUI</text><rect fill="#FEFECE" filter="url(#fjvz87felh3g3)" height="29.5313" style="stroke:#A80036;stroke-width:0.8999999999999999;" width="123.6" x="174" y="634.0828"/><text fill="#000000" font-family="sans-serif" font-size="8.4" font-style="italic" lengthAdjust="spacing" textLength="57" x="207.3" y="647.0027">«presentation»</text><text fill="#000000" font-family="sans-serif" font-size="8.4" lengthAdjust="spacing" textLength="115.2" x="178.2" y="657.5684">ViewOrdersSentToCustomerUI</text><rect fill="#FEFECE" filter="url(#fjvz87felh3g3)" height="29.5313" style="stroke:#A80036;stroke-width:0.8999999999999999;" width="153.6" x="333" y="21.2344"/><text fill="#000000" font-family="sans-serif" font-size="8.4" font-style="italic" lengthAdjust="spacing" textLength="50.4" x="384.6" y="34.1543">«application»</text><text fill="#000000" font-family="sans-serif" font-size="8.4" lengthAdjust="spacing" textLength="145.2" x="337.2" y="44.7199">ViewOrdersSentToCustomerController</text><rect fill="#FEFECE" filter="url(#fjvz87felh3g3)" height="29.5313" style="stroke:#A80036;stroke-width:0.8999999999999999;" width="153.6" x="333" y="634.0828"/><text fill="#000000" font-family="sans-serif" font-size="8.4" font-style="italic" lengthAdjust="spacing" textLength="50.4" x="384.6" y="647.0027">«application»</text><text fill="#000000" font-family="sans-serif" font-size="8.4" lengthAdjust="spacing" textLength="145.2" x="337.2" y="657.5684">ViewOrdersSentToCustomerController</text><rect fill="#FEFECE" filter="url(#fjvz87felh3g3)" height="29.5313" style="stroke:#A80036;stroke-width:0.8999999999999999;" width="90" x="538.8" y="21.2344"/><text fill="#000000" font-family="sans-serif" font-size="8.4" font-style="italic" lengthAdjust="spacing" textLength="50.4" x="558.6" y="34.1543">«application»</text><text fill="#000000" font-family="sans-serif" font-size="8.4" lengthAdjust="spacing" textLength="81.6" x="543" y="44.7199">ListOrderDTOService</text><rect fill="#FEFECE" filter="url(#fjvz87felh3g3)" height="29.5313" style="stroke:#A80036;stroke-width:0.8999999999999999;" width="90" x="538.8" y="634.0828"/><text fill="#000000" font-family="sans-serif" font-size="8.4" font-style="italic" lengthAdjust="spacing" textLength="50.4" x="558.6" y="647.0027">«application»</text><text fill="#000000" font-family="sans-serif" font-size="8.4" lengthAdjust="spacing" textLength="81.6" x="543" y="657.5684">ListOrderDTOService</text><rect fill="#FEFECE" filter="url(#fjvz87felh3g3)" height="29.5313" style="stroke:#A80036;stroke-width:0.8999999999999999;" width="60" x="637.2" y="21.2344"/><text fill="#000000" font-family="sans-serif" font-size="8.4" font-style="italic" lengthAdjust="spacing" textLength="37.2" x="648.6" y="34.1543">«domain»</text><text fill="#000000" font-family="sans-serif" font-size="8.4" lengthAdjust="spacing" textLength="51.6" x="641.4" y="44.7199">ProductOrder</text><rect fill="#FEFECE" filter="url(#fjvz87felh3g3)" height="29.5313" style="stroke:#A80036;stroke-width:0.8999999999999999;" width="60" x="637.2" y="634.0828"/><text fill="#000000" font-family="sans-serif" font-size="8.4" font-style="italic" lengthAdjust="spacing" textLength="37.2" x="648.6" y="647.0027">«domain»</text><text fill="#000000" font-family="sans-serif" font-size="8.4" lengthAdjust="spacing" textLength="51.6" x="641.4" y="657.5684">ProductOrder</text><rect fill="#FEFECE" filter="url(#fjvz87felh3g3)" height="29.5313" style="stroke:#A80036;stroke-width:0.8999999999999999;" width="48.6" x="705.6" y="21.2344"/><text fill="#000000" font-family="sans-serif" font-size="8.4" font-style="italic" lengthAdjust="spacing" textLength="21.6" x="719.1" y="34.1543">«dto»</text><text fill="#000000" font-family="sans-serif" font-size="8.4" lengthAdjust="spacing" textLength="40.2" x="709.8" y="44.7199">OrderDTO</text><rect fill="#FEFECE" filter="url(#fjvz87felh3g3)" height="29.5313" style="stroke:#A80036;stroke-width:0.8999999999999999;" width="48.6" x="705.6" y="634.0828"/><text fill="#000000" font-family="sans-serif" font-size="8.4" font-style="italic" lengthAdjust="spacing" textLength="21.6" x="719.1" y="647.0027">«dto»</text><text fill="#000000" font-family="sans-serif" font-size="8.4" lengthAdjust="spacing" textLength="40.2" x="709.8" y="657.5684">OrderDTO</text><rect fill="#FEFECE" filter="url(#fjvz87felh3g3)" height="29.5313" style="stroke:#A80036;stroke-width:0.8999999999999999;" width="81.6" x="762.6" y="21.2344"/><text fill="#000000" font-family="sans-serif" font-size="8.4" font-style="italic" lengthAdjust="spacing" textLength="53.4" x="776.7" y="34.1543">«persistence»</text><text fill="#000000" font-family="sans-serif" font-size="8.4" lengthAdjust="spacing" textLength="73.2" x="766.8" y="44.7199">PersistenceContext</text><rect fill="#FEFECE" filter="url(#fjvz87felh3g3)" height="29.5313" style="stroke:#A80036;stroke-width:0.8999999999999999;" width="81.6" x="762.6" y="634.0828"/><text fill="#000000" font-family="sans-serif" font-size="8.4" font-style="italic" lengthAdjust="spacing" textLength="53.4" x="776.7" y="647.0027">«persistence»</text><text fill="#000000" font-family="sans-serif" font-size="8.4" lengthAdjust="spacing" textLength="73.2" x="766.8" y="657.5684">PersistenceContext</text><rect fill="#FEFECE" filter="url(#fjvz87felh3g3)" height="29.5313" style="stroke:#A80036;stroke-width:0.8999999999999999;" width="78" x="852.6" y="21.2344"/><text fill="#000000" font-family="sans-serif" font-size="8.4" font-style="italic" lengthAdjust="spacing" textLength="35.4" x="873.9" y="34.1543">«factory»</text><text fill="#000000" font-family="sans-serif" font-size="8.4" lengthAdjust="spacing" textLength="69.6" x="856.8" y="44.7199">RepositoryFactory</text><rect fill="#FEFECE" filter="url(#fjvz87felh3g3)" height="29.5313" style="stroke:#A80036;stroke-width:0.8999999999999999;" width="78" x="852.6" y="634.0828"/><text fill="#000000" font-family="sans-serif" font-size="8.4" font-style="italic" lengthAdjust="spacing" textLength="35.4" x="873.9" y="647.0027">«factory»</text><text fill="#000000" font-family="sans-serif" font-size="8.4" lengthAdjust="spacing" textLength="69.6" x="856.8" y="657.5684">RepositoryFactory</text><text fill="#000000" font-family="sans-serif" font-size="8.4" font-style="italic" lengthAdjust="spacing" textLength="47.4" x="946.8" y="41.3543">«repository»</text><text fill="#000000" font-family="sans-serif" font-size="8.4" lengthAdjust="spacing" textLength="63" x="939" y="51.9199">OrderRepository</text><path d="M961.5,11.0344 C961.5,5.0344 972.3,5.0344 972.3,5.0344 C972.3,5.0344 983.1,5.0344 983.1,11.0344 L983.1,26.6344 C983.1,32.6344 972.3,32.6344 972.3,32.6344 C972.3,32.6344 961.5,32.6344 961.5,26.6344 L961.5,11.0344 " fill="#FEFECE" filter="url(#fjvz87felh3g3)" style="stroke:#000000;stroke-width:0.8999999999999999;"/><path d="M961.5,11.0344 C961.5,17.0344 972.3,17.0344 972.3,17.0344 C972.3,17.0344 983.1,17.0344 983.1,11.0344 " fill="none" style="stroke:#000000;stroke-width:0.8999999999999999;"/><text fill="#000000" font-family="sans-serif" font-size="8.4" font-style="italic" lengthAdjust="spacing" textLength="47.4" x="946.8" y="642.8027">«repository»</text><text fill="#000000" font-family="sans-serif" font-size="8.4" lengthAdjust="spacing" textLength="63" x="939" y="653.3684">OrderRepository</text><path d="M961.5,661.2141 C961.5,655.2141 972.3,655.2141 972.3,655.2141 C972.3,655.2141 983.1,655.2141 983.1,661.2141 L983.1,676.8141 C983.1,682.8141 972.3,682.8141 972.3,682.8141 C972.3,682.8141 961.5,682.8141 961.5,676.8141 L961.5,661.2141 " fill="#FEFECE" filter="url(#fjvz87felh3g3)" style="stroke:#000000;stroke-width:0.8999999999999999;"/><path d="M961.5,661.2141 C961.5,667.2141 972.3,667.2141 972.3,667.2141 C972.3,667.2141 983.1,667.2141 983.1,661.2141 " fill="none" style="stroke:#000000;stroke-width:0.8999999999999999;"/><rect fill="#FFFFFF" filter="url(#fjvz87felh3g3)" height="564.1172" style="stroke:#A80036;stroke-width:0.6;" width="6" x="38.4" y="59.7656"/><rect fill="#FFFFFF" filter="url(#fjvz87felh3g3)" height="292.575" style="stroke:#A80036;stroke-width:0.6;" width="6" x="234" y="82.9875"/><rect fill="#FFFFFF" filter="url(#fjvz87felh3g3)" height="33.4219" style="stroke:#A80036;stroke-width:0.6;" width="6" x="234" y="418.7953"/><rect fill="#FFFFFF" filter="url(#fjvz87felh3g3)" height="153.4547" style="stroke:#A80036;stroke-width:0.6;" width="6" x="234" y="470.4281"/><rect fill="#FFFFFF" filter="url(#fjvz87felh3g3)" height="237.9422" style="stroke:#A80036;stroke-width:0.6;" width="6" x="408" y="119.4094"/><rect fill="#FFFFFF" filter="url(#fjvz87felh3g3)" height="108.6328" style="stroke:#A80036;stroke-width:0.6;" width="6" x="408" y="488.6391"/><rect fill="#FFFFFF" filter="url(#fjvz87felh3g3)" height="201.5203" style="stroke:#A80036;stroke-width:0.6;" width="6" x="582" y="137.6203"/><rect fill="#FFFFFF" filter="url(#fjvz87felh3g3)" height="9" style="stroke:#A80036;stroke-width:0.6;" width="6" x="665.4" y="316.7297"/><rect fill="#FFFFFF" filter="url(#fjvz87felh3g3)" height="18" style="stroke:#A80036;stroke-width:0.6;" width="6" x="665.4" y="543.0609"/><rect fill="#FFFFFF" filter="url(#fjvz87felh3g3)" height="36.4219" style="stroke:#A80036;stroke-width:0.6;" width="6" x="801.6" y="155.8312"/><rect fill="#FFFFFF" filter="url(#fjvz87felh3g3)" height="36.4219" style="stroke:#A80036;stroke-width:0.6;" width="6" x="889.8" y="210.4641"/><rect fill="#FFFFFF" filter="url(#fjvz87felh3g3)" height="18.2109" style="stroke:#A80036;stroke-width:0.6;" width="6" x="969.3" y="265.0969"/><rect fill="#FFFFFF" filter="url(#fjvz87felh3g3)" height="18" style="stroke:#A80036;stroke-width:0.6;" width="6" x="969.3" y="506.85"/><rect fill="#FFFFFF" filter="url(#fjvz87felh3g3)" height="18" style="stroke:#A80036;stroke-width:0.6;" width="6" x="969.3" y="579.2719"/><polygon fill="#A80036" points="226.8,80.5875,232.8,82.9875,226.8,85.3875,229.2,82.9875" style="stroke:#A80036;stroke-width:0.6;"/><line style="stroke:#A80036;stroke-width:0.6;" x1="44.4" x2="230.4" y1="82.9875" y2="82.9875"/><text fill="#000000" font-family="sans-serif" font-size="7.8" font-weight="bold" lengthAdjust="spacing" textLength="4.2" x="48.6" y="75.1682">1</text><text fill="#000000" font-family="sans-serif" font-size="7.8" lengthAdjust="spacing" textLength="161.4" x="55.2" y="70.2627">Inicia o processo de visualizar as encomendas</text><text fill="#000000" font-family="sans-serif" font-size="7.8" lengthAdjust="spacing" textLength="160.2" x="55.2" y="80.0736">que se encontram no status customer delivery</text><polygon fill="#A80036" points="403.8,98.7984,409.8,101.1984,403.8,103.5984,406.2,101.1984" style="stroke:#A80036;stroke-width:0.6;"/><line style="stroke:#A80036;stroke-width:0.6;" x1="240" x2="407.4" y1="101.1984" y2="101.1984"/><text fill="#000000" font-family="sans-serif" font-size="7.8" font-weight="bold" lengthAdjust="spacing" textLength="4.2" x="244.2" y="98.2846">2</text><text fill="#000000" font-family="sans-serif" font-size="7.8" lengthAdjust="spacing" textLength="21.6" x="250.8" y="98.2846">create</text><polygon fill="#A80036" points="400.8,117.0094,406.8,119.4094,400.8,121.8094,403.2,119.4094" style="stroke:#A80036;stroke-width:0.6;"/><line style="stroke:#A80036;stroke-width:0.6;" x1="240" x2="404.4" y1="119.4094" y2="119.4094"/><text fill="#000000" font-family="sans-serif" font-size="7.8" font-weight="bold" lengthAdjust="spacing" textLength="4.2" x="244.2" y="116.4955">3</text><text fill="#000000" font-family="sans-serif" font-size="7.8" lengthAdjust="spacing" textLength="150" x="250.8" y="116.4955">getOrdersDispatchedForCustomerDelivery()</text><polygon fill="#A80036" points="574.8,135.2203,580.8,137.6203,574.8,140.0203,577.2,137.6203" style="stroke:#A80036;stroke-width:0.6;"/><line style="stroke:#A80036;stroke-width:0.6;" x1="414" x2="578.4" y1="137.6203" y2="137.6203"/><text fill="#000000" font-family="sans-serif" font-size="7.8" font-weight="bold" lengthAdjust="spacing" textLength="4.2" x="418.2" y="134.7064">4</text><text fill="#000000" font-family="sans-serif" font-size="7.8" lengthAdjust="spacing" textLength="150" x="424.8" y="134.7064">getOrdersDispatchedForCustomerDelivery()</text><polygon fill="#A80036" points="794.4,153.4313,800.4,155.8312,794.4,158.2313,796.8,155.8312" style="stroke:#A80036;stroke-width:0.6;"/><line style="stroke:#A80036;stroke-width:0.6;" x1="588" x2="798" y1="155.8312" y2="155.8312"/><text fill="#000000" font-family="sans-serif" font-size="7.8" font-weight="bold" lengthAdjust="spacing" textLength="4.2" x="592.2" y="152.9174">5</text><text fill="#000000" font-family="sans-serif" font-size="7.8" lengthAdjust="spacing" textLength="45" x="598.8" y="152.9174">repositories()</text><polygon fill="#A80036" points="885.6,171.6422,891.6,174.0422,885.6,176.4422,888,174.0422" style="stroke:#A80036;stroke-width:0.6;"/><line style="stroke:#A80036;stroke-width:0.6;" x1="807.6" x2="889.2" y1="174.0422" y2="174.0422"/><text fill="#000000" font-family="sans-serif" font-size="7.8" font-weight="bold" lengthAdjust="spacing" textLength="4.2" x="811.8" y="171.1283">6</text><text fill="#000000" font-family="sans-serif" font-size="7.8" lengthAdjust="spacing" textLength="21.6" x="818.4" y="171.1283">create</text><polygon fill="#A80036" points="594.6,189.8531,588.6,192.2531,594.6,194.6531,592.2,192.2531" style="stroke:#A80036;stroke-width:0.6;"/><line style="stroke:#A80036;stroke-width:0.6;" x1="591" x2="804" y1="192.2531" y2="192.2531"/><text fill="#000000" font-family="sans-serif" font-size="7.8" font-weight="bold" lengthAdjust="spacing" textLength="4.2" x="598.2" y="189.3393">7</text><text fill="#000000" font-family="sans-serif" font-size="7.8" lengthAdjust="spacing" textLength="23.4" x="604.8" y="189.3393">factory</text><polygon fill="#A80036" points="882.6,208.0641,888.6,210.4641,882.6,212.8641,885,210.4641" style="stroke:#A80036;stroke-width:0.6;"/><line style="stroke:#A80036;stroke-width:0.6;" x1="588" x2="886.2" y1="210.4641" y2="210.4641"/><text fill="#000000" font-family="sans-serif" font-size="7.8" font-weight="bold" lengthAdjust="spacing" textLength="4.2" x="592.2" y="207.5502">8</text><text fill="#000000" font-family="sans-serif" font-size="7.8" lengthAdjust="spacing" textLength="26.4" x="598.8" y="207.5502">orders()</text><polygon fill="#A80036" points="965.1,226.275,971.1,228.675,965.1,231.075,967.5,228.675" style="stroke:#A80036;stroke-width:0.6;"/><line style="stroke:#A80036;stroke-width:0.6;" x1="895.8" x2="968.7" y1="228.675" y2="228.675"/><text fill="#000000" font-family="sans-serif" font-size="7.8" font-weight="bold" lengthAdjust="spacing" textLength="4.2" x="900" y="225.7611">9</text><text fill="#000000" font-family="sans-serif" font-size="7.8" lengthAdjust="spacing" textLength="21.6" x="906.6" y="225.7611">create</text><polygon fill="#A80036" points="594.6,244.4859,588.6,246.8859,594.6,249.2859,592.2,246.8859" style="stroke:#A80036;stroke-width:0.6;"/><line style="stroke:#A80036;stroke-width:0.6;" x1="591" x2="892.2" y1="246.8859" y2="246.8859"/><text fill="#000000" font-family="sans-serif" font-size="7.8" font-weight="bold" lengthAdjust="spacing" textLength="8.4" x="598.2" y="243.9721">10</text><text fill="#000000" font-family="sans-serif" font-size="7.8" lengthAdjust="spacing" textLength="54.6" x="609" y="243.9721">orderRepository</text><polygon fill="#A80036" points="962.1,262.6969,968.1,265.0969,962.1,267.4969,964.5,265.0969" style="stroke:#A80036;stroke-width:0.6;"/><line style="stroke:#A80036;stroke-width:0.6;" x1="588" x2="965.7" y1="265.0969" y2="265.0969"/><text fill="#000000" font-family="sans-serif" font-size="7.8" font-weight="bold" lengthAdjust="spacing" textLength="8.4" x="592.2" y="262.183">11</text><text fill="#000000" font-family="sans-serif" font-size="7.8" lengthAdjust="spacing" textLength="151.2" x="603" y="262.183">findOrdersDispatchedForCustomerDelivery()</text><polygon fill="#A80036" points="594.6,280.9078,588.6,283.3078,594.6,285.7078,592.2,283.3078" style="stroke:#A80036;stroke-width:0.6;"/><line style="stroke:#A80036;stroke-width:0.6;stroke-dasharray:2.0,2.0;" x1="591" x2="971.7" y1="283.3078" y2="283.3078"/><text fill="#000000" font-family="sans-serif" font-size="7.8" font-weight="bold" lengthAdjust="spacing" textLength="8.4" x="598.2" y="280.3939">12</text><text fill="#000000" font-family="sans-serif" font-size="7.8" lengthAdjust="spacing" textLength="34.2" x="609" y="280.3939">ordersList</text><path d="M532.8,292.3078 L576.6,292.3078 L576.6,297.1078 L570.6,303.1078 L532.8,303.1078 L532.8,292.3078 " fill="#EEEEEE" style="stroke:#000000;stroke-width:0.6;"/><rect fill="none" height="29.2219" style="stroke:#000000;stroke-width:1.2;" width="172.8" x="532.8" y="292.3078"/><text fill="#000000" font-family="sans-serif" font-size="7.8" font-weight="bold" lengthAdjust="spacing" textLength="16.8" x="541.8" y="301.0049">loop</text><polygon fill="#A80036" points="658.2,314.3297,664.2,316.7297,658.2,319.1297,660.6,316.7297" style="stroke:#A80036;stroke-width:0.6;"/><line style="stroke:#A80036;stroke-width:0.6;" x1="588" x2="661.8" y1="316.7297" y2="316.7297"/><text fill="#000000" font-family="sans-serif" font-size="7.8" font-weight="bold" lengthAdjust="spacing" textLength="8.4" x="592.2" y="313.8158">13</text><text fill="#000000" font-family="sans-serif" font-size="7.8" lengthAdjust="spacing" textLength="27" x="603" y="313.8158">toDTO()</text><polygon fill="#A80036" points="420.6,336.7406,414.6,339.1406,420.6,341.5406,418.2,339.1406" style="stroke:#A80036;stroke-width:0.6;"/><line style="stroke:#A80036;stroke-width:0.6;stroke-dasharray:2.0,2.0;" x1="417" x2="584.4" y1="339.1406" y2="339.1406"/><text fill="#000000" font-family="sans-serif" font-size="7.8" font-weight="bold" lengthAdjust="spacing" textLength="8.4" x="424.2" y="336.2268">14</text><text fill="#000000" font-family="sans-serif" font-size="7.8" lengthAdjust="spacing" textLength="49.8" x="435" y="336.2268">ordersListDTO</text><polygon fill="#A80036" points="246.6,354.9516,240.6,357.3516,246.6,359.7516,244.2,357.3516" style="stroke:#A80036;stroke-width:0.6;"/><line style="stroke:#A80036;stroke-width:0.6;stroke-dasharray:2.0,2.0;" x1="243" x2="410.4" y1="357.3516" y2="357.3516"/><text fill="#000000" font-family="sans-serif" font-size="7.8" font-weight="bold" lengthAdjust="spacing" textLength="8.4" x="250.2" y="354.4377">15</text><text fill="#000000" font-family="sans-serif" font-size="7.8" lengthAdjust="spacing" textLength="49.8" x="261" y="354.4377">ordersListDTO</text><polygon fill="#A80036" points="51,373.1625,45,375.5625,51,377.9625,48.6,375.5625" style="stroke:#A80036;stroke-width:0.6;"/><line style="stroke:#A80036;stroke-width:0.6;stroke-dasharray:2.0,2.0;" x1="47.4" x2="236.4" y1="375.5625" y2="375.5625"/><text fill="#000000" font-family="sans-serif" font-size="7.8" font-weight="bold" lengthAdjust="spacing" textLength="8.4" x="54.6" y="372.6486">16</text><text fill="#000000" font-family="sans-serif" font-size="7.8" lengthAdjust="spacing" textLength="105" x="65.4" y="372.6486">Mostra a lista de encomendas</text><path d="M6,384.5625 L49.8,384.5625 L49.8,389.3625 L43.8,395.3625 L6,395.3625 L6,384.5625 " fill="#EEEEEE" style="stroke:#000000;stroke-width:0.6;"/><rect fill="none" height="221.7094" style="stroke:#000000;stroke-width:1.2;" width="1011.6" x="6" y="384.5625"/><text fill="#000000" font-family="sans-serif" font-size="7.8" font-weight="bold" lengthAdjust="spacing" textLength="16.8" x="15" y="393.2596">loop</text><text fill="#000000" font-family="sans-serif" font-size="6.6" font-weight="bold" lengthAdjust="spacing" textLength="170.4" x="58.8" y="392.6139">[enquanto desejar alterar o status de encomendas]</text><polygon fill="#A80036" points="226.8,416.3953,232.8,418.7953,226.8,421.1953,229.2,418.7953" style="stroke:#A80036;stroke-width:0.6;"/><line style="stroke:#A80036;stroke-width:0.6;" x1="44.4" x2="230.4" y1="418.7953" y2="418.7953"/><text fill="#000000" font-family="sans-serif" font-size="7.8" font-weight="bold" lengthAdjust="spacing" textLength="8.4" x="48.6" y="410.976">17</text><text fill="#000000" font-family="sans-serif" font-size="7.8" lengthAdjust="spacing" textLength="167.4" x="59.4" y="406.0705">Pergunta se pretende alterar o status de alguma</text><text fill="#000000" font-family="sans-serif" font-size="7.8" lengthAdjust="spacing" textLength="90" x="59.4" y="415.8814">encomenda para delivered</text><path d="M12,427.7953 L48.6,427.7953 L48.6,432.5953 L42.6,438.5953 L12,438.5953 L12,427.7953 " fill="#EEEEEE" style="stroke:#000000;stroke-width:0.6;"/><rect fill="none" height="174.2766" style="stroke:#000000;stroke-width:1.2;" width="999.6" x="12" y="427.7953"/><text fill="#000000" font-family="sans-serif" font-size="7.8" font-weight="bold" lengthAdjust="spacing" textLength="9.6" x="21" y="436.4924">alt</text><text fill="#000000" font-family="sans-serif" font-size="6.6" font-weight="bold" lengthAdjust="spacing" textLength="79.2" x="57.6" y="435.8467">[deseja alterar o status]</text><polygon fill="#A80036" points="51,449.8172,45,452.2172,51,454.6172,48.6,452.2172" style="stroke:#A80036;stroke-width:0.6;"/><line style="stroke:#A80036;stroke-width:0.6;stroke-dasharray:2.0,2.0;" x1="47.4" x2="236.4" y1="452.2172" y2="452.2172"/><text fill="#000000" font-family="sans-serif" font-size="7.8" font-weight="bold" lengthAdjust="spacing" textLength="8.4" x="54.6" y="449.3033">18</text><text fill="#000000" font-family="sans-serif" font-size="7.8" lengthAdjust="spacing" textLength="163.8" x="65.4" y="449.3033">Solicita o identificador numérico da encomenda</text><polygon fill="#A80036" points="226.8,468.0281,232.8,470.4281,226.8,472.8281,229.2,470.4281" style="stroke:#A80036;stroke-width:0.6;"/><line style="stroke:#A80036;stroke-width:0.6;" x1="44.4" x2="230.4" y1="470.4281" y2="470.4281"/><text fill="#000000" font-family="sans-serif" font-size="7.8" font-weight="bold" lengthAdjust="spacing" textLength="8.4" x="48.6" y="467.5143">19</text><text fill="#000000" font-family="sans-serif" font-size="7.8" lengthAdjust="spacing" textLength="75.6" x="59.4" y="467.5143">Informa a identificador</text><polygon fill="#A80036" points="400.8,486.2391,406.8,488.6391,400.8,491.0391,403.2,488.6391" style="stroke:#A80036;stroke-width:0.6;"/><line style="stroke:#A80036;stroke-width:0.6;" x1="240" x2="404.4" y1="488.6391" y2="488.6391"/><text fill="#000000" font-family="sans-serif" font-size="7.8" font-weight="bold" lengthAdjust="spacing" textLength="8.4" x="244.2" y="485.7252">20</text><text fill="#000000" font-family="sans-serif" font-size="7.8" lengthAdjust="spacing" textLength="135.6" x="255" y="485.7252">changeStatusToBeingDelivered(orderId)</text><polygon fill="#A80036" points="962.1,504.45,968.1,506.85,962.1,509.25,964.5,506.85" style="stroke:#A80036;stroke-width:0.6;"/><line style="stroke:#A80036;stroke-width:0.6;" x1="414" x2="965.7" y1="506.85" y2="506.85"/><text fill="#000000" font-family="sans-serif" font-size="7.8" font-weight="bold" lengthAdjust="spacing" textLength="8.4" x="418.2" y="503.9361">21</text><text fill="#000000" font-family="sans-serif" font-size="7.8" lengthAdjust="spacing" textLength="107.4" x="429" y="503.9361">findByNumericIdentifier(orderId)</text><polygon fill="#A80036" points="658.2,540.6609,664.2,543.0609,658.2,545.4609,660.6,543.0609" style="stroke:#A80036;stroke-width:0.6;"/><line style="stroke:#A80036;stroke-width:0.6;" x1="414" x2="661.8" y1="543.0609" y2="543.0609"/><text fill="#000000" font-family="sans-serif" font-size="7.8" font-weight="bold" lengthAdjust="spacing" textLength="8.4" x="418.2" y="540.1471">22</text><text fill="#000000" font-family="sans-serif" font-size="7.8" lengthAdjust="spacing" textLength="112.2" x="429" y="540.1471">changeStatusToBeingDelivered()</text><polygon fill="#A80036" points="962.1,576.8719,968.1,579.2719,962.1,581.6719,964.5,579.2719" style="stroke:#A80036;stroke-width:0.6;"/><line style="stroke:#A80036;stroke-width:0.6;stroke-dasharray:2.0,2.0;" x1="414" x2="965.7" y1="579.2719" y2="579.2719"/><text fill="#000000" font-family="sans-serif" font-size="7.8" font-weight="bold" lengthAdjust="spacing" textLength="8.4" x="418.2" y="576.358">23</text><text fill="#000000" font-family="sans-serif" font-size="7.8" lengthAdjust="spacing" textLength="37.8" x="429" y="576.358">save(order)</text><polygon fill="#A80036" points="48,621.4828,42,623.8828,48,626.2828,45.6,623.8828" style="stroke:#A80036;stroke-width:0.6;"/><line style="stroke:#A80036;stroke-width:0.6;stroke-dasharray:2.0,2.0;" x1="44.4" x2="236.4" y1="623.8828" y2="623.8828"/><text fill="#000000" font-family="sans-serif" font-size="7.8" font-weight="bold" lengthAdjust="spacing" textLength="8.4" x="51.6" y="620.9689">24</text><text fill="#000000" font-family="sans-serif" font-size="7.8" lengthAdjust="spacing" textLength="108.6" x="62.4" y="620.9689">Informa o sucesso da operação</text><!--MD5=[3a577a6c39998be4b946ecf1aca916fd]
@startuml

autonumber
actor "Sales Clerk" as SC
participant ViewOrdersSentToCustomerUI as UI <<presentation>>
participant ViewOrdersSentToCustomerController as Controller <<application>>
participant ListOrderDTOService as serv <<application>>
participant "ProductOrder" as Domain <<domain>>
participant "OrderDTO" as DTO <<dto>>
participant PersistenceContext as Persistence <<persistence>>
participant RepositoryFactory as Factory <<factory>>
database OrderRepository as repository <<repository>>

activate SC
SC -> UI : Inicia o processo de visualizar as encomendas\nque se encontram no status customer delivery
activate UI
UI -> Controller: create
UI -> Controller: getOrdersDispatchedForCustomerDelivery()
activate Controller
Controller -> serv: getOrdersDispatchedForCustomerDelivery()
activate serv
serv -> Persistence: repositories()
activate Persistence
Persistence -> Factory: create
Persistence -> serv: factory
deactivate Persistence
serv -> Factory: orders()
activate Factory
Factory -> repository: create
Factory -> serv: orderRepository
deactivate Factory
serv->repository:findOrdersDispatchedForCustomerDelivery()
activate repository
repository - -> serv: ordersList
deactivate repository
loop
serv -> Domain: toDTO()
activate Domain
end
deactivate Domain
serv - -> Controller: ordersListDTO
deactivate serv
Controller - -> UI: ordersListDTO
deactivate Controller
UI - -> SC : Mostra a lista de encomendas
deactivate UI
loop enquanto desejar alterar o status de encomendas
SC -> UI : Pergunta se pretende alterar o status de alguma\nencomenda para delivered
activate UI
alt deseja alterar o status
UI - -> SC : Solicita o identificador numérico da encomenda
deactivate UI
SC -> UI : Informa a identificador
activate UI
UI -> Controller: changeStatusToBeingDelivered(orderId)
activate Controller
Controller->repository:findByNumericIdentifier(orderId)
activate repository
deactivate repository
Controller -> Domain: changeStatusToBeingDelivered()
activate Domain
deactivate Domain
Controller - -> repository: save(order)
activate repository
deactivate repository
deactivate Controller
end
end
UI - -> SC : Informa o sucesso da operação
deactivate UI
deactivate SC

@enduml

PlantUML version 1.2022.1(Tue Feb 01 18:19:58 GMT 2022)
(GPL source distribution)
Java Runtime: OpenJDK Runtime Environment
JVM: Dynamic Code Evolution 64-Bit Server VM
Default Encoding: Cp1252
Language: pt
Country: PT
--></g></svg>