<?xml version="1.0" encoding="UTF-8" standalone="no"?><svg xmlns="http://www.w3.org/2000/svg" xmlns:xlink="http://www.w3.org/1999/xlink" contentScriptType="application/ecmascript" contentStyleType="text/css" height="1116px" preserveAspectRatio="none" style="width:1710px;height:1116px;background:#FFFFFF;" version="1.1" viewBox="0 0 1710 1116" width="1710px" zoomAndPan="magnify"><defs><filter height="300%" id="fr1q2pedlqnnz" width="300%" x="-1" y="-1"><feGaussianBlur result="blurOut" stdDeviation="2.0"/><feColorMatrix in="blurOut" result="blurOut2" type="matrix" values="0 0 0 0 0 0 0 0 0 0 0 0 0 0 0 0 0 0 .4 0"/><feOffset dx="4.0" dy="4.0" in="blurOut2" result="blurOut3"/><feBlend in="SourceGraphic" in2="blurOut3" mode="normal"/></filter></defs><g><rect fill="#FFFFFF" filter="url(#fr1q2pedlqnnz)" height="909.8438" style="stroke:#A80036;stroke-width:1.0;" width="10" x="64" y="99.6094"/><rect fill="#FFFFFF" filter="url(#fr1q2pedlqnnz)" height="457.2734" style="stroke:#A80036;stroke-width:1.0;" width="10" x="390" y="138.3125"/><rect fill="#FFFFFF" filter="url(#fr1q2pedlqnnz)" height="55.7031" style="stroke:#A80036;stroke-width:1.0;" width="10" x="390" y="667.6406"/><rect fill="#FFFFFF" filter="url(#fr1q2pedlqnnz)" height="255.7578" style="stroke:#A80036;stroke-width:1.0;" width="10" x="390" y="753.6953"/><rect fill="#FFFFFF" filter="url(#fr1q2pedlqnnz)" height="396.5703" style="stroke:#A80036;stroke-width:1.0;" width="10" x="680" y="168.6641"/><rect fill="#FFFFFF" filter="url(#fr1q2pedlqnnz)" height="181.0547" style="stroke:#A80036;stroke-width:1.0;" width="10" x="680" y="784.0469"/><rect fill="#FFFFFF" filter="url(#fr1q2pedlqnnz)" height="335.8672" style="stroke:#A80036;stroke-width:1.0;" width="10" x="970" y="199.0156"/><rect fill="#FFFFFF" filter="url(#fr1q2pedlqnnz)" height="15" style="stroke:#A80036;stroke-width:1.0;" width="10" x="1109" y="497.5313"/><rect fill="#FFFFFF" filter="url(#fr1q2pedlqnnz)" height="30" style="stroke:#A80036;stroke-width:1.0;" width="10" x="1109" y="874.75"/><rect fill="#FFFFFF" filter="url(#fr1q2pedlqnnz)" height="60.7031" style="stroke:#A80036;stroke-width:1.0;" width="10" x="1336" y="229.3672"/><rect fill="#FFFFFF" filter="url(#fr1q2pedlqnnz)" height="60.7031" style="stroke:#A80036;stroke-width:1.0;" width="10" x="1483" y="320.4219"/><rect fill="#FFFFFF" filter="url(#fr1q2pedlqnnz)" height="30.3516" style="stroke:#A80036;stroke-width:1.0;" width="10" x="1615.5" y="411.4766"/><rect fill="#FFFFFF" filter="url(#fr1q2pedlqnnz)" height="30" style="stroke:#A80036;stroke-width:1.0;" width="10" x="1615.5" y="814.3984"/><rect fill="#FFFFFF" filter="url(#fr1q2pedlqnnz)" height="30" style="stroke:#A80036;stroke-width:1.0;" width="10" x="1615.5" y="935.1016"/><rect fill="#FFFFFF" filter="url(#fr1q2pedlqnnz)" height="48.7031" style="stroke:#000000;stroke-width:2.0;" width="288" x="888" y="456.8281"/><rect fill="#FFFFFF" filter="url(#fr1q2pedlqnnz)" height="369.5156" style="stroke:#000000;stroke-width:2.0;" width="1686" x="10" y="610.5859"/><rect fill="#FFFFFF" filter="url(#fr1q2pedlqnnz)" height="290.4609" style="stroke:#000000;stroke-width:2.0;" width="1666" x="20" y="682.6406"/><line style="stroke:#A80036;stroke-width:1.0;stroke-dasharray:5.0,5.0;" x1="69" x2="69" y1="89.6094" y2="1027.4531"/><line style="stroke:#A80036;stroke-width:1.0;stroke-dasharray:5.0,5.0;" x1="395" x2="395" y1="89.6094" y2="1027.4531"/><line style="stroke:#A80036;stroke-width:1.0;stroke-dasharray:5.0,5.0;" x1="685" x2="685" y1="89.6094" y2="1027.4531"/><line style="stroke:#A80036;stroke-width:1.0;stroke-dasharray:5.0,5.0;" x1="975" x2="975" y1="89.6094" y2="1027.4531"/><line style="stroke:#A80036;stroke-width:1.0;stroke-dasharray:5.0,5.0;" x1="1114" x2="1114" y1="89.6094" y2="1027.4531"/><line style="stroke:#A80036;stroke-width:1.0;stroke-dasharray:5.0,5.0;" x1="1218" x2="1218" y1="89.6094" y2="1027.4531"/><line style="stroke:#A80036;stroke-width:1.0;stroke-dasharray:5.0,5.0;" x1="1341" x2="1341" y1="89.6094" y2="1027.4531"/><line style="stroke:#A80036;stroke-width:1.0;stroke-dasharray:5.0,5.0;" x1="1488" x2="1488" y1="89.6094" y2="1027.4531"/><line style="stroke:#A80036;stroke-width:1.0;stroke-dasharray:5.0,5.0;" x1="1620" x2="1620" y1="89.6094" y2="1027.4531"/><text fill="#000000" font-family="sans-serif" font-size="14" lengthAdjust="spacing" textLength="72" x="30" y="86.5332">Sales Clerk</text><ellipse cx="69" cy="15" fill="#FEFECE" filter="url(#fr1q2pedlqnnz)" rx="8" ry="8" style="stroke:#A80036;stroke-width:2.0;"/><path d="M69,23 L69,50 M56,31 L82,31 M69,50 L56,65 M69,50 L82,65 " fill="none" filter="url(#fr1q2pedlqnnz)" style="stroke:#A80036;stroke-width:2.0;"/><text fill="#000000" font-family="sans-serif" font-size="14" lengthAdjust="spacing" textLength="72" x="30" y="1040.9863">Sales Clerk</text><ellipse cx="69" cy="1054.0625" fill="#FEFECE" filter="url(#fr1q2pedlqnnz)" rx="8" ry="8" style="stroke:#A80036;stroke-width:2.0;"/><path d="M69,1062.0625 L69,1089.0625 M56,1070.0625 L82,1070.0625 M69,1089.0625 L56,1104.0625 M69,1089.0625 L82,1104.0625 " fill="none" filter="url(#fr1q2pedlqnnz)" style="stroke:#A80036;stroke-width:2.0;"/><rect fill="#FEFECE" filter="url(#fr1q2pedlqnnz)" height="49.2188" style="stroke:#A80036;stroke-width:1.5;" width="206" x="290" y="35.3906"/><text fill="#000000" font-family="sans-serif" font-size="14" font-style="italic" lengthAdjust="spacing" textLength="95" x="345.5" y="56.9238">«presentation»</text><text fill="#000000" font-family="sans-serif" font-size="14" lengthAdjust="spacing" textLength="192" x="297" y="74.5332">ViewOrdersSentToCustomerUI</text><rect fill="#FEFECE" filter="url(#fr1q2pedlqnnz)" height="49.2188" style="stroke:#A80036;stroke-width:1.5;" width="206" x="290" y="1026.4531"/><text fill="#000000" font-family="sans-serif" font-size="14" font-style="italic" lengthAdjust="spacing" textLength="95" x="345.5" y="1047.9863">«presentation»</text><text fill="#000000" font-family="sans-serif" font-size="14" lengthAdjust="spacing" textLength="192" x="297" y="1065.5957">ViewOrdersSentToCustomerUI</text><rect fill="#FEFECE" filter="url(#fr1q2pedlqnnz)" height="49.2188" style="stroke:#A80036;stroke-width:1.5;" width="256" x="555" y="35.3906"/><text fill="#000000" font-family="sans-serif" font-size="14" font-style="italic" lengthAdjust="spacing" textLength="84" x="641" y="56.9238">«application»</text><text fill="#000000" font-family="sans-serif" font-size="14" lengthAdjust="spacing" textLength="242" x="562" y="74.5332">ViewOrdersSentToCustomerController</text><rect fill="#FEFECE" filter="url(#fr1q2pedlqnnz)" height="49.2188" style="stroke:#A80036;stroke-width:1.5;" width="256" x="555" y="1026.4531"/><text fill="#000000" font-family="sans-serif" font-size="14" font-style="italic" lengthAdjust="spacing" textLength="84" x="641" y="1047.9863">«application»</text><text fill="#000000" font-family="sans-serif" font-size="14" lengthAdjust="spacing" textLength="242" x="562" y="1065.5957">ViewOrdersSentToCustomerController</text><rect fill="#FEFECE" filter="url(#fr1q2pedlqnnz)" height="49.2188" style="stroke:#A80036;stroke-width:1.5;" width="150" x="898" y="35.3906"/><text fill="#000000" font-family="sans-serif" font-size="14" font-style="italic" lengthAdjust="spacing" textLength="84" x="931" y="56.9238">«application»</text><text fill="#000000" font-family="sans-serif" font-size="14" lengthAdjust="spacing" textLength="136" x="905" y="74.5332">ListOrderDTOService</text><rect fill="#FEFECE" filter="url(#fr1q2pedlqnnz)" height="49.2188" style="stroke:#A80036;stroke-width:1.5;" width="150" x="898" y="1026.4531"/><text fill="#000000" font-family="sans-serif" font-size="14" font-style="italic" lengthAdjust="spacing" textLength="84" x="931" y="1047.9863">«application»</text><text fill="#000000" font-family="sans-serif" font-size="14" lengthAdjust="spacing" textLength="136" x="905" y="1065.5957">ListOrderDTOService</text><rect fill="#FEFECE" filter="url(#fr1q2pedlqnnz)" height="49.2188" style="stroke:#A80036;stroke-width:1.5;" width="100" x="1062" y="35.3906"/><text fill="#000000" font-family="sans-serif" font-size="14" font-style="italic" lengthAdjust="spacing" textLength="62" x="1081" y="56.9238">«domain»</text><text fill="#000000" font-family="sans-serif" font-size="14" lengthAdjust="spacing" textLength="86" x="1069" y="74.5332">ProductOrder</text><rect fill="#FEFECE" filter="url(#fr1q2pedlqnnz)" height="49.2188" style="stroke:#A80036;stroke-width:1.5;" width="100" x="1062" y="1026.4531"/><text fill="#000000" font-family="sans-serif" font-size="14" font-style="italic" lengthAdjust="spacing" textLength="62" x="1081" y="1047.9863">«domain»</text><text fill="#000000" font-family="sans-serif" font-size="14" lengthAdjust="spacing" textLength="86" x="1069" y="1065.5957">ProductOrder</text><rect fill="#FEFECE" filter="url(#fr1q2pedlqnnz)" height="49.2188" style="stroke:#A80036;stroke-width:1.5;" width="81" x="1176" y="35.3906"/><text fill="#000000" font-family="sans-serif" font-size="14" font-style="italic" lengthAdjust="spacing" textLength="36" x="1198.5" y="56.9238">«dto»</text><text fill="#000000" font-family="sans-serif" font-size="14" lengthAdjust="spacing" textLength="67" x="1183" y="74.5332">OrderDTO</text><rect fill="#FEFECE" filter="url(#fr1q2pedlqnnz)" height="49.2188" style="stroke:#A80036;stroke-width:1.5;" width="81" x="1176" y="1026.4531"/><text fill="#000000" font-family="sans-serif" font-size="14" font-style="italic" lengthAdjust="spacing" textLength="36" x="1198.5" y="1047.9863">«dto»</text><text fill="#000000" font-family="sans-serif" font-size="14" lengthAdjust="spacing" textLength="67" x="1183" y="1065.5957">OrderDTO</text><rect fill="#FEFECE" filter="url(#fr1q2pedlqnnz)" height="49.2188" style="stroke:#A80036;stroke-width:1.5;" width="136" x="1271" y="35.3906"/><text fill="#000000" font-family="sans-serif" font-size="14" font-style="italic" lengthAdjust="spacing" textLength="89" x="1294.5" y="56.9238">«persistence»</text><text fill="#000000" font-family="sans-serif" font-size="14" lengthAdjust="spacing" textLength="122" x="1278" y="74.5332">PersistenceContext</text><rect fill="#FEFECE" filter="url(#fr1q2pedlqnnz)" height="49.2188" style="stroke:#A80036;stroke-width:1.5;" width="136" x="1271" y="1026.4531"/><text fill="#000000" font-family="sans-serif" font-size="14" font-style="italic" lengthAdjust="spacing" textLength="89" x="1294.5" y="1047.9863">«persistence»</text><text fill="#000000" font-family="sans-serif" font-size="14" lengthAdjust="spacing" textLength="122" x="1278" y="1065.5957">PersistenceContext</text><rect fill="#FEFECE" filter="url(#fr1q2pedlqnnz)" height="49.2188" style="stroke:#A80036;stroke-width:1.5;" width="130" x="1421" y="35.3906"/><text fill="#000000" font-family="sans-serif" font-size="14" font-style="italic" lengthAdjust="spacing" textLength="59" x="1456.5" y="56.9238">«factory»</text><text fill="#000000" font-family="sans-serif" font-size="14" lengthAdjust="spacing" textLength="116" x="1428" y="74.5332">RepositoryFactory</text><rect fill="#FEFECE" filter="url(#fr1q2pedlqnnz)" height="49.2188" style="stroke:#A80036;stroke-width:1.5;" width="130" x="1421" y="1026.4531"/><text fill="#000000" font-family="sans-serif" font-size="14" font-style="italic" lengthAdjust="spacing" textLength="59" x="1456.5" y="1047.9863">«factory»</text><text fill="#000000" font-family="sans-serif" font-size="14" lengthAdjust="spacing" textLength="116" x="1428" y="1065.5957">RepositoryFactory</text><text fill="#000000" font-family="sans-serif" font-size="14" font-style="italic" lengthAdjust="spacing" textLength="79" x="1578" y="68.9238">«repository»</text><text fill="#000000" font-family="sans-serif" font-size="14" lengthAdjust="spacing" textLength="105" x="1565" y="86.5332">OrderRepository</text><path d="M1602.5,18.3906 C1602.5,8.3906 1620.5,8.3906 1620.5,8.3906 C1620.5,8.3906 1638.5,8.3906 1638.5,18.3906 L1638.5,44.3906 C1638.5,54.3906 1620.5,54.3906 1620.5,54.3906 C1620.5,54.3906 1602.5,54.3906 1602.5,44.3906 L1602.5,18.3906 " fill="#FEFECE" filter="url(#fr1q2pedlqnnz)" style="stroke:#000000;stroke-width:1.5;"/><path d="M1602.5,18.3906 C1602.5,28.3906 1620.5,28.3906 1620.5,28.3906 C1620.5,28.3906 1638.5,28.3906 1638.5,18.3906 " fill="none" style="stroke:#000000;stroke-width:1.5;"/><text fill="#000000" font-family="sans-serif" font-size="14" font-style="italic" lengthAdjust="spacing" textLength="79" x="1578" y="1040.9863">«repository»</text><text fill="#000000" font-family="sans-serif" font-size="14" lengthAdjust="spacing" textLength="105" x="1565" y="1058.5957">OrderRepository</text><path d="M1602.5,1071.6719 C1602.5,1061.6719 1620.5,1061.6719 1620.5,1061.6719 C1620.5,1061.6719 1638.5,1061.6719 1638.5,1071.6719 L1638.5,1097.6719 C1638.5,1107.6719 1620.5,1107.6719 1620.5,1107.6719 C1620.5,1107.6719 1602.5,1107.6719 1602.5,1097.6719 L1602.5,1071.6719 " fill="#FEFECE" filter="url(#fr1q2pedlqnnz)" style="stroke:#000000;stroke-width:1.5;"/><path d="M1602.5,1071.6719 C1602.5,1081.6719 1620.5,1081.6719 1620.5,1081.6719 C1620.5,1081.6719 1638.5,1081.6719 1638.5,1071.6719 " fill="none" style="stroke:#000000;stroke-width:1.5;"/><rect fill="#FFFFFF" filter="url(#fr1q2pedlqnnz)" height="909.8438" style="stroke:#A80036;stroke-width:1.0;" width="10" x="64" y="99.6094"/><rect fill="#FFFFFF" filter="url(#fr1q2pedlqnnz)" height="457.2734" style="stroke:#A80036;stroke-width:1.0;" width="10" x="390" y="138.3125"/><rect fill="#FFFFFF" filter="url(#fr1q2pedlqnnz)" height="55.7031" style="stroke:#A80036;stroke-width:1.0;" width="10" x="390" y="667.6406"/><rect fill="#FFFFFF" filter="url(#fr1q2pedlqnnz)" height="255.7578" style="stroke:#A80036;stroke-width:1.0;" width="10" x="390" y="753.6953"/><rect fill="#FFFFFF" filter="url(#fr1q2pedlqnnz)" height="396.5703" style="stroke:#A80036;stroke-width:1.0;" width="10" x="680" y="168.6641"/><rect fill="#FFFFFF" filter="url(#fr1q2pedlqnnz)" height="181.0547" style="stroke:#A80036;stroke-width:1.0;" width="10" x="680" y="784.0469"/><rect fill="#FFFFFF" filter="url(#fr1q2pedlqnnz)" height="335.8672" style="stroke:#A80036;stroke-width:1.0;" width="10" x="970" y="199.0156"/><rect fill="#FFFFFF" filter="url(#fr1q2pedlqnnz)" height="15" style="stroke:#A80036;stroke-width:1.0;" width="10" x="1109" y="497.5313"/><rect fill="#FFFFFF" filter="url(#fr1q2pedlqnnz)" height="30" style="stroke:#A80036;stroke-width:1.0;" width="10" x="1109" y="874.75"/><rect fill="#FFFFFF" filter="url(#fr1q2pedlqnnz)" height="60.7031" style="stroke:#A80036;stroke-width:1.0;" width="10" x="1336" y="229.3672"/><rect fill="#FFFFFF" filter="url(#fr1q2pedlqnnz)" height="60.7031" style="stroke:#A80036;stroke-width:1.0;" width="10" x="1483" y="320.4219"/><rect fill="#FFFFFF" filter="url(#fr1q2pedlqnnz)" height="30.3516" style="stroke:#A80036;stroke-width:1.0;" width="10" x="1615.5" y="411.4766"/><rect fill="#FFFFFF" filter="url(#fr1q2pedlqnnz)" height="30" style="stroke:#A80036;stroke-width:1.0;" width="10" x="1615.5" y="814.3984"/><rect fill="#FFFFFF" filter="url(#fr1q2pedlqnnz)" height="30" style="stroke:#A80036;stroke-width:1.0;" width="10" x="1615.5" y="935.1016"/><polygon fill="#A80036" points="378,134.3125,388,138.3125,378,142.3125,382,138.3125" style="stroke:#A80036;stroke-width:1.0;"/><line style="stroke:#A80036;stroke-width:1.0;" x1="74" x2="384" y1="138.3125" y2="138.3125"/><text fill="#000000" font-family="sans-serif" font-size="13" font-weight="bold" lengthAdjust="spacing" textLength="7" x="81" y="125.2803">1</text><text fill="#000000" font-family="sans-serif" font-size="13" lengthAdjust="spacing" textLength="269" x="92" y="117.1045">Inicia o processo de visualizar as encomendas</text><text fill="#000000" font-family="sans-serif" font-size="13" lengthAdjust="spacing" textLength="286" x="92" y="133.4561">que se encontram no status Dispatched for Client</text><polygon fill="#A80036" points="668,164.6641,678,168.6641,668,172.6641,672,168.6641" style="stroke:#A80036;stroke-width:1.0;"/><line style="stroke:#A80036;stroke-width:1.0;" x1="400" x2="674" y1="168.6641" y2="168.6641"/><text fill="#000000" font-family="sans-serif" font-size="13" font-weight="bold" lengthAdjust="spacing" textLength="7" x="407" y="163.8076">2</text><text fill="#000000" font-family="sans-serif" font-size="13" lengthAdjust="spacing" textLength="250" x="418" y="163.8076">getOrdersDispatchedForCustomerDelivery()</text><polygon fill="#A80036" points="958,195.0156,968,199.0156,958,203.0156,962,199.0156" style="stroke:#A80036;stroke-width:1.0;"/><line style="stroke:#A80036;stroke-width:1.0;" x1="690" x2="964" y1="199.0156" y2="199.0156"/><text fill="#000000" font-family="sans-serif" font-size="13" font-weight="bold" lengthAdjust="spacing" textLength="7" x="697" y="194.1592">3</text><text fill="#000000" font-family="sans-serif" font-size="13" lengthAdjust="spacing" textLength="250" x="708" y="194.1592">getOrdersDispatchedForCustomerDelivery()</text><polygon fill="#A80036" points="1324,225.3672,1334,229.3672,1324,233.3672,1328,229.3672" style="stroke:#A80036;stroke-width:1.0;"/><line style="stroke:#A80036;stroke-width:1.0;" x1="980" x2="1330" y1="229.3672" y2="229.3672"/><text fill="#000000" font-family="sans-serif" font-size="13" font-weight="bold" lengthAdjust="spacing" textLength="7" x="987" y="224.5107">4</text><text fill="#000000" font-family="sans-serif" font-size="13" lengthAdjust="spacing" textLength="75" x="998" y="224.5107">repositories()</text><polygon fill="#A80036" points="1476,255.7188,1486,259.7188,1476,263.7188,1480,259.7188" style="stroke:#A80036;stroke-width:1.0;"/><line style="stroke:#A80036;stroke-width:1.0;" x1="1346" x2="1482" y1="259.7188" y2="259.7188"/><text fill="#000000" font-family="sans-serif" font-size="13" font-weight="bold" lengthAdjust="spacing" textLength="7" x="1353" y="254.8623">5</text><text fill="#000000" font-family="sans-serif" font-size="13" lengthAdjust="spacing" textLength="36" x="1364" y="254.8623">create</text><polygon fill="#A80036" points="991,286.0703,981,290.0703,991,294.0703,987,290.0703" style="stroke:#A80036;stroke-width:1.0;"/><line style="stroke:#A80036;stroke-width:1.0;" x1="985" x2="1340" y1="290.0703" y2="290.0703"/><text fill="#000000" font-family="sans-serif" font-size="13" font-weight="bold" lengthAdjust="spacing" textLength="7" x="997" y="285.2139">6</text><text fill="#000000" font-family="sans-serif" font-size="13" lengthAdjust="spacing" textLength="39" x="1008" y="285.2139">factory</text><polygon fill="#A80036" points="1471,316.4219,1481,320.4219,1471,324.4219,1475,320.4219" style="stroke:#A80036;stroke-width:1.0;"/><line style="stroke:#A80036;stroke-width:1.0;" x1="980" x2="1477" y1="320.4219" y2="320.4219"/><text fill="#000000" font-family="sans-serif" font-size="13" font-weight="bold" lengthAdjust="spacing" textLength="7" x="987" y="315.5654">7</text><text fill="#000000" font-family="sans-serif" font-size="13" lengthAdjust="spacing" textLength="44" x="998" y="315.5654">orders()</text><polygon fill="#A80036" points="1608.5,346.7734,1618.5,350.7734,1608.5,354.7734,1612.5,350.7734" style="stroke:#A80036;stroke-width:1.0;"/><line style="stroke:#A80036;stroke-width:1.0;" x1="1493" x2="1614.5" y1="350.7734" y2="350.7734"/><text fill="#000000" font-family="sans-serif" font-size="13" font-weight="bold" lengthAdjust="spacing" textLength="7" x="1500" y="345.917">8</text><text fill="#000000" font-family="sans-serif" font-size="13" lengthAdjust="spacing" textLength="36" x="1511" y="345.917">create</text><polygon fill="#A80036" points="991,377.125,981,381.125,991,385.125,987,381.125" style="stroke:#A80036;stroke-width:1.0;"/><line style="stroke:#A80036;stroke-width:1.0;" x1="985" x2="1487" y1="381.125" y2="381.125"/><text fill="#000000" font-family="sans-serif" font-size="13" font-weight="bold" lengthAdjust="spacing" textLength="7" x="997" y="376.2686">9</text><text fill="#000000" font-family="sans-serif" font-size="13" lengthAdjust="spacing" textLength="91" x="1008" y="376.2686">orderRepository</text><polygon fill="#A80036" points="1603.5,407.4766,1613.5,411.4766,1603.5,415.4766,1607.5,411.4766" style="stroke:#A80036;stroke-width:1.0;"/><line style="stroke:#A80036;stroke-width:1.0;" x1="980" x2="1609.5" y1="411.4766" y2="411.4766"/><text fill="#000000" font-family="sans-serif" font-size="13" font-weight="bold" lengthAdjust="spacing" textLength="14" x="987" y="406.6201">10</text><text fill="#000000" font-family="sans-serif" font-size="13" lengthAdjust="spacing" textLength="252" x="1005" y="406.6201">findOrdersDispatchedForCustomerDelivery()</text><polygon fill="#A80036" points="991,437.8281,981,441.8281,991,445.8281,987,441.8281" style="stroke:#A80036;stroke-width:1.0;"/><line style="stroke:#A80036;stroke-width:1.0;stroke-dasharray:2.0,2.0;" x1="985" x2="1619.5" y1="441.8281" y2="441.8281"/><text fill="#000000" font-family="sans-serif" font-size="13" font-weight="bold" lengthAdjust="spacing" textLength="14" x="997" y="436.9717">11</text><text fill="#000000" font-family="sans-serif" font-size="13" lengthAdjust="spacing" textLength="57" x="1015" y="436.9717">ordersList</text><path d="M888,456.8281 L961,456.8281 L961,464.8281 L951,474.8281 L888,474.8281 L888,456.8281 " fill="#EEEEEE" style="stroke:#000000;stroke-width:1.0;"/><rect fill="none" height="48.7031" style="stroke:#000000;stroke-width:2.0;" width="288" x="888" y="456.8281"/><text fill="#000000" font-family="sans-serif" font-size="13" font-weight="bold" lengthAdjust="spacing" textLength="28" x="903" y="471.3232">loop</text><polygon fill="#A80036" points="1097,493.5313,1107,497.5313,1097,501.5313,1101,497.5313" style="stroke:#A80036;stroke-width:1.0;"/><line style="stroke:#A80036;stroke-width:1.0;" x1="980" x2="1103" y1="497.5313" y2="497.5313"/><text fill="#000000" font-family="sans-serif" font-size="13" font-weight="bold" lengthAdjust="spacing" textLength="14" x="987" y="492.6748">12</text><text fill="#000000" font-family="sans-serif" font-size="13" lengthAdjust="spacing" textLength="45" x="1005" y="492.6748">toDTO()</text><polygon fill="#A80036" points="701,530.8828,691,534.8828,701,538.8828,697,534.8828" style="stroke:#A80036;stroke-width:1.0;"/><line style="stroke:#A80036;stroke-width:1.0;stroke-dasharray:2.0,2.0;" x1="695" x2="974" y1="534.8828" y2="534.8828"/><text fill="#000000" font-family="sans-serif" font-size="13" font-weight="bold" lengthAdjust="spacing" textLength="14" x="707" y="530.0264">13</text><text fill="#000000" font-family="sans-serif" font-size="13" lengthAdjust="spacing" textLength="83" x="725" y="530.0264">ordersListDTO</text><polygon fill="#A80036" points="411,561.2344,401,565.2344,411,569.2344,407,565.2344" style="stroke:#A80036;stroke-width:1.0;"/><line style="stroke:#A80036;stroke-width:1.0;stroke-dasharray:2.0,2.0;" x1="405" x2="684" y1="565.2344" y2="565.2344"/><text fill="#000000" font-family="sans-serif" font-size="13" font-weight="bold" lengthAdjust="spacing" textLength="14" x="417" y="560.3779">14</text><text fill="#000000" font-family="sans-serif" font-size="13" lengthAdjust="spacing" textLength="83" x="435" y="560.3779">ordersListDTO</text><polygon fill="#A80036" points="85,591.5859,75,595.5859,85,599.5859,81,595.5859" style="stroke:#A80036;stroke-width:1.0;"/><line style="stroke:#A80036;stroke-width:1.0;stroke-dasharray:2.0,2.0;" x1="79" x2="394" y1="595.5859" y2="595.5859"/><text fill="#000000" font-family="sans-serif" font-size="13" font-weight="bold" lengthAdjust="spacing" textLength="14" x="91" y="590.7295">15</text><text fill="#000000" font-family="sans-serif" font-size="13" lengthAdjust="spacing" textLength="175" x="109" y="590.7295">Mostra a lista de encomendas</text><path d="M10,610.5859 L83,610.5859 L83,618.5859 L73,628.5859 L10,628.5859 L10,610.5859 " fill="#EEEEEE" style="stroke:#000000;stroke-width:1.0;"/><rect fill="none" height="369.5156" style="stroke:#000000;stroke-width:2.0;" width="1686" x="10" y="610.5859"/><text fill="#000000" font-family="sans-serif" font-size="13" font-weight="bold" lengthAdjust="spacing" textLength="28" x="25" y="625.0811">loop</text><text fill="#000000" font-family="sans-serif" font-size="11" font-weight="bold" lengthAdjust="spacing" textLength="284" x="98" y="624.0049">[enquanto desejar alterar o status de encomendas]</text><polygon fill="#A80036" points="378,663.6406,388,667.6406,378,671.6406,382,667.6406" style="stroke:#A80036;stroke-width:1.0;"/><line style="stroke:#A80036;stroke-width:1.0;" x1="74" x2="384" y1="667.6406" y2="667.6406"/><text fill="#000000" font-family="sans-serif" font-size="13" font-weight="bold" lengthAdjust="spacing" textLength="14" x="81" y="654.6084">16</text><text fill="#000000" font-family="sans-serif" font-size="13" lengthAdjust="spacing" textLength="279" x="99" y="646.4326">Pergunta se pretende alterar o status de alguma</text><text fill="#000000" font-family="sans-serif" font-size="13" lengthAdjust="spacing" textLength="189" x="99" y="662.7842">encomenda para Being Delivered</text><path d="M20,682.6406 L81,682.6406 L81,690.6406 L71,700.6406 L20,700.6406 L20,682.6406 " fill="#EEEEEE" style="stroke:#000000;stroke-width:1.0;"/><rect fill="none" height="290.4609" style="stroke:#000000;stroke-width:2.0;" width="1666" x="20" y="682.6406"/><text fill="#000000" font-family="sans-serif" font-size="13" font-weight="bold" lengthAdjust="spacing" textLength="16" x="35" y="697.1357">alt</text><text fill="#000000" font-family="sans-serif" font-size="11" font-weight="bold" lengthAdjust="spacing" textLength="132" x="96" y="696.0596">[deseja alterar o status]</text><polygon fill="#A80036" points="85,719.3438,75,723.3438,85,727.3438,81,723.3438" style="stroke:#A80036;stroke-width:1.0;"/><line style="stroke:#A80036;stroke-width:1.0;stroke-dasharray:2.0,2.0;" x1="79" x2="394" y1="723.3438" y2="723.3438"/><text fill="#000000" font-family="sans-serif" font-size="13" font-weight="bold" lengthAdjust="spacing" textLength="14" x="91" y="718.4873">17</text><text fill="#000000" font-family="sans-serif" font-size="13" lengthAdjust="spacing" textLength="273" x="109" y="718.4873">Solicita o identificador numérico da encomenda</text><polygon fill="#A80036" points="378,749.6953,388,753.6953,378,757.6953,382,753.6953" style="stroke:#A80036;stroke-width:1.0;"/><line style="stroke:#A80036;stroke-width:1.0;" x1="74" x2="384" y1="753.6953" y2="753.6953"/><text fill="#000000" font-family="sans-serif" font-size="13" font-weight="bold" lengthAdjust="spacing" textLength="14" x="81" y="748.8389">18</text><text fill="#000000" font-family="sans-serif" font-size="13" lengthAdjust="spacing" textLength="126" x="99" y="748.8389">Informa a identificador</text><polygon fill="#A80036" points="668,780.0469,678,784.0469,668,788.0469,672,784.0469" style="stroke:#A80036;stroke-width:1.0;"/><line style="stroke:#A80036;stroke-width:1.0;" x1="400" x2="674" y1="784.0469" y2="784.0469"/><text fill="#000000" font-family="sans-serif" font-size="13" font-weight="bold" lengthAdjust="spacing" textLength="14" x="407" y="779.1904">19</text><text fill="#000000" font-family="sans-serif" font-size="13" lengthAdjust="spacing" textLength="226" x="425" y="779.1904">changeStatusToBeingDelivered(orderId)</text><polygon fill="#A80036" points="1603.5,810.3984,1613.5,814.3984,1603.5,818.3984,1607.5,814.3984" style="stroke:#A80036;stroke-width:1.0;"/><line style="stroke:#A80036;stroke-width:1.0;" x1="690" x2="1609.5" y1="814.3984" y2="814.3984"/><text fill="#000000" font-family="sans-serif" font-size="13" font-weight="bold" lengthAdjust="spacing" textLength="14" x="697" y="809.542">20</text><text fill="#000000" font-family="sans-serif" font-size="13" lengthAdjust="spacing" textLength="179" x="715" y="809.542">findByNumericIdentifier(orderId)</text><polygon fill="#A80036" points="1097,870.75,1107,874.75,1097,878.75,1101,874.75" style="stroke:#A80036;stroke-width:1.0;"/><line style="stroke:#A80036;stroke-width:1.0;" x1="690" x2="1103" y1="874.75" y2="874.75"/><text fill="#000000" font-family="sans-serif" font-size="13" font-weight="bold" lengthAdjust="spacing" textLength="14" x="697" y="869.8936">21</text><text fill="#000000" font-family="sans-serif" font-size="13" lengthAdjust="spacing" textLength="327" x="715" y="869.8936">changeProductOrderStatus(DELIVERED_BY_CARRIER)</text><polygon fill="#A80036" points="1603.5,931.1016,1613.5,935.1016,1603.5,939.1016,1607.5,935.1016" style="stroke:#A80036;stroke-width:1.0;"/><line style="stroke:#A80036;stroke-width:1.0;stroke-dasharray:2.0,2.0;" x1="690" x2="1609.5" y1="935.1016" y2="935.1016"/><text fill="#000000" font-family="sans-serif" font-size="13" font-weight="bold" lengthAdjust="spacing" textLength="14" x="697" y="930.2451">22</text><text fill="#000000" font-family="sans-serif" font-size="13" lengthAdjust="spacing" textLength="63" x="715" y="930.2451">save(order)</text><polygon fill="#A80036" points="80,1005.4531,70,1009.4531,80,1013.4531,76,1009.4531" style="stroke:#A80036;stroke-width:1.0;"/><line style="stroke:#A80036;stroke-width:1.0;stroke-dasharray:2.0,2.0;" x1="74" x2="394" y1="1009.4531" y2="1009.4531"/><text fill="#000000" font-family="sans-serif" font-size="13" font-weight="bold" lengthAdjust="spacing" textLength="14" x="86" y="1004.5967">23</text><text fill="#000000" font-family="sans-serif" font-size="13" lengthAdjust="spacing" textLength="181" x="104" y="1004.5967">Informa o sucesso da operação</text><!--MD5=[be7816308675d7fb4186f51994da8cec]
@startuml

autonumber
actor "Sales Clerk" as SC
participant ViewOrdersSentToCustomerUI as UI <<presentation>>
participant ViewOrdersSentToCustomerController as Controller <<application>>
participant ListOrderDTOService as serv <<application>>
participant "ProductOrder" as Domain <<domain>>
participant "OrderDTO" as DTO <<dto>>
participant PersistenceContext as Persistence <<persistence>>
participant RepositoryFactory as Factory <<factory>>
database OrderRepository as repository <<repository>>

activate SC
SC -> UI : Inicia o processo de visualizar as encomendas\nque se encontram no status Dispatched for Client
activate UI
UI -> Controller: getOrdersDispatchedForCustomerDelivery()
activate Controller
Controller -> serv: getOrdersDispatchedForCustomerDelivery()
activate serv
serv -> Persistence: repositories()
activate Persistence
Persistence -> Factory: create
Persistence -> serv: factory
deactivate Persistence
serv -> Factory: orders()
activate Factory
Factory -> repository: create
Factory -> serv: orderRepository
deactivate Factory
serv->repository:findOrdersDispatchedForCustomerDelivery()
activate repository
repository - -> serv: ordersList
deactivate repository
loop
serv -> Domain: toDTO()
activate Domain
end
deactivate Domain
serv - -> Controller: ordersListDTO
deactivate serv
Controller - -> UI: ordersListDTO
deactivate Controller
UI - -> SC : Mostra a lista de encomendas
deactivate UI
loop enquanto desejar alterar o status de encomendas
SC -> UI : Pergunta se pretende alterar o status de alguma\nencomenda para Being Delivered
activate UI
alt deseja alterar o status
UI - -> SC : Solicita o identificador numérico da encomenda
deactivate UI
SC -> UI : Informa a identificador
activate UI
UI -> Controller: changeStatusToBeingDelivered(orderId)
activate Controller
Controller->repository:findByNumericIdentifier(orderId)
activate repository
deactivate repository
Controller -> Domain: changeProductOrderStatus(DELIVERED_BY_CARRIER)
activate Domain
deactivate Domain
Controller - -> repository: save(order)
activate repository
deactivate repository
deactivate Controller
end
end
UI - -> SC : Informa o sucesso da operação
deactivate UI
deactivate SC

@enduml

PlantUML version 1.2022.1(Tue Feb 01 18:19:58 GMT 2022)
(GPL source distribution)
Java Runtime: OpenJDK Runtime Environment
JVM: Dynamic Code Evolution 64-Bit Server VM
Default Encoding: Cp1252
Language: pt
Country: PT
--></g></svg>