<?xml version="1.0" encoding="UTF-8" standalone="no"?><svg xmlns="http://www.w3.org/2000/svg" xmlns:xlink="http://www.w3.org/1999/xlink" contentScriptType="application/ecmascript" contentStyleType="text/css" height="917.6px" preserveAspectRatio="none" style="width:1368px;height:917px;background:#FFFFFF;" version="1.1" viewBox="0 0 1368 917" width="1368px" zoomAndPan="magnify"><defs><filter height="300%" id="fdkmfpx67qdtx" width="300%" x="-1" y="-1"><feGaussianBlur result="blurOut" stdDeviation="1.6000000000000003"/><feColorMatrix in="blurOut" result="blurOut2" type="matrix" values="0 0 0 0 0 0 0 0 0 0 0 0 0 0 0 0 0 0 .4 0"/><feOffset dx="3.2000000000000006" dy="3.2000000000000006" in="blurOut2" result="blurOut3"/><feBlend in="SourceGraphic" in2="blurOut3" mode="normal"/></filter></defs><g><rect fill="#FFFFFF" filter="url(#fdkmfpx67qdtx)" height="752.1563" style="stroke:#A80036;stroke-width:0.8000000000000002;" width="8" x="51.2" y="79.6875"/><rect fill="#FFFFFF" filter="url(#fdkmfpx67qdtx)" height="390.1" style="stroke:#A80036;stroke-width:0.8000000000000002;" width="8" x="312" y="110.65"/><rect fill="#FFFFFF" filter="url(#fdkmfpx67qdtx)" height="44.5625" style="stroke:#A80036;stroke-width:0.8000000000000002;" width="8" x="312" y="558.3938"/><rect fill="#FFFFFF" filter="url(#fdkmfpx67qdtx)" height="204.6063" style="stroke:#A80036;stroke-width:0.8000000000000002;" width="8" x="312" y="627.2375"/><rect fill="#FFFFFF" filter="url(#fdkmfpx67qdtx)" height="317.2563" style="stroke:#A80036;stroke-width:0.8000000000000002;" width="8" x="544" y="159.2125"/><rect fill="#FFFFFF" filter="url(#fdkmfpx67qdtx)" height="144.8438" style="stroke:#A80036;stroke-width:0.8000000000000002;" width="8" x="544" y="651.5188"/><rect fill="#FFFFFF" filter="url(#fdkmfpx67qdtx)" height="268.6938" style="stroke:#A80036;stroke-width:0.8000000000000002;" width="8" x="776" y="183.4938"/><rect fill="#FFFFFF" filter="url(#fdkmfpx67qdtx)" height="12" style="stroke:#A80036;stroke-width:0.8000000000000002;" width="8" x="887.2" y="422.3063"/><rect fill="#FFFFFF" filter="url(#fdkmfpx67qdtx)" height="24" style="stroke:#A80036;stroke-width:0.8000000000000002;" width="8" x="887.2" y="724.0813"/><rect fill="#FFFFFF" filter="url(#fdkmfpx67qdtx)" height="48.5625" style="stroke:#A80036;stroke-width:0.8000000000000002;" width="8" x="1068.8" y="207.775"/><rect fill="#FFFFFF" filter="url(#fdkmfpx67qdtx)" height="48.5625" style="stroke:#A80036;stroke-width:0.8000000000000002;" width="8" x="1186.4" y="280.6188"/><rect fill="#FFFFFF" filter="url(#fdkmfpx67qdtx)" height="24.2813" style="stroke:#A80036;stroke-width:0.8000000000000002;" width="8" x="1292.4" y="353.4625"/><rect fill="#FFFFFF" filter="url(#fdkmfpx67qdtx)" height="24" style="stroke:#A80036;stroke-width:0.8000000000000002;" width="8" x="1292.4" y="675.8"/><rect fill="#FFFFFF" filter="url(#fdkmfpx67qdtx)" height="24" style="stroke:#A80036;stroke-width:0.8000000000000002;" width="8" x="1292.4" y="772.3625"/><rect fill="#FFFFFF" filter="url(#fdkmfpx67qdtx)" height="38.9625" style="stroke:#000000;stroke-width:1.6000000000000003;" width="230.4" x="710.4" y="389.7438"/><rect fill="#FFFFFF" filter="url(#fdkmfpx67qdtx)" height="295.6125" style="stroke:#000000;stroke-width:1.6000000000000003;" width="1348.8" x="8" y="512.75"/><rect fill="#FFFFFF" filter="url(#fdkmfpx67qdtx)" height="232.3688" style="stroke:#000000;stroke-width:1.6000000000000003;" width="1332.8" x="16" y="570.3938"/><line style="stroke:#A80036;stroke-width:0.8000000000000002;stroke-dasharray:5.0,5.0;" x1="55.2" x2="55.2" y1="71.6875" y2="846.2438"/><line style="stroke:#A80036;stroke-width:0.8000000000000002;stroke-dasharray:5.0,5.0;" x1="316" x2="316" y1="71.6875" y2="846.2438"/><line style="stroke:#A80036;stroke-width:0.8000000000000002;stroke-dasharray:5.0,5.0;" x1="548" x2="548" y1="71.6875" y2="846.2438"/><line style="stroke:#A80036;stroke-width:0.8000000000000002;stroke-dasharray:5.0,5.0;" x1="780" x2="780" y1="71.6875" y2="846.2438"/><line style="stroke:#A80036;stroke-width:0.8000000000000002;stroke-dasharray:5.0,5.0;" x1="891.2" x2="891.2" y1="71.6875" y2="846.2438"/><line style="stroke:#A80036;stroke-width:0.8000000000000002;stroke-dasharray:5.0,5.0;" x1="974.4" x2="974.4" y1="71.6875" y2="846.2438"/><line style="stroke:#A80036;stroke-width:0.8000000000000002;stroke-dasharray:5.0,5.0;" x1="1072.8" x2="1072.8" y1="71.6875" y2="846.2438"/><line style="stroke:#A80036;stroke-width:0.8000000000000002;stroke-dasharray:5.0,5.0;" x1="1190.4" x2="1190.4" y1="71.6875" y2="846.2438"/><line style="stroke:#A80036;stroke-width:0.8000000000000002;stroke-dasharray:5.0,5.0;" x1="1296" x2="1296" y1="71.6875" y2="846.2438"/><text fill="#000000" font-family="sans-serif" font-size="11.2" lengthAdjust="spacing" textLength="57.6" x="24" y="69.2266">Sales Clerk</text><ellipse cx="55.2" cy="12" fill="#FEFECE" filter="url(#fdkmfpx67qdtx)" rx="6.4" ry="6.4" style="stroke:#A80036;stroke-width:1.6000000000000003;"/><path d="M55.2,18.4 L55.2,40 M44.8,24.8 L65.6,24.8 M55.2,40 L44.8,52 M55.2,40 L65.6,52 " fill="none" filter="url(#fdkmfpx67qdtx)" style="stroke:#A80036;stroke-width:1.6000000000000003;"/><text fill="#000000" font-family="sans-serif" font-size="11.2" lengthAdjust="spacing" textLength="57.6" x="24" y="857.0703">Sales Clerk</text><ellipse cx="55.2" cy="867.5313" fill="#FEFECE" filter="url(#fdkmfpx67qdtx)" rx="6.4" ry="6.4" style="stroke:#A80036;stroke-width:1.6000000000000003;"/><path d="M55.2,873.9313 L55.2,895.5313 M44.8,880.3313 L65.6,880.3313 M55.2,895.5313 L44.8,907.5313 M55.2,895.5313 L65.6,907.5313 " fill="none" filter="url(#fdkmfpx67qdtx)" style="stroke:#A80036;stroke-width:1.6000000000000003;"/><rect fill="#FEFECE" filter="url(#fdkmfpx67qdtx)" height="39.375" style="stroke:#A80036;stroke-width:1.2000000000000002;" width="164.8" x="232" y="28.3125"/><text fill="#000000" font-family="sans-serif" font-size="11.2" font-style="italic" lengthAdjust="spacing" textLength="76" x="276.4" y="45.5391">«presentation»</text><text fill="#000000" font-family="sans-serif" font-size="11.2" lengthAdjust="spacing" textLength="153.6" x="237.6" y="59.6266">ViewOrdersSentToCustomerUI</text><rect fill="#FEFECE" filter="url(#fdkmfpx67qdtx)" height="39.375" style="stroke:#A80036;stroke-width:1.2000000000000002;" width="164.8" x="232" y="845.4438"/><text fill="#000000" font-family="sans-serif" font-size="11.2" font-style="italic" lengthAdjust="spacing" textLength="76" x="276.4" y="862.6703">«presentation»</text><text fill="#000000" font-family="sans-serif" font-size="11.2" lengthAdjust="spacing" textLength="153.6" x="237.6" y="876.7578">ViewOrdersSentToCustomerUI</text><rect fill="#FEFECE" filter="url(#fdkmfpx67qdtx)" height="39.375" style="stroke:#A80036;stroke-width:1.2000000000000002;" width="204.8" x="444" y="28.3125"/><text fill="#000000" font-family="sans-serif" font-size="11.2" font-style="italic" lengthAdjust="spacing" textLength="67.2" x="512.8" y="45.5391">«application»</text><text fill="#000000" font-family="sans-serif" font-size="11.2" lengthAdjust="spacing" textLength="193.6" x="449.6" y="59.6266">ViewOrdersSentToCustomerController</text><rect fill="#FEFECE" filter="url(#fdkmfpx67qdtx)" height="39.375" style="stroke:#A80036;stroke-width:1.2000000000000002;" width="204.8" x="444" y="845.4438"/><text fill="#000000" font-family="sans-serif" font-size="11.2" font-style="italic" lengthAdjust="spacing" textLength="67.2" x="512.8" y="862.6703">«application»</text><text fill="#000000" font-family="sans-serif" font-size="11.2" lengthAdjust="spacing" textLength="193.6" x="449.6" y="876.7578">ViewOrdersSentToCustomerController</text><rect fill="#FEFECE" filter="url(#fdkmfpx67qdtx)" height="39.375" style="stroke:#A80036;stroke-width:1.2000000000000002;" width="120" x="718.4" y="28.3125"/><text fill="#000000" font-family="sans-serif" font-size="11.2" font-style="italic" lengthAdjust="spacing" textLength="67.2" x="744.8" y="45.5391">«application»</text><text fill="#000000" font-family="sans-serif" font-size="11.2" lengthAdjust="spacing" textLength="108.8" x="724" y="59.6266">ListOrderDTOService</text><rect fill="#FEFECE" filter="url(#fdkmfpx67qdtx)" height="39.375" style="stroke:#A80036;stroke-width:1.2000000000000002;" width="120" x="718.4" y="845.4438"/><text fill="#000000" font-family="sans-serif" font-size="11.2" font-style="italic" lengthAdjust="spacing" textLength="67.2" x="744.8" y="862.6703">«application»</text><text fill="#000000" font-family="sans-serif" font-size="11.2" lengthAdjust="spacing" textLength="108.8" x="724" y="876.7578">ListOrderDTOService</text><rect fill="#FEFECE" filter="url(#fdkmfpx67qdtx)" height="39.375" style="stroke:#A80036;stroke-width:1.2000000000000002;" width="80" x="849.6" y="28.3125"/><text fill="#000000" font-family="sans-serif" font-size="11.2" font-style="italic" lengthAdjust="spacing" textLength="49.6" x="864.8" y="45.5391">«domain»</text><text fill="#000000" font-family="sans-serif" font-size="11.2" lengthAdjust="spacing" textLength="68.8" x="855.2" y="59.6266">ProductOrder</text><rect fill="#FEFECE" filter="url(#fdkmfpx67qdtx)" height="39.375" style="stroke:#A80036;stroke-width:1.2000000000000002;" width="80" x="849.6" y="845.4438"/><text fill="#000000" font-family="sans-serif" font-size="11.2" font-style="italic" lengthAdjust="spacing" textLength="49.6" x="864.8" y="862.6703">«domain»</text><text fill="#000000" font-family="sans-serif" font-size="11.2" lengthAdjust="spacing" textLength="68.8" x="855.2" y="876.7578">ProductOrder</text><rect fill="#FEFECE" filter="url(#fdkmfpx67qdtx)" height="39.375" style="stroke:#A80036;stroke-width:1.2000000000000002;" width="64.8" x="940.8" y="28.3125"/><text fill="#000000" font-family="sans-serif" font-size="11.2" font-style="italic" lengthAdjust="spacing" textLength="28.8" x="958.8" y="45.5391">«dto»</text><text fill="#000000" font-family="sans-serif" font-size="11.2" lengthAdjust="spacing" textLength="53.6" x="946.4" y="59.6266">OrderDTO</text><rect fill="#FEFECE" filter="url(#fdkmfpx67qdtx)" height="39.375" style="stroke:#A80036;stroke-width:1.2000000000000002;" width="64.8" x="940.8" y="845.4438"/><text fill="#000000" font-family="sans-serif" font-size="11.2" font-style="italic" lengthAdjust="spacing" textLength="28.8" x="958.8" y="862.6703">«dto»</text><text fill="#000000" font-family="sans-serif" font-size="11.2" lengthAdjust="spacing" textLength="53.6" x="946.4" y="876.7578">OrderDTO</text><rect fill="#FEFECE" filter="url(#fdkmfpx67qdtx)" height="39.375" style="stroke:#A80036;stroke-width:1.2000000000000002;" width="108.8" x="1016.8" y="28.3125"/><text fill="#000000" font-family="sans-serif" font-size="11.2" font-style="italic" lengthAdjust="spacing" textLength="71.2" x="1035.6" y="45.5391">«persistence»</text><text fill="#000000" font-family="sans-serif" font-size="11.2" lengthAdjust="spacing" textLength="97.6" x="1022.4" y="59.6266">PersistenceContext</text><rect fill="#FEFECE" filter="url(#fdkmfpx67qdtx)" height="39.375" style="stroke:#A80036;stroke-width:1.2000000000000002;" width="108.8" x="1016.8" y="845.4438"/><text fill="#000000" font-family="sans-serif" font-size="11.2" font-style="italic" lengthAdjust="spacing" textLength="71.2" x="1035.6" y="862.6703">«persistence»</text><text fill="#000000" font-family="sans-serif" font-size="11.2" lengthAdjust="spacing" textLength="97.6" x="1022.4" y="876.7578">PersistenceContext</text><rect fill="#FEFECE" filter="url(#fdkmfpx67qdtx)" height="39.375" style="stroke:#A80036;stroke-width:1.2000000000000002;" width="104" x="1136.8" y="28.3125"/><text fill="#000000" font-family="sans-serif" font-size="11.2" font-style="italic" lengthAdjust="spacing" textLength="47.2" x="1165.2" y="45.5391">«factory»</text><text fill="#000000" font-family="sans-serif" font-size="11.2" lengthAdjust="spacing" textLength="92.8" x="1142.4" y="59.6266">RepositoryFactory</text><rect fill="#FEFECE" filter="url(#fdkmfpx67qdtx)" height="39.375" style="stroke:#A80036;stroke-width:1.2000000000000002;" width="104" x="1136.8" y="845.4438"/><text fill="#000000" font-family="sans-serif" font-size="11.2" font-style="italic" lengthAdjust="spacing" textLength="47.2" x="1165.2" y="862.6703">«factory»</text><text fill="#000000" font-family="sans-serif" font-size="11.2" lengthAdjust="spacing" textLength="92.8" x="1142.4" y="876.7578">RepositoryFactory</text><text fill="#000000" font-family="sans-serif" font-size="11.2" font-style="italic" lengthAdjust="spacing" textLength="63.2" x="1262.4" y="55.1391">«repository»</text><text fill="#000000" font-family="sans-serif" font-size="11.2" lengthAdjust="spacing" textLength="84" x="1252" y="69.2266">OrderRepository</text><path d="M1282,14.7125 C1282,6.7125 1296.4,6.7125 1296.4,6.7125 C1296.4,6.7125 1310.8,6.7125 1310.8,14.7125 L1310.8,35.5125 C1310.8,43.5125 1296.4,43.5125 1296.4,43.5125 C1296.4,43.5125 1282,43.5125 1282,35.5125 L1282,14.7125 " fill="#FEFECE" filter="url(#fdkmfpx67qdtx)" style="stroke:#000000;stroke-width:1.2000000000000002;"/><path d="M1282,14.7125 C1282,22.7125 1296.4,22.7125 1296.4,22.7125 C1296.4,22.7125 1310.8,22.7125 1310.8,14.7125 " fill="none" style="stroke:#000000;stroke-width:1.2000000000000002;"/><text fill="#000000" font-family="sans-serif" font-size="11.2" font-style="italic" lengthAdjust="spacing" textLength="63.2" x="1262.4" y="857.0703">«repository»</text><text fill="#000000" font-family="sans-serif" font-size="11.2" lengthAdjust="spacing" textLength="84" x="1252" y="871.1578">OrderRepository</text><path d="M1282,881.6188 C1282,873.6188 1296.4,873.6188 1296.4,873.6188 C1296.4,873.6188 1310.8,873.6188 1310.8,881.6188 L1310.8,902.4188 C1310.8,910.4188 1296.4,910.4188 1296.4,910.4188 C1296.4,910.4188 1282,910.4188 1282,902.4188 L1282,881.6188 " fill="#FEFECE" filter="url(#fdkmfpx67qdtx)" style="stroke:#000000;stroke-width:1.2000000000000002;"/><path d="M1282,881.6188 C1282,889.6188 1296.4,889.6188 1296.4,889.6188 C1296.4,889.6188 1310.8,889.6188 1310.8,881.6188 " fill="none" style="stroke:#000000;stroke-width:1.2000000000000002;"/><rect fill="#FFFFFF" filter="url(#fdkmfpx67qdtx)" height="752.1563" style="stroke:#A80036;stroke-width:0.8000000000000002;" width="8" x="51.2" y="79.6875"/><rect fill="#FFFFFF" filter="url(#fdkmfpx67qdtx)" height="390.1" style="stroke:#A80036;stroke-width:0.8000000000000002;" width="8" x="312" y="110.65"/><rect fill="#FFFFFF" filter="url(#fdkmfpx67qdtx)" height="44.5625" style="stroke:#A80036;stroke-width:0.8000000000000002;" width="8" x="312" y="558.3938"/><rect fill="#FFFFFF" filter="url(#fdkmfpx67qdtx)" height="204.6063" style="stroke:#A80036;stroke-width:0.8000000000000002;" width="8" x="312" y="627.2375"/><rect fill="#FFFFFF" filter="url(#fdkmfpx67qdtx)" height="317.2563" style="stroke:#A80036;stroke-width:0.8000000000000002;" width="8" x="544" y="159.2125"/><rect fill="#FFFFFF" filter="url(#fdkmfpx67qdtx)" height="144.8438" style="stroke:#A80036;stroke-width:0.8000000000000002;" width="8" x="544" y="651.5188"/><rect fill="#FFFFFF" filter="url(#fdkmfpx67qdtx)" height="268.6938" style="stroke:#A80036;stroke-width:0.8000000000000002;" width="8" x="776" y="183.4938"/><rect fill="#FFFFFF" filter="url(#fdkmfpx67qdtx)" height="12" style="stroke:#A80036;stroke-width:0.8000000000000002;" width="8" x="887.2" y="422.3063"/><rect fill="#FFFFFF" filter="url(#fdkmfpx67qdtx)" height="24" style="stroke:#A80036;stroke-width:0.8000000000000002;" width="8" x="887.2" y="724.0813"/><rect fill="#FFFFFF" filter="url(#fdkmfpx67qdtx)" height="48.5625" style="stroke:#A80036;stroke-width:0.8000000000000002;" width="8" x="1068.8" y="207.775"/><rect fill="#FFFFFF" filter="url(#fdkmfpx67qdtx)" height="48.5625" style="stroke:#A80036;stroke-width:0.8000000000000002;" width="8" x="1186.4" y="280.6188"/><rect fill="#FFFFFF" filter="url(#fdkmfpx67qdtx)" height="24.2813" style="stroke:#A80036;stroke-width:0.8000000000000002;" width="8" x="1292.4" y="353.4625"/><rect fill="#FFFFFF" filter="url(#fdkmfpx67qdtx)" height="24" style="stroke:#A80036;stroke-width:0.8000000000000002;" width="8" x="1292.4" y="675.8"/><rect fill="#FFFFFF" filter="url(#fdkmfpx67qdtx)" height="24" style="stroke:#A80036;stroke-width:0.8000000000000002;" width="8" x="1292.4" y="772.3625"/><polygon fill="#A80036" points="302.4,107.45,310.4,110.65,302.4,113.85,305.6,110.65" style="stroke:#A80036;stroke-width:0.8000000000000002;"/><line style="stroke:#A80036;stroke-width:0.8000000000000002;" x1="59.2" x2="307.2" y1="110.65" y2="110.65"/><text fill="#000000" font-family="sans-serif" font-size="10.4" font-weight="bold" lengthAdjust="spacing" textLength="5.6" x="64.8" y="100.2242">1</text><text fill="#000000" font-family="sans-serif" font-size="10.4" lengthAdjust="spacing" textLength="215.2" x="73.6" y="93.6836">Inicia o processo de visualizar as encomendas</text><text fill="#000000" font-family="sans-serif" font-size="10.4" lengthAdjust="spacing" textLength="228.8" x="73.6" y="106.7648">que se encontram no status Dispatched for Client</text><polygon fill="#A80036" points="538.4,131.7313,546.4,134.9313,538.4,138.1313,541.6,134.9313" style="stroke:#A80036;stroke-width:0.8000000000000002;"/><line style="stroke:#A80036;stroke-width:0.8000000000000002;" x1="320" x2="543.2" y1="134.9313" y2="134.9313"/><text fill="#000000" font-family="sans-serif" font-size="10.4" font-weight="bold" lengthAdjust="spacing" textLength="5.6" x="325.6" y="131.0461">2</text><text fill="#000000" font-family="sans-serif" font-size="10.4" lengthAdjust="spacing" textLength="28.8" x="334.4" y="131.0461">create</text><polygon fill="#A80036" points="534.4,156.0125,542.4,159.2125,534.4,162.4125,537.6,159.2125" style="stroke:#A80036;stroke-width:0.8000000000000002;"/><line style="stroke:#A80036;stroke-width:0.8000000000000002;" x1="320" x2="539.2" y1="159.2125" y2="159.2125"/><text fill="#000000" font-family="sans-serif" font-size="10.4" font-weight="bold" lengthAdjust="spacing" textLength="5.6" x="325.6" y="155.3273">3</text><text fill="#000000" font-family="sans-serif" font-size="10.4" lengthAdjust="spacing" textLength="200" x="334.4" y="155.3273">getOrdersDispatchedForCustomerDelivery()</text><polygon fill="#A80036" points="766.4,180.2938,774.4,183.4938,766.4,186.6938,769.6,183.4938" style="stroke:#A80036;stroke-width:0.8000000000000002;"/><line style="stroke:#A80036;stroke-width:0.8000000000000002;" x1="552" x2="771.2" y1="183.4938" y2="183.4938"/><text fill="#000000" font-family="sans-serif" font-size="10.4" font-weight="bold" lengthAdjust="spacing" textLength="5.6" x="557.6" y="179.6086">4</text><text fill="#000000" font-family="sans-serif" font-size="10.4" lengthAdjust="spacing" textLength="200" x="566.4" y="179.6086">getOrdersDispatchedForCustomerDelivery()</text><polygon fill="#A80036" points="1059.2,204.575,1067.2,207.775,1059.2,210.975,1062.4,207.775" style="stroke:#A80036;stroke-width:0.8000000000000002;"/><line style="stroke:#A80036;stroke-width:0.8000000000000002;" x1="784" x2="1064" y1="207.775" y2="207.775"/><text fill="#000000" font-family="sans-serif" font-size="10.4" font-weight="bold" lengthAdjust="spacing" textLength="5.6" x="789.6" y="203.8898">5</text><text fill="#000000" font-family="sans-serif" font-size="10.4" lengthAdjust="spacing" textLength="60" x="798.4" y="203.8898">repositories()</text><polygon fill="#A80036" points="1180.8,228.8563,1188.8,232.0563,1180.8,235.2563,1184,232.0563" style="stroke:#A80036;stroke-width:0.8000000000000002;"/><line style="stroke:#A80036;stroke-width:0.8000000000000002;" x1="1076.8" x2="1185.6" y1="232.0563" y2="232.0563"/><text fill="#000000" font-family="sans-serif" font-size="10.4" font-weight="bold" lengthAdjust="spacing" textLength="5.6" x="1082.4" y="228.1711">6</text><text fill="#000000" font-family="sans-serif" font-size="10.4" lengthAdjust="spacing" textLength="28.8" x="1091.2" y="228.1711">create</text><polygon fill="#A80036" points="792.8,253.1375,784.8,256.3375,792.8,259.5375,789.6,256.3375" style="stroke:#A80036;stroke-width:0.8000000000000002;"/><line style="stroke:#A80036;stroke-width:0.8000000000000002;" x1="788" x2="1072" y1="256.3375" y2="256.3375"/><text fill="#000000" font-family="sans-serif" font-size="10.4" font-weight="bold" lengthAdjust="spacing" textLength="5.6" x="797.6" y="252.4523">7</text><text fill="#000000" font-family="sans-serif" font-size="10.4" lengthAdjust="spacing" textLength="31.2" x="806.4" y="252.4523">factory</text><polygon fill="#A80036" points="1176.8,277.4188,1184.8,280.6188,1176.8,283.8188,1180,280.6188" style="stroke:#A80036;stroke-width:0.8000000000000002;"/><line style="stroke:#A80036;stroke-width:0.8000000000000002;" x1="784" x2="1181.6" y1="280.6188" y2="280.6188"/><text fill="#000000" font-family="sans-serif" font-size="10.4" font-weight="bold" lengthAdjust="spacing" textLength="5.6" x="789.6" y="276.7336">8</text><text fill="#000000" font-family="sans-serif" font-size="10.4" lengthAdjust="spacing" textLength="35.2" x="798.4" y="276.7336">orders()</text><polygon fill="#A80036" points="1286.8,301.7,1294.8,304.9,1286.8,308.1,1290,304.9" style="stroke:#A80036;stroke-width:0.8000000000000002;"/><line style="stroke:#A80036;stroke-width:0.8000000000000002;" x1="1194.4" x2="1291.6" y1="304.9" y2="304.9"/><text fill="#000000" font-family="sans-serif" font-size="10.4" font-weight="bold" lengthAdjust="spacing" textLength="5.6" x="1200" y="301.0148">9</text><text fill="#000000" font-family="sans-serif" font-size="10.4" lengthAdjust="spacing" textLength="28.8" x="1208.8" y="301.0148">create</text><polygon fill="#A80036" points="792.8,325.9813,784.8,329.1813,792.8,332.3813,789.6,329.1813" style="stroke:#A80036;stroke-width:0.8000000000000002;"/><line style="stroke:#A80036;stroke-width:0.8000000000000002;" x1="788" x2="1189.6" y1="329.1813" y2="329.1813"/><text fill="#000000" font-family="sans-serif" font-size="10.4" font-weight="bold" lengthAdjust="spacing" textLength="11.2" x="797.6" y="325.2961">10</text><text fill="#000000" font-family="sans-serif" font-size="10.4" lengthAdjust="spacing" textLength="72.8" x="812" y="325.2961">orderRepository</text><polygon fill="#A80036" points="1282.8,350.2625,1290.8,353.4625,1282.8,356.6625,1286,353.4625" style="stroke:#A80036;stroke-width:0.8000000000000002;"/><line style="stroke:#A80036;stroke-width:0.8000000000000002;" x1="784" x2="1287.6" y1="353.4625" y2="353.4625"/><text fill="#000000" font-family="sans-serif" font-size="10.4" font-weight="bold" lengthAdjust="spacing" textLength="11.2" x="789.6" y="349.5773">11</text><text fill="#000000" font-family="sans-serif" font-size="10.4" lengthAdjust="spacing" textLength="201.6" x="804" y="349.5773">findOrdersDispatchedForCustomerDelivery()</text><polygon fill="#A80036" points="792.8,374.5438,784.8,377.7438,792.8,380.9438,789.6,377.7438" style="stroke:#A80036;stroke-width:0.8000000000000002;"/><line style="stroke:#A80036;stroke-width:0.8000000000000002;stroke-dasharray:2.0,2.0;" x1="788" x2="1295.6" y1="377.7438" y2="377.7438"/><text fill="#000000" font-family="sans-serif" font-size="10.4" font-weight="bold" lengthAdjust="spacing" textLength="11.2" x="797.6" y="373.8586">12</text><text fill="#000000" font-family="sans-serif" font-size="10.4" lengthAdjust="spacing" textLength="45.6" x="812" y="373.8586">ordersList</text><path d="M710.4,389.7438 L768.8,389.7438 L768.8,396.1438 L760.8,404.1438 L710.4,404.1438 L710.4,389.7438 " fill="#EEEEEE" style="stroke:#000000;stroke-width:0.8000000000000002;"/><rect fill="none" height="38.9625" style="stroke:#000000;stroke-width:1.6000000000000003;" width="230.4" x="710.4" y="389.7438"/><text fill="#000000" font-family="sans-serif" font-size="10.4" font-weight="bold" lengthAdjust="spacing" textLength="22.4" x="722.4" y="401.3398">loop</text><polygon fill="#A80036" points="877.6,419.1063,885.6,422.3063,877.6,425.5063,880.8,422.3063" style="stroke:#A80036;stroke-width:0.8000000000000002;"/><line style="stroke:#A80036;stroke-width:0.8000000000000002;" x1="784" x2="882.4" y1="422.3063" y2="422.3063"/><text fill="#000000" font-family="sans-serif" font-size="10.4" font-weight="bold" lengthAdjust="spacing" textLength="11.2" x="789.6" y="418.4211">13</text><text fill="#000000" font-family="sans-serif" font-size="10.4" lengthAdjust="spacing" textLength="36" x="804" y="418.4211">toDTO()</text><polygon fill="#A80036" points="560.8,448.9875,552.8,452.1875,560.8,455.3875,557.6,452.1875" style="stroke:#A80036;stroke-width:0.8000000000000002;"/><line style="stroke:#A80036;stroke-width:0.8000000000000002;stroke-dasharray:2.0,2.0;" x1="556" x2="779.2" y1="452.1875" y2="452.1875"/><text fill="#000000" font-family="sans-serif" font-size="10.4" font-weight="bold" lengthAdjust="spacing" textLength="11.2" x="565.6" y="448.3023">14</text><text fill="#000000" font-family="sans-serif" font-size="10.4" lengthAdjust="spacing" textLength="66.4" x="580" y="448.3023">ordersListDTO</text><polygon fill="#A80036" points="328.8,473.2688,320.8,476.4688,328.8,479.6688,325.6,476.4688" style="stroke:#A80036;stroke-width:0.8000000000000002;"/><line style="stroke:#A80036;stroke-width:0.8000000000000002;stroke-dasharray:2.0,2.0;" x1="324" x2="547.2" y1="476.4688" y2="476.4688"/><text fill="#000000" font-family="sans-serif" font-size="10.4" font-weight="bold" lengthAdjust="spacing" textLength="11.2" x="333.6" y="472.5836">15</text><text fill="#000000" font-family="sans-serif" font-size="10.4" lengthAdjust="spacing" textLength="66.4" x="348" y="472.5836">ordersListDTO</text><polygon fill="#A80036" points="68,497.55,60,500.75,68,503.95,64.8,500.75" style="stroke:#A80036;stroke-width:0.8000000000000002;"/><line style="stroke:#A80036;stroke-width:0.8000000000000002;stroke-dasharray:2.0,2.0;" x1="63.2" x2="315.2" y1="500.75" y2="500.75"/><text fill="#000000" font-family="sans-serif" font-size="10.4" font-weight="bold" lengthAdjust="spacing" textLength="11.2" x="72.8" y="496.8648">16</text><text fill="#000000" font-family="sans-serif" font-size="10.4" lengthAdjust="spacing" textLength="140" x="87.2" y="496.8648">Mostra a lista de encomendas</text><path d="M8,512.75 L66.4,512.75 L66.4,519.15 L58.4,527.15 L8,527.15 L8,512.75 " fill="#EEEEEE" style="stroke:#000000;stroke-width:0.8000000000000002;"/><rect fill="none" height="295.6125" style="stroke:#000000;stroke-width:1.6000000000000003;" width="1348.8" x="8" y="512.75"/><text fill="#000000" font-family="sans-serif" font-size="10.4" font-weight="bold" lengthAdjust="spacing" textLength="22.4" x="20" y="524.3461">loop</text><text fill="#000000" font-family="sans-serif" font-size="8.8" font-weight="bold" lengthAdjust="spacing" textLength="227.2" x="78.4" y="523.4852">[enquanto desejar alterar o status de encomendas]</text><polygon fill="#A80036" points="302.4,555.1938,310.4,558.3938,302.4,561.5938,305.6,558.3938" style="stroke:#A80036;stroke-width:0.8000000000000002;"/><line style="stroke:#A80036;stroke-width:0.8000000000000002;" x1="59.2" x2="307.2" y1="558.3938" y2="558.3938"/><text fill="#000000" font-family="sans-serif" font-size="10.4" font-weight="bold" lengthAdjust="spacing" textLength="11.2" x="64.8" y="547.968">17</text><text fill="#000000" font-family="sans-serif" font-size="10.4" lengthAdjust="spacing" textLength="223.2" x="79.2" y="541.4273">Pergunta se pretende alterar o status de alguma</text><text fill="#000000" font-family="sans-serif" font-size="10.4" lengthAdjust="spacing" textLength="151.2" x="79.2" y="554.5086">encomenda para Being Delivered</text><path d="M16,570.3938 L64.8,570.3938 L64.8,576.7938 L56.8,584.7938 L16,584.7938 L16,570.3938 " fill="#EEEEEE" style="stroke:#000000;stroke-width:0.8000000000000002;"/><rect fill="none" height="232.3688" style="stroke:#000000;stroke-width:1.6000000000000003;" width="1332.8" x="16" y="570.3938"/><text fill="#000000" font-family="sans-serif" font-size="10.4" font-weight="bold" lengthAdjust="spacing" textLength="12.8" x="28" y="581.9898">alt</text><text fill="#000000" font-family="sans-serif" font-size="8.8" font-weight="bold" lengthAdjust="spacing" textLength="105.6" x="76.8" y="581.1289">[deseja alterar o status]</text><polygon fill="#A80036" points="68,599.7563,60,602.9563,68,606.1563,64.8,602.9563" style="stroke:#A80036;stroke-width:0.8000000000000002;"/><line style="stroke:#A80036;stroke-width:0.8000000000000002;stroke-dasharray:2.0,2.0;" x1="63.2" x2="315.2" y1="602.9563" y2="602.9563"/><text fill="#000000" font-family="sans-serif" font-size="10.4" font-weight="bold" lengthAdjust="spacing" textLength="11.2" x="72.8" y="599.0711">18</text><text fill="#000000" font-family="sans-serif" font-size="10.4" lengthAdjust="spacing" textLength="218.4" x="87.2" y="599.0711">Solicita o identificador numérico da encomenda</text><polygon fill="#A80036" points="302.4,624.0375,310.4,627.2375,302.4,630.4375,305.6,627.2375" style="stroke:#A80036;stroke-width:0.8000000000000002;"/><line style="stroke:#A80036;stroke-width:0.8000000000000002;" x1="59.2" x2="307.2" y1="627.2375" y2="627.2375"/><text fill="#000000" font-family="sans-serif" font-size="10.4" font-weight="bold" lengthAdjust="spacing" textLength="11.2" x="64.8" y="623.3523">19</text><text fill="#000000" font-family="sans-serif" font-size="10.4" lengthAdjust="spacing" textLength="100.8" x="79.2" y="623.3523">Informa a identificador</text><polygon fill="#A80036" points="534.4,648.3188,542.4,651.5188,534.4,654.7188,537.6,651.5188" style="stroke:#A80036;stroke-width:0.8000000000000002;"/><line style="stroke:#A80036;stroke-width:0.8000000000000002;" x1="320" x2="539.2" y1="651.5188" y2="651.5188"/><text fill="#000000" font-family="sans-serif" font-size="10.4" font-weight="bold" lengthAdjust="spacing" textLength="11.2" x="325.6" y="647.6336">20</text><text fill="#000000" font-family="sans-serif" font-size="10.4" lengthAdjust="spacing" textLength="180.8" x="340" y="647.6336">changeStatusToBeingDelivered(orderId)</text><polygon fill="#A80036" points="1282.8,672.6,1290.8,675.8,1282.8,679,1286,675.8" style="stroke:#A80036;stroke-width:0.8000000000000002;"/><line style="stroke:#A80036;stroke-width:0.8000000000000002;" x1="552" x2="1287.6" y1="675.8" y2="675.8"/><text fill="#000000" font-family="sans-serif" font-size="10.4" font-weight="bold" lengthAdjust="spacing" textLength="11.2" x="557.6" y="671.9148">21</text><text fill="#000000" font-family="sans-serif" font-size="10.4" lengthAdjust="spacing" textLength="143.2" x="572" y="671.9148">findByNumericIdentifier(orderId)</text><polygon fill="#A80036" points="877.6,720.8813,885.6,724.0813,877.6,727.2813,880.8,724.0813" style="stroke:#A80036;stroke-width:0.8000000000000002;"/><line style="stroke:#A80036;stroke-width:0.8000000000000002;" x1="552" x2="882.4" y1="724.0813" y2="724.0813"/><text fill="#000000" font-family="sans-serif" font-size="10.4" font-weight="bold" lengthAdjust="spacing" textLength="11.2" x="557.6" y="720.1961">22</text><text fill="#000000" font-family="sans-serif" font-size="10.4" lengthAdjust="spacing" textLength="149.6" x="572" y="720.1961">changeStatusToBeingDelivered()</text><polygon fill="#A80036" points="1282.8,769.1625,1290.8,772.3625,1282.8,775.5625,1286,772.3625" style="stroke:#A80036;stroke-width:0.8000000000000002;"/><line style="stroke:#A80036;stroke-width:0.8000000000000002;stroke-dasharray:2.0,2.0;" x1="552" x2="1287.6" y1="772.3625" y2="772.3625"/><text fill="#000000" font-family="sans-serif" font-size="10.4" font-weight="bold" lengthAdjust="spacing" textLength="11.2" x="557.6" y="768.4773">23</text><text fill="#000000" font-family="sans-serif" font-size="10.4" lengthAdjust="spacing" textLength="50.4" x="572" y="768.4773">save(order)</text><polygon fill="#A80036" points="64,828.6438,56,831.8438,64,835.0438,60.8,831.8438" style="stroke:#A80036;stroke-width:0.8000000000000002;"/><line style="stroke:#A80036;stroke-width:0.8000000000000002;stroke-dasharray:2.0,2.0;" x1="59.2" x2="315.2" y1="831.8438" y2="831.8438"/><text fill="#000000" font-family="sans-serif" font-size="10.4" font-weight="bold" lengthAdjust="spacing" textLength="11.2" x="68.8" y="827.9586">24</text><text fill="#000000" font-family="sans-serif" font-size="10.4" lengthAdjust="spacing" textLength="144.8" x="83.2" y="827.9586">Informa o sucesso da operação</text><!--MD5=[4ffaf5d7876f5e0ae53488aaa75ee3c3]
@startuml

autonumber
actor "Sales Clerk" as SC
participant ViewOrdersSentToCustomerUI as UI <<presentation>>
participant ViewOrdersSentToCustomerController as Controller <<application>>
participant ListOrderDTOService as serv <<application>>
participant "ProductOrder" as Domain <<domain>>
participant "OrderDTO" as DTO <<dto>>
participant PersistenceContext as Persistence <<persistence>>
participant RepositoryFactory as Factory <<factory>>
database OrderRepository as repository <<repository>>

activate SC
SC -> UI : Inicia o processo de visualizar as encomendas\nque se encontram no status Dispatched for Client
activate UI
UI -> Controller: create
UI -> Controller: getOrdersDispatchedForCustomerDelivery()
activate Controller
Controller -> serv: getOrdersDispatchedForCustomerDelivery()
activate serv
serv -> Persistence: repositories()
activate Persistence
Persistence -> Factory: create
Persistence -> serv: factory
deactivate Persistence
serv -> Factory: orders()
activate Factory
Factory -> repository: create
Factory -> serv: orderRepository
deactivate Factory
serv->repository:findOrdersDispatchedForCustomerDelivery()
activate repository
repository - -> serv: ordersList
deactivate repository
loop
serv -> Domain: toDTO()
activate Domain
end
deactivate Domain
serv - -> Controller: ordersListDTO
deactivate serv
Controller - -> UI: ordersListDTO
deactivate Controller
UI - -> SC : Mostra a lista de encomendas
deactivate UI
loop enquanto desejar alterar o status de encomendas
SC -> UI : Pergunta se pretende alterar o status de alguma\nencomenda para Being Delivered
activate UI
alt deseja alterar o status
UI - -> SC : Solicita o identificador numérico da encomenda
deactivate UI
SC -> UI : Informa a identificador
activate UI
UI -> Controller: changeStatusToBeingDelivered(orderId)
activate Controller
Controller->repository:findByNumericIdentifier(orderId)
activate repository
deactivate repository
Controller -> Domain: changeStatusToBeingDelivered()
activate Domain
deactivate Domain
Controller - -> repository: save(order)
activate repository
deactivate repository
deactivate Controller
end
end
UI - -> SC : Informa o sucesso da operação
deactivate UI
deactivate SC

@enduml

PlantUML version 1.2022.1(Tue Feb 01 18:19:58 GMT 2022)
(GPL source distribution)
Java Runtime: OpenJDK Runtime Environment
JVM: Dynamic Code Evolution 64-Bit Server VM
Default Encoding: Cp1252
Language: pt
Country: PT
--></g></svg>