<?xml version="1.0" encoding="UTF-8" standalone="no"?><svg xmlns="http://www.w3.org/2000/svg" xmlns:xlink="http://www.w3.org/1999/xlink" contentScriptType="application/ecmascript" contentStyleType="text/css" height="1125px" preserveAspectRatio="none" style="width:1671px;height:1125px;background:#FFFFFF;" version="1.1" viewBox="0 0 1671 1125" width="1671px" zoomAndPan="magnify"><defs><filter height="300%" id="f2r5ojrmer6v9" width="300%" x="-1" y="-1"><feGaussianBlur result="blurOut" stdDeviation="2.0"/><feColorMatrix in="blurOut" result="blurOut2" type="matrix" values="0 0 0 0 0 0 0 0 0 0 0 0 0 0 0 0 0 0 .4 0"/><feOffset dx="4.0" dy="4.0" in="blurOut2" result="blurOut3"/><feBlend in="SourceGraphic" in2="blurOut3" mode="normal"/></filter></defs><g><rect fill="#FFFFFF" filter="url(#f2r5ojrmer6v9)" height="920.5469" style="stroke:#A80036;stroke-width:1.0;" width="10" x="72.5" y="99.6094"/><rect fill="#FFFFFF" filter="url(#f2r5ojrmer6v9)" height="137.4063" style="stroke:#A80036;stroke-width:1.0;" width="10" x="359.5" y="121.9609"/><rect fill="#FFFFFF" filter="url(#f2r5ojrmer6v9)" height="730.4375" style="stroke:#A80036;stroke-width:1.0;" width="10" x="359.5" y="289.7188"/><rect fill="#FFFFFF" filter="url(#f2r5ojrmer6v9)" height="30" style="stroke:#A80036;stroke-width:1.0;" width="10" x="637.5" y="182.6641"/><rect fill="#FFFFFF" filter="url(#f2r5ojrmer6v9)" height="653.3828" style="stroke:#A80036;stroke-width:1.0;" width="10" x="637.5" y="336.4219"/><rect fill="#FFFFFF" filter="url(#f2r5ojrmer6v9)" height="107.4063" style="stroke:#A80036;stroke-width:1.0;" width="10" x="949.5" y="609.5859"/><rect fill="#FFFFFF" filter="url(#f2r5ojrmer6v9)" height="60.7031" style="stroke:#A80036;stroke-width:1.0;" width="10" x="1326" y="747.3438"/><rect fill="#FFFFFF" filter="url(#f2r5ojrmer6v9)" height="90.7031" style="stroke:#A80036;stroke-width:1.0;" width="10" x="1481" y="838.3984"/><rect fill="#FFFFFF" filter="url(#f2r5ojrmer6v9)" height="30" style="stroke:#A80036;stroke-width:1.0;" width="10" x="1613.5" y="868.75"/><line style="stroke:#A80036;stroke-width:1.0;stroke-dasharray:5.0,5.0;" x1="77" x2="77" y1="89.6094" y2="1038.1563"/><line style="stroke:#A80036;stroke-width:1.0;stroke-dasharray:5.0,5.0;" x1="364" x2="364" y1="89.6094" y2="1038.1563"/><line style="stroke:#A80036;stroke-width:1.0;stroke-dasharray:5.0,5.0;" x1="642" x2="642" y1="89.6094" y2="1038.1563"/><line style="stroke:#A80036;stroke-width:1.0;stroke-dasharray:5.0,5.0;" x1="954" x2="954" y1="89.6094" y2="1038.1563"/><line style="stroke:#A80036;stroke-width:1.0;stroke-dasharray:5.0,5.0;" x1="1223" x2="1223" y1="89.6094" y2="1038.1563"/><line style="stroke:#A80036;stroke-width:1.0;stroke-dasharray:5.0,5.0;" x1="1331" x2="1331" y1="89.6094" y2="1038.1563"/><line style="stroke:#A80036;stroke-width:1.0;stroke-dasharray:5.0,5.0;" x1="1486" x2="1486" y1="89.6094" y2="1038.1563"/><line style="stroke:#A80036;stroke-width:1.0;stroke-dasharray:5.0,5.0;" x1="1618" x2="1618" y1="89.6094" y2="1038.1563"/><text fill="#000000" font-family="sans-serif" font-size="14" lengthAdjust="spacing" textLength="139" x="5" y="86.5332">Warehouse Employee</text><ellipse cx="77.5" cy="15" fill="#FEFECE" filter="url(#f2r5ojrmer6v9)" rx="8" ry="8" style="stroke:#A80036;stroke-width:2.0;"/><path d="M77.5,23 L77.5,50 M64.5,31 L90.5,31 M77.5,50 L64.5,65 M77.5,50 L90.5,65 " fill="none" filter="url(#f2r5ojrmer6v9)" style="stroke:#A80036;stroke-width:2.0;"/><text fill="#000000" font-family="sans-serif" font-size="14" lengthAdjust="spacing" textLength="139" x="5" y="1051.6895">Warehouse Employee</text><ellipse cx="77.5" cy="1064.7656" fill="#FEFECE" filter="url(#f2r5ojrmer6v9)" rx="8" ry="8" style="stroke:#A80036;stroke-width:2.0;"/><path d="M77.5,1072.7656 L77.5,1099.7656 M64.5,1080.7656 L90.5,1080.7656 M77.5,1099.7656 L64.5,1114.7656 M77.5,1099.7656 L90.5,1114.7656 " fill="none" filter="url(#f2r5ojrmer6v9)" style="stroke:#A80036;stroke-width:2.0;"/><rect fill="#FEFECE" filter="url(#f2r5ojrmer6v9)" height="31.6094" style="stroke:#A80036;stroke-width:1.5;" width="117" x="304" y="53"/><text fill="#000000" font-family="sans-serif" font-size="14" lengthAdjust="spacing" textLength="103" x="311" y="74.5332">ConfigureAGVUI</text><rect fill="#FEFECE" filter="url(#f2r5ojrmer6v9)" height="31.6094" style="stroke:#A80036;stroke-width:1.5;" width="117" x="304" y="1037.1563"/><text fill="#000000" font-family="sans-serif" font-size="14" lengthAdjust="spacing" textLength="103" x="311" y="1058.6895">ConfigureAGVUI</text><rect fill="#FEFECE" filter="url(#f2r5ojrmer6v9)" height="31.6094" style="stroke:#A80036;stroke-width:1.5;" width="167" x="557" y="53"/><text fill="#000000" font-family="sans-serif" font-size="14" lengthAdjust="spacing" textLength="153" x="564" y="74.5332">ConfigureAGVController</text><rect fill="#FEFECE" filter="url(#f2r5ojrmer6v9)" height="31.6094" style="stroke:#A80036;stroke-width:1.5;" width="167" x="557" y="1037.1563"/><text fill="#000000" font-family="sans-serif" font-size="14" lengthAdjust="spacing" textLength="153" x="564" y="1058.6895">ConfigureAGVController</text><rect fill="#FEFECE" filter="url(#f2r5ojrmer6v9)" height="49.2188" style="stroke:#A80036;stroke-width:1.5;" width="93" x="906" y="35.3906"/><text fill="#000000" font-family="sans-serif" font-size="14" lengthAdjust="spacing" textLength="75" x="913" y="56.9238">&lt;&lt;builder&gt;&gt;</text><text fill="#000000" font-family="sans-serif" font-size="14" lengthAdjust="spacing" textLength="73" x="916" y="74.5332">AGVBuilder</text><rect fill="#FEFECE" filter="url(#f2r5ojrmer6v9)" height="49.2188" style="stroke:#A80036;stroke-width:1.5;" width="93" x="906" y="1037.1563"/><text fill="#000000" font-family="sans-serif" font-size="14" lengthAdjust="spacing" textLength="75" x="913" y="1058.6895">&lt;&lt;builder&gt;&gt;</text><text fill="#000000" font-family="sans-serif" font-size="14" lengthAdjust="spacing" textLength="73" x="916" y="1076.2988">AGVBuilder</text><rect fill="#FEFECE" filter="url(#f2r5ojrmer6v9)" height="31.6094" style="stroke:#A80036;stroke-width:1.5;" width="43" x="1200" y="53"/><text fill="#000000" font-family="sans-serif" font-size="14" lengthAdjust="spacing" textLength="29" x="1207" y="74.5332">AGV</text><rect fill="#FEFECE" filter="url(#f2r5ojrmer6v9)" height="31.6094" style="stroke:#A80036;stroke-width:1.5;" width="43" x="1200" y="1037.1563"/><text fill="#000000" font-family="sans-serif" font-size="14" lengthAdjust="spacing" textLength="29" x="1207" y="1058.6895">AGV</text><rect fill="#FEFECE" filter="url(#f2r5ojrmer6v9)" height="49.2188" style="stroke:#A80036;stroke-width:1.5;" width="144" x="1257" y="35.3906"/><text fill="#000000" font-family="sans-serif" font-size="14" font-style="italic" lengthAdjust="spacing" textLength="89" x="1284.5" y="56.9238">«persistence»</text><text fill="#000000" font-family="sans-serif" font-size="14" lengthAdjust="spacing" textLength="130" x="1264" y="74.5332">: PersistenceContext</text><rect fill="#FEFECE" filter="url(#f2r5ojrmer6v9)" height="49.2188" style="stroke:#A80036;stroke-width:1.5;" width="144" x="1257" y="1037.1563"/><text fill="#000000" font-family="sans-serif" font-size="14" font-style="italic" lengthAdjust="spacing" textLength="89" x="1284.5" y="1058.6895">«persistence»</text><text fill="#000000" font-family="sans-serif" font-size="14" lengthAdjust="spacing" textLength="130" x="1264" y="1076.2988">: PersistenceContext</text><rect fill="#FEFECE" filter="url(#f2r5ojrmer6v9)" height="49.2188" style="stroke:#A80036;stroke-width:1.5;" width="138" x="1415" y="35.3906"/><text fill="#000000" font-family="sans-serif" font-size="14" font-style="italic" lengthAdjust="spacing" textLength="59" x="1454.5" y="56.9238">«factory»</text><text fill="#000000" font-family="sans-serif" font-size="14" lengthAdjust="spacing" textLength="124" x="1422" y="74.5332">: RepositoryFactory</text><rect fill="#FEFECE" filter="url(#f2r5ojrmer6v9)" height="49.2188" style="stroke:#A80036;stroke-width:1.5;" width="138" x="1415" y="1037.1563"/><text fill="#000000" font-family="sans-serif" font-size="14" font-style="italic" lengthAdjust="spacing" textLength="59" x="1454.5" y="1058.6895">«factory»</text><text fill="#000000" font-family="sans-serif" font-size="14" lengthAdjust="spacing" textLength="124" x="1422" y="1076.2988">: RepositoryFactory</text><text fill="#000000" font-family="sans-serif" font-size="14" font-style="italic" lengthAdjust="spacing" textLength="79" x="1576" y="68.9238">«repository»</text><text fill="#000000" font-family="sans-serif" font-size="14" lengthAdjust="spacing" textLength="97" x="1567" y="86.5332">AGVRepository</text><path d="M1600.5,18.3906 C1600.5,8.3906 1618.5,8.3906 1618.5,8.3906 C1618.5,8.3906 1636.5,8.3906 1636.5,18.3906 L1636.5,44.3906 C1636.5,54.3906 1618.5,54.3906 1618.5,54.3906 C1618.5,54.3906 1600.5,54.3906 1600.5,44.3906 L1600.5,18.3906 " fill="#FEFECE" filter="url(#f2r5ojrmer6v9)" style="stroke:#000000;stroke-width:1.5;"/><path d="M1600.5,18.3906 C1600.5,28.3906 1618.5,28.3906 1618.5,28.3906 C1618.5,28.3906 1636.5,28.3906 1636.5,18.3906 " fill="none" style="stroke:#000000;stroke-width:1.5;"/><text fill="#000000" font-family="sans-serif" font-size="14" font-style="italic" lengthAdjust="spacing" textLength="79" x="1576" y="1051.6895">«repository»</text><text fill="#000000" font-family="sans-serif" font-size="14" lengthAdjust="spacing" textLength="97" x="1567" y="1069.2988">AGVRepository</text><path d="M1600.5,1082.375 C1600.5,1072.375 1618.5,1072.375 1618.5,1072.375 C1618.5,1072.375 1636.5,1072.375 1636.5,1082.375 L1636.5,1108.375 C1636.5,1118.375 1618.5,1118.375 1618.5,1118.375 C1618.5,1118.375 1600.5,1118.375 1600.5,1108.375 L1600.5,1082.375 " fill="#FEFECE" filter="url(#f2r5ojrmer6v9)" style="stroke:#000000;stroke-width:1.5;"/><path d="M1600.5,1082.375 C1600.5,1092.375 1618.5,1092.375 1618.5,1092.375 C1618.5,1092.375 1636.5,1092.375 1636.5,1082.375 " fill="none" style="stroke:#000000;stroke-width:1.5;"/><rect fill="#FFFFFF" filter="url(#f2r5ojrmer6v9)" height="920.5469" style="stroke:#A80036;stroke-width:1.0;" width="10" x="72.5" y="99.6094"/><rect fill="#FFFFFF" filter="url(#f2r5ojrmer6v9)" height="137.4063" style="stroke:#A80036;stroke-width:1.0;" width="10" x="359.5" y="121.9609"/><rect fill="#FFFFFF" filter="url(#f2r5ojrmer6v9)" height="730.4375" style="stroke:#A80036;stroke-width:1.0;" width="10" x="359.5" y="289.7188"/><rect fill="#FFFFFF" filter="url(#f2r5ojrmer6v9)" height="30" style="stroke:#A80036;stroke-width:1.0;" width="10" x="637.5" y="182.6641"/><rect fill="#FFFFFF" filter="url(#f2r5ojrmer6v9)" height="653.3828" style="stroke:#A80036;stroke-width:1.0;" width="10" x="637.5" y="336.4219"/><rect fill="#FFFFFF" filter="url(#f2r5ojrmer6v9)" height="107.4063" style="stroke:#A80036;stroke-width:1.0;" width="10" x="949.5" y="609.5859"/><rect fill="#FFFFFF" filter="url(#f2r5ojrmer6v9)" height="60.7031" style="stroke:#A80036;stroke-width:1.0;" width="10" x="1326" y="747.3438"/><rect fill="#FFFFFF" filter="url(#f2r5ojrmer6v9)" height="90.7031" style="stroke:#A80036;stroke-width:1.0;" width="10" x="1481" y="838.3984"/><rect fill="#FFFFFF" filter="url(#f2r5ojrmer6v9)" height="30" style="stroke:#A80036;stroke-width:1.0;" width="10" x="1613.5" y="868.75"/><polygon fill="#A80036" points="347.5,117.9609,357.5,121.9609,347.5,125.9609,351.5,121.9609" style="stroke:#A80036;stroke-width:1.0;"/><line style="stroke:#A80036;stroke-width:1.0;" x1="82.5" x2="353.5" y1="121.9609" y2="121.9609"/><text fill="#000000" font-family="sans-serif" font-size="13" font-weight="bold" lengthAdjust="spacing" textLength="7" x="89.5" y="117.1045">1</text><text fill="#000000" font-family="sans-serif" font-size="13" lengthAdjust="spacing" textLength="247" x="100.5" y="117.1045">initiates the process of configuring an AGV</text><polygon fill="#A80036" points="630.5,148.3125,640.5,152.3125,630.5,156.3125,634.5,152.3125" style="stroke:#A80036;stroke-width:1.0;"/><line style="stroke:#A80036;stroke-width:1.0;" x1="369.5" x2="636.5" y1="152.3125" y2="152.3125"/><text fill="#000000" font-family="sans-serif" font-size="13" font-weight="bold" lengthAdjust="spacing" textLength="7" x="376.5" y="147.4561">2</text><text fill="#000000" font-family="sans-serif" font-size="13" lengthAdjust="spacing" textLength="36" x="387.5" y="147.4561">create</text><polygon fill="#A80036" points="625.5,178.6641,635.5,182.6641,625.5,186.6641,629.5,182.6641" style="stroke:#A80036;stroke-width:1.0;"/><line style="stroke:#A80036;stroke-width:1.0;" x1="369.5" x2="631.5" y1="182.6641" y2="182.6641"/><text fill="#000000" font-family="sans-serif" font-size="13" font-weight="bold" lengthAdjust="spacing" textLength="7" x="376.5" y="177.8076">3</text><text fill="#000000" font-family="sans-serif" font-size="13" lengthAdjust="spacing" textLength="78" x="387.5" y="177.8076">validateData()</text><polygon fill="#A80036" points="93.5,255.3672,83.5,259.3672,93.5,263.3672,89.5,259.3672" style="stroke:#A80036;stroke-width:1.0;"/><line style="stroke:#A80036;stroke-width:1.0;stroke-dasharray:2.0,2.0;" x1="87.5" x2="363.5" y1="259.3672" y2="259.3672"/><text fill="#000000" font-family="sans-serif" font-size="13" font-weight="bold" lengthAdjust="spacing" textLength="7" x="99.5" y="246.335">4</text><text fill="#000000" font-family="sans-serif" font-size="13" lengthAdjust="spacing" textLength="198" x="110.5" y="238.1592">requests data (id, briefDescription,</text><text fill="#000000" font-family="sans-serif" font-size="13" lengthAdjust="spacing" textLength="204" x="110.5" y="254.5107">model, maxWeightCapacity, range)</text><polygon fill="#A80036" points="347.5,285.7188,357.5,289.7188,347.5,293.7188,351.5,289.7188" style="stroke:#A80036;stroke-width:1.0;"/><line style="stroke:#A80036;stroke-width:1.0;" x1="82.5" x2="353.5" y1="289.7188" y2="289.7188"/><text fill="#000000" font-family="sans-serif" font-size="13" font-weight="bold" lengthAdjust="spacing" textLength="7" x="89.5" y="284.8623">5</text><text fill="#000000" font-family="sans-serif" font-size="13" lengthAdjust="spacing" textLength="137" x="100.5" y="284.8623">type the requested data</text><polygon fill="#A80036" points="625.5,332.4219,635.5,336.4219,625.5,340.4219,629.5,336.4219" style="stroke:#A80036;stroke-width:1.0;"/><line style="stroke:#A80036;stroke-width:1.0;" x1="369.5" x2="631.5" y1="336.4219" y2="336.4219"/><text fill="#000000" font-family="sans-serif" font-size="13" font-weight="bold" lengthAdjust="spacing" textLength="7" x="376.5" y="323.3896">6</text><text fill="#000000" font-family="sans-serif" font-size="13" lengthAdjust="spacing" textLength="238" x="387.5" y="315.2139">configureAGV(id, briefDescription, model,</text><text fill="#000000" font-family="sans-serif" font-size="13" lengthAdjust="spacing" textLength="161" x="391.5" y="331.5654">maxWeightCapacity, range)</text><polygon fill="#A80036" points="942.5,362.7734,952.5,366.7734,942.5,370.7734,946.5,366.7734" style="stroke:#A80036;stroke-width:1.0;"/><line style="stroke:#A80036;stroke-width:1.0;" x1="647.5" x2="948.5" y1="366.7734" y2="366.7734"/><text fill="#000000" font-family="sans-serif" font-size="13" font-weight="bold" lengthAdjust="spacing" textLength="7" x="654.5" y="361.917">7</text><text fill="#000000" font-family="sans-serif" font-size="13" lengthAdjust="spacing" textLength="36" x="665.5" y="361.917">create</text><polygon fill="#A80036" points="942.5,393.125,952.5,397.125,942.5,401.125,946.5,397.125" style="stroke:#A80036;stroke-width:1.0;"/><line style="stroke:#A80036;stroke-width:1.0;" x1="647.5" x2="948.5" y1="397.125" y2="397.125"/><text fill="#000000" font-family="sans-serif" font-size="13" font-weight="bold" lengthAdjust="spacing" textLength="7" x="654.5" y="392.2686">8</text><text fill="#000000" font-family="sans-serif" font-size="13" lengthAdjust="spacing" textLength="51" x="665.5" y="392.2686">withId(id)</text><polygon fill="#A80036" points="942.5,423.4766,952.5,427.4766,942.5,431.4766,946.5,427.4766" style="stroke:#A80036;stroke-width:1.0;"/><line style="stroke:#A80036;stroke-width:1.0;" x1="647.5" x2="948.5" y1="427.4766" y2="427.4766"/><text fill="#000000" font-family="sans-serif" font-size="13" font-weight="bold" lengthAdjust="spacing" textLength="7" x="654.5" y="422.6201">9</text><text fill="#000000" font-family="sans-serif" font-size="13" lengthAdjust="spacing" textLength="149" x="665.5" y="422.6201">associateWithAGVDock()</text><polygon fill="#A80036" points="942.5,453.8281,952.5,457.8281,942.5,461.8281,946.5,457.8281" style="stroke:#A80036;stroke-width:1.0;"/><line style="stroke:#A80036;stroke-width:1.0;" x1="647.5" x2="948.5" y1="457.8281" y2="457.8281"/><text fill="#000000" font-family="sans-serif" font-size="13" font-weight="bold" lengthAdjust="spacing" textLength="14" x="654.5" y="452.9717">10</text><text fill="#000000" font-family="sans-serif" font-size="13" lengthAdjust="spacing" textLength="211" x="672.5" y="452.9717">withBriefDescription(briefDescription)</text><polygon fill="#A80036" points="942.5,484.1797,952.5,488.1797,942.5,492.1797,946.5,488.1797" style="stroke:#A80036;stroke-width:1.0;"/><line style="stroke:#A80036;stroke-width:1.0;" x1="647.5" x2="948.5" y1="488.1797" y2="488.1797"/><text fill="#000000" font-family="sans-serif" font-size="13" font-weight="bold" lengthAdjust="spacing" textLength="14" x="654.5" y="483.3232">11</text><text fill="#000000" font-family="sans-serif" font-size="13" lengthAdjust="spacing" textLength="101" x="672.5" y="483.3232">withModel(model)</text><polygon fill="#A80036" points="942.5,514.5313,952.5,518.5313,942.5,522.5313,946.5,518.5313" style="stroke:#A80036;stroke-width:1.0;"/><line style="stroke:#A80036;stroke-width:1.0;" x1="647.5" x2="948.5" y1="518.5313" y2="518.5313"/><text fill="#000000" font-family="sans-serif" font-size="13" font-weight="bold" lengthAdjust="spacing" textLength="14" x="654.5" y="513.6748">12</text><text fill="#000000" font-family="sans-serif" font-size="13" lengthAdjust="spacing" textLength="109" x="672.5" y="513.6748">withWeight(weight)</text><polygon fill="#A80036" points="942.5,544.8828,952.5,548.8828,942.5,552.8828,946.5,548.8828" style="stroke:#A80036;stroke-width:1.0;"/><line style="stroke:#A80036;stroke-width:1.0;" x1="647.5" x2="948.5" y1="548.8828" y2="548.8828"/><text fill="#000000" font-family="sans-serif" font-size="13" font-weight="bold" lengthAdjust="spacing" textLength="14" x="654.5" y="544.0264">13</text><text fill="#000000" font-family="sans-serif" font-size="13" lengthAdjust="spacing" textLength="265" x="672.5" y="544.0264">withMaxWeightCapacity(maxWeightCapacity)</text><polygon fill="#A80036" points="942.5,575.2344,952.5,579.2344,942.5,583.2344,946.5,579.2344" style="stroke:#A80036;stroke-width:1.0;"/><line style="stroke:#A80036;stroke-width:1.0;" x1="647.5" x2="948.5" y1="579.2344" y2="579.2344"/><text fill="#000000" font-family="sans-serif" font-size="13" font-weight="bold" lengthAdjust="spacing" textLength="14" x="654.5" y="574.3779">14</text><text fill="#000000" font-family="sans-serif" font-size="13" lengthAdjust="spacing" textLength="100" x="672.5" y="574.3779">withRange(range)</text><polygon fill="#A80036" points="937.5,605.5859,947.5,609.5859,937.5,613.5859,941.5,609.5859" style="stroke:#A80036;stroke-width:1.0;"/><line style="stroke:#A80036;stroke-width:1.0;" x1="647.5" x2="943.5" y1="609.5859" y2="609.5859"/><text fill="#000000" font-family="sans-serif" font-size="13" font-weight="bold" lengthAdjust="spacing" textLength="14" x="654.5" y="604.7295">15</text><text fill="#000000" font-family="sans-serif" font-size="13" lengthAdjust="spacing" textLength="72" x="672.5" y="604.7295">createAGV()</text><polygon fill="#A80036" points="1211.5,652.2891,1221.5,656.2891,1211.5,660.2891,1215.5,656.2891" style="stroke:#A80036;stroke-width:1.0;"/><line style="stroke:#A80036;stroke-width:1.0;" x1="959.5" x2="1217.5" y1="656.2891" y2="656.2891"/><text fill="#000000" font-family="sans-serif" font-size="13" font-weight="bold" lengthAdjust="spacing" textLength="14" x="966.5" y="643.2568">16</text><text fill="#000000" font-family="sans-serif" font-size="13" lengthAdjust="spacing" textLength="222" x="984.5" y="635.0811">createAGV(id, briefDescription, model,</text><text fill="#000000" font-family="sans-serif" font-size="13" lengthAdjust="spacing" textLength="161" x="988.5" y="651.4326">maxWeightCapacity, range)</text><polygon fill="#A80036" points="970.5,682.6406,960.5,686.6406,970.5,690.6406,966.5,686.6406" style="stroke:#A80036;stroke-width:1.0;"/><line style="stroke:#A80036;stroke-width:1.0;stroke-dasharray:2.0,2.0;" x1="964.5" x2="1222.5" y1="686.6406" y2="686.6406"/><text fill="#000000" font-family="sans-serif" font-size="13" font-weight="bold" lengthAdjust="spacing" textLength="14" x="976.5" y="681.7842">17</text><text fill="#000000" font-family="sans-serif" font-size="13" lengthAdjust="spacing" textLength="19" x="994.5" y="681.7842">agv</text><polygon fill="#A80036" points="658.5,712.9922,648.5,716.9922,658.5,720.9922,654.5,716.9922" style="stroke:#A80036;stroke-width:1.0;"/><line style="stroke:#A80036;stroke-width:1.0;stroke-dasharray:2.0,2.0;" x1="652.5" x2="953.5" y1="716.9922" y2="716.9922"/><text fill="#000000" font-family="sans-serif" font-size="13" font-weight="bold" lengthAdjust="spacing" textLength="14" x="664.5" y="712.1357">18</text><text fill="#000000" font-family="sans-serif" font-size="13" lengthAdjust="spacing" textLength="19" x="682.5" y="712.1357">agv</text><polygon fill="#A80036" points="1314,743.3438,1324,747.3438,1314,751.3438,1318,747.3438" style="stroke:#A80036;stroke-width:1.0;"/><line style="stroke:#A80036;stroke-width:1.0;" x1="647.5" x2="1320" y1="747.3438" y2="747.3438"/><text fill="#000000" font-family="sans-serif" font-size="13" font-weight="bold" lengthAdjust="spacing" textLength="14" x="654.5" y="742.4873">19</text><text fill="#000000" font-family="sans-serif" font-size="13" lengthAdjust="spacing" textLength="224" x="672.5" y="742.4873">repoConfigureAGV = repositoryFactory</text><polygon fill="#A80036" points="1474,773.6953,1484,777.6953,1474,781.6953,1478,777.6953" style="stroke:#A80036;stroke-width:1.0;"/><line style="stroke:#A80036;stroke-width:1.0;" x1="1336" x2="1480" y1="777.6953" y2="777.6953"/><text fill="#000000" font-family="sans-serif" font-size="13" font-weight="bold" lengthAdjust="spacing" textLength="14" x="1343" y="772.8389">20</text><text fill="#000000" font-family="sans-serif" font-size="13" lengthAdjust="spacing" textLength="36" x="1361" y="772.8389">create</text><polygon fill="#A80036" points="658.5,804.0469,648.5,808.0469,658.5,812.0469,654.5,808.0469" style="stroke:#A80036;stroke-width:1.0;"/><line style="stroke:#A80036;stroke-width:1.0;stroke-dasharray:2.0,2.0;" x1="652.5" x2="1330" y1="808.0469" y2="808.0469"/><text fill="#000000" font-family="sans-serif" font-size="13" font-weight="bold" lengthAdjust="spacing" textLength="14" x="664.5" y="803.1904">21</text><text fill="#000000" font-family="sans-serif" font-size="13" lengthAdjust="spacing" textLength="39" x="682.5" y="803.1904">factory</text><polygon fill="#A80036" points="1469,834.3984,1479,838.3984,1469,842.3984,1473,838.3984" style="stroke:#A80036;stroke-width:1.0;"/><line style="stroke:#A80036;stroke-width:1.0;" x1="647.5" x2="1475" y1="838.3984" y2="838.3984"/><text fill="#000000" font-family="sans-serif" font-size="13" font-weight="bold" lengthAdjust="spacing" textLength="14" x="654.5" y="833.542">22</text><text fill="#000000" font-family="sans-serif" font-size="13" lengthAdjust="spacing" textLength="27" x="672.5" y="833.542">agv()</text><polygon fill="#A80036" points="1601.5,864.75,1611.5,868.75,1601.5,872.75,1605.5,868.75" style="stroke:#A80036;stroke-width:1.0;"/><line style="stroke:#A80036;stroke-width:1.0;" x1="1491" x2="1607.5" y1="868.75" y2="868.75"/><text fill="#000000" font-family="sans-serif" font-size="13" font-weight="bold" lengthAdjust="spacing" textLength="14" x="1498" y="863.8936">23</text><text fill="#000000" font-family="sans-serif" font-size="13" lengthAdjust="spacing" textLength="36" x="1516" y="863.8936">create</text><polygon fill="#A80036" points="658.5,925.1016,648.5,929.1016,658.5,933.1016,654.5,929.1016" style="stroke:#A80036;stroke-width:1.0;"/><line style="stroke:#A80036;stroke-width:1.0;stroke-dasharray:2.0,2.0;" x1="652.5" x2="1485" y1="929.1016" y2="929.1016"/><text fill="#000000" font-family="sans-serif" font-size="13" font-weight="bold" lengthAdjust="spacing" textLength="14" x="664.5" y="924.2451">24</text><text fill="#000000" font-family="sans-serif" font-size="13" lengthAdjust="spacing" textLength="81" x="682.5" y="924.2451">agvRepository</text><polygon fill="#A80036" points="1606.5,955.4531,1616.5,959.4531,1606.5,963.4531,1610.5,959.4531" style="stroke:#A80036;stroke-width:1.0;"/><line style="stroke:#A80036;stroke-width:1.0;" x1="647.5" x2="1612.5" y1="959.4531" y2="959.4531"/><text fill="#000000" font-family="sans-serif" font-size="13" font-weight="bold" lengthAdjust="spacing" textLength="14" x="654.5" y="954.5967">25</text><text fill="#000000" font-family="sans-serif" font-size="13" lengthAdjust="spacing" textLength="62" x="672.5" y="954.5967">save(AGV)</text><polygon fill="#A80036" points="380.5,985.8047,370.5,989.8047,380.5,993.8047,376.5,989.8047" style="stroke:#A80036;stroke-width:1.0;"/><line style="stroke:#A80036;stroke-width:1.0;" x1="374.5" x2="641.5" y1="989.8047" y2="989.8047"/><text fill="#000000" font-family="sans-serif" font-size="13" font-weight="bold" lengthAdjust="spacing" textLength="14" x="386.5" y="984.9482">26</text><text fill="#000000" font-family="sans-serif" font-size="13" lengthAdjust="spacing" textLength="19" x="404.5" y="984.9482">agv</text><polygon fill="#A80036" points="88.5,1016.1563,78.5,1020.1563,88.5,1024.1563,84.5,1020.1563" style="stroke:#A80036;stroke-width:1.0;"/><line style="stroke:#A80036;stroke-width:1.0;stroke-dasharray:2.0,2.0;" x1="82.5" x2="363.5" y1="1020.1563" y2="1020.1563"/><text fill="#000000" font-family="sans-serif" font-size="13" font-weight="bold" lengthAdjust="spacing" textLength="14" x="94.5" y="1015.2998">27</text><text fill="#000000" font-family="sans-serif" font-size="13" lengthAdjust="spacing" textLength="145" x="112.5" y="1015.2998">informs operation sucess</text><!--MD5=[b9965c74509cb33fda3e18e133073d47]
@startuml
autonumber
actor "Warehouse Employee" as WE
participant "ConfigureAGVUI" as UI
participant "ConfigureAGVController" as CTR
participant "<<builder>> \nAGVBuilder" as BUILDER
participant "AGV" as AGV
participant ": PersistenceContext" as PERS <<persistence>>
participant ": RepositoryFactory" as FAC <<factory>>

database AGVRepository as REP <<repository>>

activate WE
WE -> UI : initiates the process of configuring an AGV
activate UI
UI -> CTR : create

UI -> CTR : validateData()
activate CTR
deactivate CTR
UI - -> WE : requests data (id, briefDescription, \nmodel, maxWeightCapacity, range)
deactivate UI
WE -> UI : type the requested data
activate UI
UI -> CTR : configureAGV(id, briefDescription, model,\n maxWeightCapacity, range)
activate CTR
CTR -> BUILDER : create
CTR -> BUILDER : withId(id)
CTR -> BUILDER : associateWithAGVDock()
CTR -> BUILDER : withBriefDescription(briefDescription)
CTR -> BUILDER : withModel(model)
CTR -> BUILDER : withWeight(weight)
CTR -> BUILDER : withMaxWeightCapacity(maxWeightCapacity)
CTR -> BUILDER : withRange(range)
CTR -> BUILDER : createAGV()
activate BUILDER
BUILDER -> AGV : createAGV(id, briefDescription, model,\n maxWeightCapacity, range)
AGV - -> BUILDER : agv
BUILDER - -> CTR : agv
deactivate BUILDER
CTR -> PERS : repoConfigureAGV = repositoryFactory
activate PERS
PERS -> FAC : create
PERS - -> CTR : factory
deactivate PERS
CTR -> FAC : agv()
activate FAC
FAC -> REP : create
activate REP
deactivate REP
FAC - -> CTR : agvRepository
deactivate FAC
CTR -> REP : save(AGV)
CTR -> UI : agv
deactivate CTR

UI - -> WE : informs operation sucess
deactivate UI

deactivate WE

@enduml

PlantUML version 1.2021.11(Sat Oct 02 14:26:11 BST 2021)
(GPL source distribution)
Java Runtime: OpenJDK Runtime Environment
JVM: OpenJDK 64-Bit Server VM
Default Encoding: Cp1252
Language: pt
Country: PT
--></g></svg>