<?xml version="1.0" encoding="UTF-8" standalone="no"?><svg xmlns="http://www.w3.org/2000/svg" xmlns:xlink="http://www.w3.org/1999/xlink" contentScriptType="application/ecmascript" contentStyleType="text/css" height="332px" preserveAspectRatio="none" style="width:406px;height:332px;background:#FFFFFF;" version="1.1" viewBox="0 0 406 332" width="406px" zoomAndPan="magnify"><defs><filter height="300%" id="f9iiwhyl2kz8d" width="300%" x="-1" y="-1"><feGaussianBlur result="blurOut" stdDeviation="2.0"/><feColorMatrix in="blurOut" result="blurOut2" type="matrix" values="0 0 0 0 0 0 0 0 0 0 0 0 0 0 0 0 0 0 .4 0"/><feOffset dx="4.0" dy="4.0" in="blurOut2" result="blurOut3"/><feBlend in="SourceGraphic" in2="blurOut3" mode="normal"/></filter></defs><g><rect fill="#FFFFFF" filter="url(#f9iiwhyl2kz8d)" height="129.7578" style="stroke:#A80036;stroke-width:1.0;" width="10" x="72.5" y="99.6094"/><rect fill="#FFFFFF" filter="url(#f9iiwhyl2kz8d)" height="46.7031" style="stroke:#A80036;stroke-width:1.0;" width="10" x="359.5" y="121.9609"/><rect fill="#FFFFFF" filter="url(#f9iiwhyl2kz8d)" height="30.3516" style="stroke:#A80036;stroke-width:1.0;" width="10" x="359.5" y="199.0156"/><line style="stroke:#A80036;stroke-width:1.0;stroke-dasharray:5.0,5.0;" x1="77" x2="77" y1="89.6094" y2="247.3672"/><line style="stroke:#A80036;stroke-width:1.0;stroke-dasharray:5.0,5.0;" x1="364.5" x2="364.5" y1="89.6094" y2="247.3672"/><text fill="#000000" font-family="sans-serif" font-size="14" lengthAdjust="spacing" textLength="139" x="5" y="86.5332">Warehouse Employee</text><ellipse cx="77.5" cy="15" fill="#FEFECE" filter="url(#f9iiwhyl2kz8d)" rx="8" ry="8" style="stroke:#A80036;stroke-width:2.0;"/><path d="M77.5,23 L77.5,50 M64.5,31 L90.5,31 M77.5,50 L64.5,65 M77.5,50 L90.5,65 " fill="none" filter="url(#f9iiwhyl2kz8d)" style="stroke:#A80036;stroke-width:2.0;"/><text fill="#000000" font-family="sans-serif" font-size="14" lengthAdjust="spacing" textLength="139" x="5" y="260.9004">Warehouse Employee</text><ellipse cx="77.5" cy="273.9766" fill="#FEFECE" filter="url(#f9iiwhyl2kz8d)" rx="8" ry="8" style="stroke:#A80036;stroke-width:2.0;"/><path d="M77.5,281.9766 L77.5,308.9766 M64.5,289.9766 L90.5,289.9766 M77.5,308.9766 L64.5,323.9766 M77.5,308.9766 L90.5,323.9766 " fill="none" filter="url(#f9iiwhyl2kz8d)" style="stroke:#A80036;stroke-width:2.0;"/><rect fill="#FEFECE" filter="url(#f9iiwhyl2kz8d)" height="31.6094" style="stroke:#A80036;stroke-width:1.5;" width="60" x="332.5" y="53"/><text fill="#000000" font-family="sans-serif" font-size="14" lengthAdjust="spacing" textLength="46" x="339.5" y="74.5332">System</text><rect fill="#FEFECE" filter="url(#f9iiwhyl2kz8d)" height="31.6094" style="stroke:#A80036;stroke-width:1.5;" width="60" x="332.5" y="246.3672"/><text fill="#000000" font-family="sans-serif" font-size="14" lengthAdjust="spacing" textLength="46" x="339.5" y="267.9004">System</text><rect fill="#FFFFFF" filter="url(#f9iiwhyl2kz8d)" height="129.7578" style="stroke:#A80036;stroke-width:1.0;" width="10" x="72.5" y="99.6094"/><rect fill="#FFFFFF" filter="url(#f9iiwhyl2kz8d)" height="46.7031" style="stroke:#A80036;stroke-width:1.0;" width="10" x="359.5" y="121.9609"/><rect fill="#FFFFFF" filter="url(#f9iiwhyl2kz8d)" height="30.3516" style="stroke:#A80036;stroke-width:1.0;" width="10" x="359.5" y="199.0156"/><polygon fill="#A80036" points="347.5,117.9609,357.5,121.9609,347.5,125.9609,351.5,121.9609" style="stroke:#A80036;stroke-width:1.0;"/><line style="stroke:#A80036;stroke-width:1.0;" x1="82.5" x2="353.5" y1="121.9609" y2="121.9609"/><text fill="#000000" font-family="sans-serif" font-size="13" font-weight="bold" lengthAdjust="spacing" textLength="7" x="89.5" y="117.1045">1</text><text fill="#000000" font-family="sans-serif" font-size="13" lengthAdjust="spacing" textLength="247" x="100.5" y="117.1045">initiates the process of configuring an AGV</text><polygon fill="#A80036" points="93.5,164.6641,83.5,168.6641,93.5,172.6641,89.5,168.6641" style="stroke:#A80036;stroke-width:1.0;"/><line style="stroke:#A80036;stroke-width:1.0;stroke-dasharray:2.0,2.0;" x1="87.5" x2="363.5" y1="168.6641" y2="168.6641"/><text fill="#000000" font-family="sans-serif" font-size="13" font-weight="bold" lengthAdjust="spacing" textLength="7" x="99.5" y="155.6318">2</text><text fill="#000000" font-family="sans-serif" font-size="13" lengthAdjust="spacing" textLength="241" x="110.5" y="147.4561">requests data (id, briefDescription, model,</text><text fill="#000000" font-family="sans-serif" font-size="13" lengthAdjust="spacing" textLength="161" x="114.5" y="163.8076">maxWeightCapacity, range)</text><polygon fill="#A80036" points="347.5,195.0156,357.5,199.0156,347.5,203.0156,351.5,199.0156" style="stroke:#A80036;stroke-width:1.0;"/><line style="stroke:#A80036;stroke-width:1.0;" x1="82.5" x2="353.5" y1="199.0156" y2="199.0156"/><text fill="#000000" font-family="sans-serif" font-size="13" font-weight="bold" lengthAdjust="spacing" textLength="7" x="89.5" y="194.1592">3</text><text fill="#000000" font-family="sans-serif" font-size="13" lengthAdjust="spacing" textLength="137" x="100.5" y="194.1592">type the requested data</text><polygon fill="#A80036" points="88.5,225.3672,78.5,229.3672,88.5,233.3672,84.5,229.3672" style="stroke:#A80036;stroke-width:1.0;"/><line style="stroke:#A80036;stroke-width:1.0;stroke-dasharray:2.0,2.0;" x1="82.5" x2="363.5" y1="229.3672" y2="229.3672"/><text fill="#000000" font-family="sans-serif" font-size="13" font-weight="bold" lengthAdjust="spacing" textLength="7" x="94.5" y="224.5107">4</text><text fill="#000000" font-family="sans-serif" font-size="13" lengthAdjust="spacing" textLength="145" x="105.5" y="224.5107">informs operation sucess</text><!--MD5=[3e4a35fa3be64544edbd5544c180ede5]
@startuml
autonumber
actor "Warehouse Employee" as WE
participant "System" as SYS

activate WE
WE -> SYS : initiates the process of configuring an AGV
activate SYS
SYS - -> WE : requests data (id, briefDescription, model,\n maxWeightCapacity, range)
deactivate SYS

WE -> SYS : type the requested data
activate SYS

SYS - -> WE : informs operation sucess
deactivate SYS

deactivate WE

@enduml

PlantUML version 1.2021.11(Sat Oct 02 14:26:11 BST 2021)
(GPL source distribution)
Java Runtime: OpenJDK Runtime Environment
JVM: OpenJDK 64-Bit Server VM
Default Encoding: Cp1252
Language: pt
Country: PT
--></g></svg>