<?xml version="1.0" encoding="UTF-8" standalone="no"?><svg xmlns="http://www.w3.org/2000/svg" xmlns:xlink="http://www.w3.org/1999/xlink" contentScriptType="application/ecmascript" contentStyleType="text/css" height="970px" preserveAspectRatio="none" style="width:982px;height:970px;background:#FFFFFF;" version="1.1" viewBox="0 0 982 970" width="982px" zoomAndPan="magnify"><defs><filter height="300%" id="f14nm6azjxpb5z" width="300%" x="-1" y="-1"><feGaussianBlur result="blurOut" stdDeviation="2.0"/><feColorMatrix in="blurOut" result="blurOut2" type="matrix" values="0 0 0 0 0 0 0 0 0 0 0 0 0 0 0 0 0 0 .4 0"/><feOffset dx="4.0" dy="4.0" in="blurOut2" result="blurOut3"/><feBlend in="SourceGraphic" in2="blurOut3" mode="normal"/></filter></defs><g><!--MD5=[866c9c75b5a90d402a17f81b82ed6e8c]
cluster <<aggregate>> Survey--><polygon fill="#FFFFFF" filter="url(#f14nm6azjxpb5z)" points="16,171,179,171,186,194.6094,737,194.6094,737,963,16,963,16,171" style="stroke:#000000;stroke-width:1.5;"/><line style="stroke:#000000;stroke-width:1.5;" x1="16" x2="186" y1="194.6094" y2="194.6094"/><text fill="#000000" font-family="sans-serif" font-size="14" font-weight="bold" lengthAdjust="spacing" textLength="157" x="20" y="187.5332">&lt;&lt;aggregate&gt;&gt; Survey</text><!--MD5=[19ece2f5f0b6cda009165ddd9ef17413]
cluster <<aggregate>> Notification--><polygon fill="#FFFFFF" filter="url(#f14nm6azjxpb5z)" points="761,336.5,955,336.5,962,360.1094,965,360.1094,965,451.5,761,451.5,761,336.5" style="stroke:#000000;stroke-width:1.5;"/><line style="stroke:#000000;stroke-width:1.5;" x1="761" x2="962" y1="360.1094" y2="360.1094"/><text fill="#000000" font-family="sans-serif" font-size="14" font-weight="bold" lengthAdjust="spacing" textLength="188" x="765" y="353.0332">&lt;&lt;aggregate&gt;&gt; Notification</text><!--MD5=[20e996825fabf2618e164db4892593a3]
cluster <<aggregate>> Client--><polygon fill="#FFFFFF" filter="url(#f14nm6azjxpb5z)" points="654,6,809,6,816,29.6094,819,29.6094,819,121,654,121,654,6" style="stroke:#000000;stroke-width:1.5;"/><line style="stroke:#000000;stroke-width:1.5;" x1="654" x2="816" y1="29.6094" y2="29.6094"/><text fill="#000000" font-family="sans-serif" font-size="14" font-weight="bold" lengthAdjust="spacing" textLength="149" x="658" y="22.5332">&lt;&lt;aggregate&gt;&gt; Client</text><!--MD5=[3145b4be7c5005b24cda6f18a1d594b0]
class Survey--><rect codeLine="21" fill="#F5F5DC" filter="url(#f14nm6azjxpb5z)" height="63.2813" id="Survey" style="stroke:#A80036;stroke-width:1.5;" width="71" x="512.5" y="207"/><ellipse cx="527.5" cy="234.6406" fill="#ADD1B2" rx="11" ry="11" style="stroke:#A80036;stroke-width:1.0;"/><path d="M526,235.6406 L526,237.6406 L530,237.6406 L530,236.6406 L530,236.1563 L530.625,235.6406 L531,235.6406 L531.375,235.6406 L532,236.1563 L532,236.6406 L532,239.6406 L524,239.6406 L523.5156,239.6406 L523,239.0156 L523,238.6406 L523,238.2656 L523.5156,237.6406 L524,237.6406 L524,237.6406 L524,231.6406 L524,231.6406 L523.5156,231.6406 L523,231.0156 L523,230.6406 L523,230.2656 L523.5156,229.6406 L524,229.6406 L532,229.6406 L532,232.6406 L532,233.125 L531.375,233.6406 L531,233.6406 L530.625,233.6406 L530,233.125 L530,232.6406 L530,231.6406 L526,231.6406 L526,233.6406 L527,233.6406 L527,233.1563 L527,233.1563 L527.625,232.6406 L528,232.6406 L528.375,232.6406 L529,233.1563 L529,233.6406 L529,235.6406 L529,236.125 L528.375,236.6406 L528.375,236.6406 L528,236.6406 L527.625,236.6406 L527,236.125 L527,236.125 L527,235.6406 L526,235.6406 Z " fill="#000000"/><text fill="#000000" font-family="sans-serif" font-size="12" font-style="italic" lengthAdjust="spacing" textLength="43" x="539.5" y="224.457">«entity»</text><text fill="#000000" font-family="sans-serif" font-size="12" font-style="italic" lengthAdjust="spacing" textLength="35" x="543.5" y="239.5508">«root»</text><text fill="#000000" font-family="sans-serif" font-size="12" lengthAdjust="spacing" textLength="36" x="543" y="254.6445">Survey</text><line style="stroke:#A80036;stroke-width:1.5;" x1="513.5" x2="582.5" y1="262.2813" y2="262.2813"/><!--MD5=[494e0bdb5c8bb794bcdf99253cad2029]
class AlphanumericCode--><rect codeLine="26" fill="#F5F5DC" filter="url(#f14nm6azjxpb5z)" height="48.1875" id="AlphanumericCode" style="stroke:#A80036;stroke-width:1.5;" width="138" x="32" y="380"/><ellipse cx="47" cy="400.0938" fill="#FF8B40" rx="11" ry="11" style="stroke:#A80036;stroke-width:1.0;"/><path d="M47,403.375 L48.5313,397.8438 L48.5313,397.8438 L48.0156,397.8438 L47.5,397.2188 L47.5,396.8438 L47.5,396.4688 L48.0156,395.8438 L48.5313,395.8438 L50.4063,395.8438 L50.9844,395.8438 L51.5,396.4688 L51.5,396.8438 L51.5,397.2188 L50.9844,397.8438 L50.9844,397.8438 L50.5313,397.8438 L48.1875,405.8438 L45.8125,405.8438 L43.3438,397.8438 L43.0156,397.8438 L43.0156,397.8438 L42.5,397.2188 L42.5,396.8438 L42.5,396.4688 L43.0156,395.8438 L43.5938,395.8438 L45.4688,395.8438 L45.9844,395.8438 L46.5,396.4688 L46.5,396.8438 L46.5,397.2188 L45.9844,397.8438 L45.4688,397.8438 L45.4688,397.8438 L47,403.375 Z " fill="#000000"/><text fill="#000000" font-family="sans-serif" font-size="12" font-style="italic" lengthAdjust="spacing" textLength="81" x="73.5" y="397.457">«value object»</text><text fill="#000000" font-family="sans-serif" font-size="12" lengthAdjust="spacing" textLength="106" x="61" y="412.5508">AlphanumericCode</text><line style="stroke:#A80036;stroke-width:1.5;" x1="33" x2="169" y1="420.1875" y2="420.1875"/><!--MD5=[009695af4e54f3bba8a9c60dca3e1c94]
class Description--><rect codeLine="27" fill="#F5F5DC" filter="url(#f14nm6azjxpb5z)" height="48.1875" id="Description" style="stroke:#A80036;stroke-width:1.5;" width="109" x="205.5" y="380"/><ellipse cx="220.5" cy="400.0938" fill="#FF8B40" rx="11" ry="11" style="stroke:#A80036;stroke-width:1.0;"/><path d="M220.5,403.375 L222.0313,397.8438 L222.0313,397.8438 L221.5156,397.8438 L221,397.2188 L221,396.8438 L221,396.4688 L221.5156,395.8438 L222.0313,395.8438 L223.9063,395.8438 L224.4844,395.8438 L225,396.4688 L225,396.8438 L225,397.2188 L224.4844,397.8438 L224.4844,397.8438 L224.0313,397.8438 L221.6875,405.8438 L219.3125,405.8438 L216.8438,397.8438 L216.5156,397.8438 L216.5156,397.8438 L216,397.2188 L216,396.8438 L216,396.4688 L216.5156,395.8438 L217.0938,395.8438 L218.9688,395.8438 L219.4844,395.8438 L220,396.4688 L220,396.8438 L220,397.2188 L219.4844,397.8438 L218.9688,397.8438 L218.9688,397.8438 L220.5,403.375 Z " fill="#000000"/><text fill="#000000" font-family="sans-serif" font-size="12" font-style="italic" lengthAdjust="spacing" textLength="81" x="232.5" y="397.457">«value object»</text><text fill="#000000" font-family="sans-serif" font-size="12" lengthAdjust="spacing" textLength="63" x="241.5" y="412.5508">Description</text><line style="stroke:#A80036;stroke-width:1.5;" x1="206.5" x2="313.5" y1="420.1875" y2="420.1875"/><!--MD5=[2555a5a46195b40631e16698a2ba5d47]
class Period--><rect codeLine="28" fill="#F5F5DC" filter="url(#f14nm6azjxpb5z)" height="97.6953" id="Period" style="stroke:#A80036;stroke-width:1.5;" width="109" x="349.5" y="355"/><ellipse cx="364.5" cy="375.0938" fill="#FF8B40" rx="11" ry="11" style="stroke:#A80036;stroke-width:1.0;"/><path d="M364.5,378.375 L366.0313,372.8438 L366.0313,372.8438 L365.5156,372.8438 L365,372.2188 L365,371.8438 L365,371.4688 L365.5156,370.8438 L366.0313,370.8438 L367.9063,370.8438 L368.4844,370.8438 L369,371.4688 L369,371.8438 L369,372.2188 L368.4844,372.8438 L368.4844,372.8438 L368.0313,372.8438 L365.6875,380.8438 L363.3125,380.8438 L360.8438,372.8438 L360.5156,372.8438 L360.5156,372.8438 L360,372.2188 L360,371.8438 L360,371.4688 L360.5156,370.8438 L361.0938,370.8438 L362.9688,370.8438 L363.4844,370.8438 L364,371.4688 L364,371.8438 L364,372.2188 L363.4844,372.8438 L362.9688,372.8438 L362.9688,372.8438 L364.5,378.375 Z " fill="#000000"/><text fill="#000000" font-family="sans-serif" font-size="12" font-style="italic" lengthAdjust="spacing" textLength="81" x="376.5" y="372.457">«value object»</text><text fill="#000000" font-family="sans-serif" font-size="12" lengthAdjust="spacing" textLength="36" x="399" y="387.5508">Period</text><line style="stroke:#A80036;stroke-width:1.5;" x1="350.5" x2="457.5" y1="395.1875" y2="395.1875"/><text fill="#000000" font-family="sans-serif" font-size="11" lengthAdjust="spacing" textLength="49" x="355.5" y="410.6064">-initialDate</text><text fill="#000000" font-family="sans-serif" font-size="11" lengthAdjust="spacing" textLength="46" x="355.5" y="424.4424">-finalDate</text><text fill="#000000" font-family="sans-serif" font-size="11" lengthAdjust="spacing" textLength="58" x="355.5" y="438.2783">-activeDays</text><line style="stroke:#A80036;stroke-width:1.5;" x1="350.5" x2="457.5" y1="444.6953" y2="444.6953"/><!--MD5=[4cf87534c235239d37db4adfd136fff4]
class Rule--><rect codeLine="33" fill="#F5F5DC" filter="url(#f14nm6azjxpb5z)" height="48.1875" id="Rule" style="stroke:#A80036;stroke-width:1.5;" width="109" x="493.5" y="380"/><ellipse cx="508.5" cy="400.0938" fill="#FF8B40" rx="11" ry="11" style="stroke:#A80036;stroke-width:1.0;"/><path d="M508.5,403.375 L510.0313,397.8438 L510.0313,397.8438 L509.5156,397.8438 L509,397.2188 L509,396.8438 L509,396.4688 L509.5156,395.8438 L510.0313,395.8438 L511.9063,395.8438 L512.4844,395.8438 L513,396.4688 L513,396.8438 L513,397.2188 L512.4844,397.8438 L512.4844,397.8438 L512.0313,397.8438 L509.6875,405.8438 L507.3125,405.8438 L504.8438,397.8438 L504.5156,397.8438 L504.5156,397.8438 L504,397.2188 L504,396.8438 L504,396.4688 L504.5156,395.8438 L505.0938,395.8438 L506.9688,395.8438 L507.4844,395.8438 L508,396.4688 L508,396.8438 L508,397.2188 L507.4844,397.8438 L506.9688,397.8438 L506.9688,397.8438 L508.5,403.375 Z " fill="#000000"/><text fill="#000000" font-family="sans-serif" font-size="12" font-style="italic" lengthAdjust="spacing" textLength="81" x="520.5" y="397.457">«value object»</text><text fill="#000000" font-family="sans-serif" font-size="12" lengthAdjust="spacing" textLength="26" x="548" y="412.5508">Rule</text><line style="stroke:#A80036;stroke-width:1.5;" x1="494.5" x2="601.5" y1="420.1875" y2="420.1875"/><!--MD5=[09a53695e98d4f26e7a054522080af08]
class Section--><rect codeLine="34" fill="#F5F5DC" filter="url(#f14nm6azjxpb5z)" height="111.5313" id="Section" style="stroke:#A80036;stroke-width:1.5;" width="83" x="637.5" y="348"/><ellipse cx="657" cy="368.0938" fill="#ADD1B2" rx="11" ry="11" style="stroke:#A80036;stroke-width:1.0;"/><path d="M655.5,369.0938 L655.5,371.0938 L659.5,371.0938 L659.5,370.0938 L659.5,369.6094 L660.125,369.0938 L660.5,369.0938 L660.875,369.0938 L661.5,369.6094 L661.5,370.0938 L661.5,373.0938 L653.5,373.0938 L653.0156,373.0938 L652.5,372.4688 L652.5,372.0938 L652.5,371.7188 L653.0156,371.0938 L653.5,371.0938 L653.5,371.0938 L653.5,365.0938 L653.5,365.0938 L653.0156,365.0938 L652.5,364.4688 L652.5,364.0938 L652.5,363.7188 L653.0156,363.0938 L653.5,363.0938 L661.5,363.0938 L661.5,366.0938 L661.5,366.5781 L660.875,367.0938 L660.5,367.0938 L660.125,367.0938 L659.5,366.5781 L659.5,366.0938 L659.5,365.0938 L655.5,365.0938 L655.5,367.0938 L656.5,367.0938 L656.5,366.6094 L656.5,366.6094 L657.125,366.0938 L657.5,366.0938 L657.875,366.0938 L658.5,366.6094 L658.5,367.0938 L658.5,369.0938 L658.5,369.5781 L657.875,370.0938 L657.875,370.0938 L657.5,370.0938 L657.125,370.0938 L656.5,369.5781 L656.5,369.5781 L656.5,369.0938 L655.5,369.0938 Z " fill="#000000"/><text fill="#000000" font-family="sans-serif" font-size="12" font-style="italic" lengthAdjust="spacing" textLength="43" x="671" y="365.457">«entity»</text><text fill="#000000" font-family="sans-serif" font-size="12" lengthAdjust="spacing" textLength="41" x="672" y="380.5508">Section</text><line style="stroke:#A80036;stroke-width:1.5;" x1="638.5" x2="719.5" y1="388.1875" y2="388.1875"/><text fill="#000000" font-family="sans-serif" font-size="11" lengthAdjust="spacing" textLength="12" x="643.5" y="403.6064">-id</text><text fill="#000000" font-family="sans-serif" font-size="11" lengthAdjust="spacing" textLength="57" x="643.5" y="417.4424">-description</text><text fill="#000000" font-family="sans-serif" font-size="11" lengthAdjust="spacing" textLength="71" x="643.5" y="431.2783">-obligatoriness</text><text fill="#000000" font-family="sans-serif" font-size="11" lengthAdjust="spacing" textLength="62" x="643.5" y="445.1143">-repeatability</text><line style="stroke:#A80036;stroke-width:1.5;" x1="638.5" x2="719.5" y1="451.5313" y2="451.5313"/><!--MD5=[fc7123defb831ecdd44b2d9bcef6cceb]
class Question--><rect codeLine="43" fill="#F5F5DC" filter="url(#f14nm6azjxpb5z)" height="111.5313" id="Question" style="stroke:#A80036;stroke-width:1.5;" width="83" x="348.5" y="600"/><ellipse cx="363.95" cy="620.0938" fill="#ADD1B2" rx="11" ry="11" style="stroke:#A80036;stroke-width:1.0;"/><path d="M362.45,621.0938 L362.45,623.0938 L366.45,623.0938 L366.45,622.0938 L366.45,621.6094 L367.075,621.0938 L367.45,621.0938 L367.825,621.0938 L368.45,621.6094 L368.45,622.0938 L368.45,625.0938 L360.45,625.0938 L359.9656,625.0938 L359.45,624.4688 L359.45,624.0938 L359.45,623.7188 L359.9656,623.0938 L360.45,623.0938 L360.45,623.0938 L360.45,617.0938 L360.45,617.0938 L359.9656,617.0938 L359.45,616.4688 L359.45,616.0938 L359.45,615.7188 L359.9656,615.0938 L360.45,615.0938 L368.45,615.0938 L368.45,618.0938 L368.45,618.5781 L367.825,619.0938 L367.45,619.0938 L367.075,619.0938 L366.45,618.5781 L366.45,618.0938 L366.45,617.0938 L362.45,617.0938 L362.45,619.0938 L363.45,619.0938 L363.45,618.6094 L363.45,618.6094 L364.075,618.0938 L364.45,618.0938 L364.825,618.0938 L365.45,618.6094 L365.45,619.0938 L365.45,621.0938 L365.45,621.5781 L364.825,622.0938 L364.825,622.0938 L364.45,622.0938 L364.075,622.0938 L363.45,621.5781 L363.45,621.5781 L363.45,621.0938 L362.45,621.0938 Z " fill="#000000"/><text fill="#000000" font-family="sans-serif" font-size="12" font-style="italic" lengthAdjust="spacing" textLength="43" x="381.55" y="617.457">«entity»</text><text fill="#000000" font-family="sans-serif" font-size="12" lengthAdjust="spacing" textLength="50" x="378.05" y="632.5508">Question</text><line style="stroke:#A80036;stroke-width:1.5;" x1="349.5" x2="430.5" y1="640.1875" y2="640.1875"/><text fill="#000000" font-family="sans-serif" font-size="11" lengthAdjust="spacing" textLength="12" x="354.5" y="655.6064">-id</text><text fill="#000000" font-family="sans-serif" font-size="11" lengthAdjust="spacing" textLength="51" x="354.5" y="669.4424">-statement</text><text fill="#000000" font-family="sans-serif" font-size="11" lengthAdjust="spacing" textLength="54" x="354.5" y="683.2783">-instruction</text><text fill="#000000" font-family="sans-serif" font-size="11" lengthAdjust="spacing" textLength="71" x="354.5" y="697.1143">-obligatoriness</text><line style="stroke:#A80036;stroke-width:1.5;" x1="349.5" x2="430.5" y1="703.5313" y2="703.5313"/><!--MD5=[948c5e7831c0eaf2f6105f40f3278a77]
class SectionTitle--><rect codeLine="41" fill="#F5F5DC" filter="url(#f14nm6azjxpb5z)" height="48.1875" id="SectionTitle" style="stroke:#A80036;stroke-width:1.5;" width="109" x="475.5" y="632"/><ellipse cx="490.5" cy="652.0938" fill="#FF8B40" rx="11" ry="11" style="stroke:#A80036;stroke-width:1.0;"/><path d="M490.5,655.375 L492.0313,649.8438 L492.0313,649.8438 L491.5156,649.8438 L491,649.2188 L491,648.8438 L491,648.4688 L491.5156,647.8438 L492.0313,647.8438 L493.9063,647.8438 L494.4844,647.8438 L495,648.4688 L495,648.8438 L495,649.2188 L494.4844,649.8438 L494.4844,649.8438 L494.0313,649.8438 L491.6875,657.8438 L489.3125,657.8438 L486.8438,649.8438 L486.5156,649.8438 L486.5156,649.8438 L486,649.2188 L486,648.8438 L486,648.4688 L486.5156,647.8438 L487.0938,647.8438 L488.9688,647.8438 L489.4844,647.8438 L490,648.4688 L490,648.8438 L490,649.2188 L489.4844,649.8438 L488.9688,649.8438 L488.9688,649.8438 L490.5,655.375 Z " fill="#000000"/><text fill="#000000" font-family="sans-serif" font-size="12" font-style="italic" lengthAdjust="spacing" textLength="81" x="502.5" y="649.457">«value object»</text><text fill="#000000" font-family="sans-serif" font-size="12" lengthAdjust="spacing" textLength="64" x="511" y="664.5508">SectionTitle</text><line style="stroke:#A80036;stroke-width:1.5;" x1="476.5" x2="583.5" y1="672.1875" y2="672.1875"/><!--MD5=[85ca87766313dadedb5918e4f4f973e4]
class MandatoryCondition--><rect codeLine="42" fill="#F5F5DC" filter="url(#f14nm6azjxpb5z)" height="48.1875" id="MandatoryCondition" style="stroke:#A80036;stroke-width:1.5;" width="141" x="398.5" y="899"/><ellipse cx="413.5" cy="919.0938" fill="#FF8B40" rx="11" ry="11" style="stroke:#A80036;stroke-width:1.0;"/><path d="M413.5,922.375 L415.0313,916.8438 L415.0313,916.8438 L414.5156,916.8438 L414,916.2188 L414,915.8438 L414,915.4688 L414.5156,914.8438 L415.0313,914.8438 L416.9063,914.8438 L417.4844,914.8438 L418,915.4688 L418,915.8438 L418,916.2188 L417.4844,916.8438 L417.4844,916.8438 L417.0313,916.8438 L414.6875,924.8438 L412.3125,924.8438 L409.8438,916.8438 L409.5156,916.8438 L409.5156,916.8438 L409,916.2188 L409,915.8438 L409,915.4688 L409.5156,914.8438 L410.0938,914.8438 L411.9688,914.8438 L412.4844,914.8438 L413,915.4688 L413,915.8438 L413,916.2188 L412.4844,916.8438 L411.9688,916.8438 L411.9688,916.8438 L413.5,922.375 Z " fill="#000000"/><text fill="#000000" font-family="sans-serif" font-size="12" font-style="italic" lengthAdjust="spacing" textLength="81" x="441.5" y="916.457">«value object»</text><text fill="#000000" font-family="sans-serif" font-size="12" lengthAdjust="spacing" textLength="109" x="427.5" y="931.5508">MandatoryCondition</text><line style="stroke:#A80036;stroke-width:1.5;" x1="399.5" x2="538.5" y1="939.1875" y2="939.1875"/><!--MD5=[4296a1ab0576a383a1a509d52c22ebf0]
class Type--><rect codeLine="51" fill="#F5F5DC" filter="url(#f14nm6azjxpb5z)" height="48.1875" id="Type" style="stroke:#A80036;stroke-width:1.5;" width="109" x="384.5" y="790"/><ellipse cx="399.5" cy="810.0938" fill="#FF8B40" rx="11" ry="11" style="stroke:#A80036;stroke-width:1.0;"/><path d="M399.5,813.375 L401.0313,807.8438 L401.0313,807.8438 L400.5156,807.8438 L400,807.2188 L400,806.8438 L400,806.4688 L400.5156,805.8438 L401.0313,805.8438 L402.9063,805.8438 L403.4844,805.8438 L404,806.4688 L404,806.8438 L404,807.2188 L403.4844,807.8438 L403.4844,807.8438 L403.0313,807.8438 L400.6875,815.8438 L398.3125,815.8438 L395.8438,807.8438 L395.5156,807.8438 L395.5156,807.8438 L395,807.2188 L395,806.8438 L395,806.4688 L395.5156,805.8438 L396.0938,805.8438 L397.9688,805.8438 L398.4844,805.8438 L399,806.4688 L399,806.8438 L399,807.2188 L398.4844,807.8438 L397.9688,807.8438 L397.9688,807.8438 L399.5,813.375 Z " fill="#000000"/><text fill="#000000" font-family="sans-serif" font-size="12" font-style="italic" lengthAdjust="spacing" textLength="81" x="411.5" y="807.457">«value object»</text><text fill="#000000" font-family="sans-serif" font-size="12" lengthAdjust="spacing" textLength="26" x="439" y="822.5508">Type</text><line style="stroke:#A80036;stroke-width:1.5;" x1="385.5" x2="492.5" y1="830.1875" y2="830.1875"/><!--MD5=[f9fadfa5a66b7e5a67b370cd443ffe52]
class Answer--><rect codeLine="49" fill="#F5F5DC" filter="url(#f14nm6azjxpb5z)" height="48.1875" id="Answer" style="stroke:#A80036;stroke-width:1.5;" width="73" x="528.5" y="790"/><ellipse cx="543.5" cy="810.0938" fill="#ADD1B2" rx="11" ry="11" style="stroke:#A80036;stroke-width:1.0;"/><path d="M542,811.0938 L542,813.0938 L546,813.0938 L546,812.0938 L546,811.6094 L546.625,811.0938 L547,811.0938 L547.375,811.0938 L548,811.6094 L548,812.0938 L548,815.0938 L540,815.0938 L539.5156,815.0938 L539,814.4688 L539,814.0938 L539,813.7188 L539.5156,813.0938 L540,813.0938 L540,813.0938 L540,807.0938 L540,807.0938 L539.5156,807.0938 L539,806.4688 L539,806.0938 L539,805.7188 L539.5156,805.0938 L540,805.0938 L548,805.0938 L548,808.0938 L548,808.5781 L547.375,809.0938 L547,809.0938 L546.625,809.0938 L546,808.5781 L546,808.0938 L546,807.0938 L542,807.0938 L542,809.0938 L543,809.0938 L543,808.6094 L543,808.6094 L543.625,808.0938 L544,808.0938 L544.375,808.0938 L545,808.6094 L545,809.0938 L545,811.0938 L545,811.5781 L544.375,812.0938 L544.375,812.0938 L544,812.0938 L543.625,812.0938 L543,811.5781 L543,811.5781 L543,811.0938 L542,811.0938 Z " fill="#000000"/><text fill="#000000" font-family="sans-serif" font-size="12" font-style="italic" lengthAdjust="spacing" textLength="43" x="556.5" y="807.457">«entity»</text><text fill="#000000" font-family="sans-serif" font-size="12" lengthAdjust="spacing" textLength="41" x="557.5" y="822.5508">Answer</text><line style="stroke:#A80036;stroke-width:1.5;" x1="529.5" x2="600.5" y1="830.1875" y2="830.1875"/><!--MD5=[76b5e19c9337179d2d7ae334371d68c8]
class Notification--><rect codeLine="69" fill="#F5F5DC" filter="url(#f14nm6azjxpb5z)" height="63.2813" id="Notification" style="stroke:#A80036;stroke-width:1.5;" width="93" x="777.5" y="372.5"/><ellipse cx="792.5" cy="400.1406" fill="#ADD1B2" rx="11" ry="11" style="stroke:#A80036;stroke-width:1.0;"/><path d="M791,401.1406 L791,403.1406 L795,403.1406 L795,402.1406 L795,401.6563 L795.625,401.1406 L796,401.1406 L796.375,401.1406 L797,401.6563 L797,402.1406 L797,405.1406 L789,405.1406 L788.5156,405.1406 L788,404.5156 L788,404.1406 L788,403.7656 L788.5156,403.1406 L789,403.1406 L789,403.1406 L789,397.1406 L789,397.1406 L788.5156,397.1406 L788,396.5156 L788,396.1406 L788,395.7656 L788.5156,395.1406 L789,395.1406 L797,395.1406 L797,398.1406 L797,398.625 L796.375,399.1406 L796,399.1406 L795.625,399.1406 L795,398.625 L795,398.1406 L795,397.1406 L791,397.1406 L791,399.1406 L792,399.1406 L792,398.6563 L792,398.6563 L792.625,398.1406 L793,398.1406 L793.375,398.1406 L794,398.6563 L794,399.1406 L794,401.1406 L794,401.625 L793.375,402.1406 L793.375,402.1406 L793,402.1406 L792.625,402.1406 L792,401.625 L792,401.625 L792,401.1406 L791,401.1406 Z " fill="#000000"/><text fill="#000000" font-family="sans-serif" font-size="12" font-style="italic" lengthAdjust="spacing" textLength="43" x="815.5" y="389.957">«entity»</text><text fill="#000000" font-family="sans-serif" font-size="12" font-style="italic" lengthAdjust="spacing" textLength="35" x="819.5" y="405.0508">«root»</text><text fill="#000000" font-family="sans-serif" font-size="12" lengthAdjust="spacing" textLength="61" x="806.5" y="420.1445">Notification</text><line style="stroke:#A80036;stroke-width:1.5;" x1="778.5" x2="869.5" y1="427.7813" y2="427.7813"/><!--MD5=[ed6624c6556d5e7b1bd23032162d20b7]
class Client--><rect codeLine="80" fill="#F5F5DC" filter="url(#f14nm6azjxpb5z)" height="63.2813" id="Client" style="stroke:#A80036;stroke-width:1.5;" width="71" x="700.5" y="42"/><ellipse cx="715.5" cy="69.6406" fill="#ADD1B2" rx="11" ry="11" style="stroke:#A80036;stroke-width:1.0;"/><path d="M714,70.6406 L714,72.6406 L718,72.6406 L718,71.6406 L718,71.1563 L718.625,70.6406 L719,70.6406 L719.375,70.6406 L720,71.1563 L720,71.6406 L720,74.6406 L712,74.6406 L711.5156,74.6406 L711,74.0156 L711,73.6406 L711,73.2656 L711.5156,72.6406 L712,72.6406 L712,72.6406 L712,66.6406 L712,66.6406 L711.5156,66.6406 L711,66.0156 L711,65.6406 L711,65.2656 L711.5156,64.6406 L712,64.6406 L720,64.6406 L720,67.6406 L720,68.125 L719.375,68.6406 L719,68.6406 L718.625,68.6406 L718,68.125 L718,67.6406 L718,66.6406 L714,66.6406 L714,68.6406 L715,68.6406 L715,68.1563 L715,68.1563 L715.625,67.6406 L716,67.6406 L716.375,67.6406 L717,68.1563 L717,68.6406 L717,70.6406 L717,71.125 L716.375,71.6406 L716.375,71.6406 L716,71.6406 L715.625,71.6406 L715,71.125 L715,71.125 L715,70.6406 L714,70.6406 Z " fill="#000000"/><text fill="#000000" font-family="sans-serif" font-size="12" font-style="italic" lengthAdjust="spacing" textLength="43" x="727.5" y="59.457">«entity»</text><text fill="#000000" font-family="sans-serif" font-size="12" font-style="italic" lengthAdjust="spacing" textLength="35" x="731.5" y="74.5508">«root»</text><text fill="#000000" font-family="sans-serif" font-size="12" lengthAdjust="spacing" textLength="32" x="733" y="89.6445">Client</text><line style="stroke:#A80036;stroke-width:1.5;" x1="701.5" x2="770.5" y1="97.2813" y2="97.2813"/><!--MD5=[5499c435bc16acea28ddc64681c74fbb]
link Survey to AlphanumericCode--><path codeLine="53" d="M512.5,241.56 C444.89,246.86 294.85,265.4 188,328.5 C165.71,341.66 143.6,360.7 127.25,376.23 " fill="none" id="Survey-to-AlphanumericCode" style="stroke:#222222;stroke-width:1.0;"/><polygon fill="#222222" points="123.64,379.69,132.9018,376.3405,127.2461,376.2265,127.3601,370.5707,123.64,379.69" style="stroke:#222222;stroke-width:1.0;"/><text fill="#000000" font-family="sans-serif" font-size="13" lengthAdjust="spacing" textLength="69" x="242" y="314.4951">identified by</text><text fill="#000000" font-family="sans-serif" font-size="13" lengthAdjust="spacing" textLength="7" x="121.3054" y="369.3295">1</text><!--MD5=[0b4debe2092e88b167a50a5f1b002e59]
link Survey to Description--><path codeLine="54" d="M512.35,247.6 C474.93,256.97 415.09,274.46 368,300 C350.06,309.73 347.12,314.8 332,328.5 C315.55,343.4 298.23,361.25 284.7,375.74 " fill="none" id="Survey-to-Description" style="stroke:#222222;stroke-width:1.0;"/><polygon fill="#222222" points="280.99,379.73,290.0476,375.8621,284.3944,376.0681,284.1885,370.415,280.99,379.73" style="stroke:#222222;stroke-width:1.0;"/><text fill="#000000" font-family="sans-serif" font-size="13" lengthAdjust="spacing" textLength="96" x="369" y="314.4951">characterized by</text><text fill="#000000" font-family="sans-serif" font-size="13" lengthAdjust="spacing" textLength="7" x="278.4718" y="368.977">1</text><!--MD5=[a8c0f4d6075942a4ab340055e1ada23e]
link Survey to Period--><path codeLine="55" d="M517.18,270.12 C507.95,279.55 497.92,290.06 489,300 C474.51,316.15 459.26,334.25 445.73,350.72 " fill="none" id="Survey-to-Period" style="stroke:#222222;stroke-width:1.0;"/><polygon fill="#222222" points="442.34,354.87,451.1278,350.4232,445.5,350.9951,444.928,345.3673,442.34,354.87" style="stroke:#222222;stroke-width:1.0;"/><text fill="#000000" font-family="sans-serif" font-size="13" lengthAdjust="spacing" textLength="49" x="490" y="314.4951">available</text><text fill="#000000" font-family="sans-serif" font-size="13" lengthAdjust="spacing" textLength="7" x="440.4571" y="344.0223">1</text><!--MD5=[7bfd49f25df5a9d19af7dbd28a494480]
link Survey to Rule--><path codeLine="56" d="M548,270.25 C548,300.21 548,345.38 548,374.53 " fill="none" id="Survey-to-Rule" style="stroke:#222222;stroke-width:1.0;"/><polygon fill="#222222" points="548,379.78,552,370.78,548,374.78,544,370.78,548,379.78" style="stroke:#222222;stroke-width:1.0;"/><text fill="#000000" font-family="sans-serif" font-size="13" lengthAdjust="spacing" textLength="64" x="549" y="314.4951">determined</text><text fill="#000000" font-family="sans-serif" font-size="13" lengthAdjust="spacing" textLength="7" x="540.1031" y="369.0398">1</text><!--MD5=[08f5806e336f712cdf08037e9415a76d]
link Survey to Section--><path codeLine="57" d="M583.76,265.97 C595.77,275.86 608.72,287.7 619,300 C629.95,313.09 640.07,328.44 648.76,343.23 " fill="none" id="Survey-to-Section" style="stroke:#222222;stroke-width:1.0;"/><polygon fill="#222222" points="651.41,347.8,650.3726,338.0059,648.9093,343.4703,643.445,342.007,651.41,347.8" style="stroke:#222222;stroke-width:1.0;"/><text fill="#000000" font-family="sans-serif" font-size="13" lengthAdjust="spacing" textLength="56" x="631" y="314.4951">organized</text><text fill="#000000" font-family="sans-serif" font-size="13" lengthAdjust="spacing" textLength="20" x="626.5938" y="337.122">1..*</text><!--MD5=[87fa8ff7d398728728a611d860795352]
link Section to Question--><path codeLine="58" d="M637.41,447.32 C631.81,451.93 625.94,456.29 620,460 C555.81,500.1 517.66,470.81 461,521 C438.64,540.8 422.16,569.37 410.73,595.04 " fill="none" id="Section-to-Question" style="stroke:#222222;stroke-width:1.0;"/><polygon fill="#222222" points="408.66,599.8,415.9244,593.1495,410.6588,595.2169,408.5915,589.9514,408.66,599.8" style="stroke:#222222;stroke-width:1.0;"/><text fill="#000000" font-family="sans-serif" font-size="13" lengthAdjust="spacing" textLength="78" x="462" y="535.4951">composed by</text><text fill="#000000" font-family="sans-serif" font-size="13" lengthAdjust="spacing" textLength="20" x="389.7696" y="589.122">1..*</text><!--MD5=[ddd149d3cd02b26f1f541f2ca7156634]
link Section to SectionTitle--><path codeLine="59" d="M637.32,444.08 C602.52,476.79 558.36,518.53 557,521 C538.63,554.24 532.68,598.29 530.8,626.64 " fill="none" id="Section-to-SectionTitle" style="stroke:#222222;stroke-width:1.0;"/><polygon fill="#222222" points="530.49,631.75,535.0218,623.0057,530.7895,626.759,527.0362,622.5266,530.49,631.75" style="stroke:#222222;stroke-width:1.0;"/><text fill="#000000" font-family="sans-serif" font-size="13" lengthAdjust="spacing" textLength="96" x="558" y="535.4951">characterized by</text><text fill="#000000" font-family="sans-serif" font-size="13" lengthAdjust="spacing" textLength="7" x="522.7187" y="621.0021">1</text><!--MD5=[d1bcfee18c22c660a2c5765cdd459525]
link Section to MandatoryCondition--><path codeLine="60" d="M686.01,460.04 C694.25,548.03 698.05,722.2 619,838 C600.94,864.45 571.68,883.48 543.76,896.67 " fill="none" id="Section-to-MandatoryCondition" style="stroke:#222222;stroke-width:1.0;"/><polygon fill="#222222" points="538.94,898.9,548.7876,898.7426,543.476,896.7965,545.4221,891.485,538.94,898.9" style="stroke:#222222;stroke-width:1.0;"/><text fill="#000000" font-family="sans-serif" font-size="13" lengthAdjust="spacing" textLength="60" x="689" y="661.4951">dependent</text><text fill="#000000" font-family="sans-serif" font-size="13" lengthAdjust="spacing" textLength="7" x="547.3043" y="888.991">1</text><!--MD5=[4765df7eb0ad81544909bcf2bc6aa8a7]
link Question to MandatoryCondition--><path codeLine="61" d="M348.29,697.13 C314.49,734.69 276.75,791.79 305,838 C324.48,869.87 360.31,890.14 393.52,902.76 " fill="none" id="Question-to-MandatoryCondition" style="stroke:#222222;stroke-width:1.0;"/><polygon fill="#222222" points="398.39,904.57,391.3239,897.7093,393.6973,902.8441,388.5625,905.2176,398.39,904.57" style="stroke:#222222;stroke-width:1.0;"/><text fill="#000000" font-family="sans-serif" font-size="13" lengthAdjust="spacing" textLength="60" x="306" y="819.4951">dependent</text><text fill="#000000" font-family="sans-serif" font-size="13" lengthAdjust="spacing" textLength="7" x="383.2842" y="899.1833">1</text><!--MD5=[e0fffaa13fbd595c085593598a8eda75]
link Question to Type--><path codeLine="62" d="M407.41,712.44 C415.12,736.98 423.86,764.79 430.18,784.93 " fill="none" id="Question-to-Type" style="stroke:#222222;stroke-width:1.0;"/><polygon fill="#222222" points="431.74,789.88,432.8568,780.0947,430.2405,785.1101,425.225,782.4939,431.74,789.88" style="stroke:#222222;stroke-width:1.0;"/><text fill="#000000" font-family="sans-serif" font-size="13" lengthAdjust="spacing" textLength="63" x="422" y="756.4951">associated</text><text fill="#000000" font-family="sans-serif" font-size="13" lengthAdjust="spacing" textLength="7" x="421.9828" y="779.1654">1</text><!--MD5=[6926d5174a3032b1dcc6c5d6f900c16b]
link Question to Answer--><path codeLine="64" d="M431.55,690.63 C457.85,711.97 487.99,736.56 494,742 C509.48,756 526.01,772.44 539.23,785.97 " fill="none" id="Question-to-Answer" style="stroke:#222222;stroke-width:1.0;"/><polygon fill="#222222" points="542.86,789.7,539.4548,780.4585,539.3748,786.1148,533.7185,786.0348,542.86,789.7" style="stroke:#222222;stroke-width:1.0;"/><text fill="#000000" font-family="sans-serif" font-size="13" lengthAdjust="spacing" textLength="21" x="513" y="756.4951">has</text><text fill="#000000" font-family="sans-serif" font-size="13" lengthAdjust="spacing" textLength="7" x="529.6103" y="779.342">1</text><!--MD5=[47b575f7780d942ae7d1ff9f238ea05e]
link Survey to Notification--><path codeLine="74" d="M583.68,251.58 C614.3,262.53 659.17,279.99 696,300 C715.5,310.6 719.44,314.93 737,328.5 C753.4,341.17 770.86,355.87 785.8,368.84 " fill="none" id="Survey-to-Notification" style="stroke:#222222;stroke-width:1.0;"/><polygon fill="#222222" points="789.95,372.46,785.7916,363.5321,786.18,369.1756,780.5365,369.564,789.95,372.46" style="stroke:#222222;stroke-width:1.0;"/><text fill="#000000" font-family="sans-serif" font-size="13" lengthAdjust="spacing" textLength="32" x="724" y="314.4951">emits</text><text fill="#000000" font-family="sans-serif" font-size="13" lengthAdjust="spacing" textLength="20" x="760.8647" y="361.8072">1..*</text><!--MD5=[3d2d5cdd8aa6df365188843f8b3f5700]
link Client to Notification--><path codeLine="84" d="M744.2,105.11 C760.54,166.12 797.09,302.56 814.47,367.43 " fill="none" id="Client-to-Notification" style="stroke:#222222;stroke-width:1.0;"/><polygon fill="#222222" points="815.79,372.35,817.3467,362.6249,814.507,367.5174,809.6145,364.6777,815.79,372.35" style="stroke:#222222;stroke-width:1.0;"/><text fill="#000000" font-family="sans-serif" font-size="13" lengthAdjust="spacing" textLength="40" x="788" y="243.9951">receive</text><text fill="#000000" font-family="sans-serif" font-size="13" lengthAdjust="spacing" textLength="20" x="792.0342" y="361.6746">1..*</text><!--MD5=[a19dd6ae985efbd490fb16e6de91b3a6]
link Client to Survey--><path codeLine="85" d="M700.64,105.16 C668.34,133.16 620.66,174.5 587.21,203.5 " fill="none" id="Client-to-Survey" style="stroke:#222222;stroke-width:1.0;"/><polygon fill="#222222" points="583.2,206.98,592.6189,204.1016,586.9761,203.7026,587.3751,198.0599,583.2,206.98" style="stroke:#222222;stroke-width:1.0;"/><text fill="#000000" font-family="sans-serif" font-size="13" lengthAdjust="spacing" textLength="48" x="659" y="151.4951">answers</text><text fill="#000000" font-family="sans-serif" font-size="13" lengthAdjust="spacing" textLength="20" x="568.3975" y="196.3314">1..*</text><!--MD5=[19af0534c6ea0cc0073af9bc804b5a1f]
@startuml

skinparam classAttributeIconSize 0
hide empty attributes
skinparam classBackgroundColor beige
skinparam ArrowColor #222222

package "<<aggregate>> Survey" {
    entity Survey
    class AlphanumericCode
    class Description
    class Period
    class Rule
    entity Section
    entity Question
    class SectionTitle
    class MandatoryCondition
    class Type
    entity Answer
}

entity Survey <<entity>> <<root>> {


}

class AlphanumericCode <<(V,#FF8B40) value object>>
class Description <<(V,#FF8B40) value object>>
class Period <<(V,#FF8B40) value object>> {
- initialDate
- finalDate
- activeDays
}
class Rule <<(V,#FF8B40) value object>>
entity Section <<entity>> {
- id
- description
- obligatoriness
- repeatability
}

class SectionTitle <<(V,#FF8B40) value object>>
class MandatoryCondition <<(V,#FF8B40) value object>>
entity Question <<entity>> {
- id
- statement
- instruction
- obligatoriness
}
entity Answer <<entity>> {
}
class Type <<(V,#FF8B40) value object>>

Survey - -> "1" AlphanumericCode : identified by
Survey - -> "1" Description : characterized by
Survey - -> "1" Period : available
Survey - -> "1" Rule : determined
Survey - -> "1..*" Section : organized
Section - - -> "1..*" Question: composed by
Section - - -> "1" SectionTitle: characterized by
Section - -> "1"  MandatoryCondition: dependent
Question - - -> "1" MandatoryCondition: dependent
Question - -> "1" Type: associated

Question - -> "1" Answer : has
package "<<aggregate>> Notification" {
    entity Notification
}

entity Notification <<entity>> <<root>> {


}

Survey - -> "1..*" Notification : emits

package "<<aggregate>> Client" {
    entity Client
}

entity Client <<entity>> <<root>> {

}

Client - -> "1..*" Notification : receive
Client - -> "1..*" Survey : answers


@enduml

PlantUML version 1.2022.1(Tue Feb 01 18:19:58 GMT 2022)
(GPL source distribution)
Java Runtime: OpenJDK Runtime Environment
JVM: Dynamic Code Evolution 64-Bit Server VM
Default Encoding: Cp1252
Language: pt
Country: PT
--></g></svg>