<?xml version="1.0" encoding="UTF-8" standalone="no"?><svg xmlns="http://www.w3.org/2000/svg" xmlns:xlink="http://www.w3.org/1999/xlink" contentScriptType="application/ecmascript" contentStyleType="text/css" height="640px" preserveAspectRatio="none" style="width:1029px;height:640px;background:#FFFFFF;" version="1.1" viewBox="0 0 1029 640" width="1029px" zoomAndPan="magnify"><defs><filter height="300%" id="feexfvunpwftz" width="300%" x="-1" y="-1"><feGaussianBlur result="blurOut" stdDeviation="2.0"/><feColorMatrix in="blurOut" result="blurOut2" type="matrix" values="0 0 0 0 0 0 0 0 0 0 0 0 0 0 0 0 0 0 .4 0"/><feOffset dx="4.0" dy="4.0" in="blurOut2" result="blurOut3"/><feBlend in="SourceGraphic" in2="blurOut3" mode="normal"/></filter></defs><g><!--MD5=[7f5af366000395c241dd25bd88118d72]
class ListOrdersBeingPreparedUI--><rect codeLine="3" fill="#FEFECE" filter="url(#feexfvunpwftz)" height="48" id="ListOrdersBeingPreparedUI" style="stroke:#A80036;stroke-width:1.5;" width="185" x="417" y="7"/><ellipse cx="432" cy="23" fill="#ADD1B2" rx="11" ry="11" style="stroke:#A80036;stroke-width:1.0;"/><path d="M434,19.5 Q434.2031,19 434.4375,18.75 Q434.6719,18.5 434.9375,18.5 Q435.4063,18.5 435.7031,18.7813 Q436,19.0625 436,19.7188 L436,21.2813 Q436,21.9375 435.7188,22.2188 Q435.4375,22.5 435,22.5 Q434.6094,22.5 434.3594,22.3281 Q434.1094,22.1563 434,21.7031 Q433.9531,21.3906 433.7813,21.2188 Q433.4688,20.8906 432.9063,20.7031 Q432.3438,20.5 431.7813,20.5 Q431.0781,20.5 430.4844,20.7813 Q429.9063,21.0625 429.4531,21.6875 Q429,22.3125 429,23.1719 L429,24.0938 Q429,25.125 429.8438,25.8125 Q430.6875,26.5 432.1875,26.5 Q433.0781,26.5 433.7031,26.2969 Q434.0625,26.1875 434.4688,25.8281 Q434.7344,25.625 434.875,25.5625 Q435.0156,25.5 435.1875,25.5 Q435.5156,25.5 435.75,25.7656 Q436,26.0156 436,26.375 Q436,26.7188 435.6563,27.125 Q435.1563,27.7188 434.3594,28.0469 Q433.3125,28.5 432.0313,28.5 Q430.5313,28.5 429.3281,27.9063 Q428.3594,27.4375 427.6719,26.4219 Q427,25.4063 427,24.2031 L427,23.1094 Q427,21.8594 427.5938,20.7656 Q428.2031,19.6719 429.25,19.0938 Q430.3125,18.5 431.5,18.5 Q432.2188,18.5 432.8438,18.75 Q433.4688,19 434,19.5 Z " fill="#000000"/><text fill="#000000" font-family="sans-serif" font-size="12" lengthAdjust="spacing" textLength="153" x="446" y="27.9102">ListOrdersBeingPreparedUI</text><line style="stroke:#A80036;stroke-width:1.5;" x1="418" x2="601" y1="39" y2="39"/><line style="stroke:#A80036;stroke-width:1.5;" x1="418" x2="601" y1="47" y2="47"/><!--MD5=[40a630573605cc0d2e1b5967b1fe1512]
class ListOrdersBeingPreparedController--><rect codeLine="38" fill="#FEFECE" filter="url(#feexfvunpwftz)" height="89.5078" id="ListOrdersBeingPreparedController" style="stroke:#A80036;stroke-width:1.5;" width="394" x="312.5" y="115"/><ellipse cx="407.75" cy="131" fill="#ADD1B2" rx="11" ry="11" style="stroke:#A80036;stroke-width:1.0;"/><path d="M409.75,127.5 Q409.9531,127 410.1875,126.75 Q410.4219,126.5 410.6875,126.5 Q411.1563,126.5 411.4531,126.7813 Q411.75,127.0625 411.75,127.7188 L411.75,129.2813 Q411.75,129.9375 411.4688,130.2188 Q411.1875,130.5 410.75,130.5 Q410.3594,130.5 410.1094,130.3281 Q409.8594,130.1563 409.75,129.7031 Q409.7031,129.3906 409.5313,129.2188 Q409.2188,128.8906 408.6563,128.7031 Q408.0938,128.5 407.5313,128.5 Q406.8281,128.5 406.2344,128.7813 Q405.6563,129.0625 405.2031,129.6875 Q404.75,130.3125 404.75,131.1719 L404.75,132.0938 Q404.75,133.125 405.5938,133.8125 Q406.4375,134.5 407.9375,134.5 Q408.8281,134.5 409.4531,134.2969 Q409.8125,134.1875 410.2188,133.8281 Q410.4844,133.625 410.625,133.5625 Q410.7656,133.5 410.9375,133.5 Q411.2656,133.5 411.5,133.7656 Q411.75,134.0156 411.75,134.375 Q411.75,134.7188 411.4063,135.125 Q410.9063,135.7188 410.1094,136.0469 Q409.0625,136.5 407.7813,136.5 Q406.2813,136.5 405.0781,135.9063 Q404.1094,135.4375 403.4219,134.4219 Q402.75,133.4063 402.75,132.2031 L402.75,131.1094 Q402.75,129.8594 403.3438,128.7656 Q403.9531,127.6719 405,127.0938 Q406.0625,126.5 407.25,126.5 Q407.9688,126.5 408.5938,126.75 Q409.2188,127 409.75,127.5 Z " fill="#000000"/><text fill="#000000" font-family="sans-serif" font-size="12" lengthAdjust="spacing" textLength="195" x="428.25" y="135.9102">ListOrdersBeingPreparedController</text><line style="stroke:#A80036;stroke-width:1.5;" x1="313.5" x2="705.5" y1="147" y2="147"/><line style="stroke:#A80036;stroke-width:1.5;" x1="313.5" x2="705.5" y1="155" y2="155"/><ellipse cx="323.5" cy="166" fill="#84BE84" rx="3" ry="3" style="stroke:#038048;stroke-width:1.0;"/><text fill="#000000" font-family="sans-serif" font-size="11" lengthAdjust="spacing" textLength="95" x="332.5" y="170.4189">getAGVsAvaiable()</text><ellipse cx="323.5" cy="179.8359" fill="#84BE84" rx="3" ry="3" style="stroke:#038048;stroke-width:1.0;"/><text fill="#000000" font-family="sans-serif" font-size="11" lengthAdjust="spacing" textLength="322" x="332.5" y="184.2549">getOrdersWhoNeedToBePreparedByAGV(idAGV, taskDescription)</text><ellipse cx="323.5" cy="193.6719" fill="#84BE84" rx="3" ry="3" style="stroke:#038048;stroke-width:1.0;"/><text fill="#000000" font-family="sans-serif" font-size="11" lengthAdjust="spacing" textLength="368" x="332.5" y="198.0908">changeTheStatusOfOrdersForDispatchedToCustomer(listOfOrdersSelected)</text><!--MD5=[53b2c06ade5903185ca3326dce80e141]
class AGV--><rect codeLine="33" fill="#FEFECE" filter="url(#feexfvunpwftz)" height="89.5078" id="AGV" style="stroke:#A80036;stroke-width:1.5;" width="274" x="741.5" y="115"/><ellipse cx="862.75" cy="131" fill="#ADD1B2" rx="11" ry="11" style="stroke:#A80036;stroke-width:1.0;"/><path d="M864.75,127.5 Q864.9531,127 865.1875,126.75 Q865.4219,126.5 865.6875,126.5 Q866.1563,126.5 866.4531,126.7813 Q866.75,127.0625 866.75,127.7188 L866.75,129.2813 Q866.75,129.9375 866.4688,130.2188 Q866.1875,130.5 865.75,130.5 Q865.3594,130.5 865.1094,130.3281 Q864.8594,130.1563 864.75,129.7031 Q864.7031,129.3906 864.5313,129.2188 Q864.2188,128.8906 863.6563,128.7031 Q863.0938,128.5 862.5313,128.5 Q861.8281,128.5 861.2344,128.7813 Q860.6563,129.0625 860.2031,129.6875 Q859.75,130.3125 859.75,131.1719 L859.75,132.0938 Q859.75,133.125 860.5938,133.8125 Q861.4375,134.5 862.9375,134.5 Q863.8281,134.5 864.4531,134.2969 Q864.8125,134.1875 865.2188,133.8281 Q865.4844,133.625 865.625,133.5625 Q865.7656,133.5 865.9375,133.5 Q866.2656,133.5 866.5,133.7656 Q866.75,134.0156 866.75,134.375 Q866.75,134.7188 866.4063,135.125 Q865.9063,135.7188 865.1094,136.0469 Q864.0625,136.5 862.7813,136.5 Q861.2813,136.5 860.0781,135.9063 Q859.1094,135.4375 858.4219,134.4219 Q857.75,133.4063 857.75,132.2031 L857.75,131.1094 Q857.75,129.8594 858.3438,128.7656 Q858.9531,127.6719 860,127.0938 Q861.0625,126.5 862.25,126.5 Q862.9688,126.5 863.5938,126.75 Q864.2188,127 864.75,127.5 Z " fill="#000000"/><text fill="#000000" font-family="sans-serif" font-size="12" lengthAdjust="spacing" textLength="23" x="883.25" y="135.9102">AGV</text><line style="stroke:#A80036;stroke-width:1.5;" x1="742.5" x2="1014.5" y1="147" y2="147"/><line style="stroke:#A80036;stroke-width:1.5;" x1="742.5" x2="1014.5" y1="155" y2="155"/><ellipse cx="752.5" cy="166" fill="#84BE84" rx="3" ry="3" style="stroke:#038048;stroke-width:1.0;"/><text fill="#000000" font-family="sans-serif" font-size="11" lengthAdjust="spacing" textLength="173" x="761.5" y="170.4189">changeStatusOfAGVForOccupied()</text><ellipse cx="752.5" cy="179.8359" fill="#84BE84" rx="3" ry="3" style="stroke:#038048;stroke-width:1.0;"/><text fill="#000000" font-family="sans-serif" font-size="11" lengthAdjust="spacing" textLength="248" x="761.5" y="184.2549">addOrdersToATask(taskDescription, productOrder)</text><ellipse cx="752.5" cy="193.6719" fill="#84BE84" rx="3" ry="3" style="stroke:#038048;stroke-width:1.0;"/><text fill="#000000" font-family="sans-serif" font-size="11" lengthAdjust="spacing" textLength="149" x="761.5" y="198.0908">changeStatusOfAGVForFree()</text><!--MD5=[529d3a023cdac506d4f0a83ea48e48d1]
class AGVTask--><rect codeLine="45" fill="#FEFECE" filter="url(#feexfvunpwftz)" height="61.8359" id="AGVTask" style="stroke:#A80036;stroke-width:1.5;" width="211" x="773" y="279"/><ellipse cx="849.25" cy="295" fill="#ADD1B2" rx="11" ry="11" style="stroke:#A80036;stroke-width:1.0;"/><path d="M851.25,291.5 Q851.4531,291 851.6875,290.75 Q851.9219,290.5 852.1875,290.5 Q852.6563,290.5 852.9531,290.7813 Q853.25,291.0625 853.25,291.7188 L853.25,293.2813 Q853.25,293.9375 852.9688,294.2188 Q852.6875,294.5 852.25,294.5 Q851.8594,294.5 851.6094,294.3281 Q851.3594,294.1563 851.25,293.7031 Q851.2031,293.3906 851.0313,293.2188 Q850.7188,292.8906 850.1563,292.7031 Q849.5938,292.5 849.0313,292.5 Q848.3281,292.5 847.7344,292.7813 Q847.1563,293.0625 846.7031,293.6875 Q846.25,294.3125 846.25,295.1719 L846.25,296.0938 Q846.25,297.125 847.0938,297.8125 Q847.9375,298.5 849.4375,298.5 Q850.3281,298.5 850.9531,298.2969 Q851.3125,298.1875 851.7188,297.8281 Q851.9844,297.625 852.125,297.5625 Q852.2656,297.5 852.4375,297.5 Q852.7656,297.5 853,297.7656 Q853.25,298.0156 853.25,298.375 Q853.25,298.7188 852.9063,299.125 Q852.4063,299.7188 851.6094,300.0469 Q850.5625,300.5 849.2813,300.5 Q847.7813,300.5 846.5781,299.9063 Q845.6094,299.4375 844.9219,298.4219 Q844.25,297.4063 844.25,296.2031 L844.25,295.1094 Q844.25,293.8594 844.8438,292.7656 Q845.4531,291.6719 846.5,291.0938 Q847.5625,290.5 848.75,290.5 Q849.4688,290.5 850.0938,290.75 Q850.7188,291 851.25,291.5 Z " fill="#000000"/><text fill="#000000" font-family="sans-serif" font-size="12" lengthAdjust="spacing" textLength="50" x="869.75" y="299.9102">AGVTask</text><line style="stroke:#A80036;stroke-width:1.5;" x1="774" x2="983" y1="311" y2="311"/><line style="stroke:#A80036;stroke-width:1.5;" x1="774" x2="983" y1="319" y2="319"/><ellipse cx="784" cy="330" fill="#84BE84" rx="3" ry="3" style="stroke:#038048;stroke-width:1.0;"/><text fill="#000000" font-family="sans-serif" font-size="11" lengthAdjust="spacing" textLength="185" x="793" y="334.4189">assignATaskForAGV(taskDescription)</text><!--MD5=[9265192601ae3d68217fc2a2ce1ea439]
class ProductOrder--><rect codeLine="25" fill="#FEFECE" filter="url(#feexfvunpwftz)" height="89.5078" id="ProductOrder" style="stroke:#A80036;stroke-width:1.5;" width="275" x="7" y="265"/><ellipse cx="103.75" cy="281" fill="#ADD1B2" rx="11" ry="11" style="stroke:#A80036;stroke-width:1.0;"/><path d="M105.75,277.5 Q105.9531,277 106.1875,276.75 Q106.4219,276.5 106.6875,276.5 Q107.1563,276.5 107.4531,276.7813 Q107.75,277.0625 107.75,277.7188 L107.75,279.2813 Q107.75,279.9375 107.4688,280.2188 Q107.1875,280.5 106.75,280.5 Q106.3594,280.5 106.1094,280.3281 Q105.8594,280.1563 105.75,279.7031 Q105.7031,279.3906 105.5313,279.2188 Q105.2188,278.8906 104.6563,278.7031 Q104.0938,278.5 103.5313,278.5 Q102.8281,278.5 102.2344,278.7813 Q101.6563,279.0625 101.2031,279.6875 Q100.75,280.3125 100.75,281.1719 L100.75,282.0938 Q100.75,283.125 101.5938,283.8125 Q102.4375,284.5 103.9375,284.5 Q104.8281,284.5 105.4531,284.2969 Q105.8125,284.1875 106.2188,283.8281 Q106.4844,283.625 106.625,283.5625 Q106.7656,283.5 106.9375,283.5 Q107.2656,283.5 107.5,283.7656 Q107.75,284.0156 107.75,284.375 Q107.75,284.7188 107.4063,285.125 Q106.9063,285.7188 106.1094,286.0469 Q105.0625,286.5 103.7813,286.5 Q102.2813,286.5 101.0781,285.9063 Q100.1094,285.4375 99.4219,284.4219 Q98.75,283.4063 98.75,282.2031 L98.75,281.1094 Q98.75,279.8594 99.3438,278.7656 Q99.9531,277.6719 101,277.0938 Q102.0625,276.5 103.25,276.5 Q103.9688,276.5 104.5938,276.75 Q105.2188,277 105.75,277.5 Z " fill="#000000"/><text fill="#000000" font-family="sans-serif" font-size="12" lengthAdjust="spacing" textLength="73" x="124.25" y="285.9102">ProductOrder</text><line style="stroke:#A80036;stroke-width:1.5;" x1="8" x2="281" y1="297" y2="297"/><line style="stroke:#A80036;stroke-width:1.5;" x1="8" x2="281" y1="305" y2="305"/><ellipse cx="18" cy="316" fill="#84BE84" rx="3" ry="3" style="stroke:#038048;stroke-width:1.0;"/><text fill="#000000" font-family="sans-serif" font-size="11" lengthAdjust="spacing" textLength="249" x="27" y="320.4189">changeStatusOfOrderToBeingPreparedByAnAGV()</text><ellipse cx="18" cy="329.8359" fill="#84BE84" rx="3" ry="3" style="stroke:#038048;stroke-width:1.0;"/><text fill="#000000" font-family="sans-serif" font-size="11" lengthAdjust="spacing" textLength="106" x="27" y="334.2549">getOrderById(orderId)</text><ellipse cx="18" cy="343.6719" fill="#84BE84" rx="3" ry="3" style="stroke:#038048;stroke-width:1.0;"/><text fill="#000000" font-family="sans-serif" font-size="11" lengthAdjust="spacing" textLength="199" x="27" y="348.0908">changeStatusToDispatchedToCustomer()</text><!--MD5=[e8c189551b7885b999ad7cefb30fc2a3]
class PersistenceContext--><rect codeLine="60" fill="#FEFECE" filter="url(#feexfvunpwftz)" height="61.8359" id="PersistenceContext" style="stroke:#A80036;stroke-width:1.5;" width="139" x="317" y="279"/><ellipse cx="332" cy="295" fill="#ADD1B2" rx="11" ry="11" style="stroke:#A80036;stroke-width:1.0;"/><path d="M334,291.5 Q334.2031,291 334.4375,290.75 Q334.6719,290.5 334.9375,290.5 Q335.4063,290.5 335.7031,290.7813 Q336,291.0625 336,291.7188 L336,293.2813 Q336,293.9375 335.7188,294.2188 Q335.4375,294.5 335,294.5 Q334.6094,294.5 334.3594,294.3281 Q334.1094,294.1563 334,293.7031 Q333.9531,293.3906 333.7813,293.2188 Q333.4688,292.8906 332.9063,292.7031 Q332.3438,292.5 331.7813,292.5 Q331.0781,292.5 330.4844,292.7813 Q329.9063,293.0625 329.4531,293.6875 Q329,294.3125 329,295.1719 L329,296.0938 Q329,297.125 329.8438,297.8125 Q330.6875,298.5 332.1875,298.5 Q333.0781,298.5 333.7031,298.2969 Q334.0625,298.1875 334.4688,297.8281 Q334.7344,297.625 334.875,297.5625 Q335.0156,297.5 335.1875,297.5 Q335.5156,297.5 335.75,297.7656 Q336,298.0156 336,298.375 Q336,298.7188 335.6563,299.125 Q335.1563,299.7188 334.3594,300.0469 Q333.3125,300.5 332.0313,300.5 Q330.5313,300.5 329.3281,299.9063 Q328.3594,299.4375 327.6719,298.4219 Q327,297.4063 327,296.2031 L327,295.1094 Q327,293.8594 327.5938,292.7656 Q328.2031,291.6719 329.25,291.0938 Q330.3125,290.5 331.5,290.5 Q332.2188,290.5 332.8438,290.75 Q333.4688,291 334,291.5 Z " fill="#000000"/><text fill="#000000" font-family="sans-serif" font-size="12" lengthAdjust="spacing" textLength="107" x="346" y="299.9102">PersistenceContext</text><line style="stroke:#A80036;stroke-width:1.5;" x1="318" x2="455" y1="311" y2="311"/><line style="stroke:#A80036;stroke-width:1.5;" x1="318" x2="455" y1="319" y2="319"/><ellipse cx="328" cy="330" fill="#84BE84" rx="3" ry="3" style="stroke:#038048;stroke-width:1.0;"/><text fill="#000000" font-family="sans-serif" font-size="11" lengthAdjust="spacing" textLength="65" x="337" y="334.4189">repositories()</text><!--MD5=[48590afff58a68e2fcba47824d6f8a11]
class RepositoryFactory--><rect codeLine="64" fill="#FEFECE" filter="url(#feexfvunpwftz)" height="75.6719" id="RepositoryFactory" style="stroke:#A80036;stroke-width:1.5;" width="130" x="321.5" y="422"/><ellipse cx="336.5" cy="438" fill="#ADD1B2" rx="11" ry="11" style="stroke:#A80036;stroke-width:1.0;"/><path d="M338.5,434.5 Q338.7031,434 338.9375,433.75 Q339.1719,433.5 339.4375,433.5 Q339.9063,433.5 340.2031,433.7813 Q340.5,434.0625 340.5,434.7188 L340.5,436.2813 Q340.5,436.9375 340.2188,437.2188 Q339.9375,437.5 339.5,437.5 Q339.1094,437.5 338.8594,437.3281 Q338.6094,437.1563 338.5,436.7031 Q338.4531,436.3906 338.2813,436.2188 Q337.9688,435.8906 337.4063,435.7031 Q336.8438,435.5 336.2813,435.5 Q335.5781,435.5 334.9844,435.7813 Q334.4063,436.0625 333.9531,436.6875 Q333.5,437.3125 333.5,438.1719 L333.5,439.0938 Q333.5,440.125 334.3438,440.8125 Q335.1875,441.5 336.6875,441.5 Q337.5781,441.5 338.2031,441.2969 Q338.5625,441.1875 338.9688,440.8281 Q339.2344,440.625 339.375,440.5625 Q339.5156,440.5 339.6875,440.5 Q340.0156,440.5 340.25,440.7656 Q340.5,441.0156 340.5,441.375 Q340.5,441.7188 340.1563,442.125 Q339.6563,442.7188 338.8594,443.0469 Q337.8125,443.5 336.5313,443.5 Q335.0313,443.5 333.8281,442.9063 Q332.8594,442.4375 332.1719,441.4219 Q331.5,440.4063 331.5,439.2031 L331.5,438.1094 Q331.5,436.8594 332.0938,435.7656 Q332.7031,434.6719 333.75,434.0938 Q334.8125,433.5 336,433.5 Q336.7188,433.5 337.3438,433.75 Q337.9688,434 338.5,434.5 Z " fill="#000000"/><text fill="#000000" font-family="sans-serif" font-size="12" lengthAdjust="spacing" textLength="98" x="350.5" y="442.9102">RepositoryFactory</text><line style="stroke:#A80036;stroke-width:1.5;" x1="322.5" x2="450.5" y1="454" y2="454"/><line style="stroke:#A80036;stroke-width:1.5;" x1="322.5" x2="450.5" y1="462" y2="462"/><ellipse cx="332.5" cy="473" fill="#84BE84" rx="3" ry="3" style="stroke:#038048;stroke-width:1.0;"/><text fill="#000000" font-family="sans-serif" font-size="11" lengthAdjust="spacing" textLength="103" x="341.5" y="477.4189">getOrderRepository()</text><ellipse cx="332.5" cy="486.8359" fill="#84BE84" rx="3" ry="3" style="stroke:#038048;stroke-width:1.0;"/><text fill="#000000" font-family="sans-serif" font-size="11" lengthAdjust="spacing" textLength="99" x="341.5" y="491.2549">getAGVRepository()</text><!--MD5=[a2934c79e3adc781b0cd87c74812aba5]
class AGVRepository--><rect codeLine="49" fill="#FEFECE" filter="url(#feexfvunpwftz)" height="89.5078" id="AGVRepository" style="stroke:#A80036;stroke-width:1.5;" width="121" x="487" y="415"/><ellipse cx="505.15" cy="431" fill="#ADD1B2" rx="11" ry="11" style="stroke:#A80036;stroke-width:1.0;"/><path d="M507.15,427.5 Q507.3531,427 507.5875,426.75 Q507.8219,426.5 508.0875,426.5 Q508.5563,426.5 508.8531,426.7813 Q509.15,427.0625 509.15,427.7188 L509.15,429.2813 Q509.15,429.9375 508.8688,430.2188 Q508.5875,430.5 508.15,430.5 Q507.7594,430.5 507.5094,430.3281 Q507.2594,430.1563 507.15,429.7031 Q507.1031,429.3906 506.9313,429.2188 Q506.6188,428.8906 506.0563,428.7031 Q505.4938,428.5 504.9313,428.5 Q504.2281,428.5 503.6344,428.7813 Q503.0563,429.0625 502.6031,429.6875 Q502.15,430.3125 502.15,431.1719 L502.15,432.0938 Q502.15,433.125 502.9938,433.8125 Q503.8375,434.5 505.3375,434.5 Q506.2281,434.5 506.8531,434.2969 Q507.2125,434.1875 507.6188,433.8281 Q507.8844,433.625 508.025,433.5625 Q508.1656,433.5 508.3375,433.5 Q508.6656,433.5 508.9,433.7656 Q509.15,434.0156 509.15,434.375 Q509.15,434.7188 508.8063,435.125 Q508.3063,435.7188 507.5094,436.0469 Q506.4625,436.5 505.1813,436.5 Q503.6813,436.5 502.4781,435.9063 Q501.5094,435.4375 500.8219,434.4219 Q500.15,433.4063 500.15,432.2031 L500.15,431.1094 Q500.15,429.8594 500.7438,428.7656 Q501.3531,427.6719 502.4,427.0938 Q503.4625,426.5 504.65,426.5 Q505.3688,426.5 505.9938,426.75 Q506.6188,427 507.15,427.5 Z " fill="#000000"/><text fill="#000000" font-family="sans-serif" font-size="12" lengthAdjust="spacing" textLength="82" x="519.85" y="435.9102">AGVRepository</text><line style="stroke:#A80036;stroke-width:1.5;" x1="488" x2="607" y1="447" y2="447"/><ellipse cx="498" cy="458" fill="none" rx="3" ry="3" style="stroke:#038048;stroke-width:1.0;"/><text fill="#000000" font-family="sans-serif" font-size="11" lengthAdjust="spacing" textLength="60" x="507" y="462.4189">getAGVById</text><line style="stroke:#A80036;stroke-width:1.5;" x1="488" x2="607" y1="468.8359" y2="468.8359"/><ellipse cx="498" cy="479.8359" fill="#84BE84" rx="3" ry="3" style="stroke:#038048;stroke-width:1.0;"/><text fill="#000000" font-family="sans-serif" font-size="11" lengthAdjust="spacing" textLength="95" x="507" y="484.2549">getAGVsAvaiable()</text><ellipse cx="498" cy="493.6719" fill="#84BE84" rx="3" ry="3" style="stroke:#038048;stroke-width:1.0;"/><text fill="#000000" font-family="sans-serif" font-size="11" lengthAdjust="spacing" textLength="50" x="507" y="498.0908">save(agv)</text><!--MD5=[bd7ae71472438d91a1e396970731067c]
class ProductOrderRepository--><rect codeLine="56" fill="#FEFECE" filter="url(#feexfvunpwftz)" height="61.8359" id="ProductOrderRepository" style="stroke:#A80036;stroke-width:1.5;" width="164" x="304.5" y="565"/><ellipse cx="319.5" cy="581" fill="#ADD1B2" rx="11" ry="11" style="stroke:#A80036;stroke-width:1.0;"/><path d="M321.5,577.5 Q321.7031,577 321.9375,576.75 Q322.1719,576.5 322.4375,576.5 Q322.9063,576.5 323.2031,576.7813 Q323.5,577.0625 323.5,577.7188 L323.5,579.2813 Q323.5,579.9375 323.2188,580.2188 Q322.9375,580.5 322.5,580.5 Q322.1094,580.5 321.8594,580.3281 Q321.6094,580.1563 321.5,579.7031 Q321.4531,579.3906 321.2813,579.2188 Q320.9688,578.8906 320.4063,578.7031 Q319.8438,578.5 319.2813,578.5 Q318.5781,578.5 317.9844,578.7813 Q317.4063,579.0625 316.9531,579.6875 Q316.5,580.3125 316.5,581.1719 L316.5,582.0938 Q316.5,583.125 317.3438,583.8125 Q318.1875,584.5 319.6875,584.5 Q320.5781,584.5 321.2031,584.2969 Q321.5625,584.1875 321.9688,583.8281 Q322.2344,583.625 322.375,583.5625 Q322.5156,583.5 322.6875,583.5 Q323.0156,583.5 323.25,583.7656 Q323.5,584.0156 323.5,584.375 Q323.5,584.7188 323.1563,585.125 Q322.6563,585.7188 321.8594,586.0469 Q320.8125,586.5 319.5313,586.5 Q318.0313,586.5 316.8281,585.9063 Q315.8594,585.4375 315.1719,584.4219 Q314.5,583.4063 314.5,582.2031 L314.5,581.1094 Q314.5,579.8594 315.0938,578.7656 Q315.7031,577.6719 316.75,577.0938 Q317.8125,576.5 319,576.5 Q319.7188,576.5 320.3438,576.75 Q320.9688,577 321.5,577.5 Z " fill="#000000"/><text fill="#000000" font-family="sans-serif" font-size="12" lengthAdjust="spacing" textLength="132" x="333.5" y="585.9102">ProductOrderRepository</text><line style="stroke:#A80036;stroke-width:1.5;" x1="305.5" x2="467.5" y1="597" y2="597"/><line style="stroke:#A80036;stroke-width:1.5;" x1="305.5" x2="467.5" y1="605" y2="605"/><ellipse cx="315.5" cy="616" fill="#84BE84" rx="3" ry="3" style="stroke:#038048;stroke-width:1.0;"/><text fill="#000000" font-family="sans-serif" font-size="11" lengthAdjust="spacing" textLength="97" x="324.5" y="620.4189">save(productOrder)</text><!--MD5=[d4fc3196c96370c8425865003eea3718]
class AgvDto--><rect codeLine="20" fill="#FEFECE" filter="url(#feexfvunpwftz)" height="61.8359" id="AgvDto" style="stroke:#A80036;stroke-width:1.5;" width="70" x="491.5" y="279"/><ellipse cx="506.5" cy="295" fill="#ADD1B2" rx="11" ry="11" style="stroke:#A80036;stroke-width:1.0;"/><path d="M508.5,291.5 Q508.7031,291 508.9375,290.75 Q509.1719,290.5 509.4375,290.5 Q509.9063,290.5 510.2031,290.7813 Q510.5,291.0625 510.5,291.7188 L510.5,293.2813 Q510.5,293.9375 510.2188,294.2188 Q509.9375,294.5 509.5,294.5 Q509.1094,294.5 508.8594,294.3281 Q508.6094,294.1563 508.5,293.7031 Q508.4531,293.3906 508.2813,293.2188 Q507.9688,292.8906 507.4063,292.7031 Q506.8438,292.5 506.2813,292.5 Q505.5781,292.5 504.9844,292.7813 Q504.4063,293.0625 503.9531,293.6875 Q503.5,294.3125 503.5,295.1719 L503.5,296.0938 Q503.5,297.125 504.3438,297.8125 Q505.1875,298.5 506.6875,298.5 Q507.5781,298.5 508.2031,298.2969 Q508.5625,298.1875 508.9688,297.8281 Q509.2344,297.625 509.375,297.5625 Q509.5156,297.5 509.6875,297.5 Q510.0156,297.5 510.25,297.7656 Q510.5,298.0156 510.5,298.375 Q510.5,298.7188 510.1563,299.125 Q509.6563,299.7188 508.8594,300.0469 Q507.8125,300.5 506.5313,300.5 Q505.0313,300.5 503.8281,299.9063 Q502.8594,299.4375 502.1719,298.4219 Q501.5,297.4063 501.5,296.2031 L501.5,295.1094 Q501.5,293.8594 502.0938,292.7656 Q502.7031,291.6719 503.75,291.0938 Q504.8125,290.5 506,290.5 Q506.7188,290.5 507.3438,290.75 Q507.9688,291 508.5,291.5 Z " fill="#000000"/><text fill="#000000" font-family="sans-serif" font-size="12" lengthAdjust="spacing" textLength="38" x="520.5" y="299.9102">AgvDto</text><line style="stroke:#A80036;stroke-width:1.5;" x1="492.5" x2="560.5" y1="311" y2="311"/><line style="stroke:#A80036;stroke-width:1.5;" x1="492.5" x2="560.5" y1="319" y2="319"/><ellipse cx="502.5" cy="330" fill="#84BE84" rx="3" ry="3" style="stroke:#038048;stroke-width:1.0;"/><text fill="#000000" font-family="sans-serif" font-size="11" lengthAdjust="spacing" textLength="33" x="511.5" y="334.4189">toDto()</text><!--MD5=[d30f56537e47c2baf5e1b8cae118de4e]
class ProductOrderDto--><rect codeLine="16" fill="#FEFECE" filter="url(#feexfvunpwftz)" height="61.8359" id="ProductOrderDto" style="stroke:#A80036;stroke-width:1.5;" width="124" x="596.5" y="279"/><ellipse cx="611.5" cy="295" fill="#ADD1B2" rx="11" ry="11" style="stroke:#A80036;stroke-width:1.0;"/><path d="M613.5,291.5 Q613.7031,291 613.9375,290.75 Q614.1719,290.5 614.4375,290.5 Q614.9063,290.5 615.2031,290.7813 Q615.5,291.0625 615.5,291.7188 L615.5,293.2813 Q615.5,293.9375 615.2188,294.2188 Q614.9375,294.5 614.5,294.5 Q614.1094,294.5 613.8594,294.3281 Q613.6094,294.1563 613.5,293.7031 Q613.4531,293.3906 613.2813,293.2188 Q612.9688,292.8906 612.4063,292.7031 Q611.8438,292.5 611.2813,292.5 Q610.5781,292.5 609.9844,292.7813 Q609.4063,293.0625 608.9531,293.6875 Q608.5,294.3125 608.5,295.1719 L608.5,296.0938 Q608.5,297.125 609.3438,297.8125 Q610.1875,298.5 611.6875,298.5 Q612.5781,298.5 613.2031,298.2969 Q613.5625,298.1875 613.9688,297.8281 Q614.2344,297.625 614.375,297.5625 Q614.5156,297.5 614.6875,297.5 Q615.0156,297.5 615.25,297.7656 Q615.5,298.0156 615.5,298.375 Q615.5,298.7188 615.1563,299.125 Q614.6563,299.7188 613.8594,300.0469 Q612.8125,300.5 611.5313,300.5 Q610.0313,300.5 608.8281,299.9063 Q607.8594,299.4375 607.1719,298.4219 Q606.5,297.4063 606.5,296.2031 L606.5,295.1094 Q606.5,293.8594 607.0938,292.7656 Q607.7031,291.6719 608.75,291.0938 Q609.8125,290.5 611,290.5 Q611.7188,290.5 612.3438,290.75 Q612.9688,291 613.5,291.5 Z " fill="#000000"/><text fill="#000000" font-family="sans-serif" font-size="12" lengthAdjust="spacing" textLength="92" x="625.5" y="299.9102">ProductOrderDto</text><line style="stroke:#A80036;stroke-width:1.5;" x1="597.5" x2="719.5" y1="311" y2="311"/><line style="stroke:#A80036;stroke-width:1.5;" x1="597.5" x2="719.5" y1="319" y2="319"/><ellipse cx="607.5" cy="330" fill="#84BE84" rx="3" ry="3" style="stroke:#038048;stroke-width:1.0;"/><text fill="#000000" font-family="sans-serif" font-size="11" lengthAdjust="spacing" textLength="33" x="616.5" y="334.4189">toDto()</text><!--MD5=[674ae41ea5e223f4bfe426cc9816afb6]
link ListOrdersBeingPreparedUI to ListOrdersBeingPreparedController--><path codeLine="71" d="M509.5,55.29 C509.5,70.48 509.5,90.88 509.5,109.56 " fill="none" id="ListOrdersBeingPreparedUI-to-ListOrdersBeingPreparedController" style="stroke:#A80036;stroke-width:1.0;stroke-dasharray:7.0,7.0;"/><polygon fill="#A80036" points="509.5,114.78,513.5,105.78,509.5,109.78,505.5,105.78,509.5,114.78" style="stroke:#A80036;stroke-width:1.0;"/><!--MD5=[c265b31b160240f646ec8e99db6fc1f0]
link ListOrdersBeingPreparedController to PersistenceContext--><path codeLine="72" d="M472.93,205 C454.34,227.37 432.09,254.14 414.83,274.92 " fill="none" id="ListOrdersBeingPreparedController-to-PersistenceContext" style="stroke:#A80036;stroke-width:1.0;stroke-dasharray:7.0,7.0;"/><polygon fill="#A80036" points="411.44,278.99,420.273,274.6335,414.6395,275.1477,414.1253,269.5143,411.44,278.99" style="stroke:#A80036;stroke-width:1.0;"/><!--MD5=[754b775031405e096442b27febffa290]
link PersistenceContext to RepositoryFactory--><path codeLine="73" d="M386.5,341.31 C386.5,363.1 386.5,392.76 386.5,416.86 " fill="none" id="PersistenceContext-to-RepositoryFactory" style="stroke:#A80036;stroke-width:1.0;stroke-dasharray:7.0,7.0;"/><polygon fill="#A80036" points="386.5,421.91,390.5,412.91,386.5,416.91,382.5,412.91,386.5,421.91" style="stroke:#A80036;stroke-width:1.0;"/><!--MD5=[d05eaea78b8765320ad56e3795dd7d42]
link RepositoryFactory to AGVRepository--><path codeLine="74" d="M451.59,460 C461.59,460 471.58,460 481.58,460 " fill="none" id="RepositoryFactory-to-AGVRepository" style="stroke:#A80036;stroke-width:1.0;"/><polygon fill="#A80036" points="486.81,460,477.81,456,481.81,460,477.81,464,486.81,460" style="stroke:#A80036;stroke-width:1.0;"/><!--MD5=[96e9cbc266da12541d92a41249a1d1e8]
link RepositoryFactory to ProductOrderRepository--><path codeLine="75" d="M386.5,498.33 C386.5,517.44 386.5,540.59 386.5,559.44 " fill="none" id="RepositoryFactory-to-ProductOrderRepository" style="stroke:#A80036;stroke-width:1.0;"/><polygon fill="#A80036" points="386.5,564.64,390.5,555.64,386.5,559.64,382.5,555.64,386.5,564.64" style="stroke:#A80036;stroke-width:1.0;"/><!--MD5=[6c5694dc087c67e128b56eacd1b2a2ee]
link ListOrdersBeingPreparedController to AGV--><path codeLine="76" d="M706.61,160 C716.43,160 726.24,160 736.06,160 " fill="none" id="ListOrdersBeingPreparedController-to-AGV" style="stroke:#A80036;stroke-width:1.0;"/><polygon fill="#A80036" points="741.19,160,732.19,156,736.19,160,732.19,164,741.19,160" style="stroke:#A80036;stroke-width:1.0;"/><!--MD5=[d55b04aafae4ecb0dcc1251e2492309a]
link ListOrdersBeingPreparedController to ProductOrder--><path codeLine="77" d="M400.98,205 C355.87,223.29 303.52,244.52 257.91,263.01 " fill="none" id="ListOrdersBeingPreparedController-to-ProductOrder" style="stroke:#A80036;stroke-width:1.0;"/><polygon fill="#A80036" points="253.24,264.91,263.084,265.2187,257.8705,263.0235,260.0656,257.81,253.24,264.91" style="stroke:#A80036;stroke-width:1.0;"/><!--MD5=[6df205c85b5f33c8d427fd455753ef9d]
link AGV to AGVTask--><path codeLine="78" d="M878.5,205 C878.5,227 878.5,253.25 878.5,273.87 " fill="none" id="AGV-to-AGVTask" style="stroke:#A80036;stroke-width:1.0;"/><polygon fill="#A80036" points="878.5,278.99,882.5,269.99,878.5,273.99,874.5,269.99,878.5,278.99" style="stroke:#A80036;stroke-width:1.0;"/><!--MD5=[a22ea51c346a22d4016c699f0e580df8]
link ListOrdersBeingPreparedController to AgvDto--><path codeLine="80" d="M514.55,205 C517.08,227 520.1,253.25 522.47,273.87 " fill="none" id="ListOrdersBeingPreparedController-to-AgvDto" style="stroke:#A80036;stroke-width:1.0;"/><polygon fill="#A80036" points="523.05,278.99,525.9961,269.5921,522.479,274.0227,518.0484,270.5056,523.05,278.99" style="stroke:#A80036;stroke-width:1.0;"/><!--MD5=[41cba0529d6e55dff4b13d3f32a4f222]
link ListOrdersBeingPreparedController to ProductOrderDto--><path codeLine="81" d="M553.8,205 C576.51,227.56 603.72,254.59 624.71,275.43 " fill="none" id="ListOrdersBeingPreparedController-to-ProductOrderDto" style="stroke:#A80036;stroke-width:1.0;"/><polygon fill="#A80036" points="628.29,278.99,624.6988,269.8192,624.7331,275.476,619.0764,275.5102,628.29,278.99" style="stroke:#A80036;stroke-width:1.0;"/><!--MD5=[ebae164449185345ada8529e3548f3e2]
@startuml
'https://plantuml.com/sequence-diagram

class ListOrdersBeingPreparedUI
class ListOrdersBeingPreparedController
class AGV
class AGVTask
class ProductOrder
class PersistenceContext
class RepositoryFactory
class AGVRepository
class ProductOrderRepository
class AgvDto
class ProductOrderDto


class ProductOrderDto {
    + toDto()
}

class AgvDto {
    + toDto()

}

class ProductOrder {

    + changeStatusOfOrderToBeingPreparedByAnAGV()
    + getOrderById(orderId)
    + changeStatusToDispatchedToCustomer()

}

class AGV {
    + changeStatusOfAGVForOccupied()
    + addOrdersToATask(taskDescription, productOrder)
    + changeStatusOfAGVForFree()
}
class ListOrdersBeingPreparedController {
    + getAGVsAvaiable()
    + getOrdersWhoNeedToBePreparedByAGV(idAGV, taskDescription)
    + changeTheStatusOfOrdersForDispatchedToCustomer(listOfOrdersSelected)

}

class AGVTask {
    + assignATaskForAGV(taskDescription)
}

class AGVRepository {
    + getAGVsAvaiable()
    + getAGVById
    + save(agv)
}


class ProductOrderRepository {
    + save(productOrder)
}

class PersistenceContext {
    + repositories()
}

class RepositoryFactory{

    + getOrderRepository()
    + getAGVRepository()
}


ListOrdersBeingPreparedUI ..> ListOrdersBeingPreparedController
ListOrdersBeingPreparedController ..> PersistenceContext
PersistenceContext ..> RepositoryFactory
RepositoryFactory -> AGVRepository
RepositoryFactory - -> ProductOrderRepository
ListOrdersBeingPreparedController -> AGV
ListOrdersBeingPreparedController - -> ProductOrder
AGV - -> AGVTask

ListOrdersBeingPreparedController - -> AgvDto
ListOrdersBeingPreparedController - -> ProductOrderDto

@enduml

@startuml

class ListOrdersBeingPreparedUI
class ListOrdersBeingPreparedController
class AGV
class AGVTask
class ProductOrder
class PersistenceContext
class RepositoryFactory
class AGVRepository
class ProductOrderRepository
class AgvDto
class ProductOrderDto


class ProductOrderDto {
    + toDto()
}

class AgvDto {
    + toDto()

}

class ProductOrder {

    + changeStatusOfOrderToBeingPreparedByAnAGV()
    + getOrderById(orderId)
    + changeStatusToDispatchedToCustomer()

}

class AGV {
    + changeStatusOfAGVForOccupied()
    + addOrdersToATask(taskDescription, productOrder)
    + changeStatusOfAGVForFree()
}
class ListOrdersBeingPreparedController {
    + getAGVsAvaiable()
    + getOrdersWhoNeedToBePreparedByAGV(idAGV, taskDescription)
    + changeTheStatusOfOrdersForDispatchedToCustomer(listOfOrdersSelected)

}

class AGVTask {
    + assignATaskForAGV(taskDescription)
}

class AGVRepository {
    + getAGVsAvaiable()
    + getAGVById
    + save(agv)
}


class ProductOrderRepository {
    + save(productOrder)
}

class PersistenceContext {
    + repositories()
}

class RepositoryFactory{

    + getOrderRepository()
    + getAGVRepository()
}


ListOrdersBeingPreparedUI ..> ListOrdersBeingPreparedController
ListOrdersBeingPreparedController ..> PersistenceContext
PersistenceContext ..> RepositoryFactory
RepositoryFactory -> AGVRepository
RepositoryFactory - -> ProductOrderRepository
ListOrdersBeingPreparedController -> AGV
ListOrdersBeingPreparedController - -> ProductOrder
AGV - -> AGVTask

ListOrdersBeingPreparedController - -> AgvDto
ListOrdersBeingPreparedController - -> ProductOrderDto

@enduml

PlantUML version 1.2022.1(Tue Feb 01 18:19:58 GMT 2022)
(GPL source distribution)
Java Runtime: OpenJDK Runtime Environment
JVM: OpenJDK 64-Bit Server VM
Default Encoding: Cp1252
Language: pt
Country: BR
--></g></svg>