<?xml version="1.0" encoding="UTF-8" standalone="no"?><svg xmlns="http://www.w3.org/2000/svg" xmlns:xlink="http://www.w3.org/1999/xlink" contentScriptType="application/ecmascript" contentStyleType="text/css" height="584px" preserveAspectRatio="none" style="width:872px;height:584px;background:#FFFFFF;" version="1.1" viewBox="0 0 872 584" width="872px" zoomAndPan="magnify"><defs><filter height="300%" id="f196ovu3nu2v3z" width="300%" x="-1" y="-1"><feGaussianBlur result="blurOut" stdDeviation="2.0"/><feColorMatrix in="blurOut" result="blurOut2" type="matrix" values="0 0 0 0 0 0 0 0 0 0 0 0 0 0 0 0 0 0 .4 0"/><feOffset dx="4.0" dy="4.0" in="blurOut2" result="blurOut3"/><feBlend in="SourceGraphic" in2="blurOut3" mode="normal"/></filter></defs><g><!--MD5=[7f5af366000395c241dd25bd88118d72]
class ListOrdersBeingPreparedUI--><rect codeLine="3" fill="#FEFECE" filter="url(#f196ovu3nu2v3z)" height="48" id="ListOrdersBeingPreparedUI" style="stroke:#A80036;stroke-width:1.5;" width="185" x="149.5" y="7"/><ellipse cx="164.5" cy="23" fill="#ADD1B2" rx="11" ry="11" style="stroke:#A80036;stroke-width:1.0;"/><path d="M166.5,19.5 Q166.7031,19 166.9375,18.75 Q167.1719,18.5 167.4375,18.5 Q167.9063,18.5 168.2031,18.7813 Q168.5,19.0625 168.5,19.7188 L168.5,21.2813 Q168.5,21.9375 168.2188,22.2188 Q167.9375,22.5 167.5,22.5 Q167.1094,22.5 166.8594,22.3281 Q166.6094,22.1563 166.5,21.7031 Q166.4531,21.3906 166.2813,21.2188 Q165.9688,20.8906 165.4063,20.7031 Q164.8438,20.5 164.2813,20.5 Q163.5781,20.5 162.9844,20.7813 Q162.4063,21.0625 161.9531,21.6875 Q161.5,22.3125 161.5,23.1719 L161.5,24.0938 Q161.5,25.125 162.3438,25.8125 Q163.1875,26.5 164.6875,26.5 Q165.5781,26.5 166.2031,26.2969 Q166.5625,26.1875 166.9688,25.8281 Q167.2344,25.625 167.375,25.5625 Q167.5156,25.5 167.6875,25.5 Q168.0156,25.5 168.25,25.7656 Q168.5,26.0156 168.5,26.375 Q168.5,26.7188 168.1563,27.125 Q167.6563,27.7188 166.8594,28.0469 Q165.8125,28.5 164.5313,28.5 Q163.0313,28.5 161.8281,27.9063 Q160.8594,27.4375 160.1719,26.4219 Q159.5,25.4063 159.5,24.2031 L159.5,23.1094 Q159.5,21.8594 160.0938,20.7656 Q160.7031,19.6719 161.75,19.0938 Q162.8125,18.5 164,18.5 Q164.7188,18.5 165.3438,18.75 Q165.9688,19 166.5,19.5 Z " fill="#000000"/><text fill="#000000" font-family="sans-serif" font-size="12" lengthAdjust="spacing" textLength="153" x="178.5" y="27.9102">ListOrdersBeingPreparedUI</text><line style="stroke:#A80036;stroke-width:1.5;" x1="150.5" x2="333.5" y1="39" y2="39"/><line style="stroke:#A80036;stroke-width:1.5;" x1="150.5" x2="333.5" y1="47" y2="47"/><!--MD5=[40a630573605cc0d2e1b5967b1fe1512]
class ListOrdersBeingPreparedController--><rect codeLine="11" fill="#FEFECE" filter="url(#f196ovu3nu2v3z)" height="75.6719" id="ListOrdersBeingPreparedController" style="stroke:#A80036;stroke-width:1.5;" width="236" x="124" y="115"/><ellipse cx="143.05" cy="131" fill="#ADD1B2" rx="11" ry="11" style="stroke:#A80036;stroke-width:1.0;"/><path d="M145.05,127.5 Q145.2531,127 145.4875,126.75 Q145.7219,126.5 145.9875,126.5 Q146.4563,126.5 146.7531,126.7813 Q147.05,127.0625 147.05,127.7188 L147.05,129.2813 Q147.05,129.9375 146.7688,130.2188 Q146.4875,130.5 146.05,130.5 Q145.6594,130.5 145.4094,130.3281 Q145.1594,130.1563 145.05,129.7031 Q145.0031,129.3906 144.8313,129.2188 Q144.5188,128.8906 143.9563,128.7031 Q143.3938,128.5 142.8313,128.5 Q142.1281,128.5 141.5344,128.7813 Q140.9563,129.0625 140.5031,129.6875 Q140.05,130.3125 140.05,131.1719 L140.05,132.0938 Q140.05,133.125 140.8938,133.8125 Q141.7375,134.5 143.2375,134.5 Q144.1281,134.5 144.7531,134.2969 Q145.1125,134.1875 145.5188,133.8281 Q145.7844,133.625 145.925,133.5625 Q146.0656,133.5 146.2375,133.5 Q146.5656,133.5 146.8,133.7656 Q147.05,134.0156 147.05,134.375 Q147.05,134.7188 146.7063,135.125 Q146.2063,135.7188 145.4094,136.0469 Q144.3625,136.5 143.0813,136.5 Q141.5813,136.5 140.3781,135.9063 Q139.4094,135.4375 138.7219,134.4219 Q138.05,133.4063 138.05,132.2031 L138.05,131.1094 Q138.05,129.8594 138.6438,128.7656 Q139.2531,127.6719 140.3,127.0938 Q141.3625,126.5 142.55,126.5 Q143.2688,126.5 143.8938,126.75 Q144.5188,127 145.05,127.5 Z " fill="#000000"/><text fill="#000000" font-family="sans-serif" font-size="12" lengthAdjust="spacing" textLength="195" x="157.95" y="135.9102">ListOrdersBeingPreparedController</text><line style="stroke:#A80036;stroke-width:1.5;" x1="125" x2="359" y1="147" y2="147"/><line style="stroke:#A80036;stroke-width:1.5;" x1="125" x2="359" y1="155" y2="155"/><rect fill="#F24D5C" height="6" style="stroke:#C82930;stroke-width:1.0;" width="6" x="132" y="163"/><text fill="#000000" font-family="sans-serif" font-size="11" lengthAdjust="spacing" textLength="95" x="144" y="170.4189">getAGVsAvaiable()</text><rect fill="#F24D5C" height="6" style="stroke:#C82930;stroke-width:1.0;" width="6" x="132" y="176.8359"/><text fill="#000000" font-family="sans-serif" font-size="11" lengthAdjust="spacing" textLength="210" x="144" y="184.2549">getOrdersWhoNeedToBePreparedByAGV()</text><!--MD5=[529d3a023cdac506d4f0a83ea48e48d1]
class AGVTask--><rect codeLine="18" fill="#FEFECE" filter="url(#f196ovu3nu2v3z)" height="61.8359" id="AGVTask" style="stroke:#A80036;stroke-width:1.5;" width="463" x="395.5" y="122"/><ellipse cx="597.75" cy="138" fill="#ADD1B2" rx="11" ry="11" style="stroke:#A80036;stroke-width:1.0;"/><path d="M599.75,134.5 Q599.9531,134 600.1875,133.75 Q600.4219,133.5 600.6875,133.5 Q601.1563,133.5 601.4531,133.7813 Q601.75,134.0625 601.75,134.7188 L601.75,136.2813 Q601.75,136.9375 601.4688,137.2188 Q601.1875,137.5 600.75,137.5 Q600.3594,137.5 600.1094,137.3281 Q599.8594,137.1563 599.75,136.7031 Q599.7031,136.3906 599.5313,136.2188 Q599.2188,135.8906 598.6563,135.7031 Q598.0938,135.5 597.5313,135.5 Q596.8281,135.5 596.2344,135.7813 Q595.6563,136.0625 595.2031,136.6875 Q594.75,137.3125 594.75,138.1719 L594.75,139.0938 Q594.75,140.125 595.5938,140.8125 Q596.4375,141.5 597.9375,141.5 Q598.8281,141.5 599.4531,141.2969 Q599.8125,141.1875 600.2188,140.8281 Q600.4844,140.625 600.625,140.5625 Q600.7656,140.5 600.9375,140.5 Q601.2656,140.5 601.5,140.7656 Q601.75,141.0156 601.75,141.375 Q601.75,141.7188 601.4063,142.125 Q600.9063,142.7188 600.1094,143.0469 Q599.0625,143.5 597.7813,143.5 Q596.2813,143.5 595.0781,142.9063 Q594.1094,142.4375 593.4219,141.4219 Q592.75,140.4063 592.75,139.2031 L592.75,138.1094 Q592.75,136.8594 593.3438,135.7656 Q593.9531,134.6719 595,134.0938 Q596.0625,133.5 597.25,133.5 Q597.9688,133.5 598.5938,133.75 Q599.2188,134 599.75,134.5 Z " fill="#000000"/><text fill="#000000" font-family="sans-serif" font-size="12" lengthAdjust="spacing" textLength="50" x="618.25" y="142.9102">AGVTask</text><line style="stroke:#A80036;stroke-width:1.5;" x1="396.5" x2="857.5" y1="154" y2="154"/><line style="stroke:#A80036;stroke-width:1.5;" x1="396.5" x2="857.5" y1="162" y2="162"/><rect fill="#F24D5C" height="6" style="stroke:#C82930;stroke-width:1.0;" width="6" x="403.5" y="170"/><text fill="#000000" font-family="sans-serif" font-size="11" lengthAdjust="spacing" textLength="437" x="415.5" y="177.4189">associateOrdersToAgvSelected(listOfOrdersWhoNeedToByPreparedByAgv, agvSelected)</text><!--MD5=[e8c189551b7885b999ad7cefb30fc2a3]
class PersistenceContext--><rect codeLine="32" fill="#FEFECE" filter="url(#f196ovu3nu2v3z)" height="61.8359" id="PersistenceContext" style="stroke:#A80036;stroke-width:1.5;" width="139" x="172.5" y="251"/><ellipse cx="187.5" cy="267" fill="#ADD1B2" rx="11" ry="11" style="stroke:#A80036;stroke-width:1.0;"/><path d="M189.5,263.5 Q189.7031,263 189.9375,262.75 Q190.1719,262.5 190.4375,262.5 Q190.9063,262.5 191.2031,262.7813 Q191.5,263.0625 191.5,263.7188 L191.5,265.2813 Q191.5,265.9375 191.2188,266.2188 Q190.9375,266.5 190.5,266.5 Q190.1094,266.5 189.8594,266.3281 Q189.6094,266.1563 189.5,265.7031 Q189.4531,265.3906 189.2813,265.2188 Q188.9688,264.8906 188.4063,264.7031 Q187.8438,264.5 187.2813,264.5 Q186.5781,264.5 185.9844,264.7813 Q185.4063,265.0625 184.9531,265.6875 Q184.5,266.3125 184.5,267.1719 L184.5,268.0938 Q184.5,269.125 185.3438,269.8125 Q186.1875,270.5 187.6875,270.5 Q188.5781,270.5 189.2031,270.2969 Q189.5625,270.1875 189.9688,269.8281 Q190.2344,269.625 190.375,269.5625 Q190.5156,269.5 190.6875,269.5 Q191.0156,269.5 191.25,269.7656 Q191.5,270.0156 191.5,270.375 Q191.5,270.7188 191.1563,271.125 Q190.6563,271.7188 189.8594,272.0469 Q188.8125,272.5 187.5313,272.5 Q186.0313,272.5 184.8281,271.9063 Q183.8594,271.4375 183.1719,270.4219 Q182.5,269.4063 182.5,268.2031 L182.5,267.1094 Q182.5,265.8594 183.0938,264.7656 Q183.7031,263.6719 184.75,263.0938 Q185.8125,262.5 187,262.5 Q187.7188,262.5 188.3438,262.75 Q188.9688,263 189.5,263.5 Z " fill="#000000"/><text fill="#000000" font-family="sans-serif" font-size="12" lengthAdjust="spacing" textLength="107" x="201.5" y="271.9102">PersistenceContext</text><line style="stroke:#A80036;stroke-width:1.5;" x1="173.5" x2="310.5" y1="283" y2="283"/><line style="stroke:#A80036;stroke-width:1.5;" x1="173.5" x2="310.5" y1="291" y2="291"/><rect fill="#F24D5C" height="6" style="stroke:#C82930;stroke-width:1.0;" width="6" x="180.5" y="299"/><text fill="#000000" font-family="sans-serif" font-size="11" lengthAdjust="spacing" textLength="65" x="192.5" y="306.4189">repositories()</text><!--MD5=[48590afff58a68e2fcba47824d6f8a11]
class RepositoryFactory--><rect codeLine="36" fill="#FEFECE" filter="url(#f196ovu3nu2v3z)" height="48" id="RepositoryFactory" style="stroke:#A80036;stroke-width:1.5;" width="130" x="177" y="380"/><ellipse cx="192" cy="396" fill="#ADD1B2" rx="11" ry="11" style="stroke:#A80036;stroke-width:1.0;"/><path d="M194,392.5 Q194.2031,392 194.4375,391.75 Q194.6719,391.5 194.9375,391.5 Q195.4063,391.5 195.7031,391.7813 Q196,392.0625 196,392.7188 L196,394.2813 Q196,394.9375 195.7188,395.2188 Q195.4375,395.5 195,395.5 Q194.6094,395.5 194.3594,395.3281 Q194.1094,395.1563 194,394.7031 Q193.9531,394.3906 193.7813,394.2188 Q193.4688,393.8906 192.9063,393.7031 Q192.3438,393.5 191.7813,393.5 Q191.0781,393.5 190.4844,393.7813 Q189.9063,394.0625 189.4531,394.6875 Q189,395.3125 189,396.1719 L189,397.0938 Q189,398.125 189.8438,398.8125 Q190.6875,399.5 192.1875,399.5 Q193.0781,399.5 193.7031,399.2969 Q194.0625,399.1875 194.4688,398.8281 Q194.7344,398.625 194.875,398.5625 Q195.0156,398.5 195.1875,398.5 Q195.5156,398.5 195.75,398.7656 Q196,399.0156 196,399.375 Q196,399.7188 195.6563,400.125 Q195.1563,400.7188 194.3594,401.0469 Q193.3125,401.5 192.0313,401.5 Q190.5313,401.5 189.3281,400.9063 Q188.3594,400.4375 187.6719,399.4219 Q187,398.4063 187,397.2031 L187,396.1094 Q187,394.8594 187.5938,393.7656 Q188.2031,392.6719 189.25,392.0938 Q190.3125,391.5 191.5,391.5 Q192.2188,391.5 192.8438,391.75 Q193.4688,392 194,392.5 Z " fill="#000000"/><text fill="#000000" font-family="sans-serif" font-size="12" lengthAdjust="spacing" textLength="98" x="206" y="400.9102">RepositoryFactory</text><line style="stroke:#A80036;stroke-width:1.5;" x1="178" x2="306" y1="412" y2="412"/><line style="stroke:#A80036;stroke-width:1.5;" x1="178" x2="306" y1="420" y2="420"/><!--MD5=[a2934c79e3adc781b0cd87c74812aba5]
class AGVRepository--><rect codeLine="22" fill="#FEFECE" filter="url(#f196ovu3nu2v3z)" height="61.8359" id="AGVRepository" style="stroke:#A80036;stroke-width:1.5;" width="125" x="342.5" y="373"/><ellipse cx="362.45" cy="389" fill="#ADD1B2" rx="11" ry="11" style="stroke:#A80036;stroke-width:1.0;"/><path d="M364.45,385.5 Q364.6531,385 364.8875,384.75 Q365.1219,384.5 365.3875,384.5 Q365.8563,384.5 366.1531,384.7813 Q366.45,385.0625 366.45,385.7188 L366.45,387.2813 Q366.45,387.9375 366.1688,388.2188 Q365.8875,388.5 365.45,388.5 Q365.0594,388.5 364.8094,388.3281 Q364.5594,388.1563 364.45,387.7031 Q364.4031,387.3906 364.2313,387.2188 Q363.9188,386.8906 363.3563,386.7031 Q362.7938,386.5 362.2313,386.5 Q361.5281,386.5 360.9344,386.7813 Q360.3563,387.0625 359.9031,387.6875 Q359.45,388.3125 359.45,389.1719 L359.45,390.0938 Q359.45,391.125 360.2938,391.8125 Q361.1375,392.5 362.6375,392.5 Q363.5281,392.5 364.1531,392.2969 Q364.5125,392.1875 364.9188,391.8281 Q365.1844,391.625 365.325,391.5625 Q365.4656,391.5 365.6375,391.5 Q365.9656,391.5 366.2,391.7656 Q366.45,392.0156 366.45,392.375 Q366.45,392.7188 366.1063,393.125 Q365.6063,393.7188 364.8094,394.0469 Q363.7625,394.5 362.4813,394.5 Q360.9813,394.5 359.7781,393.9063 Q358.8094,393.4375 358.1219,392.4219 Q357.45,391.4063 357.45,390.2031 L357.45,389.1094 Q357.45,387.8594 358.0438,386.7656 Q358.6531,385.6719 359.7,385.0938 Q360.7625,384.5 361.95,384.5 Q362.6688,384.5 363.2938,384.75 Q363.9188,385 364.45,385.5 Z " fill="#000000"/><text fill="#000000" font-family="sans-serif" font-size="12" lengthAdjust="spacing" textLength="82" x="377.55" y="393.9102">AGVRepository</text><line style="stroke:#A80036;stroke-width:1.5;" x1="343.5" x2="466.5" y1="405" y2="405"/><line style="stroke:#A80036;stroke-width:1.5;" x1="343.5" x2="466.5" y1="413" y2="413"/><rect fill="#F24D5C" height="6" style="stroke:#C82930;stroke-width:1.0;" width="6" x="350.5" y="421"/><text fill="#000000" font-family="sans-serif" font-size="11" lengthAdjust="spacing" textLength="99" x="362.5" y="428.4189">getAGVRepository()</text><!--MD5=[bd7ae71472438d91a1e396970731067c]
class ProductOrderRepository--><rect codeLine="27" fill="#FEFECE" filter="url(#f196ovu3nu2v3z)" height="75.6719" id="ProductOrderRepository" style="stroke:#A80036;stroke-width:1.5;" width="470" x="7" y="495"/><ellipse cx="171.75" cy="511" fill="#ADD1B2" rx="11" ry="11" style="stroke:#A80036;stroke-width:1.0;"/><path d="M173.75,507.5 Q173.9531,507 174.1875,506.75 Q174.4219,506.5 174.6875,506.5 Q175.1563,506.5 175.4531,506.7813 Q175.75,507.0625 175.75,507.7188 L175.75,509.2813 Q175.75,509.9375 175.4688,510.2188 Q175.1875,510.5 174.75,510.5 Q174.3594,510.5 174.1094,510.3281 Q173.8594,510.1563 173.75,509.7031 Q173.7031,509.3906 173.5313,509.2188 Q173.2188,508.8906 172.6563,508.7031 Q172.0938,508.5 171.5313,508.5 Q170.8281,508.5 170.2344,508.7813 Q169.6563,509.0625 169.2031,509.6875 Q168.75,510.3125 168.75,511.1719 L168.75,512.0938 Q168.75,513.125 169.5938,513.8125 Q170.4375,514.5 171.9375,514.5 Q172.8281,514.5 173.4531,514.2969 Q173.8125,514.1875 174.2188,513.8281 Q174.4844,513.625 174.625,513.5625 Q174.7656,513.5 174.9375,513.5 Q175.2656,513.5 175.5,513.7656 Q175.75,514.0156 175.75,514.375 Q175.75,514.7188 175.4063,515.125 Q174.9063,515.7188 174.1094,516.0469 Q173.0625,516.5 171.7813,516.5 Q170.2813,516.5 169.0781,515.9063 Q168.1094,515.4375 167.4219,514.4219 Q166.75,513.4063 166.75,512.2031 L166.75,511.1094 Q166.75,509.8594 167.3438,508.7656 Q167.9531,507.6719 169,507.0938 Q170.0625,506.5 171.25,506.5 Q171.9688,506.5 172.5938,506.75 Q173.2188,507 173.75,507.5 Z " fill="#000000"/><text fill="#000000" font-family="sans-serif" font-size="12" lengthAdjust="spacing" textLength="132" x="192.25" y="515.9102">ProductOrderRepository</text><line style="stroke:#A80036;stroke-width:1.5;" x1="8" x2="476" y1="527" y2="527"/><line style="stroke:#A80036;stroke-width:1.5;" x1="8" x2="476" y1="535" y2="535"/><rect fill="#F24D5C" height="6" style="stroke:#C82930;stroke-width:1.0;" width="6" x="15" y="543"/><text fill="#000000" font-family="sans-serif" font-size="11" lengthAdjust="spacing" textLength="210" x="27" y="550.4189">getOrdersWhoNeedToBePreparedByAGV()</text><rect fill="#F24D5C" height="6" style="stroke:#C82930;stroke-width:1.0;" width="6" x="15" y="556.8359"/><text fill="#000000" font-family="sans-serif" font-size="11" lengthAdjust="spacing" textLength="444" x="27" y="564.2549">changeTheStatusOfTheOrdersToReadForClient(listOfOrdersWhoNeedToByPreparedByAgv)</text><!--MD5=[674ae41ea5e223f4bfe426cc9816afb6]
link ListOrdersBeingPreparedUI to ListOrdersBeingPreparedController--><path codeLine="41" d="M242,55.14 C242,70.58 242,91.33 242,109.67 " fill="none" id="ListOrdersBeingPreparedUI-to-ListOrdersBeingPreparedController" style="stroke:#A80036;stroke-width:1.0;stroke-dasharray:7.0,7.0;"/><polygon fill="#A80036" points="242,114.77,246,105.77,242,109.77,238,105.77,242,114.77" style="stroke:#A80036;stroke-width:1.0;"/><!--MD5=[c265b31b160240f646ec8e99db6fc1f0]
link ListOrdersBeingPreparedController to PersistenceContext--><path codeLine="42" d="M242,191.08 C242,208.33 242,228.74 242,245.76 " fill="none" id="ListOrdersBeingPreparedController-to-PersistenceContext" style="stroke:#A80036;stroke-width:1.0;stroke-dasharray:7.0,7.0;"/><polygon fill="#A80036" points="242,250.93,246,241.93,242,245.93,238,241.93,242,250.93" style="stroke:#A80036;stroke-width:1.0;"/><!--MD5=[754b775031405e096442b27febffa290]
link PersistenceContext to RepositoryFactory--><path codeLine="43" d="M242,313.28 C242,332.19 242,356.38 242,374.87 " fill="none" id="PersistenceContext-to-RepositoryFactory" style="stroke:#A80036;stroke-width:1.0;stroke-dasharray:7.0,7.0;"/><polygon fill="#A80036" points="242,379.92,246,370.92,242,374.92,238,370.92,242,379.92" style="stroke:#A80036;stroke-width:1.0;"/><!--MD5=[d05eaea78b8765320ad56e3795dd7d42]
link RepositoryFactory to AGVRepository--><path codeLine="44" d="M307.26,404 C317.23,404 327.2,404 337.17,404 " fill="none" id="RepositoryFactory-to-AGVRepository" style="stroke:#A80036;stroke-width:1.0;"/><polygon fill="#A80036" points="342.39,404,333.39,400,337.39,404,333.39,408,342.39,404" style="stroke:#A80036;stroke-width:1.0;"/><!--MD5=[96e9cbc266da12541d92a41249a1d1e8]
link RepositoryFactory to ProductOrderRepository--><path codeLine="45" d="M242,428.29 C242,445.46 242,469.28 242,489.76 " fill="none" id="RepositoryFactory-to-ProductOrderRepository" style="stroke:#A80036;stroke-width:1.0;"/><polygon fill="#A80036" points="242,494.89,246,485.89,242,489.89,238,485.89,242,494.89" style="stroke:#A80036;stroke-width:1.0;"/><!--MD5=[f4fb7bb14c61f67b357de7cb347fbfb1]
link ListOrdersBeingPreparedController to AGVTask--><path codeLine="46" d="M360.06,153 C370.05,153 380.04,153 390.03,153 " fill="none" id="ListOrdersBeingPreparedController-to-AGVTask" style="stroke:#A80036;stroke-width:1.0;"/><polygon fill="#A80036" points="395.25,153,386.25,149,390.25,153,386.25,157,395.25,153" style="stroke:#A80036;stroke-width:1.0;"/><!--MD5=[93c0254358a2d10fbbd26a610e1c7e03]
@startuml
'https://plantuml.com/sequence-diagram

class ListOrdersBeingPreparedUI
class ListOrdersBeingPreparedController
class AGVTask
class PersistenceContext
class RepositoryFactory
class AGVRepository
class ProductOrderRepository

class ListOrdersBeingPreparedController {
    - getAGVsAvaiable()
    - getOrdersWhoNeedToBePreparedByAGV()


}

class AGVTask {
    - associateOrdersToAgvSelected(listOfOrdersWhoNeedToByPreparedByAgv, agvSelected)
}

class AGVRepository {
    - getAGVRepository()
}


class ProductOrderRepository {
    - getOrdersWhoNeedToBePreparedByAGV()
    - changeTheStatusOfTheOrdersToReadForClient(listOfOrdersWhoNeedToByPreparedByAgv)
}

class PersistenceContext {
    - repositories()
}

class RepositoryFactory{

}


ListOrdersBeingPreparedUI ..> ListOrdersBeingPreparedController
ListOrdersBeingPreparedController ..> PersistenceContext
PersistenceContext ..> RepositoryFactory
RepositoryFactory -> AGVRepository
RepositoryFactory - -> ProductOrderRepository
ListOrdersBeingPreparedController -> AGVTask


@enduml

@startuml

class ListOrdersBeingPreparedUI
class ListOrdersBeingPreparedController
class AGVTask
class PersistenceContext
class RepositoryFactory
class AGVRepository
class ProductOrderRepository

class ListOrdersBeingPreparedController {
    - getAGVsAvaiable()
    - getOrdersWhoNeedToBePreparedByAGV()


}

class AGVTask {
    - associateOrdersToAgvSelected(listOfOrdersWhoNeedToByPreparedByAgv, agvSelected)
}

class AGVRepository {
    - getAGVRepository()
}


class ProductOrderRepository {
    - getOrdersWhoNeedToBePreparedByAGV()
    - changeTheStatusOfTheOrdersToReadForClient(listOfOrdersWhoNeedToByPreparedByAgv)
}

class PersistenceContext {
    - repositories()
}

class RepositoryFactory{

}


ListOrdersBeingPreparedUI ..> ListOrdersBeingPreparedController
ListOrdersBeingPreparedController ..> PersistenceContext
PersistenceContext ..> RepositoryFactory
RepositoryFactory -> AGVRepository
RepositoryFactory - -> ProductOrderRepository
ListOrdersBeingPreparedController -> AGVTask


@enduml

PlantUML version 1.2022.1(Tue Feb 01 18:19:58 GMT 2022)
(GPL source distribution)
Java Runtime: OpenJDK Runtime Environment
JVM: OpenJDK 64-Bit Server VM
Default Encoding: Cp1252
Language: pt
Country: BR
--></g></svg>