<?xml version="1.0" encoding="UTF-8" standalone="no"?><svg xmlns="http://www.w3.org/2000/svg" xmlns:xlink="http://www.w3.org/1999/xlink" contentScriptType="application/ecmascript" contentStyleType="text/css" height="1107px" preserveAspectRatio="none" style="width:2026px;height:1107px;background:#FFFFFF;" version="1.1" viewBox="0 0 2026 1107" width="2026px" zoomAndPan="magnify"><defs><filter height="300%" id="fd3n6emiiqw8p" width="300%" x="-1" y="-1"><feGaussianBlur result="blurOut" stdDeviation="2.0"/><feColorMatrix in="blurOut" result="blurOut2" type="matrix" values="0 0 0 0 0 0 0 0 0 0 0 0 0 0 0 0 0 0 .4 0"/><feOffset dx="4.0" dy="4.0" in="blurOut2" result="blurOut3"/><feBlend in="SourceGraphic" in2="blurOut3" mode="normal"/></filter></defs><g><rect fill="#FFFFFF" filter="url(#fd3n6emiiqw8p)" height="878.4375" style="stroke:#A80036;stroke-width:1.0;" width="10" x="72.5" y="121.9609"/><rect fill="#FFFFFF" filter="url(#fd3n6emiiqw8p)" height="514.9219" style="stroke:#A80036;stroke-width:1.0;" width="10" x="435.5" y="121.9609"/><rect fill="#FFFFFF" filter="url(#fd3n6emiiqw8p)" height="333.1641" style="stroke:#A80036;stroke-width:1.0;" width="10" x="435.5" y="667.2344"/><rect fill="#FFFFFF" filter="url(#fd3n6emiiqw8p)" height="30" style="stroke:#A80036;stroke-width:1.0;" width="10" x="789.5" y="152.3125"/><rect fill="#FFFFFF" filter="url(#fd3n6emiiqw8p)" height="393.8672" style="stroke:#A80036;stroke-width:1.0;" width="10" x="789.5" y="212.6641"/><rect fill="#FFFFFF" filter="url(#fd3n6emiiqw8p)" height="272.4609" style="stroke:#A80036;stroke-width:1.0;" width="10" x="789.5" y="697.5859"/><rect fill="#FFFFFF" filter="url(#fd3n6emiiqw8p)" height="30" style="stroke:#A80036;stroke-width:1.0;" width="10" x="1330.5" y="849.3438"/><rect fill="#FFFFFF" filter="url(#fd3n6emiiqw8p)" height="30.3516" style="stroke:#A80036;stroke-width:1.0;" width="10" x="1412" y="545.8281"/><rect fill="#FFFFFF" filter="url(#fd3n6emiiqw8p)" height="90.7031" style="stroke:#A80036;stroke-width:1.0;" width="10" x="1523.5" y="243.0156"/><rect fill="#FFFFFF" filter="url(#fd3n6emiiqw8p)" height="30" style="stroke:#A80036;stroke-width:1.0;" width="10" x="1670.5" y="273.3672"/><rect fill="#FFFFFF" filter="url(#fd3n6emiiqw8p)" height="90.7031" style="stroke:#A80036;stroke-width:1.0;" width="10" x="1670.5" y="364.0703"/><rect fill="#FFFFFF" filter="url(#fd3n6emiiqw8p)" height="30.3516" style="stroke:#A80036;stroke-width:1.0;" width="10" x="1670.5" y="727.9375"/><rect fill="#FFFFFF" filter="url(#fd3n6emiiqw8p)" height="30" style="stroke:#A80036;stroke-width:1.0;" width="10" x="1799" y="394.4219"/><rect fill="#FFFFFF" filter="url(#fd3n6emiiqw8p)" height="30.3516" style="stroke:#A80036;stroke-width:1.0;" width="10" x="1799" y="485.125"/><rect fill="#FFFFFF" filter="url(#fd3n6emiiqw8p)" height="30.3516" style="stroke:#A80036;stroke-width:1.0;" width="10" x="1940.5" y="788.6406"/><rect fill="#FFFFFF" filter="url(#fd3n6emiiqw8p)" height="30" style="stroke:#A80036;stroke-width:1.0;" width="10" x="1940.5" y="909.6953"/><line style="stroke:#A80036;stroke-width:1.0;stroke-dasharray:5.0,5.0;" x1="77" x2="77" y1="89.6094" y2="1018.3984"/><line style="stroke:#A80036;stroke-width:1.0;stroke-dasharray:5.0,5.0;" x1="440" x2="440" y1="89.6094" y2="1018.3984"/><line style="stroke:#A80036;stroke-width:1.0;stroke-dasharray:5.0,5.0;" x1="794" x2="794" y1="89.6094" y2="1018.3984"/><line style="stroke:#A80036;stroke-width:1.0;stroke-dasharray:5.0,5.0;" x1="1335.5" x2="1335.5" y1="89.6094" y2="1018.3984"/><line style="stroke:#A80036;stroke-width:1.0;stroke-dasharray:5.0,5.0;" x1="1416.5" x2="1416.5" y1="89.6094" y2="1018.3984"/><line style="stroke:#A80036;stroke-width:1.0;stroke-dasharray:5.0,5.0;" x1="1528.5" x2="1528.5" y1="89.6094" y2="1018.3984"/><line style="stroke:#A80036;stroke-width:1.0;stroke-dasharray:5.0,5.0;" x1="1675.5" x2="1675.5" y1="89.6094" y2="1018.3984"/><line style="stroke:#A80036;stroke-width:1.0;stroke-dasharray:5.0,5.0;" x1="1803.5" x2="1803.5" y1="89.6094" y2="1018.3984"/><line style="stroke:#A80036;stroke-width:1.0;stroke-dasharray:5.0,5.0;" x1="1945.5" x2="1945.5" y1="89.6094" y2="1018.3984"/><text fill="#000000" font-family="sans-serif" font-size="14" lengthAdjust="spacing" textLength="139" x="5" y="86.5332">Warehouse Employee</text><ellipse cx="77.5" cy="15" fill="#FEFECE" filter="url(#fd3n6emiiqw8p)" rx="8" ry="8" style="stroke:#A80036;stroke-width:2.0;"/><path d="M77.5,23 L77.5,50 M64.5,31 L90.5,31 M77.5,50 L64.5,65 M77.5,50 L90.5,65 " fill="none" filter="url(#fd3n6emiiqw8p)" style="stroke:#A80036;stroke-width:2.0;"/><text fill="#000000" font-family="sans-serif" font-size="14" lengthAdjust="spacing" textLength="139" x="5" y="1031.9316">Warehouse Employee</text><ellipse cx="77.5" cy="1045.0078" fill="#FEFECE" filter="url(#fd3n6emiiqw8p)" rx="8" ry="8" style="stroke:#A80036;stroke-width:2.0;"/><path d="M77.5,1053.0078 L77.5,1080.0078 M64.5,1061.0078 L90.5,1061.0078 M77.5,1080.0078 L64.5,1095.0078 M77.5,1080.0078 L90.5,1095.0078 " fill="none" filter="url(#fd3n6emiiqw8p)" style="stroke:#A80036;stroke-width:2.0;"/><rect fill="#FEFECE" filter="url(#fd3n6emiiqw8p)" height="49.2188" style="stroke:#A80036;stroke-width:1.5;" width="187" x="345" y="35.3906"/><text fill="#000000" font-family="sans-serif" font-size="14" font-style="italic" lengthAdjust="spacing" textLength="95" x="391" y="56.9238">«presentation»</text><text fill="#000000" font-family="sans-serif" font-size="14" lengthAdjust="spacing" textLength="173" x="352" y="74.5332">ListOrdersBeingPreparedUI</text><rect fill="#FEFECE" filter="url(#fd3n6emiiqw8p)" height="49.2188" style="stroke:#A80036;stroke-width:1.5;" width="187" x="345" y="1017.3984"/><text fill="#000000" font-family="sans-serif" font-size="14" font-style="italic" lengthAdjust="spacing" textLength="95" x="391" y="1038.9316">«presentation»</text><text fill="#000000" font-family="sans-serif" font-size="14" lengthAdjust="spacing" textLength="173" x="352" y="1056.541">ListOrdersBeingPreparedUI</text><rect fill="#FEFECE" filter="url(#fd3n6emiiqw8p)" height="49.2188" style="stroke:#A80036;stroke-width:1.5;" width="237" x="674" y="35.3906"/><text fill="#000000" font-family="sans-serif" font-size="14" font-style="italic" lengthAdjust="spacing" textLength="84" x="750.5" y="56.9238">«application»</text><text fill="#000000" font-family="sans-serif" font-size="14" lengthAdjust="spacing" textLength="223" x="681" y="74.5332">ListOrdersBeingPreparedController</text><rect fill="#FEFECE" filter="url(#fd3n6emiiqw8p)" height="49.2188" style="stroke:#A80036;stroke-width:1.5;" width="237" x="674" y="1017.3984"/><text fill="#000000" font-family="sans-serif" font-size="14" font-style="italic" lengthAdjust="spacing" textLength="84" x="750.5" y="1038.9316">«application»</text><text fill="#000000" font-family="sans-serif" font-size="14" lengthAdjust="spacing" textLength="223" x="681" y="1056.541">ListOrdersBeingPreparedController</text><rect fill="#FEFECE" filter="url(#fd3n6emiiqw8p)" height="49.2188" style="stroke:#A80036;stroke-width:1.5;" width="76" x="1295.5" y="35.3906"/><text fill="#000000" font-family="sans-serif" font-size="14" font-style="italic" lengthAdjust="spacing" textLength="62" x="1302.5" y="56.9238">«domain»</text><text fill="#000000" font-family="sans-serif" font-size="14" lengthAdjust="spacing" textLength="60" x="1303.5" y="74.5332">AGVTask</text><rect fill="#FEFECE" filter="url(#fd3n6emiiqw8p)" height="49.2188" style="stroke:#A80036;stroke-width:1.5;" width="76" x="1295.5" y="1017.3984"/><text fill="#000000" font-family="sans-serif" font-size="14" font-style="italic" lengthAdjust="spacing" textLength="62" x="1302.5" y="1038.9316">«domain»</text><text fill="#000000" font-family="sans-serif" font-size="14" lengthAdjust="spacing" textLength="60" x="1303.5" y="1056.541">AGVTask</text><rect fill="#FEFECE" filter="url(#fd3n6emiiqw8p)" height="49.2188" style="stroke:#A80036;stroke-width:1.5;" width="59" x="1385.5" y="35.3906"/><text fill="#000000" font-family="sans-serif" font-size="14" font-style="italic" lengthAdjust="spacing" textLength="36" x="1397" y="56.9238">«dto»</text><text fill="#000000" font-family="sans-serif" font-size="14" lengthAdjust="spacing" textLength="45" x="1392.5" y="74.5332">agvDto</text><rect fill="#FEFECE" filter="url(#fd3n6emiiqw8p)" height="49.2188" style="stroke:#A80036;stroke-width:1.5;" width="59" x="1385.5" y="1017.3984"/><text fill="#000000" font-family="sans-serif" font-size="14" font-style="italic" lengthAdjust="spacing" textLength="36" x="1397" y="1038.9316">«dto»</text><text fill="#000000" font-family="sans-serif" font-size="14" lengthAdjust="spacing" textLength="45" x="1392.5" y="1056.541">agvDto</text><rect fill="#FEFECE" filter="url(#fd3n6emiiqw8p)" height="49.2188" style="stroke:#A80036;stroke-width:1.5;" width="136" x="1458.5" y="35.3906"/><text fill="#000000" font-family="sans-serif" font-size="14" font-style="italic" lengthAdjust="spacing" textLength="89" x="1482" y="56.9238">«persistence»</text><text fill="#000000" font-family="sans-serif" font-size="14" lengthAdjust="spacing" textLength="122" x="1465.5" y="74.5332">PersistenceContext</text><rect fill="#FEFECE" filter="url(#fd3n6emiiqw8p)" height="49.2188" style="stroke:#A80036;stroke-width:1.5;" width="136" x="1458.5" y="1017.3984"/><text fill="#000000" font-family="sans-serif" font-size="14" font-style="italic" lengthAdjust="spacing" textLength="89" x="1482" y="1038.9316">«persistence»</text><text fill="#000000" font-family="sans-serif" font-size="14" lengthAdjust="spacing" textLength="122" x="1465.5" y="1056.541">PersistenceContext</text><rect fill="#FEFECE" filter="url(#fd3n6emiiqw8p)" height="49.2188" style="stroke:#A80036;stroke-width:1.5;" width="130" x="1608.5" y="35.3906"/><text fill="#000000" font-family="sans-serif" font-size="14" font-style="italic" lengthAdjust="spacing" textLength="59" x="1644" y="56.9238">«factory»</text><text fill="#000000" font-family="sans-serif" font-size="14" lengthAdjust="spacing" textLength="116" x="1615.5" y="74.5332">RepositoryFactory</text><rect fill="#FEFECE" filter="url(#fd3n6emiiqw8p)" height="49.2188" style="stroke:#A80036;stroke-width:1.5;" width="130" x="1608.5" y="1017.3984"/><text fill="#000000" font-family="sans-serif" font-size="14" font-style="italic" lengthAdjust="spacing" textLength="59" x="1644" y="1038.9316">«factory»</text><text fill="#000000" font-family="sans-serif" font-size="14" lengthAdjust="spacing" textLength="116" x="1615.5" y="1056.541">RepositoryFactory</text><text fill="#000000" font-family="sans-serif" font-size="14" font-style="italic" lengthAdjust="spacing" textLength="79" x="1761.5" y="68.9238">«repository»</text><text fill="#000000" font-family="sans-serif" font-size="14" lengthAdjust="spacing" textLength="97" x="1752.5" y="86.5332">AGVRepository</text><path d="M1786,18.3906 C1786,8.3906 1804,8.3906 1804,8.3906 C1804,8.3906 1822,8.3906 1822,18.3906 L1822,44.3906 C1822,54.3906 1804,54.3906 1804,54.3906 C1804,54.3906 1786,54.3906 1786,44.3906 L1786,18.3906 " fill="#FEFECE" filter="url(#fd3n6emiiqw8p)" style="stroke:#000000;stroke-width:1.5;"/><path d="M1786,18.3906 C1786,28.3906 1804,28.3906 1804,28.3906 C1804,28.3906 1822,28.3906 1822,18.3906 " fill="none" style="stroke:#000000;stroke-width:1.5;"/><text fill="#000000" font-family="sans-serif" font-size="14" font-style="italic" lengthAdjust="spacing" textLength="79" x="1761.5" y="1031.9316">«repository»</text><text fill="#000000" font-family="sans-serif" font-size="14" lengthAdjust="spacing" textLength="97" x="1752.5" y="1049.541">AGVRepository</text><path d="M1786,1062.6172 C1786,1052.6172 1804,1052.6172 1804,1052.6172 C1804,1052.6172 1822,1052.6172 1822,1062.6172 L1822,1088.6172 C1822,1098.6172 1804,1098.6172 1804,1098.6172 C1804,1098.6172 1786,1098.6172 1786,1088.6172 L1786,1062.6172 " fill="#FEFECE" filter="url(#fd3n6emiiqw8p)" style="stroke:#000000;stroke-width:1.5;"/><path d="M1786,1062.6172 C1786,1072.6172 1804,1072.6172 1804,1072.6172 C1804,1072.6172 1822,1072.6172 1822,1062.6172 " fill="none" style="stroke:#000000;stroke-width:1.5;"/><text fill="#000000" font-family="sans-serif" font-size="14" font-style="italic" lengthAdjust="spacing" textLength="79" x="1903" y="68.9238">«repository»</text><text fill="#000000" font-family="sans-serif" font-size="14" lengthAdjust="spacing" textLength="154" x="1865.5" y="86.5332">ProductOrderRepository</text><path d="M1927.5,18.3906 C1927.5,8.3906 1945.5,8.3906 1945.5,8.3906 C1945.5,8.3906 1963.5,8.3906 1963.5,18.3906 L1963.5,44.3906 C1963.5,54.3906 1945.5,54.3906 1945.5,54.3906 C1945.5,54.3906 1927.5,54.3906 1927.5,44.3906 L1927.5,18.3906 " fill="#FEFECE" filter="url(#fd3n6emiiqw8p)" style="stroke:#000000;stroke-width:1.5;"/><path d="M1927.5,18.3906 C1927.5,28.3906 1945.5,28.3906 1945.5,28.3906 C1945.5,28.3906 1963.5,28.3906 1963.5,18.3906 " fill="none" style="stroke:#000000;stroke-width:1.5;"/><text fill="#000000" font-family="sans-serif" font-size="14" font-style="italic" lengthAdjust="spacing" textLength="79" x="1903" y="1031.9316">«repository»</text><text fill="#000000" font-family="sans-serif" font-size="14" lengthAdjust="spacing" textLength="154" x="1865.5" y="1049.541">ProductOrderRepository</text><path d="M1927.5,1062.6172 C1927.5,1052.6172 1945.5,1052.6172 1945.5,1052.6172 C1945.5,1052.6172 1963.5,1052.6172 1963.5,1062.6172 L1963.5,1088.6172 C1963.5,1098.6172 1945.5,1098.6172 1945.5,1098.6172 C1945.5,1098.6172 1927.5,1098.6172 1927.5,1088.6172 L1927.5,1062.6172 " fill="#FEFECE" filter="url(#fd3n6emiiqw8p)" style="stroke:#000000;stroke-width:1.5;"/><path d="M1927.5,1062.6172 C1927.5,1072.6172 1945.5,1072.6172 1945.5,1072.6172 C1945.5,1072.6172 1963.5,1072.6172 1963.5,1062.6172 " fill="none" style="stroke:#000000;stroke-width:1.5;"/><rect fill="#FFFFFF" filter="url(#fd3n6emiiqw8p)" height="878.4375" style="stroke:#A80036;stroke-width:1.0;" width="10" x="72.5" y="121.9609"/><rect fill="#FFFFFF" filter="url(#fd3n6emiiqw8p)" height="514.9219" style="stroke:#A80036;stroke-width:1.0;" width="10" x="435.5" y="121.9609"/><rect fill="#FFFFFF" filter="url(#fd3n6emiiqw8p)" height="333.1641" style="stroke:#A80036;stroke-width:1.0;" width="10" x="435.5" y="667.2344"/><rect fill="#FFFFFF" filter="url(#fd3n6emiiqw8p)" height="30" style="stroke:#A80036;stroke-width:1.0;" width="10" x="789.5" y="152.3125"/><rect fill="#FFFFFF" filter="url(#fd3n6emiiqw8p)" height="393.8672" style="stroke:#A80036;stroke-width:1.0;" width="10" x="789.5" y="212.6641"/><rect fill="#FFFFFF" filter="url(#fd3n6emiiqw8p)" height="272.4609" style="stroke:#A80036;stroke-width:1.0;" width="10" x="789.5" y="697.5859"/><rect fill="#FFFFFF" filter="url(#fd3n6emiiqw8p)" height="30" style="stroke:#A80036;stroke-width:1.0;" width="10" x="1330.5" y="849.3438"/><rect fill="#FFFFFF" filter="url(#fd3n6emiiqw8p)" height="30.3516" style="stroke:#A80036;stroke-width:1.0;" width="10" x="1412" y="545.8281"/><rect fill="#FFFFFF" filter="url(#fd3n6emiiqw8p)" height="90.7031" style="stroke:#A80036;stroke-width:1.0;" width="10" x="1523.5" y="243.0156"/><rect fill="#FFFFFF" filter="url(#fd3n6emiiqw8p)" height="30" style="stroke:#A80036;stroke-width:1.0;" width="10" x="1670.5" y="273.3672"/><rect fill="#FFFFFF" filter="url(#fd3n6emiiqw8p)" height="90.7031" style="stroke:#A80036;stroke-width:1.0;" width="10" x="1670.5" y="364.0703"/><rect fill="#FFFFFF" filter="url(#fd3n6emiiqw8p)" height="30.3516" style="stroke:#A80036;stroke-width:1.0;" width="10" x="1670.5" y="727.9375"/><rect fill="#FFFFFF" filter="url(#fd3n6emiiqw8p)" height="30" style="stroke:#A80036;stroke-width:1.0;" width="10" x="1799" y="394.4219"/><rect fill="#FFFFFF" filter="url(#fd3n6emiiqw8p)" height="30.3516" style="stroke:#A80036;stroke-width:1.0;" width="10" x="1799" y="485.125"/><rect fill="#FFFFFF" filter="url(#fd3n6emiiqw8p)" height="30.3516" style="stroke:#A80036;stroke-width:1.0;" width="10" x="1940.5" y="788.6406"/><rect fill="#FFFFFF" filter="url(#fd3n6emiiqw8p)" height="30" style="stroke:#A80036;stroke-width:1.0;" width="10" x="1940.5" y="909.6953"/><polygon fill="#A80036" points="423.5,117.9609,433.5,121.9609,423.5,125.9609,427.5,121.9609" style="stroke:#A80036;stroke-width:1.0;"/><line style="stroke:#A80036;stroke-width:1.0;" x1="82.5" x2="429.5" y1="121.9609" y2="121.9609"/><text fill="#000000" font-family="sans-serif" font-size="13" lengthAdjust="spacing" textLength="242" x="89.5" y="117.1045">Ask for the list of products prepared by an</text><polygon fill="#A80036" points="777.5,148.3125,787.5,152.3125,777.5,156.3125,781.5,152.3125" style="stroke:#A80036;stroke-width:1.0;"/><line style="stroke:#A80036;stroke-width:1.0;" x1="445.5" x2="783.5" y1="152.3125" y2="152.3125"/><text fill="#000000" font-family="sans-serif" font-size="13" lengthAdjust="spacing" textLength="44" x="452.5" y="147.4561">create()</text><polygon fill="#A80036" points="777.5,208.6641,787.5,212.6641,777.5,216.6641,781.5,212.6641" style="stroke:#A80036;stroke-width:1.0;"/><line style="stroke:#A80036;stroke-width:1.0;" x1="445.5" x2="783.5" y1="212.6641" y2="212.6641"/><text fill="#000000" font-family="sans-serif" font-size="13" lengthAdjust="spacing" textLength="109" x="452.5" y="207.8076">getAGVsAvaiable()</text><polygon fill="#A80036" points="1511.5,239.0156,1521.5,243.0156,1511.5,247.0156,1515.5,243.0156" style="stroke:#A80036;stroke-width:1.0;"/><line style="stroke:#A80036;stroke-width:1.0;" x1="799.5" x2="1517.5" y1="243.0156" y2="243.0156"/><text fill="#000000" font-family="sans-serif" font-size="13" lengthAdjust="spacing" textLength="75" x="806.5" y="238.1592">repositories()</text><polygon fill="#A80036" points="1658.5,269.3672,1668.5,273.3672,1658.5,277.3672,1662.5,273.3672" style="stroke:#A80036;stroke-width:1.0;"/><line style="stroke:#A80036;stroke-width:1.0;" x1="1533.5" x2="1664.5" y1="273.3672" y2="273.3672"/><text fill="#000000" font-family="sans-serif" font-size="13" lengthAdjust="spacing" textLength="44" x="1540.5" y="268.5107">create()</text><polygon fill="#A80036" points="810.5,329.7188,800.5,333.7188,810.5,337.7188,806.5,333.7188" style="stroke:#A80036;stroke-width:1.0;"/><line style="stroke:#A80036;stroke-width:1.0;stroke-dasharray:2.0,2.0;" x1="804.5" x2="1527.5" y1="333.7188" y2="333.7188"/><text fill="#000000" font-family="sans-serif" font-size="13" lengthAdjust="spacing" textLength="101" x="816.5" y="328.8623">repositoryFactory</text><polygon fill="#A80036" points="1658.5,360.0703,1668.5,364.0703,1658.5,368.0703,1662.5,364.0703" style="stroke:#A80036;stroke-width:1.0;"/><line style="stroke:#A80036;stroke-width:1.0;" x1="799.5" x2="1664.5" y1="364.0703" y2="364.0703"/><text fill="#000000" font-family="sans-serif" font-size="13" lengthAdjust="spacing" textLength="116" x="806.5" y="359.2139">getAGVRepository()</text><polygon fill="#A80036" points="1787,390.4219,1797,394.4219,1787,398.4219,1791,394.4219" style="stroke:#A80036;stroke-width:1.0;"/><line style="stroke:#A80036;stroke-width:1.0;" x1="1680.5" x2="1793" y1="394.4219" y2="394.4219"/><text fill="#000000" font-family="sans-serif" font-size="13" lengthAdjust="spacing" textLength="44" x="1687.5" y="389.5654">create()</text><polygon fill="#A80036" points="810.5,450.7734,800.5,454.7734,810.5,458.7734,806.5,454.7734" style="stroke:#A80036;stroke-width:1.0;"/><line style="stroke:#A80036;stroke-width:1.0;stroke-dasharray:2.0,2.0;" x1="804.5" x2="1674.5" y1="454.7734" y2="454.7734"/><text fill="#000000" font-family="sans-serif" font-size="13" lengthAdjust="spacing" textLength="81" x="816.5" y="449.917">agvRepository</text><polygon fill="#A80036" points="1787,481.125,1797,485.125,1787,489.125,1791,485.125" style="stroke:#A80036;stroke-width:1.0;"/><line style="stroke:#A80036;stroke-width:1.0;" x1="799.5" x2="1793" y1="485.125" y2="485.125"/><text fill="#000000" font-family="sans-serif" font-size="13" lengthAdjust="spacing" textLength="109" x="806.5" y="480.2686">getAGVsAvaiable()</text><polygon fill="#A80036" points="810.5,511.4766,800.5,515.4766,810.5,519.4766,806.5,515.4766" style="stroke:#A80036;stroke-width:1.0;"/><line style="stroke:#A80036;stroke-width:1.0;stroke-dasharray:2.0,2.0;" x1="804.5" x2="1803" y1="515.4766" y2="515.4766"/><text fill="#000000" font-family="sans-serif" font-size="13" lengthAdjust="spacing" textLength="74" x="816.5" y="510.6201">agvsAvaiable</text><polygon fill="#A80036" points="1400,541.8281,1410,545.8281,1400,549.8281,1404,545.8281" style="stroke:#A80036;stroke-width:1.0;"/><line style="stroke:#A80036;stroke-width:1.0;" x1="799.5" x2="1406" y1="545.8281" y2="545.8281"/><text fill="#000000" font-family="sans-serif" font-size="13" lengthAdjust="spacing" textLength="39" x="806.5" y="540.9717">toDto()</text><polygon fill="#A80036" points="810.5,572.1797,800.5,576.1797,810.5,580.1797,806.5,576.1797" style="stroke:#A80036;stroke-width:1.0;"/><line style="stroke:#A80036;stroke-width:1.0;" x1="804.5" x2="1416" y1="576.1797" y2="576.1797"/><text fill="#000000" font-family="sans-serif" font-size="13" lengthAdjust="spacing" textLength="94" x="816.5" y="571.3232">agvsAvaiableDto</text><polygon fill="#A80036" points="456.5,602.5313,446.5,606.5313,456.5,610.5313,452.5,606.5313" style="stroke:#A80036;stroke-width:1.0;"/><line style="stroke:#A80036;stroke-width:1.0;stroke-dasharray:2.0,2.0;" x1="450.5" x2="793.5" y1="606.5313" y2="606.5313"/><text fill="#000000" font-family="sans-serif" font-size="13" lengthAdjust="spacing" textLength="74" x="462.5" y="601.6748">agvsAvaiable</text><polygon fill="#A80036" points="93.5,632.8828,83.5,636.8828,93.5,640.8828,89.5,636.8828" style="stroke:#A80036;stroke-width:1.0;"/><line style="stroke:#A80036;stroke-width:1.0;stroke-dasharray:2.0,2.0;" x1="87.5" x2="439.5" y1="636.8828" y2="636.8828"/><text fill="#000000" font-family="sans-serif" font-size="13" lengthAdjust="spacing" textLength="271" x="99.5" y="632.0264">Shows the list of AGVs and asks to select one</text><polygon fill="#A80036" points="423.5,663.2344,433.5,667.2344,423.5,671.2344,427.5,667.2344" style="stroke:#A80036;stroke-width:1.0;"/><line style="stroke:#A80036;stroke-width:1.0;" x1="82.5" x2="429.5" y1="667.2344" y2="667.2344"/><text fill="#000000" font-family="sans-serif" font-size="13" lengthAdjust="spacing" textLength="91" x="89.5" y="662.3779">Select the AGV</text><polygon fill="#A80036" points="777.5,693.5859,787.5,697.5859,777.5,701.5859,781.5,697.5859" style="stroke:#A80036;stroke-width:1.0;"/><line style="stroke:#A80036;stroke-width:1.0;" x1="445.5" x2="783.5" y1="697.5859" y2="697.5859"/><text fill="#000000" font-family="sans-serif" font-size="13" lengthAdjust="spacing" textLength="325" x="452.5" y="692.7295">getOrdersWhoNeedToBePreparedByAGV(selectedAGV)</text><polygon fill="#A80036" points="1658.5,723.9375,1668.5,727.9375,1658.5,731.9375,1662.5,727.9375" style="stroke:#A80036;stroke-width:1.0;"/><line style="stroke:#A80036;stroke-width:1.0;" x1="799.5" x2="1664.5" y1="727.9375" y2="727.9375"/><text fill="#000000" font-family="sans-serif" font-size="13" lengthAdjust="spacing" textLength="120" x="806.5" y="723.0811">getOrderRepository()</text><polygon fill="#A80036" points="810.5,754.2891,800.5,758.2891,810.5,762.2891,806.5,758.2891" style="stroke:#A80036;stroke-width:1.0;"/><line style="stroke:#A80036;stroke-width:1.0;stroke-dasharray:2.0,2.0;" x1="804.5" x2="1674.5" y1="758.2891" y2="758.2891"/><text fill="#000000" font-family="sans-serif" font-size="13" lengthAdjust="spacing" textLength="91" x="816.5" y="753.4326">orderRepository</text><polygon fill="#A80036" points="1928.5,784.6406,1938.5,788.6406,1928.5,792.6406,1932.5,788.6406" style="stroke:#A80036;stroke-width:1.0;"/><line style="stroke:#A80036;stroke-width:1.0;" x1="799.5" x2="1934.5" y1="788.6406" y2="788.6406"/><text fill="#000000" font-family="sans-serif" font-size="13" lengthAdjust="spacing" textLength="325" x="806.5" y="783.7842">getOrdersWhoNeedToBePreparedByAGV(selectedAGV)</text><polygon fill="#A80036" points="810.5,814.9922,800.5,818.9922,810.5,822.9922,806.5,818.9922" style="stroke:#A80036;stroke-width:1.0;"/><line style="stroke:#A80036;stroke-width:1.0;stroke-dasharray:2.0,2.0;" x1="804.5" x2="1944.5" y1="818.9922" y2="818.9922"/><text fill="#000000" font-family="sans-serif" font-size="13" lengthAdjust="spacing" textLength="245" x="816.5" y="814.1357">listOfOrdersWhoNeedToByPreparedByAgv</text><polygon fill="#A80036" points="1318.5,845.3438,1328.5,849.3438,1318.5,853.3438,1322.5,849.3438" style="stroke:#A80036;stroke-width:1.0;"/><line style="stroke:#A80036;stroke-width:1.0;" x1="799.5" x2="1324.5" y1="849.3438" y2="849.3438"/><text fill="#000000" font-family="sans-serif" font-size="13" lengthAdjust="spacing" textLength="512" x="806.5" y="844.4873">associateOrdersToAgvSelected(listOfOrdersWhoNeedToByPreparedByAgv, agvSelected)</text><polygon fill="#A80036" points="1928.5,905.6953,1938.5,909.6953,1928.5,913.6953,1932.5,909.6953" style="stroke:#A80036;stroke-width:1.0;"/><line style="stroke:#A80036;stroke-width:1.0;" x1="799.5" x2="1934.5" y1="909.6953" y2="909.6953"/><text fill="#000000" font-family="sans-serif" font-size="13" lengthAdjust="spacing" textLength="523" x="806.5" y="904.8389">changeTheStatusOfTheOrdersToReadForClient(listOfOrdersWhoNeedToByPreparedByAgv)</text><polygon fill="#A80036" points="456.5,966.0469,446.5,970.0469,456.5,974.0469,452.5,970.0469" style="stroke:#A80036;stroke-width:1.0;"/><line style="stroke:#A80036;stroke-width:1.0;stroke-dasharray:2.0,2.0;" x1="450.5" x2="793.5" y1="970.0469" y2="970.0469"/><text fill="#000000" font-family="sans-serif" font-size="13" lengthAdjust="spacing" textLength="245" x="462.5" y="965.1904">listOfOrdersWhoNeedToByPreparedByAgv</text><polygon fill="#A80036" points="88.5,996.3984,78.5,1000.3984,88.5,1004.3984,84.5,1000.3984" style="stroke:#A80036;stroke-width:1.0;"/><line style="stroke:#A80036;stroke-width:1.0;stroke-dasharray:2.0,2.0;" x1="82.5" x2="439.5" y1="1000.3984" y2="1000.3984"/><text fill="#000000" font-family="sans-serif" font-size="13" lengthAdjust="spacing" textLength="329" x="94.5" y="995.542">Shows the list of products prepared by the selected AGV</text><!--MD5=[53222b611dc52a4e6b946e97d1089abe]
@startuml
'http://plantuml.com/skinparam.html

actor "Warehouse Employee" as EMPLOYEE
participant ListOrdersBeingPreparedUI as UI <<presentation>>
participant ListOrdersBeingPreparedController as CONTROLLER <<application>>
participant AGVTask as TASK <<domain>>
participant agvDto as DTO  <<dto>>
participant PersistenceContext as PERSISTENCE <<persistence>>
participant RepositoryFactory as FACTORY <<factory>>
database AGVRepository as REPOSITORY_AGV <<repository>>
database ProductOrderRepository as REPOSITORY_ORDERS <<repository>>

EMPLOYEE -> UI: Ask for the list of products prepared by an
activate EMPLOYEE
activate UI

UI -> CONTROLLER: create()

activate CONTROLLER
deactivate CONTROLLER

UI -> CONTROLLER : getAGVsAvaiable()
activate CONTROLLER

CONTROLLER -> PERSISTENCE : repositories()

activate PERSISTENCE

PERSISTENCE -> FACTORY : create()

activate FACTORY
deactivate FACTORY

PERSISTENCE - -> CONTROLLER : repositoryFactory

deactivate PERSISTENCE

CONTROLLER -> FACTORY : getAGVRepository()

activate FACTORY

FACTORY -> REPOSITORY_AGV : create()

activate REPOSITORY_AGV
deactivate REPOSITORY_AGV

FACTORY - -> CONTROLLER : agvRepository
deactivate FACTORY

CONTROLLER -> REPOSITORY_AGV : getAGVsAvaiable()

activate REPOSITORY_AGV

REPOSITORY_AGV - -> CONTROLLER : agvsAvaiable

deactivate REPOSITORY_AGV

CONTROLLER -> DTO : toDto()

activate DTO

DTO -> CONTROLLER : agvsAvaiableDto

deactivate DTO

CONTROLLER - -> UI : agvsAvaiable
deactivate CONTROLLER

UI - -> EMPLOYEE: Shows the list of AGVs and asks to select one


deactivate CONTROLLER
deactivate UI

EMPLOYEE -> UI : Select the AGV

activate UI

UI -> CONTROLLER : getOrdersWhoNeedToBePreparedByAGV(selectedAGV)

activate CONTROLLER

CONTROLLER -> FACTORY : getOrderRepository()

activate FACTORY

FACTORY - -> CONTROLLER : orderRepository

deactivate FACTORY

CONTROLLER -> REPOSITORY_ORDERS : getOrdersWhoNeedToBePreparedByAGV(selectedAGV)

activate REPOSITORY_ORDERS

REPOSITORY_ORDERS - -> CONTROLLER : listOfOrdersWhoNeedToByPreparedByAgv
deactivate REPOSITORY_ORDERS

CONTROLLER -> TASK : associateOrdersToAgvSelected(listOfOrdersWhoNeedToByPreparedByAgv, agvSelected)

activate TASK
deactivate TASK

CONTROLLER -> REPOSITORY_ORDERS : changeTheStatusOfTheOrdersToReadForClient(listOfOrdersWhoNeedToByPreparedByAgv)

activate REPOSITORY_ORDERS
deactivate REPOSITORY_ORDERS

CONTROLLER - -> UI : listOfOrdersWhoNeedToByPreparedByAgv
deactivate CONTROLLER

UI - -> EMPLOYEE : Shows the list of products prepared by the selected AGV

deactivate UI

deactivate EMPLOYEE

@enduml

@startuml

actor "Warehouse Employee" as EMPLOYEE
participant ListOrdersBeingPreparedUI as UI <<presentation>>
participant ListOrdersBeingPreparedController as CONTROLLER <<application>>
participant AGVTask as TASK <<domain>>
participant agvDto as DTO  <<dto>>
participant PersistenceContext as PERSISTENCE <<persistence>>
participant RepositoryFactory as FACTORY <<factory>>
database AGVRepository as REPOSITORY_AGV <<repository>>
database ProductOrderRepository as REPOSITORY_ORDERS <<repository>>

EMPLOYEE -> UI: Ask for the list of products prepared by an
activate EMPLOYEE
activate UI

UI -> CONTROLLER: create()

activate CONTROLLER
deactivate CONTROLLER

UI -> CONTROLLER : getAGVsAvaiable()
activate CONTROLLER

CONTROLLER -> PERSISTENCE : repositories()

activate PERSISTENCE

PERSISTENCE -> FACTORY : create()

activate FACTORY
deactivate FACTORY

PERSISTENCE - -> CONTROLLER : repositoryFactory

deactivate PERSISTENCE

CONTROLLER -> FACTORY : getAGVRepository()

activate FACTORY

FACTORY -> REPOSITORY_AGV : create()

activate REPOSITORY_AGV
deactivate REPOSITORY_AGV

FACTORY - -> CONTROLLER : agvRepository
deactivate FACTORY

CONTROLLER -> REPOSITORY_AGV : getAGVsAvaiable()

activate REPOSITORY_AGV

REPOSITORY_AGV - -> CONTROLLER : agvsAvaiable

deactivate REPOSITORY_AGV

CONTROLLER -> DTO : toDto()

activate DTO

DTO -> CONTROLLER : agvsAvaiableDto

deactivate DTO

CONTROLLER - -> UI : agvsAvaiable
deactivate CONTROLLER

UI - -> EMPLOYEE: Shows the list of AGVs and asks to select one


deactivate CONTROLLER
deactivate UI

EMPLOYEE -> UI : Select the AGV

activate UI

UI -> CONTROLLER : getOrdersWhoNeedToBePreparedByAGV(selectedAGV)

activate CONTROLLER

CONTROLLER -> FACTORY : getOrderRepository()

activate FACTORY

FACTORY - -> CONTROLLER : orderRepository

deactivate FACTORY

CONTROLLER -> REPOSITORY_ORDERS : getOrdersWhoNeedToBePreparedByAGV(selectedAGV)

activate REPOSITORY_ORDERS

REPOSITORY_ORDERS - -> CONTROLLER : listOfOrdersWhoNeedToByPreparedByAgv
deactivate REPOSITORY_ORDERS

CONTROLLER -> TASK : associateOrdersToAgvSelected(listOfOrdersWhoNeedToByPreparedByAgv, agvSelected)

activate TASK
deactivate TASK

CONTROLLER -> REPOSITORY_ORDERS : changeTheStatusOfTheOrdersToReadForClient(listOfOrdersWhoNeedToByPreparedByAgv)

activate REPOSITORY_ORDERS
deactivate REPOSITORY_ORDERS

CONTROLLER - -> UI : listOfOrdersWhoNeedToByPreparedByAgv
deactivate CONTROLLER

UI - -> EMPLOYEE : Shows the list of products prepared by the selected AGV

deactivate UI

deactivate EMPLOYEE

@enduml

PlantUML version 1.2022.1(Tue Feb 01 18:19:58 GMT 2022)
(GPL source distribution)
Java Runtime: OpenJDK Runtime Environment
JVM: OpenJDK 64-Bit Server VM
Default Encoding: Cp1252
Language: pt
Country: BR
--></g></svg>