<?xml version="1.0" encoding="UTF-8" standalone="no"?><svg xmlns="http://www.w3.org/2000/svg" xmlns:xlink="http://www.w3.org/1999/xlink" contentScriptType="application/ecmascript" contentStyleType="text/css" height="1747px" preserveAspectRatio="none" style="width:2408px;height:1747px;background:#FFFFFF;" version="1.1" viewBox="0 0 2408 1747" width="2408px" zoomAndPan="magnify"><defs><filter height="300%" id="f19h5gfknjcs8f" width="300%" x="-1" y="-1"><feGaussianBlur result="blurOut" stdDeviation="2.0"/><feColorMatrix in="blurOut" result="blurOut2" type="matrix" values="0 0 0 0 0 0 0 0 0 0 0 0 0 0 0 0 0 0 .4 0"/><feOffset dx="4.0" dy="4.0" in="blurOut2" result="blurOut3"/><feBlend in="SourceGraphic" in2="blurOut3" mode="normal"/></filter></defs><g><rect fill="#FFFFFF" filter="url(#f19h5gfknjcs8f)" height="1518.4141" style="stroke:#A80036;stroke-width:1.0;" width="10" x="72.5" y="121.9609"/><rect fill="#FFFFFF" filter="url(#f19h5gfknjcs8f)" height="514.9219" style="stroke:#A80036;stroke-width:1.0;" width="10" x="541.5" y="121.9609"/><rect fill="#FFFFFF" filter="url(#f19h5gfknjcs8f)" height="637.9766" style="stroke:#A80036;stroke-width:1.0;" width="10" x="541.5" y="667.2344"/><rect fill="#FFFFFF" filter="url(#f19h5gfknjcs8f)" height="304.8125" style="stroke:#A80036;stroke-width:1.0;" width="10" x="541.5" y="1335.5625"/><rect fill="#FFFFFF" filter="url(#f19h5gfknjcs8f)" height="30" style="stroke:#A80036;stroke-width:1.0;" width="10" x="1005.5" y="152.3125"/><rect fill="#FFFFFF" filter="url(#f19h5gfknjcs8f)" height="393.8672" style="stroke:#A80036;stroke-width:1.0;" width="10" x="1005.5" y="212.6641"/><rect fill="#FFFFFF" filter="url(#f19h5gfknjcs8f)" height="577.2734" style="stroke:#A80036;stroke-width:1.0;" width="10" x="1005.5" y="697.5859"/><rect fill="#FFFFFF" filter="url(#f19h5gfknjcs8f)" height="274.4609" style="stroke:#A80036;stroke-width:1.0;" width="10" x="1005.5" y="1365.9141"/><rect fill="#FFFFFF" filter="url(#f19h5gfknjcs8f)" height="90.7031" style="stroke:#A80036;stroke-width:1.0;" width="10" x="1326.5" y="910.0469"/><rect fill="#FFFFFF" filter="url(#f19h5gfknjcs8f)" height="30" style="stroke:#A80036;stroke-width:1.0;" width="10" x="1326.5" y="1116.8047"/><rect fill="#FFFFFF" filter="url(#f19h5gfknjcs8f)" height="30" style="stroke:#A80036;stroke-width:1.0;" width="10" x="1575.5" y="940.3984"/><rect fill="#FFFFFF" filter="url(#f19h5gfknjcs8f)" height="30" style="stroke:#A80036;stroke-width:1.0;" width="10" x="1677.5" y="1056.4531"/><rect fill="#FFFFFF" filter="url(#f19h5gfknjcs8f)" height="30.3516" style="stroke:#A80036;stroke-width:1.0;" width="10" x="1677.5" y="1421.6172"/><rect fill="#FFFFFF" filter="url(#f19h5gfknjcs8f)" height="30" style="stroke:#A80036;stroke-width:1.0;" width="10" x="1677.5" y="1482.3203"/><rect fill="#FFFFFF" filter="url(#f19h5gfknjcs8f)" height="30.3516" style="stroke:#A80036;stroke-width:1.0;" width="10" x="1771" y="545.8281"/><rect fill="#FFFFFF" filter="url(#f19h5gfknjcs8f)" height="90.7031" style="stroke:#A80036;stroke-width:1.0;" width="10" x="1882.5" y="243.0156"/><rect fill="#FFFFFF" filter="url(#f19h5gfknjcs8f)" height="30" style="stroke:#A80036;stroke-width:1.0;" width="10" x="2029.5" y="273.3672"/><rect fill="#FFFFFF" filter="url(#f19h5gfknjcs8f)" height="90.7031" style="stroke:#A80036;stroke-width:1.0;" width="10" x="2029.5" y="364.0703"/><rect fill="#FFFFFF" filter="url(#f19h5gfknjcs8f)" height="30.3516" style="stroke:#A80036;stroke-width:1.0;" width="10" x="2029.5" y="727.9375"/><rect fill="#FFFFFF" filter="url(#f19h5gfknjcs8f)" height="30" style="stroke:#A80036;stroke-width:1.0;" width="10" x="2158" y="394.4219"/><rect fill="#FFFFFF" filter="url(#f19h5gfknjcs8f)" height="30.3516" style="stroke:#A80036;stroke-width:1.0;" width="10" x="2158" y="485.125"/><rect fill="#FFFFFF" filter="url(#f19h5gfknjcs8f)" height="30.3516" style="stroke:#A80036;stroke-width:1.0;" width="10" x="2158" y="849.3438"/><rect fill="#FFFFFF" filter="url(#f19h5gfknjcs8f)" height="30" style="stroke:#A80036;stroke-width:1.0;" width="10" x="2158" y="1177.1563"/><rect fill="#FFFFFF" filter="url(#f19h5gfknjcs8f)" height="30.3516" style="stroke:#A80036;stroke-width:1.0;" width="10" x="2299.5" y="788.6406"/><rect fill="#FFFFFF" filter="url(#f19h5gfknjcs8f)" height="30" style="stroke:#A80036;stroke-width:1.0;" width="10" x="2299.5" y="1542.6719"/><rect fill="#FFFFFF" filter="url(#f19h5gfknjcs8f)" height="229.7578" style="stroke:#000000;stroke-width:2.0;" width="1514.5" x="880" y="1015.75"/><rect fill="#FFFFFF" filter="url(#f19h5gfknjcs8f)" height="199.7578" style="stroke:#000000;stroke-width:2.0;" width="1514.5" x="880" y="1380.9141"/><line style="stroke:#A80036;stroke-width:1.0;stroke-dasharray:5.0,5.0;" x1="77" x2="77" y1="89.6094" y2="1658.375"/><line style="stroke:#A80036;stroke-width:1.0;stroke-dasharray:5.0,5.0;" x1="546" x2="546" y1="89.6094" y2="1658.375"/><line style="stroke:#A80036;stroke-width:1.0;stroke-dasharray:5.0,5.0;" x1="1010" x2="1010" y1="89.6094" y2="1658.375"/><line style="stroke:#A80036;stroke-width:1.0;stroke-dasharray:5.0,5.0;" x1="1331" x2="1331" y1="89.6094" y2="1658.375"/><line style="stroke:#A80036;stroke-width:1.0;stroke-dasharray:5.0,5.0;" x1="1580.5" x2="1580.5" y1="89.6094" y2="1658.375"/><line style="stroke:#A80036;stroke-width:1.0;stroke-dasharray:5.0,5.0;" x1="1682.5" x2="1682.5" y1="89.6094" y2="1658.375"/><line style="stroke:#A80036;stroke-width:1.0;stroke-dasharray:5.0,5.0;" x1="1775.5" x2="1775.5" y1="89.6094" y2="1658.375"/><line style="stroke:#A80036;stroke-width:1.0;stroke-dasharray:5.0,5.0;" x1="1887.5" x2="1887.5" y1="89.6094" y2="1658.375"/><line style="stroke:#A80036;stroke-width:1.0;stroke-dasharray:5.0,5.0;" x1="2034.5" x2="2034.5" y1="89.6094" y2="1658.375"/><line style="stroke:#A80036;stroke-width:1.0;stroke-dasharray:5.0,5.0;" x1="2162.5" x2="2162.5" y1="89.6094" y2="1658.375"/><line style="stroke:#A80036;stroke-width:1.0;stroke-dasharray:5.0,5.0;" x1="2304.5" x2="2304.5" y1="89.6094" y2="1658.375"/><text fill="#000000" font-family="sans-serif" font-size="14" lengthAdjust="spacing" textLength="139" x="5" y="86.5332">Warehouse Employee</text><ellipse cx="77.5" cy="15" fill="#FEFECE" filter="url(#f19h5gfknjcs8f)" rx="8" ry="8" style="stroke:#A80036;stroke-width:2.0;"/><path d="M77.5,23 L77.5,50 M64.5,31 L90.5,31 M77.5,50 L64.5,65 M77.5,50 L90.5,65 " fill="none" filter="url(#f19h5gfknjcs8f)" style="stroke:#A80036;stroke-width:2.0;"/><text fill="#000000" font-family="sans-serif" font-size="14" lengthAdjust="spacing" textLength="139" x="5" y="1671.9082">Warehouse Employee</text><ellipse cx="77.5" cy="1684.9844" fill="#FEFECE" filter="url(#f19h5gfknjcs8f)" rx="8" ry="8" style="stroke:#A80036;stroke-width:2.0;"/><path d="M77.5,1692.9844 L77.5,1719.9844 M64.5,1700.9844 L90.5,1700.9844 M77.5,1719.9844 L64.5,1734.9844 M77.5,1719.9844 L90.5,1734.9844 " fill="none" filter="url(#f19h5gfknjcs8f)" style="stroke:#A80036;stroke-width:2.0;"/><rect fill="#FEFECE" filter="url(#f19h5gfknjcs8f)" height="49.2188" style="stroke:#A80036;stroke-width:1.5;" width="187" x="451" y="35.3906"/><text fill="#000000" font-family="sans-serif" font-size="14" font-style="italic" lengthAdjust="spacing" textLength="95" x="497" y="56.9238">«presentation»</text><text fill="#000000" font-family="sans-serif" font-size="14" lengthAdjust="spacing" textLength="173" x="458" y="74.5332">ListOrdersBeingPreparedUI</text><rect fill="#FEFECE" filter="url(#f19h5gfknjcs8f)" height="49.2188" style="stroke:#A80036;stroke-width:1.5;" width="187" x="451" y="1657.375"/><text fill="#000000" font-family="sans-serif" font-size="14" font-style="italic" lengthAdjust="spacing" textLength="95" x="497" y="1678.9082">«presentation»</text><text fill="#000000" font-family="sans-serif" font-size="14" lengthAdjust="spacing" textLength="173" x="458" y="1696.5176">ListOrdersBeingPreparedUI</text><rect fill="#FEFECE" filter="url(#f19h5gfknjcs8f)" height="49.2188" style="stroke:#A80036;stroke-width:1.5;" width="237" x="890" y="35.3906"/><text fill="#000000" font-family="sans-serif" font-size="14" font-style="italic" lengthAdjust="spacing" textLength="84" x="966.5" y="56.9238">«application»</text><text fill="#000000" font-family="sans-serif" font-size="14" lengthAdjust="spacing" textLength="223" x="897" y="74.5332">ListOrdersBeingPreparedController</text><rect fill="#FEFECE" filter="url(#f19h5gfknjcs8f)" height="49.2188" style="stroke:#A80036;stroke-width:1.5;" width="237" x="890" y="1657.375"/><text fill="#000000" font-family="sans-serif" font-size="14" font-style="italic" lengthAdjust="spacing" textLength="84" x="966.5" y="1678.9082">«application»</text><text fill="#000000" font-family="sans-serif" font-size="14" lengthAdjust="spacing" textLength="223" x="897" y="1696.5176">ListOrdersBeingPreparedController</text><rect fill="#FEFECE" filter="url(#f19h5gfknjcs8f)" height="49.2188" style="stroke:#A80036;stroke-width:1.5;" width="133" x="1263" y="35.3906"/><text fill="#000000" font-family="sans-serif" font-size="14" font-style="italic" lengthAdjust="spacing" textLength="62" x="1298.5" y="56.9238">«domain»</text><text fill="#000000" font-family="sans-serif" font-size="14" lengthAdjust="spacing" textLength="119" x="1270" y="74.5332">agvSelected : AGV</text><rect fill="#FEFECE" filter="url(#f19h5gfknjcs8f)" height="49.2188" style="stroke:#A80036;stroke-width:1.5;" width="133" x="1263" y="1657.375"/><text fill="#000000" font-family="sans-serif" font-size="14" font-style="italic" lengthAdjust="spacing" textLength="62" x="1298.5" y="1678.9082">«domain»</text><text fill="#000000" font-family="sans-serif" font-size="14" lengthAdjust="spacing" textLength="119" x="1270" y="1696.5176">agvSelected : AGV</text><rect fill="#FEFECE" filter="url(#f19h5gfknjcs8f)" height="49.2188" style="stroke:#A80036;stroke-width:1.5;" width="76" x="1540.5" y="35.3906"/><text fill="#000000" font-family="sans-serif" font-size="14" font-style="italic" lengthAdjust="spacing" textLength="62" x="1547.5" y="56.9238">«domain»</text><text fill="#000000" font-family="sans-serif" font-size="14" lengthAdjust="spacing" textLength="60" x="1548.5" y="74.5332">AGVTask</text><rect fill="#FEFECE" filter="url(#f19h5gfknjcs8f)" height="49.2188" style="stroke:#A80036;stroke-width:1.5;" width="76" x="1540.5" y="1657.375"/><text fill="#000000" font-family="sans-serif" font-size="14" font-style="italic" lengthAdjust="spacing" textLength="62" x="1547.5" y="1678.9082">«domain»</text><text fill="#000000" font-family="sans-serif" font-size="14" lengthAdjust="spacing" textLength="60" x="1548.5" y="1696.5176">AGVTask</text><rect fill="#FEFECE" filter="url(#f19h5gfknjcs8f)" height="49.2188" style="stroke:#A80036;stroke-width:1.5;" width="100" x="1630.5" y="35.3906"/><text fill="#000000" font-family="sans-serif" font-size="14" font-style="italic" lengthAdjust="spacing" textLength="62" x="1649.5" y="56.9238">«domain»</text><text fill="#000000" font-family="sans-serif" font-size="14" lengthAdjust="spacing" textLength="86" x="1637.5" y="74.5332">ProductOrder</text><rect fill="#FEFECE" filter="url(#f19h5gfknjcs8f)" height="49.2188" style="stroke:#A80036;stroke-width:1.5;" width="100" x="1630.5" y="1657.375"/><text fill="#000000" font-family="sans-serif" font-size="14" font-style="italic" lengthAdjust="spacing" textLength="62" x="1649.5" y="1678.9082">«domain»</text><text fill="#000000" font-family="sans-serif" font-size="14" lengthAdjust="spacing" textLength="86" x="1637.5" y="1696.5176">ProductOrder</text><rect fill="#FEFECE" filter="url(#f19h5gfknjcs8f)" height="49.2188" style="stroke:#A80036;stroke-width:1.5;" width="59" x="1744.5" y="35.3906"/><text fill="#000000" font-family="sans-serif" font-size="14" font-style="italic" lengthAdjust="spacing" textLength="36" x="1756" y="56.9238">«dto»</text><text fill="#000000" font-family="sans-serif" font-size="14" lengthAdjust="spacing" textLength="45" x="1751.5" y="74.5332">agvDto</text><rect fill="#FEFECE" filter="url(#f19h5gfknjcs8f)" height="49.2188" style="stroke:#A80036;stroke-width:1.5;" width="59" x="1744.5" y="1657.375"/><text fill="#000000" font-family="sans-serif" font-size="14" font-style="italic" lengthAdjust="spacing" textLength="36" x="1756" y="1678.9082">«dto»</text><text fill="#000000" font-family="sans-serif" font-size="14" lengthAdjust="spacing" textLength="45" x="1751.5" y="1696.5176">agvDto</text><rect fill="#FEFECE" filter="url(#f19h5gfknjcs8f)" height="49.2188" style="stroke:#A80036;stroke-width:1.5;" width="136" x="1817.5" y="35.3906"/><text fill="#000000" font-family="sans-serif" font-size="14" font-style="italic" lengthAdjust="spacing" textLength="89" x="1841" y="56.9238">«persistence»</text><text fill="#000000" font-family="sans-serif" font-size="14" lengthAdjust="spacing" textLength="122" x="1824.5" y="74.5332">PersistenceContext</text><rect fill="#FEFECE" filter="url(#f19h5gfknjcs8f)" height="49.2188" style="stroke:#A80036;stroke-width:1.5;" width="136" x="1817.5" y="1657.375"/><text fill="#000000" font-family="sans-serif" font-size="14" font-style="italic" lengthAdjust="spacing" textLength="89" x="1841" y="1678.9082">«persistence»</text><text fill="#000000" font-family="sans-serif" font-size="14" lengthAdjust="spacing" textLength="122" x="1824.5" y="1696.5176">PersistenceContext</text><rect fill="#FEFECE" filter="url(#f19h5gfknjcs8f)" height="49.2188" style="stroke:#A80036;stroke-width:1.5;" width="130" x="1967.5" y="35.3906"/><text fill="#000000" font-family="sans-serif" font-size="14" font-style="italic" lengthAdjust="spacing" textLength="59" x="2003" y="56.9238">«factory»</text><text fill="#000000" font-family="sans-serif" font-size="14" lengthAdjust="spacing" textLength="116" x="1974.5" y="74.5332">RepositoryFactory</text><rect fill="#FEFECE" filter="url(#f19h5gfknjcs8f)" height="49.2188" style="stroke:#A80036;stroke-width:1.5;" width="130" x="1967.5" y="1657.375"/><text fill="#000000" font-family="sans-serif" font-size="14" font-style="italic" lengthAdjust="spacing" textLength="59" x="2003" y="1678.9082">«factory»</text><text fill="#000000" font-family="sans-serif" font-size="14" lengthAdjust="spacing" textLength="116" x="1974.5" y="1696.5176">RepositoryFactory</text><text fill="#000000" font-family="sans-serif" font-size="14" font-style="italic" lengthAdjust="spacing" textLength="79" x="2120.5" y="68.9238">«repository»</text><text fill="#000000" font-family="sans-serif" font-size="14" lengthAdjust="spacing" textLength="97" x="2111.5" y="86.5332">AGVRepository</text><path d="M2145,18.3906 C2145,8.3906 2163,8.3906 2163,8.3906 C2163,8.3906 2181,8.3906 2181,18.3906 L2181,44.3906 C2181,54.3906 2163,54.3906 2163,54.3906 C2163,54.3906 2145,54.3906 2145,44.3906 L2145,18.3906 " fill="#FEFECE" filter="url(#f19h5gfknjcs8f)" style="stroke:#000000;stroke-width:1.5;"/><path d="M2145,18.3906 C2145,28.3906 2163,28.3906 2163,28.3906 C2163,28.3906 2181,28.3906 2181,18.3906 " fill="none" style="stroke:#000000;stroke-width:1.5;"/><text fill="#000000" font-family="sans-serif" font-size="14" font-style="italic" lengthAdjust="spacing" textLength="79" x="2120.5" y="1671.9082">«repository»</text><text fill="#000000" font-family="sans-serif" font-size="14" lengthAdjust="spacing" textLength="97" x="2111.5" y="1689.5176">AGVRepository</text><path d="M2145,1702.5938 C2145,1692.5938 2163,1692.5938 2163,1692.5938 C2163,1692.5938 2181,1692.5938 2181,1702.5938 L2181,1728.5938 C2181,1738.5938 2163,1738.5938 2163,1738.5938 C2163,1738.5938 2145,1738.5938 2145,1728.5938 L2145,1702.5938 " fill="#FEFECE" filter="url(#f19h5gfknjcs8f)" style="stroke:#000000;stroke-width:1.5;"/><path d="M2145,1702.5938 C2145,1712.5938 2163,1712.5938 2163,1712.5938 C2163,1712.5938 2181,1712.5938 2181,1702.5938 " fill="none" style="stroke:#000000;stroke-width:1.5;"/><text fill="#000000" font-family="sans-serif" font-size="14" font-style="italic" lengthAdjust="spacing" textLength="79" x="2262" y="68.9238">«repository»</text><text fill="#000000" font-family="sans-serif" font-size="14" lengthAdjust="spacing" textLength="154" x="2224.5" y="86.5332">ProductOrderRepository</text><path d="M2286.5,18.3906 C2286.5,8.3906 2304.5,8.3906 2304.5,8.3906 C2304.5,8.3906 2322.5,8.3906 2322.5,18.3906 L2322.5,44.3906 C2322.5,54.3906 2304.5,54.3906 2304.5,54.3906 C2304.5,54.3906 2286.5,54.3906 2286.5,44.3906 L2286.5,18.3906 " fill="#FEFECE" filter="url(#f19h5gfknjcs8f)" style="stroke:#000000;stroke-width:1.5;"/><path d="M2286.5,18.3906 C2286.5,28.3906 2304.5,28.3906 2304.5,28.3906 C2304.5,28.3906 2322.5,28.3906 2322.5,18.3906 " fill="none" style="stroke:#000000;stroke-width:1.5;"/><text fill="#000000" font-family="sans-serif" font-size="14" font-style="italic" lengthAdjust="spacing" textLength="79" x="2262" y="1671.9082">«repository»</text><text fill="#000000" font-family="sans-serif" font-size="14" lengthAdjust="spacing" textLength="154" x="2224.5" y="1689.5176">ProductOrderRepository</text><path d="M2286.5,1702.5938 C2286.5,1692.5938 2304.5,1692.5938 2304.5,1692.5938 C2304.5,1692.5938 2322.5,1692.5938 2322.5,1702.5938 L2322.5,1728.5938 C2322.5,1738.5938 2304.5,1738.5938 2304.5,1738.5938 C2304.5,1738.5938 2286.5,1738.5938 2286.5,1728.5938 L2286.5,1702.5938 " fill="#FEFECE" filter="url(#f19h5gfknjcs8f)" style="stroke:#000000;stroke-width:1.5;"/><path d="M2286.5,1702.5938 C2286.5,1712.5938 2304.5,1712.5938 2304.5,1712.5938 C2304.5,1712.5938 2322.5,1712.5938 2322.5,1702.5938 " fill="none" style="stroke:#000000;stroke-width:1.5;"/><rect fill="#FFFFFF" filter="url(#f19h5gfknjcs8f)" height="1518.4141" style="stroke:#A80036;stroke-width:1.0;" width="10" x="72.5" y="121.9609"/><rect fill="#FFFFFF" filter="url(#f19h5gfknjcs8f)" height="514.9219" style="stroke:#A80036;stroke-width:1.0;" width="10" x="541.5" y="121.9609"/><rect fill="#FFFFFF" filter="url(#f19h5gfknjcs8f)" height="637.9766" style="stroke:#A80036;stroke-width:1.0;" width="10" x="541.5" y="667.2344"/><rect fill="#FFFFFF" filter="url(#f19h5gfknjcs8f)" height="304.8125" style="stroke:#A80036;stroke-width:1.0;" width="10" x="541.5" y="1335.5625"/><rect fill="#FFFFFF" filter="url(#f19h5gfknjcs8f)" height="30" style="stroke:#A80036;stroke-width:1.0;" width="10" x="1005.5" y="152.3125"/><rect fill="#FFFFFF" filter="url(#f19h5gfknjcs8f)" height="393.8672" style="stroke:#A80036;stroke-width:1.0;" width="10" x="1005.5" y="212.6641"/><rect fill="#FFFFFF" filter="url(#f19h5gfknjcs8f)" height="577.2734" style="stroke:#A80036;stroke-width:1.0;" width="10" x="1005.5" y="697.5859"/><rect fill="#FFFFFF" filter="url(#f19h5gfknjcs8f)" height="274.4609" style="stroke:#A80036;stroke-width:1.0;" width="10" x="1005.5" y="1365.9141"/><rect fill="#FFFFFF" filter="url(#f19h5gfknjcs8f)" height="90.7031" style="stroke:#A80036;stroke-width:1.0;" width="10" x="1326.5" y="910.0469"/><rect fill="#FFFFFF" filter="url(#f19h5gfknjcs8f)" height="30" style="stroke:#A80036;stroke-width:1.0;" width="10" x="1326.5" y="1116.8047"/><rect fill="#FFFFFF" filter="url(#f19h5gfknjcs8f)" height="30" style="stroke:#A80036;stroke-width:1.0;" width="10" x="1575.5" y="940.3984"/><rect fill="#FFFFFF" filter="url(#f19h5gfknjcs8f)" height="30" style="stroke:#A80036;stroke-width:1.0;" width="10" x="1677.5" y="1056.4531"/><rect fill="#FFFFFF" filter="url(#f19h5gfknjcs8f)" height="30.3516" style="stroke:#A80036;stroke-width:1.0;" width="10" x="1677.5" y="1421.6172"/><rect fill="#FFFFFF" filter="url(#f19h5gfknjcs8f)" height="30" style="stroke:#A80036;stroke-width:1.0;" width="10" x="1677.5" y="1482.3203"/><rect fill="#FFFFFF" filter="url(#f19h5gfknjcs8f)" height="30.3516" style="stroke:#A80036;stroke-width:1.0;" width="10" x="1771" y="545.8281"/><rect fill="#FFFFFF" filter="url(#f19h5gfknjcs8f)" height="90.7031" style="stroke:#A80036;stroke-width:1.0;" width="10" x="1882.5" y="243.0156"/><rect fill="#FFFFFF" filter="url(#f19h5gfknjcs8f)" height="30" style="stroke:#A80036;stroke-width:1.0;" width="10" x="2029.5" y="273.3672"/><rect fill="#FFFFFF" filter="url(#f19h5gfknjcs8f)" height="90.7031" style="stroke:#A80036;stroke-width:1.0;" width="10" x="2029.5" y="364.0703"/><rect fill="#FFFFFF" filter="url(#f19h5gfknjcs8f)" height="30.3516" style="stroke:#A80036;stroke-width:1.0;" width="10" x="2029.5" y="727.9375"/><rect fill="#FFFFFF" filter="url(#f19h5gfknjcs8f)" height="30" style="stroke:#A80036;stroke-width:1.0;" width="10" x="2158" y="394.4219"/><rect fill="#FFFFFF" filter="url(#f19h5gfknjcs8f)" height="30.3516" style="stroke:#A80036;stroke-width:1.0;" width="10" x="2158" y="485.125"/><rect fill="#FFFFFF" filter="url(#f19h5gfknjcs8f)" height="30.3516" style="stroke:#A80036;stroke-width:1.0;" width="10" x="2158" y="849.3438"/><rect fill="#FFFFFF" filter="url(#f19h5gfknjcs8f)" height="30" style="stroke:#A80036;stroke-width:1.0;" width="10" x="2158" y="1177.1563"/><rect fill="#FFFFFF" filter="url(#f19h5gfknjcs8f)" height="30.3516" style="stroke:#A80036;stroke-width:1.0;" width="10" x="2299.5" y="788.6406"/><rect fill="#FFFFFF" filter="url(#f19h5gfknjcs8f)" height="30" style="stroke:#A80036;stroke-width:1.0;" width="10" x="2299.5" y="1542.6719"/><polygon fill="#A80036" points="529.5,117.9609,539.5,121.9609,529.5,125.9609,533.5,121.9609" style="stroke:#A80036;stroke-width:1.0;"/><line style="stroke:#A80036;stroke-width:1.0;" x1="82.5" x2="535.5" y1="121.9609" y2="121.9609"/><text fill="#000000" font-family="sans-serif" font-size="13" lengthAdjust="spacing" textLength="242" x="89.5" y="117.1045">Ask for the list of products prepared by an</text><polygon fill="#A80036" points="993.5,148.3125,1003.5,152.3125,993.5,156.3125,997.5,152.3125" style="stroke:#A80036;stroke-width:1.0;"/><line style="stroke:#A80036;stroke-width:1.0;" x1="551.5" x2="999.5" y1="152.3125" y2="152.3125"/><text fill="#000000" font-family="sans-serif" font-size="13" lengthAdjust="spacing" textLength="44" x="558.5" y="147.4561">create()</text><polygon fill="#A80036" points="993.5,208.6641,1003.5,212.6641,993.5,216.6641,997.5,212.6641" style="stroke:#A80036;stroke-width:1.0;"/><line style="stroke:#A80036;stroke-width:1.0;" x1="551.5" x2="999.5" y1="212.6641" y2="212.6641"/><text fill="#000000" font-family="sans-serif" font-size="13" lengthAdjust="spacing" textLength="109" x="558.5" y="207.8076">getAGVsAvaiable()</text><polygon fill="#A80036" points="1870.5,239.0156,1880.5,243.0156,1870.5,247.0156,1874.5,243.0156" style="stroke:#A80036;stroke-width:1.0;"/><line style="stroke:#A80036;stroke-width:1.0;" x1="1015.5" x2="1876.5" y1="243.0156" y2="243.0156"/><text fill="#000000" font-family="sans-serif" font-size="13" lengthAdjust="spacing" textLength="75" x="1022.5" y="238.1592">repositories()</text><polygon fill="#A80036" points="2017.5,269.3672,2027.5,273.3672,2017.5,277.3672,2021.5,273.3672" style="stroke:#A80036;stroke-width:1.0;"/><line style="stroke:#A80036;stroke-width:1.0;" x1="1892.5" x2="2023.5" y1="273.3672" y2="273.3672"/><text fill="#000000" font-family="sans-serif" font-size="13" lengthAdjust="spacing" textLength="44" x="1899.5" y="268.5107">create()</text><polygon fill="#A80036" points="1026.5,329.7188,1016.5,333.7188,1026.5,337.7188,1022.5,333.7188" style="stroke:#A80036;stroke-width:1.0;"/><line style="stroke:#A80036;stroke-width:1.0;stroke-dasharray:2.0,2.0;" x1="1020.5" x2="1886.5" y1="333.7188" y2="333.7188"/><text fill="#000000" font-family="sans-serif" font-size="13" lengthAdjust="spacing" textLength="101" x="1032.5" y="328.8623">repositoryFactory</text><polygon fill="#A80036" points="2017.5,360.0703,2027.5,364.0703,2017.5,368.0703,2021.5,364.0703" style="stroke:#A80036;stroke-width:1.0;"/><line style="stroke:#A80036;stroke-width:1.0;" x1="1015.5" x2="2023.5" y1="364.0703" y2="364.0703"/><text fill="#000000" font-family="sans-serif" font-size="13" lengthAdjust="spacing" textLength="116" x="1022.5" y="359.2139">getAGVRepository()</text><polygon fill="#A80036" points="2146,390.4219,2156,394.4219,2146,398.4219,2150,394.4219" style="stroke:#A80036;stroke-width:1.0;"/><line style="stroke:#A80036;stroke-width:1.0;" x1="2039.5" x2="2152" y1="394.4219" y2="394.4219"/><text fill="#000000" font-family="sans-serif" font-size="13" lengthAdjust="spacing" textLength="44" x="2046.5" y="389.5654">create()</text><polygon fill="#A80036" points="1026.5,450.7734,1016.5,454.7734,1026.5,458.7734,1022.5,454.7734" style="stroke:#A80036;stroke-width:1.0;"/><line style="stroke:#A80036;stroke-width:1.0;stroke-dasharray:2.0,2.0;" x1="1020.5" x2="2033.5" y1="454.7734" y2="454.7734"/><text fill="#000000" font-family="sans-serif" font-size="13" lengthAdjust="spacing" textLength="81" x="1032.5" y="449.917">agvRepository</text><polygon fill="#A80036" points="2146,481.125,2156,485.125,2146,489.125,2150,485.125" style="stroke:#A80036;stroke-width:1.0;"/><line style="stroke:#A80036;stroke-width:1.0;" x1="1015.5" x2="2152" y1="485.125" y2="485.125"/><text fill="#000000" font-family="sans-serif" font-size="13" lengthAdjust="spacing" textLength="109" x="1022.5" y="480.2686">getAGVsAvaiable()</text><polygon fill="#A80036" points="1026.5,511.4766,1016.5,515.4766,1026.5,519.4766,1022.5,515.4766" style="stroke:#A80036;stroke-width:1.0;"/><line style="stroke:#A80036;stroke-width:1.0;stroke-dasharray:2.0,2.0;" x1="1020.5" x2="2162" y1="515.4766" y2="515.4766"/><text fill="#000000" font-family="sans-serif" font-size="13" lengthAdjust="spacing" textLength="74" x="1032.5" y="510.6201">agvsAvaiable</text><polygon fill="#A80036" points="1759,541.8281,1769,545.8281,1759,549.8281,1763,545.8281" style="stroke:#A80036;stroke-width:1.0;"/><line style="stroke:#A80036;stroke-width:1.0;" x1="1015.5" x2="1765" y1="545.8281" y2="545.8281"/><text fill="#000000" font-family="sans-serif" font-size="13" lengthAdjust="spacing" textLength="39" x="1022.5" y="540.9717">toDto()</text><polygon fill="#A80036" points="1026.5,572.1797,1016.5,576.1797,1026.5,580.1797,1022.5,576.1797" style="stroke:#A80036;stroke-width:1.0;"/><line style="stroke:#A80036;stroke-width:1.0;" x1="1020.5" x2="1775" y1="576.1797" y2="576.1797"/><text fill="#000000" font-family="sans-serif" font-size="13" lengthAdjust="spacing" textLength="94" x="1032.5" y="571.3232">agvsAvaiableDto</text><polygon fill="#A80036" points="562.5,602.5313,552.5,606.5313,562.5,610.5313,558.5,606.5313" style="stroke:#A80036;stroke-width:1.0;"/><line style="stroke:#A80036;stroke-width:1.0;stroke-dasharray:2.0,2.0;" x1="556.5" x2="1009.5" y1="606.5313" y2="606.5313"/><text fill="#000000" font-family="sans-serif" font-size="13" lengthAdjust="spacing" textLength="94" x="568.5" y="601.6748">agvsAvaiableDto</text><polygon fill="#A80036" points="93.5,632.8828,83.5,636.8828,93.5,640.8828,89.5,636.8828" style="stroke:#A80036;stroke-width:1.0;"/><line style="stroke:#A80036;stroke-width:1.0;stroke-dasharray:2.0,2.0;" x1="87.5" x2="545.5" y1="636.8828" y2="636.8828"/><text fill="#000000" font-family="sans-serif" font-size="13" lengthAdjust="spacing" textLength="271" x="99.5" y="632.0264">Shows the list of AGVs and asks to select one</text><polygon fill="#A80036" points="529.5,663.2344,539.5,667.2344,529.5,671.2344,533.5,667.2344" style="stroke:#A80036;stroke-width:1.0;"/><line style="stroke:#A80036;stroke-width:1.0;" x1="82.5" x2="535.5" y1="667.2344" y2="667.2344"/><text fill="#000000" font-family="sans-serif" font-size="13" lengthAdjust="spacing" textLength="91" x="89.5" y="662.3779">Select the AGV</text><polygon fill="#A80036" points="993.5,693.5859,1003.5,697.5859,993.5,701.5859,997.5,697.5859" style="stroke:#A80036;stroke-width:1.0;"/><line style="stroke:#A80036;stroke-width:1.0;" x1="551.5" x2="999.5" y1="697.5859" y2="697.5859"/><text fill="#000000" font-family="sans-serif" font-size="13" lengthAdjust="spacing" textLength="384" x="558.5" y="692.7295">getOrdersWhoNeedToBePreparedByAGV(idAGV, taskDescription)</text><polygon fill="#A80036" points="2017.5,723.9375,2027.5,727.9375,2017.5,731.9375,2021.5,727.9375" style="stroke:#A80036;stroke-width:1.0;"/><line style="stroke:#A80036;stroke-width:1.0;" x1="1015.5" x2="2023.5" y1="727.9375" y2="727.9375"/><text fill="#000000" font-family="sans-serif" font-size="13" lengthAdjust="spacing" textLength="120" x="1022.5" y="723.0811">getOrderRepository()</text><polygon fill="#A80036" points="1026.5,754.2891,1016.5,758.2891,1026.5,762.2891,1022.5,758.2891" style="stroke:#A80036;stroke-width:1.0;"/><line style="stroke:#A80036;stroke-width:1.0;stroke-dasharray:2.0,2.0;" x1="1020.5" x2="2033.5" y1="758.2891" y2="758.2891"/><text fill="#000000" font-family="sans-serif" font-size="13" lengthAdjust="spacing" textLength="91" x="1032.5" y="753.4326">orderRepository</text><polygon fill="#A80036" points="2287.5,784.6406,2297.5,788.6406,2287.5,792.6406,2291.5,788.6406" style="stroke:#A80036;stroke-width:1.0;"/><line style="stroke:#A80036;stroke-width:1.0;" x1="1015.5" x2="2293.5" y1="788.6406" y2="788.6406"/><text fill="#000000" font-family="sans-serif" font-size="13" lengthAdjust="spacing" textLength="204" x="1022.5" y="783.7842">getOrdersWhoNeedToBePrepared()</text><polygon fill="#A80036" points="1026.5,814.9922,1016.5,818.9922,1026.5,822.9922,1022.5,818.9922" style="stroke:#A80036;stroke-width:1.0;"/><line style="stroke:#A80036;stroke-width:1.0;stroke-dasharray:2.0,2.0;" x1="1020.5" x2="2303.5" y1="818.9922" y2="818.9922"/><text fill="#000000" font-family="sans-serif" font-size="13" lengthAdjust="spacing" textLength="208" x="1032.5" y="814.1357">listOfOrdersWhoNeedToByPrepared</text><polygon fill="#A80036" points="2146,845.3438,2156,849.3438,2146,853.3438,2150,849.3438" style="stroke:#A80036;stroke-width:1.0;"/><line style="stroke:#A80036;stroke-width:1.0;" x1="1015.5" x2="2152" y1="849.3438" y2="849.3438"/><text fill="#000000" font-family="sans-serif" font-size="13" lengthAdjust="spacing" textLength="118" x="1022.5" y="844.4873">getAGVById(idAGV)</text><polygon fill="#A80036" points="1026.5,875.6953,1016.5,879.6953,1026.5,883.6953,1022.5,879.6953" style="stroke:#A80036;stroke-width:1.0;"/><line style="stroke:#A80036;stroke-width:1.0;stroke-dasharray:2.0,2.0;" x1="1020.5" x2="2162" y1="879.6953" y2="879.6953"/><text fill="#000000" font-family="sans-serif" font-size="13" lengthAdjust="spacing" textLength="70" x="1032.5" y="874.8389">agvSelected</text><polygon fill="#A80036" points="1314.5,906.0469,1324.5,910.0469,1314.5,914.0469,1318.5,910.0469" style="stroke:#A80036;stroke-width:1.0;"/><line style="stroke:#A80036;stroke-width:1.0;" x1="1015.5" x2="1320.5" y1="910.0469" y2="910.0469"/><text fill="#000000" font-family="sans-serif" font-size="13" lengthAdjust="spacing" textLength="220" x="1022.5" y="905.1904">assignATaskForAGV(taskDescription)</text><polygon fill="#A80036" points="1563.5,936.3984,1573.5,940.3984,1563.5,944.3984,1567.5,940.3984" style="stroke:#A80036;stroke-width:1.0;"/><line style="stroke:#A80036;stroke-width:1.0;" x1="1336.5" x2="1569.5" y1="940.3984" y2="940.3984"/><text fill="#000000" font-family="sans-serif" font-size="13" lengthAdjust="spacing" textLength="220" x="1343.5" y="935.542">assignATaskForAGV(taskDescription)</text><polygon fill="#A80036" points="1319.5,996.75,1329.5,1000.75,1319.5,1004.75,1323.5,1000.75" style="stroke:#A80036;stroke-width:1.0;"/><line style="stroke:#A80036;stroke-width:1.0;" x1="1015.5" x2="1325.5" y1="1000.75" y2="1000.75"/><text fill="#000000" font-family="sans-serif" font-size="13" lengthAdjust="spacing" textLength="203" x="1022.5" y="995.8936">changeStatusOfAGVForOccupied()</text><path d="M880,1015.75 L953,1015.75 L953,1023.75 L943,1033.75 L880,1033.75 L880,1015.75 " fill="#EEEEEE" style="stroke:#000000;stroke-width:1.0;"/><rect fill="none" height="229.7578" style="stroke:#000000;stroke-width:2.0;" width="1514.5" x="880" y="1015.75"/><text fill="#000000" font-family="sans-serif" font-size="13" font-weight="bold" lengthAdjust="spacing" textLength="28" x="895" y="1030.2451">loop</text><text fill="#000000" font-family="sans-serif" font-size="11" font-weight="bold" lengthAdjust="spacing" textLength="345" x="968" y="1029.1689">[for each productOrder in listOfOrdersWhoNeedToByPrepared]</text><polygon fill="#A80036" points="1665.5,1052.4531,1675.5,1056.4531,1665.5,1060.4531,1669.5,1056.4531" style="stroke:#A80036;stroke-width:1.0;"/><line style="stroke:#A80036;stroke-width:1.0;" x1="1015.5" x2="1671.5" y1="1056.4531" y2="1056.4531"/><text fill="#000000" font-family="sans-serif" font-size="13" lengthAdjust="spacing" textLength="292" x="1022.5" y="1051.5967">changeStatusOfOrderToBeingPreparedByAnAGV()</text><polygon fill="#A80036" points="1314.5,1112.8047,1324.5,1116.8047,1314.5,1120.8047,1318.5,1116.8047" style="stroke:#A80036;stroke-width:1.0;"/><line style="stroke:#A80036;stroke-width:1.0;" x1="1015.5" x2="1320.5" y1="1116.8047" y2="1116.8047"/><text fill="#000000" font-family="sans-serif" font-size="13" lengthAdjust="spacing" textLength="292" x="1022.5" y="1111.9482">addOrdersToATask(taskDescription, productOrder)</text><polygon fill="#A80036" points="2146,1173.1563,2156,1177.1563,2146,1181.1563,2150,1177.1563" style="stroke:#A80036;stroke-width:1.0;"/><line style="stroke:#A80036;stroke-width:1.0;" x1="1015.5" x2="2152" y1="1177.1563" y2="1177.1563"/><text fill="#000000" font-family="sans-serif" font-size="13" lengthAdjust="spacing" textLength="104" x="1022.5" y="1172.2998">save(agvSelected)</text><polygon fill="#A80036" points="2292.5,1233.5078,2302.5,1237.5078,2292.5,1241.5078,2296.5,1237.5078" style="stroke:#A80036;stroke-width:1.0;"/><line style="stroke:#A80036;stroke-width:1.0;" x1="1015.5" x2="2298.5" y1="1237.5078" y2="1237.5078"/><text fill="#000000" font-family="sans-serif" font-size="13" lengthAdjust="spacing" textLength="109" x="1022.5" y="1232.6514">save(productOrder)</text><polygon fill="#A80036" points="562.5,1270.8594,552.5,1274.8594,562.5,1278.8594,558.5,1274.8594" style="stroke:#A80036;stroke-width:1.0;"/><line style="stroke:#A80036;stroke-width:1.0;stroke-dasharray:2.0,2.0;" x1="556.5" x2="1009.5" y1="1274.8594" y2="1274.8594"/><text fill="#000000" font-family="sans-serif" font-size="13" lengthAdjust="spacing" textLength="208" x="568.5" y="1270.0029">listOfOrdersWhoNeedToByPrepared</text><polygon fill="#A80036" points="93.5,1301.2109,83.5,1305.2109,93.5,1309.2109,89.5,1305.2109" style="stroke:#A80036;stroke-width:1.0;"/><line style="stroke:#A80036;stroke-width:1.0;stroke-dasharray:2.0,2.0;" x1="87.5" x2="545.5" y1="1305.2109" y2="1305.2109"/><text fill="#000000" font-family="sans-serif" font-size="13" lengthAdjust="spacing" textLength="329" x="99.5" y="1300.3545">Shows the list of products prepared by the selected AGV</text><polygon fill="#A80036" points="529.5,1331.5625,539.5,1335.5625,529.5,1339.5625,533.5,1335.5625" style="stroke:#A80036;stroke-width:1.0;"/><line style="stroke:#A80036;stroke-width:1.0;" x1="82.5" x2="535.5" y1="1335.5625" y2="1335.5625"/><text fill="#000000" font-family="sans-serif" font-size="13" lengthAdjust="spacing" textLength="440" x="89.5" y="1330.7061">Select the orders you want to change the status to 'dispatched for customer'</text><polygon fill="#A80036" points="993.5,1361.9141,1003.5,1365.9141,993.5,1369.9141,997.5,1365.9141" style="stroke:#A80036;stroke-width:1.0;"/><line style="stroke:#A80036;stroke-width:1.0;" x1="551.5" x2="999.5" y1="1365.9141" y2="1365.9141"/><text fill="#000000" font-family="sans-serif" font-size="13" lengthAdjust="spacing" textLength="435" x="558.5" y="1361.0576">changeTheStatusOfOrdersForDispatchedToCustomer(listOfOrdersSelected)</text><path d="M880,1380.9141 L953,1380.9141 L953,1388.9141 L943,1398.9141 L880,1398.9141 L880,1380.9141 " fill="#EEEEEE" style="stroke:#000000;stroke-width:1.0;"/><rect fill="none" height="199.7578" style="stroke:#000000;stroke-width:2.0;" width="1514.5" x="880" y="1380.9141"/><text fill="#000000" font-family="sans-serif" font-size="13" font-weight="bold" lengthAdjust="spacing" textLength="28" x="895" y="1395.4092">loop</text><text fill="#000000" font-family="sans-serif" font-size="11" font-weight="bold" lengthAdjust="spacing" textLength="277" x="968" y="1394.333">[for each ProducOrderDto in listOfOrdersSelected]</text><polygon fill="#A80036" points="1665.5,1417.6172,1675.5,1421.6172,1665.5,1425.6172,1669.5,1421.6172" style="stroke:#A80036;stroke-width:1.0;"/><line style="stroke:#A80036;stroke-width:1.0;" x1="1015.5" x2="1671.5" y1="1421.6172" y2="1421.6172"/><text fill="#000000" font-family="sans-serif" font-size="13" lengthAdjust="spacing" textLength="123" x="1022.5" y="1416.7607">getOrderById(orderId)</text><polygon fill="#A80036" points="1026.5,1447.9688,1016.5,1451.9688,1026.5,1455.9688,1022.5,1451.9688" style="stroke:#A80036;stroke-width:1.0;"/><line style="stroke:#A80036;stroke-width:1.0;stroke-dasharray:2.0,2.0;" x1="1020.5" x2="1681.5" y1="1451.9688" y2="1451.9688"/><text fill="#000000" font-family="sans-serif" font-size="13" lengthAdjust="spacing" textLength="29" x="1032.5" y="1447.1123">order</text><polygon fill="#A80036" points="1665.5,1478.3203,1675.5,1482.3203,1665.5,1486.3203,1669.5,1482.3203" style="stroke:#A80036;stroke-width:1.0;"/><line style="stroke:#A80036;stroke-width:1.0;" x1="1015.5" x2="1671.5" y1="1482.3203" y2="1482.3203"/><text fill="#000000" font-family="sans-serif" font-size="13" lengthAdjust="spacing" textLength="237" x="1022.5" y="1477.4639">changeStatusToDispatchedToCustomer()</text><polygon fill="#A80036" points="2287.5,1538.6719,2297.5,1542.6719,2287.5,1546.6719,2291.5,1542.6719" style="stroke:#A80036;stroke-width:1.0;"/><line style="stroke:#A80036;stroke-width:1.0;" x1="1015.5" x2="2293.5" y1="1542.6719" y2="1542.6719"/><text fill="#000000" font-family="sans-serif" font-size="13" lengthAdjust="spacing" textLength="63" x="1022.5" y="1537.8154">save(order)</text><polygon fill="#A80036" points="562.5,1606.0234,552.5,1610.0234,562.5,1614.0234,558.5,1610.0234" style="stroke:#A80036;stroke-width:1.0;"/><line style="stroke:#A80036;stroke-width:1.0;stroke-dasharray:2.0,2.0;" x1="556.5" x2="1004.5" y1="1610.0234" y2="1610.0234"/><text fill="#000000" font-family="sans-serif" font-size="13" lengthAdjust="spacing" textLength="120" x="568.5" y="1605.167">listOfOrdersSelected</text><polygon fill="#A80036" points="88.5,1636.375,78.5,1640.375,88.5,1644.375,84.5,1640.375" style="stroke:#A80036;stroke-width:1.0;"/><line style="stroke:#A80036;stroke-width:1.0;stroke-dasharray:2.0,2.0;" x1="82.5" x2="545.5" y1="1640.375" y2="1640.375"/><text fill="#000000" font-family="sans-serif" font-size="13" lengthAdjust="spacing" textLength="195" x="94.5" y="1635.5186">Shows orders with the new status</text><!--MD5=[e14ed850bacdd2bd5de68f17a1eb6b22]
@startuml
'http://plantuml.com/skinparam.html

actor "Warehouse Employee" as EMPLOYEE
participant ListOrdersBeingPreparedUI as UI <<presentation>>
participant ListOrdersBeingPreparedController as CONTROLLER <<application>>
participant "agvSelected : AGV" as AGV <<domain>>
participant AGVTask as TASK <<domain>>
participant ProductOrder as ORDER <<domain>>
participant agvDto as DTO  <<dto>>
participant PersistenceContext as PERSISTENCE <<persistence>>
participant RepositoryFactory as FACTORY <<factory>>
database AGVRepository as REPOSITORY_AGV <<repository>>
database ProductOrderRepository as REPOSITORY_ORDERS <<repository>>

EMPLOYEE -> UI: Ask for the list of products prepared by an
activate EMPLOYEE
activate UI

UI -> CONTROLLER: create()

activate CONTROLLER
deactivate CONTROLLER

UI -> CONTROLLER : getAGVsAvaiable()
activate CONTROLLER

CONTROLLER -> PERSISTENCE : repositories()

activate PERSISTENCE

PERSISTENCE -> FACTORY : create()

activate FACTORY
deactivate FACTORY

PERSISTENCE - -> CONTROLLER : repositoryFactory

deactivate PERSISTENCE

CONTROLLER -> FACTORY : getAGVRepository()

activate FACTORY

FACTORY -> REPOSITORY_AGV : create()

activate REPOSITORY_AGV
deactivate REPOSITORY_AGV

FACTORY - -> CONTROLLER : agvRepository
deactivate FACTORY

CONTROLLER -> REPOSITORY_AGV : getAGVsAvaiable()

activate REPOSITORY_AGV

REPOSITORY_AGV - -> CONTROLLER : agvsAvaiable

deactivate REPOSITORY_AGV

CONTROLLER -> DTO : toDto()

activate DTO

DTO -> CONTROLLER : agvsAvaiableDto

deactivate DTO

CONTROLLER - -> UI : agvsAvaiableDto
deactivate CONTROLLER

UI - -> EMPLOYEE: Shows the list of AGVs and asks to select one


deactivate CONTROLLER
deactivate UI

EMPLOYEE -> UI : Select the AGV

activate UI

UI -> CONTROLLER : getOrdersWhoNeedToBePreparedByAGV(idAGV, taskDescription)

activate CONTROLLER

CONTROLLER -> FACTORY : getOrderRepository()

activate FACTORY

FACTORY - -> CONTROLLER : orderRepository

deactivate FACTORY

CONTROLLER -> REPOSITORY_ORDERS : getOrdersWhoNeedToBePrepared()

activate REPOSITORY_ORDERS

REPOSITORY_ORDERS - -> CONTROLLER : listOfOrdersWhoNeedToByPrepared
deactivate REPOSITORY_ORDERS

CONTROLLER -> REPOSITORY_AGV : getAGVById(idAGV)
activate REPOSITORY_AGV

REPOSITORY_AGV - -> CONTROLLER : agvSelected
deactivate REPOSITORY_AGV

CONTROLLER -> AGV : assignATaskForAGV(taskDescription)
activate AGV

AGV -> TASK : assignATaskForAGV(taskDescription)
activate TASK
deactivate TASK

CONTROLLER -> AGV : changeStatusOfAGVForOccupied()
deactivate AGV



loop for each productOrder in listOfOrdersWhoNeedToByPrepared
CONTROLLER -> ORDER : changeStatusOfOrderToBeingPreparedByAnAGV()
activate ORDER
deactivate ORDER

CONTROLLER -> AGV : addOrdersToATask(taskDescription, productOrder)
activate AGV
deactivate AGV
CONTROLLER -> REPOSITORY_AGV : save(agvSelected)
activate REPOSITORY_AGV
deactivate REPOSITORY_AGV
CONTROLLER -> REPOSITORY_ORDERS : save(productOrder)
end
activate REPOSITORY_ORDERS
deactivate REPOSITORY_ORDERS

CONTROLLER - -> UI : listOfOrdersWhoNeedToByPrepared
deactivate CONTROLLER

UI - -> EMPLOYEE : Shows the list of products prepared by the selected AGV

deactivate UI

EMPLOYEE -> UI : Select the orders you want to change the status to 'dispatched for customer'
activate UI

UI -> CONTROLLER : changeTheStatusOfOrdersForDispatchedToCustomer(listOfOrdersSelected)
activate CONTROLLER

loop for each ProducOrderDto in listOfOrdersSelected
CONTROLLER -> ORDER : getOrderById(orderId)
activate ORDER
ORDER - -> CONTROLLER : order 
deactivate ORDER

CONTROLLER -> ORDER : changeStatusToDispatchedToCustomer()
activate ORDER
deactivate ORDER

CONTROLLER -> REPOSITORY_ORDERS : save(order)
activate REPOSITORY_ORDERS
deactivate REPOSITORY_ORDERS
end loop

CONTROLLER - -> UI : listOfOrdersSelected
UI - -> EMPLOYEE : Shows orders with the new status

deactivate CONTROLLER
deactivate UI


deactivate EMPLOYEE

@enduml

@startuml

actor "Warehouse Employee" as EMPLOYEE
participant ListOrdersBeingPreparedUI as UI <<presentation>>
participant ListOrdersBeingPreparedController as CONTROLLER <<application>>
participant "agvSelected : AGV" as AGV <<domain>>
participant AGVTask as TASK <<domain>>
participant ProductOrder as ORDER <<domain>>
participant agvDto as DTO  <<dto>>
participant PersistenceContext as PERSISTENCE <<persistence>>
participant RepositoryFactory as FACTORY <<factory>>
database AGVRepository as REPOSITORY_AGV <<repository>>
database ProductOrderRepository as REPOSITORY_ORDERS <<repository>>

EMPLOYEE -> UI: Ask for the list of products prepared by an
activate EMPLOYEE
activate UI

UI -> CONTROLLER: create()

activate CONTROLLER
deactivate CONTROLLER

UI -> CONTROLLER : getAGVsAvaiable()
activate CONTROLLER

CONTROLLER -> PERSISTENCE : repositories()

activate PERSISTENCE

PERSISTENCE -> FACTORY : create()

activate FACTORY
deactivate FACTORY

PERSISTENCE - -> CONTROLLER : repositoryFactory

deactivate PERSISTENCE

CONTROLLER -> FACTORY : getAGVRepository()

activate FACTORY

FACTORY -> REPOSITORY_AGV : create()

activate REPOSITORY_AGV
deactivate REPOSITORY_AGV

FACTORY - -> CONTROLLER : agvRepository
deactivate FACTORY

CONTROLLER -> REPOSITORY_AGV : getAGVsAvaiable()

activate REPOSITORY_AGV

REPOSITORY_AGV - -> CONTROLLER : agvsAvaiable

deactivate REPOSITORY_AGV

CONTROLLER -> DTO : toDto()

activate DTO

DTO -> CONTROLLER : agvsAvaiableDto

deactivate DTO

CONTROLLER - -> UI : agvsAvaiableDto
deactivate CONTROLLER

UI - -> EMPLOYEE: Shows the list of AGVs and asks to select one


deactivate CONTROLLER
deactivate UI

EMPLOYEE -> UI : Select the AGV

activate UI

UI -> CONTROLLER : getOrdersWhoNeedToBePreparedByAGV(idAGV, taskDescription)

activate CONTROLLER

CONTROLLER -> FACTORY : getOrderRepository()

activate FACTORY

FACTORY - -> CONTROLLER : orderRepository

deactivate FACTORY

CONTROLLER -> REPOSITORY_ORDERS : getOrdersWhoNeedToBePrepared()

activate REPOSITORY_ORDERS

REPOSITORY_ORDERS - -> CONTROLLER : listOfOrdersWhoNeedToByPrepared
deactivate REPOSITORY_ORDERS

CONTROLLER -> REPOSITORY_AGV : getAGVById(idAGV)
activate REPOSITORY_AGV

REPOSITORY_AGV - -> CONTROLLER : agvSelected
deactivate REPOSITORY_AGV

CONTROLLER -> AGV : assignATaskForAGV(taskDescription)
activate AGV

AGV -> TASK : assignATaskForAGV(taskDescription)
activate TASK
deactivate TASK

CONTROLLER -> AGV : changeStatusOfAGVForOccupied()
deactivate AGV



loop for each productOrder in listOfOrdersWhoNeedToByPrepared
CONTROLLER -> ORDER : changeStatusOfOrderToBeingPreparedByAnAGV()
activate ORDER
deactivate ORDER

CONTROLLER -> AGV : addOrdersToATask(taskDescription, productOrder)
activate AGV
deactivate AGV
CONTROLLER -> REPOSITORY_AGV : save(agvSelected)
activate REPOSITORY_AGV
deactivate REPOSITORY_AGV
CONTROLLER -> REPOSITORY_ORDERS : save(productOrder)
end
activate REPOSITORY_ORDERS
deactivate REPOSITORY_ORDERS

CONTROLLER - -> UI : listOfOrdersWhoNeedToByPrepared
deactivate CONTROLLER

UI - -> EMPLOYEE : Shows the list of products prepared by the selected AGV

deactivate UI

EMPLOYEE -> UI : Select the orders you want to change the status to 'dispatched for customer'
activate UI

UI -> CONTROLLER : changeTheStatusOfOrdersForDispatchedToCustomer(listOfOrdersSelected)
activate CONTROLLER

loop for each ProducOrderDto in listOfOrdersSelected
CONTROLLER -> ORDER : getOrderById(orderId)
activate ORDER
ORDER - -> CONTROLLER : order 
deactivate ORDER

CONTROLLER -> ORDER : changeStatusToDispatchedToCustomer()
activate ORDER
deactivate ORDER

CONTROLLER -> REPOSITORY_ORDERS : save(order)
activate REPOSITORY_ORDERS
deactivate REPOSITORY_ORDERS
end loop

CONTROLLER - -> UI : listOfOrdersSelected
UI - -> EMPLOYEE : Shows orders with the new status

deactivate CONTROLLER
deactivate UI


deactivate EMPLOYEE

@enduml

PlantUML version 1.2022.1(Tue Feb 01 18:19:58 GMT 2022)
(GPL source distribution)
Java Runtime: OpenJDK Runtime Environment
JVM: OpenJDK 64-Bit Server VM
Default Encoding: Cp1252
Language: pt
Country: BR
--></g></svg>