<?xml version="1.0" encoding="UTF-8" standalone="no"?><svg xmlns="http://www.w3.org/2000/svg" xmlns:xlink="http://www.w3.org/1999/xlink" contentScriptType="application/ecmascript" contentStyleType="text/css" height="1046px" preserveAspectRatio="none" style="width:1878px;height:1046px;background:#FFFFFF;" version="1.1" viewBox="0 0 1878 1046" width="1878px" zoomAndPan="magnify"><defs><filter height="300%" id="f1bgw1mydbucj9" width="300%" x="-1" y="-1"><feGaussianBlur result="blurOut" stdDeviation="2.0"/><feColorMatrix in="blurOut" result="blurOut2" type="matrix" values="0 0 0 0 0 0 0 0 0 0 0 0 0 0 0 0 0 0 .4 0"/><feOffset dx="4.0" dy="4.0" in="blurOut2" result="blurOut3"/><feBlend in="SourceGraphic" in2="blurOut3" mode="normal"/></filter></defs><g><rect fill="#FFFFFF" filter="url(#f1bgw1mydbucj9)" height="817.7344" style="stroke:#A80036;stroke-width:1.0;" width="10" x="72.5" y="121.9609"/><rect fill="#FFFFFF" filter="url(#f1bgw1mydbucj9)" height="454.2188" style="stroke:#A80036;stroke-width:1.0;" width="10" x="435.5" y="121.9609"/><rect fill="#FFFFFF" filter="url(#f1bgw1mydbucj9)" height="333.1641" style="stroke:#A80036;stroke-width:1.0;" width="10" x="435.5" y="606.5313"/><rect fill="#FFFFFF" filter="url(#f1bgw1mydbucj9)" height="30" style="stroke:#A80036;stroke-width:1.0;" width="10" x="714.5" y="152.3125"/><rect fill="#FFFFFF" filter="url(#f1bgw1mydbucj9)" height="333.1641" style="stroke:#A80036;stroke-width:1.0;" width="10" x="714.5" y="212.6641"/><rect fill="#FFFFFF" filter="url(#f1bgw1mydbucj9)" height="272.4609" style="stroke:#A80036;stroke-width:1.0;" width="10" x="714.5" y="636.8828"/><rect fill="#FFFFFF" filter="url(#f1bgw1mydbucj9)" height="30" style="stroke:#A80036;stroke-width:1.0;" width="10" x="1255.5" y="788.6406"/><rect fill="#FFFFFF" filter="url(#f1bgw1mydbucj9)" height="90.7031" style="stroke:#A80036;stroke-width:1.0;" width="10" x="1375.5" y="243.0156"/><rect fill="#FFFFFF" filter="url(#f1bgw1mydbucj9)" height="30" style="stroke:#A80036;stroke-width:1.0;" width="10" x="1522.5" y="273.3672"/><rect fill="#FFFFFF" filter="url(#f1bgw1mydbucj9)" height="90.7031" style="stroke:#A80036;stroke-width:1.0;" width="10" x="1522.5" y="364.0703"/><rect fill="#FFFFFF" filter="url(#f1bgw1mydbucj9)" height="30.3516" style="stroke:#A80036;stroke-width:1.0;" width="10" x="1522.5" y="667.2344"/><rect fill="#FFFFFF" filter="url(#f1bgw1mydbucj9)" height="30" style="stroke:#A80036;stroke-width:1.0;" width="10" x="1651" y="394.4219"/><rect fill="#FFFFFF" filter="url(#f1bgw1mydbucj9)" height="30.3516" style="stroke:#A80036;stroke-width:1.0;" width="10" x="1651" y="485.125"/><rect fill="#FFFFFF" filter="url(#f1bgw1mydbucj9)" height="30.3516" style="stroke:#A80036;stroke-width:1.0;" width="10" x="1792.5" y="727.9375"/><rect fill="#FFFFFF" filter="url(#f1bgw1mydbucj9)" height="30" style="stroke:#A80036;stroke-width:1.0;" width="10" x="1792.5" y="848.9922"/><line style="stroke:#A80036;stroke-width:1.0;stroke-dasharray:5.0,5.0;" x1="77" x2="77" y1="89.6094" y2="957.6953"/><line style="stroke:#A80036;stroke-width:1.0;stroke-dasharray:5.0,5.0;" x1="440" x2="440" y1="89.6094" y2="957.6953"/><line style="stroke:#A80036;stroke-width:1.0;stroke-dasharray:5.0,5.0;" x1="719" x2="719" y1="89.6094" y2="957.6953"/><line style="stroke:#A80036;stroke-width:1.0;stroke-dasharray:5.0,5.0;" x1="1260.5" x2="1260.5" y1="89.6094" y2="957.6953"/><line style="stroke:#A80036;stroke-width:1.0;stroke-dasharray:5.0,5.0;" x1="1380.5" x2="1380.5" y1="89.6094" y2="957.6953"/><line style="stroke:#A80036;stroke-width:1.0;stroke-dasharray:5.0,5.0;" x1="1527.5" x2="1527.5" y1="89.6094" y2="957.6953"/><line style="stroke:#A80036;stroke-width:1.0;stroke-dasharray:5.0,5.0;" x1="1655.5" x2="1655.5" y1="89.6094" y2="957.6953"/><line style="stroke:#A80036;stroke-width:1.0;stroke-dasharray:5.0,5.0;" x1="1797.5" x2="1797.5" y1="89.6094" y2="957.6953"/><text fill="#000000" font-family="sans-serif" font-size="14" lengthAdjust="spacing" textLength="139" x="5" y="86.5332">Warehouse Employee</text><ellipse cx="77.5" cy="15" fill="#FEFECE" filter="url(#f1bgw1mydbucj9)" rx="8" ry="8" style="stroke:#A80036;stroke-width:2.0;"/><path d="M77.5,23 L77.5,50 M64.5,31 L90.5,31 M77.5,50 L64.5,65 M77.5,50 L90.5,65 " fill="none" filter="url(#f1bgw1mydbucj9)" style="stroke:#A80036;stroke-width:2.0;"/><text fill="#000000" font-family="sans-serif" font-size="14" lengthAdjust="spacing" textLength="139" x="5" y="971.2285">Warehouse Employee</text><ellipse cx="77.5" cy="984.3047" fill="#FEFECE" filter="url(#f1bgw1mydbucj9)" rx="8" ry="8" style="stroke:#A80036;stroke-width:2.0;"/><path d="M77.5,992.3047 L77.5,1019.3047 M64.5,1000.3047 L90.5,1000.3047 M77.5,1019.3047 L64.5,1034.3047 M77.5,1019.3047 L90.5,1034.3047 " fill="none" filter="url(#f1bgw1mydbucj9)" style="stroke:#A80036;stroke-width:2.0;"/><rect fill="#FEFECE" filter="url(#f1bgw1mydbucj9)" height="49.2188" style="stroke:#A80036;stroke-width:1.5;" width="187" x="345" y="35.3906"/><text fill="#000000" font-family="sans-serif" font-size="14" font-style="italic" lengthAdjust="spacing" textLength="95" x="391" y="56.9238">«presentation»</text><text fill="#000000" font-family="sans-serif" font-size="14" lengthAdjust="spacing" textLength="173" x="352" y="74.5332">ListOrdersBeingPreparedUI</text><rect fill="#FEFECE" filter="url(#f1bgw1mydbucj9)" height="49.2188" style="stroke:#A80036;stroke-width:1.5;" width="187" x="345" y="956.6953"/><text fill="#000000" font-family="sans-serif" font-size="14" font-style="italic" lengthAdjust="spacing" textLength="95" x="391" y="978.2285">«presentation»</text><text fill="#000000" font-family="sans-serif" font-size="14" lengthAdjust="spacing" textLength="173" x="352" y="995.8379">ListOrdersBeingPreparedUI</text><rect fill="#FEFECE" filter="url(#f1bgw1mydbucj9)" height="49.2188" style="stroke:#A80036;stroke-width:1.5;" width="237" x="599" y="35.3906"/><text fill="#000000" font-family="sans-serif" font-size="14" font-style="italic" lengthAdjust="spacing" textLength="84" x="675.5" y="56.9238">«application»</text><text fill="#000000" font-family="sans-serif" font-size="14" lengthAdjust="spacing" textLength="223" x="606" y="74.5332">ListOrdersBeingPreparedController</text><rect fill="#FEFECE" filter="url(#f1bgw1mydbucj9)" height="49.2188" style="stroke:#A80036;stroke-width:1.5;" width="237" x="599" y="956.6953"/><text fill="#000000" font-family="sans-serif" font-size="14" font-style="italic" lengthAdjust="spacing" textLength="84" x="675.5" y="978.2285">«application»</text><text fill="#000000" font-family="sans-serif" font-size="14" lengthAdjust="spacing" textLength="223" x="606" y="995.8379">ListOrdersBeingPreparedController</text><rect fill="#FEFECE" filter="url(#f1bgw1mydbucj9)" height="49.2188" style="stroke:#A80036;stroke-width:1.5;" width="76" x="1220.5" y="35.3906"/><text fill="#000000" font-family="sans-serif" font-size="14" font-style="italic" lengthAdjust="spacing" textLength="62" x="1227.5" y="56.9238">«domain»</text><text fill="#000000" font-family="sans-serif" font-size="14" lengthAdjust="spacing" textLength="60" x="1228.5" y="74.5332">AGVTask</text><rect fill="#FEFECE" filter="url(#f1bgw1mydbucj9)" height="49.2188" style="stroke:#A80036;stroke-width:1.5;" width="76" x="1220.5" y="956.6953"/><text fill="#000000" font-family="sans-serif" font-size="14" font-style="italic" lengthAdjust="spacing" textLength="62" x="1227.5" y="978.2285">«domain»</text><text fill="#000000" font-family="sans-serif" font-size="14" lengthAdjust="spacing" textLength="60" x="1228.5" y="995.8379">AGVTask</text><rect fill="#FEFECE" filter="url(#f1bgw1mydbucj9)" height="49.2188" style="stroke:#A80036;stroke-width:1.5;" width="136" x="1310.5" y="35.3906"/><text fill="#000000" font-family="sans-serif" font-size="14" font-style="italic" lengthAdjust="spacing" textLength="89" x="1334" y="56.9238">«persistence»</text><text fill="#000000" font-family="sans-serif" font-size="14" lengthAdjust="spacing" textLength="122" x="1317.5" y="74.5332">PersistenceContext</text><rect fill="#FEFECE" filter="url(#f1bgw1mydbucj9)" height="49.2188" style="stroke:#A80036;stroke-width:1.5;" width="136" x="1310.5" y="956.6953"/><text fill="#000000" font-family="sans-serif" font-size="14" font-style="italic" lengthAdjust="spacing" textLength="89" x="1334" y="978.2285">«persistence»</text><text fill="#000000" font-family="sans-serif" font-size="14" lengthAdjust="spacing" textLength="122" x="1317.5" y="995.8379">PersistenceContext</text><rect fill="#FEFECE" filter="url(#f1bgw1mydbucj9)" height="49.2188" style="stroke:#A80036;stroke-width:1.5;" width="130" x="1460.5" y="35.3906"/><text fill="#000000" font-family="sans-serif" font-size="14" font-style="italic" lengthAdjust="spacing" textLength="59" x="1496" y="56.9238">«factory»</text><text fill="#000000" font-family="sans-serif" font-size="14" lengthAdjust="spacing" textLength="116" x="1467.5" y="74.5332">RepositoryFactory</text><rect fill="#FEFECE" filter="url(#f1bgw1mydbucj9)" height="49.2188" style="stroke:#A80036;stroke-width:1.5;" width="130" x="1460.5" y="956.6953"/><text fill="#000000" font-family="sans-serif" font-size="14" font-style="italic" lengthAdjust="spacing" textLength="59" x="1496" y="978.2285">«factory»</text><text fill="#000000" font-family="sans-serif" font-size="14" lengthAdjust="spacing" textLength="116" x="1467.5" y="995.8379">RepositoryFactory</text><text fill="#000000" font-family="sans-serif" font-size="14" font-style="italic" lengthAdjust="spacing" textLength="79" x="1613.5" y="68.9238">«repository»</text><text fill="#000000" font-family="sans-serif" font-size="14" lengthAdjust="spacing" textLength="97" x="1604.5" y="86.5332">AGVRepository</text><path d="M1638,18.3906 C1638,8.3906 1656,8.3906 1656,8.3906 C1656,8.3906 1674,8.3906 1674,18.3906 L1674,44.3906 C1674,54.3906 1656,54.3906 1656,54.3906 C1656,54.3906 1638,54.3906 1638,44.3906 L1638,18.3906 " fill="#FEFECE" filter="url(#f1bgw1mydbucj9)" style="stroke:#000000;stroke-width:1.5;"/><path d="M1638,18.3906 C1638,28.3906 1656,28.3906 1656,28.3906 C1656,28.3906 1674,28.3906 1674,18.3906 " fill="none" style="stroke:#000000;stroke-width:1.5;"/><text fill="#000000" font-family="sans-serif" font-size="14" font-style="italic" lengthAdjust="spacing" textLength="79" x="1613.5" y="971.2285">«repository»</text><text fill="#000000" font-family="sans-serif" font-size="14" lengthAdjust="spacing" textLength="97" x="1604.5" y="988.8379">AGVRepository</text><path d="M1638,1001.9141 C1638,991.9141 1656,991.9141 1656,991.9141 C1656,991.9141 1674,991.9141 1674,1001.9141 L1674,1027.9141 C1674,1037.9141 1656,1037.9141 1656,1037.9141 C1656,1037.9141 1638,1037.9141 1638,1027.9141 L1638,1001.9141 " fill="#FEFECE" filter="url(#f1bgw1mydbucj9)" style="stroke:#000000;stroke-width:1.5;"/><path d="M1638,1001.9141 C1638,1011.9141 1656,1011.9141 1656,1011.9141 C1656,1011.9141 1674,1011.9141 1674,1001.9141 " fill="none" style="stroke:#000000;stroke-width:1.5;"/><text fill="#000000" font-family="sans-serif" font-size="14" font-style="italic" lengthAdjust="spacing" textLength="79" x="1755" y="68.9238">«repository»</text><text fill="#000000" font-family="sans-serif" font-size="14" lengthAdjust="spacing" textLength="154" x="1717.5" y="86.5332">ProductOrderRepository</text><path d="M1779.5,18.3906 C1779.5,8.3906 1797.5,8.3906 1797.5,8.3906 C1797.5,8.3906 1815.5,8.3906 1815.5,18.3906 L1815.5,44.3906 C1815.5,54.3906 1797.5,54.3906 1797.5,54.3906 C1797.5,54.3906 1779.5,54.3906 1779.5,44.3906 L1779.5,18.3906 " fill="#FEFECE" filter="url(#f1bgw1mydbucj9)" style="stroke:#000000;stroke-width:1.5;"/><path d="M1779.5,18.3906 C1779.5,28.3906 1797.5,28.3906 1797.5,28.3906 C1797.5,28.3906 1815.5,28.3906 1815.5,18.3906 " fill="none" style="stroke:#000000;stroke-width:1.5;"/><text fill="#000000" font-family="sans-serif" font-size="14" font-style="italic" lengthAdjust="spacing" textLength="79" x="1755" y="971.2285">«repository»</text><text fill="#000000" font-family="sans-serif" font-size="14" lengthAdjust="spacing" textLength="154" x="1717.5" y="988.8379">ProductOrderRepository</text><path d="M1779.5,1001.9141 C1779.5,991.9141 1797.5,991.9141 1797.5,991.9141 C1797.5,991.9141 1815.5,991.9141 1815.5,1001.9141 L1815.5,1027.9141 C1815.5,1037.9141 1797.5,1037.9141 1797.5,1037.9141 C1797.5,1037.9141 1779.5,1037.9141 1779.5,1027.9141 L1779.5,1001.9141 " fill="#FEFECE" filter="url(#f1bgw1mydbucj9)" style="stroke:#000000;stroke-width:1.5;"/><path d="M1779.5,1001.9141 C1779.5,1011.9141 1797.5,1011.9141 1797.5,1011.9141 C1797.5,1011.9141 1815.5,1011.9141 1815.5,1001.9141 " fill="none" style="stroke:#000000;stroke-width:1.5;"/><rect fill="#FFFFFF" filter="url(#f1bgw1mydbucj9)" height="817.7344" style="stroke:#A80036;stroke-width:1.0;" width="10" x="72.5" y="121.9609"/><rect fill="#FFFFFF" filter="url(#f1bgw1mydbucj9)" height="454.2188" style="stroke:#A80036;stroke-width:1.0;" width="10" x="435.5" y="121.9609"/><rect fill="#FFFFFF" filter="url(#f1bgw1mydbucj9)" height="333.1641" style="stroke:#A80036;stroke-width:1.0;" width="10" x="435.5" y="606.5313"/><rect fill="#FFFFFF" filter="url(#f1bgw1mydbucj9)" height="30" style="stroke:#A80036;stroke-width:1.0;" width="10" x="714.5" y="152.3125"/><rect fill="#FFFFFF" filter="url(#f1bgw1mydbucj9)" height="333.1641" style="stroke:#A80036;stroke-width:1.0;" width="10" x="714.5" y="212.6641"/><rect fill="#FFFFFF" filter="url(#f1bgw1mydbucj9)" height="272.4609" style="stroke:#A80036;stroke-width:1.0;" width="10" x="714.5" y="636.8828"/><rect fill="#FFFFFF" filter="url(#f1bgw1mydbucj9)" height="30" style="stroke:#A80036;stroke-width:1.0;" width="10" x="1255.5" y="788.6406"/><rect fill="#FFFFFF" filter="url(#f1bgw1mydbucj9)" height="90.7031" style="stroke:#A80036;stroke-width:1.0;" width="10" x="1375.5" y="243.0156"/><rect fill="#FFFFFF" filter="url(#f1bgw1mydbucj9)" height="30" style="stroke:#A80036;stroke-width:1.0;" width="10" x="1522.5" y="273.3672"/><rect fill="#FFFFFF" filter="url(#f1bgw1mydbucj9)" height="90.7031" style="stroke:#A80036;stroke-width:1.0;" width="10" x="1522.5" y="364.0703"/><rect fill="#FFFFFF" filter="url(#f1bgw1mydbucj9)" height="30.3516" style="stroke:#A80036;stroke-width:1.0;" width="10" x="1522.5" y="667.2344"/><rect fill="#FFFFFF" filter="url(#f1bgw1mydbucj9)" height="30" style="stroke:#A80036;stroke-width:1.0;" width="10" x="1651" y="394.4219"/><rect fill="#FFFFFF" filter="url(#f1bgw1mydbucj9)" height="30.3516" style="stroke:#A80036;stroke-width:1.0;" width="10" x="1651" y="485.125"/><rect fill="#FFFFFF" filter="url(#f1bgw1mydbucj9)" height="30.3516" style="stroke:#A80036;stroke-width:1.0;" width="10" x="1792.5" y="727.9375"/><rect fill="#FFFFFF" filter="url(#f1bgw1mydbucj9)" height="30" style="stroke:#A80036;stroke-width:1.0;" width="10" x="1792.5" y="848.9922"/><polygon fill="#A80036" points="423.5,117.9609,433.5,121.9609,423.5,125.9609,427.5,121.9609" style="stroke:#A80036;stroke-width:1.0;"/><line style="stroke:#A80036;stroke-width:1.0;" x1="82.5" x2="429.5" y1="121.9609" y2="121.9609"/><text fill="#000000" font-family="sans-serif" font-size="13" lengthAdjust="spacing" textLength="242" x="89.5" y="117.1045">Ask for the list of products prepared by an</text><polygon fill="#A80036" points="702.5,148.3125,712.5,152.3125,702.5,156.3125,706.5,152.3125" style="stroke:#A80036;stroke-width:1.0;"/><line style="stroke:#A80036;stroke-width:1.0;" x1="445.5" x2="708.5" y1="152.3125" y2="152.3125"/><text fill="#000000" font-family="sans-serif" font-size="13" lengthAdjust="spacing" textLength="44" x="452.5" y="147.4561">create()</text><polygon fill="#A80036" points="702.5,208.6641,712.5,212.6641,702.5,216.6641,706.5,212.6641" style="stroke:#A80036;stroke-width:1.0;"/><line style="stroke:#A80036;stroke-width:1.0;" x1="445.5" x2="708.5" y1="212.6641" y2="212.6641"/><text fill="#000000" font-family="sans-serif" font-size="13" lengthAdjust="spacing" textLength="109" x="452.5" y="207.8076">getAGVsAvaiable()</text><polygon fill="#A80036" points="1363.5,239.0156,1373.5,243.0156,1363.5,247.0156,1367.5,243.0156" style="stroke:#A80036;stroke-width:1.0;"/><line style="stroke:#A80036;stroke-width:1.0;" x1="724.5" x2="1369.5" y1="243.0156" y2="243.0156"/><text fill="#000000" font-family="sans-serif" font-size="13" lengthAdjust="spacing" textLength="75" x="731.5" y="238.1592">repositories()</text><polygon fill="#A80036" points="1510.5,269.3672,1520.5,273.3672,1510.5,277.3672,1514.5,273.3672" style="stroke:#A80036;stroke-width:1.0;"/><line style="stroke:#A80036;stroke-width:1.0;" x1="1385.5" x2="1516.5" y1="273.3672" y2="273.3672"/><text fill="#000000" font-family="sans-serif" font-size="13" lengthAdjust="spacing" textLength="44" x="1392.5" y="268.5107">create()</text><polygon fill="#A80036" points="735.5,329.7188,725.5,333.7188,735.5,337.7188,731.5,333.7188" style="stroke:#A80036;stroke-width:1.0;"/><line style="stroke:#A80036;stroke-width:1.0;stroke-dasharray:2.0,2.0;" x1="729.5" x2="1379.5" y1="333.7188" y2="333.7188"/><text fill="#000000" font-family="sans-serif" font-size="13" lengthAdjust="spacing" textLength="101" x="741.5" y="328.8623">repositoryFactory</text><polygon fill="#A80036" points="1510.5,360.0703,1520.5,364.0703,1510.5,368.0703,1514.5,364.0703" style="stroke:#A80036;stroke-width:1.0;"/><line style="stroke:#A80036;stroke-width:1.0;" x1="724.5" x2="1516.5" y1="364.0703" y2="364.0703"/><text fill="#000000" font-family="sans-serif" font-size="13" lengthAdjust="spacing" textLength="116" x="731.5" y="359.2139">getAGVRepository()</text><polygon fill="#A80036" points="1639,390.4219,1649,394.4219,1639,398.4219,1643,394.4219" style="stroke:#A80036;stroke-width:1.0;"/><line style="stroke:#A80036;stroke-width:1.0;" x1="1532.5" x2="1645" y1="394.4219" y2="394.4219"/><text fill="#000000" font-family="sans-serif" font-size="13" lengthAdjust="spacing" textLength="44" x="1539.5" y="389.5654">create()</text><polygon fill="#A80036" points="735.5,450.7734,725.5,454.7734,735.5,458.7734,731.5,454.7734" style="stroke:#A80036;stroke-width:1.0;"/><line style="stroke:#A80036;stroke-width:1.0;stroke-dasharray:2.0,2.0;" x1="729.5" x2="1526.5" y1="454.7734" y2="454.7734"/><text fill="#000000" font-family="sans-serif" font-size="13" lengthAdjust="spacing" textLength="81" x="741.5" y="449.917">agvRepository</text><polygon fill="#A80036" points="1639,481.125,1649,485.125,1639,489.125,1643,485.125" style="stroke:#A80036;stroke-width:1.0;"/><line style="stroke:#A80036;stroke-width:1.0;" x1="724.5" x2="1645" y1="485.125" y2="485.125"/><text fill="#000000" font-family="sans-serif" font-size="13" lengthAdjust="spacing" textLength="109" x="731.5" y="480.2686">getAGVsAvaiable()</text><polygon fill="#A80036" points="735.5,511.4766,725.5,515.4766,735.5,519.4766,731.5,515.4766" style="stroke:#A80036;stroke-width:1.0;"/><line style="stroke:#A80036;stroke-width:1.0;stroke-dasharray:2.0,2.0;" x1="729.5" x2="1655" y1="515.4766" y2="515.4766"/><text fill="#000000" font-family="sans-serif" font-size="13" lengthAdjust="spacing" textLength="74" x="741.5" y="510.6201">agvsAvaiable</text><polygon fill="#A80036" points="456.5,541.8281,446.5,545.8281,456.5,549.8281,452.5,545.8281" style="stroke:#A80036;stroke-width:1.0;"/><line style="stroke:#A80036;stroke-width:1.0;stroke-dasharray:2.0,2.0;" x1="450.5" x2="718.5" y1="545.8281" y2="545.8281"/><text fill="#000000" font-family="sans-serif" font-size="13" lengthAdjust="spacing" textLength="74" x="462.5" y="540.9717">agvsAvaiable</text><polygon fill="#A80036" points="93.5,572.1797,83.5,576.1797,93.5,580.1797,89.5,576.1797" style="stroke:#A80036;stroke-width:1.0;"/><line style="stroke:#A80036;stroke-width:1.0;stroke-dasharray:2.0,2.0;" x1="87.5" x2="439.5" y1="576.1797" y2="576.1797"/><text fill="#000000" font-family="sans-serif" font-size="13" lengthAdjust="spacing" textLength="271" x="99.5" y="571.3232">Shows the list of AGVs and asks to select one</text><polygon fill="#A80036" points="423.5,602.5313,433.5,606.5313,423.5,610.5313,427.5,606.5313" style="stroke:#A80036;stroke-width:1.0;"/><line style="stroke:#A80036;stroke-width:1.0;" x1="82.5" x2="429.5" y1="606.5313" y2="606.5313"/><text fill="#000000" font-family="sans-serif" font-size="13" lengthAdjust="spacing" textLength="91" x="89.5" y="601.6748">Select the AGV</text><polygon fill="#A80036" points="702.5,632.8828,712.5,636.8828,702.5,640.8828,706.5,636.8828" style="stroke:#A80036;stroke-width:1.0;"/><line style="stroke:#A80036;stroke-width:1.0;" x1="445.5" x2="708.5" y1="636.8828" y2="636.8828"/><text fill="#000000" font-family="sans-serif" font-size="13" lengthAdjust="spacing" textLength="248" x="452.5" y="632.0264">getOrdersWhoNeedToBePreparedByAGV()</text><polygon fill="#A80036" points="1510.5,663.2344,1520.5,667.2344,1510.5,671.2344,1514.5,667.2344" style="stroke:#A80036;stroke-width:1.0;"/><line style="stroke:#A80036;stroke-width:1.0;" x1="724.5" x2="1516.5" y1="667.2344" y2="667.2344"/><text fill="#000000" font-family="sans-serif" font-size="13" lengthAdjust="spacing" textLength="120" x="731.5" y="662.3779">getOrderRepository()</text><polygon fill="#A80036" points="735.5,693.5859,725.5,697.5859,735.5,701.5859,731.5,697.5859" style="stroke:#A80036;stroke-width:1.0;"/><line style="stroke:#A80036;stroke-width:1.0;stroke-dasharray:2.0,2.0;" x1="729.5" x2="1526.5" y1="697.5859" y2="697.5859"/><text fill="#000000" font-family="sans-serif" font-size="13" lengthAdjust="spacing" textLength="91" x="741.5" y="692.7295">orderRepository</text><polygon fill="#A80036" points="1780.5,723.9375,1790.5,727.9375,1780.5,731.9375,1784.5,727.9375" style="stroke:#A80036;stroke-width:1.0;"/><line style="stroke:#A80036;stroke-width:1.0;" x1="724.5" x2="1786.5" y1="727.9375" y2="727.9375"/><text fill="#000000" font-family="sans-serif" font-size="13" lengthAdjust="spacing" textLength="248" x="731.5" y="723.0811">getOrdersWhoNeedToBePreparedByAGV()</text><polygon fill="#A80036" points="735.5,754.2891,725.5,758.2891,735.5,762.2891,731.5,758.2891" style="stroke:#A80036;stroke-width:1.0;"/><line style="stroke:#A80036;stroke-width:1.0;stroke-dasharray:2.0,2.0;" x1="729.5" x2="1796.5" y1="758.2891" y2="758.2891"/><text fill="#000000" font-family="sans-serif" font-size="13" lengthAdjust="spacing" textLength="245" x="741.5" y="753.4326">listOfOrdersWhoNeedToByPreparedByAgv</text><polygon fill="#A80036" points="1243.5,784.6406,1253.5,788.6406,1243.5,792.6406,1247.5,788.6406" style="stroke:#A80036;stroke-width:1.0;"/><line style="stroke:#A80036;stroke-width:1.0;" x1="724.5" x2="1249.5" y1="788.6406" y2="788.6406"/><text fill="#000000" font-family="sans-serif" font-size="13" lengthAdjust="spacing" textLength="512" x="731.5" y="783.7842">associateOrdersToAgvSelected(listOfOrdersWhoNeedToByPreparedByAgv, agvSelected)</text><polygon fill="#A80036" points="1780.5,844.9922,1790.5,848.9922,1780.5,852.9922,1784.5,848.9922" style="stroke:#A80036;stroke-width:1.0;"/><line style="stroke:#A80036;stroke-width:1.0;" x1="724.5" x2="1786.5" y1="848.9922" y2="848.9922"/><text fill="#000000" font-family="sans-serif" font-size="13" lengthAdjust="spacing" textLength="523" x="731.5" y="844.1357">changeTheStatusOfTheOrdersToReadForClient(listOfOrdersWhoNeedToByPreparedByAgv)</text><polygon fill="#A80036" points="456.5,905.3438,446.5,909.3438,456.5,913.3438,452.5,909.3438" style="stroke:#A80036;stroke-width:1.0;"/><line style="stroke:#A80036;stroke-width:1.0;stroke-dasharray:2.0,2.0;" x1="450.5" x2="718.5" y1="909.3438" y2="909.3438"/><text fill="#000000" font-family="sans-serif" font-size="13" lengthAdjust="spacing" textLength="245" x="462.5" y="904.4873">listOfOrdersWhoNeedToByPreparedByAgv</text><polygon fill="#A80036" points="88.5,935.6953,78.5,939.6953,88.5,943.6953,84.5,939.6953" style="stroke:#A80036;stroke-width:1.0;"/><line style="stroke:#A80036;stroke-width:1.0;stroke-dasharray:2.0,2.0;" x1="82.5" x2="439.5" y1="939.6953" y2="939.6953"/><text fill="#000000" font-family="sans-serif" font-size="13" lengthAdjust="spacing" textLength="329" x="94.5" y="934.8389">Shows the list of products prepared by the selected AGV</text><!--MD5=[b9cba29bef2670bd50684e90a5696533]
@startuml
'http://plantuml.com/skinparam.html

actor "Warehouse Employee" as EMPLOYEE
participant ListOrdersBeingPreparedUI as UI <<presentation>>
participant ListOrdersBeingPreparedController as CONTROLLER <<application>>
participant AGVTask as TASK <<domain>>
participant PersistenceContext as PERSISTENCE <<persistence>>
participant RepositoryFactory as FACTORY <<factory>>
database AGVRepository as REPOSITORY_AGV <<repository>>
database ProductOrderRepository as REPOSITORY_ORDERS <<repository>>

EMPLOYEE -> UI: Ask for the list of products prepared by an
activate EMPLOYEE
activate UI

UI -> CONTROLLER: create()

activate CONTROLLER
deactivate CONTROLLER

UI -> CONTROLLER : getAGVsAvaiable()
activate CONTROLLER

CONTROLLER -> PERSISTENCE : repositories()

activate PERSISTENCE

PERSISTENCE -> FACTORY : create()

activate FACTORY
deactivate FACTORY

PERSISTENCE - -> CONTROLLER : repositoryFactory

deactivate PERSISTENCE

CONTROLLER -> FACTORY : getAGVRepository()

activate FACTORY

FACTORY -> REPOSITORY_AGV : create()

activate REPOSITORY_AGV
deactivate REPOSITORY_AGV

FACTORY - -> CONTROLLER : agvRepository
deactivate FACTORY

CONTROLLER -> REPOSITORY_AGV : getAGVsAvaiable()

activate REPOSITORY_AGV

REPOSITORY_AGV - -> CONTROLLER : agvsAvaiable

deactivate REPOSITORY_AGV

CONTROLLER - -> UI : agvsAvaiable
deactivate CONTROLLER

UI - -> EMPLOYEE: Shows the list of AGVs and asks to select one


deactivate CONTROLLER
deactivate UI

EMPLOYEE -> UI : Select the AGV

activate UI

UI -> CONTROLLER : getOrdersWhoNeedToBePreparedByAGV()

activate CONTROLLER

CONTROLLER -> FACTORY : getOrderRepository()

activate FACTORY

FACTORY - -> CONTROLLER : orderRepository

deactivate FACTORY

CONTROLLER -> REPOSITORY_ORDERS : getOrdersWhoNeedToBePreparedByAGV()

activate REPOSITORY_ORDERS

REPOSITORY_ORDERS - -> CONTROLLER : listOfOrdersWhoNeedToByPreparedByAgv
deactivate REPOSITORY_ORDERS

CONTROLLER -> TASK : associateOrdersToAgvSelected(listOfOrdersWhoNeedToByPreparedByAgv, agvSelected)

activate TASK
deactivate TASK

CONTROLLER -> REPOSITORY_ORDERS : changeTheStatusOfTheOrdersToReadForClient(listOfOrdersWhoNeedToByPreparedByAgv)

activate REPOSITORY_ORDERS
deactivate REPOSITORY_ORDERS

CONTROLLER - -> UI : listOfOrdersWhoNeedToByPreparedByAgv
deactivate CONTROLLER

UI - -> EMPLOYEE : Shows the list of products prepared by the selected AGV

deactivate UI

deactivate EMPLOYEE

@enduml

@startuml

actor "Warehouse Employee" as EMPLOYEE
participant ListOrdersBeingPreparedUI as UI <<presentation>>
participant ListOrdersBeingPreparedController as CONTROLLER <<application>>
participant AGVTask as TASK <<domain>>
participant PersistenceContext as PERSISTENCE <<persistence>>
participant RepositoryFactory as FACTORY <<factory>>
database AGVRepository as REPOSITORY_AGV <<repository>>
database ProductOrderRepository as REPOSITORY_ORDERS <<repository>>

EMPLOYEE -> UI: Ask for the list of products prepared by an
activate EMPLOYEE
activate UI

UI -> CONTROLLER: create()

activate CONTROLLER
deactivate CONTROLLER

UI -> CONTROLLER : getAGVsAvaiable()
activate CONTROLLER

CONTROLLER -> PERSISTENCE : repositories()

activate PERSISTENCE

PERSISTENCE -> FACTORY : create()

activate FACTORY
deactivate FACTORY

PERSISTENCE - -> CONTROLLER : repositoryFactory

deactivate PERSISTENCE

CONTROLLER -> FACTORY : getAGVRepository()

activate FACTORY

FACTORY -> REPOSITORY_AGV : create()

activate REPOSITORY_AGV
deactivate REPOSITORY_AGV

FACTORY - -> CONTROLLER : agvRepository
deactivate FACTORY

CONTROLLER -> REPOSITORY_AGV : getAGVsAvaiable()

activate REPOSITORY_AGV

REPOSITORY_AGV - -> CONTROLLER : agvsAvaiable

deactivate REPOSITORY_AGV

CONTROLLER - -> UI : agvsAvaiable
deactivate CONTROLLER

UI - -> EMPLOYEE: Shows the list of AGVs and asks to select one


deactivate CONTROLLER
deactivate UI

EMPLOYEE -> UI : Select the AGV

activate UI

UI -> CONTROLLER : getOrdersWhoNeedToBePreparedByAGV()

activate CONTROLLER

CONTROLLER -> FACTORY : getOrderRepository()

activate FACTORY

FACTORY - -> CONTROLLER : orderRepository

deactivate FACTORY

CONTROLLER -> REPOSITORY_ORDERS : getOrdersWhoNeedToBePreparedByAGV()

activate REPOSITORY_ORDERS

REPOSITORY_ORDERS - -> CONTROLLER : listOfOrdersWhoNeedToByPreparedByAgv
deactivate REPOSITORY_ORDERS

CONTROLLER -> TASK : associateOrdersToAgvSelected(listOfOrdersWhoNeedToByPreparedByAgv, agvSelected)

activate TASK
deactivate TASK

CONTROLLER -> REPOSITORY_ORDERS : changeTheStatusOfTheOrdersToReadForClient(listOfOrdersWhoNeedToByPreparedByAgv)

activate REPOSITORY_ORDERS
deactivate REPOSITORY_ORDERS

CONTROLLER - -> UI : listOfOrdersWhoNeedToByPreparedByAgv
deactivate CONTROLLER

UI - -> EMPLOYEE : Shows the list of products prepared by the selected AGV

deactivate UI

deactivate EMPLOYEE

@enduml

PlantUML version 1.2022.1(Tue Feb 01 18:19:58 GMT 2022)
(GPL source distribution)
Java Runtime: OpenJDK Runtime Environment
JVM: OpenJDK 64-Bit Server VM
Default Encoding: Cp1252
Language: pt
Country: BR
--></g></svg>