<?xml version="1.0" encoding="UTF-8" standalone="no"?><svg xmlns="http://www.w3.org/2000/svg" xmlns:xlink="http://www.w3.org/1999/xlink" contentScriptType="application/ecmascript" contentStyleType="text/css" height="1539px" preserveAspectRatio="none" style="width:585px;height:1539px;background:#FFFFFF;" version="1.1" viewBox="0 0 585 1539" width="585px" zoomAndPan="magnify"><defs><filter height="300%" id="f1mrjssgrszh7m" width="300%" x="-1" y="-1"><feGaussianBlur result="blurOut" stdDeviation="2.0"/><feColorMatrix in="blurOut" result="blurOut2" type="matrix" values="0 0 0 0 0 0 0 0 0 0 0 0 0 0 0 0 0 0 .4 0"/><feOffset dx="4.0" dy="4.0" in="blurOut2" result="blurOut3"/><feBlend in="SourceGraphic" in2="blurOut3" mode="normal"/></filter></defs><g><!--MD5=[22b4f80a245276e25c9cb3ee67d19758]
cluster <<aggregate>> AGV--><polygon fill="#FFFFFF" filter="url(#f1mrjssgrszh7m)" points="126,6,269,6,276,29.6094,568,29.6094,568,896,126,896,126,6" style="stroke:#000000;stroke-width:1.5;"/><line style="stroke:#000000;stroke-width:1.5;" x1="126" x2="276" y1="29.6094" y2="29.6094"/><text fill="#000000" font-family="sans-serif" font-size="14" font-weight="bold" lengthAdjust="spacing" textLength="137" x="130" y="22.5332">&lt;&lt;aggregate&gt;&gt; AGV</text><!--MD5=[ce5e91745b5c4e46f992402a2ac24ff2]
cluster <<aggregate>> ProductOrder--><polygon fill="#FFFFFF" filter="url(#f1mrjssgrszh7m)" points="87,920,297,920,304,943.6094,563,943.6094,563,1532,87,1532,87,920" style="stroke:#000000;stroke-width:1.5;"/><line style="stroke:#000000;stroke-width:1.5;" x1="87" x2="304" y1="943.6094" y2="943.6094"/><text fill="#000000" font-family="sans-serif" font-size="14" font-weight="bold" lengthAdjust="spacing" textLength="204" x="91" y="936.5332">&lt;&lt;aggregate&gt;&gt; ProductOrder</text><!--MD5=[53b2c06ade5903185ca3326dce80e141]
class AGV--><rect codeLine="28" fill="#F5F5DC" filter="url(#f1mrjssgrszh7m)" height="77.1172" id="AGV" style="stroke:#A80036;stroke-width:1.5;" width="71" x="142" y="519.5"/><ellipse cx="157" cy="547.1406" fill="#ADD1B2" rx="11" ry="11" style="stroke:#A80036;stroke-width:1.0;"/><path d="M155.5,548.1406 L155.5,550.1406 L159.5,550.1406 L159.5,549.1406 L159.5,548.6563 L160.125,548.1406 L160.5,548.1406 L160.875,548.1406 L161.5,548.6563 L161.5,549.1406 L161.5,552.1406 L153.5,552.1406 L153.0156,552.1406 L152.5,551.5156 L152.5,551.1406 L152.5,550.7656 L153.0156,550.1406 L153.5,550.1406 L153.5,550.1406 L153.5,544.1406 L153.5,544.1406 L153.0156,544.1406 L152.5,543.5156 L152.5,543.1406 L152.5,542.7656 L153.0156,542.1406 L153.5,542.1406 L161.5,542.1406 L161.5,545.1406 L161.5,545.625 L160.875,546.1406 L160.5,546.1406 L160.125,546.1406 L159.5,545.625 L159.5,545.1406 L159.5,544.1406 L155.5,544.1406 L155.5,546.1406 L156.5,546.1406 L156.5,545.6563 L156.5,545.6563 L157.125,545.1406 L157.5,545.1406 L157.875,545.1406 L158.5,545.6563 L158.5,546.1406 L158.5,548.1406 L158.5,548.625 L157.875,549.1406 L157.875,549.1406 L157.5,549.1406 L157.125,549.1406 L156.5,548.625 L156.5,548.625 L156.5,548.1406 L155.5,548.1406 Z " fill="#000000"/><text fill="#000000" font-family="sans-serif" font-size="12" font-style="italic" lengthAdjust="spacing" textLength="43" x="169" y="536.957">«entity»</text><text fill="#000000" font-family="sans-serif" font-size="12" font-style="italic" lengthAdjust="spacing" textLength="35" x="173" y="552.0508">«root»</text><text fill="#000000" font-family="sans-serif" font-size="12" lengthAdjust="spacing" textLength="23" x="179" y="567.1445">AGV</text><line style="stroke:#A80036;stroke-width:1.5;" x1="143" x2="212" y1="574.7813" y2="574.7813"/><text fill="#000000" font-family="sans-serif" font-size="11" lengthAdjust="spacing" textLength="28" x="148" y="590.2002">-state</text><!--MD5=[16e34fb2e0281018267f0ef5d0b296ef]
class BriefDescription--><rect codeLine="30" fill="#F5F5DC" filter="url(#f1mrjssgrszh7m)" height="62.0234" id="BriefDescription" style="stroke:#A80036;stroke-width:1.5;" width="120" x="421" y="818"/><ellipse cx="436" cy="838.0938" fill="#FF8B40" rx="11" ry="11" style="stroke:#A80036;stroke-width:1.0;"/><path d="M436,841.375 L437.5313,835.8438 L437.5313,835.8438 L437.0156,835.8438 L436.5,835.2188 L436.5,834.8438 L436.5,834.4688 L437.0156,833.8438 L437.5313,833.8438 L439.4063,833.8438 L439.9844,833.8438 L440.5,834.4688 L440.5,834.8438 L440.5,835.2188 L439.9844,835.8438 L439.9844,835.8438 L439.5313,835.8438 L437.1875,843.8438 L434.8125,843.8438 L432.3438,835.8438 L432.0156,835.8438 L432.0156,835.8438 L431.5,835.2188 L431.5,834.8438 L431.5,834.4688 L432.0156,833.8438 L432.5938,833.8438 L434.4688,833.8438 L434.9844,833.8438 L435.5,834.4688 L435.5,834.8438 L435.5,835.2188 L434.9844,835.8438 L434.4688,835.8438 L434.4688,835.8438 L436,841.375 Z " fill="#000000"/><text fill="#000000" font-family="sans-serif" font-size="12" font-style="italic" lengthAdjust="spacing" textLength="81" x="453.5" y="835.457">«value object»</text><text fill="#000000" font-family="sans-serif" font-size="12" lengthAdjust="spacing" textLength="88" x="450" y="850.5508">BriefDescription</text><line style="stroke:#A80036;stroke-width:1.5;" x1="422" x2="540" y1="858.1875" y2="858.1875"/><text fill="#000000" font-family="sans-serif" font-size="11" lengthAdjust="spacing" textLength="80" x="427" y="873.6064">-briefDescription</text><!--MD5=[7e20e022571e30ec1001cf6eabd7f3e2]
class Model--><rect codeLine="34" fill="#F5F5DC" filter="url(#f1mrjssgrszh7m)" height="62.0234" id="Model" style="stroke:#A80036;stroke-width:1.5;" width="109" x="426.5" y="721"/><ellipse cx="441.5" cy="741.0938" fill="#FF8B40" rx="11" ry="11" style="stroke:#A80036;stroke-width:1.0;"/><path d="M441.5,744.375 L443.0313,738.8438 L443.0313,738.8438 L442.5156,738.8438 L442,738.2188 L442,737.8438 L442,737.4688 L442.5156,736.8438 L443.0313,736.8438 L444.9063,736.8438 L445.4844,736.8438 L446,737.4688 L446,737.8438 L446,738.2188 L445.4844,738.8438 L445.4844,738.8438 L445.0313,738.8438 L442.6875,746.8438 L440.3125,746.8438 L437.8438,738.8438 L437.5156,738.8438 L437.5156,738.8438 L437,738.2188 L437,737.8438 L437,737.4688 L437.5156,736.8438 L438.0938,736.8438 L439.9688,736.8438 L440.4844,736.8438 L441,737.4688 L441,737.8438 L441,738.2188 L440.4844,738.8438 L439.9688,738.8438 L439.9688,738.8438 L441.5,744.375 Z " fill="#000000"/><text fill="#000000" font-family="sans-serif" font-size="12" font-style="italic" lengthAdjust="spacing" textLength="81" x="453.5" y="738.457">«value object»</text><text fill="#000000" font-family="sans-serif" font-size="12" lengthAdjust="spacing" textLength="33" x="477.5" y="753.5508">Model</text><line style="stroke:#A80036;stroke-width:1.5;" x1="427.5" x2="534.5" y1="761.1875" y2="761.1875"/><text fill="#000000" font-family="sans-serif" font-size="11" lengthAdjust="spacing" textLength="32" x="432.5" y="776.6064">-model</text><!--MD5=[e583cbaa21abc89bc679fcec0dd8046e]
class AGVStatus--><rect codeLine="42" fill="#F5F5DC" filter="url(#f1mrjssgrszh7m)" height="62.0234" id="AGVStatus" style="stroke:#A80036;stroke-width:1.5;" width="109" x="426.5" y="624"/><ellipse cx="441.5" cy="644.0938" fill="#FF8B40" rx="11" ry="11" style="stroke:#A80036;stroke-width:1.0;"/><path d="M441.5,647.375 L443.0313,641.8438 L443.0313,641.8438 L442.5156,641.8438 L442,641.2188 L442,640.8438 L442,640.4688 L442.5156,639.8438 L443.0313,639.8438 L444.9063,639.8438 L445.4844,639.8438 L446,640.4688 L446,640.8438 L446,641.2188 L445.4844,641.8438 L445.4844,641.8438 L445.0313,641.8438 L442.6875,649.8438 L440.3125,649.8438 L437.8438,641.8438 L437.5156,641.8438 L437.5156,641.8438 L437,641.2188 L437,640.8438 L437,640.4688 L437.5156,639.8438 L438.0938,639.8438 L439.9688,639.8438 L440.4844,639.8438 L441,640.4688 L441,640.8438 L441,641.2188 L440.4844,641.8438 L439.9688,641.8438 L439.9688,641.8438 L441.5,647.375 Z " fill="#000000"/><text fill="#000000" font-family="sans-serif" font-size="12" font-style="italic" lengthAdjust="spacing" textLength="81" x="453.5" y="641.457">«value object»</text><text fill="#000000" font-family="sans-serif" font-size="12" lengthAdjust="spacing" textLength="58" x="465" y="656.5508">AGVStatus</text><line style="stroke:#A80036;stroke-width:1.5;" x1="427.5" x2="534.5" y1="664.1875" y2="664.1875"/><text fill="#000000" font-family="sans-serif" font-size="11" lengthAdjust="spacing" textLength="49" x="432.5" y="679.6064">-taskState</text><!--MD5=[529d3a023cdac506d4f0a83ea48e48d1]
class AGVTask--><rect codeLine="46" fill="#F5F5DC" filter="url(#f1mrjssgrszh7m)" height="62.0234" id="AGVTask" style="stroke:#A80036;stroke-width:1.5;" width="109" x="426.5" y="527"/><ellipse cx="441.5" cy="547.0938" fill="#FF8B40" rx="11" ry="11" style="stroke:#A80036;stroke-width:1.0;"/><path d="M441.5,550.375 L443.0313,544.8438 L443.0313,544.8438 L442.5156,544.8438 L442,544.2188 L442,543.8438 L442,543.4688 L442.5156,542.8438 L443.0313,542.8438 L444.9063,542.8438 L445.4844,542.8438 L446,543.4688 L446,543.8438 L446,544.2188 L445.4844,544.8438 L445.4844,544.8438 L445.0313,544.8438 L442.6875,552.8438 L440.3125,552.8438 L437.8438,544.8438 L437.5156,544.8438 L437.5156,544.8438 L437,544.2188 L437,543.8438 L437,543.4688 L437.5156,542.8438 L438.0938,542.8438 L439.9688,542.8438 L440.4844,542.8438 L441,543.4688 L441,543.8438 L441,544.2188 L440.4844,544.8438 L439.9688,544.8438 L439.9688,544.8438 L441.5,550.375 Z " fill="#000000"/><text fill="#000000" font-family="sans-serif" font-size="12" font-style="italic" lengthAdjust="spacing" textLength="81" x="453.5" y="544.457">«value object»</text><text fill="#000000" font-family="sans-serif" font-size="12" lengthAdjust="spacing" textLength="50" x="469" y="559.5508">AGVTask</text><line style="stroke:#A80036;stroke-width:1.5;" x1="427.5" x2="534.5" y1="567.1875" y2="567.1875"/><text fill="#000000" font-family="sans-serif" font-size="11" lengthAdjust="spacing" textLength="45" x="432.5" y="582.6064">-agvTask</text><!--MD5=[05194f585e571ad3b22e4df7dddd3081]
class MaxWeightCapacity--><rect codeLine="58" fill="#F5F5DC" filter="url(#f1mrjssgrszh7m)" height="62.0234" id="MaxWeightCapacity" style="stroke:#A80036;stroke-width:1.5;" width="138" x="412" y="430"/><ellipse cx="427" cy="450.0938" fill="#FF8B40" rx="11" ry="11" style="stroke:#A80036;stroke-width:1.0;"/><path d="M427,453.375 L428.5313,447.8438 L428.5313,447.8438 L428.0156,447.8438 L427.5,447.2188 L427.5,446.8438 L427.5,446.4688 L428.0156,445.8438 L428.5313,445.8438 L430.4063,445.8438 L430.9844,445.8438 L431.5,446.4688 L431.5,446.8438 L431.5,447.2188 L430.9844,447.8438 L430.9844,447.8438 L430.5313,447.8438 L428.1875,455.8438 L425.8125,455.8438 L423.3438,447.8438 L423.0156,447.8438 L423.0156,447.8438 L422.5,447.2188 L422.5,446.8438 L422.5,446.4688 L423.0156,445.8438 L423.5938,445.8438 L425.4688,445.8438 L425.9844,445.8438 L426.5,446.4688 L426.5,446.8438 L426.5,447.2188 L425.9844,447.8438 L425.4688,447.8438 L425.4688,447.8438 L427,453.375 Z " fill="#000000"/><text fill="#000000" font-family="sans-serif" font-size="12" font-style="italic" lengthAdjust="spacing" textLength="81" x="453.5" y="447.457">«value object»</text><text fill="#000000" font-family="sans-serif" font-size="12" lengthAdjust="spacing" textLength="106" x="441" y="462.5508">MaxWeightCapacity</text><line style="stroke:#A80036;stroke-width:1.5;" x1="413" x2="549" y1="470.1875" y2="470.1875"/><text fill="#000000" font-family="sans-serif" font-size="11" lengthAdjust="spacing" textLength="99" x="418" y="485.6064">-maxWeightCapacity</text><!--MD5=[9508bff04b47071e43dc54dae6bb7ca3]
class MaxVolumeCapacity--><rect codeLine="62" fill="#F5F5DC" filter="url(#f1mrjssgrszh7m)" height="62.0234" id="MaxVolumeCapacity" style="stroke:#A80036;stroke-width:1.5;" width="142" x="410" y="333"/><ellipse cx="425" cy="353.0938" fill="#FF8B40" rx="11" ry="11" style="stroke:#A80036;stroke-width:1.0;"/><path d="M425,356.375 L426.5313,350.8438 L426.5313,350.8438 L426.0156,350.8438 L425.5,350.2188 L425.5,349.8438 L425.5,349.4688 L426.0156,348.8438 L426.5313,348.8438 L428.4063,348.8438 L428.9844,348.8438 L429.5,349.4688 L429.5,349.8438 L429.5,350.2188 L428.9844,350.8438 L428.9844,350.8438 L428.5313,350.8438 L426.1875,358.8438 L423.8125,358.8438 L421.3438,350.8438 L421.0156,350.8438 L421.0156,350.8438 L420.5,350.2188 L420.5,349.8438 L420.5,349.4688 L421.0156,348.8438 L421.5938,348.8438 L423.4688,348.8438 L423.9844,348.8438 L424.5,349.4688 L424.5,349.8438 L424.5,350.2188 L423.9844,350.8438 L423.4688,350.8438 L423.4688,350.8438 L425,356.375 Z " fill="#000000"/><text fill="#000000" font-family="sans-serif" font-size="12" font-style="italic" lengthAdjust="spacing" textLength="81" x="453.5" y="350.457">«value object»</text><text fill="#000000" font-family="sans-serif" font-size="12" lengthAdjust="spacing" textLength="110" x="439" y="365.5508">MaxVolumeCapacity</text><line style="stroke:#A80036;stroke-width:1.5;" x1="411" x2="551" y1="373.1875" y2="373.1875"/><text fill="#000000" font-family="sans-serif" font-size="11" lengthAdjust="spacing" textLength="38" x="416" y="388.6064">-volume</text><!--MD5=[4d1e38779c686a11487444ed33c3c69e]
class AGVPosition--><rect codeLine="38" fill="#F5F5DC" filter="url(#f1mrjssgrszh7m)" height="62.0234" id="AGVPosition" style="stroke:#A80036;stroke-width:1.5;" width="109" x="426.5" y="236"/><ellipse cx="441.5" cy="256.0938" fill="#FF8B40" rx="11" ry="11" style="stroke:#A80036;stroke-width:1.0;"/><path d="M441.5,259.375 L443.0313,253.8438 L443.0313,253.8438 L442.5156,253.8438 L442,253.2188 L442,252.8438 L442,252.4688 L442.5156,251.8438 L443.0313,251.8438 L444.9063,251.8438 L445.4844,251.8438 L446,252.4688 L446,252.8438 L446,253.2188 L445.4844,253.8438 L445.4844,253.8438 L445.0313,253.8438 L442.6875,261.8438 L440.3125,261.8438 L437.8438,253.8438 L437.5156,253.8438 L437.5156,253.8438 L437,253.2188 L437,252.8438 L437,252.4688 L437.5156,251.8438 L438.0938,251.8438 L439.9688,251.8438 L440.4844,251.8438 L441,252.4688 L441,252.8438 L441,253.2188 L440.4844,253.8438 L439.9688,253.8438 L439.9688,253.8438 L441.5,259.375 Z " fill="#000000"/><text fill="#000000" font-family="sans-serif" font-size="12" font-style="italic" lengthAdjust="spacing" textLength="81" x="453.5" y="253.457">«value object»</text><text fill="#000000" font-family="sans-serif" font-size="12" lengthAdjust="spacing" textLength="68" x="460" y="268.5508">AGVPosition</text><line style="stroke:#A80036;stroke-width:1.5;" x1="427.5" x2="534.5" y1="276.1875" y2="276.1875"/><text fill="#000000" font-family="sans-serif" font-size="11" lengthAdjust="spacing" textLength="59" x="432.5" y="291.6064">-agvPosition</text><!--MD5=[f6f08570da9efaa92dc067d88742b265]
class AGVId--><rect codeLine="50" fill="#F5F5DC" filter="url(#f1mrjssgrszh7m)" height="62.0234" id="AGVId" style="stroke:#A80036;stroke-width:1.5;" width="109" x="426.5" y="139"/><ellipse cx="441.5" cy="159.0938" fill="#FF8B40" rx="11" ry="11" style="stroke:#A80036;stroke-width:1.0;"/><path d="M441.5,162.375 L443.0313,156.8438 L443.0313,156.8438 L442.5156,156.8438 L442,156.2188 L442,155.8438 L442,155.4688 L442.5156,154.8438 L443.0313,154.8438 L444.9063,154.8438 L445.4844,154.8438 L446,155.4688 L446,155.8438 L446,156.2188 L445.4844,156.8438 L445.4844,156.8438 L445.0313,156.8438 L442.6875,164.8438 L440.3125,164.8438 L437.8438,156.8438 L437.5156,156.8438 L437.5156,156.8438 L437,156.2188 L437,155.8438 L437,155.4688 L437.5156,154.8438 L438.0938,154.8438 L439.9688,154.8438 L440.4844,154.8438 L441,155.4688 L441,155.8438 L441,156.2188 L440.4844,156.8438 L439.9688,156.8438 L439.9688,156.8438 L441.5,162.375 Z " fill="#000000"/><text fill="#000000" font-family="sans-serif" font-size="12" font-style="italic" lengthAdjust="spacing" textLength="81" x="453.5" y="156.457">«value object»</text><text fill="#000000" font-family="sans-serif" font-size="12" lengthAdjust="spacing" textLength="33" x="477.5" y="171.5508">AGVId</text><line style="stroke:#A80036;stroke-width:1.5;" x1="427.5" x2="534.5" y1="179.1875" y2="179.1875"/><text fill="#000000" font-family="sans-serif" font-size="11" lengthAdjust="spacing" textLength="12" x="432.5" y="194.6064">-id</text><!--MD5=[2f49539d777d8d7526d361413cf07525]
class Range--><rect codeLine="54" fill="#F5F5DC" filter="url(#f1mrjssgrszh7m)" height="62.0234" id="Range" style="stroke:#A80036;stroke-width:1.5;" width="109" x="426.5" y="42"/><ellipse cx="441.5" cy="62.0938" fill="#FF8B40" rx="11" ry="11" style="stroke:#A80036;stroke-width:1.0;"/><path d="M441.5,65.375 L443.0313,59.8438 L443.0313,59.8438 L442.5156,59.8438 L442,59.2188 L442,58.8438 L442,58.4688 L442.5156,57.8438 L443.0313,57.8438 L444.9063,57.8438 L445.4844,57.8438 L446,58.4688 L446,58.8438 L446,59.2188 L445.4844,59.8438 L445.4844,59.8438 L445.0313,59.8438 L442.6875,67.8438 L440.3125,67.8438 L437.8438,59.8438 L437.5156,59.8438 L437.5156,59.8438 L437,59.2188 L437,58.8438 L437,58.4688 L437.5156,57.8438 L438.0938,57.8438 L439.9688,57.8438 L440.4844,57.8438 L441,58.4688 L441,58.8438 L441,59.2188 L440.4844,59.8438 L439.9688,59.8438 L439.9688,59.8438 L441.5,65.375 Z " fill="#000000"/><text fill="#000000" font-family="sans-serif" font-size="12" font-style="italic" lengthAdjust="spacing" textLength="81" x="453.5" y="59.457">«value object»</text><text fill="#000000" font-family="sans-serif" font-size="12" lengthAdjust="spacing" textLength="37" x="475.5" y="74.5508">Range</text><line style="stroke:#A80036;stroke-width:1.5;" x1="427.5" x2="534.5" y1="82.1875" y2="82.1875"/><text fill="#000000" font-family="sans-serif" font-size="11" lengthAdjust="spacing" textLength="32" x="432.5" y="97.6064">-range</text><!--MD5=[9265192601ae3d68217fc2a2ce1ea439]
class ProductOrder--><rect codeLine="79" fill="#F5F5DC" filter="url(#f1mrjssgrszh7m)" height="118.625" id="ProductOrder" style="stroke:#A80036;stroke-width:1.5;" width="105" x="125" y="1086.5"/><ellipse cx="140" cy="1114.1406" fill="#ADD1B2" rx="11" ry="11" style="stroke:#A80036;stroke-width:1.0;"/><path d="M138.5,1115.1406 L138.5,1117.1406 L142.5,1117.1406 L142.5,1116.1406 L142.5,1115.6563 L143.125,1115.1406 L143.5,1115.1406 L143.875,1115.1406 L144.5,1115.6563 L144.5,1116.1406 L144.5,1119.1406 L136.5,1119.1406 L136.0156,1119.1406 L135.5,1118.5156 L135.5,1118.1406 L135.5,1117.7656 L136.0156,1117.1406 L136.5,1117.1406 L136.5,1117.1406 L136.5,1111.1406 L136.5,1111.1406 L136.0156,1111.1406 L135.5,1110.5156 L135.5,1110.1406 L135.5,1109.7656 L136.0156,1109.1406 L136.5,1109.1406 L144.5,1109.1406 L144.5,1112.1406 L144.5,1112.625 L143.875,1113.1406 L143.5,1113.1406 L143.125,1113.1406 L142.5,1112.625 L142.5,1112.1406 L142.5,1111.1406 L138.5,1111.1406 L138.5,1113.1406 L139.5,1113.1406 L139.5,1112.6563 L139.5,1112.6563 L140.125,1112.1406 L140.5,1112.1406 L140.875,1112.1406 L141.5,1112.6563 L141.5,1113.1406 L141.5,1115.1406 L141.5,1115.625 L140.875,1116.1406 L140.875,1116.1406 L140.5,1116.1406 L140.125,1116.1406 L139.5,1115.625 L139.5,1115.625 L139.5,1115.1406 L138.5,1115.1406 Z " fill="#000000"/><text fill="#000000" font-family="sans-serif" font-size="12" font-style="italic" lengthAdjust="spacing" textLength="43" x="169" y="1103.957">«entity»</text><text fill="#000000" font-family="sans-serif" font-size="12" font-style="italic" lengthAdjust="spacing" textLength="35" x="173" y="1119.0508">«root»</text><text fill="#000000" font-family="sans-serif" font-size="12" lengthAdjust="spacing" textLength="73" x="154" y="1134.1445">ProductOrder</text><line style="stroke:#A80036;stroke-width:1.5;" x1="126" x2="229" y1="1141.7813" y2="1141.7813"/><text fill="#000000" font-family="sans-serif" font-size="11" lengthAdjust="spacing" textLength="83" x="131" y="1157.2002">-numericIdentifier</text><text fill="#000000" font-family="sans-serif" font-size="11" lengthAdjust="spacing" textLength="65" x="131" y="1171.0361">-dateOfOrder</text><text fill="#000000" font-family="sans-serif" font-size="11" lengthAdjust="spacing" textLength="82" x="131" y="1184.8721">-shipmentMethod</text><text fill="#000000" font-family="sans-serif" font-size="11" lengthAdjust="spacing" textLength="80" x="131" y="1198.708">-paymentMethod</text><!--MD5=[003718b22fee2486eeba0fa029a176b7]
class OrderItem--><rect codeLine="87" fill="#F5F5DC" filter="url(#f1mrjssgrszh7m)" height="62.0234" id="OrderItem" style="stroke:#A80036;stroke-width:1.5;" width="87" x="437.5" y="1454"/><ellipse cx="452.5" cy="1474.0938" fill="#ADD1B2" rx="11" ry="11" style="stroke:#A80036;stroke-width:1.0;"/><path d="M451,1475.0938 L451,1477.0938 L455,1477.0938 L455,1476.0938 L455,1475.6094 L455.625,1475.0938 L456,1475.0938 L456.375,1475.0938 L457,1475.6094 L457,1476.0938 L457,1479.0938 L449,1479.0938 L448.5156,1479.0938 L448,1478.4688 L448,1478.0938 L448,1477.7188 L448.5156,1477.0938 L449,1477.0938 L449,1477.0938 L449,1471.0938 L449,1471.0938 L448.5156,1471.0938 L448,1470.4688 L448,1470.0938 L448,1469.7188 L448.5156,1469.0938 L449,1469.0938 L457,1469.0938 L457,1472.0938 L457,1472.5781 L456.375,1473.0938 L456,1473.0938 L455.625,1473.0938 L455,1472.5781 L455,1472.0938 L455,1471.0938 L451,1471.0938 L451,1473.0938 L452,1473.0938 L452,1472.6094 L452,1472.6094 L452.625,1472.0938 L453,1472.0938 L453.375,1472.0938 L454,1472.6094 L454,1473.0938 L454,1475.0938 L454,1475.5781 L453.375,1476.0938 L453.375,1476.0938 L453,1476.0938 L452.625,1476.0938 L452,1475.5781 L452,1475.5781 L452,1475.0938 L451,1475.0938 Z " fill="#000000"/><text fill="#000000" font-family="sans-serif" font-size="12" font-style="italic" lengthAdjust="spacing" textLength="43" x="472.5" y="1471.457">«entity»</text><text fill="#000000" font-family="sans-serif" font-size="12" lengthAdjust="spacing" textLength="55" x="466.5" y="1486.5508">OrderItem</text><line style="stroke:#A80036;stroke-width:1.5;" x1="438.5" x2="523.5" y1="1494.1875" y2="1494.1875"/><text fill="#000000" font-family="sans-serif" font-size="11" lengthAdjust="spacing" textLength="63" x="443.5" y="1509.6064">-itemQuantity</text><!--MD5=[3828be2b28a85080785365999f855b6a]
class TotalPriceWithoutVAT--><rect codeLine="91" fill="#F5F5DC" filter="url(#f1mrjssgrszh7m)" height="48.1875" id="TotalPriceWithoutVAT" style="stroke:#A80036;stroke-width:1.5;" width="149" x="103" y="986"/><ellipse cx="118" cy="1006.0938" fill="#FF8B40" rx="11" ry="11" style="stroke:#A80036;stroke-width:1.0;"/><path d="M118,1009.375 L119.5313,1003.8438 L119.5313,1003.8438 L119.0156,1003.8438 L118.5,1003.2188 L118.5,1002.8438 L118.5,1002.4688 L119.0156,1001.8438 L119.5313,1001.8438 L121.4063,1001.8438 L121.9844,1001.8438 L122.5,1002.4688 L122.5,1002.8438 L122.5,1003.2188 L121.9844,1003.8438 L121.9844,1003.8438 L121.5313,1003.8438 L119.1875,1011.8438 L116.8125,1011.8438 L114.3438,1003.8438 L114.0156,1003.8438 L114.0156,1003.8438 L113.5,1003.2188 L113.5,1002.8438 L113.5,1002.4688 L114.0156,1001.8438 L114.5938,1001.8438 L116.4688,1001.8438 L116.9844,1001.8438 L117.5,1002.4688 L117.5,1002.8438 L117.5,1003.2188 L116.9844,1003.8438 L116.4688,1003.8438 L116.4688,1003.8438 L118,1009.375 Z " fill="#000000"/><text fill="#000000" font-family="sans-serif" font-size="12" font-style="italic" lengthAdjust="spacing" textLength="81" x="150" y="1003.457">«value object»</text><text fill="#000000" font-family="sans-serif" font-size="12" lengthAdjust="spacing" textLength="117" x="132" y="1018.5508">TotalPriceWithoutVAT</text><line style="stroke:#A80036;stroke-width:1.5;" x1="104" x2="251" y1="1026.1875" y2="1026.1875"/><!--MD5=[5c64c933edd35b792f77c287ddc023c2]
class TotalPriceWithVAT--><rect codeLine="92" fill="#F5F5DC" filter="url(#f1mrjssgrszh7m)" height="48.1875" id="TotalPriceWithVAT" style="stroke:#A80036;stroke-width:1.5;" width="132" x="415" y="1371"/><ellipse cx="430" cy="1391.0938" fill="#FF8B40" rx="11" ry="11" style="stroke:#A80036;stroke-width:1.0;"/><path d="M430,1394.375 L431.5313,1388.8438 L431.5313,1388.8438 L431.0156,1388.8438 L430.5,1388.2188 L430.5,1387.8438 L430.5,1387.4688 L431.0156,1386.8438 L431.5313,1386.8438 L433.4063,1386.8438 L433.9844,1386.8438 L434.5,1387.4688 L434.5,1387.8438 L434.5,1388.2188 L433.9844,1388.8438 L433.9844,1388.8438 L433.5313,1388.8438 L431.1875,1396.8438 L428.8125,1396.8438 L426.3438,1388.8438 L426.0156,1388.8438 L426.0156,1388.8438 L425.5,1388.2188 L425.5,1387.8438 L425.5,1387.4688 L426.0156,1386.8438 L426.5938,1386.8438 L428.4688,1386.8438 L428.9844,1386.8438 L429.5,1387.4688 L429.5,1387.8438 L429.5,1388.2188 L428.9844,1388.8438 L428.4688,1388.8438 L428.4688,1388.8438 L430,1394.375 Z " fill="#000000"/><text fill="#000000" font-family="sans-serif" font-size="12" font-style="italic" lengthAdjust="spacing" textLength="81" x="453.5" y="1388.457">«value object»</text><text fill="#000000" font-family="sans-serif" font-size="12" lengthAdjust="spacing" textLength="100" x="444" y="1403.5508">TotalPriceWithVAT</text><line style="stroke:#A80036;stroke-width:1.5;" x1="416" x2="546" y1="1411.1875" y2="1411.1875"/><!--MD5=[e3d83ec5fd90ea9f3f2bfe265cb53458]
class Status--><rect codeLine="95" fill="#F5F5DC" filter="url(#f1mrjssgrszh7m)" height="48.1875" id="Status" style="stroke:#A80036;stroke-width:1.5;" width="109" x="426.5" y="1288"/><ellipse cx="441.5" cy="1308.0938" fill="#FF8B40" rx="11" ry="11" style="stroke:#A80036;stroke-width:1.0;"/><path d="M441.5,1311.375 L443.0313,1305.8438 L443.0313,1305.8438 L442.5156,1305.8438 L442,1305.2188 L442,1304.8438 L442,1304.4688 L442.5156,1303.8438 L443.0313,1303.8438 L444.9063,1303.8438 L445.4844,1303.8438 L446,1304.4688 L446,1304.8438 L446,1305.2188 L445.4844,1305.8438 L445.4844,1305.8438 L445.0313,1305.8438 L442.6875,1313.8438 L440.3125,1313.8438 L437.8438,1305.8438 L437.5156,1305.8438 L437.5156,1305.8438 L437,1305.2188 L437,1304.8438 L437,1304.4688 L437.5156,1303.8438 L438.0938,1303.8438 L439.9688,1303.8438 L440.4844,1303.8438 L441,1304.4688 L441,1304.8438 L441,1305.2188 L440.4844,1305.8438 L439.9688,1305.8438 L439.9688,1305.8438 L441.5,1311.375 Z " fill="#000000"/><text fill="#000000" font-family="sans-serif" font-size="12" font-style="italic" lengthAdjust="spacing" textLength="81" x="453.5" y="1305.457">«value object»</text><text fill="#000000" font-family="sans-serif" font-size="12" lengthAdjust="spacing" textLength="35" x="476.5" y="1320.5508">Status</text><line style="stroke:#A80036;stroke-width:1.5;" x1="427.5" x2="534.5" y1="1328.1875" y2="1328.1875"/><!--MD5=[9a3d507cf6fc93d670446401c6fc7dfc]
class TotalVolume--><rect codeLine="96" fill="#F5F5DC" filter="url(#f1mrjssgrszh7m)" height="48.1875" id="TotalVolume" style="stroke:#A80036;stroke-width:1.5;" width="109" x="426.5" y="1205"/><ellipse cx="441.5" cy="1225.0938" fill="#FF8B40" rx="11" ry="11" style="stroke:#A80036;stroke-width:1.0;"/><path d="M441.5,1228.375 L443.0313,1222.8438 L443.0313,1222.8438 L442.5156,1222.8438 L442,1222.2188 L442,1221.8438 L442,1221.4688 L442.5156,1220.8438 L443.0313,1220.8438 L444.9063,1220.8438 L445.4844,1220.8438 L446,1221.4688 L446,1221.8438 L446,1222.2188 L445.4844,1222.8438 L445.4844,1222.8438 L445.0313,1222.8438 L442.6875,1230.8438 L440.3125,1230.8438 L437.8438,1222.8438 L437.5156,1222.8438 L437.5156,1222.8438 L437,1222.2188 L437,1221.8438 L437,1221.4688 L437.5156,1220.8438 L438.0938,1220.8438 L439.9688,1220.8438 L440.4844,1220.8438 L441,1221.4688 L441,1221.8438 L441,1222.2188 L440.4844,1222.8438 L439.9688,1222.8438 L439.9688,1222.8438 L441.5,1228.375 Z " fill="#000000"/><text fill="#000000" font-family="sans-serif" font-size="12" font-style="italic" lengthAdjust="spacing" textLength="81" x="453.5" y="1222.457">«value object»</text><text fill="#000000" font-family="sans-serif" font-size="12" lengthAdjust="spacing" textLength="69" x="459.5" y="1237.5508">TotalVolume</text><line style="stroke:#A80036;stroke-width:1.5;" x1="427.5" x2="534.5" y1="1245.1875" y2="1245.1875"/><!--MD5=[2de810a4f4496708d1b1d2c65d69f81b]
class TotalWeight--><rect codeLine="97" fill="#F5F5DC" filter="url(#f1mrjssgrszh7m)" height="48.1875" id="TotalWeight" style="stroke:#A80036;stroke-width:1.5;" width="109" x="426.5" y="1122"/><ellipse cx="441.5" cy="1142.0938" fill="#FF8B40" rx="11" ry="11" style="stroke:#A80036;stroke-width:1.0;"/><path d="M441.5,1145.375 L443.0313,1139.8438 L443.0313,1139.8438 L442.5156,1139.8438 L442,1139.2188 L442,1138.8438 L442,1138.4688 L442.5156,1137.8438 L443.0313,1137.8438 L444.9063,1137.8438 L445.4844,1137.8438 L446,1138.4688 L446,1138.8438 L446,1139.2188 L445.4844,1139.8438 L445.4844,1139.8438 L445.0313,1139.8438 L442.6875,1147.8438 L440.3125,1147.8438 L437.8438,1139.8438 L437.5156,1139.8438 L437.5156,1139.8438 L437,1139.2188 L437,1138.8438 L437,1138.4688 L437.5156,1137.8438 L438.0938,1137.8438 L439.9688,1137.8438 L440.4844,1137.8438 L441,1138.4688 L441,1138.8438 L441,1139.2188 L440.4844,1139.8438 L439.9688,1139.8438 L439.9688,1139.8438 L441.5,1145.375 Z " fill="#000000"/><text fill="#000000" font-family="sans-serif" font-size="12" font-style="italic" lengthAdjust="spacing" textLength="81" x="453.5" y="1139.457">«value object»</text><text fill="#000000" font-family="sans-serif" font-size="12" lengthAdjust="spacing" textLength="65" x="461.5" y="1154.5508">TotalWeight</text><line style="stroke:#A80036;stroke-width:1.5;" x1="427.5" x2="534.5" y1="1162.1875" y2="1162.1875"/><!--MD5=[50e91b14af953b75b920246565d9ae95]
class DeliveryAddress--><rect codeLine="93" fill="#F5F5DC" filter="url(#f1mrjssgrszh7m)" height="48.1875" id="DeliveryAddress" style="stroke:#A80036;stroke-width:1.5;" width="121" x="420.5" y="1039"/><ellipse cx="435.5" cy="1059.0938" fill="#FF8B40" rx="11" ry="11" style="stroke:#A80036;stroke-width:1.0;"/><path d="M435.5,1062.375 L437.0313,1056.8438 L437.0313,1056.8438 L436.5156,1056.8438 L436,1056.2188 L436,1055.8438 L436,1055.4688 L436.5156,1054.8438 L437.0313,1054.8438 L438.9063,1054.8438 L439.4844,1054.8438 L440,1055.4688 L440,1055.8438 L440,1056.2188 L439.4844,1056.8438 L439.4844,1056.8438 L439.0313,1056.8438 L436.6875,1064.8438 L434.3125,1064.8438 L431.8438,1056.8438 L431.5156,1056.8438 L431.5156,1056.8438 L431,1056.2188 L431,1055.8438 L431,1055.4688 L431.5156,1054.8438 L432.0938,1054.8438 L433.9688,1054.8438 L434.4844,1054.8438 L435,1055.4688 L435,1055.8438 L435,1056.2188 L434.4844,1056.8438 L433.9688,1056.8438 L433.9688,1056.8438 L435.5,1062.375 Z " fill="#000000"/><text fill="#000000" font-family="sans-serif" font-size="12" font-style="italic" lengthAdjust="spacing" textLength="81" x="453.5" y="1056.457">«value object»</text><text fill="#000000" font-family="sans-serif" font-size="12" lengthAdjust="spacing" textLength="89" x="449.5" y="1071.5508">DeliveryAddress</text><line style="stroke:#A80036;stroke-width:1.5;" x1="421.5" x2="540.5" y1="1079.1875" y2="1079.1875"/><!--MD5=[9a51335c5b13b040816549c83a39a144]
class BillingAddress--><rect codeLine="94" fill="#F5F5DC" filter="url(#f1mrjssgrszh7m)" height="48.1875" id="BillingAddress" style="stroke:#A80036;stroke-width:1.5;" width="112" x="425" y="956"/><ellipse cx="440" cy="976.0938" fill="#FF8B40" rx="11" ry="11" style="stroke:#A80036;stroke-width:1.0;"/><path d="M440,979.375 L441.5313,973.8438 L441.5313,973.8438 L441.0156,973.8438 L440.5,973.2188 L440.5,972.8438 L440.5,972.4688 L441.0156,971.8438 L441.5313,971.8438 L443.4063,971.8438 L443.9844,971.8438 L444.5,972.4688 L444.5,972.8438 L444.5,973.2188 L443.9844,973.8438 L443.9844,973.8438 L443.5313,973.8438 L441.1875,981.8438 L438.8125,981.8438 L436.3438,973.8438 L436.0156,973.8438 L436.0156,973.8438 L435.5,973.2188 L435.5,972.8438 L435.5,972.4688 L436.0156,971.8438 L436.5938,971.8438 L438.4688,971.8438 L438.9844,971.8438 L439.5,972.4688 L439.5,972.8438 L439.5,973.2188 L438.9844,973.8438 L438.4688,973.8438 L438.4688,973.8438 L440,979.375 Z " fill="#000000"/><text fill="#000000" font-family="sans-serif" font-size="12" font-style="italic" lengthAdjust="spacing" textLength="81" x="453.5" y="973.457">«value object»</text><text fill="#000000" font-family="sans-serif" font-size="12" lengthAdjust="spacing" textLength="80" x="454" y="988.5508">BillingAddress</text><line style="stroke:#A80036;stroke-width:1.5;" x1="426" x2="536" y1="996.1875" y2="996.1875"/><!--MD5=[2234673e5bfcd6f879a72487a4afa117]
link AGV to AGVId--><path codeLine="100" d="M185.38,519.07 C196.92,463.2 224.78,359.48 282,291 C319.38,246.26 377.78,213.43 421.48,193.35 " fill="none" id="AGV-to-AGVId" style="stroke:#222222;stroke-width:1.0;"/><polygon fill="#222222" points="426.2,191.2,416.3515,191.2828,421.6482,193.269,419.6619,198.5657,426.2,191.2" style="stroke:#222222;stroke-width:1.0;"/><text fill="#000000" font-family="sans-serif" font-size="13" lengthAdjust="spacing" textLength="21" x="320.5" y="214.4951">has</text><text fill="#000000" font-family="sans-serif" font-size="13" lengthAdjust="spacing" textLength="7" x="411.3659" y="208.6409">1</text><!--MD5=[b428ecffb88d381ab19e968f9006f1fa]
link AGV to Range--><path codeLine="101" d="M180.26,519.42 C185.34,447.84 205.11,292.6 282,192 C317.6,145.42 377.1,113.24 421.6,94.2 " fill="none" id="AGV-to-Range" style="stroke:#222222;stroke-width:1.0;"/><polygon fill="#222222" points="426.4,92.17,416.5528,91.9869,421.794,94.1154,419.6655,99.3565,426.4,92.17" style="stroke:#222222;stroke-width:1.0;"/><text fill="#000000" font-family="sans-serif" font-size="13" lengthAdjust="spacing" textLength="50" x="306" y="111.4951">respects</text><text fill="#000000" font-family="sans-serif" font-size="13" lengthAdjust="spacing" textLength="7" x="411.5928" y="109.3381">1</text><!--MD5=[6df205c85b5f33c8d427fd455753ef9d]
link AGV to AGVTask--><path codeLine="102" d="M213.09,558 C263.86,558 359.25,558 421.17,558 " fill="none" id="AGV-to-AGVTask" style="stroke:#222222;stroke-width:1.0;"/><polygon fill="#222222" points="426.31,558,417.31,554,421.31,558,417.31,562,426.31,558" style="stroke:#222222;stroke-width:1.0;"/><text fill="#000000" font-family="sans-serif" font-size="13" lengthAdjust="spacing" textLength="63" x="299.5" y="554.4951">associated</text><text fill="#000000" font-family="sans-serif" font-size="13" lengthAdjust="spacing" textLength="7" x="411.4907" y="572.5922">1</text><!--MD5=[544b9eb422541cc431b04e90f57fdf55]
link AGV to AGVStatus--><path codeLine="103" d="M213.09,569.13 C263.96,585.5 359.63,616.28 421.54,636.19 " fill="none" id="AGV-to-AGVStatus" style="stroke:#222222;stroke-width:1.0;"/><polygon fill="#222222" points="426.31,637.73,418.9651,631.1685,421.5497,636.2004,416.5178,638.785,426.31,637.73" style="stroke:#222222;stroke-width:1.0;"/><text fill="#000000" font-family="sans-serif" font-size="13" lengthAdjust="spacing" textLength="45" x="308.5" y="589.4951">collects</text><text fill="#000000" font-family="sans-serif" font-size="13" lengthAdjust="spacing" textLength="20" x="398.4259" y="650.1153">1..*</text><!--MD5=[90de021bb2aa8991bb28cb59916c543e]
link AGV to Model--><path codeLine="104" d="M213.32,591.37 C232.69,609.04 257.73,630.43 282,647 C326.62,677.46 381.09,705.77 421.6,725.3 " fill="none" id="AGV-to-Model" style="stroke:#222222;stroke-width:1.0;"/><polygon fill="#222222" points="426.46,727.63,420.0641,720.1405,421.9486,725.4742,416.6149,727.3587,426.46,727.63" style="stroke:#222222;stroke-width:1.0;"/><text fill="#000000" font-family="sans-serif" font-size="13" lengthAdjust="spacing" textLength="21" x="320.5" y="643.4951">has</text><text fill="#000000" font-family="sans-serif" font-size="13" lengthAdjust="spacing" textLength="7" x="411.6609" y="738.9474">1</text><!--MD5=[a00a30fffa578e516f3e19cd4542a765]
link AGV to BriefDescription--><path codeLine="105" d="M195.18,596.59 C212.71,633.82 243.12,690.1 282,729 C320.79,767.82 374.52,799.36 416.22,820.35 " fill="none" id="AGV-to-BriefDescription" style="stroke:#222222;stroke-width:1.0;"/><polygon fill="#222222" points="420.73,822.6,414.4593,815.0054,416.255,820.3697,410.8907,822.1654,420.73,822.6" style="stroke:#222222;stroke-width:1.0;"/><text fill="#000000" font-family="sans-serif" font-size="13" lengthAdjust="spacing" textLength="96" x="283" y="725.4951">characterized by</text><text fill="#000000" font-family="sans-serif" font-size="13" lengthAdjust="spacing" textLength="7" x="405.958" y="833.8726">1</text><!--MD5=[6d8c6a02073692a8b3732d0820cd1b6f]
link AGV to MaxWeightCapacity--><path codeLine="106" d="M213.09,546.87 C260.12,531.74 345.43,504.29 406.97,484.5 " fill="none" id="AGV-to-MaxWeightCapacity" style="stroke:#222222;stroke-width:1.0;"/><polygon fill="#222222" points="411.73,482.97,401.9378,481.915,406.9697,484.4996,404.3851,489.5315,411.73,482.97" style="stroke:#222222;stroke-width:1.0;"/><text fill="#000000" font-family="sans-serif" font-size="13" lengthAdjust="spacing" textLength="50" x="306" y="492.4951">respects</text><text fill="#000000" font-family="sans-serif" font-size="13" lengthAdjust="spacing" textLength="7" x="397.2256" y="499.5727">1</text><!--MD5=[4c00ca5a25f901c6cb5884f2d77c2768]
link AGV to MaxVolumeCapacity--><path codeLine="107" d="M213.4,525.07 C232.79,507.63 257.83,486.47 282,470 C322.25,442.57 370.37,416.67 409.09,397.34 " fill="none" id="AGV-to-MaxVolumeCapacity" style="stroke:#222222;stroke-width:1.0;"/><polygon fill="#222222" points="413.76,395.02,403.9207,395.4546,409.285,397.2503,407.4893,402.6146,413.76,395.02" style="stroke:#222222;stroke-width:1.0;"/><text fill="#000000" font-family="sans-serif" font-size="13" lengthAdjust="spacing" textLength="50" x="306" y="410.4951">respects</text><text fill="#000000" font-family="sans-serif" font-size="13" lengthAdjust="spacing" textLength="7" x="395.0437" y="415.005">1</text><!--MD5=[bf5efedcc9e681833f119f210f8fc209]
link AGV to AGVPosition--><path codeLine="108" d="M195.43,519.32 C213.04,482.34 243.43,426.64 282,388 C322.51,347.43 379.17,314.57 421.5,293.39 " fill="none" id="AGV-to-AGVPosition" style="stroke:#222222;stroke-width:1.0;"/><polygon fill="#222222" points="426.07,291.12,416.2297,291.5294,421.5893,293.3389,419.7799,298.6985,426.07,291.12" style="stroke:#222222;stroke-width:1.0;"/><text fill="#000000" font-family="sans-serif" font-size="13" lengthAdjust="spacing" textLength="56" x="303" y="313.4951">located in</text><text fill="#000000" font-family="sans-serif" font-size="13" lengthAdjust="spacing" textLength="7" x="411.5837" y="308.7515">1</text><!--MD5=[9d37365661f3e769065fd3b311322e5f]
link ProductOrder to TotalPriceWithoutVAT--><path codeLine="110" d="M177.5,1086.35 C177.5,1070.09 177.5,1053.19 177.5,1039.43 " fill="none" id="ProductOrder-to-TotalPriceWithoutVAT" style="stroke:#222222;stroke-width:1.0;"/><polygon fill="#222222" points="177.5,1034.13,173.5,1043.13,177.5,1039.13,181.5,1043.13,177.5,1034.13" style="stroke:#222222;stroke-width:1.0;"/><text fill="#000000" font-family="sans-serif" font-size="13" lengthAdjust="spacing" textLength="57" x="137" y="1065.7451">is marked</text><text fill="#000000" font-family="sans-serif" font-size="13" lengthAdjust="spacing" textLength="7" x="169.6031" y="1055.8795">1</text><!--MD5=[c3c91fd6b69ecb92ab5355007e5de131]
link ProductOrder to TotalPriceWithVAT--><path codeLine="111" d="M209.26,1205.62 C227.28,1236.18 252.33,1272.28 282,1298 C319.38,1330.41 369.49,1354.82 409.94,1371.04 " fill="none" id="ProductOrder-to-TotalPriceWithVAT" style="stroke:#222222;stroke-width:1.0;"/><polygon fill="#222222" points="414.82,1372.98,407.9306,1365.9418,410.1727,1371.1354,404.9792,1373.3775,414.82,1372.98" style="stroke:#222222;stroke-width:1.0;"/><text fill="#000000" font-family="sans-serif" font-size="13" lengthAdjust="spacing" textLength="57" x="302.5" y="1294.4951">is marked</text><text fill="#000000" font-family="sans-serif" font-size="13" lengthAdjust="spacing" textLength="7" x="400.1988" y="1384.9507">1</text><!--MD5=[ac4c49bc24431560733104ccf6b1c608]
link ProductOrder to Status--><path codeLine="112" d="M230.25,1189.33 C246.28,1201.69 264.38,1214.61 282,1225 C326.75,1251.4 380.97,1274.68 421.35,1290.5 " fill="none" id="ProductOrder-to-Status" style="stroke:#222222;stroke-width:1.0;"/><polygon fill="#222222" points="426.21,1292.39,419.2759,1285.3959,421.5511,1290.575,416.3719,1292.8502,426.21,1292.39" style="stroke:#222222;stroke-width:1.0;"/><text fill="#000000" font-family="sans-serif" font-size="13" lengthAdjust="spacing" textLength="24" x="319" y="1221.4951">is in</text><text fill="#000000" font-family="sans-serif" font-size="13" lengthAdjust="spacing" textLength="7" x="411.3773" y="1304.336">1</text><!--MD5=[563a6ede6ece78cc638570b856330fe7]
link ProductOrder to TotalVolume--><path codeLine="113" d="M230.33,1160.27 C283.45,1174.89 365.9,1197.59 421.36,1212.86 " fill="none" id="ProductOrder-to-TotalVolume" style="stroke:#222222;stroke-width:1.0;"/><polygon fill="#222222" points="426.31,1214.22,418.6812,1207.991,421.4865,1212.9032,416.5743,1215.7086,426.31,1214.22" style="stroke:#222222;stroke-width:1.0;"/><text fill="#000000" font-family="sans-serif" font-size="13" lengthAdjust="spacing" textLength="90" x="286" y="1171.4951">associated with</text><text fill="#000000" font-family="sans-serif" font-size="13" lengthAdjust="spacing" textLength="7" x="411.4907" y="1226.8151">1</text><!--MD5=[6617a929b741938ab332a1b483a4790e]
link ProductOrder to TotalWeight--><path codeLine="114" d="M230.33,1146 C283.34,1146 365.56,1146 421.03,1146 " fill="none" id="ProductOrder-to-TotalWeight" style="stroke:#222222;stroke-width:1.0;"/><polygon fill="#222222" points="426.31,1146,417.31,1142,421.31,1146,417.31,1150,426.31,1146" style="stroke:#222222;stroke-width:1.0;"/><text fill="#000000" font-family="sans-serif" font-size="13" lengthAdjust="spacing" textLength="90" x="286" y="1142.4951">associated with</text><text fill="#000000" font-family="sans-serif" font-size="13" lengthAdjust="spacing" textLength="7" x="411.4907" y="1160.5811">1</text><!--MD5=[03880c74fb0017f0ee6a768396cad903]
link ProductOrder to DeliveryAddress--><path codeLine="115" d="M230.33,1131.73 C281.57,1117.63 360.1,1096.01 415.38,1080.79 " fill="none" id="ProductOrder-to-DeliveryAddress" style="stroke:#222222;stroke-width:1.0;"/><polygon fill="#222222" points="420.32,1079.43,410.5802,1077.9683,415.5002,1080.7601,412.7084,1085.6801,420.32,1079.43" style="stroke:#222222;stroke-width:1.0;"/><text fill="#000000" font-family="sans-serif" font-size="13" lengthAdjust="spacing" textLength="90" x="286" y="1088.4951">associated with</text><text fill="#000000" font-family="sans-serif" font-size="13" lengthAdjust="spacing" textLength="7" x="405.4981" y="1095.9125">1</text><!--MD5=[8f2520dded3c7e1b7a910e55a1daad5a]
link ProductOrder to BillingAddress--><path codeLine="116" d="M230.16,1102.04 C246.19,1089.52 264.31,1076.46 282,1066 C326.18,1039.88 379.74,1017.1 420.02,1001.56 " fill="none" id="ProductOrder-to-BillingAddress" style="stroke:#222222;stroke-width:1.0;"/><polygon fill="#222222" points="424.86,999.7,415.0245,999.1873,420.1914,1001.4901,417.8886,1006.657,424.86,999.7" style="stroke:#222222;stroke-width:1.0;"/><text fill="#000000" font-family="sans-serif" font-size="13" lengthAdjust="spacing" textLength="90" x="286" y="1014.4951">associated with</text><text fill="#000000" font-family="sans-serif" font-size="13" lengthAdjust="spacing" textLength="7" x="409.8459" y="1016.9283">1</text><!--MD5=[8feb8c37ecca0257623b4f62f4bc0d00]
link ProductOrder to OrderItem--><path codeLine="117" d="M192.39,1205.64 C207.12,1257.78 234.93,1332.82 282,1383 C323.48,1427.22 388.42,1455.53 432.52,1470.84 " fill="none" id="ProductOrder-to-OrderItem" style="stroke:#222222;stroke-width:1.0;"/><polygon fill="#222222" points="437.26,1472.46,430.0469,1465.754,432.531,1470.8362,427.4488,1473.3203,437.26,1472.46" style="stroke:#222222;stroke-width:1.0;"/><text fill="#000000" font-family="sans-serif" font-size="13" lengthAdjust="spacing" textLength="78" x="292" y="1379.4951">composed by</text><text fill="#000000" font-family="sans-serif" font-size="13" lengthAdjust="spacing" textLength="20" x="409.3669" y="1485.3124">1..*</text><!--MD5=[cc39e32170de1a4dc33b7c9b9deef3ab]
link ProductOrder to AGV--><path codeLine="119" d="M124.85,1106.26 C107.92,1091.01 90.56,1072.34 79,1052 C29.85,965.54 9.18,929.56 33,833 C54.87,744.38 110.97,652.74 146.49,600.81 " fill="none" id="ProductOrder-to-AGV" style="stroke:#222222;stroke-width:1.0;"/><polygon fill="#222222" points="149.44,596.53,141.033,601.6605,146.5977,600.6435,147.6146,606.2082,149.44,596.53" style="stroke:#222222;stroke-width:1.0;"/><text fill="#000000" font-family="sans-serif" font-size="13" lengthAdjust="spacing" textLength="63" x="7" y="847.4951">associated</text><text fill="#000000" font-family="sans-serif" font-size="13" lengthAdjust="spacing" textLength="20" x="122.8984" y="618.0426">1..*</text><!--MD5=[1193616b249271a44da9f71ab85dcd42]
@startuml

hide methods
left to right direction
skinparam classAttributeIconSize 0
skinparam classBackgroundColor beige
skinparam ArrowColor #222222


package "<<aggregate>> AGV" {
    entity AGV
    class BriefDescription
    class Model
    class AGVStatus
    class AGVTask
    class MaxWeightCapacity
    class MaxVolumeCapacity
    class AGVPosition
    class AGVId
    class Range
}


entity AGV <<entity>> <<root>> {
    -state
}


entity AGV <<entity>> <<root>> {}

class BriefDescription <<(V,#FF8B40) value object>> {
-briefDescription
}

class Model <<(V,#FF8B40) value object>> {
-model
}

class AGVPosition <<(V,#FF8B40) value object>> {
-agvPosition
}

class AGVStatus<<(V,#FF8B40) value object>> {
    -taskState
}

class AGVTask<<(V,#FF8B40) value object>> {
    -agvTask
}

class AGVId <<(V,#FF8B40) value object>> {
-id
}

class Range <<(V,#FF8B40) value object>> {
-range
}

class MaxWeightCapacity <<(V,#FF8B40) value object>> {
-maxWeightCapacity
}

class MaxVolumeCapacity <<(V,#FF8B40) value object>> {
-volume
}

package "<<aggregate>> ProductOrder"{
    entity ProductOrder
    entity OrderItem
    class TotalPriceWithoutVAT
    class TotalPriceWithVAT
    class Status
    class TotalVolume
    class TotalWeight
    class DeliveryAddress
    class BillingAddress
}


entity ProductOrder <<entity>> <<root>> {
- numericIdentifier
- dateOfOrder
- shipmentMethod
- paymentMethod

}

entity OrderItem <<entity>> {
    -itemQuantity
}

class TotalPriceWithoutVAT <<(V,#FF8B40) value object>> {}
class TotalPriceWithVAT <<(V,#FF8B40) value object>> {}
class DeliveryAddress <<(V,#FF8B40) value object>> {}
class BillingAddress <<(V,#FF8B40) value object>> {}
class Status <<(V,#FF8B40) value object>> {}
class TotalVolume <<(V,#FF8B40) value object>> {}
class TotalWeight <<(V,#FF8B40) value object>> {}


AGV - -> "1" AGVId : has
AGV - -> "1" Range : respects
AGV - -> "1" AGVTask : associated
AGV - -> "1..*" AGVStatus : collects
AGV - -> "1" Model : has
AGV - -> "1" BriefDescription : characterized by
AGV - -> "1" MaxWeightCapacity : respects
AGV - -> "1" MaxVolumeCapacity : respects
AGV - -> "1" AGVPosition : located in

ProductOrder -> "1" TotalPriceWithoutVAT : is marked
ProductOrder - -> "1" TotalPriceWithVAT : is marked
ProductOrder - -> "1" Status : is in
ProductOrder - -> "1" TotalVolume : associated with
ProductOrder - -> "1" TotalWeight : associated with
ProductOrder - -> "1" DeliveryAddress : associated with
ProductOrder - -> "1" BillingAddress : associated with
ProductOrder - -> "1..*" OrderItem : composed by

ProductOrder -> "1..*" AGV : associated

@enduml

PlantUML version 1.2022.1(Tue Feb 01 18:19:58 GMT 2022)
(GPL source distribution)
Java Runtime: OpenJDK Runtime Environment
JVM: OpenJDK 64-Bit Server VM
Default Encoding: Cp1252
Language: pt
Country: BR
--></g></svg>