<?xml version="1.0" encoding="UTF-8" standalone="no"?><svg xmlns="http://www.w3.org/2000/svg" xmlns:xlink="http://www.w3.org/1999/xlink" contentStyleType="text/css" height="1078px" preserveAspectRatio="none" style="width:433px;height:1078px;background:#FFFFFF;" version="1.1" viewBox="0 0 433 1078" width="433px" zoomAndPan="magnify"><defs/><g><!--MD5=[22b4f80a245276e25c9cb3ee67d19758]
cluster <<aggregate>> AGV--><g id="cluster_&lt;&lt;aggregate&gt;&gt; AGV"><path d="M8.5,6 L146.5,6 A3.75,3.75 0 0 1 149,8.5 L156,29.6094 L423.5,29.6094 A2.5,2.5 0 0 1 426,32.1094 L426,1068.5 A2.5,2.5 0 0 1 423.5,1071 L8.5,1071 A2.5,2.5 0 0 1 6,1068.5 L6,8.5 A2.5,2.5 0 0 1 8.5,6 " style="stroke:#000000;stroke-width:1.5;fill:none;"/><line style="stroke:#000000;stroke-width:1.5;fill:none;" x1="6" x2="156" y1="29.6094" y2="29.6094"/><text fill="#000000" font-family="sans-serif" font-size="14" font-weight="bold" lengthAdjust="spacing" textLength="137" x="10" y="22.5332">&lt;&lt;aggregate&gt;&gt; AGV</text></g><!--MD5=[53b2c06ade5903185ca3326dce80e141]
class AGV--><g id="elem_AGV"><rect codeLine="29" fill="#F5F5DC" height="83.4063" id="AGV" rx="2.5" ry="2.5" style="stroke:#181818;stroke-width:0.5;" width="71" x="22" y="498.5"/><ellipse cx="37" cy="527.3984" fill="#ADD1B2" rx="11" ry="11" style="stroke:#181818;stroke-width:1.0;"/><path d="M35.5,528.3984 L35.5,530.3984 L39.5,530.3984 L39.5,529.3984 L39.5,528.9141 L40.125,528.3984 L40.5,528.3984 L40.875,528.3984 L41.5,528.9141 L41.5,529.3984 L41.5,532.3984 L33.5,532.3984 L33.0156,532.3984 L32.5,531.7734 L32.5,531.3984 L32.5,531.0234 L33.0156,530.3984 L33.5,530.3984 L33.5,530.3984 L33.5,524.3984 L33.5,524.3984 L33.0156,524.3984 L32.5,523.7734 L32.5,523.3984 L32.5,523.0234 L33.0156,522.3984 L33.5,522.3984 L41.5,522.3984 L41.5,525.3984 L41.5,525.8828 L40.875,526.3984 L40.5,526.3984 L40.125,526.3984 L39.5,525.8828 L39.5,525.3984 L39.5,524.3984 L35.5,524.3984 L35.5,526.3984 L36.5,526.3984 L36.5,525.9141 L36.5,525.9141 L37.125,525.3984 L37.5,525.3984 L37.875,525.3984 L38.5,525.9141 L38.5,526.3984 L38.5,528.3984 L38.5,528.8828 L37.875,529.3984 L37.875,529.3984 L37.5,529.3984 L37.125,529.3984 L36.5,528.8828 L36.5,528.8828 L36.5,528.3984 L35.5,528.3984 Z " fill="#000000"/><text fill="#000000" font-family="sans-serif" font-size="12" font-style="italic" lengthAdjust="spacing" textLength="43" x="49" y="515.957">«entity»</text><text fill="#000000" font-family="sans-serif" font-size="12" font-style="italic" lengthAdjust="spacing" textLength="35" x="53" y="531.0508">«root»</text><text fill="#000000" font-family="sans-serif" font-size="14" lengthAdjust="spacing" textLength="29" x="56" y="548.2207">AGV</text><line style="stroke:#181818;stroke-width:0.5;" x1="23" x2="92" y1="556.2969" y2="556.2969"/><text fill="#000000" font-family="sans-serif" font-size="14" lengthAdjust="spacing" textLength="36" x="28" y="574.8301">-state</text></g><!--MD5=[16e34fb2e0281018267f0ef5d0b296ef]
class BriefDescription--><g id="elem_BriefDescription"><rect codeLine="31" fill="#F5F5DC" height="68.3125" id="BriefDescription" rx="2.5" ry="2.5" style="stroke:#181818;stroke-width:0.5;" width="132" x="264.5" y="987"/><ellipse cx="279.5" cy="1008.3516" fill="#FF8B40" rx="11" ry="11" style="stroke:#A80036;stroke-width:1.0;"/><path d="M279.5,1011.6328 L281.0313,1006.1016 L281.0313,1006.1016 L280.5156,1006.1016 L280,1005.4766 L280,1005.1016 L280,1004.7266 L280.5156,1004.1016 L281.0313,1004.1016 L282.9063,1004.1016 L283.4844,1004.1016 L284,1004.7266 L284,1005.1016 L284,1005.4766 L283.4844,1006.1016 L283.4844,1006.1016 L283.0313,1006.1016 L280.6875,1014.1016 L278.3125,1014.1016 L275.8438,1006.1016 L275.5156,1006.1016 L275.5156,1006.1016 L275,1005.4766 L275,1005.1016 L275,1004.7266 L275.5156,1004.1016 L276.0938,1004.1016 L277.9688,1004.1016 L278.4844,1004.1016 L279,1004.7266 L279,1005.1016 L279,1005.4766 L278.4844,1006.1016 L277.9688,1006.1016 L277.9688,1006.1016 L279.5,1011.6328 Z " fill="#000000"/><text fill="#000000" font-family="sans-serif" font-size="12" font-style="italic" lengthAdjust="spacing" textLength="81" x="303" y="1004.457">«value object»</text><text fill="#000000" font-family="sans-serif" font-size="14" lengthAdjust="spacing" textLength="100" x="293.5" y="1021.627">BriefDescription</text><line style="stroke:#181818;stroke-width:0.5;" x1="265.5" x2="395.5" y1="1029.7031" y2="1029.7031"/><text fill="#000000" font-family="sans-serif" font-size="14" lengthAdjust="spacing" textLength="104" x="270.5" y="1048.2363">-briefDescription</text></g><!--MD5=[7e20e022571e30ec1001cf6eabd7f3e2]
class Model--><g id="elem_Model"><rect codeLine="35" fill="#F5F5DC" height="68.3125" id="Model" rx="2.5" ry="2.5" style="stroke:#181818;stroke-width:0.5;" width="109" x="276" y="884"/><ellipse cx="291" cy="905.3516" fill="#FF8B40" rx="11" ry="11" style="stroke:#A80036;stroke-width:1.0;"/><path d="M291,908.6328 L292.5313,903.1016 L292.5313,903.1016 L292.0156,903.1016 L291.5,902.4766 L291.5,902.1016 L291.5,901.7266 L292.0156,901.1016 L292.5313,901.1016 L294.4063,901.1016 L294.9844,901.1016 L295.5,901.7266 L295.5,902.1016 L295.5,902.4766 L294.9844,903.1016 L294.9844,903.1016 L294.5313,903.1016 L292.1875,911.1016 L289.8125,911.1016 L287.3438,903.1016 L287.0156,903.1016 L287.0156,903.1016 L286.5,902.4766 L286.5,902.1016 L286.5,901.7266 L287.0156,901.1016 L287.5938,901.1016 L289.4688,901.1016 L289.9844,901.1016 L290.5,901.7266 L290.5,902.1016 L290.5,902.4766 L289.9844,903.1016 L289.4688,903.1016 L289.4688,903.1016 L291,908.6328 Z " fill="#000000"/><text fill="#000000" font-family="sans-serif" font-size="12" font-style="italic" lengthAdjust="spacing" textLength="81" x="303" y="901.457">«value object»</text><text fill="#000000" font-family="sans-serif" font-size="14" lengthAdjust="spacing" textLength="38" x="324.5" y="918.627">Model</text><line style="stroke:#181818;stroke-width:0.5;" x1="277" x2="384" y1="926.7031" y2="926.7031"/><text fill="#000000" font-family="sans-serif" font-size="14" lengthAdjust="spacing" textLength="43" x="282" y="945.2363">-model</text></g><!--MD5=[e583cbaa21abc89bc679fcec0dd8046e]
class AGVStatus--><g id="elem_AGVStatus"><rect codeLine="43" fill="#F5F5DC" height="68.3125" id="AGVStatus" rx="2.5" ry="2.5" style="stroke:#181818;stroke-width:0.5;" width="109" x="276" y="781"/><ellipse cx="291" cy="802.3516" fill="#FF8B40" rx="11" ry="11" style="stroke:#A80036;stroke-width:1.0;"/><path d="M291,805.6328 L292.5313,800.1016 L292.5313,800.1016 L292.0156,800.1016 L291.5,799.4766 L291.5,799.1016 L291.5,798.7266 L292.0156,798.1016 L292.5313,798.1016 L294.4063,798.1016 L294.9844,798.1016 L295.5,798.7266 L295.5,799.1016 L295.5,799.4766 L294.9844,800.1016 L294.9844,800.1016 L294.5313,800.1016 L292.1875,808.1016 L289.8125,808.1016 L287.3438,800.1016 L287.0156,800.1016 L287.0156,800.1016 L286.5,799.4766 L286.5,799.1016 L286.5,798.7266 L287.0156,798.1016 L287.5938,798.1016 L289.4688,798.1016 L289.9844,798.1016 L290.5,798.7266 L290.5,799.1016 L290.5,799.4766 L289.9844,800.1016 L289.4688,800.1016 L289.4688,800.1016 L291,805.6328 Z " fill="#000000"/><text fill="#000000" font-family="sans-serif" font-size="12" font-style="italic" lengthAdjust="spacing" textLength="81" x="303" y="798.457">«value object»</text><text fill="#000000" font-family="sans-serif" font-size="14" lengthAdjust="spacing" textLength="69" x="309" y="815.627">AGVStatus</text><line style="stroke:#181818;stroke-width:0.5;" x1="277" x2="384" y1="823.7031" y2="823.7031"/><text fill="#000000" font-family="sans-serif" font-size="14" lengthAdjust="spacing" textLength="64" x="282" y="842.2363">-taskState</text></g><!--MD5=[529d3a023cdac506d4f0a83ea48e48d1]
class AGVTask--><g id="elem_AGVTask"><rect codeLine="47" fill="#F5F5DC" height="85.9219" id="AGVTask" rx="2.5" ry="2.5" style="stroke:#181818;stroke-width:0.5;" width="142" x="259.5" y="660"/><ellipse cx="297" cy="681.3516" fill="#ADD1B2" rx="11" ry="11" style="stroke:#181818;stroke-width:1.0;"/><path d="M295.5,682.3516 L295.5,684.3516 L299.5,684.3516 L299.5,683.3516 L299.5,682.8672 L300.125,682.3516 L300.5,682.3516 L300.875,682.3516 L301.5,682.8672 L301.5,683.3516 L301.5,686.3516 L293.5,686.3516 L293.0156,686.3516 L292.5,685.7266 L292.5,685.3516 L292.5,684.9766 L293.0156,684.3516 L293.5,684.3516 L293.5,684.3516 L293.5,678.3516 L293.5,678.3516 L293.0156,678.3516 L292.5,677.7266 L292.5,677.3516 L292.5,676.9766 L293.0156,676.3516 L293.5,676.3516 L301.5,676.3516 L301.5,679.3516 L301.5,679.8359 L300.875,680.3516 L300.5,680.3516 L300.125,680.3516 L299.5,679.8359 L299.5,679.3516 L299.5,678.3516 L295.5,678.3516 L295.5,680.3516 L296.5,680.3516 L296.5,679.8672 L296.5,679.8672 L297.125,679.3516 L297.5,679.3516 L297.875,679.3516 L298.5,679.8672 L298.5,680.3516 L298.5,682.3516 L298.5,682.8359 L297.875,683.3516 L297.875,683.3516 L297.5,683.3516 L297.125,683.3516 L296.5,682.8359 L296.5,682.8359 L296.5,682.3516 L295.5,682.3516 Z " fill="#000000"/><text fill="#000000" font-family="sans-serif" font-size="12" font-style="italic" lengthAdjust="spacing" textLength="43" x="324.5" y="677.457">«entity»</text><text fill="#000000" font-family="sans-serif" font-size="14" lengthAdjust="spacing" textLength="60" x="316" y="694.627">AGVTask</text><line style="stroke:#181818;stroke-width:0.5;" x1="260.5" x2="400.5" y1="702.7031" y2="702.7031"/><text fill="#000000" font-family="sans-serif" font-size="14" lengthAdjust="spacing" textLength="16" x="265.5" y="721.2363">-id</text><text fill="#000000" font-family="sans-serif" font-size="14" lengthAdjust="spacing" textLength="130" x="265.5" y="738.8457">-agvTaskDescription</text></g><!--MD5=[05194f585e571ad3b22e4df7dddd3081]
class MaxWeightCapacity--><g id="elem_MaxWeightCapacity"><rect codeLine="60" fill="#F5F5DC" height="68.3125" id="MaxWeightCapacity" rx="2.5" ry="2.5" style="stroke:#181818;stroke-width:0.5;" width="156" x="252.5" y="557"/><ellipse cx="267.5" cy="578.3516" fill="#FF8B40" rx="11" ry="11" style="stroke:#A80036;stroke-width:1.0;"/><path d="M267.5,581.6328 L269.0313,576.1016 L269.0313,576.1016 L268.5156,576.1016 L268,575.4766 L268,575.1016 L268,574.7266 L268.5156,574.1016 L269.0313,574.1016 L270.9063,574.1016 L271.4844,574.1016 L272,574.7266 L272,575.1016 L272,575.4766 L271.4844,576.1016 L271.4844,576.1016 L271.0313,576.1016 L268.6875,584.1016 L266.3125,584.1016 L263.8438,576.1016 L263.5156,576.1016 L263.5156,576.1016 L263,575.4766 L263,575.1016 L263,574.7266 L263.5156,574.1016 L264.0938,574.1016 L265.9688,574.1016 L266.4844,574.1016 L267,574.7266 L267,575.1016 L267,575.4766 L266.4844,576.1016 L265.9688,576.1016 L265.9688,576.1016 L267.5,581.6328 Z " fill="#000000"/><text fill="#000000" font-family="sans-serif" font-size="12" font-style="italic" lengthAdjust="spacing" textLength="81" x="303" y="574.457">«value object»</text><text fill="#000000" font-family="sans-serif" font-size="14" lengthAdjust="spacing" textLength="124" x="281.5" y="591.627">MaxWeightCapacity</text><line style="stroke:#181818;stroke-width:0.5;" x1="253.5" x2="407.5" y1="599.7031" y2="599.7031"/><text fill="#000000" font-family="sans-serif" font-size="14" lengthAdjust="spacing" textLength="129" x="258.5" y="618.2363">-maxWeightCapacity</text></g><!--MD5=[9508bff04b47071e43dc54dae6bb7ca3]
class MaxVolumeCapacity--><g id="elem_MaxVolumeCapacity"><rect codeLine="64" fill="#F5F5DC" height="68.3125" id="MaxVolumeCapacity" rx="2.5" ry="2.5" style="stroke:#181818;stroke-width:0.5;" width="159" x="251" y="454"/><ellipse cx="266" cy="475.3516" fill="#FF8B40" rx="11" ry="11" style="stroke:#A80036;stroke-width:1.0;"/><path d="M266,478.6328 L267.5313,473.1016 L267.5313,473.1016 L267.0156,473.1016 L266.5,472.4766 L266.5,472.1016 L266.5,471.7266 L267.0156,471.1016 L267.5313,471.1016 L269.4063,471.1016 L269.9844,471.1016 L270.5,471.7266 L270.5,472.1016 L270.5,472.4766 L269.9844,473.1016 L269.9844,473.1016 L269.5313,473.1016 L267.1875,481.1016 L264.8125,481.1016 L262.3438,473.1016 L262.0156,473.1016 L262.0156,473.1016 L261.5,472.4766 L261.5,472.1016 L261.5,471.7266 L262.0156,471.1016 L262.5938,471.1016 L264.4688,471.1016 L264.9844,471.1016 L265.5,471.7266 L265.5,472.1016 L265.5,472.4766 L264.9844,473.1016 L264.4688,473.1016 L264.4688,473.1016 L266,478.6328 Z " fill="#000000"/><text fill="#000000" font-family="sans-serif" font-size="12" font-style="italic" lengthAdjust="spacing" textLength="81" x="303" y="471.457">«value object»</text><text fill="#000000" font-family="sans-serif" font-size="14" lengthAdjust="spacing" textLength="127" x="280" y="488.627">MaxVolumeCapacity</text><line style="stroke:#181818;stroke-width:0.5;" x1="252" x2="409" y1="496.7031" y2="496.7031"/><text fill="#000000" font-family="sans-serif" font-size="14" lengthAdjust="spacing" textLength="50" x="257" y="515.2363">-volume</text></g><!--MD5=[4d1e38779c686a11487444ed33c3c69e]
class AGVPosition--><g id="elem_AGVPosition"><rect codeLine="39" fill="#F5F5DC" height="68.3125" id="AGVPosition" rx="2.5" ry="2.5" style="stroke:#181818;stroke-width:0.5;" width="111" x="275" y="351"/><ellipse cx="290" cy="372.3516" fill="#FF8B40" rx="11" ry="11" style="stroke:#A80036;stroke-width:1.0;"/><path d="M290,375.6328 L291.5313,370.1016 L291.5313,370.1016 L291.0156,370.1016 L290.5,369.4766 L290.5,369.1016 L290.5,368.7266 L291.0156,368.1016 L291.5313,368.1016 L293.4063,368.1016 L293.9844,368.1016 L294.5,368.7266 L294.5,369.1016 L294.5,369.4766 L293.9844,370.1016 L293.9844,370.1016 L293.5313,370.1016 L291.1875,378.1016 L288.8125,378.1016 L286.3438,370.1016 L286.0156,370.1016 L286.0156,370.1016 L285.5,369.4766 L285.5,369.1016 L285.5,368.7266 L286.0156,368.1016 L286.5938,368.1016 L288.4688,368.1016 L288.9844,368.1016 L289.5,368.7266 L289.5,369.1016 L289.5,369.4766 L288.9844,370.1016 L288.4688,370.1016 L288.4688,370.1016 L290,375.6328 Z " fill="#000000"/><text fill="#000000" font-family="sans-serif" font-size="12" font-style="italic" lengthAdjust="spacing" textLength="81" x="303" y="368.457">«value object»</text><text fill="#000000" font-family="sans-serif" font-size="14" lengthAdjust="spacing" textLength="79" x="304" y="385.627">AGVPosition</text><line style="stroke:#181818;stroke-width:0.5;" x1="276" x2="385" y1="393.7031" y2="393.7031"/><text fill="#000000" font-family="sans-serif" font-size="14" lengthAdjust="spacing" textLength="78" x="281" y="412.2363">-agvPosition</text></g><!--MD5=[f6f08570da9efaa92dc067d88742b265]
class AGVId--><g id="elem_AGVId"><rect codeLine="52" fill="#F5F5DC" height="68.3125" id="AGVId" rx="2.5" ry="2.5" style="stroke:#181818;stroke-width:0.5;" width="109" x="276" y="248"/><ellipse cx="291" cy="269.3516" fill="#FF8B40" rx="11" ry="11" style="stroke:#A80036;stroke-width:1.0;"/><path d="M291,272.6328 L292.5313,267.1016 L292.5313,267.1016 L292.0156,267.1016 L291.5,266.4766 L291.5,266.1016 L291.5,265.7266 L292.0156,265.1016 L292.5313,265.1016 L294.4063,265.1016 L294.9844,265.1016 L295.5,265.7266 L295.5,266.1016 L295.5,266.4766 L294.9844,267.1016 L294.9844,267.1016 L294.5313,267.1016 L292.1875,275.1016 L289.8125,275.1016 L287.3438,267.1016 L287.0156,267.1016 L287.0156,267.1016 L286.5,266.4766 L286.5,266.1016 L286.5,265.7266 L287.0156,265.1016 L287.5938,265.1016 L289.4688,265.1016 L289.9844,265.1016 L290.5,265.7266 L290.5,266.1016 L290.5,266.4766 L289.9844,267.1016 L289.4688,267.1016 L289.4688,267.1016 L291,272.6328 Z " fill="#000000"/><text fill="#000000" font-family="sans-serif" font-size="12" font-style="italic" lengthAdjust="spacing" textLength="81" x="303" y="265.457">«value object»</text><text fill="#000000" font-family="sans-serif" font-size="14" lengthAdjust="spacing" textLength="40" x="323.5" y="282.627">AGVId</text><line style="stroke:#181818;stroke-width:0.5;" x1="277" x2="384" y1="290.7031" y2="290.7031"/><text fill="#000000" font-family="sans-serif" font-size="14" lengthAdjust="spacing" textLength="16" x="282" y="309.2363">-id</text></g><!--MD5=[2f49539d777d8d7526d361413cf07525]
class Range--><g id="elem_Range"><rect codeLine="56" fill="#F5F5DC" height="68.3125" id="Range" rx="2.5" ry="2.5" style="stroke:#181818;stroke-width:0.5;" width="109" x="276" y="145"/><ellipse cx="291" cy="166.3516" fill="#FF8B40" rx="11" ry="11" style="stroke:#A80036;stroke-width:1.0;"/><path d="M291,169.6328 L292.5313,164.1016 L292.5313,164.1016 L292.0156,164.1016 L291.5,163.4766 L291.5,163.1016 L291.5,162.7266 L292.0156,162.1016 L292.5313,162.1016 L294.4063,162.1016 L294.9844,162.1016 L295.5,162.7266 L295.5,163.1016 L295.5,163.4766 L294.9844,164.1016 L294.9844,164.1016 L294.5313,164.1016 L292.1875,172.1016 L289.8125,172.1016 L287.3438,164.1016 L287.0156,164.1016 L287.0156,164.1016 L286.5,163.4766 L286.5,163.1016 L286.5,162.7266 L287.0156,162.1016 L287.5938,162.1016 L289.4688,162.1016 L289.9844,162.1016 L290.5,162.7266 L290.5,163.1016 L290.5,163.4766 L289.9844,164.1016 L289.4688,164.1016 L289.4688,164.1016 L291,169.6328 Z " fill="#000000"/><text fill="#000000" font-family="sans-serif" font-size="12" font-style="italic" lengthAdjust="spacing" textLength="81" x="303" y="162.457">«value object»</text><text fill="#000000" font-family="sans-serif" font-size="14" lengthAdjust="spacing" textLength="42" x="322.5" y="179.627">Range</text><line style="stroke:#181818;stroke-width:0.5;" x1="277" x2="384" y1="187.7031" y2="187.7031"/><text fill="#000000" font-family="sans-serif" font-size="14" lengthAdjust="spacing" textLength="42" x="282" y="206.2363">-range</text></g><!--MD5=[3070197847995ed8364582962b2418d4]
class AGVBattery--><g id="elem_AGVBattery"><rect codeLine="68" fill="#F5F5DC" height="68.3125" id="AGVBattery" rx="2.5" ry="2.5" style="stroke:#181818;stroke-width:0.5;" width="109" x="276" y="42"/><ellipse cx="291" cy="63.3516" fill="#FF8B40" rx="11" ry="11" style="stroke:#A80036;stroke-width:1.0;"/><path d="M291,66.6328 L292.5313,61.1016 L292.5313,61.1016 L292.0156,61.1016 L291.5,60.4766 L291.5,60.1016 L291.5,59.7266 L292.0156,59.1016 L292.5313,59.1016 L294.4063,59.1016 L294.9844,59.1016 L295.5,59.7266 L295.5,60.1016 L295.5,60.4766 L294.9844,61.1016 L294.9844,61.1016 L294.5313,61.1016 L292.1875,69.1016 L289.8125,69.1016 L287.3438,61.1016 L287.0156,61.1016 L287.0156,61.1016 L286.5,60.4766 L286.5,60.1016 L286.5,59.7266 L287.0156,59.1016 L287.5938,59.1016 L289.4688,59.1016 L289.9844,59.1016 L290.5,59.7266 L290.5,60.1016 L290.5,60.4766 L289.9844,61.1016 L289.4688,61.1016 L289.4688,61.1016 L291,66.6328 Z " fill="#000000"/><text fill="#000000" font-family="sans-serif" font-size="12" font-style="italic" lengthAdjust="spacing" textLength="81" x="303" y="59.457">«value object»</text><text fill="#000000" font-family="sans-serif" font-size="14" lengthAdjust="spacing" textLength="74" x="306.5" y="76.627">AGVBattery</text><line style="stroke:#181818;stroke-width:0.5;" x1="277" x2="384" y1="84.7031" y2="84.7031"/><text fill="#000000" font-family="sans-serif" font-size="14" lengthAdjust="spacing" textLength="49" x="282" y="103.2363">-battery</text></g><!--MD5=[2234673e5bfcd6f879a72487a4afa117]
link AGV to AGVId--><g id="link_AGV_AGVId"><path codeLine="73" d="M71.66,498.27 C82.15,470.04 99.06,433.27 123,407 C164.34,361.63 225.98,327.26 271.15,306.15 " fill="none" id="AGV-to-AGVId" style="stroke:#222222;stroke-width:1.0;"/><polygon fill="#222222" points="275.74,304.02,265.8924,304.1774,271.204,306.1235,269.2579,311.435,275.74,304.02" style="stroke:#222222;stroke-width:1.0;"/><text fill="#000000" font-family="sans-serif" font-size="13" lengthAdjust="spacing" textLength="21" x="161.5" y="331.4951">has</text><text fill="#000000" font-family="sans-serif" font-size="13" lengthAdjust="spacing" textLength="7" x="260.9113" y="321.5517">1</text></g><!--MD5=[b428ecffb88d381ab19e968f9006f1fa]
link AGV to Range--><g id="link_AGV_Range"><path codeLine="74" d="M61.17,498.08 C66.22,448.51 80.82,365.58 123,309 C160.7,258.43 224.39,222.71 271.1,201.67 " fill="none" id="AGV-to-Range" style="stroke:#222222;stroke-width:1.0;"/><polygon fill="#222222" points="275.85,199.56,266.0011,199.5543,271.2798,201.588,269.246,206.8667,275.85,199.56" style="stroke:#222222;stroke-width:1.0;"/><text fill="#000000" font-family="sans-serif" font-size="13" lengthAdjust="spacing" textLength="50" x="147" y="225.4951">respects</text><text fill="#000000" font-family="sans-serif" font-size="13" lengthAdjust="spacing" textLength="7" x="261.0361" y="216.8955">1</text></g><!--MD5=[6df205c85b5f33c8d427fd455753ef9d]
link AGV to AGVTask--><g id="link_AGV_AGVTask"><path codeLine="75" d="M93.32,579.5 C102.43,588.55 112.62,597.65 123,605 C163.46,633.65 213.6,657.67 254.35,674.77 " fill="none" id="AGV-to-AGVTask" style="stroke:#222222;stroke-width:1.0;"/><polygon fill="#222222" points="259.27,676.82,252.4898,669.6766,254.6517,674.904,249.4242,677.0659,259.27,676.82" style="stroke:#222222;stroke-width:1.0;"/><text fill="#000000" font-family="sans-serif" font-size="13" lengthAdjust="spacing" textLength="63" x="140.5" y="601.4951">associated</text><text fill="#000000" font-family="sans-serif" font-size="13" lengthAdjust="spacing" textLength="7" x="244.5635" y="688.4625">1</text></g><!--MD5=[544b9eb422541cc431b04e90f57fdf55]
link AGV to AGVStatus--><g id="link_AGV_AGVStatus"><path codeLine="76" d="M69.62,581.74 C79.6,613.13 96.77,655.74 123,686 C163.69,732.94 225.71,768.5 271.16,790.27 " fill="none" id="AGV-to-AGVStatus" style="stroke:#222222;stroke-width:1.0;"/><polygon fill="#222222" points="275.79,792.47,269.3748,784.997,271.2731,790.3259,265.9442,792.2241,275.79,792.47" style="stroke:#222222;stroke-width:1.0;"/><text fill="#000000" font-family="sans-serif" font-size="13" lengthAdjust="spacing" textLength="45" x="149.5" y="682.4951">collects</text><text fill="#000000" font-family="sans-serif" font-size="13" lengthAdjust="spacing" textLength="20" x="247.9035" y="804.1967">1..*</text></g><!--MD5=[90de021bb2aa8991bb28cb59916c543e]
link AGV to Model--><g id="link_AGV_Model"><path codeLine="77" d="M59.92,581.64 C63.67,634.79 76.92,727.35 123,790 C160.21,840.59 223.99,875.63 270.84,896.09 " fill="none" id="AGV-to-Model" style="stroke:#222222;stroke-width:1.0;"/><polygon fill="#222222" points="275.61,898.15,268.9323,890.9106,271.0195,896.1684,265.7617,898.2555,275.61,898.15" style="stroke:#222222;stroke-width:1.0;"/><text fill="#000000" font-family="sans-serif" font-size="13" lengthAdjust="spacing" textLength="21" x="161.5" y="786.4951">has</text><text fill="#000000" font-family="sans-serif" font-size="13" lengthAdjust="spacing" textLength="7" x="261.1288" y="910.1293">1</text></g><!--MD5=[a00a30fffa578e516f3e19cd4542a765]
link AGV to BriefDescription--><g id="link_AGV_BriefDescription"><path codeLine="78" d="M61.77,581.78 C68.93,664.48 88.19,845.42 123,896 C155.85,943.72 213.45,976.36 259.48,996.28 " fill="none" id="AGV-to-BriefDescription" style="stroke:#222222;stroke-width:1.0;"/><polygon fill="#222222" points="264.18,998.29,257.4834,991.0681,259.5843,996.3204,254.332,998.4213,264.18,998.29" style="stroke:#222222;stroke-width:1.0;"/><text fill="#000000" font-family="sans-serif" font-size="13" lengthAdjust="spacing" textLength="96" x="124" y="892.4951">characterized by</text><text fill="#000000" font-family="sans-serif" font-size="13" lengthAdjust="spacing" textLength="7" x="249.5434" y="1010.1783">1</text></g><!--MD5=[6d8c6a02073692a8b3732d0820cd1b6f]
link AGV to MaxWeightCapacity--><g id="link_AGV_MaxWeightCapacity"><path codeLine="79" d="M93.01,552.43 C102.62,555.57 113.14,558.7 123,561 C163.51,570.47 209.24,577.48 247.34,582.33 " fill="none" id="AGV-to-MaxWeightCapacity" style="stroke:#222222;stroke-width:1.0;"/><polygon fill="#222222" points="252.42,582.97,243.9802,577.8936,247.458,582.3551,242.9964,585.8328,252.42,582.97" style="stroke:#222222;stroke-width:1.0;"/><text fill="#000000" font-family="sans-serif" font-size="13" lengthAdjust="spacing" textLength="50" x="147" y="557.4951">respects</text><text fill="#000000" font-family="sans-serif" font-size="13" lengthAdjust="spacing" textLength="7" x="237.3895" y="596.4641">1</text></g><!--MD5=[4c00ca5a25f901c6cb5884f2d77c2768]
link AGV to MaxVolumeCapacity--><g id="link_AGV_MaxVolumeCapacity"><path codeLine="80" d="M93.1,533.36 C131.39,526.01 194.48,513.91 245.86,504.05 " fill="none" id="AGV-to-MaxVolumeCapacity" style="stroke:#222222;stroke-width:1.0;"/><polygon fill="#222222" points="250.79,503.1,241.1963,500.8726,245.8801,504.0448,242.7079,508.7285,250.79,503.1" style="stroke:#222222;stroke-width:1.0;"/><text fill="#000000" font-family="sans-serif" font-size="13" lengthAdjust="spacing" textLength="50" x="147" y="506.4951">respects</text><text fill="#000000" font-family="sans-serif" font-size="13" lengthAdjust="spacing" textLength="7" x="236.1191" y="518.7264">1</text></g><!--MD5=[bf5efedcc9e681833f119f210f8fc209]
link AGV to AGVPosition--><g id="link_AGV_AGVPosition"><path codeLine="81" d="M93.3,506.81 C102.56,498.82 112.84,490.67 123,484 C169.72,453.32 227.4,426.48 269.92,408.52 " fill="none" id="AGV-to-AGVPosition" style="stroke:#222222;stroke-width:1.0;"/><polygon fill="#222222" points="274.76,406.48,264.9131,406.286,270.1518,408.4203,268.0175,413.6591,274.76,406.48" style="stroke:#222222;stroke-width:1.0;"/><text fill="#000000" font-family="sans-serif" font-size="13" lengthAdjust="spacing" textLength="56" x="144" y="429.4951">located in</text><text fill="#000000" font-family="sans-serif" font-size="13" lengthAdjust="spacing" textLength="7" x="260.1699" y="423.7547">1</text></g><!--MD5=[60c568af0e60b9cdd1ce486ce97e50dc]
link AGV to AGVBattery--><g id="link_AGV_AGVBattery"><path codeLine="82" d="M62.27,498.34 C70.11,419.13 90.21,250.49 123,203 C158.83,151.1 223.47,116.44 270.92,96.63 " fill="none" id="AGV-to-AGVBattery" style="stroke:#222222;stroke-width:1.0;"/><polygon fill="#222222" points="275.74,94.64,265.8942,94.3941,271.1217,96.556,268.9598,101.7834,275.74,94.64" style="stroke:#222222;stroke-width:1.0;"/><text fill="#000000" font-family="sans-serif" font-size="13" lengthAdjust="spacing" textLength="66" x="139" y="120.4951">powered by</text><text fill="#000000" font-family="sans-serif" font-size="13" lengthAdjust="spacing" textLength="7" x="260.9113" y="111.7175">1</text></g><!--MD5=[c025de3b22356b0d01280057ed23fe62]
@startuml

hide methods
left to right direction
skinparam classAttributeIconSize 0
skinparam classBackgroundColor beige
skinparam ArrowColor #222222


package "<<aggregate>> AGV" {
    entity AGV
    class BriefDescription
    class Model
    class AGVStatus
    entity AGVTask
    class MaxWeightCapacity
    class MaxVolumeCapacity
    class AGVPosition
    class AGVId
    class Range
    class AGVBattery
}


entity AGV <<entity>> <<root>> {
    -state
}


entity AGV <<entity>> <<root>> {}

class BriefDescription <<(V,#FF8B40) value object>> {
-briefDescription
}

class Model <<(V,#FF8B40) value object>> {
-model
}

class AGVPosition <<(V,#FF8B40) value object>> {
-agvPosition
}

class AGVStatus<<(V,#FF8B40) value object>> {
    -taskState
}

entity AGVTask <<entity>> {
    -id
    -agvTaskDescription
}

class AGVId <<(V,#FF8B40) value object>> {
-id
}

class Range <<(V,#FF8B40) value object>> {
-range
}

class MaxWeightCapacity <<(V,#FF8B40) value object>> {
-maxWeightCapacity
}

class MaxVolumeCapacity <<(V,#FF8B40) value object>> {
-volume
}

class AGVBattery <<(V,#FF8B40) value object>> {
-battery
}


AGV - -> "1" AGVId : has
AGV - -> "1" Range : respects
AGV - -> "1" AGVTask : associated
AGV - -> "1..*" AGVStatus : collects
AGV - -> "1" Model : has
AGV - -> "1" BriefDescription : characterized by
AGV - -> "1" MaxWeightCapacity : respects
AGV - -> "1" MaxVolumeCapacity : respects
AGV - -> "1" AGVPosition : located in
AGV - -> "1" AGVBattery : powered by



@enduml

PlantUML version 1.2022.5(Sat Apr 30 11:55:52 BST 2022)
(GPL source distribution)
Java Runtime: OpenJDK Runtime Environment
JVM: OpenJDK 64-Bit Server VM
Default Encoding: Cp1252
Language: pt
Country: BR
--></g></svg>