<?xml version="1.0" encoding="UTF-8" standalone="no"?><svg xmlns="http://www.w3.org/2000/svg" xmlns:xlink="http://www.w3.org/1999/xlink" contentStyleType="text/css" height="644.8px" preserveAspectRatio="none" style="width:1185px;height:644px;background:#FFFFFF;" version="1.1" viewBox="0 0 1185 644" width="1185.6px" zoomAndPan="magnify"><defs/><g><rect fill="#FFFFFF" height="458.0563" style="stroke:#181818;stroke-width:0.8000000000000002;" width="8" x="92.8" y="94.8563"/><rect fill="#FFFFFF" height="135.2438" style="stroke:#181818;stroke-width:0.8000000000000002;" width="8" x="96.8" y="222.3813"/><rect fill="#FFFFFF" height="100.5625" style="stroke:#181818;stroke-width:0.8000000000000002;" width="8" x="100.8" y="257.0625"/><rect fill="#FFFFFF" height="72.5625" style="stroke:#181818;stroke-width:0.8000000000000002;" width="8" x="207.2" y="450.4688"/><rect fill="#FFFFFF" height="48.2813" style="stroke:#181818;stroke-width:0.8000000000000002;" width="8" x="423.2" y="474.75"/><rect fill="#FFFFFF" height="24" style="stroke:#181818;stroke-width:0.8000000000000002;" width="8" x="648" y="499.0313"/><rect fill="#FFFFFF" height="24.2813" style="stroke:#181818;stroke-width:0.8000000000000002;" width="8" x="764.8" y="119.1375"/><rect fill="#FFFFFF" height="24" style="stroke:#181818;stroke-width:0.8000000000000002;" width="8" x="764.8" y="402.1875"/><rect fill="#FFFFFF" height="24" style="stroke:#181818;stroke-width:0.8000000000000002;" width="8" x="896.4" y="167.7"/><rect fill="#FFFFFF" height="24" style="stroke:#181818;stroke-width:0.8000000000000002;" width="8" x="1020.4" y="285.3438"/><rect fill="#FFFFFF" height="24" style="stroke:#181818;stroke-width:0.8000000000000002;" width="8" x="1126.8" y="333.625"/><rect height="159.8063" style="stroke:#000000;stroke-width:1.2000000000000002;fill:none;" width="800.8" x="28" y="369.625"/><line style="stroke:#181818;stroke-width:0.4000000000000001;fill:none;stroke-dasharray:5.0,5.0;" x1="96.8" x2="96.8" y1="68.975" y2="567.3125"/><line style="stroke:#181818;stroke-width:0.4000000000000001;fill:none;stroke-dasharray:5.0,5.0;" x1="210.8" x2="210.8" y1="68.975" y2="567.3125"/><line style="stroke:#181818;stroke-width:0.4000000000000001;fill:none;stroke-dasharray:5.0,5.0;" x1="427.2" x2="427.2" y1="68.975" y2="567.3125"/><line style="stroke:#181818;stroke-width:0.4000000000000001;fill:none;stroke-dasharray:5.0,5.0;" x1="652" x2="652" y1="68.975" y2="567.3125"/><line style="stroke:#181818;stroke-width:0.4000000000000001;fill:none;stroke-dasharray:5.0,5.0;" x1="768.8" x2="768.8" y1="68.975" y2="567.3125"/><line style="stroke:#181818;stroke-width:0.4000000000000001;fill:none;stroke-dasharray:5.0,5.0;" x1="900" x2="900" y1="68.975" y2="567.3125"/><line style="stroke:#181818;stroke-width:0.4000000000000001;fill:none;stroke-dasharray:5.0,5.0;" x1="1024" x2="1024" y1="68.975" y2="567.3125"/><line style="stroke:#181818;stroke-width:0.4000000000000001;fill:none;stroke-dasharray:5.0,5.0;" x1="1130.4" x2="1130.4" y1="68.975" y2="567.3125"/><rect fill="#E2E2F0" height="39.375" rx="2" ry="2" style="stroke:#181818;stroke-width:0.4000000000000001;" width="121.6" x="36" y="28.8"/><text fill="#000000" font-family="sans-serif" font-size="11.2" font-style="italic" lengthAdjust="spacing" textLength="67.2" x="63.2" y="46.0266">«application»</text><text fill="#000000" font-family="sans-serif" font-size="11.2" lengthAdjust="spacing" textLength="110.4" x="41.6" y="60.1141">WarehouseMovement</text><rect fill="#E2E2F0" height="39.375" rx="2" ry="2" style="stroke:#181818;stroke-width:0.4000000000000001;" width="121.6" x="36" y="566.5125"/><text fill="#000000" font-family="sans-serif" font-size="11.2" font-style="italic" lengthAdjust="spacing" textLength="67.2" x="63.2" y="583.7391">«application»</text><text fill="#000000" font-family="sans-serif" font-size="11.2" lengthAdjust="spacing" textLength="110.4" x="41.6" y="597.8266">WarehouseMovement</text><rect fill="#E2E2F0" height="25.2875" rx="2" ry="2" style="stroke:#181818;stroke-width:0.4000000000000001;" width="74.4" x="174" y="42.8875"/><text fill="#000000" font-family="sans-serif" font-size="11.2" lengthAdjust="spacing" textLength="63.2" x="179.6" y="60.1141">agvManager</text><rect fill="#E2E2F0" height="25.2875" rx="2" ry="2" style="stroke:#181818;stroke-width:0.4000000000000001;" width="74.4" x="174" y="566.5125"/><text fill="#000000" font-family="sans-serif" font-size="11.2" lengthAdjust="spacing" textLength="63.2" x="179.6" y="583.7391">agvManager</text><rect fill="#E2E2F0" height="25.2875" rx="2" ry="2" style="stroke:#181818;stroke-width:0.4000000000000001;" width="64" x="395.2" y="42.8875"/><text fill="#000000" font-family="sans-serif" font-size="11.2" lengthAdjust="spacing" textLength="52.8" x="400.8" y="60.1141">digitalTwin</text><rect fill="#E2E2F0" height="25.2875" rx="2" ry="2" style="stroke:#181818;stroke-width:0.4000000000000001;" width="64" x="395.2" y="566.5125"/><text fill="#000000" font-family="sans-serif" font-size="11.2" lengthAdjust="spacing" textLength="52.8" x="400.8" y="583.7391">digitalTwin</text><rect fill="#E2E2F0" height="39.375" rx="2" ry="2" style="stroke:#181818;stroke-width:0.4000000000000001;" width="113.6" x="595.2" y="28.8"/><text fill="#000000" font-family="sans-serif" font-size="11.2" font-style="italic" lengthAdjust="spacing" textLength="67.2" x="618.4" y="46.0266">«application»</text><text fill="#000000" font-family="sans-serif" font-size="11.2" lengthAdjust="spacing" textLength="102.4" x="600.8" y="60.1141">GetAGVInfoRequest</text><rect fill="#E2E2F0" height="39.375" rx="2" ry="2" style="stroke:#181818;stroke-width:0.4000000000000001;" width="113.6" x="595.2" y="566.5125"/><text fill="#000000" font-family="sans-serif" font-size="11.2" font-style="italic" lengthAdjust="spacing" textLength="67.2" x="618.4" y="583.7391">«application»</text><text fill="#000000" font-family="sans-serif" font-size="11.2" lengthAdjust="spacing" textLength="102.4" x="600.8" y="597.8266">GetAGVInfoRequest</text><rect fill="#E2E2F0" height="39.375" rx="2" ry="2" style="stroke:#181818;stroke-width:0.4000000000000001;" width="104" x="716.8" y="28.8"/><text fill="#000000" font-family="sans-serif" font-size="11.2" font-style="italic" lengthAdjust="spacing" textLength="47.2" x="745.2" y="46.0266">«factory»</text><text fill="#000000" font-family="sans-serif" font-size="11.2" lengthAdjust="spacing" textLength="92.8" x="722.4" y="60.1141">RepositoryFactory</text><rect fill="#E2E2F0" height="39.375" rx="2" ry="2" style="stroke:#181818;stroke-width:0.4000000000000001;" width="104" x="716.8" y="566.5125"/><text fill="#000000" font-family="sans-serif" font-size="11.2" font-style="italic" lengthAdjust="spacing" textLength="47.2" x="745.2" y="583.7391">«factory»</text><text fill="#000000" font-family="sans-serif" font-size="11.2" lengthAdjust="spacing" textLength="92.8" x="722.4" y="597.8266">RepositoryFactory</text><text fill="#000000" font-family="sans-serif" font-size="11.2" font-style="italic" lengthAdjust="spacing" textLength="63.2" x="866.4" y="52.4266">«repository»</text><text fill="#000000" font-family="sans-serif" font-size="11.2" lengthAdjust="spacing" textLength="138.4" x="828.8" y="66.5141">WarehousePlantRepository</text><path d="M886,12 C886,4 900.4,4 900.4,4 C900.4,4 914.8,4 914.8,12 L914.8,32.8 C914.8,40.8 900.4,40.8 900.4,40.8 C900.4,40.8 886,40.8 886,32.8 L886,12 " fill="#E2E2F0" style="stroke:#181818;stroke-width:1.2000000000000002;"/><path d="M886,12 C886,20 900.4,20 900.4,20 C900.4,20 914.8,20 914.8,12 " fill="none" style="stroke:#181818;stroke-width:1.2000000000000002;"/><text fill="#000000" font-family="sans-serif" font-size="11.2" font-style="italic" lengthAdjust="spacing" textLength="63.2" x="866.4" y="578.1391">«repository»</text><text fill="#000000" font-family="sans-serif" font-size="11.2" lengthAdjust="spacing" textLength="138.4" x="828.8" y="592.2266">WarehousePlantRepository</text><path d="M886,602.6875 C886,594.6875 900.4,594.6875 900.4,594.6875 C900.4,594.6875 914.8,594.6875 914.8,602.6875 L914.8,623.4875 C914.8,631.4875 900.4,631.4875 900.4,631.4875 C900.4,631.4875 886,631.4875 886,623.4875 L886,602.6875 " fill="#E2E2F0" style="stroke:#181818;stroke-width:1.2000000000000002;"/><path d="M886,602.6875 C886,610.6875 900.4,610.6875 900.4,610.6875 C900.4,610.6875 914.8,610.6875 914.8,602.6875 " fill="none" style="stroke:#181818;stroke-width:1.2000000000000002;"/><text fill="#000000" font-family="sans-serif" font-size="11.2" font-style="italic" lengthAdjust="spacing" textLength="63.2" x="990.4" y="52.4266">«repository»</text><text fill="#000000" font-family="sans-serif" font-size="11.2" lengthAdjust="spacing" textLength="84" x="980" y="66.5141">AislesRepository</text><path d="M1010,12 C1010,4 1024.4,4 1024.4,4 C1024.4,4 1038.8,4 1038.8,12 L1038.8,32.8 C1038.8,40.8 1024.4,40.8 1024.4,40.8 C1024.4,40.8 1010,40.8 1010,32.8 L1010,12 " fill="#E2E2F0" style="stroke:#181818;stroke-width:1.2000000000000002;"/><path d="M1010,12 C1010,20 1024.4,20 1024.4,20 C1024.4,20 1038.8,20 1038.8,12 " fill="none" style="stroke:#181818;stroke-width:1.2000000000000002;"/><text fill="#000000" font-family="sans-serif" font-size="11.2" font-style="italic" lengthAdjust="spacing" textLength="63.2" x="990.4" y="578.1391">«repository»</text><text fill="#000000" font-family="sans-serif" font-size="11.2" lengthAdjust="spacing" textLength="84" x="980" y="592.2266">AislesRepository</text><path d="M1010,602.6875 C1010,594.6875 1024.4,594.6875 1024.4,594.6875 C1024.4,594.6875 1038.8,594.6875 1038.8,602.6875 L1038.8,623.4875 C1038.8,631.4875 1024.4,631.4875 1024.4,631.4875 C1024.4,631.4875 1010,631.4875 1010,623.4875 L1010,602.6875 " fill="#E2E2F0" style="stroke:#181818;stroke-width:1.2000000000000002;"/><path d="M1010,602.6875 C1010,610.6875 1024.4,610.6875 1024.4,610.6875 C1024.4,610.6875 1038.8,610.6875 1038.8,602.6875 " fill="none" style="stroke:#181818;stroke-width:1.2000000000000002;"/><text fill="#000000" font-family="sans-serif" font-size="11.2" font-style="italic" lengthAdjust="spacing" textLength="63.2" x="1096.8" y="52.4266">«repository»</text><text fill="#000000" font-family="sans-serif" font-size="11.2" lengthAdjust="spacing" textLength="103.2" x="1076.8" y="66.5141">AGVDockRepository</text><path d="M1116.4,12 C1116.4,4 1130.8,4 1130.8,4 C1130.8,4 1145.2,4 1145.2,12 L1145.2,32.8 C1145.2,40.8 1130.8,40.8 1130.8,40.8 C1130.8,40.8 1116.4,40.8 1116.4,32.8 L1116.4,12 " fill="#E2E2F0" style="stroke:#181818;stroke-width:1.2000000000000002;"/><path d="M1116.4,12 C1116.4,20 1130.8,20 1130.8,20 C1130.8,20 1145.2,20 1145.2,12 " fill="none" style="stroke:#181818;stroke-width:1.2000000000000002;"/><text fill="#000000" font-family="sans-serif" font-size="11.2" font-style="italic" lengthAdjust="spacing" textLength="63.2" x="1096.8" y="578.1391">«repository»</text><text fill="#000000" font-family="sans-serif" font-size="11.2" lengthAdjust="spacing" textLength="103.2" x="1076.8" y="592.2266">AGVDockRepository</text><path d="M1116.4,602.6875 C1116.4,594.6875 1130.8,594.6875 1130.8,594.6875 C1130.8,594.6875 1145.2,594.6875 1145.2,602.6875 L1145.2,623.4875 C1145.2,631.4875 1130.8,631.4875 1130.8,631.4875 C1130.8,631.4875 1116.4,631.4875 1116.4,623.4875 L1116.4,602.6875 " fill="#E2E2F0" style="stroke:#181818;stroke-width:1.2000000000000002;"/><path d="M1116.4,602.6875 C1116.4,610.6875 1130.8,610.6875 1130.8,610.6875 C1130.8,610.6875 1145.2,610.6875 1145.2,602.6875 " fill="none" style="stroke:#181818;stroke-width:1.2000000000000002;"/><rect fill="#FFFFFF" height="458.0563" style="stroke:#181818;stroke-width:0.8000000000000002;" width="8" x="92.8" y="94.8563"/><rect fill="#FFFFFF" height="135.2438" style="stroke:#181818;stroke-width:0.8000000000000002;" width="8" x="96.8" y="222.3813"/><rect fill="#FFFFFF" height="100.5625" style="stroke:#181818;stroke-width:0.8000000000000002;" width="8" x="100.8" y="257.0625"/><rect fill="#FFFFFF" height="72.5625" style="stroke:#181818;stroke-width:0.8000000000000002;" width="8" x="207.2" y="450.4688"/><rect fill="#FFFFFF" height="48.2813" style="stroke:#181818;stroke-width:0.8000000000000002;" width="8" x="423.2" y="474.75"/><rect fill="#FFFFFF" height="24" style="stroke:#181818;stroke-width:0.8000000000000002;" width="8" x="648" y="499.0313"/><rect fill="#FFFFFF" height="24.2813" style="stroke:#181818;stroke-width:0.8000000000000002;" width="8" x="764.8" y="119.1375"/><rect fill="#FFFFFF" height="24" style="stroke:#181818;stroke-width:0.8000000000000002;" width="8" x="764.8" y="402.1875"/><rect fill="#FFFFFF" height="24" style="stroke:#181818;stroke-width:0.8000000000000002;" width="8" x="896.4" y="167.7"/><rect fill="#FFFFFF" height="24" style="stroke:#181818;stroke-width:0.8000000000000002;" width="8" x="1020.4" y="285.3438"/><rect fill="#FFFFFF" height="24" style="stroke:#181818;stroke-width:0.8000000000000002;" width="8" x="1126.8" y="333.625"/><polygon fill="#181818" points="83.2,91.6563,91.2,94.8563,83.2,98.0563,86.4,94.8563" style="stroke:#181818;stroke-width:0.8000000000000002;"/><line style="stroke:#181818;stroke-width:0.8000000000000002;" x1="0" x2="88" y1="94.8563" y2="94.8563"/><text fill="#000000" font-family="sans-serif" font-size="10.4" font-weight="bold" lengthAdjust="spacing" textLength="5.6" x="5.6" y="90.9711">1</text><text fill="#000000" font-family="sans-serif" font-size="10.4" lengthAdjust="spacing" textLength="3.2" x="14.4" y="90.9711"> </text><polygon fill="#181818" points="755.2,115.9375,763.2,119.1375,755.2,122.3375,758.4,119.1375" style="stroke:#181818;stroke-width:0.8000000000000002;"/><line style="stroke:#181818;stroke-width:0.8000000000000002;" x1="100.8" x2="760" y1="119.1375" y2="119.1375"/><text fill="#000000" font-family="sans-serif" font-size="10.4" font-weight="bold" lengthAdjust="spacing" textLength="5.6" x="106.4" y="115.2523">2</text><text fill="#000000" font-family="sans-serif" font-size="10.4" lengthAdjust="spacing" textLength="60" x="115.2" y="115.2523">repositories()</text><polygon fill="#181818" points="890.8,140.2188,898.8,143.4188,890.8,146.6188,894,143.4188" style="stroke:#181818;stroke-width:0.8000000000000002;"/><line style="stroke:#181818;stroke-width:0.8000000000000002;" x1="768.8" x2="895.6" y1="143.4188" y2="143.4188"/><text fill="#000000" font-family="sans-serif" font-size="10.4" font-weight="bold" lengthAdjust="spacing" textLength="5.6" x="774.4" y="139.5336">3</text><text fill="#000000" font-family="sans-serif" font-size="10.4" lengthAdjust="spacing" textLength="28.8" x="783.2" y="139.5336">create</text><polygon fill="#181818" points="886.8,164.5,894.8,167.7,886.8,170.9,890,167.7" style="stroke:#181818;stroke-width:0.8000000000000002;"/><line style="stroke:#181818;stroke-width:0.8000000000000002;" x1="100.8" x2="891.6" y1="167.7" y2="167.7"/><text fill="#000000" font-family="sans-serif" font-size="10.4" font-weight="bold" lengthAdjust="spacing" textLength="5.6" x="106.4" y="163.8148">4</text><text fill="#000000" font-family="sans-serif" font-size="10.4" lengthAdjust="spacing" textLength="51.2" x="115.2" y="163.8148">findById(id)</text><line style="stroke:#181818;stroke-width:0.8000000000000002;" x1="100.8" x2="138.4" y1="211.9813" y2="211.9813"/><line style="stroke:#181818;stroke-width:0.8000000000000002;" x1="138.4" x2="138.4" y1="211.9813" y2="222.3813"/><line style="stroke:#181818;stroke-width:0.8000000000000002;" x1="105.6" x2="138.4" y1="222.3813" y2="222.3813"/><polygon fill="#181818" points="113.6,219.1813,105.6,222.3813,113.6,225.5813,110.4,222.3813" style="stroke:#181818;stroke-width:0.8000000000000002;"/><text fill="#000000" font-family="sans-serif" font-size="10.4" font-weight="bold" lengthAdjust="spacing" textLength="5.6" x="110.4" y="208.0961">5</text><text fill="#000000" font-family="sans-serif" font-size="10.4" lengthAdjust="spacing" textLength="40.8" x="119.2" y="208.0961">buildGrid</text><line style="stroke:#181818;stroke-width:0.8000000000000002;" x1="104.8" x2="142.4" y1="246.6625" y2="246.6625"/><line style="stroke:#181818;stroke-width:0.8000000000000002;" x1="142.4" x2="142.4" y1="246.6625" y2="257.0625"/><line style="stroke:#181818;stroke-width:0.8000000000000002;" x1="109.6" x2="142.4" y1="257.0625" y2="257.0625"/><polygon fill="#181818" points="117.6,253.8625,109.6,257.0625,117.6,260.2625,114.4,257.0625" style="stroke:#181818;stroke-width:0.8000000000000002;"/><text fill="#000000" font-family="sans-serif" font-size="10.4" font-weight="bold" lengthAdjust="spacing" textLength="5.6" x="114.4" y="242.7773">6</text><text fill="#000000" font-family="sans-serif" font-size="10.4" lengthAdjust="spacing" textLength="82.4" x="123.2" y="242.7773">markObstacules()</text><polygon fill="#181818" points="1010.8,282.1438,1018.8,285.3438,1010.8,288.5438,1014,285.3438" style="stroke:#181818;stroke-width:0.8000000000000002;"/><line style="stroke:#181818;stroke-width:0.8000000000000002;" x1="108.8" x2="1015.6" y1="285.3438" y2="285.3438"/><text fill="#000000" font-family="sans-serif" font-size="10.4" font-weight="bold" lengthAdjust="spacing" textLength="5.6" x="114.4" y="281.4586">7</text><text fill="#000000" font-family="sans-serif" font-size="10.4" lengthAdjust="spacing" textLength="85.6" x="123.2" y="281.4586">aisleList = findAll()</text><polygon fill="#181818" points="1117.2,330.425,1125.2,333.625,1117.2,336.825,1120.4,333.625" style="stroke:#181818;stroke-width:0.8000000000000002;"/><line style="stroke:#181818;stroke-width:0.8000000000000002;" x1="108.8" x2="1122" y1="333.625" y2="333.625"/><text fill="#000000" font-family="sans-serif" font-size="10.4" font-weight="bold" lengthAdjust="spacing" textLength="5.6" x="114.4" y="329.7398">8</text><text fill="#000000" font-family="sans-serif" font-size="10.4" lengthAdjust="spacing" textLength="103.2" x="123.2" y="329.7398">agvDockList = findAll()</text><path d="M28,369.625 L86.4,369.625 L86.4,376.3063 L78.4,384.3063 L28,384.3063 L28,369.625 " fill="#EEEEEE" style="stroke:#000000;stroke-width:1.2000000000000002;"/><rect fill="none" height="159.8063" style="stroke:#000000;stroke-width:1.2000000000000002;" width="800.8" x="28" y="369.625"/><text fill="#000000" font-family="sans-serif" font-size="10.4" font-weight="bold" lengthAdjust="spacing" textLength="22.4" x="40" y="381.2211">loop</text><text fill="#000000" font-family="sans-serif" font-size="8.8" font-weight="bold" lengthAdjust="spacing" textLength="103.2" x="98.4" y="380.3602">[for each agv retrieved]</text><polygon fill="#181818" points="755.2,398.9875,763.2,402.1875,755.2,405.3875,758.4,402.1875" style="stroke:#181818;stroke-width:0.8000000000000002;"/><line style="stroke:#181818;stroke-width:0.8000000000000002;" x1="100.8" x2="760" y1="402.1875" y2="402.1875"/><text fill="#000000" font-family="sans-serif" font-size="10.4" font-weight="bold" lengthAdjust="spacing" textLength="5.6" x="106.4" y="398.3023">9</text><text fill="#000000" font-family="sans-serif" font-size="10.4" lengthAdjust="spacing" textLength="34.4" x="115.2" y="398.3023">findAll()</text><polygon fill="#181818" points="197.6,447.2688,205.6,450.4688,197.6,453.6688,200.8,450.4688" style="stroke:#181818;stroke-width:0.8000000000000002;"/><line style="stroke:#181818;stroke-width:0.8000000000000002;" x1="100.8" x2="202.4" y1="450.4688" y2="450.4688"/><text fill="#000000" font-family="sans-serif" font-size="10.4" font-weight="bold" lengthAdjust="spacing" textLength="11.2" x="106.4" y="446.5836">10</text><text fill="#000000" font-family="sans-serif" font-size="10.4" lengthAdjust="spacing" textLength="68.8" x="120.8" y="446.5836">println(request)</text><polygon fill="#181818" points="413.6,471.55,421.6,474.75,413.6,477.95,416.8,474.75" style="stroke:#181818;stroke-width:0.8000000000000002;"/><line style="stroke:#181818;stroke-width:0.8000000000000002;" x1="215.2" x2="418.4" y1="474.75" y2="474.75"/><text fill="#000000" font-family="sans-serif" font-size="10.4" font-weight="bold" lengthAdjust="spacing" textLength="11.2" x="220.8" y="470.8648">11</text><text fill="#000000" font-family="sans-serif" font-size="10.4" lengthAdjust="spacing" textLength="178.4" x="235.2" y="470.8648">callAGVInfoRequest(inputLine, tokens)</text><polygon fill="#181818" points="638.4,495.8313,646.4,499.0313,638.4,502.2313,641.6,499.0313" style="stroke:#181818;stroke-width:0.8000000000000002;"/><line style="stroke:#181818;stroke-width:0.8000000000000002;" x1="431.2" x2="643.2" y1="499.0313" y2="499.0313"/><text fill="#000000" font-family="sans-serif" font-size="10.4" font-weight="bold" lengthAdjust="spacing" textLength="11.2" x="436.8" y="495.1461">12</text><text fill="#000000" font-family="sans-serif" font-size="10.4" lengthAdjust="spacing" textLength="187.2" x="451.2" y="495.1461">getAGVsInformationForDashboard(agvId)</text><polygon fill="#181818" points="8.8,549.7125,0.8,552.9125,8.8,556.1125,5.6,552.9125" style="stroke:#181818;stroke-width:0.8000000000000002;"/><line style="stroke:#181818;stroke-width:0.8000000000000002;stroke-dasharray:2.0,2.0;" x1="4" x2="96" y1="552.9125" y2="552.9125"/><text fill="#000000" font-family="sans-serif" font-size="10.4" font-weight="bold" lengthAdjust="spacing" textLength="11.2" x="13.6" y="549.0273">13</text><text fill="#000000" font-family="sans-serif" font-size="10.4" lengthAdjust="spacing" textLength="63.2" x="28" y="549.0273">info about agv</text><!--MD5=[a9f360af2206b6255bb0732fb35b4d7b]
@startuml

autonumber

participant WarehouseMovement as wm <<application>>
participant agvManager as agvManager
participant digitalTwin as digitalTwin
participant GetAGVInfoRequest as infoRequest <<application>>
participant RepositoryFactory as factory <<factory>>

database WarehousePlantRepository as repository <<repository>>
database AislesRepository as aislerepository <<repository>>
database AGVDockRepository as agvrepository <<repository>>


 -> wm :
activate wm
wm -> factory : repositories()
activate factory
factory -> repository : create
deactivate factory
wm -> repository : findById(id)
activate repository
deactivate repository
wm -> wm : buildGrid
activate wm
wm -> wm : markObstacules()
activate wm
wm -> aislerepository : aisleList = findAll()
activate aislerepository
deactivate aislerepository
wm -> agvrepository : agvDockList = findAll()
activate agvrepository
deactivate agvrepository
deactivate wm
deactivate wm
loop for each agv retrieved
wm -> factory : findAll()
activate factory
deactivate factory

wm -> agvManager : println(request)
activate agvManager

agvManager -> digitalTwin : callAGVInfoRequest(inputLine, tokens)
activate digitalTwin

digitalTwin -> infoRequest : getAGVsInformationForDashboard(agvId)
activate infoRequest
deactivate infoRequest

deactivate digitalTwin

deactivate agvManager



end loop

 <- - wm : info about agv
 deactivate wm

@enduml

PlantUML version 1.2022.4(Sat Apr 09 14:29:17 BST 2022)
(GPL source distribution)
Java Runtime: OpenJDK Runtime Environment
JVM: OpenJDK 64-Bit Server VM
Default Encoding: Cp1252
Language: pt
Country: PT
--></g></svg>