<?xml version="1.0" encoding="UTF-8" standalone="no"?><svg xmlns="http://www.w3.org/2000/svg" xmlns:xlink="http://www.w3.org/1999/xlink" contentStyleType="text/css" height="592px" preserveAspectRatio="none" style="width:786px;height:592px;background:#FFFFFF;" version="1.1" viewBox="0 0 786 592" width="786px" zoomAndPan="magnify"><defs/><g><rect fill="#FFFFFF" height="358.8125" style="stroke:#181818;stroke-width:1.0;" width="10" x="109" y="118.5703"/><rect fill="#FFFFFF" height="169.0547" style="stroke:#181818;stroke-width:1.0;" width="10" x="114" y="277.9766"/><rect fill="#FFFFFF" height="125.7031" style="stroke:#181818;stroke-width:1.0;" width="10" x="119" y="321.3281"/><rect fill="#FFFFFF" height="30.3516" style="stroke:#181818;stroke-width:1.0;" width="10" x="260" y="148.9219"/><rect fill="#FFFFFF" height="30" style="stroke:#181818;stroke-width:1.0;" width="10" x="424.5" y="209.625"/><rect fill="#FFFFFF" height="30" style="stroke:#181818;stroke-width:1.0;" width="10" x="579.5" y="356.6797"/><rect fill="#FFFFFF" height="30" style="stroke:#181818;stroke-width:1.0;" width="10" x="712.5" y="417.0313"/><line style="stroke:#181818;stroke-width:0.5;stroke-dasharray:5.0,5.0;" x1="114" x2="114" y1="86.2188" y2="495.3828"/><line style="stroke:#181818;stroke-width:0.5;stroke-dasharray:5.0,5.0;" x1="265" x2="265" y1="86.2188" y2="495.3828"/><line style="stroke:#181818;stroke-width:0.5;stroke-dasharray:5.0,5.0;" x1="429" x2="429" y1="86.2188" y2="495.3828"/><line style="stroke:#181818;stroke-width:0.5;stroke-dasharray:5.0,5.0;" x1="584" x2="584" y1="86.2188" y2="495.3828"/><line style="stroke:#181818;stroke-width:0.5;stroke-dasharray:5.0,5.0;" x1="717" x2="717" y1="86.2188" y2="495.3828"/><rect fill="#E2E2F0" height="49.2188" rx="2.5" ry="2.5" style="stroke:#181818;stroke-width:0.5;" width="152" x="38" y="36"/><text fill="#000000" font-family="sans-serif" font-size="14" font-style="italic" lengthAdjust="spacing" textLength="84" x="72" y="57.5332">«application»</text><text fill="#000000" font-family="sans-serif" font-size="14" lengthAdjust="spacing" textLength="138" x="45" y="75.1426">WarehouseMovement</text><rect fill="#E2E2F0" height="49.2188" rx="2.5" ry="2.5" style="stroke:#181818;stroke-width:0.5;" width="152" x="38" y="494.3828"/><text fill="#000000" font-family="sans-serif" font-size="14" font-style="italic" lengthAdjust="spacing" textLength="84" x="72" y="515.916">«application»</text><text fill="#000000" font-family="sans-serif" font-size="14" lengthAdjust="spacing" textLength="138" x="45" y="533.5254">WarehouseMovement</text><rect fill="#E2E2F0" height="49.2188" rx="2.5" ry="2.5" style="stroke:#181818;stroke-width:0.5;" width="130" x="200" y="36"/><text fill="#000000" font-family="sans-serif" font-size="14" font-style="italic" lengthAdjust="spacing" textLength="59" x="235.5" y="57.5332">«factory»</text><text fill="#000000" font-family="sans-serif" font-size="14" lengthAdjust="spacing" textLength="116" x="207" y="75.1426">RepositoryFactory</text><rect fill="#E2E2F0" height="49.2188" rx="2.5" ry="2.5" style="stroke:#181818;stroke-width:0.5;" width="130" x="200" y="494.3828"/><text fill="#000000" font-family="sans-serif" font-size="14" font-style="italic" lengthAdjust="spacing" textLength="59" x="235.5" y="515.916">«factory»</text><text fill="#000000" font-family="sans-serif" font-size="14" lengthAdjust="spacing" textLength="116" x="207" y="533.5254">RepositoryFactory</text><text fill="#000000" font-family="sans-serif" font-size="14" font-style="italic" lengthAdjust="spacing" textLength="79" x="387" y="65.5332">«repository»</text><text fill="#000000" font-family="sans-serif" font-size="14" lengthAdjust="spacing" textLength="173" x="340" y="83.1426">WarehousePlantRepository</text><path d="M411.5,15 C411.5,5 429.5,5 429.5,5 C429.5,5 447.5,5 447.5,15 L447.5,41 C447.5,51 429.5,51 429.5,51 C429.5,51 411.5,51 411.5,41 L411.5,15 " fill="#E2E2F0" style="stroke:#181818;stroke-width:1.5;"/><path d="M411.5,15 C411.5,25 429.5,25 429.5,25 C429.5,25 447.5,25 447.5,15 " fill="none" style="stroke:#181818;stroke-width:1.5;"/><text fill="#000000" font-family="sans-serif" font-size="14" font-style="italic" lengthAdjust="spacing" textLength="79" x="387" y="508.916">«repository»</text><text fill="#000000" font-family="sans-serif" font-size="14" lengthAdjust="spacing" textLength="173" x="340" y="526.5254">WarehousePlantRepository</text><path d="M411.5,539.6016 C411.5,529.6016 429.5,529.6016 429.5,529.6016 C429.5,529.6016 447.5,529.6016 447.5,539.6016 L447.5,565.6016 C447.5,575.6016 429.5,575.6016 429.5,575.6016 C429.5,575.6016 411.5,575.6016 411.5,565.6016 L411.5,539.6016 " fill="#E2E2F0" style="stroke:#181818;stroke-width:1.5;"/><path d="M411.5,539.6016 C411.5,549.6016 429.5,549.6016 429.5,549.6016 C429.5,549.6016 447.5,549.6016 447.5,539.6016 " fill="none" style="stroke:#181818;stroke-width:1.5;"/><text fill="#000000" font-family="sans-serif" font-size="14" font-style="italic" lengthAdjust="spacing" textLength="79" x="542" y="65.5332">«repository»</text><text fill="#000000" font-family="sans-serif" font-size="14" lengthAdjust="spacing" textLength="105" x="529" y="83.1426">AislesRepository</text><path d="M566.5,15 C566.5,5 584.5,5 584.5,5 C584.5,5 602.5,5 602.5,15 L602.5,41 C602.5,51 584.5,51 584.5,51 C584.5,51 566.5,51 566.5,41 L566.5,15 " fill="#E2E2F0" style="stroke:#181818;stroke-width:1.5;"/><path d="M566.5,15 C566.5,25 584.5,25 584.5,25 C584.5,25 602.5,25 602.5,15 " fill="none" style="stroke:#181818;stroke-width:1.5;"/><text fill="#000000" font-family="sans-serif" font-size="14" font-style="italic" lengthAdjust="spacing" textLength="79" x="542" y="508.916">«repository»</text><text fill="#000000" font-family="sans-serif" font-size="14" lengthAdjust="spacing" textLength="105" x="529" y="526.5254">AislesRepository</text><path d="M566.5,539.6016 C566.5,529.6016 584.5,529.6016 584.5,529.6016 C584.5,529.6016 602.5,529.6016 602.5,539.6016 L602.5,565.6016 C602.5,575.6016 584.5,575.6016 584.5,575.6016 C584.5,575.6016 566.5,575.6016 566.5,565.6016 L566.5,539.6016 " fill="#E2E2F0" style="stroke:#181818;stroke-width:1.5;"/><path d="M566.5,539.6016 C566.5,549.6016 584.5,549.6016 584.5,549.6016 C584.5,549.6016 602.5,549.6016 602.5,539.6016 " fill="none" style="stroke:#181818;stroke-width:1.5;"/><text fill="#000000" font-family="sans-serif" font-size="14" font-style="italic" lengthAdjust="spacing" textLength="79" x="675" y="65.5332">«repository»</text><text fill="#000000" font-family="sans-serif" font-size="14" lengthAdjust="spacing" textLength="129" x="650" y="83.1426">AGVDockRepository</text><path d="M699.5,15 C699.5,5 717.5,5 717.5,5 C717.5,5 735.5,5 735.5,15 L735.5,41 C735.5,51 717.5,51 717.5,51 C717.5,51 699.5,51 699.5,41 L699.5,15 " fill="#E2E2F0" style="stroke:#181818;stroke-width:1.5;"/><path d="M699.5,15 C699.5,25 717.5,25 717.5,25 C717.5,25 735.5,25 735.5,15 " fill="none" style="stroke:#181818;stroke-width:1.5;"/><text fill="#000000" font-family="sans-serif" font-size="14" font-style="italic" lengthAdjust="spacing" textLength="79" x="675" y="508.916">«repository»</text><text fill="#000000" font-family="sans-serif" font-size="14" lengthAdjust="spacing" textLength="129" x="650" y="526.5254">AGVDockRepository</text><path d="M699.5,539.6016 C699.5,529.6016 717.5,529.6016 717.5,529.6016 C717.5,529.6016 735.5,529.6016 735.5,539.6016 L735.5,565.6016 C735.5,575.6016 717.5,575.6016 717.5,575.6016 C717.5,575.6016 699.5,575.6016 699.5,565.6016 L699.5,539.6016 " fill="#E2E2F0" style="stroke:#181818;stroke-width:1.5;"/><path d="M699.5,539.6016 C699.5,549.6016 717.5,549.6016 717.5,549.6016 C717.5,549.6016 735.5,549.6016 735.5,539.6016 " fill="none" style="stroke:#181818;stroke-width:1.5;"/><rect fill="#FFFFFF" height="358.8125" style="stroke:#181818;stroke-width:1.0;" width="10" x="109" y="118.5703"/><rect fill="#FFFFFF" height="169.0547" style="stroke:#181818;stroke-width:1.0;" width="10" x="114" y="277.9766"/><rect fill="#FFFFFF" height="125.7031" style="stroke:#181818;stroke-width:1.0;" width="10" x="119" y="321.3281"/><rect fill="#FFFFFF" height="30.3516" style="stroke:#181818;stroke-width:1.0;" width="10" x="260" y="148.9219"/><rect fill="#FFFFFF" height="30" style="stroke:#181818;stroke-width:1.0;" width="10" x="424.5" y="209.625"/><rect fill="#FFFFFF" height="30" style="stroke:#181818;stroke-width:1.0;" width="10" x="579.5" y="356.6797"/><rect fill="#FFFFFF" height="30" style="stroke:#181818;stroke-width:1.0;" width="10" x="712.5" y="417.0313"/><polygon fill="#181818" points="97,114.5703,107,118.5703,97,122.5703,101,118.5703" style="stroke:#181818;stroke-width:1.0;"/><line style="stroke:#181818;stroke-width:1.0;" x1="0" x2="103" y1="118.5703" y2="118.5703"/><text fill="#000000" font-family="sans-serif" font-size="13" font-weight="bold" lengthAdjust="spacing" textLength="7" x="7" y="113.7139">1</text><text fill="#000000" font-family="sans-serif" font-size="13" lengthAdjust="spacing" textLength="4" x="18" y="113.7139"> </text><polygon fill="#181818" points="248,144.9219,258,148.9219,248,152.9219,252,148.9219" style="stroke:#181818;stroke-width:1.0;"/><line style="stroke:#181818;stroke-width:1.0;" x1="119" x2="254" y1="148.9219" y2="148.9219"/><text fill="#000000" font-family="sans-serif" font-size="13" font-weight="bold" lengthAdjust="spacing" textLength="7" x="126" y="144.0654">2</text><text fill="#000000" font-family="sans-serif" font-size="13" lengthAdjust="spacing" textLength="75" x="137" y="144.0654">repositories()</text><polygon fill="#181818" points="417.5,175.2734,427.5,179.2734,417.5,183.2734,421.5,179.2734" style="stroke:#181818;stroke-width:1.0;"/><line style="stroke:#181818;stroke-width:1.0;" x1="265" x2="423.5" y1="179.2734" y2="179.2734"/><text fill="#000000" font-family="sans-serif" font-size="13" font-weight="bold" lengthAdjust="spacing" textLength="7" x="272" y="174.417">3</text><text fill="#000000" font-family="sans-serif" font-size="13" lengthAdjust="spacing" textLength="36" x="283" y="174.417">create</text><polygon fill="#181818" points="412.5,205.625,422.5,209.625,412.5,213.625,416.5,209.625" style="stroke:#181818;stroke-width:1.0;"/><line style="stroke:#181818;stroke-width:1.0;" x1="119" x2="418.5" y1="209.625" y2="209.625"/><text fill="#000000" font-family="sans-serif" font-size="13" font-weight="bold" lengthAdjust="spacing" textLength="7" x="126" y="204.7686">4</text><text fill="#000000" font-family="sans-serif" font-size="13" lengthAdjust="spacing" textLength="64" x="137" y="204.7686">findById(id)</text><line style="stroke:#181818;stroke-width:1.0;" x1="119" x2="166" y1="264.9766" y2="264.9766"/><line style="stroke:#181818;stroke-width:1.0;" x1="166" x2="166" y1="264.9766" y2="277.9766"/><line style="stroke:#181818;stroke-width:1.0;" x1="125" x2="166" y1="277.9766" y2="277.9766"/><polygon fill="#181818" points="135,273.9766,125,277.9766,135,281.9766,131,277.9766" style="stroke:#181818;stroke-width:1.0;"/><text fill="#000000" font-family="sans-serif" font-size="13" font-weight="bold" lengthAdjust="spacing" textLength="7" x="131" y="260.1201">5</text><text fill="#000000" font-family="sans-serif" font-size="13" lengthAdjust="spacing" textLength="51" x="142" y="260.1201">buildGrid</text><line style="stroke:#181818;stroke-width:1.0;" x1="124" x2="171" y1="308.3281" y2="308.3281"/><line style="stroke:#181818;stroke-width:1.0;" x1="171" x2="171" y1="308.3281" y2="321.3281"/><line style="stroke:#181818;stroke-width:1.0;" x1="130" x2="171" y1="321.3281" y2="321.3281"/><polygon fill="#181818" points="140,317.3281,130,321.3281,140,325.3281,136,321.3281" style="stroke:#181818;stroke-width:1.0;"/><text fill="#000000" font-family="sans-serif" font-size="13" font-weight="bold" lengthAdjust="spacing" textLength="7" x="136" y="303.4717">6</text><text fill="#000000" font-family="sans-serif" font-size="13" lengthAdjust="spacing" textLength="103" x="147" y="303.4717">markObstacules()</text><polygon fill="#181818" points="567.5,352.6797,577.5,356.6797,567.5,360.6797,571.5,356.6797" style="stroke:#181818;stroke-width:1.0;"/><line style="stroke:#181818;stroke-width:1.0;" x1="129" x2="573.5" y1="356.6797" y2="356.6797"/><text fill="#000000" font-family="sans-serif" font-size="13" font-weight="bold" lengthAdjust="spacing" textLength="7" x="136" y="351.8232">7</text><text fill="#000000" font-family="sans-serif" font-size="13" lengthAdjust="spacing" textLength="107" x="147" y="351.8232">aisleList = findAll()</text><polygon fill="#181818" points="700.5,413.0313,710.5,417.0313,700.5,421.0313,704.5,417.0313" style="stroke:#181818;stroke-width:1.0;"/><line style="stroke:#181818;stroke-width:1.0;" x1="129" x2="706.5" y1="417.0313" y2="417.0313"/><text fill="#000000" font-family="sans-serif" font-size="13" font-weight="bold" lengthAdjust="spacing" textLength="7" x="136" y="412.1748">8</text><text fill="#000000" font-family="sans-serif" font-size="13" lengthAdjust="spacing" textLength="129" x="147" y="412.1748">agvDockList = findAll()</text><polygon fill="#181818" points="11,473.3828,1,477.3828,11,481.3828,7,477.3828" style="stroke:#181818;stroke-width:1.0;"/><line style="stroke:#181818;stroke-width:1.0;stroke-dasharray:2.0,2.0;" x1="5" x2="113" y1="477.3828" y2="477.3828"/><text fill="#000000" font-family="sans-serif" font-size="13" font-weight="bold" lengthAdjust="spacing" textLength="7" x="17" y="472.5264">9</text><text fill="#000000" font-family="sans-serif" font-size="13" lengthAdjust="spacing" textLength="79" x="28" y="472.5264">info about agv</text><!--MD5=[50da4746fb70b21749d433918e2abbcd]
@startuml

autonumber

participant WarehouseMovement as wm <<application>>
participant RepositoryFactory as factory <<factory>>

database WarehousePlantRepository as repository <<repository>>
database AislesRepository as aislerepository <<repository>>
database AGVDockRepository as agvrepository <<repository>>


 -> wm :
activate wm
wm -> factory : repositories()
activate factory
factory -> repository : create
deactivate factory
wm -> repository : findById(id)
activate repository
deactivate repository
wm -> wm : buildGrid
activate wm
wm -> wm : markObstacules()
activate wm
wm -> aislerepository : aisleList = findAll()
activate aislerepository
deactivate aislerepository
wm -> agvrepository : agvDockList = findAll()
activate agvrepository
deactivate agvrepository
deactivate wm
deactivate wm


 <- - wm : info about agv
 deactivate wm

@enduml

PlantUML version 1.2022.5(Sat Apr 30 11:55:52 BST 2022)
(GPL source distribution)
Java Runtime: OpenJDK Runtime Environment
JVM: OpenJDK 64-Bit Server VM
Default Encoding: Cp1252
Language: pt
Country: PT
--></g></svg>